<?xml version="1.0" encoding="utf-8"?>
<!-- Generator: Adobe Illustrator 19.2.1, SVG Export Plug-In . SVG Version: 6.00 Build 0)  -->
<svg version="1.1" id="Layer_1" xmlns="http://www.w3.org/2000/svg" xmlns:xlink="http://www.w3.org/1999/xlink" x="0px" y="0px"
	 width="512px" height="512px" viewBox="0 0 512 512" enable-background="new 0 0 512 512" xml:space="preserve">
<path fill="#7dc540" d="M456,64H56c-6.6,0-12,5.4-12,12v304c0,6.6,5.4,12,12,12h160v28h-48c-6.6,0-12,5.4-12,12v16h200v-16
	c0-6.6-5.4-12-12-12h-48v-28h160c6.6,0,12-5.4,12-12V76C468,69.4,462.6,64,456,64z M440,352H72.1V92H440V352z"/>
<rect x="116" y="232" fill="#7dc540" width="80" height="80"/>
<rect x="216" y="232" fill="#7dc540" width="80" height="80"/>
<rect x="316" y="132" fill="#7dc540" width="80" height="80"/>
<rect x="316" y="232" fill="#7dc540" width="80" height="80"/>
<rect x="116" y="132" fill="#7dc540" width="179.9" height="80"/>
</svg>
