<?xml version="1.0" encoding="utf-8"?>
<!-- Generator: Adobe Illustrator 18.0.0, SVG Export Plug-In . SVG Version: 6.00 Build 0)  -->
<!DOCTYPE svg PUBLIC "-//W3C//DTD SVG 1.1//EN" "http://www.w3.org/Graphics/SVG/1.1/DTD/svg11.dtd">
<svg version="1.1" id="Ebene_1" xmlns="http://www.w3.org/2000/svg" xmlns:xlink="http://www.w3.org/1999/xlink" x="0px" y="0px"
	 width="512px" height="512px" viewBox="0 0 512 512" enable-background="new 0 0 512 512" xml:space="preserve">
<path id="XMLID_557_" fill="#cccccc" d="M445.3,261.8c-5.8-16.9-24.2-25.9-41.1-20.1l-40.3,13.8l-23.9-69.7l47.1-16.1
	c16.9-5.8,25.9-24.2,20.1-41.1c-5.8-16.9-24.2-25.9-41.1-20.1l-47.1,16.1l-12.2-35.7c-5.8-16.9-24.2-25.9-41.1-20.1
	c-16.9,5.8-25.9,24.2-20.1,41.1l12.2,35.7l-69.7,23.9l-14.6-42.5c-5.8-16.9-24.2-25.9-41.1-20.1c-16.9,5.8-25.9,24.2-20.1,41.1
	l14.6,42.5l-38,13c-16.9,5.8-25.9,24.2-20.1,41.1c4.6,13.4,17.2,21.9,30.6,21.9c3.5,0,7-0.6,10.5-1.8l38-13l23.9,69.7l-44.7,15.3
	c-16.9,5.8-25.9,24.2-20.1,41.1c4.6,13.4,17.2,21.9,30.6,21.9c3.5,0,7-0.6,10.5-1.8l44.7-15.3l14.6,42.5
	c4.6,13.4,17.2,21.9,30.6,21.9c3.5,0,7-0.6,10.5-1.8c16.9-5.8,25.9-24.2,20.1-41.1L254,361.6l69.7-23.9l16.9,49.3
	c4.6,13.4,17.2,21.9,30.6,21.9c3.5,0,7-0.6,10.5-1.8c16.9-5.8,25.9-24.2,20.1-41.1l-16.9-49.3l40.3-13.8
	C442.1,297.1,451.1,278.7,445.3,261.8z M233,300.3l-23.9-69.7l69.7-23.9l23.9,69.7L233,300.3z"/>
</svg>
