<?xml version="1.0" encoding="utf-8"?>
<!-- Generator: Adobe Illustrator 16.0.4, SVG Export Plug-In . SVG Version: 6.00 Build 0)  -->
<!DOCTYPE svg PUBLIC "-//W3C//DTD SVG 1.1//EN" "http://www.w3.org/Graphics/SVG/1.1/DTD/svg11.dtd">
<svg version="1.1" id="Layer_1" xmlns="http://www.w3.org/2000/svg" xmlns:xlink="http://www.w3.org/1999/xlink" x="0px" y="0px"
	 width="512px" height="512px" viewBox="0 0 512 512" enable-background="new 0 0 512 512" xml:space="preserve">
<g>
	<g>
		<path fill="#cccccc" d="M68.33,213.457c0.211,19.255,0.926,49.657,3.135,83.708c3.759,57.811,11.175,109.219,11.175,109.219
			l96.252-91.614c0,0-3.502-45.825,2.182-114.27C181.073,200.5,74.49,187.771,68.33,213.457z"/>
	</g>
	<g>
		<path fill="#cccccc" d="M290.067,445.347c24.935-7.063,17.646-111.753,17.646-111.753c-68.642,2.292-114.247-3.465-114.247-3.465
			l-96.252,91.609c0,0,50.986,9.951,108.545,16.56c32.496,3.727,76.534,6.774,82.713,7.201
			C288.977,445.53,289.783,445.425,290.067,445.347z"/>
	</g>
	<path fill="#cccccc" d="M68.284,207.53c0.009,1.829,0.027,3.813,0.046,5.931c1.137-4.693,2.896-7.961,6.792-12.907
		c7.93-10.047,20.718-12.668,25.842-13.352c26.062-3.41,64.535-7.608,103.402-8.814c68.642-2.113,114.046,3.584,114.046,3.584
		l96.252-91.619c0,0-50.51-9.625-108.06-16.395c-37.593-4.414-70.813-6.756-89.331-7.842c-1.237-0.083-14.566-1.705-27.088,10.185
		c-13.741,13.026-82.631,78.414-110.333,104.718C67.34,192.905,68.274,206.297,68.284,207.53z"/>
	<path fill="#cccccc" d="M295.118,445.897c-1.824-0.106-3.804-0.216-5.921-0.349c4.748-0.898,8.112-2.493,13.228-6.137
		c10.432-7.425,13.686-20.066,14.612-25.163c4.693-25.855,10.789-64.076,13.905-102.838c5.501-68.454,2.054-114.087,2.054-114.087
		l96.243-91.614c0,0,7.132,50.927,11.056,108.738c2.548,37.772,3.254,71.071,3.419,89.62c0.009,1.233,0.99,14.635-11.505,26.542
		c-13.695,13.086-82.4,78.666-110.029,105.03C309.694,447.551,296.365,445.961,295.118,445.897z"/>
</g>
</svg>
