<?xml version="1.0" encoding="utf-8"?>
<!-- Generator: Adobe Illustrator 16.0.4, SVG Export Plug-In . SVG Version: 6.00 Build 0)  -->
<!DOCTYPE svg PUBLIC "-//W3C//DTD SVG 1.1//EN" "http://www.w3.org/Graphics/SVG/1.1/DTD/svg11.dtd">
<svg version="1.1" id="Layer_1" xmlns="http://www.w3.org/2000/svg" xmlns:xlink="http://www.w3.org/1999/xlink" x="0px" y="0px"
	 width="512px" height="512px" viewBox="0 0 512 512" enable-background="new 0 0 512 512" xml:space="preserve">
<g>
	<g>
		<g>
			<path fill="#454646" d="M388.328,165.116c0.435-3.504,0.662-7.072,0.662-10.683c0-47.54-38.542-86.083-86.085-86.083
				c-38.248,0-70.669,24.944-81.884,59.45c-9.375-4.649-19.949-7.273-31.133-7.273c-38.308,0-69.435,30.729-70.078,68.886
				C88.057,201.417,66,227.88,66,258.61c0,42.004,41.226,76.055,92.077,76.055c37.591,0,138.369,0,178.854,0
				c60.236,0,109.069-40.339,109.069-90.089C446,210.176,422.65,180.293,388.328,165.116z M292.459,295.281l19.502-18.289
				c-18.641-19.892-47.045-29.6-75.5-22.995c-30.785,7.144-53.133,31.389-59.367,60.358l-35.188,8.162
				c3.562-47.867,37.702-89.938,86.932-101.364c40.597-9.423,81.14,4.397,107.74,32.751l18.523-17.371l19.551,83.621
				L292.459,295.281z"/>
		</g>
	</g>
	<path fill="#454646" d="M272.174,407.865c-26.645,6.188-53.257-1.935-71.838-19.324l20.109-18.854l-82.2-24.879l19.557,83.623
		l17.885-16.774c26.571,25.842,65.318,38.056,104.107,29.048c49.228-11.423,83.368-53.494,86.934-101.362l-35.189,8.166
		C325.299,376.479,302.951,400.724,272.174,407.865z"/>
</g>
</svg>
