<?xml version="1.0" encoding="utf-8"?>
<!-- Generator: Adobe Illustrator 18.1.1, SVG Export Plug-In . SVG Version: 6.00 Build 0)  -->
<svg version="1.1" id="Ebene_1" xmlns="http://www.w3.org/2000/svg" xmlns:xlink="http://www.w3.org/1999/xlink" x="0px" y="0px"
	 width="512px" height="512px" viewBox="0 0 512 512" enable-background="new 0 0 512 512" xml:space="preserve">
<g>
	<path fill="#454646" d="M352.4,231v198.8H466V231H352.4z M403.8,370.6h-32.9v-42h32.9V370.6z M447.6,370.6h-32.9v-42h32.9V370.6z
		 M447.6,291.7h-32.9v-42h32.9V291.7z"/>
	<path fill="#454646" d="M46,167.4v262.3h67.5V167.4H46z M98.8,229.9H60.7v-46h38.1V229.9z M98.8,297.8H60.7v-46h38.1V297.8z"/>
	<path fill="#454646" d="M133.6,82.2v347.5h198.8V82.2H133.6z M196.5,207.8h-42.6v-42.6h42.6V207.8z M196.5,145.2h-42.6v-42.6h42.6
		V145.2z M255.3,207.8h-42.6v-42.6h42.6V207.8z M255.3,145.2h-42.6v-42.6h42.6V145.2z M314.2,145.2h-42.6v-42.6h42.6V145.2z"/>
</g>
</svg>
