<?xml version="1.0" encoding="utf-8"?>
<!-- Generator: Adobe Illustrator 16.0.4, SVG Export Plug-In . SVG Version: 6.00 Build 0)  -->
<!DOCTYPE svg PUBLIC "-//W3C//DTD SVG 1.1//EN" "http://www.w3.org/Graphics/SVG/1.1/DTD/svg11.dtd">
<svg version="1.1" id="Layer_1" xmlns="http://www.w3.org/2000/svg" xmlns:xlink="http://www.w3.org/1999/xlink" x="0px" y="0px"
	 width="512px" height="512px" viewBox="0 0 512 512" enable-background="new 0 0 512 512" xml:space="preserve">
<g>
	<g>
		<g>
			<path fill="#454646" d="M431.387,131.203H80.62c-8.044,0-14.62,6.587-14.62,14.624v87.691c0,8.033,6.576,14.609,14.62,14.609
				h350.767c8.029,0,14.613-6.577,14.613-14.609v-87.691C446,137.791,439.416,131.203,431.387,131.203z M249.332,197.684H95.598
				v-16.04h153.734V197.684z"/>
		</g>
	</g>
	<g>
		<g>
			<path fill="#454646" d="M431.387,263.879H80.62c-8.044,0-14.62,6.58-14.62,14.617v87.691c0,8.033,6.576,14.609,14.62,14.609
				h350.767c8.029,0,14.613-6.577,14.613-14.609v-87.691C446,270.459,439.416,263.879,431.387,263.879z M249.332,330.353H95.598
				v-16.04h153.734V330.353z"/>
		</g>
	</g>
</g>
</svg>
