<?xml version="1.0" encoding="utf-8"?>
<!-- Generator: Adobe Illustrator 16.0.4, SVG Export Plug-In . SVG Version: 6.00 Build 0)  -->
<!DOCTYPE svg PUBLIC "-//W3C//DTD SVG 1.1//EN" "http://www.w3.org/Graphics/SVG/1.1/DTD/svg11.dtd">
<svg version="1.1" id="Layer_1" xmlns="http://www.w3.org/2000/svg" xmlns:xlink="http://www.w3.org/1999/xlink" x="0px" y="0px"
	 width="512px" height="512px" viewBox="0 0 512 512" enable-background="new 0 0 512 512" xml:space="preserve">
<path fill="#454646" d="M256,66C151.23,66,66,151.24,66,256c0,104.769,85.231,190,190,190s190-85.231,190-190
	C446,151.24,360.769,66,256,66z M368.195,378.679H336.75c-34.308,0-62.223-27.911-62.223-62.223V192.278l74.154,74.14l26.069-26.088
	L265.23,130.807h-18.462L137.25,240.331l26.116,26.088l74.112-74.13v124.168c0,46.229,31.807,85.063,74.65,96.062
	c-17.534,6.286-36.423,9.732-56.128,9.732C164.2,422.25,89.75,347.809,89.75,256S164.2,89.75,256,89.75
	c91.846,0,166.25,74.441,166.25,166.25C422.25,304.576,401.413,348.282,368.195,378.679z"/>
</svg>
