<?xml version="1.0" encoding="utf-8"?>
<!-- Generator: Adobe Illustrator 19.2.1, SVG Export Plug-In . SVG Version: 6.00 Build 0)  -->
<svg version="1.1" id="Layer_1" xmlns="http://www.w3.org/2000/svg" xmlns:xlink="http://www.w3.org/1999/xlink" x="0px" y="0px"
	 width="512px" height="512px" viewBox="0 0 512 512" enable-background="new 0 0 512 512" xml:space="preserve">
<g>
	<g>
		<polygon fill="#454646" points="256,266.831 44,165.247 256,68.081 468,165.247 		"/>
		<path fill="#454646" d="M367.865,398.33c4.442-3.204,7.345-8.413,7.345-14.312c0-6.519-3.541-12.198-8.794-15.252V233.933
			l-17.667,8.466v126.366c-5.252,3.055-8.793,8.734-8.793,15.252c0,5.899,2.903,11.109,7.345,14.312
			c-7.005,19.315-11.78,52.292-11.78,60.771c0,8.818,8.695,8.818,22.061,8.818c13.134,0,22.061,0.175,22.061-8.818
			C379.645,450.621,374.869,417.644,367.865,398.33z"/>
	</g>
	<polygon fill="#454646" points="384,240.748 384,322.653 406.167,310.914 406.167,230.126 	"/>
	<polygon fill="#454646" points="332,265.664 256,302.081 105.834,230.126 105.834,310.914 256.043,390.414 332,350.19 	"/>
</g>
</svg>
