<?xml version="1.0" encoding="utf-8"?>
<!-- Generator: Adobe Illustrator 18.1.1, SVG Export Plug-In . SVG Version: 6.00 Build 0)  -->
<svg version="1.1" id="Ebene_1" xmlns="http://www.w3.org/2000/svg" xmlns:xlink="http://www.w3.org/1999/xlink" x="0px" y="0px"
	 width="512px" height="512px" viewBox="0 0 512 512" enable-background="new 0 0 512 512" xml:space="preserve">
<g>
	<path fill="#454646" d="M342.1,218.1c10,8.4,18.6,15.5,26.5,21.6c25.8-12.3,49.7-17.8,73.9-20.2C425.5,132.1,348.5,66,256,66
		c-52.3,0-99.7,21.2-134.1,55.4C245.3,134.4,306,187.8,342.1,218.1z"/>
	<path fill="#454646" d="M445.4,271.6c0.4-5.2,0.6-10.4,0.6-15.6c0-5.3-0.2-10.5-0.6-15.6c-21.9,2.2-37.4,6.9-52.8,15.6
		C407.9,264.7,423.4,269.4,445.4,271.6z"/>
	<path fill="#454646" d="M368.6,272.3c-7.9,6.1-16.5,13.3-26.5,21.6c-36.1,30.3-96.8,83.7-220.2,96.7C156.3,424.8,203.7,446,256,446
		c92.5,0,169.5-66,186.5-153.5C418.3,290.1,394.4,284.6,368.6,272.3z"/>
	<path fill="#454646" d="M339.6,256c-41.5-25.2-109.6-64.1-265.7-54.2C68.8,219,66,237.2,66,256c0,18.8,2.8,37,7.9,54.2
		C230,320.1,298.1,281.2,339.6,256z"/>
</g>
</svg>
