<?xml version="1.0" encoding="utf-8"?>
<svg xmlns="http://www.w3.org/2000/svg" viewBox="0 0 512 512"><path d="M124.45,183.51v51.24L194.82,232V171.83l-0.07-4.37Zm80.08,148.42v8.77H304V275.18H205.45Zm-78.59-230.5-0.29,45.71,69.18-20.8V68.81l0-1.16Zm78.59,287,1,63.85H304V382H204.53v6.52Zm-80.08-66.78,70.28,15.89,0.09-5.69V273l-70.37-2.72v51.45ZM85.17,300.52l29.57,17.39V269.65l-29.49-2.51Zm0,60.84,29.57,36V353.42l-29.5-22.79Zm-2-123.2,31.55-4v-47L83.19,206v32.2Zm41.25,119.43v56.2l70.37,34.13V388.55L194.68,379ZM83.19,174.74l31.55-22.08V113.24L83.19,145.36v29.38ZM316.38,232l67.72,2.75V183.47l-66.7-15.94Zm82.28,85.77,31.55-16.92V267l-31.55,2.89v47.9Zm0,81.86,31.55-36.85V332.24l-31.55,22.83v44.55ZM425.35,154l-29.12-36.18v38.63l29.12,22.33V154Zm-26.69,36.31V238L430.2,241V207.15ZM204.53,68.71l1,58.45H304V66.5H204.53v2.22Zm111.83,57.38,67.74,21.32V102.1L317.34,67.81Zm0.1,322.1,67.64-34.34V357.68L317.46,379ZM204.53,171.69l1,62.24H304V168.41H204.53v3.28ZM317.41,337.52l66.68-15.8V270.24L316.38,273Z" fill="#454646"/></svg>
