<?xml version="1.0" encoding="utf-8"?>
<!-- Generator: Adobe Illustrator 19.2.1, SVG Export Plug-In . SVG Version: 6.00 Build 0)  -->
<svg version="1.1" id="Work_area" xmlns="http://www.w3.org/2000/svg" xmlns:xlink="http://www.w3.org/1999/xlink" x="0px" y="0px"
	 width="512px" height="512px" viewBox="0 0 512 512" enable-background="new 0 0 512 512" xml:space="preserve">
<g>
	<path fill="#454646" d="M98,336.2c0,1.6-0.4,3-1.1,4.1c-0.7,1.1-2.1,1.7-4.3,1.7H71.8c-3.9,0-5.8-2.1-5.8-5.8V203.7
		c0-3.7,1.9-5.7,5.8-5.7h20.8c2.2,0,3.6,0.6,4.3,1.7c0.7,1.1,1.1,2.5,1.1,4V336.2z"/>
	<path fill="#454646" d="M195.5,268.5l46.6,67.1c1,1.6,1.2,3.1,0.6,4.4c-0.6,1.3-1.9,2-3.8,2H214c-1.9,0-3.5-0.5-4.5-1.1
		c-1.1-0.7-2.1-1.9-3.1-3.4L177,291.7l-29.3,45.8c-1.8,2.9-4.4,4.5-7.9,4.5h-24.6c-2,0-3.2-0.7-3.7-1.9c-0.5-1.2-0.2-2.7,0.7-4.4
		l46.6-67.2l-44-64.5c-1-1.4-1.2-2.8-0.7-4c0.5-1.3,1.7-2,3.7-2h24.9c2.2,0,3.6,0.4,4.3,1.1c0.7,0.7,1.6,1.8,2.8,3.4l27.6,42.5
		l27.3-42.5c1-1.6,1.9-2.8,2.6-3.4c0.8-0.7,2.1-1.1,3.8-1.1h26.1c2.3,0,3.7,0.7,4.1,1.8c0.4,1.2,0.1,2.6-0.9,4.1L195.5,268.5z"/>
	<path fill="#454646" d="M289,336.2c0,1.6-0.1,3-0.8,4.1c-0.7,1.1-1.9,1.7-4.1,1.7h-20.8c-3.9,0-6.3-2.1-6.3-5.8V203.7
		c0-3.7,2.4-5.7,6.3-5.7h20.8c2.2,0,3.4,0.6,4.1,1.7c0.7,1.1,0.8,2.5,0.8,4V336.2z"/>
	<path fill="#454646" d="M399.4,325.1c-7.4,5.7-15.8,10.3-25.1,13.8c-9.3,3.5-18.9,5.3-28.9,5.3c-7.8,0-14.3-1-19.5-3.1
		c-5.2-2-9.3-4.9-12.3-8.5c-3-3.6-5.2-8-6.4-13c-1.3-5.1-1.9-10.8-1.9-17c-0.2-17.2,4.3-29.4,13.5-37.2c9.2-7.7,23.1-11.3,41.6-11.3
		H398v-8.2c0-4.3-0.5-8-1.4-11.1c-0.9-3.1-2.5-5.6-4.8-7.5c-2.4-2-5.5-3.4-9.4-4.1c-3.9-0.8-8.9-1.2-15-1.2c-2.4,0-5.2,0.1-8.7,0.3
		c-3.4,0.2-6.9,0.4-10.6,0.6c-3.6,0.2-7.2,0.5-10.9,0.9c-3.6,0.4-6.9,0.7-9.8,0.9c-2.9,0.4-4.9,0.4-6,0.2c-1.1-0.3-1.8-1.5-2.2-3.7
		l-2.6-10.7c-0.4-1.9-0.2-3.5,0.6-4.8c0.8-1.2,2.8-2.6,6.2-3.9c3.1-1.2,6.8-2.1,11.1-2.9c4.3-0.8,8.7-1.4,13.2-1.9
		c4.5-0.5,8.9-0.9,13.3-1.2c4.4-0.3,8.3-0.4,11.9-0.4c12.7,0,22.8,1.3,30.3,3.8c7.5,2.5,13.2,6.1,17.2,10.7
		c3.9,4.6,6.5,10.2,7.7,16.9c1.2,6.6,1.8,14.1,1.8,22.3v56.6c0,2.9,0.1,5.2,0.4,6.9c0.3,1.7,0.7,2.9,1.4,3.8
		c0.7,0.9,1.7,1.5,3.1,1.9c1.4,0.4,3.2,0.7,5.5,0.9c2.2,0.2,3.6,0.6,4.4,1.2c0.8,0.6,1.2,1.7,1.2,3.2v12.3c0,3.3-2.3,5.4-7,6.2
		c-2.3,0.4-4.7,0.7-7,1c-2.3,0.3-4.6,0.4-6.7,0.4c-6.8,0-12.4-1.3-16.5-3.8c-4.2-2.5-7.1-7.2-8.7-14.1L399.4,325.1z M398,276h-36.1
		c-7.4,0-13.3,1.9-17.6,5.3c-4.3,3.4-6.5,10-6.5,19.6c0,6.4,1.3,10.9,4,13.4c2.6,2.4,7.4,3.7,14.2,3.7c3.1,0,6.6-0.4,10.3-1.2
		c3.7-0.8,7.4-1.9,11.1-3.2c3.7-1.4,7.5-2.9,11-4.6c3.5-1.6,6.6-3.3,9.6-4.8V276z"/>
	<path fill="#454646" d="M104.7,168c1.6,0,2.1,1,1.3,2.3l-6.9,10.4c-0.9,1.3-2.9,2.3-4.4,2.3H68.9c-1.6,0-2.1-1-1.3-2.3l7-10.4
		c0.9-1.3,2.9-2.3,4.4-2.3H104.7z"/>
	<path fill="#454646" d="M296.2,168c1.6,0,2.1,1,1.3,2.3l-6.9,10.4c-0.9,1.3-2.9,2.3-4.4,2.3h-25.8c-1.6,0-2.1-1-1.3-2.3l7-10.4
		c0.9-1.3,2.9-2.3,4.4-2.3H296.2z"/>
</g>
</svg>
