<?xml version="1.0" encoding="utf-8"?>
<!-- Generator: Adobe Illustrator 16.0.4, SVG Export Plug-In . SVG Version: 6.00 Build 0)  -->
<!DOCTYPE svg PUBLIC "-//W3C//DTD SVG 1.1//EN" "http://www.w3.org/Graphics/SVG/1.1/DTD/svg11.dtd">
<svg version="1.1" id="Layer_1" xmlns="http://www.w3.org/2000/svg" xmlns:xlink="http://www.w3.org/1999/xlink" x="0px" y="0px"
	 width="512px" height="512px" viewBox="0 0 512 512" enable-background="new 0 0 512 512" xml:space="preserve">
<g>
	<g>
		<path fill="#454646" d="M236.243,327.057h15.586v-18.578h-18.098C233.986,315.264,234.874,321.506,236.243,327.057z"/>
		<path fill="#454646" d="M233.731,300.279h18.098v-18.607h-15.586C234.882,287.23,233.986,293.487,233.731,300.279z"/>
		<path fill="#454646" d="M238.783,273.471h13.046v-17.606C246.966,258.166,242.212,264.394,238.783,273.471z"/>
		<path fill="#454646" d="M237.167,258.566c-7.833,3.2-14.668,8.39-19.895,14.905h12.768
			C231.94,267.72,234.357,262.672,237.167,258.566z"/>
		<path fill="#454646" d="M294.561,273.471c-5.22-6.515-12.062-11.706-19.903-14.905c2.832,4.106,5.242,9.154,7.135,14.905H294.561z
			"/>
		<path fill="#454646" d="M227.813,281.672h-15.87c-2.919,5.664-4.805,11.935-5.358,18.607h18.928
			C225.753,293.68,226.546,287.43,227.813,281.672z"/>
		<path fill="#454646" d="M217.272,335.272c5.227,6.508,12.062,11.684,19.895,14.905c-2.81-4.098-5.227-9.136-7.127-14.905H217.272z
			"/>
		<path fill="#454646" d="M225.513,308.479h-18.928c0.554,6.643,2.439,12.943,5.358,18.578h15.87
			C226.546,321.328,225.753,315.071,225.513,308.479z"/>
		<path fill="#454646" d="M251.829,352.878v-17.605h-13.053C242.212,344.35,246.966,350.57,251.829,352.878z"/>
		<path fill="#454646" d="M284.02,327.057h15.877c2.934-5.635,4.812-11.935,5.357-18.578h-18.941
			C286.094,315.071,285.301,321.328,284.02,327.057z"/>
		<path fill="#454646" d="M260.033,255.865v17.606h13.03C269.642,264.394,264.866,258.166,260.033,255.865z"/>
		<path fill="#454646" d="M255.92,209.963c-45.127,0-82.944,31.83-92.212,74.231c-0.335,1.5-0.619,3.028-0.873,4.542
			c-0.029,0.113-0.059,0.248-0.066,0.356c-0.262,1.613-0.494,3.207-0.669,4.809c0,0.091-0.015,0.178-0.022,0.276
			c-0.182,1.551-0.298,3.116-0.393,4.667c0,0.149-0.029,0.298-0.037,0.462c-0.087,1.685-0.131,3.37-0.131,5.07
			c0,52.057,42.346,94.414,94.403,94.414c52.064,0,94.417-42.357,94.417-94.414C350.337,252.32,307.984,209.963,255.92,209.963z
			 M255.92,362.072c-31.805,0-57.699-25.879-57.699-57.688c0-31.819,25.895-57.713,57.699-57.713
			c31.819,0,57.706,25.894,57.706,57.713C313.626,336.193,287.739,362.072,255.92,362.072z"/>
		<path fill="#454646" d="M274.657,350.177c7.841-3.221,14.684-8.397,19.91-14.905h-12.775
			C279.899,341.042,277.489,346.079,274.657,350.177z"/>
		<path fill="#454646" d="M286.312,300.279h18.941c-0.546-6.672-2.424-12.943-5.357-18.607H284.02
			C285.301,287.43,286.094,293.68,286.312,300.279z"/>
		<path fill="#454646" d="M275.59,281.672h-15.557v18.607h18.082C277.854,293.487,276.951,287.23,275.59,281.672z"/>
		<path fill="#454646" d="M260.033,352.878c4.833-2.308,9.608-8.528,13.038-17.605h-13.038V352.878z"/>
		<path fill="#454646" d="M278.115,308.479h-18.082v18.578h15.557C276.951,321.506,277.854,315.264,278.115,308.479z"/>
	</g>
	<path fill="#454646" d="M394.3,273.842c-0.132-0.644-0.277-1.277-0.43-1.914l-0.743-3.243c-0.116-0.594-0.255-1.187-0.386-1.784
		c0,0-22.625-100.431-22.749-100.951c-0.131-0.593-4.04-17.977-4.171-18.516C355.36,100.127,309.12,65.92,255.629,66
		c-53.455,0.087-99.579,34.4-109.924,81.693c-0.138,0.593-7.345,33.093-7.454,33.621c-0.124,0.55-19.371,87.236-19.488,87.72
		c-0.123,0.524-0.625,2.817-0.742,3.381c0,0-0.283,1.241-0.415,1.827c-2.162,9.999-3.246,20.216-3.239,30.349
		C114.482,382.707,178.122,446.12,256.218,446c78.097-0.105,141.547-63.763,141.416-141.856
		C397.611,294.007,396.498,283.816,394.3,273.842z M255.92,417.678c-62.475,0-113.294-50.827-113.294-113.301
		c0-2.049,0.051-4.069,0.168-6.085c0-0.211,0.028-0.419,0.036-0.626c0.109-1.846,0.262-3.68,0.466-5.493
		c0.007-0.164,0.036-0.331,0.059-0.51c0.211-1.856,0.473-3.712,0.757-5.551c0.036-0.211,0.087-0.426,0.116-0.633
		c0.291-1.772,0.626-3.523,1.012-5.245c0.015-0.127,0.037-0.24,0.059-0.371c0,0,0.487-2.177,28.209-126.084
		c7.353-34.4,42.011-59.45,82.413-59.45c40.424,0,75.111,25.129,82.479,59.748l4.47,19.964c1.144,5.096-2.067,10.137-7.148,11.266
		c-5.096,1.165-10.141-2.057-11.283-7.142l-4.492-20.066c-5.547-26.036-32.452-44.872-64.024-44.872
		c-31.543,0-58.435,18.745-63.96,44.596c-0.152,0.684-7.418,33.141-14.529,64.957c20.375-19.601,48.046-31.714,78.489-31.714
		c62.475,0,113.309,50.827,113.301,113.312C369.221,366.852,318.395,417.678,255.92,417.678z"/>
</g>
</svg>
