<?xml version="1.0" encoding="utf-8"?>
<!-- Generator: Adobe Illustrator 19.2.1, SVG Export Plug-In . SVG Version: 6.00 Build 0)  -->
<svg version="1.1" id="Work_area" xmlns="http://www.w3.org/2000/svg" xmlns:xlink="http://www.w3.org/1999/xlink" x="0px" y="0px"
	 width="512px" height="512px" viewBox="0 0 512 512" enable-background="new 0 0 512 512" xml:space="preserve">
<path fill="#454646" d="M391.7,297.1L391.7,297.1c-7.8-38.9-31.6-72.1-64.2-92.4c0,0,0,0,0,0c0,0,0,0,0,0c0,0,0,0,0,0c0,0,0,0,0,0
	c-3-1.9-6-3.6-9.1-5.3L231,155.6v0l-4.8-2.3c-0.3-0.1-0.7-0.3-1-0.3h0c0,0,0-0.1-0.1-0.1l0,0c0,0,0,0-0.1-0.1c0,0,0,0,0,0
	c0,0,0,0-0.1,0c0,0,0,0,0,0c0,0,0,0,0,0c0,0,0,0,0,0c0,0,0,0,0,0c0,0,0,0,0,0c0,0,0,0,0,0c0,0,0,0,0,0c0,0,0,0,0,0c0,0,0,0,0,0
	c0,0,0,0,0,0c-9.1-4.7-16.8-11.6-22.5-20c-6.4-9.6-10.2-21.1-10.2-33.5c0-23,13-43,32-53.1l-28.2,14.4
	c-46.5,23.2-78.3,71-78.3,126.4l2.1,24.2h0c4,24,13.8,44.9,27.8,62.8c0.4,0.5,0.8,1.1,1.2,1.6c0.4,0.5,0.8,1.1,1.3,1.6
	c11.9,14.4,26.6,26.4,43.3,35.2l0,0c0,0,0,0,0,0c0,0,0,0,0,0c0,0,0,0,0,0c0,0,0,0,0,0c0,0,0,0,0,0c0,0,0,0,0,0
	c0.1,0,0.1,0.1,0.1,0.1c0,0,0,0,0,0c0,0,0,0,0,0c0,0,0,0,0,0c0,0,0,0,0,0c0,0,0,0,0,0c0,0,0,0,0,0c0,0,0,0,0,0c0,0,0,0,0,0
	c0,0,0,0,0.1,0l8.8,4.4l0,0l0,0l0,0l0,0c0,0,0,0,0,0l10.4,5.2l73,36.6c20.1,9.7,34,30.3,34,54.1v0.1c0,0,0,0,0,0.1v0.2
	c0,0,0,0,0,0.1v0.1c0,0,0,0,0,0v0.1c0,0,0,0,0,0v0.1c0,0,0,0,0,0v0c0,0,0,0.1,0,0.1v0c0,15.5-6.4,29.6-16.3,40.1
	c-4.5,4.8-9.9,8.9-15.7,12l18.1-9.3l10.1-5.2c46.4-23.2,78.3-71.2,78.3-126.6L391.7,297.1z"/>
</svg>
