<?xml version="1.0" encoding="utf-8"?>
<!-- Generator: Adobe Illustrator 16.0.4, SVG Export Plug-In . SVG Version: 6.00 Build 0)  -->
<!DOCTYPE svg PUBLIC "-//W3C//DTD SVG 1.1//EN" "http://www.w3.org/Graphics/SVG/1.1/DTD/svg11.dtd">
<svg version="1.1" id="Layer_1" xmlns="http://www.w3.org/2000/svg" xmlns:xlink="http://www.w3.org/1999/xlink" x="0px" y="0px"
	 width="512px" height="512px" viewBox="0 0 512 512" enable-background="new 0 0 512 512" xml:space="preserve">
<g>
	<g>
		<path fill="#454646" d="M256.002,445.998C151.236,445.998,66,360.767,66,256c0-104.766,85.236-189.998,190.002-189.998
			S446,151.234,446,256C446,360.767,360.768,445.998,256.002,445.998z M256.002,86.913c-93.237,0-169.091,75.851-169.091,169.087
			s75.854,169.087,169.091,169.087c93.236,0,169.087-75.851,169.087-169.087S349.238,86.913,256.002,86.913z"/>
	</g>
	<g>
		<g>
			<path fill="#454646" d="M166.221,216.227c0-14.439,11.7-26.14,26.139-26.14s26.14,11.701,26.14,26.14
				c0,14.439-11.7,26.14-26.14,26.14S166.221,230.666,166.221,216.227z"/>
		</g>
		<g>
			<path fill="#454646" d="M293.504,216.227c0-14.439,11.701-26.14,26.14-26.14s26.139,11.701,26.139,26.14
				c0,14.439-11.7,26.14-26.139,26.14S293.504,230.666,293.504,216.227z"/>
		</g>
	</g>
	<g>
		<path fill="#454646" d="M345.783,294.705H166.221c-19.973,0-13.17,16.829-13.074,17.059l0.003,0.019
			c15.441,36.5,55.597,62.577,102.848,62.577h0.004h0.004c47.251,0,87.41-26.076,102.847-62.577l0.003-0.019
			C358.953,311.534,365.755,294.705,345.783,294.705z"/>
	</g>
</g>
</svg>
