<?xml version="1.0" encoding="utf-8"?>
<!-- Generator: Adobe Illustrator 18.0.0, SVG Export Plug-In . SVG Version: 6.00 Build 0)  -->
<!DOCTYPE svg PUBLIC "-//W3C//DTD SVG 1.1//EN" "http://www.w3.org/Graphics/SVG/1.1/DTD/svg11.dtd">
<svg version="1.1" id="Ebene_1" xmlns="http://www.w3.org/2000/svg" xmlns:xlink="http://www.w3.org/1999/xlink" x="0px" y="0px"
	 width="512px" height="512px" viewBox="0 0 512 512" enable-background="new 0 0 512 512" xml:space="preserve">
<path id="XMLID_749_" fill="#454646" d="M256,47C140,47,46,141,46,257c0,116,94,210,210,210s210-94,210-210C466,141,372,47,256,47z
	 M288.2,97.1c3.2,0.5,6.9,1.5,10.7,3c3.8,1.5,7.7,3.6,11.3,6.1c3.6,2.6,6.9,5.5,9.5,8.7c1.4,1.6,2.5,3.2,3.5,4.8
	c1,1.6,1.9,3.2,2.5,4.7c1.4,3,2.1,5.7,2.4,7.6c0.3,1.9,0.4,3,0.4,3s-0.8-0.8-2.1-2.1c-0.6-0.7-1.4-1.5-2.2-2.4c-0.9-0.9-2-1.8-3-2.9
	c-1-1.1-2.3-2.1-3.5-3.3c-1.2-1.2-2.5-2.3-4-3.5c-1.4-1.2-2.8-2.3-4.4-3.5c-1.5-1.2-3.1-2.3-4.6-3.4c-1.5-1.2-3.2-2.1-4.8-3.3
	c-1.6-1-3.2-2.1-4.8-3.1c-3.2-2-6.2-3.8-8.8-5.4c-5.2-3.1-9-5.5-9-5.5S281.8,96,288.2,97.1z M289,171.3c2.2,1.7,4.2,3.6,6,5.7
	c1,1,1.8,2.2,2.6,3.3c0.9,1.1,1.5,2.4,2.3,3.6c0.8,1.2,1.4,2.5,2,3.8c0.6,1.3,1.2,2.6,1.6,4l1.1,4.2c0.4,1.4,0.5,2.8,0.7,4.2
	c0.1,0.8,0.2,1.7,0.3,2.5c0.4-0.5,0.9-1.1,1.4-1.6c3.4-4,6.2-8.3,8.9-12.8c1.3-2.3,2.6-4.6,3.7-6.9c0.6-1.2,1.2-2.3,1.7-3.6
	c0.5-1.2,1.1-2.4,1.6-3.7c1-2.5,2-5,2.9-7.5c1-2.5,1.7-5.2,2.6-7.8c0.1,2.7,0.3,5.6,0,8.3c-0.1,2.8-0.5,5.6-1,8.4
	c-0.2,1.4-0.6,2.7-0.9,4.1c-0.3,1.4-0.7,2.7-1.1,4.1c-0.8,2.7-1.9,5.4-2.9,8c-2.2,5.3-5.2,10.2-8.4,14.9c-3.3,4.6-7.2,8.9-10.8,12.8
	c-1.8,1.9-4.8,2-6.7,0.2c-1.2-1.1-1.7-2.7-1.4-4.2l0-0.2l0.6-3.5c0.1-1.2,0.5-2.4,0.5-3.5c0.1-2.4,0.3-4.7,0.1-7.1
	c-0.1-1.2,0-2.4-0.3-3.5l-0.6-3.5c-0.2-1.2-0.7-2.2-1-3.4c-0.3-1.2-0.7-2.3-1.2-3.4c-0.5-1.1-0.9-2.2-1.5-3.3
	c-0.6-1-1.1-2.2-1.8-3.2c-1.3-2.1-2.7-4.1-4.3-6.1c-1.6-1.9-3.3-3.8-5.2-5.6c-1.9-1.8-3.8-3.5-6-5C279.9,165.3,284.7,168,289,171.3z
	 M280.1,341.6c4.4,0.8,8.7,1.3,12.6,2.4c3.9,1.2,7.6,2.2,10.9,3.6c3.2,1.5,6.1,3,8.7,4.3c2.6,1.3,4.4,3,6.1,4.2
	c3.3,2.4,5.1,3.9,5.1,3.9s-2.2-0.8-6-2.2c-1.9-0.7-4-1.8-6.7-2.5c-2.7-0.7-5.7-1.5-8.9-2.4c-3.3-0.8-6.9-1.1-10.6-1.8
	c-3.7-0.7-7.8-0.6-11.9-1.1c-4.1-0.3-8.5,0.1-12.8-0.1c-4.4,0.3-8.8,0.4-13.2,0.9c-4.4,0.5-8.9,0.8-13.2,1.6c-2.2,0.4-4.3,0.7-6.5,1
	c-2.1,0.4-4.2,0.8-6.3,1.2c-8.3,1.5-16,3.4-22.7,4.9c-3.3,0.8-6.4,1.6-9,2.3c-2.7,0.7-5.1,1.3-7,1.8c-3.9,1.1-6.1,1.7-6.1,1.7
	s7.6-5.4,20.4-10.9c3.2-1.3,6.7-2.8,10.5-4.1c3.8-1.3,7.8-2.8,12-3.8c4.2-1.2,8.6-2.3,13.2-3.1c4.5-1,9.2-1.4,13.9-2.1
	c4.7-0.5,9.4-0.4,14-0.7C271.2,340.9,275.7,341.1,280.1,341.6z M249.7,89.3c0.5-1.4,1.3-2.6,2.4-3.9l1.3-1.3
	c0.2-0.2,0.5-0.4,0.7-0.7c0.5-0.5,0.9-1.2,1.4-2c0.9-1.5,1.6-3.2,2.3-4.7c1.2-3,2.3-5.3,2.3-5.3s1.4,2.2,1.7,5.8
	c0.2,1.8,0.2,4-0.4,6.5c-0.4,1.2-0.8,2.5-1.7,3.7c-0.4,0.6-0.9,1.2-1.4,1.8l-1.1,1.1c-0.3,0.4-0.8,1.1-1.2,1.7
	c-0.3,0.7-0.7,1.4-0.9,2.1c-0.5,1.5-0.6,3.1-0.5,4.6c0.1,1.5,0.3,2.8,0.6,3.8c0.3,1,0.4,1.6,0.4,1.6s-0.6-0.2-1.6-0.8
	c-0.9-0.6-2.2-1.6-3.3-3.3c-1.1-1.7-1.9-4-1.9-6.7C248.9,92.1,249.2,90.7,249.7,89.3z M254.2,116.7c6.6,0.3,11.5,8.8,10.9,19
	c-0.5,10.2-6.2,18.1-12.8,17.8c-6.6-0.3-11.5-8.8-10.9-19C241.9,124.3,247.6,116.3,254.2,116.7z M229.2,174c1.8-1.8,3-2.6,3-2.6
	s-0.6,1.3-1.4,3.6c-0.9,2.3-2,5.5-3,9.4c-0.6,1.9-0.9,4-1.4,6.2c-0.4,2.2-0.6,4.5-0.8,6.9c-0.1,1.2-0.1,2.4-0.2,3.6
	c0,1.2,0.2,2.4,0.2,3.7c0,2.5,0.6,4.9,0.9,7.4c0.5,2.4,1.3,4.8,1.9,7.2c1,2.3,1.7,4.6,2.7,6.8c1.2,2.1,2.2,4.2,3.2,6.3
	c1.2,1.9,2.4,3.7,3.4,5.5c1,1.7,2,3.3,3,4.7c1,1.3,1.8,2.6,2.5,3.6c1.4,2,2.1,3.3,2.1,3.3s-1.3-0.6-3.4-1.9
	c-1.1-0.7-2.4-1.4-3.8-2.4c-0.7-0.5-1.5-1-2.3-1.6c-0.7-0.7-1.5-1.3-2.3-2.1c-1.6-1.5-3.4-3-5-4.9c-1.5-2-3.2-4.1-4.8-6.4
	c-1.4-2.4-2.7-5-4-7.6c-1-2.8-1.9-5.7-2.6-8.6c-0.4-3-1-6-0.8-9c-0.1-3,0.4-5.9,0.9-8.6c0.5-2.8,1.4-5.3,2.3-7.7
	c1-2.4,2-4.5,3.2-6.3c1-1.9,2.3-3.5,3.4-4.9C227.2,176,228.2,174.8,229.2,174z M186.6,146.1c0.3-2,0.9-3.9,1.3-5.9
	c0.5-2,0.9-3.9,1.8-5.7c0.7-1.8,1.5-3.7,2.3-5.4c0.8-1.8,1.9-3.3,2.9-4.9c1.8-3.3,4.4-5.9,6.6-8.5c2.5-2.3,4.8-4.6,7.2-6.2
	c2.3-1.8,4.6-3.1,6.7-4.2c2.1-1.1,3.9-1.9,5.5-2.5c3.1-1.2,5-1.5,5-1.5s-1.5,1.2-3.8,3.5c-2.3,2.3-5.5,5.5-8.8,9.6
	c-1.7,2-3.2,4.5-4.9,6.8c-1.4,2.6-3.2,5.1-4.4,8.1c-0.6,1.5-1.4,2.8-1.9,4.4c-0.5,1.5-1,3.1-1.5,4.6c-0.7,1.5-0.8,3.2-1.2,4.8
	c-0.3,1.6-0.8,3.2-1,4.9l-0.5,5c-0.1,1.7-0.4,3.3-0.3,5c0.3,3.3-0.2,6.6,0.4,9.9c0.5,3.2,0.7,6.4,1.1,9.4c0.7,3,1.2,5.8,1.6,8.5
	c0.4,2.7,1,5.1,1.6,7.2c0.6,2.1,1,4.1,1.4,5.7c0.7,3.2,1,5.1,1,5.1s-1.2-1.4-3.2-4.1c-1-1.3-2.2-3-3.4-4.9c-0.6-1-1.3-2-2-3.1
	c-0.7-1.1-1.2-2.4-1.8-3.7c-1.2-2.6-2.6-5.4-3.9-8.4c-1.1-3.1-1.9-6.6-2.9-10.1c-0.6-1.8-0.8-3.6-0.9-5.5c-0.2-1.9-0.4-3.8-0.5-5.8
	C185.7,154.1,186.4,150.1,186.6,146.1z M120.7,313.3c-3.6,2.2-6.1,5.4-8.5,9l-1.1,1.6l-0.3,0.4l-0.1,0.1c0.2-0.3,0,0,0.1-0.1
	l-0.1,0.1l-0.2,0.5c-0.3,0.7-0.8,1.3-1,2.3c-0.3,0.8-0.6,1.7-0.8,2.7c-0.2,1-0.5,1.9-0.6,2.9c-0.7,4-0.7,8.2-0.7,12.2
	c0.1,7.9,0.8,14.8,1.1,19.7c0.4,4.9,0.6,7.8,0.6,7.8l-1.3,0.5c0,0-1.8-2.3-4.2-6.8c-1.2-2.2-2.5-5-3.9-8.3
	c-1.3-3.3-2.7-7.1-3.7-11.4c-1-4.3-1.9-9.2-1.7-14.8c0-2.8,0.3-5.7,1.3-8.9c0.3-1.6,1-3.2,1.9-4.8l0.6-1.2l0.2-0.3l0.3-0.4l0.3-0.4
	l1.1-1.6c3.4-5,8.5-10,14.7-12.7c6.2-2.7,12.1-3.7,17.8-4.6c5.6-0.8,11.1-1.5,16.6-2.3c5.4-0.7,10.5-1.6,15.5-2.8
	c9.9-2.3,19.1-5.2,26.7-8.3c3.8-1.5,7.2-3.2,10.1-4.8c2.9-1.7,5.3-3.2,7.2-4.7c1.9-1.4,3.2-2.7,4-3.7c0.8-1,1.3-1.5,1.3-1.5l1.2,0.8
	c0,0-0.4,0.6-1.1,1.8c-0.7,1.1-1.9,2.8-3.7,4.5c-3.5,3.7-9.2,8-16.7,12.2c-3.7,2.1-7.9,4.2-12.3,6.2c-4.5,2-9.3,3.8-14.4,5.5
	c-5.1,1.7-10.5,3.2-15.9,4.5c-5.3,1.3-10.7,2.5-16.1,3.8C129.4,309.5,124.3,311,120.7,313.3z M172.2,343.3c-1.9,0.8-3.8,1.5-5.6,2.4
	c-1.9,0.8-3.6,1.7-5.4,2.6c-1.8,0.8-3.3,1.9-5,2.7c-1.5,1-3.1,1.8-4.4,2.7c-5.4,3.5-9.2,6.3-9.2,6.3s1.1-4.7,5.5-10.3
	c1-1.4,2.3-2.8,3.7-4.3c1.5-1.4,3-2.9,4.8-4.2c1.8-1.4,3.7-2.7,5.7-3.7c2-1.2,4.2-2.1,6.4-3c2.2-0.9,4.5-1.5,6.8-2.1
	c2.3-0.5,4.6-0.8,6.7-1.1c2.2-0.2,4.3-0.1,6.4-0.1c2,0,3.9,0.4,5.6,0.6c3.5,0.4,6.2,1.4,8.1,2.1c1.9,0.7,3,1.2,3,1.2
	s-1.2,0.3-3.1,0.7c-1,0.2-2.2,0.4-3.5,0.6c-1.3,0.1-2.8,0.6-4.4,0.9c-1.6,0.4-3.3,0.6-5.1,1.1c-1.8,0.4-3.6,0.9-5.5,1.3
	c-1.9,0.5-3.8,1.1-5.8,1.7C176.1,342,174.1,342.5,172.2,343.3z M248,407.2c-2.8,2.9-6.2,6.1-10.1,9.4c-2,1.6-3.9,3.3-6.1,4.9
	c-2.2,1.6-4.4,3.2-6.7,4.6c-2.2,1.6-4.6,3-7,4.4c-2.3,1.5-4.9,2.7-7.3,3.6c-2.5,1-5.2,1.4-7.6,1.7c-2.5,0.4-5,0.2-7.1,0.1
	c-2.2,0-4.3-0.8-6-1.2c-1.7-0.4-3.2-1.2-4.3-1.9c-2.3-1.3-3.3-2.3-3.3-2.3l0.4-1.1c0,0,1.5-0.4,3.8-0.8c1.1-0.2,2.4-0.3,3.9-0.9
	c1.5-0.5,3.1-0.7,4.8-1.3c0.9-0.3,1.7-0.6,2.7-0.9c0.9-0.3,1.8-0.5,2.8-0.9c1.9-0.9,4-1.3,6.1-2.2c2.1-0.8,4.4-1.3,6.8-2.1
	c2.4-0.7,4.7-1.6,7-2.6c4.7-2,9.1-4.6,13.4-6.9c4.2-2.5,8.1-4.8,11.4-7c6.6-4.3,10.8-7.5,10.8-7.5l0.8,0.9
	C257,397.3,253.7,401.5,248,407.2z M336.1,433c-1.1,0.7-2.6,1.5-4.3,1.9c-1.7,0.4-3.8,1.2-6,1.2c-2.2,0.1-4.7,0.3-7.1-0.1
	c-2.4-0.4-5.2-0.7-7.6-1.7c-2.5-1-5-2.1-7.3-3.6c-2.4-1.4-4.8-2.8-7-4.4c-2.3-1.4-4.5-3.1-6.7-4.6c-2.2-1.5-4.2-3.3-6.1-4.9
	c-3.9-3.3-7.3-6.5-10.1-9.4c-5.7-5.7-9-9.9-9-9.9l0.8-0.9c0,0,4.2,3.2,10.8,7.5c3.3,2.2,7.2,4.5,11.4,7c4.3,2.3,8.8,4.9,13.4,6.9
	c2.3,1,4.7,2,7,2.6c2.3,0.8,4.6,1.3,6.8,2.1c2.1,0.9,4.2,1.3,6.1,2.2c1,0.5,1.9,0.7,2.8,0.9c0.9,0.3,1.8,0.6,2.7,0.9
	c1.7,0.6,3.3,0.9,4.8,1.3c1.5,0.5,2.8,0.7,3.9,0.9c2.3,0.4,3.8,0.8,3.8,0.8l0.4,1.1C339.4,430.7,338.4,431.7,336.1,433z
	 M412.3,357.9c-1.4,3.3-2.7,6.1-3.9,8.3c-2.4,4.5-4.2,6.8-4.2,6.8l-1.3-0.5c0,0,0.2-2.8,0.6-7.8c0.3-4.9,1-11.8,1.1-19.7
	c0-3.9,0-8.2-0.7-12.2c-0.1-1-0.4-1.9-0.6-2.9c-0.1-1-0.5-1.8-0.8-2.7c-0.2-0.9-0.7-1.6-1-2.3l-0.2-0.5l-0.1-0.1
	c0,0.1-0.1-0.2,0.1,0.1l-0.1-0.1l-0.3-0.4l-1.1-1.6c-2.4-3.6-5-6.8-8.5-9c-3.6-2.4-8.7-3.8-13.9-5.3c-5.4-1.3-10.8-2.5-16.1-3.8
	c-5.4-1.3-10.8-2.8-15.9-4.5c-5.1-1.7-9.9-3.5-14.4-5.5c-4.5-2-8.6-4.1-12.3-6.2c-7.4-4.2-13.2-8.5-16.7-12.2
	c-1.8-1.8-3-3.4-3.7-4.5c-0.7-1.2-1.1-1.8-1.1-1.8l1.2-0.8c0,0,0.4,0.5,1.3,1.5c0.8,0.9,2.1,2.3,4,3.7c1.8,1.5,4.3,3,7.2,4.7
	c2.9,1.6,6.3,3.3,10.1,4.8c7.6,3.2,16.8,6,26.7,8.3c5,1.1,10.1,2,15.5,2.8c5.5,0.7,11,1.5,16.6,2.3c5.7,0.9,11.6,1.8,17.8,4.6
	c6.3,2.7,11.4,7.7,14.7,12.7l1.1,1.6l0.3,0.4l0.3,0.4l0.2,0.3l0.6,1.2c0.8,1.6,1.5,3.2,1.9,4.8c1,3.2,1.2,6.1,1.3,8.9
	c0.2,5.6-0.7,10.4-1.7,14.8C415,350.9,413.5,354.7,412.3,357.9z"/>
</svg>
