<?xml version="1.0" encoding="utf-8"?>
<!-- Generator: Adobe Illustrator 16.0.4, SVG Export Plug-In . SVG Version: 6.00 Build 0)  -->
<!DOCTYPE svg PUBLIC "-//W3C//DTD SVG 1.1//EN" "http://www.w3.org/Graphics/SVG/1.1/DTD/svg11.dtd">
<svg version="1.1" id="Layer_1" xmlns="http://www.w3.org/2000/svg" xmlns:xlink="http://www.w3.org/1999/xlink" x="0px" y="0px"
	 width="512px" height="512px" viewBox="0 0 512 512" enable-background="new 0 0 512 512" xml:space="preserve">
<path fill="#454646" d="M411.151,126.217c-46.856,0-84.839,35.906-84.839,80.203v28.659H29.945c-7.706,0-13.945,6.244-13.945,13.95
	v13.945c0,7.706,6.239,13.945,13.945,13.945h25.177c7.706,0,13.95,6.244,13.95,13.95v5.812c0,7.697-6.244,13.95-13.95,13.95H41.565
	c-7.706,0-13.95,6.244-13.95,13.945v37.186c0,7.706,6.244,13.95,13.95,13.95h8.133v-26.146c0-7.707,6.244-13.95,13.945-13.95h1.94
	c7.697,0,13.95,6.244,13.95,13.95v26.146H98.51v-26.146c0-7.707,6.248-13.95,13.949-13.95h1.941c7.696,0,13.945,6.244,13.945,13.95
	v26.146h8.133c7.706,0,13.949-6.244,13.949-13.95v-37.186c0-7.702-6.243-13.945-13.949-13.945h-13.557
	c-7.706,0-13.95-6.253-13.95-13.95v-5.812c0-7.706,6.244-13.95,13.95-13.95h203.391v28.668c0,44.288,37.982,80.194,84.839,80.194
	c46.861,0,84.849-35.906,84.849-80.194V206.42C496,162.124,458.013,126.217,411.151,126.217z M463.844,291.273
	c0,31.5-23.592,57.047-52.692,57.047c-29.095,0-52.692-25.547-52.692-57.047v-70.538c0-31.509,23.598-57.047,52.692-57.047
	c29.101,0,52.692,25.538,52.692,57.047V291.273z"/>
</svg>
