<?xml version="1.0" encoding="utf-8"?>
<!-- Generator: Adobe Illustrator 19.2.1, SVG Export Plug-In . SVG Version: 6.00 Build 0)  -->
<svg version="1.1" id="Ebene_1" xmlns="http://www.w3.org/2000/svg" xmlns:xlink="http://www.w3.org/1999/xlink" x="0px" y="0px"
	 width="512px" height="512px" viewBox="0 0 512 512" enable-background="new 0 0 512 512" xml:space="preserve">
<path fill="#454646" d="M243.7,387.1l-32.1,32.1c-24.2,24.2-63.5,24.2-87.8,0l-3.3-3.3l-31.3,31.3c-1.2,1.2-3.1,1.2-4.3,0l-20-20
	c-1.2-1.2-1.2-3.1,0-4.3l31.3-31.3l-3.3-3.3c-24.2-24.2-24.2-63.5,0-87.8l32.1-32.1L243.7,387.1z M266.4,364.3L251.7,379L133,260.3
	l14.7-14.7L266.4,364.3z M336.8,253.6l-30.6,30.6c-5.4,5.4-14.1,5.4-19.4,0l-6.9-6.9c-5.4-5.4-5.4-14.1,0-19.4l30.6-30.6
	L336.8,253.6z M284.7,201.4L254.1,232c-5.4,5.4-14.1,5.4-19.4,0l-6.9-6.9c-5.4-5.4-5.4-14.1,0-19.4l30.6-30.6L284.7,201.4z
	 M379,251.7l-14.7,14.7L245.6,147.7l14.7-14.7L379,251.7z M447.1,89.2l-31.3,31.3l3.3,3.3c24.2,24.2,24.2,63.5,0,87.8l-32.1,32.1
	L268.3,124.9l32.1-32.1c24.2-24.2,63.5-24.2,87.8,0l3.3,3.3l31.3-31.3c1.2-1.2,3.1-1.2,4.3,0l20,20C448.3,86.1,448.3,88,447.1,89.2z
	"/>
</svg>
