<?xml version="1.0" encoding="utf-8"?>
<!-- Generator: Adobe Illustrator 16.0.4, SVG Export Plug-In . SVG Version: 6.00 Build 0)  -->
<!DOCTYPE svg PUBLIC "-//W3C//DTD SVG 1.1//EN" "http://www.w3.org/Graphics/SVG/1.1/DTD/svg11.dtd">
<svg version="1.1" id="Layer_1" xmlns="http://www.w3.org/2000/svg" xmlns:xlink="http://www.w3.org/1999/xlink" x="0px" y="0px"
	 width="512px" height="512px" viewBox="0 0 512 512" enable-background="new 0 0 512 512" xml:space="preserve">
<g>
	<path fill="#454646" d="M64.778,307.215c-1.667-0.63-4.35-0.947-8.049-0.947v25.512h2.754c4.418,0,7.367-1.121,8.841-3.366
		c1.472-2.241,2.208-5.234,2.208-8.979c0-3.356-0.542-6.075-1.627-8.156C67.823,309.198,66.447,307.844,64.778,307.215z"/>
	<path fill="#454646" d="M150.885,306.946c-0.583,0-1.348,0.019-2.294,0.049v24.785c4.699,0.065,7.868-0.265,9.508-0.994
		c1.641-0.724,2.932-2.032,3.879-3.921c0.944-1.887,1.418-4.444,1.418-7.671c0-4.615-0.938-7.81-2.815-9.583
		C158.703,307.836,155.474,306.946,150.885,306.946z"/>
	<path fill="#454646" d="M254.764,306.172c-4.729,0-8.259,2.149-10.594,6.438c-2.334,4.293-3.506,11.119-3.506,20.475
		c0,10.102,1.172,17.388,3.506,21.858c2.334,4.469,5.812,6.703,10.425,6.703c4.809,0,8.438-2.039,10.884-6.122
		c2.447-4.083,3.666-11.238,3.666-21.469c0-9.358-1.144-16.345-3.436-20.96C263.417,308.481,259.766,306.172,254.764,306.172z"/>
	<path fill="#454646" d="M486.925,289.375l-140.521-66.75h14.278v-88.298h-88.298v88.298h2.405l-13.219,4.188l-15.984-4.673v-87.813
		h-88.301v88.298h9.11l-135.33,66.75H16v88.298h88.298v-88.298H86.331l76.333-24.181l-14.88,24.181h-34.647v88.298h88.298v-88.298
		h-20.042l47.956-26.37l19.04,26.37h-37.671v88.298h88.296v-88.298h-16.148l12.989-29.341l59.887,29.341h-44.315v88.298h88.298
		v-88.298h-7.908l-26.114-25.106l85.861,25.106h-43.866v88.298H496v-88.298H486.925z M287.637,206.608
		c3.558,0,6.548-3.471,8.967-10.416l17.391-50.219h4.875l17.724,50.172c1.749,4.966,3.333,7.955,4.753,8.958
		c1.42,1.003,2.78,1.504,4.083,1.504v5.304H317.37v-5.304c2.531,0,4.097-0.279,4.71-0.836c0.614-0.556,0.919-1.266,0.919-2.126
		c0-0.764-0.253-1.767-0.75-3.009l-0.544-1.481l-1.626-4.729h-17.391l-1.083,3.199c-0.778,2.264-1.167,3.855-1.167,4.779
		c0,1.561,0.459,2.651,1.378,3.274c0.918,0.619,2.418,0.93,4.5,0.93v5.304h-18.68V206.608z M341.295,250.126l-36.347-10.629
		l7.467-16.873h0.281L341.295,250.126z M277.667,228.764l-3.272,1.8l-1.256-0.366L277.667,228.764z M261.641,233.84l4.439,1.296
		l-2.714,1.491l-4.129-2.025L261.641,233.84z M208.482,222.625h11.032l21.703,10.634l-20.39,6.459L208.482,222.625z
		 M214.079,241.858l-36.223,11.473l18.896-30.706h3.438L214.079,241.858z M168.024,206.608c2.974,0,4.955-0.532,5.944-1.601
		c0.987-1.066,1.479-3.178,1.479-6.331v-38.32c0-3.059-0.464-5.145-1.397-6.26c-0.931-1.113-2.939-1.671-6.026-1.671v-5.304h29.482
		v5.304c-2.946,0-4.898,0.548-5.857,1.647c-0.961,1.099-1.441,3.194-1.441,6.283v14.524h23.227v-14.524
		c0-2.993-0.45-5.064-1.353-6.213c-0.905-1.144-2.845-1.718-5.819-1.718v-5.304h29.399v5.304c-3.004,0-4.997,0.525-5.985,1.575
		c-0.984,1.052-1.481,3.171-1.481,6.356v38.32c0,3.091,0.478,5.185,1.42,6.284c0.942,1.099,2.962,1.647,6.046,1.647v5.304h-29.399
		v-5.304c2.92,0,4.844-0.555,5.777-1.671c0.93-1.116,1.395-3.202,1.395-6.26v-17.822h-23.227v17.822
		c0,3.026,0.459,5.107,1.376,6.234c0.918,1.132,2.892,1.697,5.922,1.697v5.304h-29.482V206.608z M83.064,330.062
		c-2.292,3.049-5.156,5.067-8.59,6.052s-7.959,1.474-13.573,1.474h-4.172v15.638c0,3,0.438,5.09,1.315,6.269
		c0.875,1.177,2.705,1.765,5.484,1.765h1.292v5.374H34.171v-5.374h1c2.808,0,4.634-0.605,5.482-1.816
		c0.849-1.209,1.273-3.281,1.273-6.218v-38.822c0-3.002-0.438-5.093-1.312-6.269c-0.876-1.177-2.691-1.767-5.442-1.767h-1.375
		v-5.372l22.933-0.581c5.726,0,10.156,0.176,13.282,0.532c3.126,0.354,5.998,1.338,8.611,2.951c2.613,1.615,4.58,3.752,5.901,6.415
		c1.32,2.663,1.98,5.576,1.98,8.737C86.504,323.343,85.358,327.013,83.064,330.062z M64.075,289.375H46.265l135.333-66.75h7.263
		l-20.808,33.811L64.075,289.375z M188.666,361.26v5.374h-17.682c-1.612-2.229-4.601-7.875-8.965-16.943
		c-2.198-4.582-3.74-7.535-4.631-8.857c-0.889-1.324-1.798-2.17-2.73-2.543c-0.933-0.37-2.953-0.574-6.068-0.607v15.542
		c0,3,0.445,5.09,1.336,6.269c0.888,1.177,2.711,1.765,5.463,1.765h1v5.374h-30.485v-5.374h1.127c2.836,0,4.676-0.605,5.527-1.816
		c0.846-1.209,1.27-3.281,1.27-6.218v-38.822c0-3.002-0.443-5.093-1.333-6.269c-0.891-1.177-2.711-1.767-5.463-1.767h-1.127v-5.372
		l22.685-0.049l5.088-0.049c5.032,0,8.709,0.192,11.032,0.579c2.32,0.389,4.605,1.317,6.858,2.784
		c2.252,1.47,4.024,3.48,5.318,6.026c1.292,2.552,1.938,5.294,1.938,8.231c0,7.812-3.809,13.151-11.426,16.022
		c2.03,1.486,5.185,6.134,9.467,13.943c3.335,6.035,5.711,9.673,7.129,10.915S186.969,361.26,188.666,361.26z M167.436,289.375
		h-11.761l16.793-27.288l45.752-14.492l7.163,9.917L167.436,289.375z M224.97,245.458l24.984-7.917l6.215,3.044l-24.853,13.664
		L224.97,245.458z M278.032,358.065c-5.644,6.617-13.321,9.923-23.02,9.923c-6.642,0-12.52-1.629-17.62-4.889
		c-5.1-3.26-8.737-7.641-10.903-13.144c-2.166-5.501-3.253-10.945-3.253-16.336c0-5.906,1.42-11.665,4.256-17.283
		c2.831-5.613,6.675-9.769,11.531-12.464c4.847-2.693,10.041-4.041,15.572-4.041c9.952,0,17.756,3.333,23.414,9.994
		c5.658,6.666,8.489,14.838,8.489,24.518C286.498,343.543,283.676,351.451,278.032,358.065z M275.511,289.375h-18.83l-21.398-29.632
		l28.266-15.542l26.264,12.87L275.511,289.375z M292.536,250.921l-21.788-10.678l4.439-2.442l20.503,5.995L292.536,250.921z
		 M283.507,233.229l19.28-10.604h2.273l-6.624,14.97L283.507,233.229z M389.187,366.634h-34.528v-5.374
		c3.056,0,4.955-0.281,5.69-0.846s1.102-1.397,1.102-2.494c0-1.259-0.525-2.679-1.58-4.259l-8.423-12.44l-8.803,11.182
		c-1.528,1.968-2.287,3.614-2.287,4.936c0,1.195,0.412,2.149,1.247,2.856c0.834,0.71,2.602,1.064,5.297,1.064v5.374h-24.853v-5.374
		c2.166,0,4.251-0.588,6.253-1.765c2.002-1.179,4.477-3.624,7.425-7.335l12.506-15.731l-12.675-19.024
		c-3.422-5.13-5.793-8.254-7.129-9.368c-1.336-1.111-3.492-1.668-6.464-1.668v-5.372h31.903v5.372c-1.921,0-3.196,0.168-3.839,0.508
		c-0.637,0.34-0.961,0.975-0.961,1.91c0,1.259,0.459,2.599,1.378,4.02l7.8,11.618l8.587-11.039c1.144-1.483,1.711-2.871,1.711-4.16
		c0-1.906-1.805-2.857-5.419-2.857v-5.372h22.599v5.372c-3.028,0.354-5.503,1.275-7.425,2.758c-1.913,1.484-4.303,4.052-7.172,7.697
		l-9.591,12.246l13.181,20.091c3.806,5.777,6.614,9.239,8.419,10.382c1.809,1.146,3.825,1.718,6.051,1.718V366.634z
		 M382.118,289.375h-11.105l-72.436-35.494l3.624-8.182l49.565,14.494L382.118,289.375z M355.235,254.202l-32.841-31.577h8.334
		l133.696,63.504L355.235,254.202z M481.104,306.367c-1.81,0-3.432,0.773-4.861,2.322c-1.43,1.549-3.482,4.826-6.149,9.827
		l-10.721,20.138v14.571c0,3,0.441,5.09,1.317,6.269c0.876,1.177,2.686,1.765,5.442,1.765h0.872v5.374h-30.314v-5.374h0.919
		c2.836,0,4.673-0.605,5.526-1.816c0.844-1.209,1.271-3.281,1.271-6.218v-13.507l-12.717-24.687
		c-2.006-3.874-3.562-6.284-4.673-7.237c-1.111-0.952-2.583-1.427-4.42-1.427v-5.372h28.359v5.372c-3.061,0-4.589,0.951-4.589,2.857
		c0,1.062,0.567,2.693,1.711,4.889l9.258,17.812l8.508-16.46c0.891-1.676,1.332-3.274,1.332-4.791c0-2.871-1.819-4.308-5.461-4.308
		v-5.372h19.392V306.367z"/>
	<polygon fill="#454646" points="311.154,169.579 304.484,188.929 318.204,188.929 	"/>
</g>
</svg>
