<?xml version="1.0" encoding="utf-8"?>
<!-- Generator: Adobe Illustrator 18.1.1, SVG Export Plug-In . SVG Version: 6.00 Build 0)  -->
<svg version="1.1" id="Ebene_1" xmlns="http://www.w3.org/2000/svg" xmlns:xlink="http://www.w3.org/1999/xlink" x="0px" y="0px"
	 width="512px" height="512px" viewBox="0 0 512 512" enable-background="new 0 0 512 512" xml:space="preserve">
<g>
	<path fill="#454646" d="M303.4,139.9c2.4-4,3.8-8.3,3.8-12.9c0-18.9-22.9-34.2-51.2-34.2c-28.3,0-51.2,15.3-51.2,34.2
		c0,4.6,1.4,8.9,3.8,12.9c-87,3.1-151.6,14.6-151.6,28.3h397.9C454.9,154.5,390.3,143,303.4,139.9z"/>
	<polygon fill="#454646" points="400,225.1 112,225.1 88.1,186.1 423.9,186.1 	"/>
	<path fill="#454646" d="M116.8,243.1v24h36l77.9,141.3l-3.3,5.7l-29.8,51.5h59.5h59.5l-29.8-51.5l-3.3-5.7l77.9-141.3h36v-24H116.8
		z M277.5,351.3c-9.6,14.7-31.1,14.7-40.7,0l-55.2-84.2h151L277.5,351.3z"/>
	<path fill="#454646" d="M249.4,80.9V53.4c0-4.2,3.5-7.7,7.7-7.7l0,0c4.2,0,7.7,3.5,7.7,7.7v27.6H249.4z"/>
</g>
</svg>
