<?xml version="1.0" encoding="utf-8"?>
<!-- Generator: Adobe Illustrator 16.0.4, SVG Export Plug-In . SVG Version: 6.00 Build 0)  -->
<!DOCTYPE svg PUBLIC "-//W3C//DTD SVG 1.1//EN" "http://www.w3.org/Graphics/SVG/1.1/DTD/svg11.dtd">
<svg version="1.1" id="Layer_1" xmlns="http://www.w3.org/2000/svg" xmlns:xlink="http://www.w3.org/1999/xlink" x="0px" y="0px"
	 width="512px" height="512px" viewBox="0 0 512 512" enable-background="new 0 0 512 512" xml:space="preserve">
<g id="layer1_9_" transform="translate(-585.52921,-967.80103)">
	<path id="path3262_1_" fill="#454646" d="M1030.82,1317.121c-8.164-1.883-16.832-3.064-25.589-3.064
		c-14.977,0-28.612,2.598-38.663,6.791c-1.113,0.541-1.902,1.701-1.902,3.017c0,0.482,0.121,0.976,0.307,1.384
		c1.188,3.444-0.769,7.172-10.497,9.319c-14.424,3.165-23.532,18.056-28.749,22.991c-6.118,5.82-23.4,9.389-20.803,5.922
		c2.036-2.704,9.813-11.148,14.547-20.283c4.23-8.158,7.999-10.49,13.189-18.268c1.522-2.279,7.428-10.312,9.145-16.662
		c1.93-6.192,1.278-13.965,2.02-17.166c1.061-4.623,5.413-14.637,5.747-20.293c0.19-3.202-13.355,4.564-19.785,4.564
		c-6.425,0-12.691-3.844-18.427-4.125c-7.109-0.334-11.679,5.482-18.104,4.47c-3.674-0.589-6.765-3.829-13.185-4.066
		c-9.139-0.334-20.298,5.079-41.271,4.399c-20.627-0.667-39.68-26.065-42.278-30.105c-3.048-4.729-6.765-4.729-10.83-1.007
		c-4.061,3.716-9.061,0.795-10.481-1.707c-2.703-4.724-9.939-18.561-21.142-21.465c-15.49-4.014-23.341,8.577-22.318,18.602
		c1.034,10.174,7.607,13.02,10.65,18.428c3.042,5.412,4.601,8.906,10.332,11.292c4.061,1.696,5.572,4.198,4.363,7.537
		c-1.061,2.9-5.285,3.563-8.063,3.696c-5.9,0.286-10.041-1.32-13.057-3.239c-3.509-2.242-6.361-5.344-9.425-10.63
		c-3.546-5.814-9.128-8.364-15.628-8.364c-3.101,0-5.996,0.825-8.578,2.151c-10.189,5.312-22.323,8.445-35.38,8.445l-14.727,0.011
		c28.24,83.775,107.452,144.105,200.76,144.105C927.525,1413.801,993.064,1375.308,1030.82,1317.121"/>
	<path id="path3266_1_" fill="#454646" d="M972.522,1145.64c-2.094,7.034-5.068,16.031-18.317,22.827
		c-1.924,0.987-2.661-0.631-1.77-2.151c5.004-8.515,5.89-10.646,7.347-14.002c2.036-4.903,3.102-11.891-0.948-26.458
		c-7.968-28.67-24.583-66.982-36.659-79.418c-11.658-11.992-32.783-15.369-51.873-10.471c-7.03,1.803-20.781,8.953-46.296,3.208
		c-44.145-9.94-50.686,12.172-53.22,21.799c-2.534,9.626-8.62,37.002-8.62,37.002c-2.03,11.144-4.681,30.531,63.87,43.588
		c31.935,6.08,33.562,14.335,34.972,20.271c2.535,10.64,6.59,16.732,11.149,19.769c4.564,3.043,0,5.561-5.063,6.08
		c-13.598,1.41-63.87-13.004-93.61-29.898c-24.322-14.871-24.736-28.262-19.164-39.617c-36.754-3.975-64.331,3.446-69.335,20.84
		c-8.588,29.867,65.646,80.871,150.175,106.461c88.701,26.855,179.937,8.11,190.073-47.648
		C1029.839,1172.49,1008.502,1153.75,972.522,1145.64z M862.218,1050.61c-0.038,0.005-0.08,0.011-0.111,0.011
		c-0.382,0-0.684-0.292-0.684-0.643c0-0.26,0.154-0.477,0.382-0.589c4.745-2.502,11.816-4.494,19.922-5.315
		c2.428-0.255,4.803-0.378,7.088-0.404c0.403,0,0.801,0.005,1.209,0.016c13.577,0.303,24.455,5.699,24.285,12.045
		c-0.159,6.347-11.292,11.25-24.868,10.947c-4.4-0.106-8.524-0.736-12.071-1.765c-0.419-0.107-0.727-0.467-0.727-0.887
		c0-0.428,0.308-0.789,0.732-0.889c8.477-1.968,14.186-5.17,13.789-8.197c-0.535-4.008-11.615-6.19-24.746-4.871
		C864.98,1050.211,863.575,1050.397,862.218,1050.61z M836.518,1091.041c-24.471,1.767-27.01,4.412-31.596,9.294
		c-6.462,6.881-14.977-8.933-14.977-8.933c-5.105-1.076-11.296-9.309-7.957-17.002c3.292-7.611,9.373-5.327,11.276-2.957
		c2.317,2.884,7.263,7.603,13.683,7.426c6.425-0.169,13.831-1.516,24.163-1.516c10.476,0,17.515,3.907,17.914,7.268
		C849.362,1087.49,848.175,1090.195,836.518,1091.041"/>
</g>
</svg>
