<?xml version="1.0" encoding="utf-8"?>
<!-- Generator: Adobe Illustrator 16.0.4, SVG Export Plug-In . SVG Version: 6.00 Build 0)  -->
<!DOCTYPE svg PUBLIC "-//W3C//DTD SVG 1.1//EN" "http://www.w3.org/Graphics/SVG/1.1/DTD/svg11.dtd">
<svg version="1.1" id="Layer_1" xmlns="http://www.w3.org/2000/svg" xmlns:xlink="http://www.w3.org/1999/xlink" x="0px" y="0px"
	 width="512px" height="512px" viewBox="0 0 512 512" enable-background="new 0 0 512 512" xml:space="preserve">
<g>
	<path fill="#454646" d="M394.992,91.333l-2.548,39.863c-0.388,1.717-1.36,4.479-2.235,6.433l-96.138,100.905
		c-9.327,9.779-9.327,25.16,0,34.949l96.138,100.896c0.875,1.946,1.848,4.718,2.235,6.433l2.548,39.856h-277.99l2.548-39.856
		c0.396-1.715,1.369-4.486,2.243-6.44l96.13-100.888c9.326-9.789,9.326-25.17,0-34.949l-96.13-100.905
		c-0.874-1.954-1.848-4.716-2.243-6.423l-2.54-39.873H394.992 M412.821,66H99.173c-5.509,0-9.344,4.453-8.535,9.903l3.728,58.336
		c0.808,5.444,3.843,13.73,6.746,18.416l98.471,103.354l-98.471,103.346c-2.903,4.676-5.938,12.962-6.746,18.406l-3.728,58.344
		c-0.809,5.442,3.034,9.896,8.535,9.896h313.648c5.509,0,9.352-4.453,8.544-9.896l-3.729-58.344
		c-0.808-5.444-3.851-13.73-6.754-18.406l-98.471-103.346l98.471-103.354c2.903-4.686,5.946-12.972,6.754-18.416l3.719-58.336
		C422.173,70.453,418.33,66,412.821,66L412.821,66z"/>
	<path fill="#454646" d="M267.121,280.212c0.354-18.299-4.567-26.389,25.16-58.691c0,0,59.928-63.259,67.242-70.572
		c12.32-12.312,14.91-25.202-12.525-25.202c-27.882,0-55.367,37.596-116.467,30.265c-15.594-1.872-28.986-3.728-47.854-13.021
		c-23.569-11.61-29.936,3.942-20.502,13.838c9.426,9.896,61.636,64.693,61.636,64.693c23.964,23.857,19.032,41.472,19.032,58.691
		c0,9.615,5.954,15.627,11.965,16.222C260.82,297.034,266.891,292.228,267.121,280.212z"/>
	<path fill="#454646" d="M229.872,335.364c0,0-38.966,41.431-44.383,46.84c-9.12,9.13-12.808,24.089,7.513,24.089
		c20.649,0,100.41,0,118.041,0c19.469,0,22.175-15.692,15.189-23.016c-6.984-7.331-45.652-47.913-45.652-47.913
		C262.833,317.692,251.891,311.441,229.872,335.364z"/>
</g>
</svg>
