<?xml version="1.0" encoding="utf-8"?>
<!-- Generator: Adobe Illustrator 19.2.1, SVG Export Plug-In . SVG Version: 6.00 Build 0)  -->
<svg version="1.1" id="Layer_1" xmlns="http://www.w3.org/2000/svg" xmlns:xlink="http://www.w3.org/1999/xlink" x="0px" y="0px"
	 width="512px" height="512px" viewBox="0 0 512 512" enable-background="new 0 0 512 512" xml:space="preserve">
<g>
	<path fill="#454646" d="M451.682,139.395v-20.336c0-3.922-5.399-4.038-8.252-4.57c-3.932-0.732-7.879-1.386-11.835-1.978
		c-11.994-1.796-24.073-3.036-36.178-3.779c-0.272-0.017-0.545-0.029-0.817-0.045v-8.846h-50.4v8.861
		c-12.178,0.756-24.322,2.074-36.363,4.041c-15.568,2.543-30.97,6.16-45.98,11.019c-1.959,0.634-3.911,1.289-5.856,1.966
		c-15.073-5.244-30.582-9.197-46.284-12.031c-14.625-2.639-29.42-4.31-44.256-5.142c-14.49-0.813-29.024-0.828-43.518-0.119
		c-12.698,0.622-25.373,1.793-37.964,3.557c-4.332,0.607-8.655,1.285-12.962,2.051c-1.556,0.276-3.11,0.565-4.662,0.867
		c-1.22,0.238-2.602,0.361-3.764,0.814c-1.357,0.529-2.273,1.88-2.273,3.334v20.336L46,140.046v272.045l186.292-8.468
		c0.665,2.366,3.096,3.906,5.162,4.927c3.357,1.66,7.109,2.519,10.799,3.026c8.187,1.124,17.41,0.786,25.111-2.485
		c2.441-1.037,5.565-2.696,6.344-5.468L466,412.091V140.046L451.682,139.395z M239.2,375.072
		c-21.682-5.821-43.923-9.485-66.301-11.214c-22.465-1.737-45.083-1.565-67.526,0.412c-9.456,0.833-18.885,1.985-28.255,3.504
		V138.631v-8.589c17.796-2.971,35.831-4.621,53.862-5.146c23.312-0.678,46.728,0.594,69.762,4.31
		c12.986,2.095,25.856,4.963,38.458,8.74V375.072z M434.882,138.631v229.142c-18.71-3.033-37.659-4.657-56.607-5.026
		c-23.02-0.448-46.096,0.993-68.846,4.574c-12.334,1.941-24.57,4.514-36.629,7.751V137.946c23.202-6.954,47.25-10.83,71.4-12.414
		v104.509l25.2-21l25.2,21V125.517c16.993,1.055,30.957,2.968,40.282,4.525V138.631z"/>
	<path fill="#454646" d="M107.694,174.777c9.043-1.899,56.461-10.563,102.12,5.322l5.446,1.895c1.439,0.5,2.941-0.568,2.941-2.091
		v-17.547c0-0.942-0.596-1.781-1.486-2.091l-0.001,0c-50.897-17.708-103.338-8.137-113.333-6.04l-1.021,0.214
		c-1.025,0.215-1.759,1.119-1.759,2.166v16.934c0,1.406,1.293,2.455,2.668,2.166L107.694,174.777z"/>
	<path fill="#454646" d="M103.38,206.635l-1.021,0.214c-1.025,0.215-1.759,1.119-1.759,2.166v16.934
		c0,1.406,1.293,2.455,2.668,2.166l4.425-0.929c9.043-1.899,56.463-10.562,102.119,5.322l5.446,1.895
		c1.439,0.5,2.941-0.568,2.941-2.091v-17.547c0-0.942-0.596-1.781-1.486-2.091l0,0C165.815,194.967,113.375,204.537,103.38,206.635z
		"/>
	<path fill="#454646" d="M103.38,259.046l-1.021,0.214c-1.025,0.215-1.759,1.119-1.759,2.166v16.934
		c0,1.406,1.293,2.455,2.668,2.166l4.425-0.929c9.043-1.898,56.463-10.563,102.119,5.322l5.446,1.895
		c1.439,0.5,2.941-0.568,2.941-2.091v-17.547c0-0.942-0.596-1.781-1.486-2.091l0,0C165.817,247.378,113.375,256.948,103.38,259.046z
		"/>
	<path fill="#454646" d="M216.713,317.496c-50.897-17.707-103.338-8.137-113.333-6.04l-1.021,0.214
		c-1.025,0.215-1.759,1.119-1.759,2.166v16.934c0,1.406,1.293,2.455,2.668,2.166l4.425-0.929
		c9.043-1.898,56.461-10.563,102.12,5.322l5.446,1.895c1.439,0.5,2.941-0.568,2.941-2.091v-17.547
		C218.2,318.645,217.604,317.806,216.713,317.496L216.713,317.496z"/>
</g>
</svg>
