<?xml version="1.0" encoding="utf-8"?>
<!-- Generator: Adobe Illustrator 19.2.1, SVG Export Plug-In . SVG Version: 6.00 Build 0)  -->
<svg version="1.1" id="Work_area" xmlns="http://www.w3.org/2000/svg" xmlns:xlink="http://www.w3.org/1999/xlink" x="0px" y="0px"
	 width="512px" height="512px" viewBox="0 0 512 512" enable-background="new 0 0 512 512" xml:space="preserve">
<g>
	<path fill="#454646" d="M385.7,224.8c-2.1,0-4.2,0.2-6.2,0.6c-7.7-19.8-22.8-35.8-41.9-44.9c0.2-1.3,0.3-2.5,0.3-3.8
		c0-16.8-13.5-30.3-30.2-30.3c-7.1,0-13.7,2.5-18.7,6.5v20.8v14.5v12.3c5,4.1,11.6,6.5,18.7,6.5c10.3,0,19.4-5.2,24.9-13.1
		c15.6,7.7,27.8,21.2,34,37.6c-6.8,5.6-11.2,14-11.2,23.5c0,9.6,4.5,18.1,11.4,23.7c-6,16.8-18.4,30.5-34.3,38.3
		C327,309.2,318,304,307.7,304c-7.1,0-13.7,2.5-18.7,6.5v12.3v14.5v20.8c5,4.1,11.6,6.5,18.7,6.5c16.8,0,30.3-13.6,30.3-30.3
		c0-1.3-0.1-2.6-0.3-3.8c19.3-9.2,34.5-25.5,42.1-45.6c1.9,0.4,3.9,0.6,5.9,0.6c16.8,0,30.3-13.6,30.3-30.3
		C416,238.4,402.4,224.8,385.7,224.8"/>
	<path fill="#454646" d="M96.3,138L95.9,374L272,406V106L96.3,138z M195.6,315c-14.4,10.4-33.2,6-48.3-0.2
		c-0.2-8.8-0.4-17.6-0.7-26.4c9.7,7.2,24.1,17.7,35.6,7.9c9-15-8.6-24.6-18.8-31.9c-21.8-13.2-22.6-49.3-1.5-63.4
		c12.4-7.8,27.5-5.4,41.2-3.4c0.2,8.3,0.4,16.6,0.6,24.9c-11.4-3.6-25.9-10.8-35.2,0.8c-6.5,17,14.1,23.5,24.1,32.4
		C212,268.2,213.7,300.5,195.6,315"/>
</g>
</svg>
