<?xml version="1.0" encoding="utf-8"?>
<!-- Generator: Adobe Illustrator 16.0.4, SVG Export Plug-In . SVG Version: 6.00 Build 0)  -->
<!DOCTYPE svg PUBLIC "-//W3C//DTD SVG 1.1//EN" "http://www.w3.org/Graphics/SVG/1.1/DTD/svg11.dtd">
<svg version="1.1" id="Layer_1" xmlns="http://www.w3.org/2000/svg" xmlns:xlink="http://www.w3.org/1999/xlink" x="0px" y="0px"
	 width="512px" height="512px" viewBox="0 0 512 512" enable-background="new 0 0 512 512" xml:space="preserve">
<g>
	<g>
		<rect x="188.444" y="188.444" fill-rule="evenodd" clip-rule="evenodd" fill="#454646" width="135.111" height="135.111"/>
		<path fill-rule="evenodd" clip-rule="evenodd" fill="#454646" d="M129.334,129.333v253.334h253.334V129.333H129.334z
			 M340.444,340.444H171.556V171.556h168.889V340.444z"/>
	</g>
	<g>
		<g>
			<path fill-rule="evenodd" clip-rule="evenodd" fill="#454646" d="M137.777,74.444c0-4.643,3.802-8.444,8.445-8.444h4.222
				c4.64,0,8.444,3.802,8.444,8.444v25.333c0,4.644-3.805,8.445-8.444,8.445h-4.222c-4.644,0-8.445-3.802-8.445-8.445V74.444z"/>
		</g>
		<g>
			<path fill-rule="evenodd" clip-rule="evenodd" fill="#454646" d="M180.846,74.444c0-4.643,3.801-8.444,8.444-8.444h4.222
				c4.643,0,8.444,3.802,8.444,8.444v25.333c0,4.644-3.802,8.445-8.444,8.445h-4.222c-4.644,0-8.444-3.802-8.444-8.445V74.444z"/>
		</g>
		<g>
			<path fill-rule="evenodd" clip-rule="evenodd" fill="#454646" d="M223.913,74.444c0-4.643,3.802-8.444,8.444-8.444h4.222
				c4.644,0,8.444,3.802,8.444,8.444v25.333c0,4.644-3.801,8.445-8.444,8.445h-4.222c-4.643,0-8.444-3.802-8.444-8.445V74.444z"/>
		</g>
		<g>
			<path fill-rule="evenodd" clip-rule="evenodd" fill="#454646" d="M266.972,74.444c0-4.643,3.806-8.444,8.444-8.444h4.223
				c4.646,0,8.445,3.802,8.445,8.444v25.333c0,4.644-3.799,8.445-8.445,8.445h-4.223c-4.639,0-8.444-3.802-8.444-8.445V74.444z"/>
		</g>
		<g>
			<path fill-rule="evenodd" clip-rule="evenodd" fill="#454646" d="M310.044,74.444c0-4.643,3.802-8.444,8.444-8.444h4.222
				c4.644,0,8.444,3.802,8.444,8.444v25.333c0,4.644-3.801,8.445-8.444,8.445h-4.222c-4.643,0-8.444-3.802-8.444-8.445V74.444z"/>
		</g>
		<g>
			<path fill-rule="evenodd" clip-rule="evenodd" fill="#454646" d="M353.111,74.444c0-4.643,3.802-8.444,8.444-8.444h4.222
				c4.639,0,8.445,3.802,8.445,8.444v25.333c0,4.644-3.807,8.445-8.445,8.445h-4.222c-4.643,0-8.444-3.802-8.444-8.445V74.444z"/>
		</g>
	</g>
	<path fill-rule="evenodd" clip-rule="evenodd" fill="#454646" d="M137.777,412.223c0-4.651,3.802-8.445,8.445-8.445h4.222
		c4.64,0,8.444,3.794,8.444,8.445v25.333c0,4.643-3.805,8.444-8.444,8.444h-4.222c-4.644,0-8.445-3.802-8.445-8.444V412.223z"/>
	<path fill-rule="evenodd" clip-rule="evenodd" fill="#454646" d="M175.777,412.223c0-4.651,3.802-8.445,8.445-8.445h4.222
		c4.64,0,8.444,3.794,8.444,8.445v25.333c0,4.643-3.805,8.444-8.444,8.444h-4.222c-4.644,0-8.445-3.802-8.445-8.444V412.223z"/>
	<path fill-rule="evenodd" clip-rule="evenodd" fill="#454646" d="M222.223,412.223c0-4.651,3.801-8.445,8.445-8.445h4.221
		c4.639,0,8.445,3.794,8.445,8.445v25.333c0,4.643-3.807,8.444-8.445,8.444h-4.221c-4.645,0-8.445-3.802-8.445-8.444V412.223z"/>
	<path fill-rule="evenodd" clip-rule="evenodd" fill="#454646" d="M268.668,412.223c0-4.651,3.801-8.445,8.443-8.445h4.223
		c4.638,0,8.443,3.794,8.443,8.445v25.333c0,4.643-3.806,8.444-8.443,8.444h-4.223c-4.643,0-8.443-3.802-8.443-8.444V412.223z"/>
	<path fill-rule="evenodd" clip-rule="evenodd" fill="#454646" d="M315.111,412.223c0-4.651,3.802-8.445,8.444-8.445h4.222
		c4.639,0,8.445,3.794,8.445,8.445v25.333c0,4.643-3.807,8.444-8.445,8.444h-4.222c-4.643,0-8.444-3.802-8.444-8.444V412.223z"/>
	<path fill-rule="evenodd" clip-rule="evenodd" fill="#454646" d="M353.111,412.223c0-4.651,3.802-8.445,8.444-8.445h4.222
		c4.639,0,8.445,3.794,8.445,8.445v25.333c0,4.643-3.807,8.444-8.445,8.444h-4.222c-4.643,0-8.444-3.802-8.444-8.444V412.223z"/>
	<path fill-rule="evenodd" clip-rule="evenodd" fill="#454646" d="M412.223,374.223c-4.644,0-8.445-3.794-8.445-8.445v-4.222
		c0-4.651,3.802-8.444,8.445-8.444h25.333c4.639,0,8.444,3.793,8.444,8.444v4.222c0,4.651-3.806,8.445-8.444,8.445H412.223z"/>
	<path fill-rule="evenodd" clip-rule="evenodd" fill="#454646" d="M412.223,331.159c-4.644,0-8.445-3.811-8.445-8.444v-4.223
		c0-4.651,3.802-8.444,8.445-8.444h25.333c4.639,0,8.444,3.793,8.444,8.444v4.223c0,4.634-3.806,8.444-8.444,8.444H412.223z"/>
	<path fill-rule="evenodd" clip-rule="evenodd" fill="#454646" d="M412.223,288.096c-4.644,0-8.445-3.802-8.445-8.444v-4.223
		c0-4.651,3.802-8.444,8.445-8.444h25.333c4.639,0,8.444,3.793,8.444,8.444v4.223c0,4.643-3.806,8.444-8.444,8.444H412.223z"/>
	<path fill-rule="evenodd" clip-rule="evenodd" fill="#454646" d="M412.223,245.016c-4.644,0-8.445-3.793-8.445-8.444v-4.223
		c0-4.634,3.802-8.444,8.445-8.444h25.333c4.639,0,8.444,3.811,8.444,8.444v4.223c0,4.651-3.806,8.444-8.444,8.444H412.223z"/>
	<path fill-rule="evenodd" clip-rule="evenodd" fill="#454646" d="M412.223,201.961c-4.644,0-8.445-3.802-8.445-8.445v-4.222
		c0-4.651,3.802-8.444,8.445-8.444h25.333c4.639,0,8.444,3.793,8.444,8.444v4.222c0,4.644-3.806,8.445-8.444,8.445H412.223z"/>
	<path fill-rule="evenodd" clip-rule="evenodd" fill="#454646" d="M412.223,158.889c-4.644,0-8.445-3.802-8.445-8.444v-4.222
		c0-4.651,3.802-8.445,8.445-8.445h25.333c4.639,0,8.444,3.794,8.444,8.445v4.222c0,4.643-3.806,8.444-8.444,8.444H412.223z"/>
	<path fill-rule="evenodd" clip-rule="evenodd" fill="#454646" d="M74.444,374.223c-4.644,0-8.444-3.794-8.444-8.445v-4.222
		c0-4.651,3.801-8.444,8.444-8.444h25.333c4.639,0,8.445,3.793,8.445,8.444v4.222c0,4.651-3.807,8.445-8.445,8.445H74.444z"/>
	<path fill-rule="evenodd" clip-rule="evenodd" fill="#454646" d="M74.444,331.159c-4.644,0-8.444-3.811-8.444-8.444v-4.223
		c0-4.651,3.801-8.444,8.444-8.444h25.333c4.639,0,8.445,3.793,8.445,8.444v4.223c0,4.634-3.807,8.444-8.445,8.444H74.444z"/>
	<path fill-rule="evenodd" clip-rule="evenodd" fill="#454646" d="M74.444,288.096c-4.644,0-8.444-3.802-8.444-8.444v-4.223
		c0-4.651,3.801-8.444,8.444-8.444h25.333c4.639,0,8.445,3.793,8.445,8.444v4.223c0,4.643-3.807,8.444-8.445,8.444H74.444z"/>
	<path fill-rule="evenodd" clip-rule="evenodd" fill="#454646" d="M74.444,245.016c-4.644,0-8.444-3.793-8.444-8.444v-4.223
		c0-4.634,3.801-8.444,8.444-8.444h25.333c4.639,0,8.445,3.811,8.445,8.444v4.223c0,4.651-3.807,8.444-8.445,8.444H74.444z"/>
	<path fill-rule="evenodd" clip-rule="evenodd" fill="#454646" d="M74.444,201.961c-4.644,0-8.444-3.802-8.444-8.445v-4.222
		c0-4.651,3.801-8.444,8.444-8.444h25.333c4.639,0,8.445,3.793,8.445,8.444v4.222c0,4.644-3.807,8.445-8.445,8.445H74.444z"/>
	<path fill-rule="evenodd" clip-rule="evenodd" fill="#454646" d="M74.444,158.889c-4.644,0-8.444-3.802-8.444-8.444v-4.222
		c0-4.651,3.801-8.445,8.444-8.445h25.333c4.639,0,8.445,3.794,8.445,8.445v4.222c0,4.643-3.807,8.444-8.445,8.444H74.444z"/>
</g>
</svg>
