<?xml version="1.0" encoding="utf-8"?>
<!-- Generator: Adobe Illustrator 18.1.0, SVG Export Plug-In . SVG Version: 6.00 Build 0)  -->
<svg version="1.1" id="Layer_1" xmlns="http://www.w3.org/2000/svg" xmlns:xlink="http://www.w3.org/1999/xlink" x="0px" y="0px"
	 viewBox="0 0 512 512" enable-background="new 0 0 512 512" xml:space="preserve">
<g>
	<path fill-rule="evenodd" clip-rule="evenodd" fill="#454646" d="M378.195,176.664l-37.282,37.282
		c10.74,16.23,17.008,35.676,17.008,56.595c0,56.741-45.989,102.719-102.724,102.719c-20.919,0-40.365-6.268-56.592-17.008
		l-32.692,32.692c25.859,13.632,55.392,22.796,88.149,22.796C374.545,411.74,466,270.402,466,270.402S432.14,217.71,378.195,176.664
		z"/>
	<g>
		<path fill-rule="evenodd" clip-rule="evenodd" fill="#454646" d="M431.935,65.578c-6.56-6.558-17.196-6.562-23.76,0
			l-80.432,80.432c-22.73-10.35-47.485-16.964-73.679-16.964C126.013,129.046,46,270.402,46,270.402s25.824,45.955,71.892,85.457
			l-66.806,66.805c-6.56,6.558-6.56,17.198,0,23.756c3.281,3.281,7.58,4.922,11.88,4.922c4.299,0,8.599-1.641,11.88-4.922
			L431.935,89.334C438.495,82.776,438.495,72.136,431.935,65.578z M152.502,270.541c0-56.729,45.97-102.711,102.696-102.711
			c14.901,0,29.046,3.193,41.821,8.904l-42.541,42.541c-27.158,0.713-48.98,22.547-49.694,49.694l-43.384,43.384
			C155.693,299.58,152.502,285.439,152.502,270.541z"/>
		<path fill-rule="evenodd" clip-rule="evenodd" fill="#454646" d="M237.024,317.834c5.826,2.307,12.158,3.616,18.807,3.616
			c28.238,0,51.127-22.887,51.127-51.122c0-6.649-1.308-12.983-3.619-18.809L237.024,317.834z"/>
	</g>
</g>
</svg>
