<?xml version="1.0" encoding="utf-8"?>
<!-- Generator: Adobe Illustrator 18.1.1, SVG Export Plug-In . SVG Version: 6.00 Build 0)  -->
<svg version="1.1" id="Layer_1" xmlns="http://www.w3.org/2000/svg" xmlns:xlink="http://www.w3.org/1999/xlink" x="0px" y="0px"
	 viewBox="0 0 512 512" enable-background="new 0 0 512 512" xml:space="preserve">
<path fill="#454646" d="M285.8,158c-20.5-7.9-29.6-14.8-29.6-28.7c0-10.1,7.8-22.3,28.1-22.3c13.5,0,23.4,4.4,28.3,7.1l5.3-15.7
	c-6.6-3.8-17.7-7.3-32.9-7.3c-29,0-48.2,17.2-48.2,40.4c0,21,15,33.6,39.3,42.2c20.1,7.7,28.1,15.7,28.1,29.6
	c0,15-11.5,25.4-31.2,25.4c-13.3,0-25.9-4.4-34.5-9.7l-4.9,16.2c7.9,5.3,23.6,9.5,38,9.5c35.2,0,52.2-19.9,52.2-42.9
	C323.8,179.9,311,167.7,285.8,158z M71.1,389.6c-7,0-12.6,5.6-12.6,12.6s5.7,12.6,12.6,12.6c7,0,12.6-5.7,12.6-12.6
	C83.7,395.3,78,389.6,71.1,389.6z M361.8,182.8c4.4,1.1,9.8,1.3,15.5,1.3c18.8,0,35.3-5.6,45.5-16.4c7.5-7.7,11.5-18.3,11.5-31.8
	c0-13.3-4.8-24.1-13-31.2c-8.9-8-22.8-12.4-41.8-12.4c-15.5,0-27.6,1.4-36.9,2.9h0v147.3h19.2V182.8z M361.9,167.1v-58
	c3.3-0.8,9.7-1.5,18.1-1.5c21.2,0,35.1,9.5,35.1,29.2c0,20.5-14.2,31.8-37.4,31.8C371.3,168.6,366,168.2,361.9,167.1L361.9,167.1z
	 M197.7,378.7l-82.1-115H97.7v145.6h17.9V294.4l82.2,114.9h17.8V263.7h-17.9V378.7z M331.1,278.8h42.1v130.5h17.9V278.8h42.1v-15.1
	H331.1V278.8z M235.9,409.3h78v-15.1h-60.2v-50.9h53.6v-15.1h-53.6v-49.4h60.2v-15.1h-78V409.3z M148.7,93.4l-50.6,149H118
	l15.5-46.8v-0.1h52.7l15.9,46.9h20.6l-50.8-149H148.7z M137.5,180.5l14.6-43.1c2.9-9.1,5.3-18.2,7.5-27h0.4
	c2.2,8.6,4.4,17.5,7.7,27.2l14.6,42.9H137.5z"/>
</svg>
