<?xml version="1.0" encoding="utf-8"?>
<!-- Generator: Adobe Illustrator 16.0.4, SVG Export Plug-In . SVG Version: 6.00 Build 0)  -->
<!DOCTYPE svg PUBLIC "-//W3C//DTD SVG 1.1//EN" "http://www.w3.org/Graphics/SVG/1.1/DTD/svg11.dtd">
<svg version="1.1" id="Layer_1" xmlns="http://www.w3.org/2000/svg" xmlns:xlink="http://www.w3.org/1999/xlink" x="0px" y="0px"
	 width="512px" height="512px" viewBox="0 0 512 512" enable-background="new 0 0 512 512" xml:space="preserve">
<g>
	<g>
		<path fill="#454646" d="M381.388,167.44l5.825-6.56l0.794,0.718c3.755,3.352,9.56,3.015,12.889-0.736l12.851-14.404
			c3.382-3.755,3.017-9.536-0.734-12.87l-20.785-18.56c-3.765-3.363-9.549-3.051-12.906,0.711l-12.856,14.404
			c-3.35,3.747-2.995,9.544,0.752,12.894l0.795,0.702l-5.972,6.69c-24.519-18.586-54.05-30.914-86.215-34.54v-12.088h1.641
			c7.766,0,14.037-6.314,14.037-14.058V60.041c0-7.775-6.271-14.041-14.037-14.041h-42.92c-7.767,0-14.064,6.266-14.064,14.041
			v29.704c0,7.744,6.298,14.058,14.064,14.058h1.636v12.088C148.52,125.753,80.38,200.077,80.38,290.371
			C80.38,387.369,159.002,466,256,466c96.979,0,175.619-78.631,175.619-175.629C431.619,242.487,412.462,199.102,381.388,167.44z
			 M256,144.218c8.878,0,16.056,7.183,16.056,16.065c0,8.868-7.178,16.06-16.056,16.06s-16.069-7.192-16.069-16.06
			C239.931,151.401,247.122,144.218,256,144.218z M125.918,306.431c-8.883,0-16.079-7.191-16.079-16.06
			c0-8.878,7.196-16.069,16.079-16.069c8.862,0,16.05,7.191,16.05,16.069C141.968,299.24,134.78,306.431,125.918,306.431z
			 M256,436.523c-8.878,0-16.069-7.189-16.069-16.055c0-8.877,7.191-16.074,16.069-16.074s16.056,7.196,16.056,16.074
			C272.056,429.334,264.878,436.523,256,436.523z M283.252,315.842c-14.446,14.451-37.879,14.46-52.325,0.01
			c-14.458-14.457-14.466-37.908-0.009-52.355c14.449-14.465,132.014-79.659,132.014-79.659S297.717,301.386,283.252,315.842z
			 M386.093,306.431c-8.874,0-16.069-7.191-16.069-16.06c0-8.878,7.195-16.069,16.069-16.069c8.876,0,16.06,7.191,16.06,16.069
			C402.152,299.24,394.969,306.431,386.093,306.431z"/>
	</g>
</g>
</svg>
