<?xml version="1.0" encoding="utf-8"?>
<!-- Generator: Adobe Illustrator 16.0.4, SVG Export Plug-In . SVG Version: 6.00 Build 0)  -->
<!DOCTYPE svg PUBLIC "-//W3C//DTD SVG 1.1//EN" "http://www.w3.org/Graphics/SVG/1.1/DTD/svg11.dtd">
<svg version="1.1" id="Layer_1" xmlns="http://www.w3.org/2000/svg" xmlns:xlink="http://www.w3.org/1999/xlink" x="0px" y="0px"
	 width="512px" height="512px" viewBox="0 0 512 512" enable-background="new 0 0 512 512" xml:space="preserve">
<path fill="#454646" d="M256,66.002C151.234,66.002,66.002,151.234,66.002,256S151.234,445.998,256,445.998
	c104.766,0,189.998-85.232,189.998-189.998S360.766,66.002,256,66.002z M319.642,190.087c14.442,0,26.14,11.701,26.14,26.14
	s-11.697,26.14-26.14,26.14c-14.436,0-26.139-11.701-26.139-26.14S305.206,190.087,319.642,190.087z M192.358,190.087
	c14.436,0,26.14,11.701,26.14,26.14s-11.704,26.14-26.14,26.14s-26.14-11.701-26.14-26.14S177.922,190.087,192.358,190.087z
	 M358.858,311.764l-0.007,0.019c-15.437,36.5-55.597,62.577-102.844,62.577H256l0,0c-47.254,0-87.414-26.077-102.852-62.577v-0.019
	c-0.096-0.23-6.902-17.059,13.07-17.059h179.563C365.753,294.705,358.948,311.534,358.858,311.764z"/>
</svg>
