<?xml version="1.0" encoding="utf-8"?>
<!-- Generator: Adobe Illustrator 16.0.4, SVG Export Plug-In . SVG Version: 6.00 Build 0)  -->
<!DOCTYPE svg PUBLIC "-//W3C//DTD SVG 1.1//EN" "http://www.w3.org/Graphics/SVG/1.1/DTD/svg11.dtd">
<svg version="1.1" id="Layer_1" xmlns="http://www.w3.org/2000/svg" xmlns:xlink="http://www.w3.org/1999/xlink" x="0px" y="0px"
	 width="512px" height="512px" viewBox="0 0 512 512" enable-background="new 0 0 512 512" xml:space="preserve">
<g>
	<g>
		<path fill="#454646" d="M188.318,424.399c0-11.935,9.674-21.609,21.617-21.609c11.926,0,21.6,9.675,21.6,21.609
			c0,11.927-9.674,21.601-21.6,21.601C197.992,446,188.318,436.326,188.318,424.399z"/>
		<path fill="#454646" d="M280.465,424.399c0-11.935,9.664-21.609,21.6-21.609c11.945,0,21.609,9.675,21.609,21.609
			c0,11.927-9.664,21.601-21.609,21.601C290.129,446,280.465,436.326,280.465,424.399z"/>
	</g>
	<path fill="#454646" d="M418.986,66c-25.404,0-55.871,0-55.871,0c-19.428,0-26.246,6.029-31.984,10.587
		c-30.264,24.092-63.666,73.34-75.131,90.968c-11.475-17.628-44.867-66.876-75.141-90.968C175.123,72.029,168.305,66,148.885,66
		c0,0-30.467,0-55.879,0c-25.422,0-41.305,20.332-41.305,79.432c0,59.09,0,178.565,0,218.592c0,40.035,13.975,76.896,33.678,76.896
		s40.168,0,70.529,0s-26.043-92.138-26.043-187.46c0-13.54,0-19.508,0-21.91c0-1.145,0-1.499,0-1.454c0-0.834,0-2.084,0-3.964
		c0-31.142,6.703-60.03,22.877-47.022c55.277,44.478,52.732,177.298,81.02,177.298c7.139,0,13.434,0,18.105,0c5.1,0,8.266,0,8.266,0
		c4.664,0,10.969,0,18.105,0c28.277,0,25.742-132.82,81.02-177.298c16.174-13.008,22.877,15.881,22.877,47.022
		c0,1.88,0,3.13,0,3.964c0-0.045,0,0.31,0,1.454c0,2.402,0,8.37,0,21.91c0,95.322-56.404,187.46-26.051,187.46
		c30.369,0,50.834,0,70.527,0c19.713,0,33.688-36.86,33.688-76.896c0-40.026,0-159.502,0-218.592
		C460.299,86.332,444.418,66,418.986,66z"/>
</g>
</svg>
