<?xml version="1.0" encoding="utf-8"?>
<!-- Generator: Adobe Illustrator 19.2.1, SVG Export Plug-In . SVG Version: 6.00 Build 0)  -->
<svg version="1.1" id="Work_area" xmlns="http://www.w3.org/2000/svg" xmlns:xlink="http://www.w3.org/1999/xlink" x="0px" y="0px"
	 width="512px" height="512px" viewBox="0 0 512 512" enable-background="new 0 0 512 512" xml:space="preserve">
<g>
	<polygon fill="#454646" points="246,305 154,357.9 154,270.9 179.7,256 246,218 246,158.7 207.9,180.6 103,240.5 103,446 
		246,364.2 	"/>
	<polygon fill="#454646" points="154,149.5 196.7,173.9 244.5,146.6 103,66 103,227.2 154,198.3 	"/>
	<polygon fill="#454646" points="165,307 192.3,322.5 244.4,292.8 191.3,262.6 165,277.6 	"/>
	<polygon fill="#454646" points="263,216.3 358,270.9 358,357.9 263,303.3 263,362.6 409,446 409,240.5 263,157.1 	"/>
	<polygon fill="#454646" points="267.6,146.6 315.3,173.9 358,149.5 358,198.3 409,227.2 409,66 	"/>
	<polygon fill="#454646" points="347,277.6 320.6,262.6 267.6,292.8 319.7,322.5 347,307 	"/>
</g>
</svg>
