<?xml version="1.0" encoding="utf-8"?>
<!-- Generator: Adobe Illustrator 16.0.4, SVG Export Plug-In . SVG Version: 6.00 Build 0)  -->
<!DOCTYPE svg PUBLIC "-//W3C//DTD SVG 1.1//EN" "http://www.w3.org/Graphics/SVG/1.1/DTD/svg11.dtd">
<svg version="1.1" id="Layer_1" xmlns="http://www.w3.org/2000/svg" xmlns:xlink="http://www.w3.org/1999/xlink" x="0px" y="0px"
	 width="512px" height="512px" viewBox="0 0 512 512" enable-background="new 0 0 512 512" xml:space="preserve">
<path fill="#454646" d="M256,66C151.065,66,66,151.069,66,256.004C66,360.935,151.065,446,256,446s190-85.065,190-189.996
	C446,151.069,360.935,66,256,66z M234.206,126.921c5.972-6.038,13.201-9.057,21.695-9.057c8.626,0,15.924,3.019,21.896,9.057
	c5.97,6.034,8.955,13.306,8.955,21.794c0,8.493-3.017,15.729-9.055,21.697c-6.042,5.973-13.305,8.957-21.796,8.957
	c-8.495,0-15.723-2.984-21.695-8.957c-5.973-5.968-8.958-13.204-8.958-21.697C225.248,140.227,228.233,132.955,234.206,126.921z
	 M306.262,394.14H205.74v-7.163c8.226-0.267,14.331-2.655,18.311-7.167c2.654-3.054,3.983-11.148,3.983-24.279V246.846
	c0-13.131-1.529-21.53-4.579-25.18c-3.054-3.649-8.958-5.74-17.716-6.271v-7.363h78.028V355.53c0,13.131,1.525,21.523,4.579,25.177
	c3.05,3.648,9.02,5.736,17.915,6.27V394.14z"/>
</svg>
