<?xml version="1.0" encoding="utf-8"?>
<!-- Generator: Adobe Illustrator 16.0.4, SVG Export Plug-In . SVG Version: 6.00 Build 0)  -->
<!DOCTYPE svg PUBLIC "-//W3C//DTD SVG 1.1//EN" "http://www.w3.org/Graphics/SVG/1.1/DTD/svg11.dtd">
<svg version="1.1" id="Layer_1" xmlns="http://www.w3.org/2000/svg" xmlns:xlink="http://www.w3.org/1999/xlink" x="0px" y="0px"
	 width="512px" height="512px" viewBox="0 0 512 512" enable-background="new 0 0 512 512" xml:space="preserve">
<g>
	<path fill-rule="evenodd" clip-rule="evenodd" fill="#454646" d="M238.188,244.253c0,26.438,0,52.134,0,78.712
		c-9.862-19.097-12.993-39.384-13.922-59.803c-0.553-12.01-2.484-20.007-15.59-24.385c-5.747-1.912-12.554-10.875-12.844-16.912
		c-0.76-16.031-0.602-32.859,3.543-48.188c6.413-23.71,16.622-46.379,24.854-69.619c3.131-8.859,6.121-17.943,7.604-27.178
		c2.512-15.638-5.588-26.522-21.301-26.007c-14.652,0.469-29.165,4.828-43.781,7.182c-5.887,0.946-11.896,1.115-17.85,1.631
		c0.778-6.591,0.328-13.631,2.55-19.688c8.203-22.368,19.491-28.79,42.085-20.56c18.206,6.629,35.644,16.098,52.219,26.26
		c13.556,8.307,15.777,19.35,8.69,34.088c-7.388,15.347-15.872,30.196-24.385,44.962c-13.172,22.856-17.935,47.325-15.347,73.388
		c1.312,13.266,13.5,27.094,27.432,30.731c13.086,3.422,23.634-1.838,32.146-11.241c7.622-8.418,7.172-16.181-0.225-22.743
		c-6.263-5.55-17.354-5.109-23.625,1.584c-3.422,3.647-5.457,8.578-8.766,12.366c-2.176,2.465-5.906,5.793-8.223,5.306
		c-2.54-0.534-5.24-4.706-6.168-7.8c-5.194-17.269,6.402-32.635,24.469-32.419c5.344,0.065,10.969,0.919,15.938,2.804
		c20.006,7.603,25.134,27.684,11.222,43.94C267.963,233.443,253.994,241.515,238.188,244.253z"/>
	<path fill-rule="evenodd" clip-rule="evenodd" fill="#454646" d="M379.234,361.946c-1.425-22.274-14.728-37.162-37.855-41.794
		c-3.207-0.646-7.734-3.787-8.382-6.544c-3.516-15-14.128-23.634-26.56-29.962c-18.619-9.469-39.02-12.31-59.605-13.96
		c-1.801,15.778-1.304,14.785,12.516,18.957c14.016,4.228,28.246,9.496,40.48,17.287c11.879,7.575,10.902,20.034,0.132,29.372
		c-3.516,3.047-7.632,5.682-11.888,7.537c-33.891,14.766-68.494,14.025-103.2,3.525c-6.431-1.95-12.618-5.775-18-9.929
		c-12.122-9.337-12.337-21.665-0.234-30.956c6.216-4.763,13.641-8.306,21.01-11.081c8.747-3.291,18.019-5.175,27.665-7.828
		c-0.815-16.088-1.087-17.175-15.637-13.472c-15.685,3.984-31.088,9.534-46.031,15.778c-14.859,6.215-21.264,18.271-21.047,34.743
		c0.488,37.426,0.57,74.869-0.02,112.294c-0.3,18.976,7.95,32.484,23.906,40.781c51.094,26.541,102.629,25.05,153.562-0.394
		c13.238-6.609,22.068-18.188,22.285-33.834c0.121-8.176,3.309-10.004,10.865-10.979c13.05-1.678,26.044-7.078,29.644-20.597
		C377.051,395.059,380.266,378.118,379.234,361.946z M352.122,398.415c-0.704,7.284-7.021,10.922-13.425,9.197
		c-2.794-0.75-5.475-7.435-5.625-11.522c-0.639-16.612-0.263-33.262-0.263-50.756c14.241-0.778,19.65,2.025,20.729,14.315
		C354.673,372.438,353.369,385.543,352.122,398.415z"/>
</g>
</svg>
