<?xml version="1.0" encoding="utf-8"?>
<!-- Generator: Adobe Illustrator 16.0.4, SVG Export Plug-In . SVG Version: 6.00 Build 0)  -->
<!DOCTYPE svg PUBLIC "-//W3C//DTD SVG 1.1//EN" "http://www.w3.org/Graphics/SVG/1.1/DTD/svg11.dtd">
<svg version="1.1" id="Layer_1" xmlns="http://www.w3.org/2000/svg" xmlns:xlink="http://www.w3.org/1999/xlink" x="0px" y="0px"
	 width="512px" height="512px" viewBox="0 0 512 512" enable-background="new 0 0 512 512" xml:space="preserve">
<g>
	<polygon fill-rule="evenodd" clip-rule="evenodd" fill="#454646" points="377.956,366.32 267.333,261.997 267.283,414.054 
		306.979,389.231 340.09,466 365.771,454.926 332.662,378.153 	"/>
	<g>
		<path fill="#454646" d="M134.036,274.018c-9.049,2.99-18.888-1.981-21.865-11.037l-1.083-3.286
			c-2.978-9.048,1.985-18.9,11.041-21.861l26.316-8.675c9.052-2.969,18.899,1.994,21.869,11.042l1.079,3.29
			c2.981,9.04-1.99,18.888-11.038,21.87L134.036,274.018z"/>
		<path fill="#454646" d="M113.499,200.768c-9.311-2.026-15.274-11.292-13.256-20.606l0.742-3.376
			c2.022-9.31,11.3-15.274,20.603-13.256l40.622,8.831c9.311,2.03,15.273,11.296,13.248,20.61l-0.73,3.384
			c-2.026,9.298-11.296,15.274-20.61,13.244L113.499,200.768z"/>
		<path fill="#454646" d="M166.82,281.856c6.57-6.895,17.587-7.162,24.481-0.587l2.506,2.383c6.899,6.571,7.166,17.6,0.591,24.502
			L180.052,323.2c-6.567,6.878-17.588,7.161-24.486,0.578l-2.502-2.383c-6.899-6.571-7.162-17.592-0.591-24.486L166.82,281.856z"/>
		<path fill="#454646" d="M204.147,321.851c2.908-9.085,12.711-14.138,21.788-11.247l3.298,1.038
			c9.08,2.883,14.13,12.669,11.229,21.75l-2.087,6.505c-2.904,9.081-12.707,14.134-21.784,11.247l-3.293-1.05
			c-9.085-2.879-14.135-12.67-11.234-21.743L204.147,321.851z"/>
	</g>
	<path fill="#454646" d="M201.474,104.336V67.558h114.668v63.952h63.951v151.446l21.558,21.558v-173.3
		c0-8.469-4.897-20.294-10.886-26.287l-48.041-48.042C336.735,50.897,324.906,46,316.437,46H195.317
		c-8.47,0-15.401,6.927-15.401,15.397v21.382L201.474,104.336z"/>
	<path fill="#454646" d="M399.829,358.396c-3.149,0-6.304-1.202-8.711-3.609L130.685,94.349c-4.811-4.807-4.811-12.608,0-17.419
		c4.808-4.812,12.608-4.812,17.42,0l260.437,260.437c4.812,4.811,4.812,12.612,0,17.419
		C406.134,357.194,402.979,358.396,399.829,358.396z"/>
</g>
</svg>
