<?xml version="1.0" encoding="utf-8"?>
<!-- Generator: Adobe Illustrator 19.2.1, SVG Export Plug-In . SVG Version: 6.00 Build 0)  -->
<svg version="1.1" id="Work_area" xmlns="http://www.w3.org/2000/svg" xmlns:xlink="http://www.w3.org/1999/xlink" x="0px" y="0px"
	 width="512px" height="512px" viewBox="0 0 512 512" enable-background="new 0 0 512 512" xml:space="preserve">
<path fill="#454646" d="M75,234.5l82.8,43.1c0.5,0.3,1.2,0.3,1.7,0l44.1-21.9c1.2-0.6,1.4-2.1,0.5-3.1l-42.6-43.1
	c-0.7-0.7-0.7-1.9-0.1-2.6l14.2-15.9c1.4-1.5-0.3-3.9-2.2-3L75.1,231C73.6,231.6,73.5,233.7,75,234.5z M373.3,280
	c0.2,0.2,0.4,0.2,0.6,0.2l94.5-16.4c0.4-0.1,0.5-0.4,0.5-0.5c0-0.1,0.1-0.4-0.2-0.7L328.7,141.2c-0.1-0.1-0.3-0.2-0.5-0.2l-87.2,4.9
	c-0.4,0-0.5,0.3-0.6,0.4c0,0.1-0.1,0.4,0.1,0.7L373.3,280z M153.7,286.6c-0.1-0.6-0.5-1.1-1-1.4L64,240.5c-0.9-0.4-1.9-0.2-2.5,0.7
	l-37.2,57.2c-0.6,1-0.3,2.3,0.8,2.8l138.4,68.4c1.4,0.7,3-0.5,2.7-2L153.7,286.6z M476.4,272.5c-0.1-0.6-0.6-1-1.2-1
	c-0.1,0-0.1,0-0.2,0l-100.3,18c-0.4,0.1-0.8,0.3-0.9,0.7l-33.8,74.5c-0.2,0.4-0.1,0.9,0.2,1.3c0.3,0.4,0.8,0.6,1.2,0.5L487,338
	c0.7-0.1,1.1-0.8,1-1.5L476.4,272.5z M212.9,261.1c-0.6-0.6-1.5-0.7-2.3-0.3l-46.5,24.8c-0.7,0.4-1.1,1.2-1,2l12.9,81.8
	c0.2,1.3,1.7,2,2.8,1.4l89.4-50.5c1.1-0.6,1.3-2.1,0.4-3L212.9,261.1z M363.2,283.9L230.9,151.2c-0.4-0.4-1-0.7-1.6-0.7h0
	c-0.6,0-1.2,0.2-1.6,0.7l-52.6,54.5c-0.8,0.9-0.8,2.3,0,3.1l151.1,153.5c0.5,0.5,1.2,0.8,2,0.6c0.7-0.1,1.3-0.6,1.6-1.3l33.8-75.3
	C364,285.6,363.8,284.6,363.2,283.9z"/>
</svg>
