<?xml version="1.0" encoding="utf-8"?>
<!-- Generator: Adobe Illustrator 16.0.4, SVG Export Plug-In . SVG Version: 6.00 Build 0)  -->
<!DOCTYPE svg PUBLIC "-//W3C//DTD SVG 1.1//EN" "http://www.w3.org/Graphics/SVG/1.1/DTD/svg11.dtd">
<svg version="1.1" id="Layer_1" xmlns="http://www.w3.org/2000/svg" xmlns:xlink="http://www.w3.org/1999/xlink" x="0px" y="0px"
	 width="512px" height="512px" viewBox="0 0 512 512" enable-background="new 0 0 512 512" xml:space="preserve">
<path fill="#454646" d="M297.875,261.449c-0.344-3.34-0.702-6.823-1.053-10.519l151.385-36.56l-1.011-1.75
	c-0.36-0.636-0.849-1.509-1.379-2.357c-18.133-28.982-45.052-50.23-82.279-64.962c-28.157-11.143-59.986-19.157-97.288-24.496
	c-7.023-1.003-12.391-3.218-15.75-10.759c-6.6-14.801-13.362-29.234-20.508-44.509c-2.888-6.15-5.791-12.357-8.72-18.659
	l-0.407-0.881l-0.906,0.343c-3.377,1.281-6.916,2.545-10.547,3.847c-8.671,3.099-17.635,6.309-26.371,10.334
	c-17.603,8.104-32.604,15.915-45.859,23.875c-4.575,2.753-6.777,5.229-7.137,8.031c-0.375,2.933,1.297,6.04,5.57,10.4
	c6.144,6.249,12.57,12.407,18.786,18.361l3.271,3.141c10.579,10.143,23.442,24.238,29.128,43.378
	c8.973,30.206,3.688,59.615-16.143,89.915c-19.185,29.295-44.847,52.364-73.959,77.353c-9.895,8.496-18.197,17.533-24.666,26.861
	c-12.195,17.582-10.865,34.133,4.07,50.594c11.9,13.112,27.235,22.994,48.264,31.098c36.471,14.062,74.531,18.834,107.199,21.673
	c5.139,0.444,9.201,0.799,12.398,0.799c10.686,0,12.676-3.984,20.049-18.802l0.214-0.42
	c26.665-53.538,38.599-108.957,35.466-164.722C299.318,275.397,298.617,268.623,297.875,261.449z M262.986,425.763
	c-2.846,7.599-5.105,12.546-8.156,19.193c-0.905,1.982-1.884,4.12-2.977,6.534c-1.697,3.769-4.992,6.016-8.802,6.016l0,0
	c-0.237,0-0.474-0.008-0.718-0.024c-11.348-0.808-38.697-4.238-58.82-7.341L262.986,425.763z M136.555,355.984l-57.857,16.873
	c12.406-26.021,31.926-40.989,51.413-53.13L136.555,355.984z M343.406,225.975c18.256-16.787,31.764-35.287,41.201-56.43
	c19.617,10.816,33.338,21.71,48.167,38.277c-15.71,2.671-30.687,5.967-45.197,9.156
	C373.425,220.093,358.823,223.303,343.406,225.975z M299.661,195.398l75.998-27.595l1.158,1.468l-46.233,59.224L299.661,195.398z
	 M252.188,266.723l32.889-10.759l2.839,33.187L252.188,266.723z M286.528,294.913l-48.836,26.412l7.187-49.97L286.528,294.913z
	 M258.387,420.065L168.179,446.8l30.491-41.201L258.387,420.065z M282.254,361.78l-2.668,9.127
	c-4.135,14.181-8.051,27.579-12.25,41.046c-0.213,0.677-2.586,2.047-4.316,2.039c-20.294-3.577-38.443-9.164-55.387-17.064
	L282.254,361.78z M184.533,405.371l-25.148,39.867l-3.621-1.554c-12.603-5.404-34.707-14.874-41.2-18.169
	c11.021-3.087,22.269-6.367,34.136-9.829C160.471,412.251,172.608,408.711,184.533,405.371z M179.321,395.708l-71.129,25.091
	l-0.954-1.248l40.075-49.99L179.321,395.708z M168.726,75.621L218.263,55.2l8.728,29.789L168.726,75.621z M248.035,162.305
	l-6.591-34.316l51.813,9.454L248.035,162.305z M254.283,171.27l48.33-29.993l1.967,1.322l-18.818,43.974L254.283,171.27z
	 M219.511,340.286l-25.776,51.193l-36.396-29.993L219.511,340.286z M150.046,347.599c-5.587-10.587-7.081-21.302-4.723-33.554
	c0.302-1.565,1.721-3.516,3.042-4.176c7.537-3.781,15.311-7.423,22.823-10.942l6.917-3.247l0.881,0.865L150.046,347.599z
	 M194.518,229.066l10.897,6.579l-20.669,15.56L194.518,229.066z M238.565,116.141c-3.825-0.58-7.268-1.097-10.71-1.64
	c-3.549-0.555-7.09-1.13-11.077-1.778l-3.394-0.551l19.446-13.981l9.78,18.565L238.565,116.141z M233.94,216.777l11.794-32.583
	l25.059,12.374L233.94,216.777z M165.943,346.971l26.364-54.606l26.526,36.11L165.943,346.971z M215.171,246.669
	c0.595,0.738,1.272,1.57,1.819,2.455c3.898,6.338,5.979,10.547,5.065,13.308c-0.905,2.724-4.78,4.714-11.624,7.439
	c-9.078,3.622-18.279,7.443-27.18,11.139c-2.332,0.966-4.656,1.937-6.998,2.903L215.171,246.669z M229.062,177.065l-30.645,27.856
	V167.93L229.062,177.065z M234.576,187.763l-16.982,39.398l-16.607-12.451l32.244-27.722L234.576,187.763z M200.203,154.642
	l32.326-27.305l1.941,0.604l3.907,37.693L200.203,154.642z M225.024,320.738l-25.458-34.121l35.524-13.879l-7.554,47.347
	L225.024,320.738z M267.359,211.202l0.987,1.052l-37.775,48.183l-6.681-25.091L267.359,211.202z M192.846,107.748
	c-6.664-6.652-12.848-13.521-18.835-20.156c-1.198-1.338-2.39-2.655-3.548-3.94l55.67,10.257c-1.785,1.028-3.555,2.06-5.309,3.083
	c-6.982,4.07-13.582,7.913-20.49,11.392c-0.709,0.359-1.827,0.562-3.06,0.562C195.375,108.946,193.555,108.453,192.846,107.748z
	 M139.173,95.067c-0.245-1.994,8.287-7.113,13.394-10.172c1.664-0.999,3.312-1.986,4.805-2.924
	c3.793,4.739,7.26,9.071,10.611,13.263l8.558,10.698l-0.155,0.277c-11.347-2.708-22.416-5.881-35.793-10.262
	C139.58,95.643,139.197,95.296,139.173,95.067z M180.757,136.774c-8.564-10.286-16.901-19.335-24.854-26.983
	C175.684,114.848,177.959,118.347,180.757,136.774z M223.442,125.281l-30.254,22l-10.931-29.822L223.442,125.281z M161.58,284.753
	c8.858-15.192,23.271-24.385,37.254-33.305l0.056-0.037l0.489,0.571L161.58,284.753z M280.182,356.388l-68.607,27.889l20.727-47.155
	L280.182,356.388z M320.836,232.023l-76.283,24.353l43.362-49.807L320.836,232.023z M299.955,183.159l12.014-41.67l58.111,19.679
	l-0.131,0.293L299.955,183.159z M137.639,365.667l-34.855,49.44c-11.94-6.808-22.569-22.783-23.809-35.777L137.639,365.667z
	 M288.372,301.337l-3.997,50.944l-45.238-21.351L288.372,301.337z"/>
</svg>
