<?xml version="1.0" encoding="utf-8"?>
<!-- Generator: Adobe Illustrator 19.2.1, SVG Export Plug-In . SVG Version: 6.00 Build 0)  -->
<svg version="1.1" id="Work_area" xmlns="http://www.w3.org/2000/svg" xmlns:xlink="http://www.w3.org/1999/xlink" x="0px" y="0px"
	 width="512px" height="512px" viewBox="0 0 512 512" enable-background="new 0 0 512 512" xml:space="preserve">
<g>
	<g>
		<path fill="#454646" d="M120,309.4L45,342l81-15.9C123.6,320.7,121.5,315.2,120,309.4z M151.1,202.3L66,163.5l71.5,53.7
			C141.6,211.8,146.1,206.8,151.1,202.3z M116.2,281.2c0-0.3,0-0.5,0-0.8L36,296.7l81.5,1.3C116.6,292.5,116.2,286.9,116.2,281.2z
			 M132.5,224.5l-85.8-19.1l77.2,35.8C126.3,235.4,129.2,229.8,132.5,224.5z M120.4,251.3l-83.9-0.8l80.3,18.4
			C117.6,262.8,118.8,256.9,120.4,251.3z M200,177l-71.6-81l49.3,88.6C184.7,181.2,192.2,178.7,200,177z M200.5,176.8
			c7.2-1.5,14.7-2.4,22.4-2.4h65.9c8.8,0,17.3,1.1,25.4,3.1l34.2-102l-56.2,93.9l12.4-108.8l-35.4,103.6l-10.4-109L245.6,164
			L212.7,59.6l9.8,109l-53.9-95.3L200.5,176.8z M376.1,219.9l72.6-51.7l-85.6,36.5C367.9,209.4,372.2,214.5,376.1,219.9z
			 M395.1,272.3l80.9-16.4l-83.9-1.3C393.6,260.3,394.6,266.3,395.1,272.3z M389,244.5l78-33.9l-86,16.9
			C384.1,232.9,386.8,238.6,389,244.5z M358.1,200.1l63.9-69.7l-81.6,57.4C346.7,191.4,352.7,195.5,358.1,200.1z M336.9,186
			l51.2-86.8l-73,78.6C322.7,179.7,330,182.5,336.9,186z M174.3,186.2l-80.7-59.7l62.5,71.6C161.7,193.5,167.8,189.5,174.3,186.2z
			 M380.3,281.2c0-50.5-41.1-91.6-91.6-91.6h-65.9c-50.5,0-91.6,41.1-91.6,91.6c0,42.2,28.7,77.8,67.7,88.4v32.6
			c0,8.6,5.2,16,12.5,19.4v-10.4h5v11.9c1.2,0.2,2.5,0.4,3.8,0.4c1.6,0,3.1-0.2,4.5-0.5v-11.8h5v10c7-3.5,11.8-10.7,11.8-19v-29.5
			H273v29.5c0,8.6,5.2,16,12.5,19.4v-10.4h5v11.9c1.2,0.2,2.5,0.4,3.8,0.4c1.6,0,3.1-0.2,4.5-0.5v-11.8h5v10
			c7-3.5,11.8-10.7,11.8-19v-33.5C353,357.3,380.3,322.4,380.3,281.2z M341.9,298.6c0,35-28.4,63.5-63.5,63.5h-45.2
			c-35,0-63.5-28.4-63.5-63.5v-1.1c0-21.2,10.4-40,26.4-51.5c-2.9-2.2-4.7-5.7-4.7-9.6c0-6.7,5.5-12.2,12.2-12.2
			c6.7,0,12.2,5.5,12.2,12.2c0,0,0,0.1,0,0.1c5.5-1.6,11.4-2.4,17.4-2.4h45.2c6.3,0,12.4,0.9,18.1,2.6c0-0.1,0-0.2,0-0.3
			c0-6.7,5.5-12.2,12.2-12.2s12.2,5.5,12.2,12.2c0,4.1-2,7.7-5.1,9.9c15.8,11.5,26,30.2,26,51.2V298.6z M345,371.8l73.3,54.3
			L360.6,360C355.8,364.4,350.6,368.4,345,371.8z M319,383.5l64.6,73.1l-45.1-81.1C332.4,378.8,325.8,381.5,319,383.5z M367.4,353.3
			l78.6,35.9l-67.3-50.5C375.3,343.8,371.6,348.7,367.4,353.3z M393.6,301.3l81.9,0.8l-80-18.3C395.3,289.8,394.7,295.6,393.6,301.3
			z M131.3,335.9l-68,48.5l78.7-33.6C138.1,346.2,134.5,341.2,131.3,335.9z M384.1,329.1l81.2,18l-74.5-34.6
			C389,318.3,386.8,323.8,384.1,329.1z M123.9,453.4l65.8-70.8c-6.7-2.2-13-5-19.1-8.4L123.9,453.4z M148.8,358L90,422.1l73.9-52
			C158.5,366.5,153.5,362.4,148.8,358z M244.3,285.8c0-5.4-4.4-9.9-9.9-9.9c-5.4,0-9.9,4.4-9.9,9.9c0,5.4,4.4,9.9,9.9,9.9
			C239.9,295.7,244.3,291.3,244.3,285.8z M277.5,276c-5.4,0-9.9,4.4-9.9,9.9s4.4,9.9,9.9,9.9c5.4,0,9.9-4.4,9.9-9.9
			S283,276,277.5,276z M256,301.4c-10,0-18.1,8.1-18.1,18.1c0,10,8.1,18.1,18.1,18.1s18.1-8.1,18.1-18.1
			C274.1,309.5,266,301.4,256,301.4z M257.1,267.1l-26.7-17l-11.2-0.7l34.8,26.8l6.1,0.1l36-27l-10.6,0.2L257.1,267.1z"/>
	</g>
</g>
</svg>
