<?xml version="1.0" encoding="utf-8"?>
<!-- Generator: Adobe Illustrator 18.1.0, SVG Export Plug-In . SVG Version: 6.00 Build 0)  -->
<svg version="1.1" id="Ebene_1" xmlns="http://www.w3.org/2000/svg" xmlns:xlink="http://www.w3.org/1999/xlink" x="0px" y="0px"
	 width="512px" height="512px" viewBox="0 0 512 512" enable-background="new 0 0 512 512" xml:space="preserve">
<g>
	<path fill="#454646" d="M389.6,110.5v45.3c0,16.3-13.4,29.7-29.7,29.7H348c-16.3,0-29.7-13.4-29.7-29.7v-45.3H188.5v45.3
		c0,16.3-13.4,29.7-29.7,29.7h-11.9c-16.3,0-29.7-13.4-29.7-29.7v-45.3H66V446h380V110.5H389.6z M421.5,420.8h-331V208.9h331V420.8z
		"/>
	<path fill="#454646" d="M135,82.3c0-9,7.3-16.3,16.3-16.3h3c9,0,16.3,7.3,16.3,16.3v69.8c0,9-7.3,16.3-16.3,16.3h-3
		c-9,0-16.3-7.3-16.3-16.3V82.3z"/>
	<path fill="#454646" d="M336.2,82.3c0-9,7.3-16.3,16.3-16.3h3c9,0,16.3,7.3,16.3,16.3v69.8c0,9-7.4,16.3-16.3,16.3h-3
		c-9,0-16.3-7.3-16.3-16.3V82.3z"/>
</g>
</svg>
