<?xml version="1.0" encoding="utf-8"?>
<!-- Generator: Adobe Illustrator 16.0.4, SVG Export Plug-In . SVG Version: 6.00 Build 0)  -->
<!DOCTYPE svg PUBLIC "-//W3C//DTD SVG 1.1//EN" "http://www.w3.org/Graphics/SVG/1.1/DTD/svg11.dtd">
<svg version="1.1" id="Layer_1" xmlns="http://www.w3.org/2000/svg" xmlns:xlink="http://www.w3.org/1999/xlink" x="0px" y="0px"
	 width="512px" height="512px" viewBox="0 0 512 512" enable-background="new 0 0 512 512" xml:space="preserve">
<g>
	<path fill="#454646" d="M170.977,150.334c0,0.549,14.818,15.831,32.927,33.959c24.126,24.146,33.459,32.886,34.911,32.686
		c1.943-0.267,1.985-1.124,2.237-47.028c0.256-46.283,0.238-46.766-1.775-47.842c-1.339-0.716-8.617-0.983-21.292-0.783
		l-19.26,0.309l-13.874,13.849C177.221,143.102,170.977,149.785,170.977,150.334z"/>
	<path fill="#454646" d="M170.212,241.958c42.503,0,47.433-0.164,47.98-1.582c0.438-1.146-8.721-10.917-32.955-35.156
		c-18.46-18.467-34.228-33.574-35.042-33.574c-0.811,0-7.834,6.343-15.601,14.099l-14.126,14.098v19.872
		c0,14.131,0.342,20.21,1.188,21.057C122.549,241.661,134.691,241.958,170.212,241.958z"/>
	<path fill="#454646" d="M210.446,114.148c1.767,0.872,6.847,1.047,20.032,1.047h13.749l3.006,0.041v55.901v55.897l3.072,3.5
		c1.687,1.926,3.828,3.503,4.752,3.503c0.922,0,3.438-1.808,5.591-4.011l3.917-4.013l0.189-55.159l0.191-55.167l18.379-0.267
		c16.684-0.245,18.378-0.431,18.378-1.989c0-0.946-10.19-11.905-22.646-24.352c-17.841-17.823-23.049-22.503-24.537-22.028
		c-2.913,0.921-46.195,44.807-45.691,46.324C208.933,113.692,209.411,113.944,210.446,114.148z"/>
	<path fill="#454646" d="M272.567,121.737c-0.341,0.134-0.61,0.542-0.82,1.692c-0.062,0.085-0.111,0.171-0.145,0.264
		c-0.096,0.252-0.182,1.722-0.254,4.097c-0.286,5.841-0.343,17.241-0.347,39.351c-0.101,18.801,0.003,38,0.371,44.376
		c0.089,3.117,0.183,4.92,0.289,5.024c0.36,0.363,1.128,0.66,1.698,0.66c0.571,0,15.649-14.588,33.506-32.415
		c21.436-21.4,32.198-32.805,32.456-34.4l0.013-0.029l-0.003-0.008l0.003-0.022c0-1.317-4.893-6.895-13.697-15.615l-13.695-13.574
		h-18.906C282.643,121.137,273.43,121.407,272.567,121.737z"/>
	<path fill="#454646" d="M227.357,263.748l3.501-3.076c4.376-3.845,4.506-6.795,0.452-10.209l-3.046-2.561h-56.868h-56.87v-17.745
		c0-9.76-0.27-18.452-0.604-19.312c-0.329-0.861-1.308-1.566-2.175-1.566c-2.492,0-45.748,43.611-45.748,46.12
		c0,1.432,7.086,9.096,22.242,24.043c12.231,12.064,22.616,21.936,23.07,21.936c2.746,0,3.214-2.92,3.214-20.002v-17.627h56.416
		H227.357z"/>
	<path fill="#454646" d="M349.225,150.367c0,0.004-0.004,0.012-0.004,0.012l-39.106,39.098l-39.113,39.104v0.99v5.04
		c0,3.313,0.297,6.322,0.66,6.687c0.36,0.364,2.926,0.661,5.7,0.661h5.036l39.11-39.118c21.51-21.516,39.566-39.117,40.121-39.117
		c0.554,0,6.574,5.582,13.374,12.406c8.765,8.799,12.94,12.327,14.344,12.132c1.928-0.269,1.99-1.129,2.242-32.346
		c0.189-23.019-0.058-32.452-0.874-33.436c-0.933-1.124-6.911-1.321-33.426-1.109c-30.74,0.249-32.306,0.353-32.647,2.13
		c-0.252,1.317,3.331,5.562,12.114,14.369L349.225,150.367z"/>
	<path fill="#454646" d="M361.657,172.637c-2.435,0-66.886,64.021-66.886,66.44c0,0.858,0.297,1.855,0.66,2.22
		c0.362,0.364,21.665,0.661,47.337,0.661c34.985,0,46.975-0.297,47.868-1.188c0.842-0.843,1.188-6.796,1.188-20.475v-19.285
		l-14.066-14.188C368.761,177.754,362.956,172.637,361.657,172.637z"/>
	<path fill="#454646" d="M122.048,187.169c1.109,0.424,5.281-3.095,14.12-11.915c6.906-6.889,13.207-12.521,14.009-12.521
		c0.796,0,19.302,17.823,41.113,39.614c23.719,23.691,33.276,33.213,38.004,37.042l1.598,1.593l0.065-0.004l0.121,0.118l0.53-0.037
		c1.427,0.854,2.253,0.899,3.324,0.899c5.208,0,6.358-1.336,6.358-7.378l0.002-4.998l-39.614-38.97
		c-21.789-21.431-39.614-39.514-39.614-40.189c0-0.672,5.236-6.257,11.634-12.409c13.129-12.621,13.764-13.43,12.092-15.445
		c-0.991-1.19-6.236-1.432-31.339-1.432c-18.889,0-30.868,0.386-32.066,1.023c-1.832,0.983-1.916,2.397-1.916,32.716
		C120.469,182.949,120.649,186.631,122.048,187.169z"/>
	<path fill="#454646" d="M390.474,270.792c-0.976-0.81-14.585-1.051-48.776-0.865l-47.424,0.256l-0.297,2.094
		c-0.23,1.614,7.381,9.618,33.176,34.897c18.412,18.042,34.165,32.809,35.006,32.815c0.842,0.008,7.86-6.371,15.599-14.176
		l14.066-14.19v-19.857C391.823,276.202,391.531,271.667,390.474,270.792z"/>
	<path fill="#454646" d="M134.02,325.294c10.035,10.127,14.221,13.72,15.994,13.72c3.392,0,67.723-63.88,67.302-66.83
		c-0.083-0.575-0.195-0.983-1.477-1.277c-0.253-0.274-0.55-0.494-0.872-0.62c-0.861-0.329-21.776-0.597-46.476-0.597
		c-25.366,0-36.74,0.077-42.001,0.493h-5.525l-0.056,4.305c-0.351,2.769-0.44,7.767-0.44,17.267v16.686l-0.042,3.139L134.02,325.294
		z"/>
	<path fill="#454646" d="M445.861,255.042c-0.298-0.931-10.55-11.382-22.783-23.224c-15.421-14.921-22.716-21.345-23.778-20.937
		c-1.31,0.501-1.536,3.27-1.536,18.803v1.438v16.731l-9.868,0.049h-46.78h-56.651l-3.266,3.161c-1.875,1.823-2.887,3.321-3.069,4.78
		c-0.119,0.234-0.197,0.438-0.197,0.568c0,0.144,0.089,0.363,0.234,0.619c0.229,1.229,1.036,2.482,2.427,3.938l2.661,2.779h1.681
		h55.575h0.839h56.414v17.249v1.402c0,10.257,0.298,18.948,0.662,19.308c0.364,0.368,1.342,0.661,2.174,0.661
		c1.539,0,43.038-40.603,44.827-43.859C445.962,257.535,446.158,255.977,445.861,255.042z"/>
	<path fill="#454646" d="M391.221,325.725c-0.33-0.864-1.241-1.566-2.02-1.566s-7.298,5.793-14.48,12.877l-12.847,12.666
		c-0.362-0.212-1.288-0.995-2.707-2.275l-37.668-37.625c-38.162-38.123-40.334-40.111-43.759-40.111
		c-6.151,0-6.737,0.59-6.737,6.787v5.585l39.608,39.573l39.609,39.577l-12.374,12.506c-11.788,11.912-13.925,15.011-11.137,16.136
		c0.681,0.274,14.911,0.534,31.618,0.579c25.893,0.066,30.427-0.123,31.862-1.407h0.15v-0.148c1.282-1.432,1.484-6,1.484-31.535
		C391.823,340.813,391.554,326.586,391.221,325.725z"/>
	<path fill="#454646" d="M240.103,389.322c0.152-0.151,0.288-0.642,0.408-1.503c0.056-0.163,0.104-0.337,0.156-0.526
		c0.102-0.386,0.2-2.668,0.286-6.36c0.243-7.17,0.337-19.476,0.337-39.039c0-41.006-0.174-46.312-1.546-46.84
		c-1.089-0.416-11.192,8.851-34.165,31.339c-17.938,17.561-32.894,32.782-33.231,33.821c-0.48,1.48,2.482,4.966,13.682,16.095
		l14.297,14.201h19.291C233.306,390.51,239.26,390.165,240.103,389.322z"/>
	<path fill="#454646" d="M163.058,361.327l-0.003-0.011l0.009-0.022l39.156-39.165l39.176-39.184l-0.284-6.023
		c0.08-1.332,0.03-2.449-0.158-3.377l-0.159-3.362l-3.259-0.167c-0.798-0.167-1.738-0.212-2.842-0.145l-5.616-0.293l-39.45,39.406
		l-39.451,39.406l-12.64-12.613c-8.65-8.624-13.339-12.609-14.855-12.609h-2.214v33.094c0,14.688,0.093,23.461,0.353,28.341
		c0.077,1.93,0.16,3.121,0.249,3.351c0.011,0.026,0.026,0.056,0.039,0.082c0.162,1.176,0.358,1.729,0.598,1.825
		c0.681,0.278,15.721,0.427,33.424,0.331c31.365-0.171,32.19-0.227,32.461-2.156c0.195-1.406-3.334-5.581-12.137-14.351
		L163.058,361.327z"/>
	<path fill="#454646" d="M282.27,396.451h-17.211v-55.029c0-35.25,0.008-48.654-0.989-54.855v-1.87l-0.588-0.698
		c-0.616-1.914-1.479-2.842-2.679-4.159c-3-3.292-5.9-2.791-9.99,1.736l-3.579,3.963v55.435v55.435l-2.995,0.044h-13.265
		c-12.769,0-17.763,0.179-19.521,1.039c-1.052,0.208-1.531,0.468-1.64,0.802c-0.262,0.779,9.042,10.832,22.225,24.014
		c12.819,12.821,23.445,22.674,24.458,22.674c1.002,0,11.552-9.656,23.991-21.954c16.332-16.143,22.207-22.562,22.207-24.262v-2.312
		h-18.818H282.27z"/>
	<path fill="#454646" d="M313.448,389.085c5.21-3.492,26.878-25.769,26.878-27.769c0-2.954-64.128-66.872-67.09-66.872h-2.233
		v46.996c0,43.707,0.121,47.062,1.731,48.001c2.356,1.369,35.575,1.384,39.88,0.078h0.4L313.448,389.085z"/>
</g>
</svg>
