<?xml version="1.0" encoding="utf-8"?>
<!-- Generator: Adobe Illustrator 16.0.4, SVG Export Plug-In . SVG Version: 6.00 Build 0)  -->
<!DOCTYPE svg PUBLIC "-//W3C//DTD SVG 1.1//EN" "http://www.w3.org/Graphics/SVG/1.1/DTD/svg11.dtd">
<svg version="1.1" id="Layer_1" xmlns="http://www.w3.org/2000/svg" xmlns:xlink="http://www.w3.org/1999/xlink" x="0px" y="0px"
	 width="512px" height="512px" viewBox="0 0 512 512" enable-background="new 0 0 512 512" xml:space="preserve">
<g>
	<path fill="#454646" d="M377.641,221.481h-21.366l-8.222,49.312h19.726c14.793-1.65,27.947-6.582,29.588-34.52
		C397.366,226.413,389.152,221.481,377.641,221.481z"/>
	<path fill="#454646" d="M256,131.069C123.446,131.069,16,187,16,256c0,68.991,107.446,124.931,240,124.931
		c132.544,0,240-55.939,240-124.931C496,187,388.544,131.069,256,131.069z M150.794,295.45h-29.588l-6.581,34.519H83.397
		l26.297-133.153h60.823c26.297,1.65,39.451,14.803,39.451,37.81C209.969,274.085,178.741,297.091,150.794,295.45z M269.152,295.45
		l11.504-60.825c1.641-8.212,1.641-13.144-9.862-13.144h-24.656l-14.794,73.969h-31.237l26.307-133.153h31.228l-6.572,34.519h29.588
		c26.297,1.65,36.158,14.803,32.878,31.238l-11.512,67.396H269.152z M371.068,295.45h-29.587l-6.583,34.519h-31.227l26.297-133.153
		h60.825c26.297,1.65,39.449,14.803,39.449,37.81C430.243,274.085,399.007,297.091,371.068,295.45z"/>
	<path fill="#454646" d="M157.366,221.481H136l-8.222,49.312h19.724c14.795-1.65,27.948-6.582,29.589-34.52
		C177.091,226.413,168.878,221.481,157.366,221.481z"/>
</g>
</svg>
