<?xml version="1.0" encoding="utf-8"?>
<!-- Generator: Adobe Illustrator 16.0.4, SVG Export Plug-In . SVG Version: 6.00 Build 0)  -->
<!DOCTYPE svg PUBLIC "-//W3C//DTD SVG 1.1//EN" "http://www.w3.org/Graphics/SVG/1.1/DTD/svg11.dtd">
<svg version="1.1" id="Layer_1" xmlns="http://www.w3.org/2000/svg" xmlns:xlink="http://www.w3.org/1999/xlink" x="0px" y="0px"
	 width="512px" height="512px" viewBox="0 0 512 512" enable-background="new 0 0 512 512" xml:space="preserve">
<g>
	<polygon fill-rule="evenodd" clip-rule="evenodd" fill="#454646" points="405.309,319.054 242.233,165.279 242.163,389.42 
		300.674,352.827 349.484,466 387.345,449.669 338.534,336.494 	"/>
	<g>
		<path fill="#454646" d="M129.504,224.872c-8.632,1.863-17.215-3.67-19.072-12.297l-0.683-3.139
			c-1.862-8.628,3.671-17.211,12.307-19.072l25.088-5.427c8.632-1.862,17.215,3.671,19.076,12.298l0.674,3.13
			c1.862,8.637-3.675,17.219-12.298,19.081L129.504,224.872z"/>
		<path fill="#454646" d="M117.702,155.386c-8.379-2.775-12.972-11.899-10.206-20.278l1.011-3.051
			c2.767-8.379,11.899-12.963,20.278-10.196l36.566,12.086c8.378,2.766,12.972,11.89,10.205,20.269l-1.011,3.05
			c-2.767,8.379-11.891,12.972-20.273,10.196L117.702,155.386z"/>
		<path fill="#454646" d="M143.646,90.277c-5.963-6.508-5.516-16.713,0.993-22.672l2.363-2.163
			c6.503-5.968,16.709-5.524,22.676,0.976l32.532,35.484c5.962,6.507,5.523,16.704-0.984,22.68l-2.358,2.163
			c-6.508,5.977-16.714,5.533-22.677-0.975L143.646,90.277z"/>
		<path fill="#454646" d="M158.949,235.273c6.721-5.71,16.9-4.877,22.61,1.844l2.084,2.447c5.709,6.722,4.885,16.909-1.845,22.619
			l-14.674,12.467c-6.73,5.719-16.909,4.885-22.628-1.845l-2.066-2.429c-5.719-6.73-4.894-16.918,1.835-22.629L158.949,235.273z"/>
		<path fill="#454646" d="M189.451,275.75c3.56-8.078,13.086-11.784,21.164-8.246l2.943,1.285
			c8.082,3.547,11.784,13.052,8.229,21.13l-2.554,5.798c-3.556,8.078-13.082,11.785-21.164,8.237l-2.939-1.286
			c-8.082-3.538-11.788-13.052-8.233-21.128L189.451,275.75z"/>
		<path fill="#454646" d="M336.459,123.19c-6.393,6.092-16.599,5.835-22.689-0.559l-2.208-2.323
			c-6.092-6.384-5.838-16.598,0.559-22.689l18.603-17.716c6.393-6.082,16.607-5.834,22.689,0.56l2.217,2.331
			c6.082,6.393,5.83,16.607-0.559,22.69L336.459,123.19z"/>
		<path fill="#454646" d="M347.484,176.195c-8.596,2.003-17.268-3.387-19.271-11.988l-0.727-3.12
			c-2.004-8.601,3.392-17.272,11.987-19.276l37.52-8.733c8.596-2.005,17.268,3.396,19.267,11.996l0.732,3.121
			c1.999,8.601-3.396,17.272-11.997,19.267L347.484,176.195z"/>
		<path fill="#454646" d="M332.718,222.754c-8.477-2.447-13.425-11.386-10.978-19.87l0.896-3.076
			c2.438-8.486,11.385-13.426,19.861-10.978l46.267,13.336c8.48,2.446,13.419,11.384,10.973,19.87l-0.896,3.076
			c-2.442,8.485-11.38,13.424-19.865,10.985L332.718,222.754z"/>
		<path fill="#454646" d="M272.664,57.019c2.767-8.379,11.891-12.98,20.269-10.214l3.046,1.011
			c8.384,2.766,12.977,11.881,10.219,20.261l-6.038,18.292c-2.758,8.379-11.881,12.979-20.261,10.214l-3.041-1.012
			c-8.388-2.757-12.98-11.881-10.214-20.269L272.664,57.019z"/>
		<path fill="#454646" d="M217.212,66.195c-1.171-8.751,5.022-16.872,13.77-18.061l3.184-0.443c8.742-1.188,16.855,5,18.025,13.752
			l0.843,6.277c1.171,8.743-5.027,16.874-13.774,18.061l-3.17,0.436c-8.747,1.188-16.864-5.001-18.034-13.752L217.212,66.195z"/>
	</g>
</g>
</svg>
