<?xml version="1.0" encoding="utf-8"?>
<!-- Generator: Adobe Illustrator 19.2.1, SVG Export Plug-In . SVG Version: 6.00 Build 0)  -->
<svg version="1.1" id="Work_area" xmlns="http://www.w3.org/2000/svg" xmlns:xlink="http://www.w3.org/1999/xlink" x="0px" y="0px"
	 width="512px" height="512px" viewBox="0 0 512 512" enable-background="new 0 0 512 512" xml:space="preserve">
<path fill="#454646" d="M410.1,101.9c-42.2-42.2-110.6-42.1-152.9,0.1L82.8,276.5c-31.2,31.2-31.9,82.6-0.7,113.8
	c31.5,31.5,81.7,31.4,113.1,0l154-154c20.2-20.2,19.9-53.9,0.1-73.6c-19.8-19.8-53.1-20.4-73.7,0.1L151.3,287.1
	c-4.7,4.7-4.7,12.3,0,17l8.5,8.5c4.7,4.7,12.3,4.7,17,0l124.3-124.3l0,0c6.4-6.4,16.2-6.6,22.7-0.1c6.1,6.1,6.3,16.3-0.1,22.7
	c-25.2,25.2-114.4,114.4-153.4,153.4c-17.4,17.4-45.3,18-62.8,0.5c-16.9-16.9-17-45.2,0-62.2l175.2-175.2c28-28,73.9-28.1,101.9-0.1
	c28.5,28.5,28.1,73.7-0.1,101.9L217.8,396c-4.7,4.7-4.7,12.3,0,17l8.5,8.5c4.7,4.7,12.3,4.7,17,0L410,254.7
	C452.3,212.5,452.4,144.2,410.1,101.9z"/>
</svg>
