<?xml version="1.0" encoding="utf-8"?>
<!-- Generator: Adobe Illustrator 19.2.1, SVG Export Plug-In . SVG Version: 6.00 Build 0)  -->
<svg version="1.1" id="Work_area" xmlns="http://www.w3.org/2000/svg" xmlns:xlink="http://www.w3.org/1999/xlink" x="0px" y="0px"
	 width="512px" height="512px" viewBox="0 0 512 512" enable-background="new 0 0 512 512" xml:space="preserve">
<g>
	<polyline fill-rule="evenodd" clip-rule="evenodd" fill="#454646" points="160,204 160,231 183,231 183,309 214,309 214,231 
		239,231 239,204 	"/>
	<rect x="346" y="204" fill-rule="evenodd" clip-rule="evenodd" fill="#454646" width="30" height="105"/>
	<polyline fill-rule="evenodd" clip-rule="evenodd" fill="#454646" points="459.2,251.8 493.6,204 455.9,204 441.3,226.2 429,204 
		391.2,204 422.4,251.8 381.3,309 419.1,309 441.3,277.8 458.2,309 496,309 	"/>
	<path fill-rule="evenodd" clip-rule="evenodd" fill="#454646" d="M16,256.8c0,30.3,24.6,55,54.8,55c15.7,0,30.2-6.7,40.2-16.8
		L94.3,268c-4.5,7.8-13.4,12.4-23.5,12.4c-12.3,0-22.3-10.1-22.3-23.6c0-13.4,10.1-24.7,22.3-24.7c10.1,0,19,5.7,23.5,13.5
		l16.8-26.9c-10.1-10.1-24.6-16.8-40.2-16.8C40.6,201.8,16,226.5,16,256.8"/>
	<path fill-rule="evenodd" clip-rule="evenodd" fill="#454646" d="M278,226.7c5.6,0,13.3,1.1,16.6,4.5c2.2,2.2,2.2,4.5,2.2,7.8
		c0,8.9-5.6,12.3-18.9,12.3 M305.8,266.7c12.2-3.3,19.9-14.4,19.9-29c0-10-3.3-18-8.9-23.6c-6.6-6.7-16.6-10.2-28.8-10.2h-41v105h31
		v-31l20,31h39.9L305.8,266.7z"/>
	<rect x="120" y="204" fill-rule="evenodd" clip-rule="evenodd" fill="#454646" width="31" height="105"/>
	<path fill-rule="evenodd" clip-rule="evenodd" fill="#454646" d="M116.7,176c0-11.1,8.8-20.1,19.7-20.1c10.8,0,19.6,9,19.6,20.1
		c0,11.1-8.8,20.1-19.6,20.1C125.6,196.1,116.7,187.1,116.7,176"/>
	<path fill-rule="evenodd" clip-rule="evenodd" fill="#454646" d="M341.2,336.4c0-10.9,8.8-19.7,19.6-19.7
		c10.9,0,19.6,8.8,19.6,19.7c0,10.9-8.8,19.7-19.6,19.7C350,356.1,341.2,347.3,341.2,336.4"/>
</g>
</svg>
