<?xml version="1.0" encoding="utf-8"?>
<!-- Generator: Adobe Illustrator 16.0.4, SVG Export Plug-In . SVG Version: 6.00 Build 0)  -->
<!DOCTYPE svg PUBLIC "-//W3C//DTD SVG 1.1//EN" "http://www.w3.org/Graphics/SVG/1.1/DTD/svg11.dtd">
<svg version="1.1" id="Layer_1" xmlns="http://www.w3.org/2000/svg" xmlns:xlink="http://www.w3.org/1999/xlink" x="0px" y="0px"
	 width="512px" height="512px" viewBox="0 0 512 512" enable-background="new 0 0 512 512" xml:space="preserve">
<g>
	<path fill="#454646" d="M256.002,395.038c-76.789,0-139.036-62.249-139.036-139.038c0-76.789,62.247-139.038,139.036-139.038
		c36.774,0,70.208,14.279,95.067,37.597l-56.075,38.576L446,251.152l-0.188-161.773l-52.042,35.799
		C359.158,88.731,310.237,66,256.002,66C151.067,66,66,151.065,66,256c0,104.931,85.067,190,190.002,190
		c79.051,0,146.815-48.282,175.44-116.956l-48.059-17.262C361.89,360.796,312.947,395.038,256.002,395.038z"/>
</g>
</svg>
