<?xml version="1.0" encoding="utf-8"?>
<!-- Generator: Adobe Illustrator 16.0.4, SVG Export Plug-In . SVG Version: 6.00 Build 0)  -->
<!DOCTYPE svg PUBLIC "-//W3C//DTD SVG 1.1//EN" "http://www.w3.org/Graphics/SVG/1.1/DTD/svg11.dtd">
<svg version="1.1" id="Layer_1" xmlns="http://www.w3.org/2000/svg" xmlns:xlink="http://www.w3.org/1999/xlink" x="0px" y="0px"
	 width="512px" height="512px" viewBox="0 0 512 512" enable-background="new 0 0 512 512" xml:space="preserve">
<g>
	<g>
		<path fill="#454646" d="M487.125,307.147h-0.056c-0.566-18.378-15.614-33.118-34.132-33.118H220.18
			c-18.518,0-33.559,14.74-34.132,33.118l-0.058,103.18c0,18.883,15.31,34.188,34.189,34.188h34.187v-63.917h13.266v63.917h137.852
			v-63.917h13.265v63.917h34.189c18.883,0,34.188-15.306,34.188-34.188V307.147z"/>
	</g>
	<g>
		<path fill="#454646" d="M169.948,341.142H47.949V140.896H228.4c1.513-8.729,4.05-17.107,7.5-25.004H54.185
			c-16.127,0-29.31,13.19-29.31,29.3v194.136c0,16.117,13.183,29.292,29.31,29.292h115.748L169.948,341.142z"/>
	</g>
	<g>
		<path fill="#454646" d="M169.907,410.319l0.014-21.067c-0.948-0.279-10.369,0-10.369,0c-5.673,0-10.323,4.659-10.323,10.329
			v18.859h-10.01c-5.669,0-10.317,4.646-10.317,10.321V446h55.899C175.611,436.884,169.907,424.256,169.907,410.319z"/>
	</g>
	<path fill="#454646" d="M336.557,66c-51.76,0-93.723,41.955-93.723,93.719c0,51.768,41.963,93.714,93.723,93.714
		c51.764,0,93.729-41.946,93.729-93.714C430.286,107.955,388.32,66,336.557,66z"/>
	<path fill="#454646" d="M287.618,257.943c-30.403-15.21-52.807-44.086-59.07-78.562v78.562H287.618z"/>
	<rect x="68.892" y="160.22" fill="#454646" width="140.74" height="42.674"/>
	<path fill="#454646" d="M68.892,218.98v107.115h100.978l0.02-35.03c0.573-18.382,15.614-33.122,34.132-33.122h5.611V218.98H68.892z
		"/>
</g>
</svg>
