<?xml version="1.0" encoding="utf-8"?>
<!-- Generator: Adobe Illustrator 16.0.4, SVG Export Plug-In . SVG Version: 6.00 Build 0)  -->
<!DOCTYPE svg PUBLIC "-//W3C//DTD SVG 1.1//EN" "http://www.w3.org/Graphics/SVG/1.1/DTD/svg11.dtd">
<svg version="1.1" id="Layer_1" xmlns="http://www.w3.org/2000/svg" xmlns:xlink="http://www.w3.org/1999/xlink" x="0px" y="0px"
	 width="512px" height="512px" viewBox="0 0 512 512" enable-background="new 0 0 512 512" xml:space="preserve">
<g>
	<path fill="#454646" d="M246.729,317.021c-10.247-6.44-27.75-5.273-38.606-1.832c0.103,25.547-8.419,62.175,7.378,84.379
		c0.15,0.038,0.3,0.08,0.45,0.122c16.622-10.228,22.003-37.388,27.225-54.717c-6.722-10.617-22.641-11.859-33.75-8.133l-0.075-0.094
		c10.275-8.836,29.822-6.141,33.929,7.889c2.484-8.259,5.466-16.467,7.481-24.853C249.447,318.812,248.106,317.894,246.729,317.021
		C245.688,316.37,247.938,317.768,246.729,317.021z"/>
	<path fill="#454646" d="M208.122,314.284c14.568-7.875,30.759-6.685,42.722,5.166c4.247-17.878,18.703-20.26,24.824-34.87
		c14.615,14.901,30.01,29.32,46.866,41.667c-27.019-26.335-52.782-53.935-78.487-81.534c17.682-9.76,49.818-20.944,56.615-42.202
		c-8.165,20.588-41.729,29.64-59.55,39.062c-13.763-14.719-42.553-34.312-43.519-56.434c-0.545,22.299,26.193,43.449,39.721,58.444
		c-33.346,17.667-66.739,35.325-100.902,51.38c21.15-6.516,41.354-15.825,61.153-25.637c0.169,7.275,4.819,13.364,8.476,19.242
		c4.603,7.941,1.949,17.213,2.081,25.711"/>
	<path fill="#454646" d="M482.8,188.125c-32.203-2.925-65.017,1.289-96.337,8.771c-37.463,9.544-101.307,22.823-127.988,54.22
		c4.809,19.781,43.397,40.393,60.554,48.023c1.294,0.572,54.356,20.283,50.989,4.247c-0.516-1.561-1.367-2.892-2.577-3.989
		c20.944,7.463,52.135,30.619,76.077,19.88c-23.98-22.12-57.646-41.517-89.117-51.149c-14.176-4.838-23.316-2.307-37.895-2.578
		c-7.041-0.127-33.777-5.246-40.781-0.942c-0.065-0.065-0.131-0.132-0.207-0.192c6.058-7.435,42.657-2.442,49.398-2.794
		c24.047-1.392,57.769-4.256,76.434-20.615c-12.365-1.486-24.6,1.781-36.562,4.505l0.562-0.146l-0.562,0.131
		c43.622-11.808,96.938-24.37,131.213-55.458C491.659,189.175,487.244,188.552,482.8,188.125
		C477.381,187.633,487.244,188.552,482.8,188.125z"/>
	<path fill="#454646" d="M149.641,271.708c18.666-1.823,61.771-9.179,72.534-26.466c-15.384-38.217-71.821-70.959-104.334-91.847
		C87.175,134.359,52.15,116.838,16,112.31c22.902,40.294,69.338,69.028,107.062,94.04c-10.219-6.571-21.206-13.363-33.271-15.801
		c11.99,20.451,41.165,33.183,62.222,42.121c6.75,2.864,46.144,10.153,49.781,19.81c-0.085,0.042-0.169,0.08-0.253,0.112
		c-4.229-5.02-25.182-7.818-31.013-9.562c-8.269-2.475-23.69-11.779-32.541-11.854c-37.547-0.698-78.581,5.03-112.828,20.349
		c19.425,17.869,55.913,5.555,78.45,5.156c-1.49,0.656-2.719,1.646-3.685,2.967C91.581,273.747,148.3,271.834,149.641,271.708
		C151.646,271.511,145.619,272.097,149.641,271.708z"/>
	<path fill="#454646" d="M365.35,245.364c3.179-0.82,11.991-3.094,7.182-1.861c3.394-0.923-6.301,1.617-7.744,1.992
		c0.562-0.131,1.106-0.276,1.669-0.417L365.35,245.364z"/>
	<polygon fill="#454646" points="149.481,231.526 148.281,230.955 149.481,231.526 	"/>
	<polyline fill="#454646" points="250.76,319.783 250.76,319.783 250.76,319.783 	"/>
	<polyline fill="#454646" points="243.175,344.974 243.175,344.974 243.175,344.974 	"/>
</g>
</svg>
