<?xml version="1.0" encoding="utf-8"?>
<!-- Generator: Adobe Illustrator 16.0.4, SVG Export Plug-In . SVG Version: 6.00 Build 0)  -->
<!DOCTYPE svg PUBLIC "-//W3C//DTD SVG 1.1//EN" "http://www.w3.org/Graphics/SVG/1.1/DTD/svg11.dtd">
<svg version="1.1" id="Layer_1" xmlns="http://www.w3.org/2000/svg" xmlns:xlink="http://www.w3.org/1999/xlink" x="0px" y="0px"
	 width="512px" height="512px" viewBox="0 0 512 512" enable-background="new 0 0 512 512" xml:space="preserve">
<g>
	<g>
		<path fill="#454646" d="M255.998,436.69l-91.052-71.134c-0.079,1.309-0.125,2.625-0.125,3.947
			c0,42.249,40.825,76.496,91.178,76.496c50.357,0,91.178-34.247,91.178-76.496c0-1.322-0.042-2.639-0.12-3.947L255.998,436.69z"/>
	</g>
	<path fill="#454646" d="M255.998,66L93.904,136.628l12.965,169.066l149.129,116.505l149.129-116.505l12.97-169.066L255.998,66z
		 M234.623,377.172l-113.026-81.873l-6.517-121.72l119.543,74.628V377.172z M138.097,136.628l117.901-51.373l117.906,51.373
		l-117.906,70.615L138.097,136.628z M390.399,295.299l-113.026,81.873V248.207l119.548-74.628L390.399,295.299z"/>
</g>
</svg>
