<?xml version="1.0" encoding="utf-8"?>
<!-- Generator: Adobe Illustrator 16.0.4, SVG Export Plug-In . SVG Version: 6.00 Build 0)  -->
<!DOCTYPE svg PUBLIC "-//W3C//DTD SVG 1.1//EN" "http://www.w3.org/Graphics/SVG/1.1/DTD/svg11.dtd">
<svg version="1.1" id="Layer_1" xmlns="http://www.w3.org/2000/svg" xmlns:xlink="http://www.w3.org/1999/xlink" x="0px" y="0px"
	 width="512px" height="512px" viewBox="0 0 512 512" enable-background="new 0 0 512 512" xml:space="preserve">
<g>
	<path fill="#454646" d="M150.887,319.724c-2.535-26.854-2.859-127.546-2.896-154.396c-46.875-2.77-64.847-2.344-76.857-2.039
		c-4.738,0.117-8.731,0.169-12.786,0.089c-11.868-0.216-16.312-0.319-17.793,15.627c-2.152,23.109,3.862,100.167,7.152,114.3
		c2.489,0.464,7.426,0.488,11.555-0.019c23.484-2.142,25.86,1.823,27.436,4.439c1.073,1.791,1.604,4.116,4.416,17.751
		c2.17,10.538,7.003,33.965,10.102,41.231c7.599-0.365,30.061-4.354,55.106-9.398C153.695,339.018,151.844,329.854,150.887,319.724z
		 M65.28,219.716l5.165-11.489V197.32l-16.078-1.725l13.781-13.786l41.93,22.401L65.28,219.716z"/>
	<polygon fill="#454646" points="258.254,345.496 249.633,350.667 270.892,359.854 279.507,354.683 272.04,354.683 	"/>
	<circle fill="#454646" cx="237.006" cy="239.816" r="6.891"/>
	<circle fill="#454646" cx="346.416" cy="239.816" r="6.891"/>
	<path fill="#454646" d="M78.774,197.751l9.047,5.166l-9.478,3.876C78.344,206.793,75.33,201.196,78.774,197.751z"/>
	<path fill="#454646" d="M426.394,217.134l7.322-5.602c0,0,3.445,3.014,0.432,7.753L426.394,217.134z"/>
	<path fill="#454646" d="M253.51,100.959c43.576,0,91.242,2.588,94.148,2.752c18.887,0.984,50.738,9.136,50.156,33.468
		l-0.332,12.117c22.561-2.822,43.822-5.184,54.341-5.658c1.242-0.052,2.354-0.089,3.356-0.089c3.68,0,5.925,0.482,7.819,2.376
		c4.809,4.805,18.46,32.545,20.924,53.461c1.172,9.951,1.918,39.44,1.696,67.12c-0.439,55.833-3.553,57.558-7.489,59.742
		c-3.652,2.029-9.488,2.414-18.708,2.878c-3.313,0.168-8.404,0.426-11.245,0.872c-0.797,3.975-1.852,12.178-2.663,18.478
		c-3.998,31.012-5.657,39.168-11.587,41.803c-1.097,0.482-3.698,1.636-28.276,1.636c-11.492,0-27.87-0.258-51.064-0.947
		c-7.688,18.596-10.837,19.299-13.279,19.838c-0.727,0.164-2.324,0.234-4.641,0.234c-23.433,0-120.07-7.495-120.895-7.631
		c-7.309-1.214-21.122-6.999-35.995-19.285c-7.515-6.215-13.562-14.208-18.245-23.761c-39.627,8.133-55.282,9.971-61.935,9.971
		c-0.01,0-0.023,0-0.033,0c-3.478,0-4.485-0.507-5.203-0.867c-5.349-2.676-8.192-9.717-16.748-51.207
		c-0.862-4.19-1.809-8.765-2.465-11.634c-1.079-0.084-2.457-0.122-4.008-0.122c-3.071,0-6.844,0.159-10.406,0.482
		c-2.144,0.272-4.956,0.52-7.941,0.52c-5.423,0-11.414-0.83-14.972-3.876c-2.208-1.898-5.234-4.491-9.066-56.775
		c-1.696-23.203-3.22-55.228-1.926-69.131c2.418-25.973,16.416-28.176,28.163-28.176c1.242,0,2.46,0.028,3.637,0.051
		c1.195,0.019,2.386,0.028,3.595,0.028c2.687,0,5.461-0.047,8.574-0.122c4.19-0.104,9.098-0.221,15.637-0.221
		c12.597,0,31.247,0.441,62.564,2.292c3.721-17.887,17.475-44.32,50.995-48.398C213.587,101.526,233.096,100.959,253.51,100.959
		 M253.51,90.618L253.51,90.618c-23.803,0-42.229,0.773-54.764,2.297c-32.118,3.91-50.222,25.941-57.52,47.869
		c-22.359-1.233-40.342-1.838-54.793-1.838c-6.684,0-11.789,0.127-15.891,0.225c-3.019,0.075-5.707,0.122-8.32,0.122
		c-1.148,0-2.277-0.014-3.417-0.033c-1.213-0.023-2.498-0.047-3.814-0.047c-8.645,0-34.96,0-38.457,37.551
		c-1.743,18.736,1.284,62.301,1.913,70.842c3.955,54.056,7.055,59.077,12.639,63.872c4.934,4.223,12.232,6.37,21.706,6.37
		c2.897,0,5.938-0.197,9.044-0.581c1.602-0.141,3.289-0.253,4.947-0.324c0.24,1.167,0.479,2.325,0.704,3.403
		c8.803,42.689,11.911,53.194,22.247,58.364c2.034,1.022,4.632,1.96,9.829,1.96c8.985,0,27.511-2.832,56.55-8.653
		c4.758,7.888,10.477,14.625,17.076,20.076c16.439,13.585,31.904,20.021,40.89,21.516c3.065,0.511,100.106,7.772,122.587,7.772
		c3.92,0,5.593-0.192,6.891-0.488c7.2-1.594,11.774-6.371,17.732-19.392c18.089,0.501,32.986,0.755,44.361,0.755
		c26.758,0,29.785-1.341,32.458-2.527c11.905-5.283,13.589-18.352,17.657-49.931c0.402-3.132,0.882-6.844,1.354-10.201
		c1.028-0.056,1.984-0.103,2.753-0.141c10.78-0.543,17.63-1.036,23.273-4.167c9.83-5.461,12.375-12.919,12.815-68.705
		c0.225-28.509-0.534-57.918-1.772-68.409c-2.578-21.932-16.504-52.186-23.883-59.563c-4.757-4.762-10.316-5.405-15.126-5.405
		c-1.139,0-2.396,0.042-3.802,0.104c-9.623,0.431-27.154,2.339-43.228,4.261v-0.108c0.67-28.275-29.629-42.501-59.953-44.082
		C347.743,93.36,298.243,90.618,253.51,90.618L253.51,90.618L253.51,90.618z"/>
	<path fill="#454646" d="M470.23,200.995c-1.874-15.933-11.85-37.083-15.871-43.673c-6.966-1.462-150.163,18.6-163.767,21.643
		c0.287,10.565,3.385,40.059,5.531,60.459c5.025,47.793,4.838,48.103,3.074,51.037c-2.063,3.445-3.844,6.403-43.574,4.486
		c-3.802-0.183-6.731-3.412-6.548-7.219c0.183-3.801,3.389-6.67,7.219-6.548c10.823,0.525,23.578,0.68,30.085,0.258
		c-0.568-8.278-2.415-25.861-3.967-40.575c-7.077-67.341-6.407-68.142-3.604-71.503c2.039-2.447,3.65-4.378,77.919-14.682
		c8.442-1.167,17.63-2.404,26.915-3.614l0.39-14.24c0.395-16.65-36.735-19.327-37.11-19.35c-0.343-0.019-11.315-0.609-27.38-1.242
		c-0.286,1.134-0.689,2.227-1.271,3.168l-19.204,30.727c-0.925,1.486-2.879,1.932-4.359,1.008c-1.087-0.68-1.617-1.917-1.457-3.113
		l4.461-32.54c-6.08-0.173-12.426-0.337-18.903-0.455l-6.77,33.989c-0.385,1.908-2.241,3.15-4.148,2.771
		c-1.397-0.277-2.438-1.351-2.742-2.653l-8.034-34.335c0-0.01,0-0.019,0-0.019c-7.398-0.038-14.687,0.004-21.633,0.145
		l12.136,29.742c0.904,2.208-0.155,4.725-2.362,5.625c-1.852,0.754-3.929,0.127-5.082-1.406l-23.962-31.945
		c-0.305-0.398-0.539-0.829-0.769-1.266c-5.076,0.305-9.731,0.694-13.791,1.191c-27.323,3.324-36.009,24.6-38.709,35.747
		c62.016,6.473,95.512,42.497,96.961,44.09c2.563,2.817,2.357,7.172-0.455,9.736c-2.812,2.564-7.167,2.357-9.732-0.45
		c-0.473-0.511-31.621-33.595-87.94-39.632c0.052,28.045,0.417,126.496,2.836,152.071c0.914,9.727,2.681,18.422,5.245,26.105
		c5.451-1.135,10.917-2.297,16.289-3.469c3.717-0.792,7.387,1.551,8.198,5.269c0.812,3.721-1.547,7.392-5.269,8.198
		c-4.786,1.045-9.295,2.011-13.604,2.925c3.559,6.403,7.918,11.775,13.083,16.041c11.878,9.82,23.606,15.341,29.476,16.321
		c6.891,1.139,101.896,7.43,118.667,7.504c4.655-7.931,16.801-41.367,32.695-94.574c12.629-42.277,11.222-68.559,11.208-68.817
		c-0.229-3.797,2.658-7.064,6.455-7.299c3.82-0.258,7.059,2.639,7.303,6.432c0.07,1.153,1.646,28.743-11.76,73.631
		c-9.844,32.958-17.176,55.34-22.754,70.635c28.66,0.778,58.078,1.074,66.984,0.385c1.767-5.827,3.764-21.304,5.011-30.999
		c2.518-19.514,3.206-23.578,5.479-26.306c3.31-3.965,9.286-4.434,21.413-5.049c3.178-0.154,7.987-0.398,10.868-0.811
		C472.453,298.776,472.575,220.907,470.23,200.995z M186.465,235.223l53.414-10.336l17.227,16.078l-24.693,16.659L186.465,235.223z
		 M273.188,373.067l-48.821-21.252l37.332-18.38l16.083,9.188l31.017-2.869l10.913,12.638L273.188,373.067z M343.834,258.772
		l-40.206-22.973l47.097-10.341l15.505,16.083L343.834,258.772z M444.343,211.673l11.484,25.847l-45.371-17.803l37.908-30.44
		l13.204,16.083L444.343,211.673z"/>
</g>
</svg>
