<?xml version="1.0" encoding="utf-8"?>
<!-- Generator: Adobe Illustrator 18.0.0, SVG Export Plug-In . SVG Version: 6.00 Build 0)  -->
<!DOCTYPE svg PUBLIC "-//W3C//DTD SVG 1.1//EN" "http://www.w3.org/Graphics/SVG/1.1/DTD/svg11.dtd">
<svg version="1.1" id="Ebene_1" xmlns="http://www.w3.org/2000/svg" xmlns:xlink="http://www.w3.org/1999/xlink" x="0px" y="0px"
	 width="512px" height="512px" viewBox="0 0 512 512" enable-background="new 0 0 512 512" xml:space="preserve">
<path id="XMLID_817_" fill="#454646" d="M463.6,126.6h-28.4v-6.4c0-1.3-1.1-2.4-2.4-2.4h-5v-4.8c0-1.3-1.1-2.4-2.4-2.4h-8.1v-2.4
	c0-1.3-1.1-2.4-2.4-2.4h-38.7c-1.3,0-2.4,1.1-2.4,2.4v4h-10c-1.3,0-2.4,1.1-2.4,2.4v2.8H183.1v-6c0-1.3-1.1-2.4-2.4-2.4h-7.6v-8.8
	c0-1.3-1.1-2.4-2.4-2.4h-38.7c-1.3,0-2.4,1.1-2.4,2.4v8.8h-24.3c-1.3,0-2.4,1.1-2.4,2.4v7.2c-1.3,0-2.4,1.1-2.4,2.4v2.4H48.3
	c-0.9,0-1.7,0.5-2.1,1.2c-0.4,0.7-0.2,1.6,0,2.4c14.9,51.2,109.5,50.8,109.5,50.8v236.2c0,1.3,1.1,2.4,2.4,2.4H220
	c1.3,0,2.4-1.1,2.4-2.4V177.9H267v236.2c0,1.3,1.1,2.4,2.4,2.4h61.8c1.3,0,2.4-1.1,2.4-2.4V177.9h44.6v236.2c0,1.3,1.1,2.4,2.4,2.4
	h61.8c1.3,0,2.4-1.1,2.4-2.4V173.9C466,164.1,466,149.6,466,129C466,127.7,464.9,126.6,463.6,126.6z M202.2,337.1h-26.5v-26.5h26.5
	V337.1z M202.2,293h-26.5v-26.5h26.5V293z M202.2,248.9h-26.5v-26.5h26.5V248.9z M202.2,204.7h-26.5v-26.5h26.5V204.7z M313.3,337.1
	h-26.5v-26.5h26.5V337.1z M313.3,293h-26.5v-26.5h26.5V293z M313.3,248.9h-26.5v-26.5h26.5V248.9z M313.3,204.7h-26.5v-26.5h26.5
	V204.7z M424.7,337.1h-26.5v-26.5h26.5V337.1z M424.7,293h-26.5v-26.5h26.5V293z M424.7,248.9h-26.5v-26.5h26.5V248.9z M424.7,204.7
	h-26.5v-26.5h26.5V204.7z"/>
</svg>
