<?xml version="1.0" encoding="utf-8"?>
<!-- Generator: Adobe Illustrator 18.1.0, SVG Export Plug-In . SVG Version: 6.00 Build 0)  -->
<svg version="1.1" id="Ebene_1" xmlns="http://www.w3.org/2000/svg" xmlns:xlink="http://www.w3.org/1999/xlink" x="0px" y="0px"
	 width="512px" height="512px" viewBox="0 0 512 512" enable-background="new 0 0 512 512" xml:space="preserve">
<path fill="#454646" d="M261.6,66.1C156.8,62.9,69.2,145.3,66.1,250.3C63,355.1,145.5,442.7,250.3,445.9
	c104.9,3.2,192.5-79.3,195.6-184.1C449,156.8,366.5,69.3,261.6,66.1z M379.4,191.6h-61.8v-12.4l-19.2,24.4l-8.8-12.6l-87.1,56h73.9
	v-13.3l41.2,15.5v-23h61.8v62.3h-61.8v-23L276.3,281v-13.3h-73.9l87.9,56l8-13l19.2,24.8v-12.4h61.8v62.3h-61.8v-24.9l-42.7-10.4
	l5.8-12.5l-107.4-70v41.6h-68.7V205.4h68.7V247l108.2-70l-6.6-12.5l42.7-10.4v-24.9h61.8V191.6z"/>
</svg>
