<?xml version="1.0" encoding="utf-8"?>
<!-- Generator: Adobe Illustrator 16.0.4, SVG Export Plug-In . SVG Version: 6.00 Build 0)  -->
<!DOCTYPE svg PUBLIC "-//W3C//DTD SVG 1.1//EN" "http://www.w3.org/Graphics/SVG/1.1/DTD/svg11.dtd">
<svg version="1.1" id="Layer_1" xmlns="http://www.w3.org/2000/svg" xmlns:xlink="http://www.w3.org/1999/xlink" x="0px" y="0px"
	 width="512px" height="512px" viewBox="0 0 512 512" enable-background="new 0 0 512 512" xml:space="preserve">
<g id="_x33_e91140ac1bfb9903b91c1b0ca092829">
	<path fill="#454646" d="M465.95,296.964c0.018,0.004,0.033,0.012,0.05,0.021c0,0-0.008,37.915-0.008,41.852
		c0,4.193-5.046,8.794-16.448,14.741c-22.419,11.689-138.534,59.432-163.242,72.311c-24.724,12.895-38.456,12.771-57.987,3.43
		c-19.523-9.336-143.095-59.243-165.343-69.883C51.85,354.11,46,349.633,46,345.391c0-4.225,0-42.427,0-42.452
		c0.173,4.229,5.85,8.722,16.972,14.032c22.248,10.632,145.812,60.553,165.343,69.882c19.531,9.34,33.264,9.463,57.987-3.424
		c24.708-12.888,140.823-60.629,163.242-72.314C460.422,305.445,465.779,300.979,465.95,296.964z M46,204.187
		c0-4.061,0-39.452,0-42.259c0-0.017,0-0.017,0-0.028c0-0.098,0-0.168,0-0.168c0,0.016,0.009,0.04,0.009,0.057
		c-0.059-4.184,5.273-8.121,16.102-12.357c21.861-8.561,144.744-56.771,170.716-66.089s34.986-9.655,57.085-1.559
		c22.107,8.097,137.525,54.035,159.354,62.04c11.083,4.061,16.734,7.752,16.709,11.936c0.009,0,0.018,0.009,0.025,0.013
		c0,0-0.008,37.911-0.008,41.856c0,4.191-5.046,8.802-16.448,14.745c-22.419,11.685-138.534,59.419-163.242,72.314
		c-24.724,12.883-38.456,12.755-57.987,3.421c-19.531-9.328-143.095-59.243-165.343-69.883C51.85,212.91,46,208.423,46,204.187z
		 M293.701,181.209l-97.329,14.942l67.945,28.169L293.701,181.209z M354.036,134.562l-63.723,25.208l57.528,22.755l6.234-2.461
		l57.562-22.722L354.036,134.562z M211.293,126.94l42.009,3.774l13.183,21.878l8.146-19.614l36.38-3.773l-28.218-10.565
		l7.497-17.944l-27.694,9.06l-29.35-11.483l9.408,17.354L211.293,126.94z M118.13,160.271c0,11.14,23.281,20.168,52.016,20.168
		c28.729,0,52.017-9.028,52.017-20.168c0-11.131-23.288-20.159-52.017-20.159C141.411,140.111,118.13,149.14,118.13,160.271z
		 M449.544,241.892c-22.419,11.677-138.534,59.42-163.242,72.311c-24.724,12.879-38.456,12.756-57.987,3.425
		S85.22,258.38,62.972,247.74C51.85,242.425,46.173,237.942,46,233.713c0,0.083,0,38.231,0,42.451c0,4.241,5.85,8.725,16.972,14.044
		c22.248,10.639,145.812,60.548,165.343,69.884c19.531,9.338,33.264,9.461,57.987-3.422
		c24.708-12.896,140.823-60.638,163.242-72.318c11.402-5.94,16.448-10.55,16.448-14.745c0-3.938,0.008-41.856,0.008-41.856
		c-0.017-0.009-0.032-0.009-0.05-0.017C465.779,231.749,460.422,236.22,449.544,241.892z"/>
</g>
</svg>
