<?xml version="1.0" encoding="utf-8"?>
<!-- Generator: Adobe Illustrator 16.0.4, SVG Export Plug-In . SVG Version: 6.00 Build 0)  -->
<!DOCTYPE svg PUBLIC "-//W3C//DTD SVG 1.1//EN" "http://www.w3.org/Graphics/SVG/1.1/DTD/svg11.dtd">
<svg version="1.1" id="Layer_1" xmlns="http://www.w3.org/2000/svg" xmlns:xlink="http://www.w3.org/1999/xlink" x="0px" y="0px"
	 width="512px" height="512px" viewBox="0 0 512 512" enable-background="new 0 0 512 512" xml:space="preserve">
<g>
	<rect x="153.309" y="265.674" fill="#454646" width="205.387" height="99.715"/>
	<path fill="#454646" d="M389.949,110.148v45.393c0,16.371-13.395,29.766-29.764,29.766H348.28
		c-16.378,0-29.769-13.395-29.769-29.766v-45.393H188.287v45.393c0,16.371-13.395,29.766-29.766,29.766h-11.906
		c-16.371,0-29.766-13.395-29.766-29.766v-45.393H65.5V446.5h381V110.148H389.949z M421.943,421.199H90.057V208.747h331.887V421.199
		z"/>
	<path fill="#454646" d="M134.709,81.871c0-9.004,7.367-16.371,16.371-16.371h2.977c9.004,0,16.371,7.367,16.371,16.371v69.949
		c0,9.004-7.367,16.371-16.371,16.371h-2.977c-9.004,0-16.371-7.367-16.371-16.371V81.871z"/>
	<path fill="#454646" d="M336.375,81.871c0-9.004,7.359-16.371,16.367-16.371h2.973c9.004,0,16.378,7.367,16.378,16.371v69.949
		c0,9.004-7.374,16.371-16.378,16.371h-2.973c-9.008,0-16.367-7.367-16.367-16.371V81.871z"/>
</g>
</svg>
