<?xml version="1.0" encoding="utf-8"?>
<!-- Generator: Adobe Illustrator 16.0.4, SVG Export Plug-In . SVG Version: 6.00 Build 0)  -->
<!DOCTYPE svg PUBLIC "-//W3C//DTD SVG 1.1//EN" "http://www.w3.org/Graphics/SVG/1.1/DTD/svg11.dtd">
<svg version="1.1" id="Layer_1" xmlns="http://www.w3.org/2000/svg" xmlns:xlink="http://www.w3.org/1999/xlink" x="0px" y="0px"
	 width="512px" height="512px" viewBox="0 0 512 512" enable-background="new 0 0 512 512" xml:space="preserve">
<g>
	<g>
		<path fill="#454646" d="M256,446c-104.767,0-190-85.24-190-190S151.233,66,256,66s190,85.24,190,190S360.767,446,256,446z
			 M256,86.893c-93.237,0-169.089,75.889-169.089,169.107S162.763,425.107,256,425.107S425.089,349.219,425.089,256
			S349.237,86.893,256,86.893z"/>
	</g>
	<g>
		<g>
			<path fill="#454646" d="M166.225,216.219c0-14.436,11.697-26.125,26.132-26.125c14.443,0,26.144,11.689,26.144,26.125
				s-11.701,26.162-26.144,26.162C177.922,242.381,166.225,230.654,166.225,216.219z"/>
		</g>
		<g>
			<path fill="#454646" d="M293.499,216.219c0-14.436,11.708-26.125,26.144-26.125s26.144,11.689,26.144,26.125
				s-11.708,26.162-26.144,26.162S293.499,230.654,293.499,216.219z"/>
		</g>
	</g>
	<g>
		<path fill="#454646" d="M340.888,365.807c-12.74-36.479-45.878-62.566-84.858-62.566c-38.995,0-72.126,26.088-84.862,62.566
			c0,0-0.475,2.449-0.475,3.748c0,7.348,5.975,13.359,13.333,13.359h144.003c7.366,0,13.33-6.012,13.33-13.359
			C341.359,368.256,340.888,365.807,340.888,365.807z"/>
	</g>
	<g>
		<path fill="#454646" d="M165.022,187.927l48.799,18.695c0.913,0.327,1.938,0.512,2.947,0.512c3.392,0,6.487-2.126,7.704-5.288
			c0.787-2.052,0.728-4.29-0.17-6.301c-0.898-2.004-2.523-3.544-4.58-4.327l-48.828-18.707c-0.95-0.364-1.948-0.545-2.954-0.545
			c-3.444,0-6.457,2.078-7.678,5.299C158.632,181.507,160.77,186.279,165.022,187.927z"/>
		<path fill="#454646" d="M344.068,171.966c-1.009,0-2.007,0.186-2.969,0.549l-48.817,18.699c-2.06,0.787-3.685,2.327-4.583,4.331
			c-0.898,2.012-0.958,4.249-0.167,6.309c1.57,4.093,6.334,6.324,10.743,4.731l48.729-18.666c4.227-1.64,6.364-6.412,4.746-10.628
			C350.518,174.044,347.504,171.966,344.068,171.966z"/>
	</g>
</g>
</svg>
