<?xml version="1.0" encoding="utf-8"?>
<!-- Generator: Adobe Illustrator 19.2.1, SVG Export Plug-In . SVG Version: 6.00 Build 0)  -->
<svg version="1.1" id="Work_area" xmlns="http://www.w3.org/2000/svg" xmlns:xlink="http://www.w3.org/1999/xlink" x="0px" y="0px"
	 width="512px" height="512px" viewBox="0 0 512 512" enable-background="new 0 0 512 512" xml:space="preserve">
<g>
	<g>
		<path fill-rule="evenodd" clip-rule="evenodd" fill="#454646" d="M234.9,204.7c-11.7-3.4-29.4-4.1-57.6,5.4
			c-25.1,8.4-51,8.6-49.1-4.7c2.5-17.4,32.6-14.6,46.7-13.2c26.9,2.7,52.8,3.5,62.9-6.1c8.7-8.3,10.7-45.7,6.1-66.2
			c-6.7-30.4-69.2-21.9-96.5-7.3c-14.7,7.9-15.3-0.1-7.5-6.7c11.8-10.1,51.4-25,84.2-17.6c24.6,5.5,22.1-6.1,21.8-15.8
			c-0.2-4.9-1.5-9.8-3-12.8c-8-15.9-61.1-19.9-116.2,16.8c-53.7,35.8-55,84.2-28.1,85c16.1,0.5,45.5-20,65.4-21.2
			c8.7-1.1,27.7,0.1,21.7,16.1c-4.6,12.2-32.5,10-57.7,12.7c-43.9,4.7-50.6,28.9-51.5,34.9c-3,14.3,8.9,33.4,28.2,39.2
			c19.2,5.8,36.6-4.8,56.9-3.2c20.7,1.7,26.6,8.5,26.8,13.1c0.3,6-7.9,9.5-13.9,9.5c-14,0-35.7-7.8-51-6c-3.8,0.4-7.1,4.1-7.2,9.7
			c-0.1,11.3,12.3,29.2,45.9,34.9c40.5,6.9,41.3,30.3,41.3,36.1c0,4.8,0,9.2,0,14.7H237c0-26.5-0.7-30.9,5.7-46.7
			c7.3-17.9,2.6-29.7-14.9-25.6c-17.7,4.2-35.4,14.4-40,6.1c-2.5-4.4,1.5-8.2,12.5-9.7c20.1-2.8,37.2-14.5,43.1-34.7
			C246.5,230.3,249.3,208.9,234.9,204.7z"/>
	</g>
	<g>
		<path fill-rule="evenodd" clip-rule="evenodd" fill="#454646" d="M277.1,204.7c11.7-3.4,29.4-4.1,57.6,5.4
			c25.1,8.4,51,8.6,49.1-4.7c-2.5-17.4-32.6-14.6-46.7-13.2c-26.9,2.7-52.8,3.5-62.9-6.1c-8.7-8.3-10.7-45.7-6.1-66.2
			c6.7-30.4,69.2-21.9,96.5-7.3c14.7,7.9,15.3-0.1,7.5-6.7c-11.8-10.1-51.4-25-84.2-17.6c-24.6,5.5-22.1-6.1-21.8-15.8
			c0.2-4.9,1.5-9.8,3-12.8c8-15.9,61.1-19.9,116.2,16.8c53.7,35.8,55,84.2,28.1,85c-16.1,0.5-45.5-20-65.4-21.2
			c-8.7-1.1-27.7,0.1-21.7,16.1c4.6,12.2,32.5,10,57.7,12.7c43.9,4.7,50.6,28.9,51.5,34.9c3,14.3-8.9,33.4-28.2,39.2
			c-19.2,5.8-36.6-4.8-56.9-3.2c-20.7,1.7-26.6,8.5-26.8,13.1c-0.3,6,7.9,9.5,13.9,9.5c14,0,35.7-7.8,51-6c3.8,0.4,7.1,4.1,7.2,9.7
			c0.1,11.3-12.3,29.2-45.9,34.9c-40.5,6.9-41.3,30.3-41.3,36.1c0,4.8,0,9.2,0,14.7H275c0-26.5,0.7-30.9-5.7-46.7
			c-7.3-17.9-2.6-29.7,14.9-25.6c17.7,4.2,35.4,14.4,40,6.1c2.5-4.4-1.5-8.2-12.5-9.7c-20.1-2.8-37.2-14.5-43.1-34.7
			C265.5,230.3,262.7,208.9,277.1,204.7z"/>
	</g>
	<path fill="#454646" d="M288,444c0,13.4-14.3,24-32,24s-32-10.6-32-24H288z"/>
	<path fill="#454646" d="M314,392H198c-3.3,0-6-2.7-6-6v-16c0-3.3,2.7-6,6-6h116c3.3,0,6,2.7,6,6v16C320,389.3,317.3,392,314,392z"
		/>
	<path fill="#454646" d="M307.3,432H204.7c-5,0-9.2-3.7-9.9-8.6l-1.8-12.5c-0.5-3.6,2.3-6.8,5.9-6.8h114.2c3.7,0,6.5,3.2,5.9,6.8
		l-1.8,12.5C316.5,428.3,312.3,432,307.3,432z"/>
</g>
</svg>
