<?xml version="1.0" encoding="utf-8"?>
<!-- Generator: Adobe Illustrator 16.0.4, SVG Export Plug-In . SVG Version: 6.00 Build 0)  -->
<!DOCTYPE svg PUBLIC "-//W3C//DTD SVG 1.1//EN" "http://www.w3.org/Graphics/SVG/1.1/DTD/svg11.dtd">
<svg version="1.1" id="Layer_1" xmlns="http://www.w3.org/2000/svg" xmlns:xlink="http://www.w3.org/1999/xlink" x="0px" y="0px"
	 width="512px" height="512px" viewBox="0 0 512 512" enable-background="new 0 0 512 512" xml:space="preserve">
<g>
	<path fill="#454646" d="M393.073,146.8l-65.865-65.873C319,72.722,302.783,66,291.171,66H125.111C113.5,66,104,75.5,104,87.111
		V424.89c0,11.61,9.5,21.11,21.111,21.11h261.778C398.5,446,408,436.5,408,424.89V182.837
		C408,171.227,401.283,155.005,393.073,146.8z M133.556,416.445V95.556h157.211v87.678h87.677v233.212H133.556z"/>
	<path fill-rule="evenodd" clip-rule="evenodd" fill="#454646" d="M346.514,287.586h-25.861c-7.142,0-12.931-5.782-12.931-12.932
		c0-7.134,5.789-12.931,12.931-12.931h25.861c7.141,0,12.93,5.797,12.93,12.931C359.444,281.804,353.655,287.586,346.514,287.586z
		 M310.86,238.081c-5.051,5.055-13.24,5.055-18.282,0c-5.051-5.047-5.051-13.228,0-18.283L310.86,201.5
		c5.051-5.039,13.236-5.039,18.288,0c5.05,5.055,5.05,13.252,0,18.298L310.86,238.081z M256,378.099
		c-7.142,0-12.931-5.781-12.931-12.931v-25.861c0-7.133,5.789-12.93,12.931-12.93s12.931,5.797,12.931,12.93v25.861
		C268.931,372.317,263.142,378.099,256,378.099z M256,222.932c-7.142,0-12.931-5.78-12.931-12.93v-25.861
		c0-7.134,5.789-12.931,12.931-12.931s12.931,5.797,12.931,12.931v25.861C268.931,217.151,263.142,222.932,256,222.932z
		 M201.14,347.801c-5.051,5.055-13.235,5.055-18.287,0c-5.047-5.047-5.047-13.244,0-18.282l18.287-18.3
		c5.051-5.038,13.24-5.038,18.287,0c5.047,5.056,5.047,13.253,0,18.3L201.14,347.801z M201.14,238.081l-18.287-18.283
		c-5.047-5.046-5.047-13.243,0-18.298c5.051-5.039,13.236-5.039,18.287,0l18.287,18.298c5.047,5.056,5.047,13.236,0,18.283
		C214.38,243.136,206.191,243.136,201.14,238.081z M204.278,274.654c0,7.149-5.789,12.932-12.931,12.932h-25.861
		c-7.141,0-12.93-5.782-12.93-12.932c0-7.134,5.789-12.931,12.93-12.931h25.861C198.489,261.724,204.278,267.521,204.278,274.654z
		 M310.86,311.219l18.288,18.3c5.05,5.038,5.05,13.235,0,18.282c-5.052,5.055-13.236,5.055-18.288,0l-18.282-18.282
		c-5.051-5.047-5.051-13.244,0-18.3C297.62,306.181,305.809,306.181,310.86,311.219z"/>
</g>
</svg>
