<?xml version="1.0" encoding="utf-8"?>
<!-- Generator: Adobe Illustrator 18.0.0, SVG Export Plug-In . SVG Version: 6.00 Build 0)  -->
<!DOCTYPE svg PUBLIC "-//W3C//DTD SVG 1.1//EN" "http://www.w3.org/Graphics/SVG/1.1/DTD/svg11.dtd">
<svg version="1.1" id="Ebene_1" xmlns="http://www.w3.org/2000/svg" xmlns:xlink="http://www.w3.org/1999/xlink" x="0px" y="0px"
	 width="512px" height="512px" viewBox="0 0 512 512" enable-background="new 0 0 512 512" xml:space="preserve">
<path id="XMLID_803_" fill="#454646" d="M455.2,392.6c-3.4-2.8-7.7-6-12.4-9.9c-4.7-3.9-10.1-8.2-15.9-13c-2.9-2.4-5.8-4.9-8.9-7.5
	c-3.1-2.6-6.3-5.1-9.5-8.1c-3.2-2.8-6.5-5.7-9.8-8.7c-3.3-3-6.6-6.2-9.9-9.3c-1.7-1.6-3.4-3.2-5.1-4.8c-1.6-1.7-3.3-3.4-4.9-5.1
	c-3.3-3.4-6.7-6.8-9.8-10.4c-6.4-7.2-12.7-14.7-18.3-22.6l-4.2-5.9c-1.4-2-2.5-4.1-3.8-6.1c-1.2-2.1-2.6-4.1-3.7-6.2
	c-1.1-2.1-2.2-4.2-3.3-6.3c-1.2-2.1-2-4.3-3-6.4c-0.9-2.2-2-4.2-2.8-6.4c-1.6-4.4-3.2-8.7-4.2-13.1c-2.3-8.7-3.8-17.4-4-25.8
	c-0.3-8.4,0.3-16.4,1.6-23.8c1.3-7.4,3.1-14.1,5.1-20c2.1-5.8,4.2-10.9,6.1-15c3.9-8.1,6.9-12.5,6.9-12.5s-1,0.7-2.8,2.3
	c-1.8,1.6-4.4,4-7.4,7.6c-2.9,3.5-6.5,7.9-9.8,13.6c-3.1,5.3-6.3,11.5-9,18.8c-5.5-4-11.4-7.3-17.6-9.9c0.3-5.9,0.5-11.4,0.9-16.3
	c0.5-5.4,0.8-10.2,1.3-14.1c0.9-7.9,1.6-12.4,1.6-12.4s-2.4,3.8-5.5,11.2c-2.9,6.6-6.3,16.1-9.3,27.8c-7.1-2-14.5-3.2-22.2-3.6
	c-1.1-9.7-2.3-17.8-3.3-23.8c-1.2-7.3-2.1-11.4-2.1-11.4s-0.9,4.2-2.1,11.4c-1,6-2.1,14.1-3.2,23.8c-4.8,0.2-9.8,0.7-14.8,1.5
	c-2.8,0.5-5.6,1-8.2,1.6c-3-11.4-6.3-20.7-9.2-27.1c-3.1-7.3-5.5-11.2-5.5-11.2s0.7,4.5,1.6,12.4c0.5,3.9,0.8,8.7,1.3,14.1
	c0.4,4.4,0.6,9.4,0.9,14.7c-8,2.4-14.5,5.1-18.7,7c-2.3-5.3-4.8-10.1-7.2-14.2c-3.3-5.7-6.9-10.1-9.8-13.6c-2.9-3.5-5.6-5.9-7.4-7.6
	c-1.8-1.6-2.8-2.3-2.8-2.3s2.9,4.4,6.8,12.5c1.9,4.1,4.1,9.1,6.1,15c2,5.9,3.8,12.6,5.1,20c1.3,7.4,1.8,15.4,1.6,23.8
	c-0.2,8.4-1.6,17.1-4,25.8c-1.1,4.4-2.7,8.7-4.2,13.1c-0.7,2.2-1.9,4.3-2.8,6.4c-1,2.1-1.8,4.3-3,6.4c-1.1,2.1-2.2,4.2-3.3,6.3
	c-1.1,2.1-2.5,4.1-3.7,6.2c-1.3,2-2.4,4.2-3.8,6.1l-4.2,5.9c-5.6,8-11.9,15.4-18.3,22.6c-3.1,3.7-6.6,7-9.8,10.4
	c-1.7,1.7-3.3,3.4-4.9,5.1c-1.7,1.6-3.4,3.2-5.1,4.8c-3.4,3.2-6.6,6.4-9.9,9.3c-3.3,3-6.6,5.9-9.8,8.7c-3.1,2.9-6.4,5.5-9.5,8.1
	c-3.1,2.6-6.1,5.1-8.9,7.5c-5.8,4.8-11.2,9.1-15.9,13c-4.7,3.9-9,7.1-12.4,9.9c-6.9,5.5-10.8,9-10.8,9s4.7-1.6,12.8-5
	c4-1.7,9-3.5,14.4-6.4c5.5-2.7,11.7-5.7,18.3-9.3c6.5-3.9,13.7-7.8,20.9-12.8c3.6-2.5,7.3-5.1,11.1-7.7c3.8-2.6,7.4-5.8,11.3-8.7
	c1.9-1.5,3.8-3,5.7-4.6c1.8-1.7,3.7-3.4,5.6-5c3.7-3.4,7.6-6.7,11.1-10.6c7.3-7.4,14.2-15.6,20.6-24.4l4.7-6.7
	c1.5-2.3,2.9-4.7,4.3-7c3-4.6,5.3-9.7,7.7-14.7c4.5-10.1,8.2-20.6,10-31.3c2-10.6,2.6-21.2,1.7-31.1c-0.6-7.2-1.9-14-3.6-20.2
	c3.2-1.5,8.3-3.6,14.6-5.6c0.1,3.4,0.1,7,0,10.6c0,7.5-0.4,15.4-0.9,23.5c-0.5,8.1-1.5,16.4-2.6,24.9c-1.2,8.4-2.6,16.9-4.5,25.2
	c-0.9,4.2-1.8,8.4-2.9,12.5l-1.6,6.2l-1.8,6.1c-2.4,8.1-5.1,15.9-7.9,23.4c-1.3,3.8-3,7.4-4.4,11c-1.4,3.6-3,7-4.5,10.4
	c-2.9,6.8-6.2,13-9.1,18.9c-1.5,2.9-3,5.6-4.4,8.2c-1.3,2.7-2.7,5.2-4.1,7.4c-2.8,4.5-4.8,8.8-6.9,12c-4,6.6-6.2,10.6-6.2,10.6
	s3.5-2.6,9.3-7.6c3-2.4,6.3-5.7,10-9.6c3.9-3.7,7.8-8.5,12.2-13.5c4.1-5.3,8.6-11.1,12.7-17.7c2.2-3.3,4.3-6.7,6.2-10.3
	c2-3.6,4.1-7.3,5.9-11.2c1.9-3.9,3.8-7.8,5.4-12c1.7-4.1,3.5-8.3,4.9-12.7c1.5-4.3,3-8.7,4.2-13.3c1.3-4.5,2.4-9,3.4-13.6
	c1.1-4.6,1.7-9.2,2.6-13.8c0.7-4.6,1.2-9.3,1.7-13.9c0.4-4.6,0.8-9.2,0.9-13.7c0.2-4.5,0.2-9,0.1-13.4c-0.2-13.9-1.9-26.8-4-38.3
	c5.7-1.2,12-2.2,18.6-2.6c-1,10.7-1.9,22.6-2.5,35.2c-0.4,7.8-0.7,15.9-0.9,24.1c-0.2,8.2-0.3,16.5-0.3,24.8
	c0.1,8.3,0.1,16.6,0.3,24.8c0.2,8.2,0.5,16.3,0.9,24.1c0.8,15.6,1.9,30.2,3.2,42.7c1.3,12.5,2.8,22.9,4,30.2
	c1.2,7.3,2.1,11.4,2.1,11.4s0.9-4.2,2.1-11.4c1.2-7.3,2.6-17.7,4-30.2c1.3-12.5,2.5-27.1,3.2-42.7c0.4-7.8,0.7-15.9,0.9-24.1
	c0.2-8.2,0.3-16.5,0.3-24.8c-0.1-8.3-0.1-16.7-0.3-24.8c-0.2-8.2-0.5-16.3-0.9-24.1c-0.6-12.6-1.5-24.4-2.5-35.1
	c5.9,0.4,11.8,1.4,17.8,3.1c-2.1,11.4-3.7,24.1-3.9,37.8c-0.1,4.4-0.1,8.9,0.1,13.4c0.1,4.5,0.5,9.1,0.8,13.7
	c0.5,4.6,1,9.2,1.7,13.9c0.9,4.6,1.5,9.3,2.6,13.8c1,4.6,2.1,9.2,3.4,13.6c1.2,4.5,2.6,8.9,4.2,13.3c1.4,4.4,3.1,8.6,4.8,12.7
	c1.6,4.2,3.6,8.1,5.5,12c1.8,3.9,3.9,7.6,5.9,11.2c2,3.6,4.1,7.1,6.2,10.3c4.1,6.7,8.7,12.4,12.7,17.7c4.4,5.1,8.3,9.8,12.2,13.5
	c3.8,3.8,7.1,7.1,10,9.6c5.8,5,9.3,7.6,9.3,7.6s-2.2-4-6.2-10.6c-2.1-3.2-4.2-7.5-6.9-12c-1.4-2.3-2.7-4.8-4.1-7.4
	c-1.4-2.6-2.9-5.4-4.4-8.2c-2.8-5.9-6.2-12-9.1-18.9c-1.5-3.4-3.2-6.8-4.5-10.4c-1.4-3.6-3.1-7.2-4.4-11c-2.9-7.5-5.5-15.4-7.9-23.4
	l-1.8-6.1l-1.6-6.2c-1.2-4.1-2-8.3-2.9-12.5c-1.9-8.4-3.3-16.8-4.5-25.2c-1.1-8.4-2-16.7-2.6-24.9c-0.6-8.1-0.9-16-0.9-23.5
	c-0.1-2.9,0-5.7,0-8.5c4.8,2.4,9.5,5.3,14,8.9c-1,4.7-1.8,9.7-2.3,14.9c-0.9,9.9-0.3,20.5,1.7,31.1c1.8,10.7,5.5,21.2,10,31.3
	c2.4,5,4.7,10,7.7,14.7c1.4,2.3,2.8,4.8,4.3,7l4.7,6.7c6.3,8.8,13.3,17,20.6,24.4c3.5,3.9,7.3,7.2,11.1,10.6c1.9,1.7,3.7,3.4,5.6,5
	c1.9,1.6,3.8,3.1,5.7,4.6c3.8,2.9,7.4,6.1,11.3,8.7c3.8,2.6,7.5,5.2,11.1,7.7c7.2,4.9,14.5,8.9,20.9,12.8c6.6,3.6,12.9,6.6,18.3,9.3
	c5.4,2.8,10.4,4.6,14.4,6.4c8.1,3.3,12.8,5,12.8,5S462.1,398.1,455.2,392.6z"/>
</svg>
