<?xml version="1.0" encoding="utf-8"?>
<!-- Generator: Adobe Illustrator 16.0.4, SVG Export Plug-In . SVG Version: 6.00 Build 0)  -->
<!DOCTYPE svg PUBLIC "-//W3C//DTD SVG 1.1//EN" "http://www.w3.org/Graphics/SVG/1.1/DTD/svg11.dtd">
<svg version="1.1" id="Ebene_1" xmlns="http://www.w3.org/2000/svg" xmlns:xlink="http://www.w3.org/1999/xlink" x="0px" y="0px"
	 width="512px" height="512px" viewBox="0 0 512 512" enable-background="new 0 0 512 512" xml:space="preserve">
<g>
	<path fill="#454646" d="M315.014,254.199c51.852,0,93.999-42.033,93.999-94c0-51.971-42.147-94.004-93.999-94.004
		c-51.865,0-94.002,42.033-94.002,94.004C221.012,212.167,263.148,254.199,315.014,254.199 M466,308.021
		c-0.545-18.45-15.611-33.19-34.281-33.19h-53.173l-43.119,74.682c-4.04-17.686-8.08-36.578-11.792-55.465
		c0,0,26.312-26.091,26.312-32.1c-13.646,8.847-34.933,8.847-34.933,8.847s-18.892-0.545-34.937-8.847
		c0,6.555,26.307,32.1,26.307,32.1c-3.712,18.887-7.748,37.779-11.788,55.465L251.47,274.83h-53.168
		c-12.664,0-23.693,6.879-29.697,17.145l-18.234,31.55c-2.51-10.812-4.909-22.272-7.202-33.731c0,0,16.047-15.832,16.047-19.544
		c-8.299,5.344-21.289,5.344-21.289,5.344s-11.462-0.323-21.289-5.344c0,4.04,16.047,19.544,16.047,19.544
		c-2.185,11.459-4.692,23.03-7.203,33.731l-26.205-45.417H66.854c-11.357,0-20.527,9.064-20.854,20.196v63.103
		c0,11.574,9.388,20.853,20.854,20.853h20.852v-39.08h4.582v39.08h71.624v29.261c0,18.888,15.393,34.284,34.281,34.284h34.281
		v-64.087h7.644v64.087h149.681v-64.087h7.64v64.087h34.281c18.888,0,34.281-15.396,34.281-34.284V308.021z M137.926,265.441
		c31.66,0,57.317-25.655,57.317-57.315c0-31.66-25.657-57.319-57.317-57.319c-31.66,0-57.317,25.659-57.317,57.319
		C80.718,239.786,106.375,265.441,137.926,265.441"/>
</g>
</svg>
