<?xml version="1.0" encoding="utf-8"?>
<!-- Generator: Adobe Illustrator 16.0.4, SVG Export Plug-In . SVG Version: 6.00 Build 0)  -->
<!DOCTYPE svg PUBLIC "-//W3C//DTD SVG 1.1//EN" "http://www.w3.org/Graphics/SVG/1.1/DTD/svg11.dtd">
<svg version="1.1" id="Layer_1" xmlns="http://www.w3.org/2000/svg" xmlns:xlink="http://www.w3.org/1999/xlink" x="0px" y="0px"
	 width="512px" height="512px" viewBox="0 0 512 512" enable-background="new 0 0 512 512" xml:space="preserve">
<path fill="#454646" d="M427,66H85.004C74.543,66,66,74.552,66,85.008V427c0,10.448,8.543,19,19.004,19H427c10.444,0,19-8.552,19-19
	V85.008C446,74.552,437.444,66,427,66z M186.032,422.59H94.116v-83.492h91.916V422.59z M186.032,326.19H94.116v-188.6h91.916V326.19
	z M341.413,422.59H198.934v-32.947h142.479V422.59z M341.413,376.748H198.934V256.21h142.479V376.748z M341.413,243.298H198.934
	V137.59h142.479V243.298z M417.979,422.59h-63.659V191.558h63.659V422.59z M417.979,178.644h-63.659V137.59h63.659V178.644z"/>
</svg>
