<?xml version="1.0" encoding="utf-8"?>
<!-- Generator: Adobe Illustrator 16.0.4, SVG Export Plug-In . SVG Version: 6.00 Build 0)  -->
<!DOCTYPE svg PUBLIC "-//W3C//DTD SVG 1.1//EN" "http://www.w3.org/Graphics/SVG/1.1/DTD/svg11.dtd">
<svg version="1.1" id="Layer_1" xmlns="http://www.w3.org/2000/svg" xmlns:xlink="http://www.w3.org/1999/xlink" x="0px" y="0px"
	 width="512px" height="512px" viewBox="0 0 512 512" enable-background="new 0 0 512 512" xml:space="preserve">
<g>
	<path fill="#454646" d="M68.107,184.96c-6.435,0-11.726-2.026-15.881-6.075C48.071,174.833,46,169.546,46,163.021
		c0-6.524,2.071-11.867,6.226-16.03c4.155-4.163,9.446-6.246,15.881-6.246c6.431,0,11.722,2.083,15.881,6.246
		c4.146,4.163,6.226,9.506,6.226,16.03c0,6.525-2.08,11.812-6.226,15.864C79.83,182.934,74.539,184.96,68.107,184.96z M48.535,201.5
		h38.809v165.705H48.535V201.5z"/>
	<path fill="#454646" d="M205.46,371.255c-14.4,0-27.562-2.647-39.481-7.934c-11.932-5.282-22.227-12.932-30.885-22.942
		c-8.663-10.014-15.356-22.107-20.081-36.285c-4.721-14.173-7.084-30.26-7.084-48.264c0-17.77,2.363-33.692,7.084-47.752
		c4.725-14.059,11.418-25.933,20.081-35.608c8.658-9.669,18.953-17.095,30.885-22.274c11.919-5.168,25.081-7.758,39.481-7.758
		c14.396,0,27.562,2.59,39.49,7.758c11.923,5.179,22.156,12.605,30.712,22.274c8.544,9.675,15.185,21.549,19.909,35.608
		c4.725,14.06,7.088,29.982,7.088,47.752c0,18.003-2.363,34.09-7.088,48.264c-4.725,14.177-11.365,26.271-19.909,36.285
		c-8.556,10.01-18.789,17.66-30.712,22.942C233.023,368.607,219.857,371.255,205.46,371.255z M205.46,337.171
		c8.552,0,16.369-1.914,23.457-5.74c7.087-3.826,13.104-9.283,18.055-16.372c4.947-7.083,8.777-15.631,11.477-25.646
		c2.699-10.01,4.052-21.203,4.052-33.582c0-24.744-5.18-44.147-15.529-58.215c-10.352-14.059-24.19-21.093-41.512-21.093
		c-17.546,0-31.504,7.034-41.848,21.093c-10.352,14.068-15.524,33.471-15.524,58.215c0,12.379,1.349,23.572,4.052,33.582
		c2.699,10.015,6.579,18.564,11.645,25.646c5.062,7.089,11.078,12.546,18.051,16.372
		C188.812,335.257,196.687,337.171,205.46,337.171z"/>
	<path fill="#454646" d="M329.992,312.192c7.871,7.426,16.87,13.447,27,18.058c10.123,4.618,20.36,6.921,30.713,6.921
		c12.366,0,21.877-2.582,28.514-7.766c6.637-5.174,9.959-12.035,9.959-20.584c0-4.496-0.845-8.324-2.531-11.473
		c-1.686-3.151-4.052-5.913-7.087-8.271c-3.04-2.366-6.698-4.559-10.972-6.579c-4.274-2.026-8.889-4.051-13.835-6.077
		l-30.036-13.164c-5.402-2.242-10.799-5.063-16.201-8.435c-5.398-3.377-10.18-7.427-14.343-12.15
		c-4.167-4.719-7.539-10.229-10.123-16.538c-2.588-6.292-3.88-13.5-3.88-21.601c0-8.774,1.854-16.925,5.566-24.468
		c3.712-7.535,8.826-14.116,15.356-19.744c6.526-5.617,14.286-10.003,23.289-13.162c8.995-3.147,18.896-4.721,29.695-4.721
		c13.047,0,25.532,2.529,37.464,7.592c11.923,5.061,22.156,11.869,30.712,20.418l-20.25,24.972
		c-6.98-5.845-14.347-10.461-22.107-13.834c-7.76-3.38-16.365-5.064-25.819-5.064c-10.578,0-18.953,2.314-25.146,6.922
		c-6.186,4.61-9.278,10.965-9.278,19.068c0,4.274,0.959,7.929,2.871,10.965c1.907,3.038,4.496,5.741,7.76,8.1
		c3.261,2.362,7.03,4.503,11.308,6.413c4.27,1.915,8.659,3.767,13.162,5.569l29.699,12.485c6.526,2.706,12.543,5.855,18.056,9.451
		c5.508,3.601,10.233,7.761,14.175,12.489c3.934,4.722,6.973,10.184,9.109,16.365c2.137,6.195,3.208,13.332,3.208,21.434
		c0,9.003-1.809,17.44-5.402,25.309c-3.596,7.882-8.826,14.797-15.688,20.756c-6.87,5.964-15.188,10.691-24.979,14.175
		c-9.786,3.484-20.869,5.231-33.239,5.231c-14.852,0-29.142-2.815-42.861-8.438c-13.728-5.62-25.876-13.61-36.45-23.962
		L329.992,312.192z"/>
</g>
</svg>
