<?xml version="1.0" encoding="utf-8"?>
<!-- Generator: Adobe Illustrator 18.1.0, SVG Export Plug-In . SVG Version: 6.00 Build 0)  -->
<svg version="1.1" id="Ebene_1" xmlns="http://www.w3.org/2000/svg" xmlns:xlink="http://www.w3.org/1999/xlink" x="0px" y="0px"
	 width="512px" height="512px" viewBox="0 0 512 512" enable-background="new 0 0 512 512" xml:space="preserve">
<path fill="#454646" d="M457.1,181.1c-21.7-37.4-63.1-55.1-105.5-49.8c-44.4,5.5-76.5,38.1-95.6,76.6
	c-19.1-38.5-51.2-71.1-95.6-76.6C118,126,76.6,143.7,54.9,181.1c-22.8,39.3-24.6,93.7-7.3,135.4c15,36.1,46.9,60.9,86.1,64.5
	c26.4,2.4,53.2-4,74.9-19.3c20.8-14.6,36.1-35.9,47.4-58.4c11.3,22.5,26.6,43.8,47.4,58.4c21.8,15.3,48.6,21.7,74.9,19.3
	c39.2-3.6,71.1-28.4,86.1-64.5C481.7,274.8,479.9,220.4,457.1,181.1z M182.3,318.8c-16.5,11.3-39.5,13.1-56.7,2.2
	c-17.4-11-24.6-32.1-26.6-51.7c-2.5-23.8,0.4-53,17.7-71.2c16.2-17,43.1-18.6,62.7-6.6c22.8,14,35.3,41.1,45.4,64.7
	C215.2,279,195.5,309.7,182.3,318.8z M413,269.3c-2,19.5-9.3,40.7-26.6,51.7c-17.2,10.9-40.2,9.1-56.7-2.2
	c-13.3-9.2-32.9-39.8-42.5-62.5c10.1-23.6,22.7-50.7,45.4-64.7c19.5-12,46.4-10.4,62.7,6.6C412.7,216.3,415.5,245.5,413,269.3z"/>
</svg>
