<?xml version="1.0" encoding="utf-8"?>
<!-- Generator: Adobe Illustrator 16.0.4, SVG Export Plug-In . SVG Version: 6.00 Build 0)  -->
<!DOCTYPE svg PUBLIC "-//W3C//DTD SVG 1.1//EN" "http://www.w3.org/Graphics/SVG/1.1/DTD/svg11.dtd">
<svg version="1.1" id="Layer_1" xmlns="http://www.w3.org/2000/svg" xmlns:xlink="http://www.w3.org/1999/xlink" x="0px" y="0px"
	 width="512px" height="512px" viewBox="0 0 512 512" enable-background="new 0 0 512 512" xml:space="preserve">
<path fill="#454646" d="M389,66H123c-10.452,0-19,8.539-19,19v342c0,10.44,8.548,19,19,19h266c10.447,0,19-8.56,19-19V85
	C408,74.539,399.447,66,389,66z M256,381.586c-8.923,0-16.15-7.231-16.15-16.154s7.228-16.146,16.15-16.146
	c8.914,0,16.146,7.224,16.146,16.146S264.914,381.586,256,381.586z M357.783,200.509h-203.57v-30.396h203.57V200.509z
	 M357.783,149.851h-203.57v-30.405h203.57V149.851z"/>
</svg>
