<?xml version="1.0" encoding="utf-8"?>
<!-- Generator: Adobe Illustrator 19.2.1, SVG Export Plug-In . SVG Version: 6.00 Build 0)  -->
<svg version="1.1" id="Work_area" xmlns="http://www.w3.org/2000/svg" xmlns:xlink="http://www.w3.org/1999/xlink" x="0px" y="0px"
	 width="512px" height="512px" viewBox="0 0 512 512" enable-background="new 0 0 512 512" xml:space="preserve">
<g>
	<g>
		<path fill="#454646" d="M256,66C151.1,66,66.1,151,66,255.9v147c0.1,23.8,19.4,43.1,43.2,43.1h146.9C361,446,446,360.9,446,256
			C446,151.1,360.9,66,256,66z M117.6,404.4c-19.2-16.4-31.3-40.7-31.3-67.8c0-39.5,25.8-73.1,61.4-84.8c-2.3,5.1-3.5,10.7-3.5,16.5
			c0,10,3.6,19.2,9.7,26.3c-15.2,7.9-25.6,23.7-25.6,42c0,11.5,4.1,22,11,30.2c-13.1,6.5-21.7,19.7-21.7,35.7
			C117.5,403.1,117.5,403.8,117.6,404.4z M327.6,154.3c-0.1,0-0.3,0-0.4,0c-0.2,0-0.5,0-0.7,0c-0.1,0-0.3,0-0.4,0
			c-0.2,0-0.4,0-0.6,0c-0.2,0-0.3,0-0.5,0c-0.2,0-0.3,0-0.5,0c-0.2,0-0.3,0-0.5,0c-0.1,0-0.2,0-0.4,0c-1.2-0.1-2.3-0.3-3.6-0.4l0,0
			c-2.1-0.2-4.6-0.4-8.3-0.4c-26,0-47,21-47.1,47V241c0,3,2,5.6,4.8,6.4c0.3,0.1,0.5,0.1,0.8,0.2c0.1,0,0.1,0,0.2,0
			c0.3,0,0.6,0.1,0.9,0.1l30.9,0c11.5,0,20.8,9.2,20.8,20.7c0,11.6-9.4,20.8-21,20.8h-37.3v47.3c0,49.2-39.9,89.2-89.2,89.2
			c-7.5,0-12.8-0.8-19.7-2.7c-10.1-2.6-18.3-10.9-18.3-20.5c0-11.6,8.4-20.1,21.1-20.1c0.4,0,0.8,0,1.2,0c0.1,0,0.2,0,0.4,0
			c0.2,0,0.5,0,0.7,0c0.1,0,0.3,0,0.4,0c0.2,0,0.4,0,0.6,0c0.2,0,0.3,0,0.5,0c0.2,0,0.3,0,0.5,0c0.2,0,0.3,0,0.5,0
			c0.1,0,0.2,0,0.4,0c1.1,0.1,2.3,0.3,3.5,0.4v0c2.1,0.2,4.6,0.4,8.3,0.4c26,0,47-21,47.1-47v-40.9c0-3-2-5.6-4.8-6.4
			c-0.3-0.1-0.5-0.1-0.8-0.2c-0.1,0-0.1,0-0.2,0c-0.3,0-0.6-0.1-0.9-0.1l-30.9,0c-11.5,0-20.8-9.2-20.8-20.7
			c0-11.6,9.4-20.8,21-20.8h37.3v-47.3c0-49.2,39.9-89.2,89.2-89.2c7.5,0,12.8,0.8,19.7,2.7c10.1,2.6,18.3,10.9,18.3,20.5
			c0,11.6-8.4,20.1-21.1,20.1C328.3,154.3,328,154.3,327.6,154.3z M339.6,285c2.3-5.1,3.5-10.7,3.5-16.5c0-10-3.6-19.2-9.7-26.3
			c15.2-7.9,25.6-23.7,25.6-42c0-11.5-4.1-22-11-30.2c13.1-6.5,21.7-19.7,21.7-35.7c0-0.7,0-1.3-0.1-1.9
			c19.2,16.4,31.3,40.7,31.3,67.8C401.1,239.6,375.3,273.2,339.6,285z"/>
	</g>
</g>
</svg>
