<?xml version="1.0" encoding="utf-8"?>
<!-- Generator: Adobe Illustrator 16.0.4, SVG Export Plug-In . SVG Version: 6.00 Build 0)  -->
<!DOCTYPE svg PUBLIC "-//W3C//DTD SVG 1.1//EN" "http://www.w3.org/Graphics/SVG/1.1/DTD/svg11.dtd">
<svg version="1.1" id="Layer_1" xmlns="http://www.w3.org/2000/svg" xmlns:xlink="http://www.w3.org/1999/xlink" x="0px" y="0px"
	 width="512px" height="512px" viewBox="0 0 512 512" enable-background="new 0 0 512 512" xml:space="preserve">
<g>
	<g>
		<path fill="#454646" d="M256,446c-104.768,0-190-85.233-190-190S151.232,66,256,66c104.764,0,190,85.233,190,190
			S360.764,446,256,446z M256,86.911c-93.237,0-169.089,75.852-169.089,169.089S162.763,425.089,256,425.089
			c93.233,0,169.089-75.852,169.089-169.089S349.233,86.911,256,86.911z"/>
	</g>
	<g>
		<g>
			<path fill="#454646" d="M166.217,216.226c0-14.439,11.701-26.14,26.141-26.14c14.436,0,26.136,11.701,26.136,26.14
				c0,14.439-11.7,26.14-26.136,26.14C177.918,242.366,166.217,230.666,166.217,216.226z"/>
		</g>
		<g>
			<path fill="#454646" d="M293.502,216.226c0-14.439,11.701-26.14,26.141-26.14s26.14,11.701,26.14,26.14
				c0,14.439-11.7,26.14-26.14,26.14S293.502,230.666,293.502,216.226z"/>
		</g>
	</g>
	<g>
		<path fill="#454646" d="M338.75,373.763c-5.44,0-10.609-3.206-12.854-8.535c-10.595-25.138-38.683-42.034-69.896-42.034
			c-31.217,0-59.305,16.896-69.896,42.034c-2.991,7.099-11.166,10.443-18.262,7.433c-7.095-2.987-10.425-11.163-7.433-18.258
			c14.888-35.343,53.304-59.093,95.59-59.093c42.282,0,80.694,23.75,95.59,59.093c2.991,7.095-0.338,15.271-7.433,18.258
			C342.387,373.41,340.553,373.763,338.75,373.763z"/>
	</g>
</g>
</svg>
