<?xml version="1.0" encoding="utf-8"?>
<!-- Generator: Adobe Illustrator 16.0.4, SVG Export Plug-In . SVG Version: 6.00 Build 0)  -->
<!DOCTYPE svg PUBLIC "-//W3C//DTD SVG 1.1//EN" "http://www.w3.org/Graphics/SVG/1.1/DTD/svg11.dtd">
<svg version="1.1" id="Layer_1" xmlns="http://www.w3.org/2000/svg" xmlns:xlink="http://www.w3.org/1999/xlink" x="0px" y="0px"
	 width="512px" height="512px" viewBox="0 0 512 512" enable-background="new 0 0 512 512" xml:space="preserve">
<path fill="#454646" d="M424.477,276.313c0.793-6.665,1.254-13.43,1.254-20.313c0-9.764-0.875-19.319-2.456-28.634l20.855-16.576
	c-5.537-23.135-15.186-44.621-28.203-63.706l-26.696,3.833c-10.072-12.747-21.925-24.017-35.195-33.424l3.043-26.504
	C337.581,79.021,315.806,70.453,292.553,66l-16.231,21.523C269.656,86.726,262.88,86.27,256,86.27
	c-9.768,0-19.319,0.868-28.634,2.452l-16.565-20.866c-22.963,5.503-44.338,15.062-63.316,27.929l3.748,26.733
	c-12.884,10.131-24.262,22.072-33.747,35.458l-26.503-3.035C79.025,174.423,70.438,196.19,66,219.451l21.523,16.246
	c-0.794,6.657-1.254,13.427-1.254,20.303c0,9.611,0.838,19.026,2.375,28.195l-20.9,16.495c5.478,23.156,15.066,44.714,28.032,63.828
	l26.741-3.744c10.123,12.877,22.058,24.247,35.439,33.736l-3.035,26.504c19.489,11.968,41.266,20.532,64.525,24.985l16.246-21.52
	c6.665,0.794,13.426,1.254,20.307,1.254c9.76,0,19.318-0.872,28.633-2.456l16.559,20.866c22.964-5.503,44.346-15.056,63.309-27.921
	l-3.74-26.737c12.877-10.116,24.247-22.055,33.732-35.429l26.51,3.039c11.973-19.52,20.545-41.287,24.998-64.544L424.477,276.313z
	 M321.186,295.938l-10.516-1.203c-3.741,5.267-8.217,9.968-13.293,13.957l1.484,10.606c-7.488,5.084-15.943,8.857-25.012,11.032
	l-6.584-8.294c-3.666,0.62-7.421,1.021-11.266,1.021c-2.717,0-5.373-0.212-8-0.523l-6.443,8.531
	c-9.188-1.759-17.791-5.143-25.494-9.874l1.203-10.51c-5.27-3.74-9.968-8.22-13.961-13.293l-10.605,1.484
	c-5.121-7.555-8.906-16.064-11.074-25.219l8.312-6.558c-0.602-3.618-0.994-7.307-0.994-11.096c0-2.709,0.207-5.37,0.52-7.997
	l-8.527-6.442c1.759-9.185,5.15-17.79,9.871-25.482l10.508,1.202c3.742-5.277,8.225-9.979,13.301-13.976l-1.484-10.599
	c7.496-5.08,15.942-8.857,25.012-11.032l6.584,8.29c3.674-0.62,7.422-1.017,11.273-1.017c2.709,0,5.381,0.2,8.008,0.52l6.428-8.528
	c9.195,1.763,17.79,5.147,25.494,9.875l-1.202,10.51c5.224,3.711,9.894,8.142,13.864,13.17l10.59-1.521
	c5.137,7.537,8.959,16.031,11.141,25.168l-8.291,6.59c0.625,3.678,1.018,7.422,1.018,11.271c0,2.717-0.207,5.377-0.52,8.001
	l8.528,6.442C329.299,279.628,325.914,288.233,321.186,295.938z"/>
</svg>
