<?xml version="1.0" encoding="utf-8"?>
<!-- Generator: Adobe Illustrator 19.2.1, SVG Export Plug-In . SVG Version: 6.00 Build 0)  -->
<svg version="1.1" id="Ebene_1" xmlns="http://www.w3.org/2000/svg" xmlns:xlink="http://www.w3.org/1999/xlink" x="0px" y="0px"
	 width="512px" height="512px" viewBox="0 0 512 512" enable-background="new 0 0 512 512" xml:space="preserve">
<g id="XMLID_414_">
	<polygon fill="#454646" points="168,378 194.7,351.1 118.6,275 303.1,275 303.1,237 118.6,237 194.8,160.8 167.9,134 46,256 	"/>
	<path fill="#454646" d="M264.6,160.6V112H430v288H264.6v-48.7h-36V420c0,8.8,7.2,16,16,16H450c8.8,0,16-7.2,16-16V92
		c0-8.8-7.2-16-16-16H244.6c-8.8,0-16,7.2-16,16v68.6H264.6z"/>
</g>
</svg>
