<?xml version="1.0" encoding="utf-8"?>
<!-- Generator: Adobe Illustrator 16.0.4, SVG Export Plug-In . SVG Version: 6.00 Build 0)  -->
<!DOCTYPE svg PUBLIC "-//W3C//DTD SVG 1.1//EN" "http://www.w3.org/Graphics/SVG/1.1/DTD/svg11.dtd">
<svg version="1.1" id="Layer_1" xmlns="http://www.w3.org/2000/svg" xmlns:xlink="http://www.w3.org/1999/xlink" x="0px" y="0px"
	 width="512px" height="512px" viewBox="0 0 512 512" enable-background="new 0 0 512 512" xml:space="preserve">
<g>
	<g>
		<path fill-rule="evenodd" clip-rule="evenodd" fill="#454646" d="M229.608,127.453c-51.22,10.493-91.66,50.942-102.16,102.153
			c17.495-11.708,46.299-19.752,78.306-23.843C209.85,173.747,217.894,144.95,229.608,127.453z"/>
		<path fill-rule="evenodd" clip-rule="evenodd" fill="#454646" d="M219.146,219.15c-1.048,11.42-1.642,23.722-1.642,36.85
			c0,13.137,0.594,25.438,1.642,36.859c11.418,1.048,23.72,1.642,36.852,1.642c13.137,0,25.438-0.594,36.857-1.642
			c1.048-11.42,1.642-23.722,1.642-36.859c0-13.127-0.594-25.429-1.642-36.85c-11.418-1.048-23.72-1.642-36.857-1.642
			C242.866,217.508,230.564,218.102,219.146,219.15z"/>
		<path fill-rule="evenodd" clip-rule="evenodd" fill="#454646" d="M204.135,291.143c-1.011-11.597-1.535-23.425-1.535-35.143
			s0.524-23.537,1.535-35.143c-50.121,6.847-79.358,22.85-79.358,35.143C124.776,268.302,154.014,284.305,204.135,291.143z"/>
		<path fill-rule="evenodd" clip-rule="evenodd" fill="#454646" d="M387.219,256c0-12.292-29.237-28.287-79.354-35.143
			c1.011,11.606,1.533,23.425,1.533,35.143s-0.522,23.546-1.533,35.143C357.981,284.296,387.219,268.302,387.219,256z"/>
		<path fill-rule="evenodd" clip-rule="evenodd" fill="#454646" d="M384.554,229.606c-10.502-51.211-50.944-91.661-102.162-102.153
			c11.715,17.497,19.759,46.294,23.852,78.31C338.253,209.854,367.055,217.898,384.554,229.606z"/>
		<path fill-rule="evenodd" clip-rule="evenodd" fill="#454646" d="M255.998,202.6c11.715,0,23.543,0.529,35.143,1.54
			c-6.849-50.125-22.843-79.358-35.14-79.358s-28.293,29.233-35.14,79.358C232.457,203.128,244.285,202.6,255.998,202.6z"/>
		<path fill-rule="evenodd" clip-rule="evenodd" fill="#454646" d="M127.448,282.394c10.5,51.22,50.94,91.66,102.16,102.162
			c-11.715-17.497-19.759-46.303-23.854-78.31C173.747,302.155,144.943,294.111,127.448,282.394z"/>
		<path fill-rule="evenodd" clip-rule="evenodd" fill="#454646" d="M282.392,384.556c51.218-10.502,91.66-50.942,102.162-102.162
			c-17.499,11.717-46.301,19.761-78.31,23.852C302.15,338.253,294.106,367.059,282.392,384.556z"/>
		<path fill-rule="evenodd" clip-rule="evenodd" fill="#454646" d="M255.998,309.4c-11.712,0-23.541-0.52-35.138-1.531
			c6.847,50.116,22.843,79.349,35.14,79.349s28.291-29.233,35.14-79.349C279.541,308.881,267.713,309.4,255.998,309.4z"/>
		<path fill-rule="evenodd" clip-rule="evenodd" fill="#454646" d="M256,85.046c-94.42,0-170.958,76.547-170.958,170.954
			c0,94.425,76.538,170.963,170.958,170.963c94.418,0,170.958-76.538,170.958-170.963C426.958,161.594,350.418,85.046,256,85.046z
			 M256,402.127c-80.571,0-146.123-65.554-146.123-146.127S175.429,109.882,256,109.882S402.123,175.426,402.123,256
			S336.571,402.127,256,402.127z"/>
	</g>
	<g>
		<path fill="#454646" d="M256,446c-104.765,0-190-85.231-190-190c0-104.769,85.235-190,190-190s190,85.231,190,190
			C446,360.769,360.765,446,256,446z M256,75.936c-99.289,0-180.068,80.778-180.068,180.064c0,99.295,80.78,180.073,180.068,180.073
			c99.286,0,180.066-80.778,180.066-180.073C436.066,156.714,355.286,75.936,256,75.936z"/>
	</g>
</g>
</svg>
