<?xml version="1.0" encoding="utf-8"?>
<!-- Generator: Adobe Illustrator 16.0.4, SVG Export Plug-In . SVG Version: 6.00 Build 0)  -->
<!DOCTYPE svg PUBLIC "-//W3C//DTD SVG 1.1//EN" "http://www.w3.org/Graphics/SVG/1.1/DTD/svg11.dtd">
<svg version="1.1" id="Layer_1" xmlns="http://www.w3.org/2000/svg" xmlns:xlink="http://www.w3.org/1999/xlink" x="0px" y="0px"
	 width="512px" height="512px" viewBox="0 0 512 512" enable-background="new 0 0 512 512" xml:space="preserve">
<path fill="#454646" d="M212.648,71.163c-2.68,0.496-4.365,0.794-6.053,1.19C115.119,95.769,53.507,187.742,68.19,281.004
	c12.402,78.975,58.239,130.567,133.941,156.165c4.563,1.488,6.448,0.795,8.136-3.969c29.169-82.349,58.637-164.499,87.904-246.848
	c1.886-5.358,4.465-7.144,10.121-6.945c18.254,0.397,36.511,0.1,54.767,0.198c3.571,0,7.243,0.298,10.813,0.893
	c14.586,2.48,21.828,13.89,17.959,28.177c-0.396,1.588-0.893,3.175-1.389,4.663c-12.006,33.733-23.912,67.565-36.016,101.299
	c-4.266,12.006-12.601,17.76-25.498,17.76c-11.609,0.099-23.217,0.297-34.727-0.099c-4.961-0.198-7.143,1.29-8.83,6.052
	c-11.311,32.444-23.018,64.788-34.625,97.231c-0.992,2.878-1.887,5.754-3.375,10.418c15.18-1.587,29.27-2.083,43.061-4.465
	c92.369-15.974,166.582-102.291,154.181-208.849c-5.953-51.294-29.864-93.362-70.146-125.607
	c-33.039-26.49-70.938-40.381-113.502-41.075c-4.168-0.1-5.854,1.588-7.243,5.357c-12.104,34.329-24.308,68.558-36.511,102.788
	c-0.596,1.786-1.092,3.671-1.787,6.25c8.83,0,17.166,0,25.499,0c20.141,0,30.459,13.791,23.812,32.84
	c-12.699,36.709-26.094,73.32-38.992,109.931c-1.09,3.175-2.976,3.869-6.051,3.869c-10.121-0.099-20.24,0-30.361,0
	c-1.687,0-3.372-0.298-5.953-0.595c14.883-41.67,29.468-82.448,44.252-123.821c-5.756,0-10.518,0.297-15.182-0.1
	c-4.266-0.396-5.953,1.389-7.242,5.159c-12.501,35.52-25.2,70.939-37.9,106.359c-4.662,12.997-4.662,12.997-18.553,12.997
	c-8.83,0-17.661,0-27.582,0C151.631,241.417,181.891,156.886,212.648,71.163z M295.493,310.273c5.854,0,10.616-0.199,15.28,0.099
	c3.968,0.198,5.654-1.389,6.943-5.06c9.525-27.385,19.348-54.569,29.071-81.953c2.382-6.747,4.761-13.494,7.343-20.935
	c-5.457,0-10.121,0.297-14.686-0.099c-4.266-0.397-5.953,1.488-7.242,5.259c-8.334,23.812-16.867,47.425-25.301,71.236
	C303.133,288.941,299.562,299.062,295.493,310.273z"/>
</svg>
