<?xml version="1.0" encoding="utf-8"?>
<!-- Generator: Adobe Illustrator 18.1.1, SVG Export Plug-In . SVG Version: 6.00 Build 0)  -->
<svg version="1.1" id="Ebene_1" xmlns="http://www.w3.org/2000/svg" xmlns:xlink="http://www.w3.org/1999/xlink" x="0px" y="0px"
	 width="512px" height="512px" viewBox="0 0 512 512" enable-background="new 0 0 512 512" xml:space="preserve">
<g>
	<g>
		<path fill="#454646" d="M88,424V46H67c-11.5,0-21,9.5-21,21v378c0,11.5,9.5,21,21,21h378c11.5,0,21-9.5,21-21v-21H88z"/>
	</g>
	<g>
		<polygon fill="#454646" points="368.6,338.2 466,261.2 466,229.1 364.1,309.7 223.8,257.6 113.4,365 113.4,398.6 114.6,398.6 
			229.8,286.6 		"/>
		<polygon fill="#454646" points="369.5,266.3 466,186.5 466,153.8 363.2,238.8 223.1,203.6 113.4,310.4 113.4,345.6 230.6,231.5 		
			"/>
		<polygon fill="#454646" points="370.5,194.4 466,108.5 466,74.6 362.2,167.9 222.4,149.7 113.4,255.8 113.4,291 231.3,176.2 		"/>
	</g>
</g>
</svg>
