<?xml version="1.0" encoding="utf-8"?>
<!-- Generator: Adobe Illustrator 16.0.4, SVG Export Plug-In . SVG Version: 6.00 Build 0)  -->
<!DOCTYPE svg PUBLIC "-//W3C//DTD SVG 1.1//EN" "http://www.w3.org/Graphics/SVG/1.1/DTD/svg11.dtd">
<svg version="1.1" id="Layer_1" xmlns="http://www.w3.org/2000/svg" xmlns:xlink="http://www.w3.org/1999/xlink" x="0px" y="0px"
	 width="512px" height="512px" viewBox="0 0 512 512" enable-background="new 0 0 512 512" xml:space="preserve">
<g>
	<path fill="#454646" d="M255.999,66C152.499,66,66,152.5,66,256s86.499,190,189.999,190S446,359.5,446,256S359.499,66,255.999,66z
		 M323.399,155.5c2.899,3.4,3.4,4.5,7.5,6.1c-0.399-2.6-0.1,2.7,0.6,3.1c2.7,1.7,1.7-2.3,5.3,1.6c-1.399-0.5-2.6-0.4-3.5,0.4
		c-0.3,1.1,5.5,11.1,6.4,13.3c-9.9,1.3-12.5-3.8-13.2-12.3c-0.1-1.7-6-6.6-7.101-7.7c-4.399-6.7-2.3-7.601,3.701-11.5
		C332.399,151.3,322.899,154.9,323.399,155.5C324.7,157,323.399,155.4,323.399,155.5z M318.399,96.6
		C318,96.7,316.799,96,318.399,96.6C318.399,96.7,318.199,96.5,318.399,96.6z M255.999,427.201c-31.8,0-63.299-8.9-90.299-25.701
		c-13.101-8.1-25-18-35.4-29.3c-2.2-2.4-4.4-4.9-6.5-7.4c-3.9-4.8-4-5.8-2.9-11.9c0.7-5.4-2-11.399-2.5-16.699
		c0.9,1.299,4.301-7.901,4.5-9.501c-0.301-6.499-1-9.5-6.5-13.299c-2.6-3.2-3.3-5.8-7.399-6.4c-1.101-0.9-4.201-2.3-4.4-3.2
		c-0.2-0.8-3.4-5.1-4.2-5.1c-3.3-0.2,0.3,2.1-2,2.2c3.9-1.101-2-4.9-2.1-5c-0.801,0.9-1,2-0.4,3.5c-1.1-0.399,2.2-20.9-4.8-21.8
		c-0.9-0.2-7-12.3-5.2-14.7c-0.8,1-1.101,2.2-0.7,3.5C82,211.6,105.6,157.8,148,123.2c46.5-37.9,111.1-48.6,167.399-27.8
		c-14.2-1.4,2.601,3.7,3.6,5.9c-2.399-0.6-12.1-4.4-14.3-2.7c0.1,0.7,0.7,1.2,1.6,1.4c-3.699-0.201-7.1,1.5-10.5-0.101
		c-0.699-0.4-4.999,1.6-5.699,1.8c-6.9,0.9,17.6,3.7-4.5,0.5c0.7,0.1,1.3-0.1,1.6-0.6c-0.101-0.4-5-1.2-5.4-1
		c-0.399,1.4,0.4,2.5,2.4,3.4c-2.7-0.4-8.6-0.2-4.2,3.2c-0.6-0.1-6.5-1-6.999-0.6c0.1,0.9,0.699,1.5,1.899,1.8
		c-4.7-1.3-3.801-3.3-8.2-4.8c0,0,14.6,0.8,12.9-0.8c-3.7-3.2-10.9-3.6-15.501-4.1c-2.799-0.3-7.299-2.9-10.399-2.2
		C247.7,97.7,242.1,99.8,237,101.3c-4.7,1.4-4.801,5.1-8.4,7.2c-4.601,2.7-10.4,3.1-11.601,8.4c0,0.1,2.7,6.4,2.7,6.5
		c0.4,0.9,12.001-1.4,4.3-0.4c0.801-0.2,3.4-2.8,4.101-3.3c1.399,1.1,1,2.9,2.4,4.7c-2.101,0.9,0.499,5.7,1.399,1.8
		c0.7,1,0.5,4.3,1.5,3.9c0.4-0.2,5.9-2,6-2.5c0.7-3.3,0.6-5.601,3.3-7.7c-1.5,1.1,2.7-1.2,1.9-1.8c-4.301-2.6-3.4-2.2-2.7-6.5
		c4.9-2.4,6.6-7.9,11.7-4.8c-0.6,0.3-11.601,6.8-5.101,9.2c0.601,0.2,4.801,2,5.4,2c3.4-0.3,6.4-3.2,8,0.5
		c-0.5,0-8.399,0.5-8.699,0.9c0.499-0.799,2.3,3.7,1.699,5.2c-6.5-4.9-2.4,8.9-10.2,6.2c-1.6,0-3,0.5-4.4,1.6
		c-12.299,4.8,2.001-1.4-7.1-0.2c-12.8,2.6-1.8-6.7-5.3-8.2c-4.4-1.6-4.3,5.899-4.3,7.6c0.9,6.5-3.9,1.7-5.899,4.3
		c-2.9,3.1-4.601,5.3-7.602,7c1.101-1.1-6.999,6.6-5.899,5.5c-4.699-1.2-4.699-2.101-3.899,2.2c-1.5-0.2-7.3-0.4-7.2,2.7
		c-0.1-1.7,5.399,2.7,6,3.4c2.3,2.9,0.9,4.6,0.1,8c-1.199,5.1-12.3,2.8-17.9,4.7c1.601-0.5-2,16.5-2.499,16
		c2.3,2.7-1.101,3.3,0.6,5.9c0.601,0.7,4.101-0.6,6,1.3c-1.8-1.8,1.801,2.7,2.5,2c3.5-3,4.3-2.6,8.601-2.8c5.8-0.4,5.6-10.8,7-13
		c2-3.1,3.999-4,7.199-5.8c-0.8,0.5,3.301-8,2-5.6c0.6,0.1,5.301,1.6,5.8,1.201c1.4-1.3,4.601-5,6.601-4.2c0,0.3,0.1,0.5,0.3,0.7
		c-2.9,1.7-2.5,8.6-1.101,8c2.201-0.7,6.001-7.3,1.8-8c0.102-0.101,0.102-0.201,0.102-0.3c2.199,0.9,2.699,3.5,3.699,5.5
		c1.2,1.101,5,3.5,6.3,4.4c-0.999-0.3-1.8-0.1-2.399,0.5c-0.4,1.2,7.5,4.4,7.899,4.4c0,0,1.2,8.1,2.1,6.3
		c0.201-0.5,2.601-5.1,2.501-5.6c-1.4-10.9,1.3,1.1,1.899-4.4c0-0.1-23.799-14.6-12.8-16.3c2.6,3.8,6.9,5.9,10.5,8.6
		c5.199,2.9,10.2,15.5,12.1,21.4c0.4,1.5,5.4,2.5,4.9,1.1c-2.699-7,4.9-5.1-2.1-8.7c2.799-1.5,1.4-1.6-0.5-5.2
		c2-0.8,14.899-3,15.3-0.7c-8.001-0.2-5.9,0.2-4,8.2c0-0.6-7.1-2-7.3-1.5c-0.9,1.6,7.3,5.1,7.3,1.5c0.6,2.5,5.3,9.4,8.499,7.9
		c2.7-1.7,3.001-2.9,5.9-1c3.601,2.4,5.8,0,9.7-1.7c0.399,3.7,1.4,7,0.501,10.6c-1.601,6.5-0.601,11.7-9.201,9.4
		c-4.3-1.1-2.699-1.4-6.199,1.7c-3.7-1-7.5-2-11.2-3c-2.801-1.6-5.7-3.2-8.5-4.8c-0.4-0.3-6.2,2.9-6.2,3.5
		c0.601,9.5-5.199,5.2-11.3,2.3c-2.5-6.6-8.801-3.5-13.3-8.2c-2.601-2.8-1.001-3.4,0.6-6.601c0.3-0.6-3.5-6.1-3.8-6.7
		c-0.3-0.5-17.2,2.5-18.5,2.8c-5.7,0.9-9.8,6.1-15.3,6.1c-8.4,0-5.301-5.3-9.7,4.7c-3.1,2-8.101,5.6-7.9,9.9c0.5,9-7.3,9.8-9.999,17
		c-4.601,3.8-8.9,16-9.301,22.2c0,3.299,2.4-0.1,1.2,5.1c-0.101,0.7,0.9,5.601,1.101,6.4c-0.301,1.7-3.001,9.9-2.701,10.9
		c-0.1-0.2,1.001,8.1,1.301,8.5c0.3,0.6,5.999,2.9,3.2,1.6c-4.201-14.1,0.699,3,1.1,3.6c3.1,4.9,4.899,11.699,9.7,14.899
		c2.2,2.4,6.8,9.3,10.7,9.501c-0.9-3.701,15.199-0.801,14.8-0.601c4.3-2.2,7.999-4.5,12.899-5.2c8.2-0.1,5.8,8.5,13.101,7
		c11.999-2.5,4.1,16.7,5.899,21.5c0.2,3.1,7,7.9,8.301,11.2c1.8,4.8,1.899,9.3,3.8,13.3c3.5,7.5-7.9,13.9-1,22.7
		c2.3,2.899,4.4,4.2,4.4,8c0,0.1,1.699,4.4,2,4.5c2.499,1.5,5.1,5.2,6.299,5.6c10.8,1,20.3-0.8,30.5-4.201
		c1.001-0.3,1.601-2.1,2.2-2.1c1-3.6,4.2-0.8,6.2-3.2c2.699-3.299,2.1-3.1,1.4-7.2c3.6-2.6,6.699-5.3,10.899-7.1
		c8.1-3.5,7.3-9,8.7-16.899c-0.4,0.6-1.8-6.2-1.4-7.8c1-4-1.1-4.4,0.601-8.8c2.3-4.001,4.1-6.3,7.1-9.701
		c4.601-4.6,7.6-10.199,12.899-14.4c5.5-3,8.801-14.4,10.801-20c0.9-1.7,4.3-15.4,3.5-14.899c-4.6,1.9-6.3,1-6.3,6.1
		c0,3.7-0.6,8.2-4.801,8.4c-7.899-3.2-10.699-5.3-10.2-13.2c0.301-5.1-2.1-6.399-5.399-10.6c-2.3-3.4-4.399-1.7-5.7-6.299
		c-0.2-0.701-1.4-6-1.899-6.4c-5.5-5-3.101-12.101-7.7-17.6c-3.8-4.5-7.2-14.8-9.7-21c0.5,1,1.2,1.6,2.101,1.8
		c0.699-0.3,0.899-4.4,0.999-5c1.301,7.7,7.5,14.6,11.501,21.2c2.1,3.5,2.3,5,2.8,9c0.199,2.5,5.399,6.399,6.3,9.5
		c3.7,6.6,4.699,11.601,6.3,18.8c1.8,8,7.801,1.8,12.5-1.3c2.9-1.9,5.8-3.6,8.8-5.3c3.5-1.9,3.5-5,7.101-6.5
		c3.899-1.6,8.6-7.3,8.6-11.2c0-1.7,4.801-8.8,3.2-10.9c-0.601-0.7-2.301-3.3-3-3.8c-3.2-0.3-5.2-1.9-6.1-5.1
		c0.199-1.8-0.201-3.2-1.301-4.2c-1.399,0.6-2.3,1.9-2.601,3.8c-2.899,4.7-2.799,3.601-7.699,3c-0.7-1.199-1.2-7.2-1.9-7.2
		c-1.1,1-1.3,2.4-0.6,4.2c-2.601-6.4-6.8-11.299-9.301-17.7c-1.999-0.2,1.101,0.1,1.001,0.1c1.101,0.2,2.1-0.1,3.1-0.9
		c1.2,1.9,2.4,3.8,3.601,5.7c3.899,6.2,8.5,9.3,15.1,5.8c2.601,6.9,8.8,7,15.7,6.8c4.5-0.1,5.5-1.9,8.4,1.4
		c2.199,2.5,4.6,5,6.899,7.4c-5.5,2.3,4.6,10.299,5.4,3.5c0.399,2.899,9.199,46.4,10.899,45.899c4.399-0.4,4.2-13.5,4.6-16.1
		c1.301,14.6,5.5-7.3,1.301-6.5c-0.8,0.899-1.101,2-0.9,3.399c-0.101-2.399-0.2-4.799-0.4-7.2c1.7-0.899,2.7-2.1,3-3.7
		c-0.3-2.399,2.101-5.5,2.9-8c0.8-2.7,2.899-4.8,2.2-7.6c2.8-3.3,4.3-2.201,3.7-6.101c5.399,3.4,1.8,20.1,6.199,22.5
		c1-1.101,1.4-2.5,1.2-4.301c4.301,39.9-16.699,84-43.499,113.301C350.1,406.7,303.8,427.201,255.999,427.201z M281.499,152.4
		c0.501,0.4,3.899,3.6,4.601,3.3c6.1-2.3,5.999-2,11.799,1.4c4.401,2.6,1.601,1,5.101,2.9c9.801,5.3-5.4,5.2-8.6,4.8
		c-5.7-5.5-12.1,0.4-18.301,0.2c-3.5-3-3.3-5.5-1.5-9.8c2.4-5.8,2.701-6.1,8.801-4.3C283.899,150.5,280.699,151.7,281.499,152.4
		C282.899,153.4,281.399,152.3,281.499,152.4z M287.5,150c1.999-0.7,3.999-1.4,5.999-2.2C293.899,154.2,291.699,153.2,287.5,150
		C289.499,149.3,288.699,150.9,287.5,150z"/>
	<path fill="#454646" d="M185.699,131.2c-0.199,1,0.101,1.9,0.9,2.7c-3,2.9-3.601,1.9-2,4.7c1.2,2.2,8.3-2.6,8.8-5
		c1.2-5.7,0.399-5.4,6.001-4.5c-0.301,5-7.501,6-3.4,9.4c-1.5,0.6-2.4,1.5-2.501,2.8c1.001,1.6,13.301-2.8,14.7-4.9
		c2.301-3.5,2.8-2.8-1-3.8c-1.899-3.5-2.1-5.6-5.899-6.9c0.1-0.2,3.1-3.7,2.899-3.9c-1.4-0.4-2.8-0.2-4.3,0.5c1.2-0.6,1.9-1.4,2-2.5
		c-3-6.1-7.1,8.8-7,8.3C194.699,128.7,186.3,130.1,185.699,131.2C185.699,131.3,185.699,131.2,185.699,131.2z"/>
	<path fill="#454646" d="M174.1,108.8c-3.5,6.9,20.2,1.6,11.2-3.2c-0.2-0.1-15.101,1.5-15,3.2
		C171.399,109.6,172.7,109.6,174.1,108.8C173.8,109.6,172.899,108.9,174.1,108.8z"/>
	<path fill="#454646" d="M336.199,342.9c1.101,3.701-11.399,11-14.899,11.8c-3.4,0.5-2.501,7.7-2.601,9.5
		c-3.899,5-4.699,5.5-4.9,11.601c-0.1,0.6,1.7,1.5,2.501,1.2c5.6-1.8,6.299-2.9,9.699-8
		C330.899,361.9,339.699,352.201,336.199,342.9C336.199,342.8,336.6,343.8,336.199,342.9z"/>
</g>
</svg>
