<?xml version="1.0" encoding="utf-8"?>
<!-- Generator: Adobe Illustrator 19.2.1, SVG Export Plug-In . SVG Version: 6.00 Build 0)  -->
<svg version="1.1" id="Work_area" xmlns="http://www.w3.org/2000/svg" xmlns:xlink="http://www.w3.org/1999/xlink" x="0px" y="0px"
	 width="512px" height="512px" viewBox="0 0 512 512" enable-background="new 0 0 512 512" xml:space="preserve">
<g>
	<path fill="#454646" d="M448,76c0-11-9-20-20-20L84,56c-11,0-20,9-20,20l0,370c0,5.5,4.5,10,10,10h65.8c2.7,0,5.2-1.1,7.1-2.9
		l10.1-10.1c1.9-1.9,4.4-2.9,7.1-2.9h183.7c2.6,0,5.2,1.1,7.1,2.9l10.1,10.1c1.9,1.9,4.4,2.9,7.1,2.9H438c5.5,0,10-4.5,10-10L448,76
		z M392,392H124c-4.4,0-8-3.6-8-8v-40H95c-1.7,0-3-1.3-3-3v-22c0-1.7,1.3-3,3-3h21V180H95c-1.7,0-3-1.3-3-3v-22c0-1.7,1.3-3,3-3h21
		v-40c0-4.4,3.6-8,8-8h268c4.4,0,8,3.6,8,8l0,272C400,388.4,396.5,392,392,392z"/>
	<g>
		<path fill="#454646" d="M310.1,204.4l-12.8,12.8c-2.5-3.2-5.3-6-8.5-8.5l12.8-12.8c-10.4-8.7-23.4-14.4-37.6-15.6v18.1
			c-2-0.2-4-0.4-6-0.4c-2,0-4,0.1-6,0.4v-18.1c-14.3,1.2-27.3,6.9-37.6,15.6l12.8,12.8c-3.2,2.5-6,5.3-8.5,8.5l-12.8-12.8
			c-8.7,10.4-14.4,23.4-15.6,37.6h18.1c-0.2,2-0.4,4-0.4,6s0.1,4,0.4,6h-18.1c1.3,14.2,6.9,27.2,15.6,37.6l12.8-12.8
			c2.5,3.2,5.3,6,8.5,8.5l-12.8,12.8c10.4,8.7,23.4,14.4,37.6,15.6v-18.1c2,0.2,4,0.4,6,0.4c2,0,4-0.1,6-0.4v18.1
			c14.2-1.3,27.2-6.9,37.6-15.6l-12.8-12.8c3.2-2.5,6-5.3,8.5-8.5l12.8,12.8c8.7-10.4,14.4-23.4,15.6-37.6h-18.1c0.2-2,0.4-4,0.4-6
			s-0.1-4-0.4-6h18.1C324.5,227.8,318.8,214.8,310.1,204.4z M258,258c-5.5,0-10-4.5-10-10c0-5.5,4.5-10,10-10c5.5,0,10,4.5,10,10
			C268,253.5,263.6,258,258,258z"/>
		<path fill="#454646" d="M386,118H130v34h19c1.7,0,3,1.3,3,3v22c0,1.7-1.3,3-3,3h-19v136h19c1.7,0,3,1.3,3,3v22c0,1.7-1.3,3-3,3
			h-19v34h256L386,118z M258,328c-44.2,0-80-35.8-80-80s35.8-80,80-80c44.2,0,80,35.8,80,80S302.2,328,258,328z"/>
	</g>
</g>
</svg>
