<?xml version="1.0" encoding="utf-8"?>
<!-- Generator: Adobe Illustrator 16.0.4, SVG Export Plug-In . SVG Version: 6.00 Build 0)  -->
<!DOCTYPE svg PUBLIC "-//W3C//DTD SVG 1.1//EN" "http://www.w3.org/Graphics/SVG/1.1/DTD/svg11.dtd">
<svg version="1.1" id="Layer_1" xmlns="http://www.w3.org/2000/svg" xmlns:xlink="http://www.w3.org/1999/xlink" x="0px" y="0px"
	 width="512px" height="512px" viewBox="0 0 512 512" enable-background="new 0 0 512 512" xml:space="preserve">
<g>
	<g>
		<path fill="#454646" d="M340.868,292.269c0.423-3.429,0.645-6.916,0.645-10.445c0-46.443-37.649-84.089-84.089-84.089
			c-37.363,0-69.032,24.367-79.992,58.077c-9.159-4.553-19.484-7.103-30.407-7.103c-37.419,0-67.83,30.018-68.461,67.293
			C47.546,327.719,26,353.575,26,383.588c0,41.037,40.273,74.292,89.946,74.292c36.722,0,135.17,0,174.713,0
			c58.846,0,106.546-39.405,106.546-87.996C397.205,336.275,374.392,307.075,340.868,292.269z"/>
	</g>
	<g>
		<g>
			<path fill="#454646" d="M260.024,54.12c-0.195,0-0.385,0.008-0.569,0.008v32.285c0.19,0,0.379-0.009,0.565-0.009
				c106.969,0,193.689,86.714,193.698,193.684H486C485.991,155.294,384.824,54.12,260.024,54.12z"/>
		</g>
		<g>
			<path fill="#454646" d="M259.889,132.414c-0.149,0.009-0.292,0.009-0.434,0.009v29.444c0.143,0,0.289-0.003,0.436-0.003
				c65.054,0,117.786,52.723,117.786,117.781c0,0.149-0.004,0.293-0.004,0.442h29.444c0-0.149,0.004-0.293,0.004-0.433
				C407.129,198.33,341.205,132.423,259.889,132.414z"/>
		</g>
	</g>
</g>
</svg>
