<?xml version="1.0" encoding="utf-8"?>
<!-- Generator: Adobe Illustrator 16.0.4, SVG Export Plug-In . SVG Version: 6.00 Build 0)  -->
<!DOCTYPE svg PUBLIC "-//W3C//DTD SVG 1.1//EN" "http://www.w3.org/Graphics/SVG/1.1/DTD/svg11.dtd">
<svg version="1.1" id="Layer_1" xmlns="http://www.w3.org/2000/svg" xmlns:xlink="http://www.w3.org/1999/xlink" x="0px" y="0px"
	 width="512px" height="512px" viewBox="0 0 512 512" enable-background="new 0 0 512 512" xml:space="preserve">
<g>
	<path fill="#454646" d="M123.653,348.351c2.604-7.813,10.86-17.122,19.21-15.869c8.353,1.253,22.551,16.706,38.003,44.684
		c15.448,27.981,28.815,41.35,31.318,50.533c2.506,9.188-1.669,23.803-9.603,28.815c-7.935,5.008-19.21,8.767-43.017,0
		c-23.806-8.771-68.906-16.283-74.335-20.881c-5.427-4.594-7.934-9.188-7.515-12.946c0.419-3.759,5.844-6.263,5.844-13.361
		c0-7.1-7.101-27.148-3.338-33.83c3.761-6.682,12.11-8.765,25.057-9.184C118.222,365.891,119.477,360.881,123.653,348.351z"/>
	<path fill="#454646" d="M328.706,464.037c0,0-15.038-2.514-16.292-16.708c-1.25-14.197,5.012-31.323,5.012-41.764
		c0-10.438-3.339-58.049,0.836-62.222c4.172-4.178,15.866-5.014,15.866-5.014s-0.164,33.829,18.088,32.575
		c18.248-1.255,34.952-4.59,44.559-27.979c0,0,7.934,2.922,7.515,17.126c-0.419,14.193,7.521,22.128,13.781,25.05
		c6.267,2.922,26.311,16.708,10.022,27.564c-16.283,10.859-50.531,33.83-58.881,41.346
		C360.862,461.523,344.989,469.882,328.706,464.037z"/>
	<path fill="#454646" d="M308.238,399.301c0,0,3.757,12.112,0,25.895c-3.758,13.781-2.92,22.969-2.92,22.969
		s-17.924-3.287-39.883-3.343c-19.377-0.047-36.545-0.836-44.479,3.343c0,0,2.507-11.695,0-24.433
		C220.957,423.731,282.35,433.132,308.238,399.301z"/>
	<path fill="#454646" d="M294.039,177.546c0,0,12.526,7.518,15.873,27.146c3.339,19.629,22.969,55.125,25.471,73.5
		c2.502,18.377,3.342,80.599,12.526,84.358c9.19,3.763,43.771,11.683,50.948-50.531c3.761-32.575-16.816-73.617-37.581-94.379
		c-16.378-16.386-24.221-20.467-31.739-61.811c-7.518-41.339-7.152-66.624-17.287-84.358C305.564,59.779,293.62,46,257.034,46
		c-27.751,0-45.683,10.022-51.531,22.552c-5.841,12.526-11.271,38.417-8.769,69.322c2.509,30.905,2.509,50.953,2.509,50.953
		s-23.386,28.813-35.503,51.778c-12.112,22.971-16.701,40.927-21.295,49.699c-4.594,8.773-13.781,21.297-11.692,36.333
		c0,0,13.362-16.708,24.638-0.836c11.279,15.871,44.271,71.27,44.271,71.27s8.967,1.812,13.248-4.452
		c4.291-6.263-37.477-48.439-37.477-48.439s-16.287-11.281-10.855-36.75c5.43-25.479,30.069-85.81,30.069-85.81l12.528-21.103
		V179.22c0,0-16.706-17.958,2.084-31.323c0,0-3.338-9.604-3.338-20.879c0-11.271,4.175-21.715,12.529-21.715
		s18.234,11.831,18.234,27.283l14.615-0.141c0-16.425,8.075-29.232,21.025-29.65c12.943-0.416,22.55,14.618,22.55,25.896
		c0,11.273-1.675,16.289-1.675,16.289s9.606,6.263,9.606,14.612C302.808,167.943,294.039,177.546,294.039,177.546z"/>
	<path fill="#454646" d="M243.926,136.625c10.861,0,45.351,12.693,50.113,17.537c4.635,4.708,4.175,9.605-2.921,15.45
		c-7.104,5.847-29.445,25.473-47.192,25.473c-18.165,0-33.829-20.879-33.829-20.879s19.211,10.443,27.562,10.443
		c13.642,0,41.343-8.771,48.446-22.553c0,0-32.992,17.124-47.61,16.706c-14.617-0.418-23.805-7.1-28.398-10.441
		c-4.594-3.34-6.677-9.189-1.668-13.363C213.443,150.819,228.472,136.625,243.926,136.625z"/>
	<path fill="#454646" d="M216.987,142.247c0,0,9.606-6.046,12.32-7.087c0,0-0.635-10.281-6.159-13.152
		c-4.283-2.229-11.238-0.117-11.519,8.488C211.384,138.051,216.987,142.247,216.987,142.247z"/>
	<path fill="#454646" d="M263.975,135.37c0,0,10.229,3.735,16.283,6.876c0,0,6.98-10.992,3.551-16.902
		c-4.527-7.793-12.394-5.443-15.52-2.225C265.155,126.339,263.975,135.37,263.975,135.37z"/>
</g>
</svg>
