<?xml version="1.0" encoding="utf-8"?>
<!-- Generator: Adobe Illustrator 19.2.1, SVG Export Plug-In . SVG Version: 6.00 Build 0)  -->
<svg version="1.1" id="Work_area" xmlns="http://www.w3.org/2000/svg" xmlns:xlink="http://www.w3.org/1999/xlink" x="0px" y="0px"
	 width="512px" height="512px" viewBox="0 0 512 512" enable-background="new 0 0 512 512" xml:space="preserve">
<g>
	<path fill="#454646" d="M436.2,190.9c-8-8-19.5-11.8-33.2-11.8c-28.2,0-66,16-103.8,44.2l0,36c16.2-13.8,32.9-25.5,49.3-34.4
		c20.9-11.4,40.3-17.6,54.5-17.6c3.6,0,10.2,0.5,13.3,3.6c4.8,4.8,5.7,20.9-3.4,44.9c-11.2,29.5-34.6,63.4-64.2,93
		c-22.2,22.2-46.5,40.8-70.1,53.6c-20.9,11.4-40.3,17.6-54.5,17.6c-3.6,0-10.2-0.5-13.3-3.6c-4.8-4.8-5.7-20.9,3.4-44.9
		c8.7-22.8,24.6-48.2,45.1-72.2h-36c-42,56.3-56.8,112.6-32.4,137.1c8,8,19.5,11.8,33.2,11.8c38.3,0,94.6-29.6,144.5-79.4
		C436.3,300.8,466.6,221.2,436.2,190.9z"/>
	<g>
		<polygon fill="#454646" points="279,279 279,108.7 219.4,168.3 115.1,64 64,115.1 168.3,219.4 108.7,279 		"/>
	</g>
</g>
</svg>
