<?xml version="1.0" encoding="utf-8"?>
<!-- Generator: Adobe Illustrator 18.1.1, SVG Export Plug-In . SVG Version: 6.00 Build 0)  -->
<svg version="1.1" id="Layer_1" xmlns="http://www.w3.org/2000/svg" xmlns:xlink="http://www.w3.org/1999/xlink" x="0px" y="0px"
	 width="512px" height="512px" viewBox="0 0 512 512" enable-background="new 0 0 512 512" xml:space="preserve">
<g>
	<g>
		<g>
			<g>
				<g>
					<path fill="#454646" d="M430.084,68.636H81.93C62.157,68.636,46,84.798,46,104.557v235.232
						c0,19.749,16.157,35.916,35.93,35.916h348.155c19.749,0,35.916-16.167,35.916-35.916V104.557
						C466,84.798,449.833,68.636,430.084,68.636z M437.768,344.79H74.285V99.285h363.484V344.79z"/>
				</g>
			</g>
		</g>
	</g>
	<path fill="#454646" d="M346.577,414.583h-51.38v-7.1c0-5.935-4.856-10.779-10.775-10.779h-56.839
		c-5.923,0-10.775,4.844-10.775,10.779v7.1h-51.38c-5.922,0-10.78,4.848-10.78,10.779v18.002h202.704v-18.002
		C357.352,419.431,352.5,414.583,346.577,414.583z"/>
	<rect x="98.481" y="121.874" fill="#454646" width="315.038" height="203.364"/>
</g>
</svg>
