<?xml version="1.0" encoding="utf-8"?>
<!-- Generator: Adobe Illustrator 16.0.4, SVG Export Plug-In . SVG Version: 6.00 Build 0)  -->
<!DOCTYPE svg PUBLIC "-//W3C//DTD SVG 1.1//EN" "http://www.w3.org/Graphics/SVG/1.1/DTD/svg11.dtd">
<svg version="1.1" id="Layer_1" xmlns="http://www.w3.org/2000/svg" xmlns:xlink="http://www.w3.org/1999/xlink" x="0px" y="0px"
	 width="512px" height="512px" viewBox="0 0 512 512" enable-background="new 0 0 512 512" xml:space="preserve">
<g id="_x33_e91140ac1bfb9903b91c1b0ca093d8e_2_">
	<path fill="#454646" d="M238.761,135.577C238.761,135.476,238.761,135.476,238.761,135.577
		C238.761,135.476,238.761,135.476,238.761,135.577z M413.052,276.988c6.297,4.496,11.293,7.794,11.293,7.794
		S419.349,280.985,413.052,276.988z M206.681,197.038C206.881,197.138,206.881,197.138,206.681,197.038L206.681,197.038z
		 M482.608,182.147c4.896-4.897,9.493-10.193,13.392-15.891c-11.094,12.392-29.582,30.082-47.771,26.982
		c10.594-8.494,20.487-27.282,26.783-33.578c1.3-2.099,2.498-4.396,3.898-6.496c-14.891,14.991-38.377,35.979-61.162,33.779
		c14.391-13.792,25.284-32.881,32.379-51.367c-10.792,16.489-25.884,40.674-45.371,47.569
		c11.792-12.792,21.287-29.182,27.184-45.572c-9.795,14.093-23.186,32.28-40.076,37.876c9.395-9.593,20.487-23.185,22.888-36.876
		c-8.896,11.292-31.481,43.573-48.471,39.375c10.894-13.091,19.487-27.782,27.282-42.873c-6.596,8.795-13.592,17.489-21.486,25.185
		c-10.394,10.193-24.385,12.892-10.394-4.797c-0.9,0.799-1.799,1.599-2.799,2.398c1.8-2.799,3.797-5.496,5.897-8.096
		c-5.397,4.697-13.092,12.193-20.588,12.693c4.797-5.397,8.895-11.394,12.792-17.49c0.799-1.199,7.995-12.092,5.097-8.895
		c1.399-2.299,2.898-4.696,4.198-6.996c-5.397,6.197-28.482,35.779-37.879,30.781c4.898-9.893,9.796-19.787,14.593-29.682
		c-6.097,11.693-18.189,27.883-33.38,24.785c4.599-6.895,8.896-14.591,11.694-22.386c-3.998,6.096-9.296,11.792-15.69,15.39
		c-5.297,2.998-28.283,3.898-15.69-4.697c-0.799,0.8-1.699,1.6-2.6,2.299c1.4-2.898,3.498-5.596,5.697-7.995
		c-11.894,11.194-32.979,15.091-20.587-6.495c-4.396,6.895-8.895,13.991-14.492,20.087c-7.795,8.495-3.195-10.493-2.197-13.991
		c-3.498,5.696-8.595,14.591-15.19,16.889c-8.195,2.899-2.998-15.289-1.999-18.388c-1.299,3.698-2.798,7.396-4.597,10.993
		c0.399-1.799,0.898-3.497,1.499-5.297c-4.897,13.691-13.094,15.19-14.591-0.699c-0.301,3.397-1.1,6.996-2.299,10.193
		c-0.3-1.499-0.6-2.998-0.799-4.496c-1,9.393-3.598,10.992-12.293,12.791c-8.196,1.799-16.39,3.797-24.484,6.196
		c-16.49,4.897-32.579,11.093-48.07,18.788c-41.476,20.487-77.752,50.069-110.331,82.648c2.198-1.199,4.298-2.398,6.396-3.598
		c-3.197,3.099-6.396,6.195-9.494,9.294c50.369-27.183,90.145-68.857,146.009-86.346c-15.588,32.079,16.291,73.653,44.173,86.146
		c0,0-6.196-7.494-6.295-7.694c-5.297-7.195-4.099-5.997-11.395-9.095c-14.69-6.196-0.699-18.289-0.998-26.184
		c-0.2-5.496,0.299-10.993,1.498-16.289c2-8.996-2.798-12.393-5.797-20.888c-1.198-3.498-5.396-10.394-0.299-11.492
		c2.298,7.195,5.796,13.991,10.193,20.087c2.099-4.697,4.797-9.195,7.994-13.192c-1.197-3.297-0.299-7.095,2.3-9.394
		c4.796-4.297,18.888-3.798,24.984-4.297c-7.297,3.797-16.591,10.594-7.596,17.189c2.199,1.598,12.093,10.692,14.291,9.393
		c-2.398-8.294-4.696-16.489-7.096-24.783c4.099,7.395,8.295,14.79,12.393,22.186c3.497-1.199,0.999-20.587,0.899-24.783
		c1.5,0,7.095,20.486,7.894,23.084c3.199-7.695,6.397-15.29,9.496-22.985c0,3.198-1.399,24.585,0.599,25.384
		c4.697-6.695,9.395-13.291,14.19-19.986c-1,3.297-8.893,22.686-6.994,24.484c6.895-4.598,13.789-9.194,20.687-13.792
		c-1.898,2.599-16.09,19.188-14.99,21.087c4.396-1.6,15.99-3.298,18.989-6.795c2.797-3.499-4.499-13.691,6.794-13.691
		c6.197,0,3.298-14.291,8.495-13.492c-0.399,5.297-1.498,10.493-3.199,15.49c2.701,2.498,3.398,6.596,1.5,9.795
		c-1.699,2.797-4.898,4.297-8.095,3.797c-2.998,4.597-6.596,8.895-10.594,12.592c4.298,0.199,8.595,0.4,12.893,0.699
		c-6.696,1.6-15.49,2.099-21.288,5.896c11.194,1.799,21.986,6.596,30.682,13.792c9.994-17.89,17.09-46.271-0.399-61.862
		c36.576,6.496,64.76,24.385,98.237,37.978c-6.294,1.898-8.394,10.193-11.491,15.189c-3.998,6.396-8.595,12.393-13.692,17.89
		c-11.493,12.392-25.283,22.386-40.274,30.181c-34.479,17.889-74.854,25.284-113.429,24.685
		c-34.478-0.499-65.56-10.493-98.838-17.789c-38.277-8.494-79.45,9.895-115.928-8.395c6.695,5.297,13.791,9.294,22.086,11.493
		c-7.195-1.3-14.091-3.698-20.587-6.896c20.687,16.389,45.672,14.091,70.656,14.291c6.694,0,31.681-2.099,25.184,8.294
		c-4.997,7.995-11.893,14.892-18.688,21.287c5.896-4.997,12.093-9.694,18.389-14.191c-4.897,6.796-10.793,12.893-16.89,18.688
		c10.693-8.895,21.985-17.789,34.379-24.186c3.198-1.599,14.989-7.295,13.091,0.4c-2.098,8.595-7.595,16.689-12.69,23.785
		c3.896-5.197,8.095-10.094,12.69-14.69c-2.797,6.896-6.896,13.291-11.092,19.287c8.194-10.793,20.486-27.683,35.577-27.482
		c22.687,0.2-1.599,26.384-7.595,33.579c5.097-4.896,10.293-9.694,15.59-14.291c-4.197,6.696-8.995,12.892-14.091,18.888
		c7.795-7.495,15.689-14.891,24.285-21.486c15.989-12.292,11.593,4.198,9.094,16.89c1.1-2.599,2.198-5.097,3.397-7.595
		c-0.4,4.097-1.1,8.194-1.898,12.191c3.199-7.595,8.195-24.284,16.39-27.882c-2.998,19.088-12.093,38.076-19.388,55.865
		c3.598-6.497,7.195-12.992,10.894-19.488c-2.999,8.096-6.097,16.09-9.395,23.985c8.095-14.791,16.39-29.481,25.384-43.673
		c2.399-3.698,7.496-14.99,12.492-16.09c10.493-2.299,14.392,29.781,15.491,36.276c-0.301-2.498-0.6-5.096-0.899-7.595
		c0.899,3.997,1.698,8.096,2.396,12.093c-1.397-10.693-9.593-44.572,9.495-41.975c18.788,2.599,6.496,50.569,3.697,62.361
		c1.799-4.597,3.498-9.294,5.099-14.091c-0.901,6.196-2.1,12.492-3.599,18.588c7.994-20.187,16.789-43.872,10.394-65.359
		c19.588,13.892,29.881,36.878,28.183,60.763c0.399-2.198,1.198-4.098,1.397-6.495c0.301,3.697,0.4,7.295,0.1,10.992
		c7.597-21.986-6.595-51.368-16.188-70.556c15.29,0.7,28.383,25.685,35.078,37.177c-2.099-3.798-4.098-7.695-5.896-11.692
		c1.5,2.398,2.998,4.696,4.397,7.195c-5.796-10.394-22.386-50.469,5.896-35.179c8.595,4.598,13.492,13.992,16.69,22.787
		c1.899,6.295,3.198,12.891,4.097,19.388c0.101,0.799-0.1,8.594,1.5,4.297c0.299,1.999,0.5,4.097,0.6,6.096
		c8.994-16.589-8.795-48.77-15.491-63.76c17.69-9.794,47.371,40.075,54.766,51.668c-3.196-5.297-6.295-10.693-9.294-16.09
		c2.698,3.798,5.297,7.595,7.794,11.492c-9.393-15.79-18.786-31.88-26.283-48.769c-11.091-24.586,18.59,1.698,24.587,8.094
		c-2.3-3.198-4.498-6.396-6.496-9.693c1.698,1.699,3.397,3.398,4.996,5.197c-1.8-2.5-13.292-21.587-8.895-19.788
		c5.896,2.599,11.094,8.694,15.691,13.092c10.393,9.994,20.286,20.387,30.08,30.88c-4.698-5.696-9.296-11.592-13.791-17.589
		c4.097,4.298,8.194,8.595,12.293,12.993c-7.396-8.995-14.592-18.189-21.188-27.783c-1.699-2.498-12.292-15.491-8.595-18.588
		c5.396-4.598,18.688,5.097,22.984,7.794c-5.195-3.697-10.292-7.595-15.189-11.793c4.798,1.899,9.294,4.498,13.691,7.297
		c-7.694-5.497-16.589-11.394-22.387-19.089c5.598-10.493,39.177,9.693,45.473,13.592c-3.598-2.998-7.096-6.196-10.394-9.494
		c2.999,1.599,5.996,3.198,8.895,4.997c-5.496-4.598-11.393-9.494-15.391-15.491c1.1-3.098,10.594,3.198,11.793,3.897
		c10.693,6.396,20.787,13.792,30.78,21.387c-8.694-6.895-17.287-13.99-25.483-21.586c8.196,5.396,16.189,11.193,23.984,17.089
		c-11.793-9.394-25.284-18.988-34.578-30.98c4.098-4.797,21.986,2.299,26.982,3.798c-5.695-2.698-11.394-5.496-16.988-8.495
		c5.196,1,10.393,2.398,15.49,3.898c-9.896-4.697-20.388-9.295-29.282-15.791c6.396-0.1,13.592,3.498,19.488,5.897
		c-4.598-3.598-9.595-6.897-14.892-9.396c4.598,1.3,8.995,2.999,13.392,4.798c-5.196-4.097-10.992-7.895-17.188-10.294
		c28.482-1.599,54.466-20.787,70.056-43.771C489.704,175.552,486.306,178.949,482.608,182.147
		C491.303,173.452,488.905,176.651,482.608,182.147z M235.663,141.172L235.663,141.172L235.663,141.172z M414.551,281.585
		c6.296,4.497,11.292,7.795,11.292,7.795S420.847,285.481,414.551,281.585z M232.864,205.332
		c-4.298-5.297-8.495-10.692-12.792-15.989c-4.597,6.495-8.994,0.699-13.291,7.795C211.078,198.637,230.366,208.33,232.864,205.332z
		 M218.073,253.003c-1.799,1.599-3.797,2.998-5.695,4.597c5.695-7.195,11.393-14.391,16.988-21.586
		c-16.59,5.996-32.879,9.493-17.589,29.481C213.476,261.198,215.575,257,218.073,253.003z M199.785,214.527
		c-1.4,6.295-1.698,12.792-1,19.088c4.697,0.899,8.396,4.696,9.194,9.394c6.197-3.998,12.393-7.895,18.589-11.893
		c-8.396-2.898-17.089-2.898-25.982-3.498c4.295-0.899,8.493-1.799,12.791-2.799C210.978,223.421,199.686,214.827,199.785,214.527
		C198.285,220.923,199.785,214.227,199.785,214.527z M228.367,213.028c-7.195-5.297-14.391-10.594-21.486-15.891
		C192.89,220.123,227.766,214.727,228.367,213.028z M215.075,217.824c-5.896-3.798-7.495-3.997-14.591-3.798
		C205.381,215.326,210.179,216.524,215.075,217.824z M242.358,246.307c-5.396,7.596-10.793,15.29-16.09,22.886
		c1.999-7.495,3.997-14.891,5.996-22.386c-5.496,5.197-19.787,20.387-12.991,26.884c7.594,7.295,23.784,5.995,33.578,4.696
		c22.984-2.998,43.873-16.19,56.465-35.678c-9.095-6.296-20.087-11.093-31.182-11.193c6.098,5.996,12.193,11.993,18.29,17.989
		c-7.996-3.099-15.991-6.196-23.886-9.294c4.698,7.195,9.394,14.391,14.091,21.586c-2.899-2.298-19.087-17.489-21.586-16.189
		c2.299,8.395,4.598,16.789,6.896,25.284c-3.998-7.596-7.896-15.091-11.894-22.686c-0.699,8.895-1.298,17.688-1.999,26.582
		c-1.098-3.497-5.296-25.684-8.094-26.383c-3.099,8.395-6.297,16.689-9.395,25.085C240.76,269.992,244.357,247.206,242.358,246.307z
		"/>
</g>
</svg>
