<?xml version="1.0" encoding="utf-8"?>
<!-- Generator: Adobe Illustrator 16.0.4, SVG Export Plug-In . SVG Version: 6.00 Build 0)  -->
<!DOCTYPE svg PUBLIC "-//W3C//DTD SVG 1.1//EN" "http://www.w3.org/Graphics/SVG/1.1/DTD/svg11.dtd">
<svg version="1.1" id="Layer_1" xmlns="http://www.w3.org/2000/svg" xmlns:xlink="http://www.w3.org/1999/xlink" x="0px" y="0px"
	 width="512px" height="512px" viewBox="0 0 512 512" enable-background="new 0 0 512 512" xml:space="preserve">
<g>
	<g>
		<path fill-rule="evenodd" clip-rule="evenodd" fill="#454646" d="M372.427,361.955c-3.629,0-7.341-1.225-11.032-3.644
			c-2.193-1.44-4.286-2.141-6.391-2.141c-1.677,0-3.41,0.434-5.288,1.317c-3.147,1.484-6.22,2.238-9.13,2.238
			c-3.079,0-8.268-0.976-12.653-6.157v56.562l32.604-21.16l32.797,21.16v-61.486c-2.416,0.701-4.394,2.171-6.115,4.65
			C382.246,360.456,376.434,361.955,372.427,361.955z"/>
	</g>
	<g>
		<path fill-rule="evenodd" clip-rule="evenodd" fill="#454646" d="M66,101.87v262.029h254.334v-19.954
			c-1.471-0.854-3.155-1.406-5.196-1.577c-10.498-0.872-16.722-7.214-17.204-17.092H104v-11.4h190.936
			c-0.631-0.661-1.336-1.295-2.189-1.885c-9.389-6.52-11.281-16.102-5.106-25.665H104v-11.4h184.701
			c-0.068-0.152-0.082-0.297-0.156-0.445c-4.891-10.398-1.688-19.698,8.576-24.875c1.266-0.638,2.274-1.403,3.158-2.23H104v-11.4
			h200.309c2.075-8.45,8.443-13.374,17.635-13.374c0.52,0,1.047,0.015,1.588,0.044c0.327,0.022,0.646,0.03,0.965,0.03
			c4.127,0,7.077-1.592,9.553-5.158c4.973-7.162,10.791-8.669,14.791-8.669c3.629,0,7.341,1.232,11.037,3.652
			c2.196,1.44,4.282,2.137,6.386,2.137c1.678,0,3.411-0.43,5.296-1.321c3.143-1.477,6.211-2.23,9.121-2.23
			c3.852,0,11.015,1.407,15.75,10.803c2.088,4.145,5.084,6.164,9.703,6.553c11.456,0.954,17.91,8.376,17.26,19.861
			c-0.263,4.627,1.317,7.875,5.129,10.517c9.443,6.561,11.318,16.217,5.014,25.828c-2.542,3.882-2.795,7.481-0.816,11.675
			c4.902,10.405,1.695,19.705-8.572,24.882c-4.145,2.089-6.164,5.08-6.55,9.696c-0.85,10.257-7.065,16.532-16.663,17.178v15.82H446
			V101.87H66z M408,180.876H104v-26.6h304V180.876z"/>
	</g>
	<path fill="#454646" d="M424.188,265.066c-6.006-4.167-8.799-9.908-8.385-17.2c0.413-7.292-3.016-11.244-10.301-11.853
		c-7.285-0.608-12.568-4.175-15.856-10.702c-2.228-4.416-5.214-6.624-8.966-6.624c-1.788,0-3.748,0.501-5.885,1.51
		c-2.895,1.358-5.737,2.041-8.532,2.041c-3.595,0-7.113-1.128-10.55-3.38c-2.449-1.607-4.739-2.409-6.873-2.409
		c-3.198,0-6.049,1.804-8.55,5.403c-3.896,5.615-9.165,8.424-15.794,8.424c-0.461,0-0.928-0.015-1.402-0.041
		c-0.391-0.022-0.771-0.033-1.15-0.033c-6.561,0-10.127,3.447-10.702,10.335c-0.608,7.285-4.179,12.569-10.702,15.857
		c-6.525,3.292-8.231,8.242-5.114,14.851c3.118,6.613,2.672,12.973-1.336,19.085c-4.012,6.112-3.013,11.248,2.991,15.415
		s8.803,9.901,8.383,17.196c-0.419,7.296,3.018,11.248,10.302,11.856c7.284,0.609,12.569,4.175,15.856,10.703
		c2.227,4.416,5.218,6.624,8.965,6.624c1.791,0,3.753-0.501,5.887-1.51c2.895-1.362,5.737-2.045,8.531-2.045
		c3.596,0,7.114,1.128,10.554,3.381c2.446,1.603,4.739,2.404,6.869,2.404c3.2,0,6.049-1.796,8.55-5.396
		c3.896-5.618,9.163-8.424,15.798-8.424c0.46,0,0.924,0.015,1.399,0.041c0.393,0.022,0.775,0.033,1.15,0.033
		c6.561,0,10.131-3.447,10.702-10.335c0.608-7.285,4.171-12.569,10.702-15.857c6.523-3.288,8.23-8.242,5.113-14.851
		c-3.117-6.613-2.668-12.974,1.336-19.085C431.186,274.373,430.191,269.233,424.188,265.066z"/>
</g>
</svg>
