<?xml version="1.0" encoding="utf-8"?>
<!-- Generator: Adobe Illustrator 16.0.4, SVG Export Plug-In . SVG Version: 6.00 Build 0)  -->
<!DOCTYPE svg PUBLIC "-//W3C//DTD SVG 1.1//EN" "http://www.w3.org/Graphics/SVG/1.1/DTD/svg11.dtd">
<svg version="1.1" id="Layer_1" xmlns="http://www.w3.org/2000/svg" xmlns:xlink="http://www.w3.org/1999/xlink" x="0px" y="0px"
	 width="512px" height="512px" viewBox="0 0 512 512" enable-background="new 0 0 512 512" xml:space="preserve">
<g>
	<path fill="#454646" d="M96,242.855c0-5.453,4.465-9.914,9.91-9.914h300.137c5.488,0,9.953,4.461,9.953,9.914v26.266
		c0,5.453-4.465,9.938-9.953,9.938H105.91c-5.445,0-9.91-4.484-9.91-9.938V242.855z"/>
	<path fill="#454646" d="M96,129.551c0-5.445,4.465-9.914,9.91-9.914h300.137c5.488,0,9.953,4.469,9.953,9.914v26.25
		c0,5.469-4.465,9.906-9.953,9.906H105.91c-5.445,0-9.91-4.438-9.91-9.906V129.551z"/>
	<path fill="#454646" d="M96,356.176c0-5.469,4.465-9.93,9.91-9.93h300.137c5.488,0,9.953,4.461,9.953,9.93v26.25
		c0,5.469-4.465,9.938-9.953,9.938H105.91c-5.445,0-9.91-4.469-9.91-9.938V356.176z"/>
</g>
</svg>
