<?xml version="1.0" encoding="utf-8"?>
<!-- Generator: Adobe Illustrator 16.0.4, SVG Export Plug-In . SVG Version: 6.00 Build 0)  -->
<!DOCTYPE svg PUBLIC "-//W3C//DTD SVG 1.1//EN" "http://www.w3.org/Graphics/SVG/1.1/DTD/svg11.dtd">
<svg version="1.1" id="Layer_1" xmlns="http://www.w3.org/2000/svg" xmlns:xlink="http://www.w3.org/1999/xlink" x="0px" y="0px"
	 width="512px" height="512px" viewBox="0 0 512 512" enable-background="new 0 0 512 512" xml:space="preserve">
<g>
	<path fill="#454646" d="M464.038,421.931l-61.811-61.81c32.861-46.208,28.604-110.708-12.83-152.143
		c-23.104-23.108-53.389-34.658-83.672-34.658c-30.285,0-60.571,11.55-83.675,34.658c-46.216,46.216-46.216,121.143,0,167.351
		c23.104,23.108,53.39,34.666,83.671,34.666c24.023,0,48.033-7.3,68.476-21.836l61.814,61.811c2.617,2.616,6.898,2.616,9.516,0
		l18.511-18.515C466.654,428.834,466.654,424.548,464.038,421.931z M305.722,376.347c-22.619,0-43.883-8.811-59.882-24.807
		c-15.991-15.996-24.803-37.263-24.803-59.883c0-22.623,8.812-43.885,24.808-59.881c15.994-15.996,37.258-24.808,59.881-24.808
		c22.62,0,43.887,8.812,59.883,24.808c33.018,33.017,33.018,86.742,0,119.764C349.612,367.536,328.342,376.347,305.722,376.347z"/>
	<path fill="#454646" d="M135.545,233.613l32.977-63.5c6.469,2.551,13.486,4.002,20.849,4.002c9.272,0,18.009-2.271,25.757-6.217
		l10.668,17.021c5.961-4.471,12.198-8.388,18.655-11.73l-11.895-18.97c8.6-9.987,13.834-22.948,13.834-37.128
		c0-31.446-25.578-57.023-57.02-57.023c-31.447,0-57.023,25.577-57.023,57.023c0,16.132,6.759,30.685,17.562,41.069l-34.581,66.576
		c-3.966-0.874-8.08-1.369-12.305-1.369C71.582,223.368,46,248.944,46,280.387c0,31.446,25.582,57.028,57.023,57.028
		c27.227,0,50.027-19.195,55.658-44.747l13.732,0.935c-0.106-7.351,0.377-14.704,1.477-21.984l-14.745-1.009
		C156.492,255.343,147.784,242.145,135.545,233.613z M189.37,87.606c16.254,0,29.481,13.231,29.481,29.485
		c0,16.255-13.228,29.486-29.481,29.486c-16.259,0-29.486-13.231-29.486-29.486C159.884,100.838,173.111,87.606,189.37,87.606z
		 M103.023,309.873c-16.258,0-29.481-13.228-29.481-29.486c0-16.254,13.224-29.481,29.481-29.481
		c16.26,0,29.487,13.228,29.487,29.481C132.511,296.646,119.283,309.873,103.023,309.873z"/>
	<polygon fill="#454646" points="342.164,231.886 305.726,268.328 269.288,231.886 245.959,255.217 282.396,291.654 
		245.959,328.096 269.288,351.426 305.726,314.988 342.164,351.426 365.494,328.096 329.057,291.654 365.494,255.217 	"/>
</g>
</svg>
