<?xml version="1.0" encoding="utf-8"?>
<!-- Generator: Adobe Illustrator 18.1.1, SVG Export Plug-In . SVG Version: 6.00 Build 0)  -->
<svg version="1.1" id="Ebene_1" xmlns="http://www.w3.org/2000/svg" xmlns:xlink="http://www.w3.org/1999/xlink" x="0px" y="0px"
	 width="512px" height="512px" viewBox="0 0 512 512" enable-background="new 0 0 512 512" xml:space="preserve">
<path fill="#454646" d="M427,66H85c-10.5,0-19,8.6-19,19v342c0,10.5,8.5,19,19,19h342c10.4,0,19-8.5,19-19V85
	C446,74.6,437.4,66,427,66z M173.5,90.1c6.6,0,12,5.4,12,12c0,6.6-5.4,12-12,12s-12-5.4-12-12C161.5,95.5,166.9,90.1,173.5,90.1z
	 M139.7,90.1c6.6,0,12,5.4,12,12c0,6.6-5.4,12-12,12c-6.6,0-12-5.4-12-12C127.7,95.5,133.1,90.1,139.7,90.1z M105.9,90.1
	c6.6,0,12,5.4,12,12c0,6.6-5.4,12-12,12c-6.6,0-12-5.4-12-12C94,95.5,99.3,90.1,105.9,90.1z M418,422.6H94.1v-285H418V422.6z
	 M406,114H229.4c-6.6,0-12-5.4-12-12s5.4-12,12-12H406c6.6,0,12,5.4,12,12S412.6,114,406,114z"/>
</svg>
