<?xml version="1.0" encoding="utf-8"?>
<!-- Generator: Adobe Illustrator 16.0.4, SVG Export Plug-In . SVG Version: 6.00 Build 0)  -->
<!DOCTYPE svg PUBLIC "-//W3C//DTD SVG 1.1//EN" "http://www.w3.org/Graphics/SVG/1.1/DTD/svg11.dtd">
<svg version="1.1" id="Layer_1" xmlns="http://www.w3.org/2000/svg" xmlns:xlink="http://www.w3.org/1999/xlink" x="0px" y="0px"
	 width="512px" height="512px" viewBox="0 0 512 512" enable-background="new 0 0 512 512" xml:space="preserve">
<g>
	<path fill="#454646" d="M319.312,149.969c10.391,2.298,13.588,12.589,20.882,18.884c8.193,7.094,18.784,9.292,25.678,18.184
		c0.599,0.8,2.098,4.396,0.599,5.096c-1.1,0.6-4.696-2.998-5.495-3.497c-4.896-2.897-10.691-4.196-15.986-5.995
		c-9.692-3.297-19.782-11.49-25.477-19.982c-7.293,5.794-14.888,11.189-22.481,16.785c-3.197,2.298-6.094,4.496-1.499,6.594
		c4.596,2.098,9.491,3.297,14.288,4.696c10.091,2.997,20.082,6.294,29.974,10.091c8.193,3.197,20.583,6.594,26.776,13.088
		c-0.799,1.699-23.779-5.495-26.477-6.195c-11.19-3.097-22.38-6.095-33.771-8.192c-21.98-3.996-43.562-4.496-65.842-4.096
		c-21.881,0.399-43.861,0.599-65.342,5.495c-20.482,4.696-40.565,12.29-59.348,21.581c-18.484,9.092-36.169,20.182-51.555,33.87
		c-7.395,6.594-14.088,13.988-21.682,20.482c-5.795,4.996-22.48,7.594-19.583-4.795c4.197-17.984,25.778-32.772,40.065-42.263
		c17.484-11.689,36.467-21.182,56.25-28.575c33.67-12.688,68.939-19.183,104.808-20.182c8.094-0.2,16.586-0.101,24.079-3.297
		c8.393-3.497,16.385-7.893,24.878-11.09c7.792-2.997,15.686-5.695,23.378-8.893C303.726,154.765,311.219,149.969,319.312,149.969
		C319.912,150.169,318.513,149.969,319.312,149.969z"/>
	<path fill="#454646" d="M495.856,335.206c-0.299,4.096,0,26.677-10.091,18.284c-7.193-5.995-12.39-16.685-17.784-24.278
		c-5.295-7.394-10.69-14.688-18.884-19.084c-3.996-2.197-8.292-3.796-12.689-5.295c-3.097-1.099-11.39-2.298-13.388-4.796
		c18.883-1.398,33.771,0.999,47.158,15.586c2.398,2.599,13.788,18.385,14.487,8.792c0.701-10.191-1.898-20.781-3.896-30.773
		c-2.098-10.69-3.896-21.281-3.896-32.271c0-10.391,1.499-20.882,0.899-31.172c-0.299-4.996,0.101-7.093-5.195-6.594
		c-4.996,0.5-9.892,1.599-14.788,2.598c-9.991,2.198-20.082,4.396-30.173,5.895c-1.798,0.3-9.792,1.999-10.591-0.6
		c-0.599-1.998,7.394-5.694,8.792-6.394c9.192-4.896,18.484-9.591,27.976-13.788c9.092-4.096,18.583-8.692,28.175-11.19
		c8.792-2.298,12.688,3.497,13.488,11.59c1.998,20.682-2.198,41.963-1.699,62.745C494.059,294.742,495.856,314.924,495.856,335.206
		C495.856,335.705,495.856,332.108,495.856,335.206z"/>
	<path fill="#454646" d="M124.983,348.295c-15.486-0.5-29.375-4.996-43.562-11.091c-15.786-6.894-31.372-14.687-45.96-23.879
		c-5.695-3.597-13.587-7.692-17.384-13.388c-3.297-4.795-3.198-14.288,4.195-14.787c8.394-0.5,12.989,2.798,19.483,7.593
		c7.194,5.295,14.487,10.591,21.98,15.587c23.78,16.085,60.047,38.366,89.422,23.579c6.194-3.097,12.288-7.194,16.685-12.589
		c3.297-4.097,4.496-0.5,3.497,3.197c-0.899,3.197-2.798,5.794-5.096,8.093C156.555,342.5,141.169,346.597,124.983,348.295
		C114.292,347.895,127.181,347.995,124.983,348.295z"/>
	<path fill="#454646" d="M254.169,200.225c19.083,0.6,38.266,1.199,57.149,3.997c17.585,2.598,36.868,6.694,51.954,16.685
		c0.5,0.4,6.295,3.997,5.896,4.496c-1.798,2.498-10.891-1.498-13.088-2.098c-9.092-2.698-18.084-5.396-27.476-7.193
		c-18.484-3.497-37.367-5.196-56.151-5.596c-19.283-0.499-38.766,0.3-57.849,2.498c-9.491,1.099-18.884,2.498-28.275,4.396
		c-7.992,1.599-17.484,5.895-25.677,5.295c-2.598-0.2-7.194-3.197-4.497-6.194c2.998-3.297,7.694-4.896,11.79-6.395
		c8.892-3.098,17.884-5.295,27.276-6.294C214.904,201.923,234.387,200.824,254.169,200.225
		C261.463,200.425,246.976,200.425,254.169,200.225z"/>
	<path fill="#454646" d="M276.25,335.906c9.892,0.1,19.783,3.196,29.075,6.394c4.795,1.599,9.491,3.397,14.087,5.295
		c2.198,0.9,8.992,5.096,8.892,0c-0.2-8.892,5.395-17.084,11.49-23.08c3.098-2.998,6.495-5.495,10.391-7.394
		c1.399-0.699,10.191-4.196,11.19-1.798c0.7,1.798-12.389,10.691-13.988,12.189c-4.795,4.696-7.693,10.091-7.693,16.985
		c-0.1,5.995,0,12.389-5.794,15.686c-6.395,3.697-12.789,1-19.083-0.799c-14.587-4.197-30.274-4.296-45.16-6.794
		c-5.695-0.898-11.391-2.897-7.793-9.791C262.961,340.701,275.65,332.509,276.25,335.906
		C282.145,336.006,276.25,335.906,276.25,335.906z"/>
	<path fill="#454646" d="M113.692,275.559c-7.493,0-15.286-10.091-15.086-17.385c0.3-7.793,9.392-14.487,16.485-15.387
		c8.593-0.999,18.984,8.593,17.984,17.485c-0.5,4.396-5.196,8.991-8.593,11.49C123.684,272.361,113.993,277.058,113.692,275.559
		C110.496,275.559,113.692,275.659,113.692,275.559z M116.59,262.771c7.693-1.399-1.599-8.193-5.195-8.993
		c-3.098-0.699-2.697,4.197-1.799,5.696C110.795,261.971,113.993,262.67,116.59,262.771
		C116.89,262.771,114.692,262.771,116.59,262.771z"/>
	<path fill="#454646" d="M219.3,260.472c-1.199,3.297-4.097,5.495-5.195,8.892c-1.299,3.796-1.1,7.594-1.499,11.491
		c-0.2,2.198-2.798,21.081-6.195,20.282c-3.097-0.699-3.197-27.176-3.397-30.473c-0.6-11.09-1.298-22.08-2.298-33.071
		c-0.3-3.796-1.299-7.993-0.699-11.789c0.799-4.097,5.096,3.996,5.495,4.795c2.697,5.295,4.696,10.891,6.394,16.585
		C213.505,252.379,217.402,255.677,219.3,260.472C219.101,260.972,219.101,259.873,219.3,260.472z"/>
	<path fill="#454646" d="M112.394,322.917c10.19-1.898,27.975-2.198,34.47-11.789c3.197-4.796,2.497-10.99,2.897-16.486
		c0.1-1.598,0-6.194,2.198-6.793c2.397-0.7,5.395,4.496,6.394,6.094c5.996,10.291,1.199,23.08-8.492,29.074
		C137.672,330.311,124.883,327.214,112.394,322.917C114.492,322.518,112.694,323.017,112.394,322.917z"/>
	<path fill="#454646" d="M243.978,259.473c-1.398,5.195-3.296,10.09-4.296,15.386c-0.999,5.295-1.598,10.591-3.896,15.487
		c-2.598,5.495-3.896-6.595-3.996-7.493c-0.4-7.194-0.9-14.288-1.199-21.481c-0.3-5.896-0.5-11.89-0.6-17.784
		c0-1.299-0.4-15.087,2.298-12.389c3.297,3.397,4.096,8.192,5.295,12.489C238.982,248.982,243.579,254.078,243.978,259.473
		C243.678,260.571,243.878,257.375,243.978,259.473z"/>
	<path fill="#454646" d="M273.652,258.873c-0.8,3.297-6.794,28.275-9.692,28.175c-4.296-0.2-3.796-27.575-3.896-30.773
		c-0.201-5.895-0.6-11.79-0.5-17.685c0-1.199-0.1-11.789,2.798-5.895c2.298,4.695,4.296,9.392,5.994,14.388
		C269.456,250.681,273.353,255.476,273.652,258.873C273.453,259.772,273.552,257.874,273.652,258.873z"/>
	<path fill="#454646" d="M306.923,260.372c-3.197,2.197-6.794,4.196-8.691,7.693c-2.499,4.496-1,9.791-3.198,14.388
		c-3.197,6.594-4.596-1.199-4.796-4.597c-0.399-5.895-0.399-11.69-0.899-17.584c-0.5-6.194-1.399-12.39-1.898-18.584
		c-0.201-3.297-0.301-10.591,4.096-5.395c3.297,3.896,3.596,8.992,5.695,13.488C299.229,254.377,303.026,257.175,306.923,260.372
		C305.225,261.471,305.524,259.273,306.923,260.372z"/>
	<path fill="#454646" d="M430.814,282.053c1.298-9.292,1.298-16.386-2.299-25.278c-0.399-1.098-3.896-7.393-1.099-7.593
		c4.796-0.399,8.093,1.599,11.39,4.896c6.194,6.194,7.693,12.589,3.396,20.182c-1.898,3.397-4.396,7.094-7.593,9.392
		C430.215,286.749,432.413,282.252,430.814,282.053C431.114,279.755,430.814,282.053,430.814,282.053z"/>
	<path fill="#454646" d="M329.203,261.072c-0.2,3.296-3.497,5.895-4.597,8.992c-1.098,3.097-0.998,7.893-4.096,9.991
		c-3.497,2.298-3.497-20.182-3.597-22.28c-0.2-4.396-0.5-8.792-1.1-13.189c-0.299-1.998-1.797-11.19,2.299-6.494
		C323.309,243.986,327.405,253.478,329.203,261.072C329.104,262.37,328.904,260.072,329.203,261.072z"/>
	<path fill="#454646" d="M341.991,258.773c0.101-4.196-1.698-15.887,1.199-19.283c2.999-3.496,7.294,14.987,7.294,16.187
		c0.399,5.794,0,18.084-5.196,22.08C343.091,279.455,342.092,260.771,341.991,258.773
		C342.092,252.379,342.192,262.37,341.991,258.773z"/>
	<path fill="#454646" d="M365.072,258.374c1.599,0.199,10.191,0.499,9.292,3.696c-1.599,5.396-9.991-0.499-11.39-3.297
		C363.473,258.673,365.072,258.573,365.072,258.374C367.169,258.773,365.072,258.474,365.072,258.374z"/>
</g>
</svg>
