<?xml version="1.0" encoding="utf-8"?>
<!-- Generator: Adobe Illustrator 19.1.0, SVG Export Plug-In . SVG Version: 6.00 Build 0)  -->
<svg version="1.1" id="Layer_1" xmlns="http://www.w3.org/2000/svg" xmlns:xlink="http://www.w3.org/1999/xlink" x="0px" y="0px"
	 viewBox="0 0 512 512" style="enable-background:new 0 0 512 512;" xml:space="preserve">
<path fill="#454646" class="st0" d="M132.5,396.7c0,15.3,8.4,27.7,27.2,27.7c6.7,0,11.7-1.6,11.7-1.6v-9.3h-0.6c0,0-4.5,1.8-9.6,1.8
	c-11.1,0-15.6-8.5-15.6-18.6c0-10.2,4.5-18.5,15.6-18.5c5.1,0,9.6,1.8,9.6,1.8h0.6v-9.3c0,0-5-1.6-11.7-1.6
	C140.8,369.1,132.5,381.4,132.5,396.7z M194.3,369.7H182v54.1h32.6v-9.5h-20.3V369.7z M244.8,368.6c-16.8,0-26.3,11.1-26.3,28.3
	c0,16.8,9,28,26,28c16.8,0,26.3-11.1,26.3-28.3C270.8,379.8,261.8,368.6,244.8,368.6z M244.7,415.8c-8.6,0-13.1-6.3-13.1-19.1
	s4.5-19.1,13.1-19.1c8.6,0,13.1,6.3,13.1,19.1S253.2,415.8,244.7,415.8z M324.8,85.6H185.2C118.8,85.6,65,139.5,65,205.9
	S118.8,326,185.2,326h139.7c66.4,0,120.2-53.7,120.2-120.1C445,139.5,391.2,85.6,324.8,85.6z M321.7,283.5H188.3
	c-43,0-77.8-34.7-77.8-77.7s34.8-77.9,77.8-77.9h133.5c43,0,77.8,34.9,77.8,77.9C399.5,248.8,364.7,283.5,321.7,283.5z M313.2,403.9
	c0,6.7-1.9,11.9-10.4,11.9c-8.6,0-10.4-5.2-10.4-11.9v-34.3H280V402c0,4.8,0,10.9,4.3,16.1c3.7,4.5,9.5,6.8,17.6,6.8
	c7.8,0,13.8-2.1,17.7-6.8c4.3-5.3,4.3-11.4,4.3-16.1v-32.3h-10.7V403.9z M371.3,373.5c-6.6-3.8-13.8-3.8-19.2-3.8h-16.5v54.1H352
	c3.8,0,12,0.3,19.1-3.7c6.6-3.8,11.4-11.1,11.4-23.3C382.5,384.2,377.5,377.2,371.3,373.5z M362.7,412.9c-3.2,1.8-6.6,1.9-9.9,1.9
	h-5v-36h5c2.7,0,6.3,0,9.7,1.8c5.2,2.7,7.1,8.5,7.1,16.2C369.5,404.7,367.6,410.1,362.7,412.9z"/>
</svg>
