<?xml version="1.0" encoding="utf-8"?>
<!-- Generator: Adobe Illustrator 16.0.4, SVG Export Plug-In . SVG Version: 6.00 Build 0)  -->
<!DOCTYPE svg PUBLIC "-//W3C//DTD SVG 1.1//EN" "http://www.w3.org/Graphics/SVG/1.1/DTD/svg11.dtd">
<svg version="1.1" id="Layer_1" xmlns="http://www.w3.org/2000/svg" xmlns:xlink="http://www.w3.org/1999/xlink" x="0px" y="0px"
	 width="512px" height="512px" viewBox="0 0 512 512" enable-background="new 0 0 512 512" xml:space="preserve">
<path fill="#454646" d="M256,66C151.232,66,66,151.233,66,256s85.232,190,190,190s190-85.233,190-190S360.768,66,256,66z
	 M192.357,190.086c14.436,0,26.14,11.701,26.14,26.14c0,14.439-11.704,26.14-26.14,26.14s-26.141-11.701-26.141-26.14
	C166.217,201.787,177.922,190.086,192.357,190.086z M331.258,348.473H180.742c-7.696,0-13.945-6.242-13.945-13.938
	c0-7.7,6.249-13.942,13.945-13.942h150.516c7.704,0,13.945,6.242,13.945,13.942C345.203,342.231,338.962,348.473,331.258,348.473z
	 M319.643,242.366c-14.436,0-26.141-11.701-26.141-26.14c0-14.439,11.705-26.14,26.141-26.14s26.14,11.701,26.14,26.14
	C345.782,230.666,334.078,242.366,319.643,242.366z"/>
</svg>
