<?xml version="1.0" encoding="utf-8"?>
<!-- Generator: Adobe Illustrator 19.2.1, SVG Export Plug-In . SVG Version: 6.00 Build 0)  -->
<svg version="1.1" id="Layer_1" xmlns="http://www.w3.org/2000/svg" xmlns:xlink="http://www.w3.org/1999/xlink" x="0px" y="0px"
	 width="512px" height="512px" viewBox="0 0 512 512" enable-background="new 0 0 512 512" xml:space="preserve">
<path fill="#454646" d="M295.654,77.655c0-21.901-17.754-39.655-39.655-39.655s-39.655,17.754-39.655,39.655h-28.83v64.325h136.972
	V77.655H295.654z M255.999,94.712c-9.419,0-17.056-7.638-17.056-17.057s7.636-17.057,17.056-17.057
	c9.419,0,17.056,7.638,17.056,17.057S265.418,94.712,255.999,94.712z"/>
<path fill="#454646" d="M388.401,77.607H347.47v29.897h32.389v324.598h-247.72V107.504h32.391V77.607h-40.932
	c-11.746,0-21.355,9.61-21.355,21.355v341.682c0,11.746,9.61,21.355,21.355,21.355h264.804c11.746,0,21.355-9.61,21.355-21.355
	V98.962C409.757,87.216,400.147,77.607,388.401,77.607z"/>
<path fill="#454646" d="M171,221.98h170c1.657,0,3-1.343,3-3v-26c0-1.657-1.343-3-3-3H171c-1.657,0-3,1.343-3,3v26
	C168,220.637,169.343,221.98,171,221.98z"/>
<path fill="#454646" d="M171,381.98h170c1.657,0,3-1.343,3-3v-26c0-1.657-1.343-3-3-3H171c-1.657,0-3,1.343-3,3v26
	C168,380.637,169.343,381.98,171,381.98z"/>
<path fill="#454646" d="M171,301.984h170c1.657,0,3-1.343,3-3v-26c0-1.657-1.343-3-3-3H171c-1.657,0-3,1.343-3,3v26
	C168,300.641,169.343,301.984,171,301.984z"/>
</svg>
