<?xml version="1.0" encoding="utf-8"?>
<!-- Generator: Adobe Illustrator 16.0.4, SVG Export Plug-In . SVG Version: 6.00 Build 0)  -->
<!DOCTYPE svg PUBLIC "-//W3C//DTD SVG 1.1//EN" "http://www.w3.org/Graphics/SVG/1.1/DTD/svg11.dtd">
<svg version="1.1" id="Layer_1" xmlns="http://www.w3.org/2000/svg" xmlns:xlink="http://www.w3.org/1999/xlink" x="0px" y="0px"
	 width="512px" height="512px" viewBox="0 0 512 512" enable-background="new 0 0 512 512" xml:space="preserve">
<g>
	<rect x="155.05" y="369.46" fill="#454646" width="12.283" height="9.949"/>
	<rect x="212.926" y="368.556" fill="#454646" width="13.723" height="15.301"/>
	<path fill="#454646" d="M403.171,352.93c-0.156-8.726-0.319-17.751-0.319-27.668V66H177.887c-29.079,0-45.711,1.893-55.887,12.231
		c-14.465,14.688-14.005,44.626-12.995,110.221c0.318,20.59,0.675,43.928,0.675,71.601c0,90.443-0.563,180.589-0.571,181.487
		l-0.022,3.618l3.622,0.024c1.291,0.009,130.113,0.818,213.816,0.818c33.035,0,51.901-4.856,63.079-16.241
		C404.291,414.802,403.846,390.189,403.171,352.93z M352.427,100.217l15.602,11.348l-2.836,4.253l-13.24-7.092L352.427,100.217z
		 M307.042,86.506l1.893,12.292l-19.386,0.473l-2.835-13.712L307.042,86.506z M246.999,93.125l11.341,12.766l-15.601,8.982
		l-11.341-13.708L246.999,93.125z M194.044,133.786l16.551,10.873l-12.766,15.127l-17.018-11.346L194.044,133.786z M151.97,196.191
		l21.746,8.513l-6.62,18.436l-22.222-7.091L151.97,196.191z M128.331,275.146l24.581,1.891l-4.253,24.585l-23.163-2.837
		L128.331,275.146z M167.333,408.575l-12.966-12.962v14.545h-14.243v-55.846h18.243c14.413,0,26.904,2.143,26.904,18.69
		c-0.942,18.037-13.419,18.239-13.419,18.239l17.338,17.333H167.333z M241.566,408.501h-14.695v-9.27h-14.168v9.496h-14.621v-38.814
		c0-14.697,10.813-15.419,18.614-15.374c1.113,0.007,2.145,0,3.095,0c7.593,0,21.775,0.499,21.775,13.265V408.501z M271.343,407.998
		h-15.125v-53.424h15.125V407.998z M323.586,408.707h-36.404v-53.424l14.896-0.236v39.479h21.509V408.707z M284.347,207.065
		l-3.785,15.603l-16.068-13.712l6.145-12.292L284.347,207.065z M279.618,166.407l9.931-8.982l9.456,14.183l-5.678,9.927
		L279.618,166.407z M281.986,249.144l0.942,15.603l-19.854-8.513l0.942-16.547L281.986,249.144z M290.491,298.312l8.98,18.439
		l-25.049-1.417l-4.734-17.022H290.491z M315.08,154.113l-6.146-11.345l13.233-3.31l1.893,7.564L315.08,154.113z M351.01,409.18
		c-15.839,0-19.148,0-19.148,0v-13.003c0,0,15.37,0,21.983,0c6.62,0,6.984-2.154,6.984-4.03c0-1.878-3.385-2.752-10.265-2.752
		s-19.646-3.382-19.646-16.619c0-13.237,6.612-18.202,19.854-18.202c13.24,0,21.041,0.237,21.041,0.237v14.419h-24.352v5.201
		c0,0,4.965,0,10.405,0c5.433,0,16.781-0.236,16.781,16.784C374.648,408.234,366.848,409.18,351.01,409.18z M349.592,143.713v-7.092
		l12.766,2.837v5.672L349.592,143.713z M377.483,142.768c0,0-14.184-16.076-40.182-13.239
		c-26.007,2.837-71.866,29.312-78.962,87.465c-7.088,58.152,20.804,121.505,20.804,121.505H153.388c0,0-3.311-20.803,4.728-60.518
		c8.038-39.713,19.854-66.187,40.189-104.012c20.328-37.822,52.947-69.025,100.225-73.28s84.632,33.567,84.632,33.567
		L377.483,142.768z"/>
</g>
</svg>
