<?xml version="1.0" encoding="utf-8"?>
<!-- Generator: Adobe Illustrator 16.0.4, SVG Export Plug-In . SVG Version: 6.00 Build 0)  -->
<!DOCTYPE svg PUBLIC "-//W3C//DTD SVG 1.1//EN" "http://www.w3.org/Graphics/SVG/1.1/DTD/svg11.dtd">
<svg version="1.1" id="Layer_1" xmlns="http://www.w3.org/2000/svg" xmlns:xlink="http://www.w3.org/1999/xlink" x="0px" y="0px"
	 width="512px" height="512px" viewBox="0 0 512 512" enable-background="new 0 0 512 512" xml:space="preserve">
<g>
	<path fill="#454646" d="M427,161.019H294v-57.044c0-10.45-8.55-19-19-19H85c-10.45,0-19,8.55-19,19v152.007c0,10.45,8.55,19,19,19
		h57v133.044c0,10.45,8.55,19,19,19h266c10.45,0,19-8.55,19-19V180.019C446,169.568,437.45,161.019,427,161.019z M113.768,236.981
		c-7.459,0-13.567-6.106-13.567-13.571v-86.866c0-7.464,6.108-13.571,13.567-13.571h132.458c7.466,0,13.574,6.106,13.574,13.571
		v24.474H161c-10.45,0-19,8.55-19,19v56.963H113.768z M408,375.455c0,7.464-6.108,13.571-13.574,13.571H193.567
		c-7.459,0-13.567-6.106-13.567-13.571V274.981v-38v-24.392c0-7.464,6.108-13.571,13.567-13.571H259.8H294h100.426
		c7.466,0,13.574,6.106,13.574,13.571V375.455z"/>
</g>
</svg>
