<?xml version="1.0" encoding="utf-8"?>
<!-- Generator: Adobe Illustrator 16.0.4, SVG Export Plug-In . SVG Version: 6.00 Build 0)  -->
<!DOCTYPE svg PUBLIC "-//W3C//DTD SVG 1.1//EN" "http://www.w3.org/Graphics/SVG/1.1/DTD/svg11.dtd">
<svg version="1.1" id="Layer_1" xmlns="http://www.w3.org/2000/svg" xmlns:xlink="http://www.w3.org/1999/xlink" x="0px" y="0px"
	 width="512px" height="512px" viewBox="0 0 512 512" enable-background="new 0 0 512 512" xml:space="preserve">
<g>
	<g>
		<path fill-rule="evenodd" clip-rule="evenodd" fill="#454646" d="M405.328,188.987c-1.492,1.307-2.951,2.57-4.39,3.855
			c-6.513,5.795-12.782,11.823-18.263,18.625c-9.299,11.527-15.298,24.554-17.587,39.218c-1.166,7.469-1.262,14.97-0.51,22.495
			c2.293,22.901,12.434,41.857,28.983,57.542c6.318,5.99,13.654,10.387,21.973,13.073c0.195,0.064,0.398,0.135,0.801,0.266
			c-0.176,0.63-0.318,1.225-0.509,1.814c-3.256,10.087-7.366,19.822-12.192,29.25c-6.972,13.611-14.871,26.636-24.195,38.771
			c-6.011,7.821-12.602,15.094-20.423,21.174c-5.374,4.18-11.17,7.592-17.681,9.746c-6.572,2.17-13.256,2.464-20.043,1.398
			c-8.796-1.372-17.218-4.081-25.563-7.065c-7.288-2.604-14.698-4.746-22.34-6.078c-8.972-1.565-17.852-1.22-26.694,0.864
			c-7.284,1.717-14.262,4.331-21.186,7.128c-6.174,2.5-12.498,4.526-19.082,5.726c-9.421,1.713-18.379,0.28-26.975-3.77
			c-7.777-3.658-14.416-8.897-20.49-14.901c-7.953-7.85-14.689-16.688-20.727-26.06c-12.387-19.201-22.732-39.431-30.328-61.017
			c-4.626-13.155-8.036-26.613-10.117-40.4c-1.896-12.575-2.488-25.226-1.922-37.926c0.59-13.187,2.494-26.182,6.34-38.844
			c4.921-16.209,12.676-30.857,24.037-43.494c8.453-9.396,18.285-16.884,30.039-21.718c6.951-2.854,14.177-4.589,21.643-5.361
			c10.854-1.124,21.552-0.006,32.191,2.109c7.958,1.585,15.713,3.957,23.538,6.036c5.599,1.496,11.254,2.776,16.883,4.149
			c6.506,1.592,12.972,1.282,19.467-0.17c7.87-1.763,15.542-4.175,23.167-6.759c8.351-2.832,16.828-5.15,25.552-6.524
			c8.003-1.263,16.026-1.415,24.086-0.526c11.302,1.245,21.934,4.535,31.873,10.058c6.329,3.522,12.014,7.905,17.305,12.83
			c4.528,4.219,8.706,8.762,12.646,13.53C404.869,188.317,405.071,188.626,405.328,188.987z"/>
		<path fill-rule="evenodd" clip-rule="evenodd" fill="#454646" d="M253.113,157.433c-0.022-0.357-0.061-0.617-0.052-0.874
			c0.284-17.064,3.902-33.297,11.839-48.519c7.91-15.18,19.718-26.221,34.973-33.756c8.658-4.281,17.756-7.288,27.118-9.565
			c0.411-0.101,0.837-0.137,1.341-0.219c0.729,1.661,1.007,3.394,1.203,5.143c0.59,5.285,0.174,10.532-0.756,15.724
			c-2.462,13.76-7.361,26.563-15.482,38.028c-6.451,9.1-14.083,17.039-23.252,23.465c-6.943,4.87-14.564,7.965-22.993,9.03
			c-4.21,0.525-8.421,1.034-12.628,1.543C254.049,157.474,253.668,157.433,253.113,157.433z"/>
	</g>
</g>
</svg>
