<?xml version="1.0" encoding="utf-8"?>
<!-- Generator: Adobe Illustrator 19.2.1, SVG Export Plug-In . SVG Version: 6.00 Build 0)  -->
<svg version="1.1" id="Ebene_1" xmlns="http://www.w3.org/2000/svg" xmlns:xlink="http://www.w3.org/1999/xlink" x="0px" y="0px"
	 width="512px" height="512px" viewBox="0 0 512 512" enable-background="new 0 0 512 512" xml:space="preserve">
<g>
	<g>
		<polygon fill="#454646" points="446,272 342.5,272 342.5,287.4 385.2,287.4 385.2,419.7 403.3,419.7 403.3,287.4 446,287.4 		"/>
		<polygon fill="#454646" points="325,287.4 325,272 245.9,272 245.9,419.7 325,419.7 325,404.4 264,404.4 264,352.8 318.4,352.8 
			318.4,337.5 264,337.5 264,287.4 		"/>
		<path fill="#454646" d="M91.5,412.5c0,7-5.7,12.8-12.8,12.8c-7,0-12.8-5.7-12.8-12.8c0-7.1,5.7-12.8,12.8-12.8
			C85.8,399.8,91.5,405.5,91.5,412.5z"/>
		<polygon fill="#454646" points="225.3,272 207.2,272 207.2,388.6 123.9,272 105.8,272 105.8,419.7 123.9,419.7 123.9,303.2 
			207.2,419.7 225.3,419.7 		"/>
	</g>
	<g>
		<rect x="151.6" y="86.7" fill="#454646" width="15.2" height="162.8"/>
		<rect x="195.7" y="86.7" fill="#454646" width="15.2" height="162.8"/>
		<g>
			<path fill="#454646" d="M329.5,249.6h-92.1v-15.1h92.1c0.1,0,6-0.1,10.6-4.7c4.3-4.2,6-14.7,4.7-28c-0.9-9.3-12.4-14-13.1-14.3
				c-7.4-2.6-68.5-24.1-76.3-27.5c-9.8-4.3-15.7-14.8-16.4-16l-0.2-0.4c-0.3-0.7-7.5-16.5-1.2-34.9c7-20.3,32.2-21.9,33.3-22l0.4,0
				h82.3v15.1h-82c-1.6,0.1-16.2,1.7-19.7,11.9c-4,11.6-0.1,21.9,0.5,23.4c1.3,2.1,5,7.4,9.1,9.2c6.1,2.7,56.4,20.5,75.2,27.1l0.1,0
				c0.9,0.3,21.1,7.9,23,27c1.3,12.9,0.7,30.4-9.1,40.2C342,249.1,331.5,249.6,329.5,249.6z"/>
		</g>
	</g>
</g>
</svg>
