<?xml version="1.0" encoding="utf-8"?>
<!-- Generator: Adobe Illustrator 16.0.4, SVG Export Plug-In . SVG Version: 6.00 Build 0)  -->
<!DOCTYPE svg PUBLIC "-//W3C//DTD SVG 1.1//EN" "http://www.w3.org/Graphics/SVG/1.1/DTD/svg11.dtd">
<svg version="1.1" id="Layer_1" xmlns="http://www.w3.org/2000/svg" xmlns:xlink="http://www.w3.org/1999/xlink" x="0px" y="0px"
	 width="512px" height="512px" viewBox="0 0 512 512" enable-background="new 0 0 512 512" xml:space="preserve">
<g>
	<rect x="66" y="107.786" fill="#454646" width="27.656" height="296.428"/>
	<rect x="146.309" y="107.786" fill="#454646" width="27.656" height="296.428"/>
	<g>
		<path fill="#454646" d="M389.81,404.214H222.146V376.8H389.81c0.107,0,10.869-0.102,19.385-8.526
			c7.77-7.682,10.989-26.747,8.614-50.97c-1.666-17.014-22.623-25.503-23.898-26.004c-13.48-4.731-124.738-43.826-138.825-50.097
			c-17.757-7.886-28.616-26.922-29.794-29.075l-0.403-0.779c-0.566-1.216-13.74-30.003-2.171-63.494
			c12.742-36.877,58.614-39.938,60.562-40.05l0.788-0.019h149.861V135.2H284.583c-2.997,0.269-29.581,3.173-35.95,21.607
			c-7.282,21.078-0.204,39.791,0.933,42.555c2.287,3.896,9.036,13.405,16.653,16.792c11.114,4.944,102.611,37.285,136.933,49.327
			l0.148,0.056c1.568,0.566,38.394,14.361,41.799,49.095c2.31,23.574,1.299,55.404-16.62,73.133
			C412.646,403.425,393.489,404.214,389.81,404.214z"/>
	</g>
</g>
</svg>
