<?xml version="1.0" encoding="utf-8"?>
<!-- Generator: Adobe Illustrator 19.2.1, SVG Export Plug-In . SVG Version: 6.00 Build 0)  -->
<svg version="1.1" id="Work_area" xmlns="http://www.w3.org/2000/svg" xmlns:xlink="http://www.w3.org/1999/xlink" x="0px" y="0px"
	 width="512px" height="512px" viewBox="0 0 512 512" enable-background="new 0 0 512 512" xml:space="preserve">
<g>
	<g id="layer1_2_" transform="translate(-702.6538,-712.5837)">
		<g id="g16337_2_">
			<path id="path16197_2_" fill="#454646" d="M889,1039.1c-66.2,0-119.9-53.6-119.9-119.8s53.7-120,119.9-120h139.4
				c66.2,0,119.9,53.8,119.9,120s-53.7,119.8-119.9,119.8H889z M1025.2,996.8c42.9,0,77.6-34.6,77.6-77.5
				c0-42.9-34.7-77.7-77.6-77.7H892.1c-42.9,0-77.6,34.8-77.6,77.7c0,42.9,34.8,77.5,77.6,77.5H1025.2z"/>
		</g>
	</g>
	<g>
		<path fill="#454646" d="M158.3,370v9.4h-22.6v15.2h20.1v9.4h-20.1v20.1h-12.9V370H158.3z"/>
		<path fill="#454646" d="M189.1,425.3c-17.9,0-27.3-11.2-27.3-28c0-17.2,9.9-28.3,27.6-28.3c17.9,0,27.3,11.2,27.3,28
			C216.8,414.2,206.9,425.3,189.1,425.3z M203.1,397.1c0-12.8-4.8-19.1-13.8-19.1c-9,0-13.8,6.3-13.8,19.1
			c0,12.8,4.8,19.1,13.8,19.1C198.3,416.2,203.1,409.8,203.1,397.1z"/>
		<path fill="#454646" d="M237.4,404.1v20.1h-12.6V370h20.4c4.7,0,11.1,0,16.4,3.5c4.6,3,6.5,7.6,6.5,13.2c0,8.1-4.1,13.1-10.6,15.6
			l13.2,22h-14.3l-11.1-20.1H237.4z M237.4,395h7.9c1.5,0,4.8,0,6.9-1.4c1.7-1.1,3.1-3.4,3.1-6.6c0-2.8-1.1-5.3-3.1-6.6
			c-2.2-1.4-5.5-1.4-6.9-1.4h-7.9V395z"/>
		<path fill="#454646" d="M293.9,370l15.9,37.8l15.4-37.8h16.7v54.2h-12.3v-41.1l-15.4,38.4h-10.7l-15.4-38.4v41.1h-11.3V370H293.9z
			"/>
		<path fill="#454646" d="M386.3,380.7h-0.6c0,0-7.5-2.6-13.6-2.6c-5.5,0-8.1,2.1-8.1,5.1c0,9.6,25.1,7,25.1,25.1
			c0,10.9-8.9,16.4-22.8,16.4c-9.2,0-15.6-2.4-15.6-2.4v-9.4h0.6c0,0,8.6,3.2,15.2,3.2c5.7,0,9-2.3,9-6.1c0-10.2-25.1-8-25.1-25.2
			c0-9.8,8-15.4,21.4-15.4c8.1,0,14.5,2.1,14.5,2.1V380.7z"/>
	</g>
</g>
</svg>
