<?xml version="1.0" encoding="utf-8"?>
<!-- Generator: Adobe Illustrator 19.2.1, SVG Export Plug-In . SVG Version: 6.00 Build 0)  -->
<svg version="1.1" id="Layer_1" xmlns="http://www.w3.org/2000/svg" xmlns:xlink="http://www.w3.org/1999/xlink" x="0px" y="0px"
	 width="512px" height="512px" viewBox="0 0 512 512" enable-background="new 0 0 512 512" xml:space="preserve">
<g>
	<path fill="#454646" d="M152.084,213.497c5.923-15.188,14.846-29.16,26.33-40.832c15.634-16.051,35.959-27.517,57.951-32.207
		c18.761-3.96,38.564-3.231,56.909,2.293c15.634,4.69,30.018,13.341,41.796,24.598c11.882-11.882,23.764-23.764,35.646-35.646
		c6.253-6.358,12.82-12.507,18.865-19.074c-18.032-16.677-39.294-30.122-62.433-38.669c-41.692-15.426-88.594-15.738-130.599-1.25
		c-45.642,15.617-84.754,49.156-107.553,91.765L152.084,213.497z"/>
	<path fill="#454646" d="M148.686,288.79c-6.118-21.214-6.191-44.148-0.02-65.286l-64.241-49.918
		c-6.639,14.046-11.522,28.819-14.617,44.105c-8.207,40.434-3.047,83.458,14.54,120.776L148.686,288.79z"/>
	<path fill="#454646" d="M442.32,219.672c-60.765,0-121.635,0-182.4,0c0,25.223,0,50.446,0,75.67c35.229,0,70.458,0,105.688,0
		c-3.776,22.463-16.461,43.123-34.537,56.892l60.915,47.39c21.539-21.101,37.045-48.05,45.436-76.974
		C447.115,289.401,448.365,253.859,442.32,219.672z"/>
	<path fill="#454646" d="M322.352,358.12c-11.715,7.028-24.777,11.639-38.25,14.038c-15.218,2.605-31.061,2.918-46.278-0.104
		c-15.53-3.127-30.226-9.589-43.15-18.657c-19.203-13.481-34.156-32.741-42.608-54.582l-63.137,48.75
		c12.471,23.195,29.725,43.881,50.295,60.239c20.742,16.468,44.818,28.767,70.458,35.542c32.311,8.651,66.707,8.442,99.226,1.042
		c27.741-6.394,54.083-19.293,75.621-37.897L322.352,358.12z"/>
</g>
</svg>
