<?xml version="1.0" encoding="utf-8"?>
<!-- Generator: Adobe Illustrator 19.2.1, SVG Export Plug-In . SVG Version: 6.00 Build 0)  -->
<svg version="1.1" id="Layer_1" xmlns="http://www.w3.org/2000/svg" xmlns:xlink="http://www.w3.org/1999/xlink" x="0px" y="0px"
	 width="512px" height="512px" viewBox="0 0 512 512" enable-background="new 0 0 512 512" xml:space="preserve">
<path fill="#454646" d="M295.654,77.655c0-21.901-17.754-39.655-39.655-39.655s-39.655,17.754-39.655,39.655h-28.83v64.325h136.972
	V77.655H295.654z M255.999,94.712c-9.419,0-17.056-7.638-17.056-17.057s7.636-17.057,17.056-17.057
	c9.419,0,17.056,7.638,17.056,17.057S265.418,94.712,255.999,94.712z"/>
<path fill="#454646" d="M388.401,77.607H347.47v29.897h32.389v324.598h-247.72V107.504h32.391V77.607h-40.932
	c-11.746,0-21.355,9.61-21.355,21.355v341.682c0,11.746,9.61,21.355,21.355,21.355h264.804c11.746,0,21.355-9.61,21.355-21.355
	V98.962C409.757,87.216,400.147,77.607,388.401,77.607z"/>
<path fill="#454646" d="M186.605,374.831l-35.322-35.312l16.327-16.318l18.993,18.99l43.518-43.513l16.317,16.319L186.605,374.831z"
	/>
<polygon fill="#454646" points="237.731,256.652 210.805,229.727 237.73,202.804 224.463,189.536 197.539,216.46 170.615,189.537 
	157.349,202.802 184.272,229.727 157.347,256.651 170.613,269.917 197.538,242.993 224.464,269.92 "/>
<path fill="#454646" d="M348.98,240.147H259c-1.657,0-3-1.343-3-3v-14c0-1.657,1.343-3,3-3h89.98c1.657,0,3,1.343,3,3v14
	C351.98,238.803,350.637,240.147,348.98,240.147z"/>
<path fill="#454646" d="M348.98,355.98H259c-1.657,0-3-1.343-3-3v-14c0-1.657,1.343-3,3-3h89.98c1.657,0,3,1.343,3,3v14
	C351.98,354.637,350.637,355.98,348.98,355.98z"/>
</svg>
