<?xml version="1.0" encoding="utf-8"?>
<!-- Generator: Adobe Illustrator 18.0.0, SVG Export Plug-In . SVG Version: 6.00 Build 0)  -->
<!DOCTYPE svg PUBLIC "-//W3C//DTD SVG 1.1//EN" "http://www.w3.org/Graphics/SVG/1.1/DTD/svg11.dtd">
<svg version="1.1" id="Ebene_1" xmlns="http://www.w3.org/2000/svg" xmlns:xlink="http://www.w3.org/1999/xlink" x="0px" y="0px"
	 width="512px" height="512px" viewBox="0 0 512 512" enable-background="new 0 0 512 512" xml:space="preserve">
<path id="XMLID_1162_" fill="#454646" d="M466,215.6c-48,0-78.4,24.4-93.3,64.3c-49.8-173.7-218.8-147.7-218.8-147.7l12.4,59
	c-34.3-11-63.1-8.3-63.1-8.3l12.7,52c-32.3-18-65-14.8-65-14.8L77,319.7H46.3L46,383.6h419.6C465.6,383.6,466,224.9,466,215.6z
	 M174.1,165.4c0,0,128.7,29.4,130.9,154.3h-33.7c-5.6-69.8-58.5-109.6-91.2-123.4L174.1,165.4z M121.8,202.7c0,0,84.7,25,92.3,117
	h-39.7c-8.2-19.3-12.3-41.1-40.5-72.2L121.8,202.7z M71.9,240c0,0,57.2,21.2,66.8,78.4l0.3,1.3H93.8L71.9,240z"/>
</svg>
