<?xml version="1.0" encoding="utf-8"?>
<!-- Generator: Adobe Illustrator 16.0.4, SVG Export Plug-In . SVG Version: 6.00 Build 0)  -->
<!DOCTYPE svg PUBLIC "-//W3C//DTD SVG 1.1//EN" "http://www.w3.org/Graphics/SVG/1.1/DTD/svg11.dtd">
<svg version="1.1" id="Layer_1" xmlns="http://www.w3.org/2000/svg" xmlns:xlink="http://www.w3.org/1999/xlink" x="0px" y="0px"
	 width="512px" height="512px" viewBox="0 0 512 512" enable-background="new 0 0 512 512" xml:space="preserve">
<path fill="#454646" d="M496,225.116l-47.602-107.505c0,0-65.786,14.444-82.901,11.766c-17.113-2.672-50.278-14.973-50.278-14.973
	s-22.234-6.121-35.831-3.208c-7.46,1.601-14.749,4.111-22.293,8.458c-7.068-3.817-14.484-6.557-22.624-8.311
	c-3.328-0.71-7.048-1.064-11.096-1.064c-13.189,0-27.101,3.716-28.641,4.138l-0.696,0.188l-0.68,0.255
	c-7.781,2.886-30.412,10.761-41.538,12.495c-0.021,0.014-0.633,0.101-2.188,0.101c-14.925,0-52.321-7.493-65.467-10.379l-13.191-2.9
	l-5.465,12.349l-42.348,95.651L16,238.354l16.624,6.047c0.389,0.141,40.827,15.154,69.181,42.925c0.08,0.08,0.167,0.174,0.248,0.254
	c-8.578,10.212-8.243,24.684,0.83,32.518c6.652,5.719,16.142,6.262,24.214,2.23c-5.47,9.689-4.195,21.556,3.717,28.373
	c8.337,7.178,21.154,6.214,30.021-1.741c-2.482,8.391-0.462,17.356,6.007,22.935c7.506,6.476,18.652,6.349,27.274,0.449
	c-3.234,8.819-1.366,18.582,5.512,24.516c9.156,7.882,23.711,5.979,32.497-4.232l2.229-2.592c10.46,3.991,23.308,7.734,34.755,7.734
	c5.665,0,10.674-0.957,14.89-2.839c6.894-3.087,12.13-7.011,15.967-12.107c2.873,0.562,5.934,0.931,9.037,0.931
	c4.661,0,8.983-0.823,12.85-2.438c11.021-4.613,17.938-11.27,22.089-18.087c0.372,0.014,0.744,0.021,1.125,0.021
	c10.246,0,20.127-3.931,28.581-11.377c8.035-7.059,11.598-15.516,12.716-23.371c5.163-1.707,10.628-4.433,15.182-8.719
	c7.318-6.91,11.263-15.944,11.41-26.123c0.06-4.225-0.6-8.27-1.651-12.08L496,225.116z M386.263,303.558
	c-1.607,1.514-3.998,2.826-6.911,3.79l-13.1,4.347l-1.947,13.66c-0.562,3.958-2.271,7.059-5.381,9.79
	c-4.39,3.857-9.05,5.819-13.858,5.819h-0.118l-13.182-0.596l-6.863,11.271c-2.296,3.776-6.221,6.844-11.65,9.113
	c-1.133,0.476-2.566,0.717-4.25,0.717c-1.396,0-3.007-0.174-4.785-0.522l-13.68-2.658l-8.378,11.136
	c-0.938,1.239-2.705,3.121-7.245,5.156c-0.757,0.342-2.518,0.904-5.806,0.904c-5.505,0-12.892-1.54-21.114-4.259
	c2.934-8.659,1.019-18.114-5.705-23.899c-6.429-5.531-15.495-6.234-23.377-2.646c6.897-10.011,6.033-23.109-2.438-30.401
	c-6.322-5.451-15.211-6.229-23.01-2.826l0.446-0.516c8.792-10.199,8.514-24.884-0.64-32.752c-9.154-7.896-23.699-5.994-32.495,4.225
	l-2.542,2.947c2.211-8.21,0.122-16.889-6.2-22.326c-9.144-7.889-23.701-5.993-32.497,4.232l-2.927,3.395
	c-25.067-24.207-57.656-39.441-70.654-44.913l38.036-85.922c12.822,2.699,48.72,9.918,65.641,9.918c1.734,0,3.619-0.047,5.63-0.368
	l0,0c14.859-2.317,42-12.201,45.596-13.527c4.358-1.172,14.337-3.281,22.517-3.281c2.447,0,4.674,0.194,6.405,0.562
	c2.574,0.556,5.022,1.272,7.419,2.083c-0.2,0.2-0.395,0.382-0.596,0.582c-15.512,15.516-60.977,74.88-60.977,82.366
	c0,7.493,12.823,13.319,26.39,13.554c20.497,0.354,61.419-43.212,89.672-39.757c5.257,0.643,10.059,2.076,14.545,3.991
	c31.092,32.177,69.194,71.732,77.109,79.955l0.107,0.114l0.113,0.113c2.913,2.94,7.212,9.951,7.104,17.21
	C390.611,297.471,389.165,300.819,386.263,303.558z"/>
</svg>
