<?xml version="1.0" encoding="utf-8"?>
<!-- Generator: Adobe Illustrator 16.0.4, SVG Export Plug-In . SVG Version: 6.00 Build 0)  -->
<!DOCTYPE svg PUBLIC "-//W3C//DTD SVG 1.1//EN" "http://www.w3.org/Graphics/SVG/1.1/DTD/svg11.dtd">
<svg version="1.1" id="Layer_1" xmlns="http://www.w3.org/2000/svg" xmlns:xlink="http://www.w3.org/1999/xlink" x="0px" y="0px"
	 width="512px" height="512px" viewBox="0 0 512 512" enable-background="new 0 0 512 512" xml:space="preserve">
<g>
	<g>
		<path fill="#454646" d="M200.759,104.318c25.76,0,49.979,10.032,68.194,28.248c37.6,37.604,37.6,98.785,0,136.385
			c-18.216,18.216-42.434,28.248-68.194,28.248c-25.76,0-49.978-10.032-68.194-28.248c-18.216-18.212-28.245-42.431-28.245-68.19
			s10.029-49.979,28.245-68.194C150.781,114.351,174.999,104.318,200.759,104.318 M200.759,66
			c-34.486,0-68.973,13.157-95.286,39.475c-52.628,52.623-52.628,137.948,0,190.572c26.31,26.314,60.796,39.471,95.286,39.471
			c34.486,0,68.973-13.156,95.287-39.471c52.627-52.627,52.627-137.949,0-190.572C269.731,79.157,235.245,66,200.759,66L200.759,66z
			"/>
	</g>
	<path fill="#454646" d="M443.765,411.84c2.979,2.979,2.979,7.858,0,10.837l-21.083,21.09c-2.979,2.979-7.854,2.979-10.837,0
		l-106.699-106.7c-2.979-2.979-2.979-7.857,0-10.836l21.086-21.087c2.982-2.979,7.854-2.979,10.837,0L443.765,411.84z"/>
</g>
</svg>
