<?xml version="1.0" encoding="utf-8"?>
<!-- Generator: Adobe Illustrator 19.2.1, SVG Export Plug-In . SVG Version: 6.00 Build 0)  -->
<svg version="1.1" id="Layer_1" xmlns="http://www.w3.org/2000/svg" xmlns:xlink="http://www.w3.org/1999/xlink" x="0px" y="0px"
	 width="512px" height="512px" viewBox="0 0 512 512" enable-background="new 0 0 512 512" xml:space="preserve">
<g>
	<g>
		<g>
			<g>
				<path fill="#454646" d="M191.13,46.456c-0.238,0-0.472,0.008-0.693,0v39.272c0.23,0,0.46-0.004,0.686-0.004
					c130.117,0,235.602,105.472,235.614,235.589H466C465.991,169.519,342.933,46.456,191.13,46.456z"/>
			</g>
			<g>
				<path fill="#454646" d="M190.961,141.685c-0.18,0.013-0.352,0.013-0.524,0.013v35.819c0.173,0,0.349-0.008,0.528-0.008
					c79.133,0,143.273,64.141,143.273,143.271c0,0.181-0.004,0.353-0.004,0.533h35.819c0-0.18,0.003-0.353,0.003-0.529
					C370.06,221.871,289.875,141.698,190.961,141.685z"/>
			</g>
		</g>
	</g>
	<path fill="#454646" d="M166.832,223.876c-66.735,0-120.834,54.099-120.834,120.834s54.099,120.834,120.834,120.834
		s120.834-54.099,120.834-120.834S233.567,223.876,166.832,223.876z M92.732,325.578c-0.003-0.487-0.37-5.773,4.57-10.465
		c10.934-10.384,38.127-36.193,43.552-41.335c4.94-4.695,10.202-4.052,10.693-4.02c7.307,0.428,20.423,1.352,35.26,3.094
		c22.718,2.673,42.657,6.472,42.657,6.472l-37.995,36.167c0,0-17.923-2.25-45.018-1.416c-15.343,0.476-30.528,2.134-40.817,3.48
		c-2.025,0.269-7.073,1.303-10.2,5.269c-1.538,1.952-2.233,3.243-2.682,5.095C92.744,327.083,92.735,326.3,92.732,325.578z
		 M93.988,360.96c-0.872-13.442-1.153-25.442-1.234-33.044c2.429-10.138,44.502-5.115,44.502-5.115
		c-2.242,27.018-0.859,45.108-0.859,45.108l-37.995,36.162C98.401,404.071,95.471,383.78,93.988,360.96z M179.65,419.511
		c-2.439-0.167-19.821-1.371-32.65-2.842c-22.721-2.609-42.846-6.535-42.846-6.535l37.995-36.162c0,0,17.999,2.272,45.096,1.367
		c0,0,2.876,41.325-6.967,44.112C180.167,419.484,179.849,419.525,179.65,419.511z M236.389,374.162
		c-5.405,5.165-32.527,31.052-43.433,41.459c-4.93,4.702-10.19,4.073-10.681,4.049c-0.722-0.042-1.502-0.085-2.336-0.138
		c1.874-0.354,3.199-0.983,5.22-2.422c4.116-2.93,5.401-7.921,5.765-9.933c1.853-10.206,4.261-25.294,5.492-40.594
		c2.171-27.022,0.809-45.034,0.809-45.034l37.992-36.163c0,0,2.816,20.102,4.362,42.922c1.007,14.91,1.284,28.055,1.352,35.376
		C240.934,364.172,241.32,369.462,236.389,374.162z"/>
</g>
</svg>
