<?xml version="1.0" encoding="utf-8"?>
<!-- Generator: Adobe Illustrator 16.0.4, SVG Export Plug-In . SVG Version: 6.00 Build 0)  -->
<!DOCTYPE svg PUBLIC "-//W3C//DTD SVG 1.1//EN" "http://www.w3.org/Graphics/SVG/1.1/DTD/svg11.dtd">
<svg version="1.1" id="Layer_1" xmlns="http://www.w3.org/2000/svg" xmlns:xlink="http://www.w3.org/1999/xlink" x="0px" y="0px"
	 width="512px" height="512px" viewBox="0 0 512 512" enable-background="new 0 0 512 512" xml:space="preserve">
<g>
	<path fill="#454646" d="M103.08,325.168c-0.353,0.665-0.688,1.292-1.022,1.908C102.393,326.456,102.724,325.84,103.08,325.168z"/>
	<path fill="#454646" d="M104.987,321.505c-0.278,0.545-0.535,1.028-0.8,1.544C104.455,322.533,104.709,322.051,104.987,321.505z"/>
	<path fill="#454646" d="M292.057,399.617c0.03-0.078,0.062-0.152,0.087-0.227C292.119,399.465,292.087,399.539,292.057,399.617z"/>
	<path fill="#454646" d="M294.021,392.641c0.035-0.223,0.068-0.438,0.096-0.649C294.089,392.203,294.054,392.421,294.021,392.641z"
		/>
	<path fill="#454646" d="M293.374,395.657L293.374,395.657L293.374,395.657z"/>
	<path fill="#454646" d="M101.423,328.245c-0.423,0.779-0.839,1.533-1.23,2.241C100.588,329.773,100.994,329.035,101.423,328.245z"
		/>
	<path fill="#454646" d="M427,66H85c-10.45,0-19,8.55-19,19v334.812c12.491-14.669,23.008-34.145,24.678-58.893
		c1.139-17.015,2.757-18.31,9.467-30.352c0.017-0.029,0.031-0.059,0.048-0.082c0.392-0.708,0.807-1.462,1.23-2.241
		c0.206-0.375,0.423-0.776,0.634-1.169c0.334-0.616,0.67-1.243,1.022-1.908c0.354-0.668,0.729-1.395,1.108-2.119
		c0.265-0.516,0.521-0.999,0.8-1.544c0.685-1.336,1.397-2.75,2.152-4.286c12.639-25.691,24.069-48.138,59.538-39.269
		c7.986,2,20.564,6.657,20.564,6.657s31.877-28.566,63.86-56.866c2.926-2.59,5.854-5.177,8.758-7.741
		c4.783-4.223,9.485-8.357,14.032-12.35c3.153-2.769,6.215-5.448,9.163-8.023c13.984-12.205,25.316-21.917,30.086-25.579
		c6.665-5.129,17.011-4.461,22.087,1.091c5.336,5.849,5.119,16.859,0.505,21.753c-4.383,4.65-15.306,15.868-28.109,28.949
		c-2.751,2.809-5.588,5.704-8.47,8.643c-4.314,4.405-8.713,8.888-13.059,13.308c-2.778,2.828-5.529,5.629-8.216,8.364
		c-17.963,18.273-32.99,33.514-32.99,33.514s20.477-1.336,28.5,10.131c6.65,9.5-1.685,28.289-1.685,28.289
		s13.159,1.306,17.523,12.88c3.637,9.652-2.538,24.062-6.62,29.045c0,0,11.399,9.003,11.682,19.405
		c0.022,0.768-0.054,1.647-0.173,2.572c-0.028,0.211-0.061,0.427-0.096,0.649c-0.15,0.942-0.354,1.94-0.646,3.017l0,0
		c-0.318,1.177-0.738,2.431-1.229,3.733c-0.026,0.074-0.058,0.148-0.087,0.227c-0.495,1.295-1.067,2.642-1.736,4.037
		c-4.881,10.235-14.36,22.756-28.962,32.627c-5.292,3.581-9.992,6.787-14.422,9.719H427c10.45,0,19-8.55,19-19V85
		C446,74.55,437.45,66,427,66z M322.365,228.84c0.319,0.007,0.631,0.048,0.952,0.048c23.356,0,42.356-19,42.356-42.356
		s-19-42.356-42.356-42.356c-22.726,0-41.273,18.001-42.264,40.49c-3.437,2.98-7.083,6.164-10.888,9.493
		c-0.356-2.498-0.605-5.028-0.605-7.626c0-29.643,24.113-53.757,53.757-53.757c29.643,0,53.757,24.114,53.757,53.757
		s-24.114,53.757-53.757,53.757c-3.774,0-7.455-0.401-11.012-1.147C315.77,235.597,319.147,232.139,322.365,228.84z
		 M323.316,269.712c-12.057,0-23.509-2.598-33.862-7.232c2.822-2.876,5.713-5.83,8.65-8.825c7.858,2.961,16.332,4.657,25.212,4.657
		c39.581,0,71.784-32.2,71.784-71.781c0-39.577-32.203-71.777-71.784-71.777s-71.786,32.2-71.786,71.777
		c0,7.374,1.125,14.487,3.199,21.189c-3.056,2.694-6.142,5.418-9.238,8.153c-3.455-9.129-5.36-19.015-5.36-29.342
		c0-45.867,37.319-83.177,83.186-83.177s83.185,37.31,83.185,83.177S369.184,269.712,323.316,269.712z"/>
	<path fill="#454646" d="M292.145,399.391c0.492-1.303,0.911-2.557,1.229-3.733C293.052,396.834,292.638,398.088,292.145,399.391z"
		/>
	<path fill="#454646" d="M290.321,403.654L290.321,403.654c0.669-1.395,1.241-2.742,1.736-4.037
		C291.562,400.912,290.989,402.259,290.321,403.654z"/>
	<path fill="#454646" d="M293.374,395.657c0.292-1.076,0.496-2.074,0.646-3.017C293.866,393.59,293.67,394.581,293.374,395.657z"/>
	<path fill="#454646" d="M102.057,327.076c-0.211,0.393-0.428,0.794-0.634,1.169C101.629,327.87,101.844,327.469,102.057,327.076z"
		/>
	<path fill="#454646" d="M104.188,323.049c-0.378,0.724-0.753,1.451-1.108,2.119C103.434,324.5,103.809,323.773,104.188,323.049z"/>
	<path fill="#454646" d="M107.14,317.219c-0.755,1.537-1.468,2.95-2.152,4.286C105.67,320.169,106.382,318.759,107.14,317.219z"/>
	<path fill="#454646" d="M100.192,330.486c-0.017,0.022-0.031,0.052-0.048,0.082l0,0
		C100.157,330.542,100.178,330.508,100.192,330.486z"/>
	<path fill="#454646" d="M294.117,391.991c0.119-0.924,0.195-1.804,0.173-2.572C294.312,390.188,294.237,391.067,294.117,391.991z"
		/>
</g>
</svg>
