<?xml version="1.0" encoding="utf-8"?>
<!-- Generator: Adobe Illustrator 19.2.1, SVG Export Plug-In . SVG Version: 6.00 Build 0)  -->
<svg version="1.1" id="Work_area" xmlns="http://www.w3.org/2000/svg" xmlns:xlink="http://www.w3.org/1999/xlink" x="0px" y="0px"
	 width="512px" height="512px" viewBox="0 0 512 512" enable-background="new 0 0 512 512" xml:space="preserve">
<path fill="#454646" d="M176,242.9c0-5.5,4.5-9.9,9.9-9.9H406c5.5,0,10,4.5,10,9.9v26.3c0,5.5-4.5,9.9-10,9.9H185.9
	c-5.4,0-9.9-4.5-9.9-9.9V242.9z"/>
<path fill="#454646" d="M96,129.6c0-5.4,4.5-9.9,9.9-9.9H406c5.5,0,10,4.5,10,9.9v26.2c0,5.5-4.5,9.9-10,9.9H105.9
	c-5.4,0-9.9-4.4-9.9-9.9V129.6z"/>
<path fill="#454646" d="M256,356.2c0-5.5,4.5-9.9,9.9-9.9H406c5.5,0,10,4.5,10,9.9v26.2c0,5.5-4.5,9.9-10,9.9H265.9
	c-5.4,0-9.9-4.5-9.9-9.9V356.2z"/>
</svg>
