<?xml version="1.0" encoding="utf-8"?>
<!-- Generator: Adobe Illustrator 18.1.0, SVG Export Plug-In . SVG Version: 6.00 Build 0)  -->
<svg version="1.1" id="Ebene_1" xmlns="http://www.w3.org/2000/svg" xmlns:xlink="http://www.w3.org/1999/xlink" x="0px" y="0px"
	 width="512px" height="512px" viewBox="0 0 512 512" enable-background="new 0 0 512 512" xml:space="preserve">
<g>
	<path fill="#454646" d="M355.3,234.9L221,78.5c-13.6-15.8-37.9-16.7-52.7-2l-9.7,9.7c-13,13-14.2,33.6-2.7,47.9
		c0,0,84.7,106.5,85.9,109.2c15.8,24.8,25.2,54.3,25.2,86.1c0,25.8-6.1,50.2-17,71.8l105-118.9C366.8,268.7,367,248.5,355.3,234.9z"
		/>
	<path fill="#454646" d="M236.8,281.2l-80.1,96c-11.9,14.2-10.9,35.4,2.2,48.5l9.7,9.7c14.7,14.7,38.6,13.9,52.4-1.6l11.8-13.6
		c10.8-13.1,41.6-89.8,12.4-151.7C243.8,273.1,240,277.4,236.8,281.2L236.8,281.2z"/>
</g>
</svg>
