<?xml version="1.0" encoding="utf-8"?>
<!-- Generator: Adobe Illustrator 16.0.4, SVG Export Plug-In . SVG Version: 6.00 Build 0)  -->
<!DOCTYPE svg PUBLIC "-//W3C//DTD SVG 1.1//EN" "http://www.w3.org/Graphics/SVG/1.1/DTD/svg11.dtd">
<svg version="1.1" id="Layer_1" xmlns="http://www.w3.org/2000/svg" xmlns:xlink="http://www.w3.org/1999/xlink" x="0px" y="0px"
	 width="512px" height="512px" viewBox="0 0 512 512" enable-background="new 0 0 512 512" xml:space="preserve">
<g>
	<g>
		<path fill="#454646" d="M195.42,70.605h-11.724V59.36c0-7.371-6.14-13.36-13.686-13.36H85.092C77.55,46,71.41,51.989,71.41,59.36
			v35.691H59.687c-7.55,0-13.687,5.993-13.687,13.364v82.183c0,7.367,6.136,13.359,13.687,13.359h84.914
			c7.634,0,13.842-5.992,13.842-13.359v-11.246h36.978c7.55,0,13.686-5.992,13.686-13.355v-82.19
			C209.106,76.527,202.97,70.605,195.42,70.605z M144.601,95.052h-36.978V83.807c0-1.386,1.322-2.557,2.883-2.557h62.225v60.134
			c0,1.478-1.247,2.724-2.72,2.724h-11.568v-35.691C158.442,101.045,152.234,95.052,144.601,95.052z M172.73,70.605h-62.225
			c-7.633,0-13.846,5.922-13.846,13.201v11.245H82.376V59.36c0-1.438,1.195-2.561,2.716-2.561h84.918c1.525,0,2.72,1.123,2.72,2.561
			V70.605z M56.963,108.416c0-1.438,1.194-2.564,2.724-2.564H71.41v35.532c0,7.454,6.141,13.523,13.683,13.523H96.66v11.09
			c0,7.363,6.212,13.355,13.846,13.355h36.978v11.246c0,1.386-1.322,2.561-2.883,2.561H59.687c-1.553,0-2.724-1.104-2.724-2.561
			V108.416z M96.66,144.107H85.092c-1.497,0-2.716-1.219-2.716-2.724v-35.532H96.66V144.107z M147.484,154.907v13.646h-36.978
			c-1.561,0-2.883-1.175-2.883-2.557v-11.09H147.484z M107.623,105.852h36.978c1.561,0,2.883,1.175,2.883,2.564v35.691h-39.861
			V105.852z M158.442,154.907h11.568c7.546,0,13.686-6.069,13.686-13.523V81.25h11.724c1.529,0,2.724,1.123,2.724,2.557v82.19
			c0,1.434-1.194,2.557-2.724,2.557h-36.978V154.907z"/>
	</g>
</g>
</svg>
