<?xml version="1.0" encoding="utf-8"?>
<!-- Generator: Adobe Illustrator 16.0.4, SVG Export Plug-In . SVG Version: 6.00 Build 0)  -->
<!DOCTYPE svg PUBLIC "-//W3C//DTD SVG 1.1//EN" "http://www.w3.org/Graphics/SVG/1.1/DTD/svg11.dtd">
<svg version="1.1" id="Layer_1" xmlns="http://www.w3.org/2000/svg" xmlns:xlink="http://www.w3.org/1999/xlink" x="0px" y="0px"
	 width="512px" height="512px" viewBox="0 0 512 512" enable-background="new 0 0 512 512" xml:space="preserve">
<g>
	<path fill="#454646" d="M151.172,165.906H16v-14.867h97.109C127.539,151.039,140.227,156,151.172,165.906z M170.438,194.75H16
		v-14.867h146.586C165.598,184.246,168.216,189.203,170.438,194.75z M169.25,317.254c-2.062,4.562-4.68,9.516-7.852,14.867H16
		v-14.867H169.25z M149.742,346.391c-10.312,9.715-22.12,14.57-35.442,14.57H16v-14.57H149.742z M81.891,222.105H38.594v-13.68
		h43.297V222.105z M81.891,249.164H38.594v-13.68h43.297V249.164z M81.891,276.223H38.594V262.84h43.297V276.223z M81.891,302.98
		H38.594v-13.676h43.297V302.98z M178.523,222.105H126.43v-13.68h49.004C176.859,213.977,177.891,218.539,178.523,222.105z
		 M181.378,249.164H126.43v-13.68h54C180.745,238.262,181.062,242.82,181.378,249.164z M181.141,262.84
		c-0.156,2.973-0.555,7.434-1.188,13.383H126.43V262.84H181.141z M177.812,289.305c-0.953,4.562-2.141,9.117-3.57,13.676H126.43
		v-13.676H177.812z"/>
	<path fill="#454646" d="M337.247,165.906h-139.45v-14.867h105.901C317.344,151.039,328.523,156,337.247,165.906z M350.091,194.75
		H197.797v-14.867H345.81C347.708,184.641,349.141,189.598,350.091,194.75z M350.091,317.254c-0.95,5.156-2.383,10.109-4.281,14.867
		H197.797v-14.867H350.091z M337.247,346.391c-8.247,9.715-19.271,14.57-33.067,14.57H197.797v-14.57H337.247z M258.927,222.105
		h-38.06v-13.68h38.06V222.105z M345.331,235.484c-3.011,5.945-6.339,10.512-9.987,13.68H220.867v-13.68H345.331z M345.331,276.223
		H220.867V262.84h115.188C339.862,266.41,342.953,270.867,345.331,276.223z M258.927,302.98h-38.06v-13.676h38.06V302.98z
		 M351.035,208.426c0,4.758-0.469,9.32-1.418,13.68h-46.148v-13.68H351.035z M351.035,302.98h-47.566v-13.676h46.148
		C350.566,293.867,351.035,298.422,351.035,302.98z"/>
	<path fill="#454646" d="M496,194.75H372.922c0-4.559,0.398-9.516,1.19-14.867H494.57C495.523,184.641,496,189.598,496,194.75z
		 M415.742,221.215h-42.82v-12.789h42.82V221.215z M492.336,332.121H375.781v-0.891l10.938-13.977h105.617V332.121z
		 M492.336,360.961H375.781v-14.57h116.555V360.961z M489.102,165.906H379.109c4.758-6.141,9.273-10.207,13.559-12.191
		c3.804-1.785,9.191-2.676,16.176-2.676h49.094C472.523,151.039,482.914,156,489.102,165.906z M464.742,286.332l-13.558,16.648
		h-53.044l13.083-16.648H464.742z M486.859,259.57l-11.414,13.676h-53.992l10.938-13.676H486.859z M496,247.676h-55.328l0.242-0.594
		l9.886-12.488H496V247.676z M496,221.215h-45.2v-12.789H496V221.215z"/>
</g>
</svg>
