<?xml version="1.0" encoding="utf-8"?>
<!-- Generator: Adobe Illustrator 19.2.0, SVG Export Plug-In . SVG Version: 6.00 Build 0)  -->
<svg version="1.1" id="Ebene_1" xmlns="http://www.w3.org/2000/svg" xmlns:xlink="http://www.w3.org/1999/xlink" x="0px" y="0px"
	 viewBox="0 0 512 512" enable-background="new 0 0 512 512" xml:space="preserve">
<path fill="#454646" d="M67.3,195c0,7.3,4,13.3,13.1,13.3c3.2,0,5.6-0.8,5.6-0.8v-4.5h-0.3c0,0-2.2,0.9-4.6,0.9
	c-5.3,0-7.5-4.1-7.5-8.9c0-4.9,2.2-8.9,7.5-8.9c2.4,0,4.6,0.9,4.6,0.9H86v-4.5c0,0-2.4-0.8-5.6-0.8C71.3,181.8,67.3,187.7,67.3,195z
	 M97,182.1h-5.9v26h15.7v-4.6H97V182.1z M121.2,181.5c-8.1,0-12.6,5.3-12.6,13.6c0,8.1,4.3,13.4,12.5,13.4c8.1,0,12.6-5.3,12.6-13.6
	C133.7,186.9,129.4,181.5,121.2,181.5z M121.2,204.2c-4.1,0-6.3-3-6.3-9.2c0-6.1,2.2-9.2,6.3-9.2s6.3,3,6.3,9.2
	C127.5,201.2,125.3,204.2,121.2,204.2z M159.7,45.6H92.6c-31.9,0-57.7,25.9-57.7,57.8s25.8,57.7,57.7,57.7h67.1
	c31.9,0,57.7-25.8,57.7-57.7C217.4,71.5,191.6,45.6,159.7,45.6z M158.2,140.7H94.1c-20.7,0-37.4-16.7-37.4-37.3s16.7-37.4,37.4-37.4
	h64.1c20.7,0,37.4,16.8,37.4,37.4C195.6,124,178.8,140.7,158.2,140.7z M154.1,198.5c0,3.2-0.9,5.7-5,5.7c-4.1,0-5-2.5-5-5.7V182h-6
	v15.6c0,2.3,0,5.2,2.1,7.7c1.8,2.2,4.6,3.3,8.5,3.3c3.7,0,6.6-1,8.5-3.3c2.1-2.5,2.1-5.5,2.1-7.7v-15.5h-5.1L154.1,198.5
	L154.1,198.5z M182,183.9c-3.2-1.8-6.6-1.8-9.2-1.8h-7.9v26h7.9c1.8,0,5.8,0.1,9.2-1.8c3.2-1.8,5.5-5.3,5.5-11.2
	C187.4,189,185,185.7,182,183.9z M177.9,202.8c-1.5,0.9-3.2,0.9-4.8,0.9h-2.4v-17.3h2.4c1.3,0,3,0,4.7,0.9c2.5,1.3,3.4,4.1,3.4,7.8
	C181.1,198.9,180.2,201.5,177.9,202.8z"/>
</svg>
