<?xml version="1.0" encoding="utf-8"?>
<!-- Generator: Adobe Illustrator 16.0.4, SVG Export Plug-In . SVG Version: 6.00 Build 0)  -->
<!DOCTYPE svg PUBLIC "-//W3C//DTD SVG 1.1//EN" "http://www.w3.org/Graphics/SVG/1.1/DTD/svg11.dtd">
<svg version="1.1" id="Layer_1" xmlns="http://www.w3.org/2000/svg" xmlns:xlink="http://www.w3.org/1999/xlink" x="0px" y="0px"
	 width="512px" height="512px" viewBox="0 0 512 512" enable-background="new 0 0 512 512" xml:space="preserve">
<g>
	<path fill="#454646" d="M467.98,70.303H139.369c-15.428,0-28.039,12.613-28.039,28.027v185.72c0,15.413,12.61,28.025,28.039,28.025
		H467.98c15.409,0,28.02-12.612,28.02-28.025V98.33C496,82.916,483.389,70.303,467.98,70.303z M303.665,77.181
		c2.731,0,4.936,2.205,4.936,4.934c0,2.724-2.205,4.931-4.936,4.931c-2.724,0-4.933-2.207-4.933-4.931
		C298.732,79.386,300.941,77.181,303.665,77.181z M473.976,285.778H133.403V94.217h340.572V285.778z"/>
	<rect x="303.665" y="221.066" fill="#454646" width="67.317" height="50.323"/>
	<rect x="388.612" y="112.705" fill="#454646" width="67.317" height="158.675"/>
	<rect x="303.665" y="112.71" fill="#454646" width="67.317" height="87.828"/>
	<g>
		<g>
			<path fill="#454646" d="M386.624,359.724h-47.062v-18.041c0-5.428-4.444-9.873-9.865-9.873H277.64
				c-5.428,0-9.872,4.444-9.872,9.873v18.041h-47.055c-5.424,0-9.868,4.444-9.868,9.874v16.488c0,0,4.444,0,9.868,0h56.927h52.058
				h56.926c5.421,0,9.869,0,9.869,0v-16.488C396.493,364.168,392.045,359.724,386.624,359.724z"/>
		</g>
		<g>
			<path fill="#454646" d="M16,382.639c0,0,42.938-18.215,45.777-60.351c0.939-13.956,2.352-11.318,10.533-27.947
				c8.081-16.435,15.391-30.792,38.065-25.116c5.121,1.277,13.167,4.256,13.167,4.256s69.188-62.007,80.525-70.723
				c4.26-3.272,10.883-2.849,14.132,0.699c3.407,3.746,3.28,10.793,0.323,13.915c-8.752,9.286-58.106,59.338-58.106,59.338
				s13.092-0.845,18.231,6.489c4.256,6.076-1.079,18.093-1.079,18.093s8.415,0.836,11.209,8.238
				c2.318,6.172-1.623,15.387-4.233,18.58c0,0,7.292,5.761,7.472,12.408c0.169,6.061-6.461,20.096-21.066,29.981
				c-14.605,9.872-22.209,15.475-38.986,20.349c-16.653,4.825-19.211,5.753-24.643,10.065c-5.661,4.489-38.516,40.783-38.516,40.783
				L16,382.639z"/>
			<path fill="#454646" d="M210.056,176.88c-19.008,0-34.474,15.463-34.474,34.476c0,1.66,0.161,3.285,0.391,4.885
				c2.438-2.137,4.774-4.17,6.979-6.085c0.639-14.425,12.528-25.965,27.104-25.965c14.981,0,27.159,12.179,27.159,27.166
				c0,14.979-12.178,27.158-27.159,27.158c-0.203,0-0.406-0.026-0.608-0.026c-2.066,2.109-4.23,4.332-6.45,6.604
				c2.28,0.477,4.636,0.731,7.059,0.731c19.008,0,34.47-15.462,34.47-34.466C244.525,192.343,229.063,176.88,210.056,176.88z"/>
			<path fill="#454646" d="M210.056,158.007c-29.417,0-53.343,23.937-53.343,53.349c0,6.621,1.221,12.96,3.441,18.816
				c1.983-1.762,3.959-3.507,5.92-5.24c-1.33-4.292-2.052-8.853-2.052-13.576c0-25.385,20.65-46.033,46.033-46.033
				c25.387,0,46.036,20.648,46.036,46.033c0,25.377-20.649,46.023-46.036,46.023c-5.695,0-11.127-1.08-16.168-2.987
				c-1.878,1.923-3.738,3.82-5.548,5.659c6.642,2.974,13.986,4.64,21.717,4.64c29.414,0,53.347-23.924,53.347-53.335
				C263.402,181.943,239.469,158.007,210.056,158.007z"/>
		</g>
	</g>
	<g>
		<path fill="#454646" d="M153.437,112.705v74.771c9.316-22.068,31.157-37.556,56.619-37.556c33.926,0,61.427,27.505,61.427,61.431
			c0,29.485-20.777,54.089-48.482,60.037h65.071V112.705H153.437z"/>
	</g>
</g>
</svg>
