<?xml version="1.0" encoding="utf-8"?>
<!-- Generator: Adobe Illustrator 16.0.4, SVG Export Plug-In . SVG Version: 6.00 Build 0)  -->
<!DOCTYPE svg PUBLIC "-//W3C//DTD SVG 1.1//EN" "http://www.w3.org/Graphics/SVG/1.1/DTD/svg11.dtd">
<svg version="1.1" id="Layer_1" xmlns="http://www.w3.org/2000/svg" xmlns:xlink="http://www.w3.org/1999/xlink" x="0px" y="0px"
	 width="512px" height="512px" viewBox="0 0 512 512" enable-background="new 0 0 512 512" xml:space="preserve">
<g>
	<g>
		<path fill="#454646" d="M384.25,66h-256.5c-7.839,0-14.25,6.415-14.25,14.25v351.5c0,7.837,6.411,14.25,14.25,14.25h256.5
			c7.839,0,14.25-6.413,14.25-14.25V80.25C398.5,72.415,392.089,66,384.25,66z M376.698,390.28
			c0,12.661-10.298,22.959-22.952,22.959H158.254c-12.659,0-22.952-10.298-22.952-22.959v-93.059
			c0-12.659,10.293-22.952,22.952-22.952h5.59c-13.012-18.796-19.863-40.646-19.863-63.482c0-61.769,50.251-112.024,112.02-112.024
			s112.02,50.256,112.02,112.024c0,22.836-6.852,44.682-19.863,63.482h5.59c12.654,0,22.952,10.293,22.952,22.952V390.28z"/>
	</g>
	<g>
		<path fill="#454646" d="M256,258.292c-26.194,0-47.5-21.305-47.5-47.504c0-26.188,21.306-47.496,47.5-47.496
			c26.19,0,47.5,21.308,47.5,47.496C303.5,236.986,282.19,258.292,256,258.292z"/>
	</g>
	<path fill-rule="evenodd" clip-rule="evenodd" fill="#454646" d="M362.448,297.222c0-4.799-3.906-8.702-8.702-8.702h-10.233
		c-4.532,0-8.605-2.521-10.627-6.578c-2.022-4.057-1.586-8.828,1.142-12.443c12.914-17.128,19.742-37.432,19.742-58.711
		c0-53.911-43.859-97.774-97.77-97.774s-97.77,43.863-97.77,97.774c0,21.282,6.824,41.583,19.742,58.707
		c2.728,3.62,3.168,8.391,1.146,12.448c-2.018,4.056-6.09,6.578-10.627,6.578h-10.237c-4.801,0-8.702,3.903-8.702,8.702v93.059
		c0,4.801,3.901,8.709,8.702,8.709h195.492c4.796,0,8.702-3.908,8.702-8.709V297.222z M256,146.787
		c35.291,0,64.004,28.711,64.004,64c0,35.298-28.713,64.009-64.004,64.009s-64.004-28.711-64.004-64.009
		C191.996,175.498,220.709,146.787,256,146.787z M332.413,372.433H179.587c-3.929,0-7.125-3.194-7.125-7.125
		c0-3.929,3.196-7.125,7.125-7.125h152.826c3.929,0,7.125,3.196,7.125,7.125C339.538,369.239,336.342,372.433,332.413,372.433z
		 M332.413,335.621H179.587c-3.929,0-7.125-3.194-7.125-7.125c0-3.929,3.196-7.125,7.125-7.125h152.826
		c3.929,0,7.125,3.196,7.125,7.125C339.538,332.427,336.342,335.621,332.413,335.621z"/>
</g>
</svg>
