<?xml version="1.0" encoding="utf-8"?>
<!-- Generator: Adobe Illustrator 18.1.1, SVG Export Plug-In . SVG Version: 6.00 Build 0)  -->
<svg version="1.1" id="Ebene_1" xmlns="http://www.w3.org/2000/svg" xmlns:xlink="http://www.w3.org/1999/xlink" x="0px" y="0px"
	 width="512px" height="512px" viewBox="0 0 512 512" enable-background="new 0 0 512 512" xml:space="preserve">
<g>
	<path fill="#454646" d="M371.9,334.1c-4.2,0-8.2,0.7-12,2l-24.5-24.5c11.1-15.8,17.6-34.9,17.6-55.6c0-20.7-6.5-39.9-17.6-55.6
		l24.5-24.5c3.8,1.3,7.8,2,12,2c20.8,0,37.7-16.9,37.7-37.7c0-20.8-16.9-37.7-37.7-37.7c-20.8,0-37.7,16.9-37.7,37.7
		c0,4.2,0.7,8.2,2,12l-24.5,24.5c-15.8-11.1-34.9-17.6-55.6-17.6s-39.9,6.5-55.6,17.6l-24.5-24.5c1.3-3.8,2-7.8,2-12
		c0-20.8-16.9-37.7-37.7-37.7c-20.8,0-37.7,16.9-37.7,37.7c0,20.8,16.9,37.7,37.7,37.7c4.2,0,8.2-0.7,12-2l24.5,24.5
		c-11.1,15.8-17.6,34.9-17.6,55.6c0,20.7,6.5,39.9,17.6,55.6l-24.5,24.5c-3.8-1.3-7.8-2-12-2c-20.8,0-37.7,16.9-37.7,37.7
		c0,20.8,16.9,37.7,37.7,37.7c20.8,0,37.7-16.9,37.7-37.7c0-4.2-0.7-8.2-2-12l24.5-24.5c15.8,11.1,34.9,17.6,55.6,17.6
		s39.9-6.5,55.6-17.6l24.5,24.5c-1.3,3.8-2,7.8-2,12c0,20.8,16.9,37.7,37.7,37.7c20.8,0,37.7-16.9,37.7-37.7
		C409.6,351,392.7,334.1,371.9,334.1z M256,306.1c-27.7,0-50.1-22.4-50.1-50.1c0-27.7,22.4-50.1,50.1-50.1
		c27.7,0,50.1,22.4,50.1,50.1C306.1,283.7,283.7,306.1,256,306.1z"/>
	<circle fill="#454646" cx="256" cy="419.9" r="46.1"/>
	<circle fill="#454646" cx="419.9" cy="256" r="46.1"/>
	<circle fill="#454646" cx="256" cy="92.1" r="46.1"/>
	<circle fill="#454646" cx="92.1" cy="256" r="46.1"/>
</g>
</svg>
