<?xml version="1.0" encoding="utf-8"?>
<!-- Generator: Adobe Illustrator 16.0.4, SVG Export Plug-In . SVG Version: 6.00 Build 0)  -->
<!DOCTYPE svg PUBLIC "-//W3C//DTD SVG 1.1//EN" "http://www.w3.org/Graphics/SVG/1.1/DTD/svg11.dtd">
<svg version="1.1" id="Layer_1" xmlns="http://www.w3.org/2000/svg" xmlns:xlink="http://www.w3.org/1999/xlink" x="0px" y="0px"
	 width="512px" height="512px" viewBox="0 0 512 512" enable-background="new 0 0 512 512" xml:space="preserve">
<path fill="#454646" d="M323.313,113.753c-21.206-36.722-45-55.865-52.763-65.175C262.798,39.269,252.964,16,252.964,16
	c-2.062,24.197-20.682,28.959-49.65,63.104c-28.969,34.134-55.35,102.412-55.35,167.062c0,64.659,24.31,107.071,44.484,136.556
	c15.534,22.697,34.396,36.487,45.815,47.072l0,0c0.825,0.759,1.612,1.509,2.362,2.25c0.122,0.112,0.234,0.234,0.347,0.356
	c0.629,0.618,1.238,1.237,1.801,1.847c0.281,0.3,0.516,0.6,0.787,0.899c0.375,0.422,0.76,0.854,1.097,1.275
	c0.591,0.731,1.125,1.453,1.585,2.156c7.762,11.896,6.722,52.247,6.722,52.247L266.417,496c0,0,1.556-53.278,4.659-58.969
	s14.99-14.484,21.722-20.69c6.722-6.206,15-16.031,33.104-39.31c18.103-23.278,34.134-73.453,37.753-120.15
	C367.282,210.185,344.52,150.475,323.313,113.753z M205.254,373.956c-20.652-30.188-41.766-68.981-41.766-127.79
	c0-63.122,25.988-126.77,51.656-157.031c9.872-11.635,18.338-19.528,25.801-26.484c4.274-3.984,8.362-7.801,12.019-11.812
	c0,0,7.763,90.328,7.763,190.678c0,100.341-7.763,163.125-7.763,163.125s1.425,18.037-12.835,6.075
	C229.376,401.697,216.298,390.1,205.254,373.956z"/>
</svg>
