<?xml version="1.0" encoding="utf-8"?>
<!-- Generator: Adobe Illustrator 19.2.1, SVG Export Plug-In . SVG Version: 6.00 Build 0)  -->
<svg version="1.1" id="Work_area" xmlns="http://www.w3.org/2000/svg" xmlns:xlink="http://www.w3.org/1999/xlink" x="0px" y="0px"
	 width="512px" height="512px" viewBox="0 0 512 512" enable-background="new 0 0 512 512" xml:space="preserve">
<path fill="#454646" d="M444.8,283c1.4-9.7,2.1-18.6,2.1-27c0-104.8-85.3-190.1-190.2-190.1C152,65.9,66.7,151.2,66.7,256
	c0,104.8,85.3,190.1,190.1,190.1c63.3,0,122.2-31.4,157.7-83.9c0.7,0,1.4,0.1,2.1,0.1c24.7,0,44.7-20,44.7-44.7
	C461.3,303.7,454.9,291.2,444.8,283z M256.8,101c85.4,0,155,69.5,155,155c0,5.5-0.4,11.2-1.1,17.4c-10.7,1.4-20.3,6.7-27.2,14.3
	c-33.1-13.5-66.6-19.7-95.6-22.2c-13.4-30.7-30.1-58.8-49.7-83.7c-24.5-31.1-47.8-49.8-60.7-58.9c8.9-5.3,18.4-9.8,28.4-13.3
	c13.9,16.4,39.4,43.9,71.8,67.2c-0.7,3.2-1.1,6.4-1.1,9.8c0,24.7,20,44.7,44.7,44.7c24.7,0,44.7-20,44.7-44.7s-20-44.7-44.7-44.7
	c-12.6,0-23.9,5.2-32,13.6c-23.8-17.5-43.8-37.6-57.2-52.5C240,101.7,248.3,101,256.8,101z M301.1,186.7c0-11,9-20,20-20
	c11,0,20,9,20,20s-9,20-20,20C310.1,206.7,301.1,197.7,301.1,186.7z M156.6,137.9c6.1,3.7,33.3,21.5,62.7,58.8
	c16,20.3,29.9,42.9,41.6,67.5c-21.3-0.3-38.4,1.2-48.6,2.4c-7.9-12.4-21.8-20.7-37.7-20.7c-23.6,0-42.9,18.3-44.5,41.5
	c-9,3.7-17.1,7.6-22.5,10.3c-3.7-13.3-5.7-27.3-5.7-41.7C101.9,208.7,123.1,166.4,156.6,137.9z M194.6,290.7c0,11-9,20-20,20
	s-20-9-20-20s9-20,20-20S194.6,279.6,194.6,290.7z M115.9,320.4c4.1-2,11.1-5.5,19.2-9c7.5,14.2,22.4,23.9,39.5,23.9
	c24.7,0,44.7-20,44.7-44.7c0-0.2,0-0.3,0-0.5c11.5-1.2,30-2.4,52.2-1.4c13.9,35.5,23.4,74.5,28.3,116.2c-13.8,4-28.2,6.1-43,6.1
	C194.3,411,140.4,373.8,115.9,320.4z M322.9,396.2c-4.8-37.3-13.1-72.6-25-105.3c23.6,2.8,49.5,8.3,74.9,18.4
	c-0.5,2.7-0.8,5.5-0.8,8.4c0,11,4,21.1,10.6,28.9C367,368.2,346.3,385.1,322.9,396.2z M416.6,337.7c-11,0-20-9-20-20s9-20,20-20
	s20,9,20,20S427.7,337.7,416.6,337.7z"/>
</svg>
