<?xml version="1.0" encoding="utf-8"?>
<!-- Generator: Adobe Illustrator 16.0.4, SVG Export Plug-In . SVG Version: 6.00 Build 0)  -->
<!DOCTYPE svg PUBLIC "-//W3C//DTD SVG 1.1//EN" "http://www.w3.org/Graphics/SVG/1.1/DTD/svg11.dtd">
<svg version="1.1" id="Layer_1" xmlns="http://www.w3.org/2000/svg" xmlns:xlink="http://www.w3.org/1999/xlink" x="0px" y="0px"
	 width="512px" height="512px" viewBox="0 0 512 512" enable-background="new 0 0 512 512" xml:space="preserve">
<path id="Facebook__x28_alt_x29__3_" fill="#454646" d="M446,129.333C446,96.059,415.958,66,382.667,66H129.342
	C96.042,66,66,96.059,66,129.333v253.325C66,415.941,96.042,446,129.342,446H256V302.444h-46.444v-63.333H256v-24.674
	c0-42.561,31.964-80.882,71.25-80.882h51.194v63.333H327.25c-5.6,0-12.139,6.799-12.139,16.988v25.234h63.333v63.333h-63.333V446
	h67.556C415.958,446,446,415.941,446,382.658V129.333z"/>
</svg>
