<?xml version="1.0" encoding="utf-8"?>
<!-- Generator: Adobe Illustrator 19.2.1, SVG Export Plug-In . SVG Version: 6.00 Build 0)  -->
<svg version="1.1" id="Work_area" xmlns="http://www.w3.org/2000/svg" xmlns:xlink="http://www.w3.org/1999/xlink" x="0px" y="0px"
	 width="512px" height="512px" viewBox="0 0 512 512" enable-background="new 0 0 512 512" xml:space="preserve">
<g>
	<g>
		<path fill="#454646" d="M321.8,200.2c-15.8-18.7-39.4-30.5-65.8-30.5c-8.6,0-16.2,13.1-21.1,33.4c-1.9,8.1-3.4,17.4-4.4,27.4
			c-0.8,8-1.2,16.6-1.2,25.5s0.4,17.4,1.2,25.5c8.1,0.8,16.6,1.2,25.5,1.2c8.9,0,17.4-0.4,25.5-1.2c17.7-1.7,33-5.1,43.8-9.6
			c10.7-4.4,17-9.9,17-15.9c0-18-5.5-34.7-14.9-48.5C325.7,205,323.8,202.6,321.8,200.2z M256,66C151.2,66,66,151.2,66,256
			c0,104.8,85.2,190,190,190c104.8,0,190-85.2,190-190C446,151.2,360.8,66,256,66z M327.4,304.5c-1.6,0.2-3.1,0.4-4.7,0.6
			c-14.3,1.8-29.6,3.1-45.6,3.7c-6.9,0.3-13.9,0.4-21,0.4c-7.1,0-14.1-0.2-21.1-0.4c-16-0.6-31.3-1.9-45.6-3.7
			c-1.3-10.7-2.1-21.8-2.6-33.3c-0.2-5.2-0.3-10.5-0.3-15.9c0-5.4,0.1-10.7,0.3-15.9c0.4-11.4,1.3-22.6,2.6-33.2
			c0.3-2.2,0.5-4.4,0.8-6.6c9.4-67.9,35.3-116.8,65.8-116.8c95.3,0,172.6,77.3,172.6,172.6C428.6,277.6,387.1,296.1,327.4,304.5z"/>
	</g>
</g>
</svg>
