<?xml version="1.0" encoding="utf-8"?>
<!-- Generator: Adobe Illustrator 16.0.4, SVG Export Plug-In . SVG Version: 6.00 Build 0)  -->
<!DOCTYPE svg PUBLIC "-//W3C//DTD SVG 1.1//EN" "http://www.w3.org/Graphics/SVG/1.1/DTD/svg11.dtd">
<svg version="1.1" id="Layer_1" xmlns="http://www.w3.org/2000/svg" xmlns:xlink="http://www.w3.org/1999/xlink" x="0px" y="0px"
	 width="512px" height="512px" viewBox="0 0 512 512" enable-background="new 0 0 512 512" xml:space="preserve">
<path id="Chrome_1_" fill="#454646" d="M256.459,197.48c32.721,0,59.249,26.527,59.249,59.248c0,32.717-26.528,59.244-59.249,59.244
	c-32.729,0-59.253-26.527-59.253-59.244C197.206,224.008,223.73,197.48,256.459,197.48L256.459,197.48 M314.784,196.936
	c15.297,15.441,24.697,36.721,24.587,60.18c-0.087,18.99-6.527,37.416-18.312,52.322l-79.9,136.012
	c104.866,7.924,196.307-70.658,204.239-175.531c1.87-24.752-1.145-49.541-8.737-72.994H314.784V196.936z M275.004,338.074
	c-24.97,5.871-52.291,0.418-73.61-17.172c-12.305-10.135-21.5-23.545-26.552-38.664L98.335,149.613
	c-58.558,87.359-35.219,205.65,52.142,264.209c19.479,13.062,41.146,22.338,63.865,27.5L275.004,338.074z M171.203,85.943
	c-21.232,10.557-40.207,24.955-56.056,42.365l59.592,103.281c7.987-25.732,28.036-47.252,55.685-55.963
	c7.877-2.465,16.078-3.787,24.33-3.906h171.724C379.672,77.533,265.382,39.135,171.203,85.943z"/>
</svg>
