<?xml version="1.0" encoding="utf-8"?>
<!-- Generator: Adobe Illustrator 16.0.4, SVG Export Plug-In . SVG Version: 6.00 Build 0)  -->
<!DOCTYPE svg PUBLIC "-//W3C//DTD SVG 1.1//EN" "http://www.w3.org/Graphics/SVG/1.1/DTD/svg11.dtd">
<svg version="1.1" id="Layer_1" xmlns="http://www.w3.org/2000/svg" xmlns:xlink="http://www.w3.org/1999/xlink" x="0px" y="0px"
	 width="512px" height="512px" viewBox="0 0 512 512" enable-background="new 0 0 512 512" xml:space="preserve">
<g>
	<path fill="#454646" d="M303.242,16c0,0,16.291,27.594,13.032,46.055c-3.257,18.461-7.054,31.039-44.522,64.703
		c-37.457,33.664-50.488,45.055-50.488,66.242c0,26.602,40.721,76.008,40.721,76.008s-66.16-40.68-66.16-87.382
		c0-31.492,37.814-49.984,60.402-69.531c22.586-19.539,41.586-35.289,45.934-56.461C306.502,34.453,303.242,16,303.242,16z"/>
	<path fill="#454646" d="M359.714,109.93c0,0-75.474,43.438-75.474,74.891c0,22.835,27.15,33.148,26.062,54.867
		c-1.082,21.727-26.602,40.727-38.551,43.984c0,0,14.119-13.023,14.119-27.148c0-25.523-34.008-48.359-30.693-69.5
		c4.092-26.055,30.619-43.328,47.525-54.297C322.79,119.695,359.714,109.93,359.714,109.93z"/>
	<path fill="#454646" d="M362.605,273.898c1.271,1.266,6.882-3.977,17.554-3.258c7.063,0.484,25.704,6.336,26.063,28.953
		c0.361,22.633-27.688,39.641-33.477,43.438c-5.795,3.805-21.184,10.133-19.369,11.219c1.809,1.094,26.244-6.508,34.931-10.672
		c8.684-4.164,38.004-20.633,37.823-45.25c-0.182-24.609-24.613-38.367-48.861-32.391
		C366.856,268.492,362.605,273.898,362.605,273.898z"/>
	<path fill="#454646" d="M203.342,269.007c0.539,1.078-15.07,2.031-33.342,10.914c-15.01,7.289-4.973,12.453,3.211,15.422
		c30.676,11.133,107.049,11.133,180.019-9.32c-21.211,17.195-74.052,32.391-130.158,32.391c-46.693,0-98.818-11.938-98.818-26.695
		c0-9.133,17.637-13.086,30.596-16.695C170.412,270.671,202.621,267.562,203.342,269.007z"/>
	<path fill="#454646" d="M187.234,321.945c0,0-13.371,12.875,3.986,18.555c42.346,13.859,104.607,5.781,125.484-7.414
		c0,0,11.518,9.5,20.477,12.211c0,0-42.802,25.703-103.253,21.625c-46.875-3.156-73.748-11.312-73.748-28.414
		C160.18,324.578,187.234,321.945,187.234,321.945z"/>
	<path fill="#454646" d="M194.656,371.351c0,0-20.629,1.633-20.629,15.477c0,10.875,21.172,28.234,74.652,26.875
		s83.339-20.086,83.339-20.086s-21.173-7.602-26.601-13.844c0,0-18.82,16.477-59.574,15.383
		C222.238,394.523,182.713,388.734,194.656,371.351z"/>
	<path fill="#454646" d="M157.555,406.375c0,0-42.348,7.406-41.625,20.273c0.51,9.102,51.646,19.938,137.096,19.539
		c78.994-0.359,149.58-8.688,144.511-36.555c0,0,15.08,9.062,5.43,20.633c-13.285,15.922-61.416,34.781-165.781,34.062
		c-104.365-0.727-152.386-17.031-151.298-33.695C86.975,413.976,136.924,400.945,157.555,406.375z"/>
	<path fill="#454646" d="M423.417,438.062c0,0-33.736,28.976-121.8,38.898c-51.719,5.828-100.988,3.984-157.271-11.383
		c15.834,19.344,73.912,37.133,154.014,27.922C407.671,480.944,419.072,448.562,423.417,438.062z"/>
</g>
</svg>
