<?xml version="1.0" encoding="utf-8"?>
<!-- Generator: Adobe Illustrator 19.2.1, SVG Export Plug-In . SVG Version: 6.00 Build 0)  -->
<svg version="1.1" id="Layer_1" xmlns="http://www.w3.org/2000/svg" xmlns:xlink="http://www.w3.org/1999/xlink" x="0px" y="0px"
	 width="512px" height="512px" viewBox="0 0 512 512" enable-background="new 0 0 512 512" xml:space="preserve">
<g>
	<g>
		<path fill="#454646" d="M140.2,178.2v-106H67c-1.7,0-3,1.3-3,3v103H140.2z"/>
	</g>
	<g>
		<g>
			<path fill="#454646" d="M445,72.2H152.1v106H184c2.4-11.9,3.6-26.1,2.5-43.3c12,8,18,24.7,23.3,43.3h48.5
				c6.7-37.1,21.6-72.1,46.7-90.4c-7.5,39.8-2.5,69.1,6.3,90.4H448v-103C448,73.5,446.7,72.2,445,72.2z"/>
		</g>
		<g>
			<g>
				<path fill="#454646" d="M213,190c7.7,28.8,16.2,58.9,42.9,67.6c-2.7-20.3-2.7-44,0.5-67.6H213z"/>
			</g>
			<g>
				<path fill="#454646" d="M123.9,290.7c1.2-2.9,2.5-5.7,4-8.5c8.3-16.5,18.8-32.1,28.5-48c4.8-7.9,17.1-20.3,24.6-44.1H64v112
					h55.8C120.9,298.2,122.3,294.5,123.9,290.7z"/>
			</g>
			<g>
				<path fill="#454646" d="M316.8,190c10.1,18.6,22.2,29.6,27.1,35.9c11.7,15,36.3,44.2,45.5,76.1H448V190H316.8z"/>
			</g>
		</g>
		<path fill="#454646" d="M302.9,299.7c1.4,10.7-1.5,27.2-4.2,35.7c-8.5,26.5-28.2,40.3-49.9,40.7c-27.5,0.5-41.7-27.2-36.2-68.2
			c-21.4,11.4-34.1,41.6-34.1,65.4c0,36,36.9,66.5,77.3,66.5c41.1,0,62.8-19.6,71.1-32.2C350.5,372.2,338.7,330.8,302.9,299.7z"/>
	</g>
	<g>
		<g>
			<path fill="#454646" d="M116,329.3c0-0.6,0-1.1,0-1.7c0-4.5,0.3-9,1-13.5H64v103c0,1.7,1.3,3,3,3h101.2
				C136.4,398.8,116,366,116,329.3z"/>
		</g>
		<g>
			<path fill="#454646" d="M392,314.2c0.6,3.7,0.8,7.5,0.8,11.2c0,44.5-16.3,75.4-42.9,94.8h95c1.7,0,3-1.3,3-3v-103H392z"/>
		</g>
	</g>
</g>
</svg>
