<?xml version="1.0" encoding="utf-8"?>
<!-- Generator: Adobe Illustrator 16.0.4, SVG Export Plug-In . SVG Version: 6.00 Build 0)  -->
<!DOCTYPE svg PUBLIC "-//W3C//DTD SVG 1.1//EN" "http://www.w3.org/Graphics/SVG/1.1/DTD/svg11.dtd">
<svg version="1.1" id="Layer_1" xmlns="http://www.w3.org/2000/svg" xmlns:xlink="http://www.w3.org/1999/xlink" x="0px" y="0px"
	 width="512px" height="512px" viewBox="0 0 512 512" enable-background="new 0 0 512 512" xml:space="preserve">
<g>
	<path fill="#454646" d="M312.894,173.271c0,5.069-4.146,9.22-9.209,9.22H25.219c-5.072,0-9.219-4.15-9.219-9.22v-45.648
		c0-5.069,4.146-9.22,9.219-9.22h278.466c5.063,0,9.209,4.151,9.209,9.22V173.271z"/>
	<path fill="#454646" d="M312.894,271.559c0,5.069-4.146,9.22-9.209,9.22H25.219c-5.072,0-9.219-4.151-9.219-9.22V225.91
		c0-5.069,4.146-9.22,9.219-9.22h278.466c5.063,0,9.209,4.15,9.209,9.22V271.559z"/>
	<polygon fill="#454646" points="426.606,448.801 426.606,379.402 496,379.402 496,314.638 426.606,314.638 426.606,245.244 
		361.841,245.244 361.841,314.638 292.447,314.638 292.447,379.402 361.841,379.402 361.841,448.801 	"/>
	<g>
		<path fill="#454646" d="M263.369,314.978H25.219c-5.072,0-9.219,4.151-9.219,9.215v45.654c0,5.074,4.146,9.22,9.219,9.22h238.15
			V314.978z"/>
	</g>
</g>
</svg>
