<?xml version="1.0" encoding="utf-8"?>
<!-- Generator: Adobe Illustrator 16.0.4, SVG Export Plug-In . SVG Version: 6.00 Build 0)  -->
<!DOCTYPE svg PUBLIC "-//W3C//DTD SVG 1.1//EN" "http://www.w3.org/Graphics/SVG/1.1/DTD/svg11.dtd">
<svg version="1.1" id="Layer_1" xmlns="http://www.w3.org/2000/svg" xmlns:xlink="http://www.w3.org/1999/xlink" x="0px" y="0px"
	 width="512px" height="512px" viewBox="0 0 512 512" enable-background="new 0 0 512 512" xml:space="preserve">
<g>
	<g id="layer1_2_" transform="translate(-702.6538,-712.5837)">
		<g id="g16337_2_">
			<path id="path16197_2_" fill="#454646" d="M888.645,1039.431c-66.519,0-120.491-53.839-120.491-120.368
				c0-66.532,53.973-120.567,120.491-120.567h140.04c66.534,0,120.469,54.035,120.469,120.567
				c0,66.529-53.936,120.368-120.469,120.368H888.645z M1025.567,996.933c43.093,0,77.994-34.803,77.994-77.87
				c0-43.075-34.9-78.074-77.994-78.074H891.733c-43.07,0-77.993,34.999-77.993,78.074c0,43.067,34.923,77.87,77.993,77.87H1025.567
				z"/>
		</g>
	</g>
	<g>
		<path fill="#454646" d="M78.461,370.572l9.554,40.1l9.989-39.013h12.52l9.845,39.013l9.7-40.1h10.422l-14.548,54.43h-12.885
			l-10.061-39.229l-10.062,39.229H80.053l-14.402-54.43H78.461z"/>
		<path fill="#454646" d="M180.888,370.572v9.265h-22.51v12.449h19.037v9.264h-19.037v14.188h23.669v9.264h-35.828v-54.43H180.888z"
			/>
		<path fill="#454646" d="M209.484,370.572c4.777,0,9.337,0.072,13.318,2.461c3.548,2.171,5.716,5.646,5.716,10.857
			c0,11.002-9.841,11.944-9.841,11.944s13.026,0.288,13.026,13.534c0,6.225-2.895,10.206-7.021,12.667
			c-4.848,2.967-10.204,2.967-15.49,2.967h-19.468v-54.43H209.484z M201.451,392.286h6.296c1.882,0,3.692,0,5.502-1.012
			c1.736-1.014,2.895-2.751,2.895-5.574c0-2.751-1.159-4.559-2.895-5.573c-1.81-1.014-3.62-1.014-5.502-1.014h-6.296V392.286z
			 M201.451,416.461h7.962c2.026,0,4.342,0,6.658-1.375c2.171-1.302,3.257-3.402,3.257-6.152c0-3.113-1.447-4.995-3.547-6.152
			c-2.316-1.232-4.199-1.232-6.949-1.232h-7.382V416.461z"/>
		<path fill="#454646" d="M250.892,370.572v44.875h20.412v9.555h-32.787v-54.43H250.892z"/>
		<path fill="#454646" d="M298.018,426.088c-17.082,0-26.131-11.292-26.131-28.156c0-17.299,9.482-28.445,26.419-28.445
			c17.082,0,26.129,11.291,26.129,28.155C324.435,414.941,314.955,426.088,298.018,426.088z M311.334,397.787
			c0-12.811-4.56-19.18-13.173-19.18c-8.612,0-13.173,6.37-13.173,19.18c0,12.812,4.561,19.18,13.173,19.18
			C306.774,416.967,311.334,410.599,311.334,397.787z"/>
		<path fill="#454646" d="M376.266,395.688v27.215c0,0-7.529,2.895-17.589,2.895c-17.37,0-29.023-8.687-29.023-27.504
			c0-19.325,12.232-28.301,30.761-28.301c7.962,0,13.971,1.665,13.971,1.665v9.482h-0.581c0,0-6.007-2.028-12.885-2.028
			c-12.014,0-18.167,6.081-18.167,18.602c0,12.667,6.297,19.109,16.068,19.109c3.04,0,5.574-0.652,5.574-0.652v-11.363h-8.759
			v-9.119H376.266z"/>
		<path fill="#454646" d="M397.479,370.572v54.43h-12.375v-54.43H397.479z"/>
		<path fill="#454646" d="M444.312,423.988c0,0-4.993,1.593-11.726,1.593c-18.963,0-27.36-12.377-27.36-27.794
			s8.397-27.793,27.36-27.793c6.732,0,11.726,1.592,11.726,1.592v9.337h-0.579c0,0-4.559-1.81-9.7-1.81
			c-11.146,0-15.705,8.397-15.705,18.602c0,10.206,4.559,18.747,15.705,18.747c5.141,0,9.7-1.81,9.7-1.81h0.579V423.988z"/>
	</g>
</g>
</svg>
