<?xml version="1.0" encoding="utf-8"?>
<!-- Generator: Adobe Illustrator 19.0.0, SVG Export Plug-In . SVG Version: 6.00 Build 0)  -->
<svg version="1.1" id="Layer_1" xmlns="http://www.w3.org/2000/svg" xmlns:xlink="http://www.w3.org/1999/xlink" x="0px" y="0px"
	 viewBox="0 0 512 512" style="enable-background:new 0 0 512 512;" xml:space="preserve">

<g id="XMLID_28_">
	<path fill="#454646" id="XMLID_30_" class="st0" d="M355.6,141.7l-82.3-80.8v56.5H156.4C95.5,117.4,46,166.9,46,227.8v28.4
		c0,41.7,23.2,78,57.4,96.8l38.2-37.9c-26.4-6.6-46-30.5-46-58.9v-28.4c0-33.5,27.3-60.8,60.8-60.8h116.9v55.5L355.6,141.7z"/>
	<path fill="#454646" id="XMLID_29_" class="st0" d="M396.3,146.9l-42.1,41.8h1.5c33.5,0,60.8,27.3,60.8,60.8v28.4c0,33.5-27.3,60.8-60.8,60.8
		H219.3v-53.1L137,366.3l82.3,80.8v-58.9h136.4c60.9,0,110.4-49.5,110.4-110.4v-28.4C466,202.9,437.1,163.1,396.3,146.9z"/>
</g>
</svg>
