<?xml version="1.0" encoding="utf-8"?>
<!-- Generator: Adobe Illustrator 16.0.4, SVG Export Plug-In . SVG Version: 6.00 Build 0)  -->
<!DOCTYPE svg PUBLIC "-//W3C//DTD SVG 1.1//EN" "http://www.w3.org/Graphics/SVG/1.1/DTD/svg11.dtd">
<svg version="1.1" id="Layer_1" xmlns="http://www.w3.org/2000/svg" xmlns:xlink="http://www.w3.org/1999/xlink" x="0px" y="0px"
	 width="512px" height="512px" viewBox="0 0 512 512" enable-background="new 0 0 512 512" xml:space="preserve">
<g>
	<path fill="#454646" d="M256.357,66c25.254,0,45.732,20.479,45.732,45.731c0,25.261-20.479,45.743-45.732,45.743
		c-25.26,0-45.738-20.482-45.738-45.743C210.619,86.479,231.098,66,256.357,66z"/>
	<path fill="#454646" d="M302.09,400.277c0,25.266-20.479,45.723-45.74,45.723c-25.252,0-45.73-20.457-45.73-45.723
		c0-25.261,20.479-45.738,45.73-45.738C281.611,354.539,302.09,375.017,302.09,400.277z"/>
	<path fill="#454646" d="M116.039,209.404c16.873,1.88,29.021,17.098,27.129,33.97c-1.881,16.881-17.084,29.021-33.965,27.141
		c-16.865-1.892-29.018-17.088-27.129-33.97C83.953,219.672,99.166,207.525,116.039,209.404z"/>
	<path fill="#454646" d="M402.791,241.462c16.877,1.88,29.02,17.088,27.137,33.961c-1.893,16.87-17.084,29.024-33.969,27.137
		c-16.869-1.88-29.018-17.088-27.133-33.953C370.709,251.726,385.918,239.57,402.791,241.462z"/>
	<path fill="#454646" d="M182.014,126.322c15.281,15.282,15.273,40.06-0.008,55.341c-15.279,15.277-40.057,15.277-55.338,0
		c-15.273-15.281-15.273-40.059,0-55.341C141.953,111.041,166.732,111.041,182.014,126.322z"/>
	<path fill="#454646" d="M386.039,330.354c15.287,15.286,15.287,40.06,0,55.337c-15.281,15.285-40.055,15.285-55.336,0
		c-15.281-15.277-15.281-40.051,0-55.337C345.984,315.068,370.768,315.068,386.039,330.354z"/>
	<path fill="#454646" d="M116.682,299.969c11.051-5.501,24.477-0.998,29.986,10.053c5.496,11.06,1.002,24.481-10.053,29.99
		c-11.051,5.49-24.482,1.012-29.982-10.056C101.123,318.904,105.621,305.475,116.682,299.969z"/>
	<path fill="#454646" d="M374.961,171.339c11.055-5.505,24.473-1.007,29.979,10.048c5.5,11.052,1.01,24.474-10.041,29.975
		c-11.059,5.506-24.48,1.02-29.99-10.048C359.41,190.262,363.91,176.84,374.961,171.339z"/>
	<path fill="#454646" d="M157.211,361.883c4.559-5.943,13.086-7.068,19.029-2.505c5.943,4.556,7.064,13.077,2.504,19.029
		c-4.562,5.936-13.076,7.068-19.027,2.505C153.771,376.349,152.645,367.836,157.211,361.883z"/>
	<path fill="#454646" d="M332.826,132.94c4.564-5.952,13.078-7.068,19.025-2.509c5.943,4.562,7.068,13.076,2.514,19.028
		c-4.564,5.944-13.082,7.068-19.037,2.501C329.385,147.401,328.268,138.884,332.826,132.94z"/>
</g>
</svg>
