<?xml version="1.0" encoding="utf-8"?>
<!-- Generator: Adobe Illustrator 16.0.4, SVG Export Plug-In . SVG Version: 6.00 Build 0)  -->
<!DOCTYPE svg PUBLIC "-//W3C//DTD SVG 1.1//EN" "http://www.w3.org/Graphics/SVG/1.1/DTD/svg11.dtd">
<svg version="1.1" id="Layer_1" xmlns="http://www.w3.org/2000/svg" xmlns:xlink="http://www.w3.org/1999/xlink" x="0px" y="0px"
	 width="512px" height="512px" viewBox="0 0 512 512" enable-background="new 0 0 512 512" xml:space="preserve">
<g>
	<path fill="#454646" d="M327.25,66h-142.5C171.685,66,161,76.702,161,89.75v51.411h43.012c25.396,0,34.695,16.214,41.692,32.292
		c-6.822,17.33-14.67,37.239-22.375,56.772c-10.253-25.844-18.584-46.672-19.181-47.665c-0.042,0-0.088,0-0.137,0H161v127.881v9.5
		v9.5h43.012c0.094,0,0.179,0,0.257,0c1.171-1.797,59.795-150.754,59.795-150.754c7.382-17.592,15.748-37.526,43.914-37.526H351
		v-9.5v-9.5V89.75C351,76.702,340.311,66,327.25,66z"/>
	<path fill="#454646" d="M307.854,182.561c-1.622,2.679-59.735,150.31-59.735,150.31c-5.946,15.124-14.922,37.974-44.106,37.974H161
		v9.5v9.5v32.406c0,13.077,10.685,23.75,23.75,23.75h142.5c13.061,0,23.75-10.673,23.75-23.75v-51.406h-43.021
		c-25.603,0-35.648-17.599-41.743-32.123c6.812-17.304,14.679-37.262,22.423-56.854c10.305,26.016,18.636,46.914,19.065,47.574
		c0.085,0,0.165,0.005,0.255,0.005H351V201.561v-9.5v-9.5h-43.021C307.939,182.561,307.893,182.561,307.854,182.561z"/>
</g>
</svg>
