<?xml version="1.0" encoding="utf-8"?>
<!-- Generator: Adobe Illustrator 16.0.4, SVG Export Plug-In . SVG Version: 6.00 Build 0)  -->
<!DOCTYPE svg PUBLIC "-//W3C//DTD SVG 1.1//EN" "http://www.w3.org/Graphics/SVG/1.1/DTD/svg11.dtd">
<svg version="1.1" id="Layer_1" xmlns="http://www.w3.org/2000/svg" xmlns:xlink="http://www.w3.org/1999/xlink" x="0px" y="0px"
	 width="512px" height="512px" viewBox="0 0 512 512" enable-background="new 0 0 512 512" xml:space="preserve">
<g>
	<path fill="#454646" d="M406.125,248.891v157.231h-300.25V105.877H262.46L223.344,66H128.34H79.256C71.968,66,66,71.965,66,79.256
		v353.488C66,440.034,71.968,446,79.256,446h353.488c7.287,0,13.256-5.966,13.256-13.256v-28.926V288.656L406.125,248.891z"/>
	<path fill="#454646" d="M445.996,66H256l73.127,73.129l-107.496,107.5c-5.156,5.154-5.156,13.59,0,18.745l24.992,24.997
		c5.161,5.154,13.593,5.154,18.749,0l107.497-107.5L445.996,256V66z"/>
</g>
</svg>
