<?xml version="1.0" encoding="utf-8"?>
<!-- Generator: Adobe Illustrator 16.0.4, SVG Export Plug-In . SVG Version: 6.00 Build 0)  -->
<!DOCTYPE svg PUBLIC "-//W3C//DTD SVG 1.1//EN" "http://www.w3.org/Graphics/SVG/1.1/DTD/svg11.dtd">
<svg version="1.1" id="Layer_1" xmlns="http://www.w3.org/2000/svg" xmlns:xlink="http://www.w3.org/1999/xlink" x="0px" y="0px"
	 width="512px" height="512px" viewBox="0 0 512 512" enable-background="new 0 0 512 512" xml:space="preserve">
<path fill="#454646" d="M380.285,112.311c-79.349-68.65-199.338-59.975-267.992,19.381c-0.111,0.13-0.207,0.264-0.319,0.395h61.798
	l45.611,110.117H66.488c-0.602,8.345-0.616,16.713-0.119,25.051h187.464l-30.294-73.134h21.662l45.612,110.118H72.232
	c2.219,8.514,5.054,16.877,8.467,25.055h244.564l-30.294-73.138h21.663l45.611,110.118H101.272
	c8.601,12.053,18.716,23.304,30.412,33.419c79.357,68.65,199.346,59.972,267.993-19.389
	C468.325,300.947,459.649,180.962,380.285,112.311z"/>
</svg>
