<?xml version="1.0" encoding="utf-8"?>
<!-- Generator: Adobe Illustrator 18.1.0, SVG Export Plug-In . SVG Version: 6.00 Build 0)  -->
<svg version="1.1" id="Layer_1" xmlns="http://www.w3.org/2000/svg" xmlns:xlink="http://www.w3.org/1999/xlink" x="0px" y="0px"
	 viewBox="0 0 512 512" enable-background="new 0 0 512 512" xml:space="preserve">
<g>
	<circle fill="#454646" cx="255.998" cy="150.812" r="32.077"/>
	<circle fill="#454646" cx="255.998" cy="265.522" r="32.077"/>
	<path fill="#454646" d="M294.309,65.045h-2.814V55.006c0-4.953-4.053-9.006-9.006-9.006h-52.98c-4.953,0-9.006,4.053-9.006,9.006
		v10.039h-2.814c-27.736,0-50.22,22.483-50.22,50.219v300.517c0,27.736,22.484,50.219,50.22,50.219h76.621
		c27.736,0,50.22-22.483,50.22-50.219V115.264C344.528,87.528,322.044,65.045,294.309,65.045z M255.998,430.235
		c-27.615,0-50.001-22.386-50.001-50.002c0-27.615,22.386-50.001,50.001-50.001c27.615,0,50.003,22.386,50.003,50.001
		C306.001,407.849,283.613,430.235,255.998,430.235z M255.998,315.524c-27.615,0-50.001-22.387-50.001-50.002
		c0-27.616,22.386-50.001,50.001-50.001c27.615,0,50.003,22.386,50.003,50.001C306.001,293.137,283.613,315.524,255.998,315.524z
		 M255.998,200.814c-27.615,0-50.001-22.386-50.001-50.001c0-27.616,22.386-50.003,50.001-50.003
		c27.615,0,50.003,22.387,50.003,50.003C306.001,178.427,283.613,200.814,255.998,200.814z"/>
	<g>
		<path fill="#454646" d="M429.927,100.809c0,45.378-34.242,83.677-65.351,83.677v-83.677H429.927z"/>
	</g>
	<g>
		<path fill="#454646" d="M429.927,215.52c0,45.378-34.242,83.677-65.351,83.677V215.52H429.927z"/>
	</g>
	<g>
		<path fill="#454646" d="M429.927,330.231c0,45.378-34.242,83.677-65.351,83.677v-83.677H429.927z"/>
	</g>
	<g>
		<path fill="#454646" d="M82.069,100.809c0,45.378,34.242,83.677,65.351,83.677v-83.677H82.069z"/>
	</g>
	<g>
		<path fill="#454646" d="M82.069,215.52c0,45.378,34.242,83.677,65.351,83.677V215.52H82.069z"/>
	</g>
	<g>
		<path fill="#454646" d="M82.069,330.231c0,45.378,34.242,83.677,65.351,83.677v-83.677H82.069z"/>
	</g>
</g>
</svg>
