<?xml version="1.0" encoding="utf-8"?>
<!-- Generator: Adobe Illustrator 19.2.1, SVG Export Plug-In . SVG Version: 6.00 Build 0)  -->
<svg version="1.1" id="Layer_1" xmlns="http://www.w3.org/2000/svg" xmlns:xlink="http://www.w3.org/1999/xlink" x="0px" y="0px"
	 viewBox="0 0 512 512" style="enable-background:new 0 0 512 512;" xml:space="preserve">
<style type="text/css">
	.st0{fill:#454646;}
</style>
<path class="st0" d="M78,236.7C89.2,148.8,149.1,69.1,256.6,68c64.9,1.2,118.3,30.6,150,86.7c16,29.3,20.9,60,22,93.9v39.8H190.1
	c1.1,98.3,144.7,95,206.6,51.6v80.1c-36.2,21.8-118.4,41.2-182,16.2c-54.2-20.4-92.8-77-92.5-131.6c-1.8-70.8,35.2-117.6,92.5-144.2
	c-12.2,15.1-21.4,31.7-26.3,60.5l134.7,0c0,0,7.9-80.5-76.2-80.5C167.5,143.3,110.3,189.4,78,236.7L78,236.7z"/>
</svg>
