<?xml version="1.0" encoding="utf-8"?>
<!-- Generator: Adobe Illustrator 18.1.1, SVG Export Plug-In . SVG Version: 6.00 Build 0)  -->
<svg version="1.1" id="Ebene_1" xmlns="http://www.w3.org/2000/svg" xmlns:xlink="http://www.w3.org/1999/xlink" x="0px" y="0px"
	 width="512px" height="512px" viewBox="0 0 512 512" enable-background="new 0 0 512 512" xml:space="preserve">
<g>
	<g>
		<polygon fill="#454646" points="177.5,135.4 155.1,297.8 247.5,205.4 		"/>
		<polygon fill="#454646" points="292.1,466 256,429.9 219.9,466 		"/>
		<polygon fill="#454646" points="360.6,325.3 264.5,421.5 309,466 380,466 		"/>
		
			<rect x="185.6" y="243.1" transform="matrix(0.7071 0.7071 -0.7071 0.7071 296.6102 -89.2169)" fill="#454646" width="140.8" height="140.8"/>
		<polygon fill="#454646" points="247.5,421.5 151.4,325.3 132,466 203,466 		"/>
		<polygon fill="#454646" points="356.9,297.8 334.5,135.4 264.5,205.4 		"/>
		<polygon fill="#454646" points="256,196.9 332.5,120.5 332,117.3 180,117.3 179.5,120.5 		"/>
	</g>
	<path fill="#454646" d="M212.3,105.3V53.7c0-4.2,3.5-7.7,7.7-7.7l0,0c4.2,0,7.7,3.5,7.7,7.7v51.6H212.3z"/>
	<path fill="#454646" d="M284.3,105.3V53.7c0-4.2,3.5-7.7,7.7-7.7l0,0c4.2,0,7.7,3.5,7.7,7.7v51.6H284.3z"/>
</g>
</svg>
