<?xml version="1.0" encoding="utf-8"?>
<!-- Generator: Adobe Illustrator 16.0.4, SVG Export Plug-In . SVG Version: 6.00 Build 0)  -->
<!DOCTYPE svg PUBLIC "-//W3C//DTD SVG 1.1//EN" "http://www.w3.org/Graphics/SVG/1.1/DTD/svg11.dtd">
<svg version="1.1" id="Layer_1" xmlns="http://www.w3.org/2000/svg" xmlns:xlink="http://www.w3.org/1999/xlink" x="0px" y="0px"
	 width="512px" height="512px" viewBox="0 0 512 512" enable-background="new 0 0 512 512" xml:space="preserve">
<g>
	<path fill="#454646" d="M388.336,219.61c0.432-3.503,0.65-7.071,0.65-10.684c0-47.544-38.539-86.084-86.084-86.084
		c-38.246,0-70.666,24.947-81.883,59.455c-9.378-4.657-19.943-7.277-31.128-7.277c-38.312,0-69.438,30.737-70.089,68.895
		C88.049,255.911,66,282.377,66,313.106c0,42.002,41.222,76.051,92.074,76.051c37.597,0,138.375,0,178.857,0
		c60.238,0,109.068-40.335,109.068-90.083C446,264.672,422.65,234.78,388.336,219.61z"/>
</g>
</svg>
