<?xml version="1.0" encoding="utf-8"?>
<!-- Generator: Adobe Illustrator 16.0.4, SVG Export Plug-In . SVG Version: 6.00 Build 0)  -->
<!DOCTYPE svg PUBLIC "-//W3C//DTD SVG 1.1//EN" "http://www.w3.org/Graphics/SVG/1.1/DTD/svg11.dtd">
<svg version="1.1" id="Layer_1" xmlns="http://www.w3.org/2000/svg" xmlns:xlink="http://www.w3.org/1999/xlink" x="0px" y="0px"
	 width="512px" height="512px" viewBox="0 0 512 512" enable-background="new 0 0 512 512" xml:space="preserve">
<g>
	<path fill="#454646" d="M427.708,268.731c-10.695,0-20.805,2.462-29.826,6.837l39.556,51.802l-1.576,1.126l-48.408-43.451
		l-185.756,33.773l-0.225-1.805l172.693-39.626l-95.017-32.425l1.125-1.351l108.329,27.608
		c12.824-131.079-179.112-172.49-221.397-47.869c-38.121-28.593-92.109,8.103-80.452,53.764
		c-44.174,1.284-77.648,42.979-69.537,86.36h473.614C509.366,319.156,475.671,268.731,427.708,268.731z"/>
	<g>
		<path fill-rule="evenodd" clip-rule="evenodd" fill="#454646" d="M392.528,260.006c0,5.04-0.328,10.095-0.966,15.103
			c13.954-8.169,30.539-11.338,46.533-9.004c14.484,2.121,26.061,13.242,40.962,10.199v-1.57l-38.055-11.258l38.275-10.588V251.2
			l-39.626-1.464l34.22-20.035l-0.9-1.576l-38.496,8.778l27.688-28.368l-1.121-1.351l-34.904,18.465l19.365-34.449l-1.463-1.355
			l-28.705,27.247l9.458-38.051l-1.805-0.904l-20.266,33.549l-1.125-39.626l-1.575-0.225l-10.803,37.826l-10.812-37.826h-2.251
			c-0.113,8.768-0.225,17.537-0.337,26.305c-0.057,4.506,7.338,15.675,9.04,20.125C389.935,231.567,392.528,245.771,392.528,260.006
			z"/>
	</g>
</g>
</svg>
