<?xml version="1.0" encoding="utf-8"?>
<!-- Generator: Adobe Illustrator 19.1.0, SVG Export Plug-In . SVG Version: 6.00 Build 0)  -->
<svg version="1.1" id="Ebene_1" xmlns="http://www.w3.org/2000/svg" xmlns:xlink="http://www.w3.org/1999/xlink" x="0px" y="0px"
	 width="512px" height="512px" viewBox="0 0 512 512" enable-background="new 0 0 512 512" xml:space="preserve">
<g>
	<path fill="#454646" d="M459.4,351.3h-59V113.6c0-3.6-3-6.6-6.6-6.6H214.6c-3.6,0-6.6,3-6.6,6.6v237.7H52.6c-3.6,0-6.6,3-6.6,6.6
		c0,3.6,3,6.6,6.6,6.6h162c0.1,0,0.3-0.1,0.4-0.1l34.1,38.3c1.3,1.4,3.1,2.2,4.9,2.2c0.8,0,1.6-0.1,2.3-0.4c2.6-1,4.3-3.4,4.3-6.2
		v-48.1c1.3,0.6,2.7,0.9,4.2,0.9c3.3,0,6.6-1.5,8.7-4.3l33.8-44.2l-17.6-33.9l29.4-39.4l12.2,29.6l39.1,8.2c0.8,0.2,1.5,0.2,2.3,0.2
		c5.1,0,9.6-3.5,10.7-8.7c1.2-5.9-2.6-11.7-8.5-13l-27.7-5.8l-10.3-25.1L301,185.1l-40.3-8.7v-23.1c0-2-0.9-3.8-2.4-5.1l-33.6-27.9
		h162.5v237.7c0,3.6,3,6.6,6.6,6.6h65.6c3.6,0,6.6-3,6.6-6.6C466,354.3,463,351.3,459.4,351.3z M260.7,210.1l7.2-9.8l16.4,3.5
		l-23.6,32.8V210.1z M260.7,274.2l4.2-5.9l16.6,32.1l-20.8,27.2V274.2z"/>
	<circle fill="#454646" cx="333.3" cy="172.2" r="20.3"/>
</g>
</svg>
