<?xml version="1.0" encoding="utf-8"?>
<!-- Generator: Adobe Illustrator 16.0.4, SVG Export Plug-In . SVG Version: 6.00 Build 0)  -->
<!DOCTYPE svg PUBLIC "-//W3C//DTD SVG 1.1//EN" "http://www.w3.org/Graphics/SVG/1.1/DTD/svg11.dtd">
<svg version="1.1" id="Layer_1" xmlns="http://www.w3.org/2000/svg" xmlns:xlink="http://www.w3.org/1999/xlink" x="0px" y="0px"
	 width="512px" height="512px" viewBox="0 0 512 512" enable-background="new 0 0 512 512" xml:space="preserve">
<path fill="#454646" d="M309.378,286.278l77.73-88.31c34.304,13.927,54.091-4.616,54.091-4.616
	c5.797-5.437,6.436-13.987,1.418-19.011L337.656,69.383c-5.025-5.018-13.575-4.387-19.008,1.414c0,0-18.548,19.787-4.617,54.095
	l-88.314,77.733c-54.929-27.458-88.832,4.305-88.832,4.305c-5.797,5.437-6.435,13.987-1.418,19.004l60.341,60.344
	C106.529,375.891,60.58,439.567,66.51,445.494c5.923,5.922,69.484-39.912,159.207-129.302l60.342,60.337
	c5.018,5.017,13.574,4.386,19.008-1.414C305.066,375.115,336.832,341.211,309.378,286.278z"/>
</svg>
