<?xml version="1.0" encoding="utf-8"?>
<!-- Generator: Adobe Illustrator 16.0.4, SVG Export Plug-In . SVG Version: 6.00 Build 0)  -->
<!DOCTYPE svg PUBLIC "-//W3C//DTD SVG 1.1//EN" "http://www.w3.org/Graphics/SVG/1.1/DTD/svg11.dtd">
<svg version="1.1" id="Layer_1" xmlns="http://www.w3.org/2000/svg" xmlns:xlink="http://www.w3.org/1999/xlink" x="0px" y="0px"
	 width="512px" height="512px" viewBox="0 0 512 512" enable-background="new 0 0 512 512" xml:space="preserve">
<path fill="#454646" d="M350.996,92.288H161l-95,163.72l95,163.704h189.996L446,256.008L350.996,92.288z M183.833,356.975
	c-31.206-22.459-51.545-59.063-51.545-100.451c0-68.318,55.386-123.704,123.711-123.704c13.972,0,27.387,2.349,39.915,6.62
	l-8.257,13.741c-10.012-3.068-20.641-4.724-31.658-4.724c-59.69,0-108.074,48.383-108.074,108.066
	c0,35.592,17.211,67.16,43.759,86.851L183.833,356.975z M250.953,214.26l-34.646,57.646c-1.852-4.78-2.905-9.953-2.905-15.382
	C213.402,234.714,229.812,216.753,250.953,214.26z M268.45,297.262l22.477-65.078c4.821,6.902,7.667,15.281,7.667,24.34
	C298.594,275.72,285.896,291.933,268.45,297.262z M249.257,317.895l-36.928-17.237l100.863-167.838L249.257,317.895z
	 M328.159,356.975l-7.853-13.601c26.548-19.69,43.763-51.259,43.763-86.851c0-38.33-19.976-71.97-50.061-91.159l5.236-15.155
	c36.196,21.586,60.458,61.107,60.458,106.314C379.704,297.911,359.364,334.516,328.159,356.975z"/>
</svg>
