<?xml version="1.0" encoding="utf-8"?>
<!-- Generator: Adobe Illustrator 16.0.4, SVG Export Plug-In . SVG Version: 6.00 Build 0)  -->
<!DOCTYPE svg PUBLIC "-//W3C//DTD SVG 1.1//EN" "http://www.w3.org/Graphics/SVG/1.1/DTD/svg11.dtd">
<svg version="1.1" id="Layer_1" xmlns="http://www.w3.org/2000/svg" xmlns:xlink="http://www.w3.org/1999/xlink" x="0px" y="0px"
	 width="512px" height="512px" viewBox="0 0 512 512" enable-background="new 0 0 512 512" xml:space="preserve">
<g>
	<path fill="#454646" d="M256,66C151.068,66,66,151.068,66,256c0,104.935,85.068,190,190,190c104.937,0,190-85.065,190-190
		C446,151.068,360.937,66,256,66z M256,403.529c-81.475,0-147.529-66.05-147.529-147.529c0-81.475,66.055-147.529,147.529-147.529
		c81.482,0,147.529,66.055,147.529,147.529C403.529,337.479,337.482,403.529,256,403.529z"/>
	<path fill="#454646" d="M247.024,287.368h52.722c9.718,0,17.594-7.872,17.594-17.568c0-9.723-7.876-17.581-17.594-17.581h-35.154
		V199.48c0-9.718-7.875-17.577-17.567-17.577c-9.71,0-17.586,7.859-17.586,17.577v70.32
		C229.438,279.497,237.314,287.368,247.024,287.368z"/>
</g>
</svg>
