<?xml version="1.0" encoding="utf-8"?>
<!-- Generator: Adobe Illustrator 18.1.1, SVG Export Plug-In . SVG Version: 6.00 Build 0)  -->
<svg version="1.1" id="Ebene_1" xmlns="http://www.w3.org/2000/svg" xmlns:xlink="http://www.w3.org/1999/xlink" x="0px" y="0px"
	 width="512px" height="512px" viewBox="0 0 512 512" enable-background="new 0 0 512 512" xml:space="preserve">
<g>
	<path fill="#454646" d="M279.7,200.9l78.6-108.3C328.5,72.7,294,61.5,258,60.1v133.9C265.8,194.9,273.1,197.3,279.7,200.9z"/>
	<path fill="#454646" d="M306.3,229.1l119.5-38.8c-11.9-31.7-32.5-60.1-59.1-81.3l-73.9,101.7C298.5,215.9,303,222.1,306.3,229.1z"
		/>
	<path fill="#454646" d="M438.7,203.2l-127.3,41.4c0.7,3.7,1.1,7.5,1.1,11.4c0,3.9-0.4,7.7-1.1,11.4l127.3,41.3
		C448.4,274.1,448.4,237.9,438.7,203.2z"/>
	<path fill="#454646" d="M306.3,282.9c-3.3,7-7.9,13.2-13.4,18.5l69.1,95c25.2-20.2,44.8-47.1,56.1-77.2L306.3,282.9z"/>
	<path fill="#454646" d="M279.7,311.1c-6.6,3.6-14,6-21.7,7v133.9c36-1.5,70.4-12.7,100.4-32.6L279.7,311.1z"/>
	<path fill="#454646" d="M219.9,311.1l-64.2,88.4c25.7,16.9,55.2,26.5,86,27.9V318.1C233.9,317.1,226.5,314.7,219.9,311.1z"/>
	<path fill="#454646" d="M193.3,283L66,324.3c12.4,33.3,34.1,63.2,62.1,85.4l78.7-108.3C201.2,296.1,196.7,289.9,193.3,283z"/>
	<path fill="#454646" d="M187.2,256c0-3.9,0.4-7.7,1.1-11.4L92,213.3c-3.8,13.9-5.7,28.2-5.7,42.7c0,14.5,1.9,28.8,5.7,42.7
		l96.2-31.3C187.6,263.7,187.2,259.9,187.2,256z"/>
	<path fill="#454646" d="M206.7,210.6l-78.7-108.3c-28,22.2-49.7,52.1-62.1,85.4l127.3,41.4C196.7,222.1,201.2,215.9,206.7,210.6z"
		/>
	<path fill="#454646" d="M241.7,193.9v-93c-27.3,1.4-53.4,9.9-76.3,24.8l54.6,75.2C226.5,197.3,233.9,194.9,241.7,193.9z"/>
</g>
</svg>
