<?xml version="1.0" encoding="utf-8"?>
<!-- Generator: Adobe Illustrator 18.1.1, SVG Export Plug-In . SVG Version: 6.00 Build 0)  -->
<svg version="1.1" id="Ebene_1" xmlns="http://www.w3.org/2000/svg" xmlns:xlink="http://www.w3.org/1999/xlink" x="0px" y="0px"
	 width="512px" height="512px" viewBox="-877 2792.5 512 512" enable-background="new -877 2792.5 512 512" xml:space="preserve">
<g>
	<rect x="-831.5" y="3008.2" fill-rule="evenodd" clip-rule="evenodd" fill="#454646" width="46.9" height="46.9"/>
	<rect x="-766.9" y="3008.2" fill-rule="evenodd" clip-rule="evenodd" fill="#454646" width="46.9" height="46.9"/>
	<rect x="-702.4" y="3008.2" fill-rule="evenodd" clip-rule="evenodd" fill="#454646" width="46.9" height="46.9"/>
	<rect x="-637.8" y="3008.2" fill-rule="evenodd" clip-rule="evenodd" fill="#454646" width="46.9" height="46.9"/>
	<rect x="-637.8" y="2879.1" fill-rule="evenodd" clip-rule="evenodd" fill="#454646" width="46.9" height="46.9"/>
	<rect x="-573.2" y="3008.2" fill-rule="evenodd" clip-rule="evenodd" fill="#454646" width="46.9" height="46.9"/>
	<path fill-rule="evenodd" clip-rule="evenodd" fill="#454646" d="M-407.2,3033.6c-15.1-8.7-35.2-9.9-52.3-4.9
		c-2.1-18.2-14.1-34.1-28.3-45.5l-5.6-4.5c0,0-15.8,15-15.8,48.8c0,10.4,4.2,20.8,10.6,29.1c-5.2,14.1-41.2,12.1-69.3,12.1
		c-62.4,0-272.7,0-272.7,0c-7.3,120.2,84.5,149.1,144,149.1c102.9,0,187.8-46,226.8-143.1c60.3,5.2,68.7-37.6,68.7-37.6
		L-407.2,3033.6z M-694.3,3096c9.7,0,17.6,7.9,17.6,17.6s-7.9,17.6-17.6,17.6c-9.7,0-17.6-7.9-17.6-17.6S-704,3096-694.3,3096z
		 M-802.3,3151.7c21.1,6.4,72.5-1.7,82.1-6.6c10.1,23.4,23,37.8,56.2,53.5C-747.7,3201.9-776.3,3182.7-802.3,3151.7z"/>
	<rect x="-766.9" y="2943.7" fill-rule="evenodd" clip-rule="evenodd" fill="#454646" width="46.9" height="46.9"/>
	<rect x="-702.4" y="2943.7" fill-rule="evenodd" clip-rule="evenodd" fill="#454646" width="46.9" height="46.9"/>
	<rect x="-637.8" y="2943.7" fill-rule="evenodd" clip-rule="evenodd" fill="#454646" width="46.9" height="46.9"/>
</g>
</svg>
