<?xml version="1.0" encoding="utf-8"?>
<!-- Generator: Adobe Illustrator 19.1.0, SVG Export Plug-In . SVG Version: 6.00 Build 0)  -->
<svg version="1.1" id="Ebene_1" xmlns="http://www.w3.org/2000/svg" xmlns:xlink="http://www.w3.org/1999/xlink" x="0px" y="0px"
	 width="512px" height="512px" viewBox="0 0 512 512" enable-background="new 0 0 512 512" xml:space="preserve">
<path fill="#454646" d="M458.6,371.2H398v-237c0-3.6-2.9-6.6-6.6-6.6H212.8c0,0-0.1,0-0.1,0c-0.7,0-1.4,0.1-2.2,0.4
	c-0.1,0-0.1,0.1-0.1,0.1c-0.2,0.1-0.3,0.2-0.5,0.3c-0.5,0.3-1,0.6-1.4,1c-0.2,0.2-0.3,0.4-0.5,0.5c-0.4,0.4-0.6,0.8-0.9,1.3
	c-0.1,0.2-0.2,0.4-0.3,0.6c-0.3,0.7-0.5,1.5-0.5,2.3v237H53.4c-3.6,0-6.6,2.9-6.6,6.6c0,3.6,2.9,6.6,6.6,6.6h159.4
	c0.8,0,1.6-0.2,2.3-0.5c0.3-0.1,0.5-0.3,0.7-0.4c0.3-0.2,0.6-0.3,0.9-0.5l35.7-27.4c1.6-1.2,2.6-3.2,2.6-5.2V175.6
	c0-1.6-0.6-3.1-1.6-4.3l-26.3-30.5h157.6v63.1l-35.2-7.6l-31,42.3c-3.6,4.9-2.5,11.7,2.4,15.3c4.9,3.6,11.7,2.5,15.3-2.4l22.6-30.9
	l16.3,3.5l-52,72.3l-38.9-11.9c-5.8-1.8-11.9,1.5-13.6,7.2c-1.8,5.8,1.5,11.9,7.2,13.6l53.9,16.5l24.1-33.6l16.6,32l-25.3,33.1
	c-3.7,4.8-2.8,11.7,2,15.3c2,1.5,4.3,2.2,6.6,2.2c3.3,0,6.5-1.5,8.7-4.3l20.3-26.5v37.6c0,3.6,2.9,6.6,6.6,6.6h67.2
	c3.6,0,6.6-2.9,6.6-6.6C465.2,374.1,462.2,371.2,458.6,371.2z M380.7,288.9l4.1-5.5v13.4L380.7,288.9z"/>
</svg>
