<?xml version="1.0" encoding="utf-8"?>
<!-- Generator: Adobe Illustrator 16.0.4, SVG Export Plug-In . SVG Version: 6.00 Build 0)  -->
<!DOCTYPE svg PUBLIC "-//W3C//DTD SVG 1.1//EN" "http://www.w3.org/Graphics/SVG/1.1/DTD/svg11.dtd">
<svg version="1.1" id="Layer_1" xmlns="http://www.w3.org/2000/svg" xmlns:xlink="http://www.w3.org/1999/xlink" x="0px" y="0px"
	 width="512px" height="512px" viewBox="0 0 512 512" enable-background="new 0 0 512 512" xml:space="preserve">
<g>
	<path fill="#454646" d="M232.984,67.048c-17.998,2.189-35.347,6.902-51.619,13.879l-37.295,215.885L232.984,67.048z"/>
	<path fill="#454646" d="M321.648,77.401c-12.45-4.583-25.559-7.96-39.225-9.881c-5.362-0.751-10.687-1.215-15.994-1.521
		L157.317,302.424L321.648,77.401z"/>
	<path fill="#454646" d="M151.241,97.227c-13.387,8.869-25.652,19.371-36.442,31.33l15.048,166.251L151.241,97.227z"/>
	<path fill="#454646" d="M93.925,156.537c-6.717,10.966-12.394,22.692-16.838,35.097l38.51,104.927L93.925,156.537z"/>
	<path fill="#454646" d="M441.762,295.911c0.937-4.388,1.772-8.813,2.403-13.322c2.05-14.612,2.328-29.057,1.104-43.168
		l-262.605,96.717L441.762,295.911z"/>
	<path fill="#454646" d="M68.478,225.218c-0.241,1.456-0.529,2.885-0.724,4.351c-0.983,6.986-1.549,13.936-1.754,20.838
		l36.274,51.545L68.478,225.218z"/>
	<path fill="#454646" d="M396.387,127.777c-12.914-14.204-28.018-26.469-44.856-36.284L168.627,311.284L396.387,127.777z"/>
	<path fill="#454646" d="M404.856,374.38c11.068-13.944,20.262-29.53,27.127-46.452l-247.577,22.498L404.856,374.38z"/>
	<path fill="#454646" d="M439.591,206.839c-5.046-18.852-12.969-36.654-23.268-52.881l-239.041,168.83L439.591,206.839z"/>
	<path fill="#454646" d="M381.283,399.15l-198.87-34.475l158.662,61.62C355.594,418.994,369.102,409.856,381.283,399.15z"/>
	<path fill="#454646" d="M168.441,425.117c3.525,1.828,7.125,3.535,10.79,5.149l-22.758-32.322L168.441,425.117z"/>
	<path fill="#454646" d="M269.667,446.001c13.359-0.956,26.413-3.35,38.983-6.986L176.8,377.933L269.667,446.001z"/>
	<path fill="#454646" d="M209.169,440.62c6.633,1.679,13.406,3.043,20.327,4.008c1.846,0.269,3.674,0.436,5.501,0.64l-67.048-55.998
		L209.169,440.62z"/>
	<path fill="#454646" d="M67.643,281.782c0.501,3.701,1.113,7.375,1.828,11.012l21.329,17.812L67.643,281.782z"/>
</g>
</svg>
