<?xml version="1.0" encoding="utf-8"?>
<!-- Generator: Adobe Illustrator 18.1.1, SVG Export Plug-In . SVG Version: 6.00 Build 0)  -->
<svg version="1.1" id="Ebene_1" xmlns="http://www.w3.org/2000/svg" xmlns:xlink="http://www.w3.org/1999/xlink" x="0px" y="0px"
	 width="512px" height="512px" viewBox="0 0 512 512" enable-background="new 0 0 512 512" xml:space="preserve">
<g>
	<g>
		<path fill="#454646" d="M88,424V46H67c-11.6,0-21,9.5-21,21v378c0,11.6,9.4,21,21,21h378c11.5,0,21-9.5,21-21v-21H88z"/>
	</g>
	<g>
		<path fill="#454646" d="M136.4,398.1h60.8V71.3h-60.8V398.1z M153.2,88.1h27.2v218.3c0,7-5.6,12.6-12.6,12.6h-2
			c-7,0-12.6-5.6-12.6-12.6V88.1z"/>
		<path fill="#454646" d="M243.2,398.7h60.8V71.3h-60.8V398.7z M260,88.1h27.2v69.6c0,7-5.6,12.6-12.6,12.6h-2
			c-7,0-12.6-5.6-12.6-12.6V88.1z"/>
		<path fill="#454646" d="M351.7,71.3v327h60.8v-327H351.7z M368.5,88.1h27.2v148.1c0,7-5.6,12.6-12.6,12.6h-2
			c-7,0-12.6-5.6-12.6-12.6V88.1z"/>
	</g>
</g>
</svg>
