<?xml version="1.0" encoding="utf-8"?>
<!-- Generator: Adobe Illustrator 16.0.4, SVG Export Plug-In . SVG Version: 6.00 Build 0)  -->
<!DOCTYPE svg PUBLIC "-//W3C//DTD SVG 1.1//EN" "http://www.w3.org/Graphics/SVG/1.1/DTD/svg11.dtd">
<svg version="1.1" id="Layer_1" xmlns="http://www.w3.org/2000/svg" xmlns:xlink="http://www.w3.org/1999/xlink" x="0px" y="0px"
	 width="512px" height="512px" viewBox="0 0 512 512" enable-background="new 0 0 512 512" xml:space="preserve">
<g>
	<path fill="#454646" d="M167.925,288.171l35.286,20.358l-29.419-109.788l-109.75,29.415L99.3,248.677l-31.808,55.088
		c-4.576,7.939-4.576,20.367,0,28.294l34.662,60.027c2.756,4.354,6.317,7.504,12.27,10.926c5.949,3.424,14.662,3.487,14.662,3.487
		h99.855v-79.537h-83.503L167.925,288.171z"/>
	<path fill="#454646" d="M214.339,208.137l41.969-72.182l22.226,38.926l-35.325,20.256l109.678,29.759l29.751-109.651
		l-35.476,20.166L315.53,80.216c-4.552-7.939-15.294-14.188-24.449-14.216h-69.34c-4.942,0-9.948,1.46-15.59,4.907
		c-5.642,3.45-9.834,10.776-9.834,10.776l-50.5,86.611L214.339,208.137z"/>
	<path fill="#454646" d="M447.88,314.057c-0.545-7.647-4.015-13.62-4.015-13.62l-51.254-86.836l-68.33,40.169l42.306,71.98h-44.089
		v-40.461l-80.796,80.989L322.498,446v-40.812h63.623c9.144-0.07,19.854-6.861,24.362-14.82l34.192-60.286
		C447.099,325.805,448.283,319.82,447.88,314.057z"/>
</g>
</svg>
