<?xml version="1.0" encoding="utf-8"?>
<!-- Generator: Adobe Illustrator 16.0.4, SVG Export Plug-In . SVG Version: 6.00 Build 0)  -->
<!DOCTYPE svg PUBLIC "-//W3C//DTD SVG 1.1//EN" "http://www.w3.org/Graphics/SVG/1.1/DTD/svg11.dtd">
<svg version="1.1" id="Layer_1" xmlns="http://www.w3.org/2000/svg" xmlns:xlink="http://www.w3.org/1999/xlink" x="0px" y="0px"
	 width="512px" height="512px" viewBox="0 0 512 512" enable-background="new 0 0 512 512" xml:space="preserve">
<g>
	<path fill="#454646" d="M255.176,193.803c44.205,0,80.03-9.389,80.03-20.965c0-11.571-35.825-20.961-80.03-20.961
		c-44.189,0-80.023,9.391-80.023,20.961C175.152,184.414,210.986,193.803,255.176,193.803z"/>
	<path fill="#454646" d="M173.372,194.046v129.001c0,15.363,36.62,27.819,81.804,27.819c45.191,0,81.812-12.456,81.812-27.819
		V194.046C318.9,202.785,289.02,208.5,255.176,208.5C221.354,208.5,191.459,202.785,173.372,194.046z"/>
	<path fill="#454646" d="M427,66H85c-10.451,0-19,8.55-19,19v342c0,10.45,8.549,19,19,19h342c10.45,0,19-8.55,19-19V85
		C446,74.55,437.45,66,427,66z M355.179,334.505c0,18.781-44.761,33.998-100.003,33.998c-55.226,0-99.994-15.216-99.994-33.998
		V174.5c0-18.774,44.769-33.998,99.994-33.998c55.242,0,100.003,15.224,100.003,33.998V334.505z"/>
</g>
</svg>
