<?xml version="1.0" encoding="utf-8"?>
<!-- Generator: Adobe Illustrator 18.0.0, SVG Export Plug-In . SVG Version: 6.00 Build 0)  -->
<!DOCTYPE svg PUBLIC "-//W3C//DTD SVG 1.1//EN" "http://www.w3.org/Graphics/SVG/1.1/DTD/svg11.dtd">
<svg version="1.1" id="Ebene_1" xmlns="http://www.w3.org/2000/svg" xmlns:xlink="http://www.w3.org/1999/xlink" x="0px" y="0px"
	 width="512px" height="512px" viewBox="0 0 512 512" enable-background="new 0 0 512 512" xml:space="preserve">
<path id="XMLID_763_" fill="#454646" d="M256,47C140,47,46,141,46,257s94,210,210,210s210-94,210-210S372,47,256,47z M358.3,259.4
	l-64.1,31.4l-0.3,10.1l48.4-14.6l-24.5,28.2l-2.1,9.6l-29.3,12.2l-3.7,9.3l12-3.7l-34.6,37l-1,62.5h-5l-2.1-62.5l-34.6-37l12,3.7
	l-3.7-9.3L196.3,324l-2.1-9.6l-24.5-28.2l48.4,14.6l-0.3-10.1l-64.1-31.4l13.6-23.4l-29-39.6l81.9,38l1.9-12.2l-24.2-37.2l4.3-5.9
	l-11.7-43.4l43.4,42.3l3.2-25l-13-34.9l17.3,6.1L256,81.1l14.7,43.1l17.3-6.1L275,153l3.2,25l43.4-42.3L309.8,179l4.3,5.9
	l-24.2,37.2l1.9,12.2l81.9-38l-29,39.6L358.3,259.4z"/>
</svg>
