<?xml version="1.0" encoding="utf-8"?>
<!-- Generator: Adobe Illustrator 16.0.4, SVG Export Plug-In . SVG Version: 6.00 Build 0)  -->
<!DOCTYPE svg PUBLIC "-//W3C//DTD SVG 1.1//EN" "http://www.w3.org/Graphics/SVG/1.1/DTD/svg11.dtd">
<svg version="1.1" id="Layer_1" xmlns="http://www.w3.org/2000/svg" xmlns:xlink="http://www.w3.org/1999/xlink" x="0px" y="0px"
	 width="512px" height="512px" viewBox="0 0 512 512" enable-background="new 0 0 512 512" xml:space="preserve">
<g>
	<path fill="#454646" d="M449.379,323.43c-1.445-2.224-2.622-6.213-2.622-8.863v-221c0-2.65-2.169-4.821-4.819-4.821H70.059
		c-2.651,0-4.82,2.171-4.82,4.821v221c0,2.65-1.182,6.639-2.623,8.863l-44.992,69.377c-1.445,2.225-2.623,6.214-2.623,8.864v16.762
		c0,2.65,2.171,4.82,4.818,4.82h472.362c2.648,0,4.819-2.17,4.819-4.82v-16.762c0-2.65-1.176-6.639-2.623-8.864L449.379,323.43z
		 M197.133,384.062c-2.65,0-4.066-2.034-3.139-4.519l5.069-13.632c0.923-2.486,3.851-4.519,6.501-4.519h100.871
		c2.65,0,5.578,2.033,6.5,4.519l5.066,13.632c0.922,2.484-0.49,4.519-3.141,4.519H197.133z M417.512,299.17
		c0,2.65-2.168,4.82-4.819,4.82H99.34c-2.648,0-4.819-2.17-4.819-4.82V127.121c0-2.65,2.171-4.819,4.819-4.819h313.353
		c2.651,0,4.819,2.169,4.819,4.819V299.17z"/>
</g>
</svg>
