<?xml version="1.0" encoding="utf-8"?>
<!-- Generator: Adobe Illustrator 16.0.4, SVG Export Plug-In . SVG Version: 6.00 Build 0)  -->
<!DOCTYPE svg PUBLIC "-//W3C//DTD SVG 1.1//EN" "http://www.w3.org/Graphics/SVG/1.1/DTD/svg11.dtd">
<svg version="1.1" id="Layer_1" xmlns="http://www.w3.org/2000/svg" xmlns:xlink="http://www.w3.org/1999/xlink" x="0px" y="0px"
	 width="512px" height="512px" viewBox="0 0 512 512" enable-background="new 0 0 512 512" xml:space="preserve">
<g>
	<path fill="#454646" d="M52.401,352.303c-0.399-0.1-0.899-0.3-1.3-0.4c-1.2,0.601,5.801,5.001,6.1,5.101
		c5.201,2.601,10.102,2.901,15.703,2.701c-1.9,2.3-3.801,4.701-4.502,7.601c6.902-6,15.203-11.301,24.504-11.701
		C74.705,377.306,55.201,402.31,46,429.712c18.203-22.903,37.006-45.305,56.408-67.109c0.299,7.901-3.801,14.703-4.201,22.604
		c-0.1,3.101,3.301,18.202,9.102,15.302c-0.801,0.4-3.601-13.502-1.4-16.503c2.1,0.5,3.101,7.001,4.301,8.901
		c2.301,3.901,6.201,8.401,11.301,8.101c-3.699-3.6-9-11.001-7.801-16.602c1.801,0.6,3.6,7.601,4.001,7.401
		c0.899-0.4,2-3.301,2.101-4.301c12.002,6.001,0.299-3.5-0.6-6.5c-2.401-8.801-7.102-16.302-11.603-24.104
		c15.001-16.802,30.704-32.904,47.105-48.306c30.104-27.903,62.208-53.507,95.513-77.509
		c69.809-50.207,146.219-91.112,215.027-142.918c-8.301-2.701-25.904,12.902-32.104,17.002
		c-17.702,11.702-35.704,22.903-53.907,33.604c-29.703,17.503-59.707,34.405-88.711,53.107
		c-41.805,26.903-82.711,56.106-120.814,88.11c-17.803,14.903-35.005,30.604-51.207,47.307
		c-6.602,6.801-13.102,13.901-19.402,21.103c-3.601-1.901-27.004-21.804-26.904-21.904c-3.6,1.9,3.801,13.702,5.201,15.802
		c-4.9,5.801-15.301-7.601-18.102-6.3c-2.701,1.3,4.199,9.401,5.1,10.201c-1.199,0.3-7.801,2-7.5,4.001
		c5.1-0.401,11.9-0.401,16.502,2.2C67.402,356.303,58.902,355.103,52.401,352.303C52.002,352.103,57.402,354.403,52.401,352.303z
		 M106.809,357.704c0,3.1,2.2,6,2.2,9.201C106.809,362.904,103.209,361.704,106.809,357.704
		C106.809,357.804,106.107,358.604,106.809,357.704z M96.607,349.002c0.399-0.701,1.1-0.701,2-0.1
		C98.508,349.202,95.807,350.703,96.607,349.002C96.707,348.803,96.407,349.402,96.607,349.002z M90.506,351.603
		c2.001-0.6,3.901-0.6,5.901,0C93.807,354.603,90.206,351.702,90.506,351.603C93.107,350.303,90.307,351.702,90.506,351.603z"/>
	<g>
		<path fill="#454646" d="M441.551,112.873c-64.108,43.305-131.117,82.31-193.624,127.916
			c-29.804,21.802-58.708,44.905-85.911,69.909c-12.502,11.502-24.504,23.403-36.105,35.805c-2.899,3.2-5.9,6.301-8.801,9.501
			c1.7,4.2,3.601,8.4,7.001,11.401c4.401,3.9,11.901,10.802,17.503,4c-5.501-3.5-11.002-8.4-13.402-14.602
			c4.101,3.7,8.501,7.201,13.302,9.902c1.9,1.1,6.601,4,8.802,2.2c2.6-2-2.801-3.5-2.701-4.601c0-0.1,9.802-0.2,10.701-0.399
			c2.602-0.8,4.102-2.5,5-5.001c1.5-4.101,5.102-3.5,8.502-5.201c4.501-2.3,11.902-10.401,15.002-14.402
			c2.301-1.601,4.701-1.5,7.301-2.7c3.701-1.7,5.502-5.4,8.201-8.101c1.7-1.7,3.9-2.7,5.801-4.1c2.701-2,3.301-5.701,6.501-7.101
			c5.001-2.2,6.401-8.701,11.302-10.901c5.1-2.301,7.2-7.601,11.701-10.502c2.2-1.4,4.1-3.9,5.5-6
			c3.401-1.7,7.201-3.101,8.902-6.801c3.3-3.001,6.801-9.301,10.201-11.201c4.6-2.601,9.102-6.501,13.201-10.002
			c5.4-3.6,12.301-8.701,16.801-13.302c7.201-3.7,12.902-10,20.203-13.301c4.402-2,12.102-4.4,15.102-8.501
			c1.502-2.001,1.4-5,3.801-6.401c2.502-1.4,7.102-3.601,8.602-6c3.001-4.601,9.401-5.602,12.402-11.902
			c1.199-2.4,13.102-2.601,9.101-8.401c1.601,0.4,5.9,0.1,6.101-2.4c0.101-1.3-4.6-3.4-5.4-4.1c-3.2-2.801-5.701-6.401-7.602-10.202
			c5.501,4.7,14.202,11.801,22.004,8.401c1.699-0.801,3.199-2.201,3.6-4.001c0.5-2.5,1.4-1.3,3.801-2.5
			c4.7-2.3,10.802-8.202,9.602-14.002c4.4,1.101,8.4-3.201,9.801-6.901c1.801-4.801,11.302-4.5,15.602-9.101
			c1.201-1.301,2-2.801,2.4-4.5c2.102,0.6,4.501-0.601,6.201-1.6c3.801-2.301,4.5-5.201,7.901-6.901c3-1.5,6.501-4.9,5.899-8.601
			c3.902-1.2,3.701-3.101,6.702-4.801c2.8-1.5,9.401-9.601,9.8-12.602c2.701-1.1,9.201-11.501,8.002-13.701
			C465.754,96.07,443.352,111.672,441.551,112.873C413.247,131.975,452.752,105.271,441.551,112.873z"/>
	</g>
	<g>
		<path fill="#454646" d="M97.307,338.101c2.701,1.9,16.202-14.902,19.003-17.802c7.101-7.301,14.502-14.401,22.003-21.303
			c16.002-14.902,32.805-29.003,50.006-42.405c31.704-24.804,64.508-48.206,98.312-70.009c25.002-16.102,50.707-30.904,76.41-45.906
			c17.902-10.401,35.805-21.103,53.307-32.204c3.9-2.5,39.105-23.603,38.805-24.402c-1.301-3.001-9.002-1.5-10.902-0.601
			c-6,2.601-13.101,0.8-19.602,4.001c-4.9,2.4-9.801,7.201-14.902,6.9c-5.9-0.4-11.101,7.301-16.401,9.302
			c-3.2,1.199-5.901,3.399-8.302,5.8c-2.6,1.201-5.301,1.8-7.701,3.101c-5.799,3.2-12.102-0.4-18.201,3.9
			c-10.302,7.301-22.803,11.701-34.506,18.002c-5.201,2.8-10.299,1.5-14.801,6.4c-4.6,2.601-9.401,6.701-14.202,7.801
			c-6.2-0.4-9.901,3.101-13.501,7.801c-7.502,4.501-15.502,8.501-22.504,13.702c-4.5,3.401-10.601,7.501-15.802,9.501
			c-6.2,2.401-14.102,5.201-18.401,10.602c-5.002,6.401,2.1,21.803,5.7,28.204c-4.4-4-7.501-9.301-9.701-14.802
			c-1.2-2.901-1.601-10.102-6.001-10.102c-3.9,0-5.9,4.1-5.4,7.5c-7.402-3.3-11.602,7.902-17.402,11.001
			c-2.701,1.4-4.4,3.801-6.602,5.801c-4.6,1.399-8.801,4-11.602,8c-3.699,2-8.1,3.201-10.701,6.701
			c-2.699,1-8.201,5.301-10.201,7.601c-3.199,3.701-8.101,4.2-11.401,8.302c-2.999,3.8-3.7,6-7.7,8.7
			c-5.9,4.101-8.801,13.602-15.002,16.703c-4.102,2-7.401,6.1-7.901,10.701c-3.2,3.301-7.7,2.1-9.801,7.501
			c-1.501,3.9-1.8,3.5-4.901,6.601c-4,4-2.399,9.001-5.7,12.901c-3.8,4.4-4.301,10.002-1.2,15.001c1.1,1.701,2.4,3.201,3.9,4.601
			C92.206,334.401,95.307,336.901,97.307,338.101C97.707,338.401,94.707,336.501,97.307,338.101z"/>
	</g>
</g>
</svg>
