<?xml version="1.0" encoding="utf-8"?>
<!-- Generator: Adobe Illustrator 16.0.4, SVG Export Plug-In . SVG Version: 6.00 Build 0)  -->
<!DOCTYPE svg PUBLIC "-//W3C//DTD SVG 1.1//EN" "http://www.w3.org/Graphics/SVG/1.1/DTD/svg11.dtd">
<svg version="1.1" id="Layer_1" xmlns="http://www.w3.org/2000/svg" xmlns:xlink="http://www.w3.org/1999/xlink" x="0px" y="0px"
	 width="512px" height="512px" viewBox="0 0 512 512" enable-background="new 0 0 512 512" xml:space="preserve">
<g>
	<path fill="#454646" d="M256,66C151.1,66,66,151.1,66,256c0,104.899,85.1,190,190,190c104.9,0,190-85.101,190-190
		C446,151.1,360.9,66,256,66z M256,431.699c-97.1,0-175.8-78.699-175.8-175.8C80.2,158.8,158.9,80.2,256,80.2
		c97.1,0,175.8,78.699,175.8,175.8C431.8,353.1,353.1,431.699,256,431.699z"/>
	<path fill="#454646" d="M276.9,276.5L375.3,135.899l0,0l-139.9,99.3l0,0l-0.3,0.2l-98.4,140.7l0,0l0,0l0,0l57.9-41.1L276.9,276.5
		L276.9,276.5z M156.4,356.3l82.2-117.4l0.3-0.2l17.3,17.2l99.5-100.2l0,0l-82.2,117.4l-17.3-17.2L156.4,356.3L156.4,356.3z"/>
	<g>
		<path fill="#454646" d="M257.4,119h-2.8c-1.1,0-1.9-0.801-1.9-1.9V89.3c0-1.1,0.8-1.9,1.9-1.9h2.8c1.1,0,1.899,0.801,1.899,1.9
			v27.8C259.3,118.199,258.4,119,257.4,119z"/>
		<path fill="#454646" d="M207.2,127.899c-0.3,0-0.5-0.1-0.8-0.2c-0.5-0.199-0.8-0.6-1-1.1l-9.5-26.1c-0.4-1,0.1-2.101,1.1-2.4
			l2.6-0.9c0.5-0.199,1-0.199,1.5,0.101c0.5,0.2,0.8,0.6,1,1.1l9.5,26.101c0.4,1-0.1,2.1-1.1,2.399l-2.6,1
			C207.6,127.899,207.4,127.899,207.2,127.899z"/>
		<path fill="#454646" d="M119,235.1c-0.1,0-0.2,0-0.3,0l-27.3-4.8c-0.5-0.101-0.9-0.4-1.2-0.8c-0.3-0.4-0.4-0.9-0.3-1.4l0.5-2.7
			c0.2-1,1.2-1.7,2.2-1.5l27.3,4.8c1,0.2,1.7,1.2,1.5,2.2l-0.5,2.7c-0.1,0.5-0.4,0.9-0.8,1.2C119.8,235,119.4,235.1,119,235.1z"/>
		<path fill="#454646" d="M117.2,259.3H89.4c-1.1,0-1.9-0.8-1.9-1.9v-2.8c0-1.1,0.8-1.9,1.9-1.9h27.8c1.1,0,1.9,0.801,1.9,1.9v2.8
			C119.1,258.399,118.2,259.3,117.2,259.3z"/>
		<path fill="#454646" d="M92.2,288.199c-0.9,0-1.7-0.6-1.9-1.6l-0.5-2.7c-0.1-0.5,0-1,0.3-1.399c0.3-0.4,0.7-0.7,1.2-0.801
			l27.3-4.8c0.5-0.1,1,0,1.4,0.3c0.4,0.301,0.7,0.7,0.8,1.2l0.5,2.7c0.2,1-0.5,2-1.5,2.2l-27.3,4.8
			C92.4,288.199,92.3,288.199,92.2,288.199z"/>
		<path fill="#454646" d="M99.9,316.199c-0.8,0-1.5-0.5-1.8-1.3l-0.9-2.6c-0.2-0.5-0.2-1,0.1-1.5c0.3-0.5,0.6-0.8,1.1-1l26.1-9.5
			c0.5-0.2,1-0.2,1.5,0.1c0.5,0.2,0.8,0.601,1,1.101l0.9,2.6c0.4,1-0.2,2.1-1.1,2.4l-26.2,9.6
			C100.3,316.1,100.1,316.199,99.9,316.199z"/>
		<path fill="#454646" d="M112.4,342.399c-0.2,0-0.3,0-0.5-0.1c-0.5-0.101-0.9-0.4-1.2-0.9L109.3,339c-0.5-0.9-0.2-2.101,0.7-2.601
			l24-13.899c0.4-0.301,1-0.301,1.4-0.2c0.5,0.1,0.9,0.399,1.2,0.899l1.4,2.4c0.5,0.9,0.2,2.1-0.7,2.6l-24,13.9
			C113.1,342.3,112.7,342.399,112.4,342.399z"/>
		<path fill="#454646" d="M129.3,366.1c-0.1,0-0.1,0-0.2,0c-0.5,0-1-0.3-1.3-0.7l-1.8-2.1c-0.7-0.8-0.6-2,0.2-2.7l21.3-17.8
			c0.4-0.3,0.9-0.5,1.4-0.4c0.5,0,1,0.3,1.3,0.7l1.8,2.1c0.7,0.801,0.6,2-0.2,2.7l-21.3,17.8C130.1,365.899,129.7,366.1,129.3,366.1
			z"/>
		<path fill="#454646" d="M150,386.399c-0.4,0-0.9-0.1-1.2-0.399l-2.1-1.801c-0.4-0.3-0.6-0.8-0.7-1.3c0-0.5,0.1-1,0.4-1.399
			l17.8-21.301c0.7-0.8,1.9-0.899,2.7-0.199l2.1,1.8c0.4,0.3,0.6,0.8,0.7,1.3c0,0.5-0.1,1-0.4,1.4l-17.8,21.3
			C151,386.199,150.5,386.399,150,386.399z"/>
		<path fill="#454646" d="M173.9,402.899c-0.3,0-0.6-0.1-0.9-0.3l-2.4-1.4c-0.4-0.3-0.8-0.699-0.9-1.199c-0.1-0.5-0.1-1,0.2-1.4
			l13.9-24c0.5-0.9,1.7-1.2,2.6-0.7l2.4,1.4c0.4,0.3,0.8,0.7,0.9,1.2c0.1,0.5,0.1,1-0.2,1.399l-13.9,24
			C175.2,402.5,174.5,402.899,173.9,402.899z"/>
		<path fill="#454646" d="M200.3,414.899c-0.2,0-0.4,0-0.6-0.1l-2.6-1c-1-0.4-1.5-1.4-1.1-2.4l9.5-26.1c0.4-1,1.4-1.5,2.4-1.101
			l2.6,0.9c0.5,0.2,0.9,0.5,1.1,1c0.2,0.5,0.2,1,0.1,1.5l-9.5,26.1c-0.2,0.5-0.5,0.9-1,1.101
			C200.9,414.899,200.6,414.899,200.3,414.899z"/>
		<path fill="#454646" d="M228.4,422.199c-0.1,0-0.2,0-0.3,0l-2.7-0.5c-1-0.199-1.7-1.199-1.5-2.199l4.8-27.301
			c0.1-0.5,0.4-0.899,0.8-1.199c0.4-0.301,0.9-0.4,1.4-0.301l2.7,0.5c1,0.2,1.7,1.2,1.5,2.2l-4.8,27.3c-0.1,0.5-0.4,0.9-0.8,1.2
			C229.2,422.1,228.8,422.199,228.4,422.199z"/>
		<path fill="#454646" d="M257.4,424.5h-2.8c-1.1,0-1.9-0.801-1.9-1.9v-27.8c0-1.101,0.8-1.9,1.9-1.9h2.8c1.1,0,1.899,0.8,1.899,1.9
			v27.8C259.3,423.699,258.4,424.5,257.4,424.5z"/>
		<path fill="#454646" d="M283.6,422.199c-0.399,0-0.8-0.1-1.1-0.3c-0.4-0.3-0.7-0.7-0.8-1.2l-4.8-27.3c-0.2-1,0.5-2,1.5-2.2
			l2.699-0.5c0.5-0.1,1,0,1.4,0.301c0.4,0.3,0.7,0.699,0.8,1.199l4.8,27.301c0.2,1-0.5,2-1.5,2.199l-2.699,0.5
			C283.8,422.199,283.7,422.199,283.6,422.199z"/>
		<path fill="#454646" d="M311.7,414.899c-0.3,0-0.5-0.1-0.8-0.2c-0.5-0.199-0.801-0.6-1-1.1l-9.5-26.1c-0.2-0.5-0.2-1,0.1-1.5
			c0.2-0.5,0.6-0.801,1.1-1l2.601-0.9c1-0.4,2.1,0.2,2.399,1.1l9.5,26.101c0.4,1-0.1,2.1-1.1,2.399l-2.6,1
			C312.1,414.899,311.9,414.899,311.7,414.899z"/>
		<path fill="#454646" d="M362,386.399c-0.5,0-1.1-0.2-1.5-0.7l-17.8-21.3c-0.3-0.399-0.5-0.899-0.4-1.399c0-0.5,0.3-1,0.7-1.301
			l2.1-1.8c0.801-0.7,2-0.6,2.7,0.2l17.8,21.3c0.301,0.4,0.5,0.9,0.4,1.4c0,0.5-0.3,1-0.7,1.3l-2.1,1.8
			C362.9,386.3,362.5,386.399,362,386.399z"/>
		<path fill="#454646" d="M399.6,342.399c-0.3,0-0.699-0.1-0.899-0.3l-24-13.9c-0.9-0.5-1.2-1.699-0.7-2.6l1.4-2.4
			c0.3-0.399,0.699-0.8,1.199-0.899c0.5-0.101,1-0.101,1.4,0.2l24,13.899c0.9,0.5,1.2,1.7,0.7,2.601l-1.4,2.399
			c-0.3,0.4-0.7,0.8-1.2,0.9C399.9,342.399,399.8,342.399,399.6,342.399z"/>
		<path fill="#454646" d="M412.1,316.199c-0.199,0-0.399,0-0.6-0.1l-26.1-9.5c-0.5-0.2-0.9-0.5-1.101-1s-0.2-1-0.1-1.5l0.899-2.6
			c0.4-1,1.5-1.5,2.4-1.101l26.1,9.5c0.5,0.2,0.9,0.5,1.101,1s0.2,1,0.1,1.5l-1,2.601C413.6,315.699,412.9,316.199,412.1,316.199z"
			/>
		<path fill="#454646" d="M422.6,259.3h-27.8c-1.1,0-1.899-0.8-1.899-1.9v-2.8c0-1.1,0.8-1.9,1.899-1.9h27.8
			c1.101,0,1.9,0.801,1.9,1.9v2.8C424.5,258.399,423.7,259.3,422.6,259.3z"/>
		<path fill="#454646" d="M393,235.1c-0.4,0-0.8-0.1-1.1-0.3c-0.4-0.3-0.7-0.7-0.801-1.2l-0.5-2.7c-0.199-1,0.5-2,1.5-2.2
			l27.301-4.8c1-0.2,2,0.5,2.199,1.5l0.5,2.7c0.101,0.5,0,1-0.3,1.4c-0.3,0.399-0.7,0.699-1.2,0.8l-27.3,4.8
			C393.2,235.1,393.1,235.1,393,235.1z"/>
		<path fill="#454646" d="M363.3,169.699c-0.1,0-0.1,0-0.2,0c-0.5,0-1-0.3-1.3-0.699l-1.8-2.101c-0.7-0.8-0.6-2,0.2-2.7l21.3-17.8
			c0.4-0.3,0.9-0.5,1.4-0.399c0.5,0,1,0.3,1.3,0.699l1.8,2.101c0.7,0.8,0.6,2-0.2,2.7l-21.3,17.8
			C364.1,169.5,363.7,169.699,363.3,169.699z"/>
		<path fill="#454646" d="M346.3,152.399c-0.399,0-0.899-0.1-1.2-0.399l-2.1-1.801c-0.4-0.3-0.6-0.8-0.7-1.3
			c0-0.5,0.101-1,0.4-1.399l17.8-21.301c0.7-0.8,1.9-0.899,2.7-0.199l2.1,1.8c0.4,0.3,0.601,0.8,0.7,1.3c0,0.5-0.1,1-0.4,1.4
			l-17.8,21.3C347.4,152.199,346.9,152.399,346.3,152.399z"/>
		<path fill="#454646" d="M326.6,138.3c-0.3,0-0.6-0.101-0.899-0.3l-2.4-1.4c-0.399-0.3-0.8-0.7-0.899-1.2
			c-0.101-0.5-0.101-1,0.199-1.399l13.9-24c0.5-0.9,1.7-1.2,2.6-0.7l2.4,1.399c0.4,0.301,0.8,0.7,0.9,1.2c0.1,0.5,0.1,1-0.2,1.4
			l-13.9,24C327.9,138,327.3,138.3,326.6,138.3z"/>
		<path fill="#454646" d="M304.8,127.899c-0.2,0-0.399,0-0.6-0.1l-2.601-1c-1-0.4-1.5-1.4-1.1-2.4l9.5-26.1c0.2-0.5,0.5-0.9,1-1.101
			c0.5-0.199,1-0.199,1.5-0.1l2.6,0.9c1,0.399,1.5,1.399,1.101,2.399l-9.5,26.101c-0.2,0.5-0.5,0.899-1,1.1
			C305.3,127.8,305.1,127.899,304.8,127.899z"/>
		<path fill="#454646" d="M281.5,121.399c-0.1,0-0.2,0-0.3,0l-2.7-0.5c-1-0.2-1.7-1.2-1.5-2.2l4.8-27.3c0.2-1,1.2-1.699,2.2-1.5
			l2.7,0.5c0.5,0.101,0.899,0.4,1.2,0.801c0.3,0.399,0.399,0.899,0.3,1.399l-4.8,27.3c-0.101,0.5-0.4,0.9-0.801,1.2
			C282.2,121.3,281.9,121.399,281.5,121.399z"/>
		<path fill="#454646" d="M241.3,105.899c-1,0-1.8-0.7-1.9-1.7l-1.2-13.8c0-0.5,0.1-1,0.4-1.399c0.3-0.4,0.8-0.601,1.3-0.7l2.8-0.2
			c1-0.1,2,0.7,2.1,1.7l1.2,13.8c0,0.5-0.1,1-0.4,1.4c-0.3,0.399-0.8,0.6-1.3,0.699l-2.8,0.2
			C241.4,105.899,241.4,105.899,241.3,105.899z"/>
		<path fill="#454646" d="M230.5,121.399c-0.4,0-0.8-0.1-1.1-0.3c-0.4-0.3-0.7-0.7-0.8-1.2l-4.8-27.3c-0.2-1,0.5-2,1.5-2.2l2.7-0.5
			c0.5-0.1,1,0,1.4,0.301c0.4,0.3,0.7,0.699,0.8,1.199l4.8,27.3c0.2,1-0.5,2-1.5,2.2l-2.7,0.5
			C230.7,121.399,230.6,121.399,230.5,121.399z"/>
		<path fill="#454646" d="M215.1,110.699c-0.8,0-1.6-0.6-1.8-1.399l-3.6-13.4c-0.3-1,0.3-2.1,1.3-2.3l2.7-0.7c0.5-0.1,1-0.1,1.4,0.2
			s0.8,0.7,0.9,1.2l3.6,13.399c0.1,0.5,0.1,1-0.2,1.4c-0.3,0.4-0.7,0.8-1.2,0.9l-2.7,0.699
			C215.5,110.699,215.3,110.699,215.1,110.699z"/>
		<path fill="#454646" d="M190.2,120.1c-0.7,0-1.4-0.4-1.7-1.1l-5.9-12.601c-0.2-0.5-0.2-1-0.1-1.5c0.2-0.5,0.5-0.899,1-1.1l2.5-1.2
			c1-0.4,2.1,0,2.5,0.9l5.9,12.6c0.2,0.5,0.2,1,0.1,1.5c-0.2,0.5-0.5,0.9-1,1.1l-2.5,1.2C190.7,120,190.5,120.1,190.2,120.1z"/>
		<path fill="#454646" d="M185.4,138.3c-0.7,0-1.3-0.3-1.6-0.9l-13.9-24c-0.5-0.899-0.2-2.1,0.7-2.6l2.4-1.4
			c0.9-0.5,2.1-0.2,2.6,0.7l13.9,24c0.3,0.4,0.3,1,0.2,1.4c-0.1,0.5-0.4,0.899-0.9,1.199l-2.4,1.4
			C186,138.3,185.7,138.3,185.4,138.3z"/>
		<path fill="#454646" d="M167.3,133.6c-0.6,0-1.2-0.3-1.6-0.8l-8-11.4c-0.3-0.399-0.4-0.899-0.3-1.399s0.4-0.9,0.8-1.2l2.3-1.601
			c0.9-0.6,2-0.399,2.6,0.5l8,11.4c0.3,0.4,0.4,0.9,0.3,1.4s-0.4,0.899-0.8,1.199l-2.3,1.601C168,133.5,167.6,133.6,167.3,133.6z"/>
		<path fill="#454646" d="M165.7,152.399c-0.5,0-1.1-0.2-1.5-0.7l-17.8-21.3C146.1,130,145.9,129.5,146,129c0-0.5,0.3-1,0.7-1.301
			l2.1-1.8c0.8-0.7,2-0.6,2.7,0.2l17.8,21.3c0.3,0.4,0.5,0.9,0.4,1.4c0,0.5-0.3,1-0.7,1.3l-2.1,1.8
			C166.5,152.3,166.1,152.399,165.7,152.399z"/>
		<path fill="#454646" d="M147,150.899c-0.5,0-1-0.2-1.3-0.6l-9.8-9.8c-0.7-0.7-0.7-1.9,0-2.7l2-2c0.7-0.7,1.9-0.7,2.7,0l9.8,9.8
			c0.7,0.7,0.7,1.9,0,2.7l-2,2C148,150.699,147.5,150.899,147,150.899z"/>
		<path fill="#454646" d="M148.7,169.699c-0.4,0-0.9-0.199-1.2-0.399l-21.3-17.8c-0.8-0.7-0.9-1.9-0.2-2.7l1.8-2.101
			c0.3-0.399,0.8-0.6,1.3-0.699c0.5-0.101,1,0.1,1.4,0.399l21.3,17.8c0.8,0.7,0.9,1.9,0.2,2.7L150.2,169
			c-0.3,0.399-0.8,0.6-1.3,0.699C148.9,169.699,148.8,169.699,148.7,169.699z"/>
		<path fill="#454646" d="M130.1,171.399c-0.4,0-0.8-0.1-1.1-0.3l-11.4-8c-0.9-0.6-1.1-1.8-0.5-2.6l1.6-2.301
			c0.3-0.399,0.7-0.699,1.2-0.8c0.5-0.1,1,0,1.4,0.3l11.4,8c0.9,0.601,1.1,1.801,0.5,2.601l-1.6,2.3c-0.3,0.4-0.7,0.7-1.2,0.8
			C130.3,171.399,130.2,171.399,130.1,171.399z"/>
		<path fill="#454646" d="M135.1,189.699c-0.3,0-0.7-0.1-1-0.3l-24-13.899c-0.9-0.5-1.2-1.7-0.7-2.601l1.4-2.399
			c0.3-0.4,0.7-0.801,1.2-0.9s1-0.1,1.4,0.2l24,13.899c0.9,0.5,1.2,1.7,0.7,2.601l-1.4,2.399c-0.3,0.4-0.7,0.801-1.2,0.9
			C135.4,189.6,135.2,189.699,135.1,189.699z"/>
		<path fill="#454646" d="M117,194.6c-0.3,0-0.5-0.1-0.8-0.2l-12.6-5.899c-0.5-0.2-0.8-0.601-1-1.101c-0.2-0.5-0.2-1,0.1-1.5
			l1.2-2.5c0.4-1,1.6-1.399,2.5-0.899l12.6,5.899c1,0.4,1.4,1.601,0.9,2.5l-1.2,2.5c-0.2,0.5-0.6,0.8-1.1,1
			C117.4,194.6,117.2,194.6,117,194.6z"/>
		<path fill="#454646" d="M125.1,211.699c-0.2,0-0.4,0-0.6-0.1l-26.2-9.5c-0.5-0.2-0.9-0.5-1.1-1c-0.2-0.5-0.2-1-0.1-1.5L98,197
			c0.4-1,1.4-1.5,2.4-1.101l26.1,9.5c1,0.4,1.5,1.4,1.1,2.4l-0.9,2.6c-0.2,0.5-0.5,0.9-1,1.101
			C125.6,211.6,125.3,211.699,125.1,211.699z"/>
		<path fill="#454646" d="M108.1,219.699c-0.2,0-0.3,0-0.5-0.1L94.2,216c-0.5-0.101-0.9-0.4-1.2-0.9c-0.3-0.4-0.3-1-0.2-1.4
			L93.5,211c0.3-1,1.3-1.601,2.3-1.301l13.4,3.601c1,0.3,1.6,1.3,1.3,2.3l-0.7,2.7c-0.1,0.5-0.4,0.899-0.9,1.2
			C108.8,219.6,108.4,219.699,108.1,219.699z"/>
		<path fill="#454646" d="M103.7,246c-0.1,0-0.1,0-0.2,0l-13.8-1.2c-1-0.101-1.8-1-1.7-2.101l0.2-2.8c0-0.5,0.3-1,0.7-1.3
			s0.9-0.5,1.4-0.4l13.8,1.2c0.5,0,1,0.3,1.3,0.7c0.3,0.4,0.5,0.9,0.4,1.4l-0.2,2.8C105.5,245.199,104.7,246,103.7,246z"/>
		<path fill="#454646" d="M90.1,273.8c-0.4,0-0.9-0.2-1.2-0.4c-0.4-0.3-0.6-0.8-0.7-1.3l-0.2-2.8c-0.1-1,0.7-2,1.7-2.101L103.5,266
			c1-0.101,2,0.699,2.1,1.699l0.2,2.801c0,0.5-0.1,1-0.4,1.399c-0.3,0.4-0.8,0.601-1.3,0.7l-13.8,1.2
			C90.2,273.8,90.2,273.8,90.1,273.8z"/>
		<path fill="#454646" d="M95.4,302.399c-0.8,0-1.6-0.6-1.8-1.399l-0.7-2.7c-0.1-0.5-0.1-1,0.2-1.4c0.3-0.399,0.7-0.8,1.2-0.899
			l13.4-3.601c0.5-0.1,1-0.1,1.4,0.2s0.8,0.7,0.9,1.2l0.7,2.7c0.3,1-0.3,2.1-1.3,2.3l-13.4,3.6
			C95.7,302.3,95.6,302.399,95.4,302.399z"/>
		<path fill="#454646" d="M105.6,329.6c-0.7,0-1.4-0.4-1.7-1.1l-1.2-2.5c-0.2-0.5-0.2-1-0.1-1.5c0.2-0.5,0.5-0.9,1-1.101l12.6-5.899
			c0.5-0.2,1-0.2,1.5-0.101c0.5,0.2,0.9,0.5,1.1,1l1.2,2.5c0.4,1,0,2.101-0.9,2.5l-12.6,5.9C106.1,329.5,105.8,329.6,105.6,329.6z"
			/>
		<path fill="#454646" d="M120.3,354.6c-0.1,0-0.2,0-0.3,0c-0.5-0.1-0.9-0.4-1.2-0.8l-1.6-2.3c-0.6-0.9-0.4-2,0.5-2.601l11.4-8
			c0.4-0.3,0.9-0.399,1.4-0.3s0.9,0.4,1.2,0.8l1.6,2.3c0.6,0.9,0.4,2-0.5,2.601l-11.4,8C121.1,354.5,120.7,354.6,120.3,354.6z"/>
		<path fill="#454646" d="M139.2,376.699L139.2,376.699c-0.5,0-1-0.199-1.3-0.6l-2-2c-0.7-0.7-0.7-1.9,0-2.7l9.8-9.8
			c0.7-0.7,1.9-0.7,2.7,0l2,2c0.7,0.7,0.7,1.9,0,2.7l-9.8,9.8C140.2,376.5,139.7,376.699,139.2,376.699z"/>
		<path fill="#454646" d="M161.6,395.199c-0.4,0-0.8-0.1-1.1-0.3l-2.3-1.6c-0.4-0.3-0.7-0.7-0.8-1.2s0-1,0.3-1.4l8-11.399
			c0.6-0.9,1.8-1.101,2.6-0.5l2.3,1.6c0.4,0.3,0.7,0.7,0.8,1.2s0,1-0.3,1.4l-8,11.399C162.8,394.899,162.2,395.199,161.6,395.199z"
			/>
		<path fill="#454646" d="M186.8,409.5c-0.3,0-0.5-0.101-0.8-0.2l-2.5-1.2c-0.9-0.4-1.4-1.6-0.9-2.5l5.9-12.6
			c0.2-0.5,0.6-0.801,1.1-1c0.5-0.2,1-0.2,1.5,0.1l2.5,1.2c0.9,0.399,1.4,1.6,0.9,2.5l-5.9,12.6c-0.2,0.5-0.6,0.8-1.1,1
			C187.3,409.399,187.1,409.5,186.8,409.5z"/>
		<path fill="#454646" d="M214.2,419.199c-0.2,0-0.3,0-0.5-0.1l-2.7-0.7c-1-0.3-1.6-1.3-1.3-2.3l3.6-13.4c0.3-1,1.3-1.6,2.3-1.3
			l2.7,0.7c0.5,0.1,0.9,0.4,1.2,0.9s0.3,1,0.2,1.399l-3.6,13.4c-0.1,0.5-0.4,0.899-0.9,1.2C214.9,419.1,214.5,419.199,214.2,419.199
			z"/>
		<path fill="#454646" d="M242.9,424c-0.1,0-0.1,0-0.2,0l-2.8-0.2c-0.5,0-1-0.3-1.3-0.7c-0.3-0.4-0.5-0.9-0.4-1.4l1.2-13.8
			c0-0.5,0.3-1,0.7-1.3s0.9-0.5,1.4-0.4l2.8,0.2c1,0.101,1.8,1,1.7,2.101l-1.2,13.8C244.7,423.199,243.8,424,242.9,424z"/>
		<path fill="#454646" d="M269.1,424c-1,0-1.8-0.7-1.899-1.7l-1.2-13.8c-0.1-1,0.7-2,1.7-2.101l2.8-0.2c0.5,0,1,0.101,1.4,0.4
			c0.399,0.3,0.6,0.8,0.699,1.3l1.2,13.8c0,0.5-0.1,1-0.399,1.4c-0.301,0.4-0.801,0.6-1.301,0.7l-2.8,0.2
			C269.2,424,269.2,424,269.1,424z"/>
		<path fill="#454646" d="M297.8,419.199c-0.3,0-0.7-0.1-0.899-0.3c-0.4-0.3-0.801-0.7-0.9-1.2l-3.6-13.399
			c-0.101-0.5-0.101-1,0.199-1.4c0.301-0.399,0.7-0.8,1.2-0.899l2.7-0.7c1-0.3,2.1,0.3,2.3,1.3L302.4,416c0.3,1-0.301,2.1-1.301,2.3
			L298.4,419C298.1,419.199,297.9,419.199,297.8,419.199z"/>
		<path fill="#454646" d="M325.2,409.5c-0.2,0-0.4,0-0.601-0.101c-0.5-0.2-0.899-0.5-1.1-1l-5.9-12.6c-0.399-1,0-2.101,0.9-2.5
			l2.5-1.2c0.5-0.2,1-0.2,1.5-0.1c0.5,0.199,0.9,0.5,1.1,1l5.9,12.6c0.4,1,0,2.1-0.9,2.5l-2.5,1.2
			C325.7,409.399,325.4,409.5,325.2,409.5z"/>
		<path fill="#454646" d="M338.1,402.899c-0.699,0-1.3-0.3-1.6-1l-13.9-24c-0.3-0.399-0.3-1-0.199-1.399
			c0.1-0.4,0.399-0.9,0.899-1.2l2.4-1.4c0.899-0.5,2.1-0.2,2.6,0.7l13.9,24c0.5,0.9,0.2,2.1-0.7,2.6l-2.4,1.4
			C338.8,402.8,338.4,402.899,338.1,402.899z"/>
		<path fill="#454646" d="M350.4,395.199c-0.601,0-1.2-0.3-1.601-0.8l-8-11.399c-0.3-0.4-0.399-0.9-0.3-1.4s0.4-0.9,0.8-1.2l2.3-1.6
			c0.9-0.601,2-0.4,2.601,0.5l8,11.399c0.3,0.4,0.399,0.9,0.3,1.4s-0.4,0.9-0.8,1.2l-2.3,1.6
			C351.2,395.1,350.8,395.199,350.4,395.199z"/>
		<path fill="#454646" d="M372.8,376.699c-0.5,0-1-0.199-1.3-0.6l-9.8-9.8c-0.7-0.7-0.7-1.9,0-2.7l2-2c0.7-0.7,1.899-0.7,2.7,0
			l9.8,9.8c0.7,0.7,0.7,1.9,0,2.7l-2,2C373.8,376.5,373.3,376.699,372.8,376.699z"/>
		<path fill="#454646" d="M382.7,366.1c-0.4,0-0.9-0.2-1.2-0.4l-21.3-17.8c-0.8-0.7-0.9-1.899-0.2-2.7l1.8-2.1
			c0.3-0.4,0.8-0.6,1.3-0.7c0.5-0.1,1,0.101,1.4,0.4l21.3,17.8c0.8,0.7,0.9,1.9,0.2,2.7l-1.8,2.1c-0.3,0.4-0.8,0.601-1.3,0.7
			C382.9,366.1,382.8,366.1,382.7,366.1z"/>
		<path fill="#454646" d="M391.7,354.6c-0.4,0-0.8-0.1-1.101-0.3l-11.399-8c-0.9-0.601-1.101-1.8-0.5-2.601l1.6-2.3
			c0.3-0.399,0.7-0.7,1.2-0.8s1,0,1.4,0.3l11.399,8c0.9,0.601,1.101,1.8,0.5,2.601l-1.6,2.3c-0.3,0.399-0.7,0.7-1.2,0.8
			C391.9,354.6,391.8,354.6,391.7,354.6z"/>
		<path fill="#454646" d="M406.4,329.6c-0.301,0-0.5-0.1-0.801-0.2L393,323.5c-0.9-0.4-1.4-1.601-0.9-2.5l1.2-2.5
			c0.2-0.5,0.601-0.801,1.101-1c0.5-0.2,1-0.2,1.5,0.1l12.6,5.9c0.5,0.199,0.8,0.6,1,1.1s0.2,1-0.1,1.5l-1.2,2.5
			C407.8,329.199,407.1,329.6,406.4,329.6z"/>
		<path fill="#454646" d="M416.6,302.399c-0.199,0-0.3,0-0.5-0.1l-13.399-3.601c-1-0.3-1.601-1.3-1.3-2.3l0.699-2.7
			c0.101-0.5,0.4-0.899,0.9-1.199c0.4-0.301,1-0.301,1.4-0.2l13.399,3.6c0.5,0.101,0.9,0.4,1.2,0.9s0.3,1,0.2,1.399l-0.7,2.7
			C418.2,301.8,417.4,302.399,416.6,302.399z"/>
		<path fill="#454646" d="M419.8,288.199c-0.1,0-0.2,0-0.3,0l-27.3-4.8c-1-0.2-1.7-1.2-1.5-2.2l0.5-2.699c0.1-0.5,0.399-0.9,0.8-1.2
			s0.9-0.4,1.4-0.3l27.3,4.8c1,0.2,1.7,1.2,1.5,2.2l-0.5,2.699c-0.101,0.5-0.4,0.9-0.8,1.2C420.6,288.1,420.2,288.199,419.8,288.199
			z"/>
		<path fill="#454646" d="M421.9,273.8c-0.101,0-0.101,0-0.2,0l-13.8-1.2c-1-0.1-1.801-1-1.7-2.1l0.2-2.801c0-0.5,0.3-1,0.699-1.3
			c0.4-0.3,0.9-0.5,1.4-0.399l13.8,1.199c1,0.101,1.8,1,1.7,2.101l-0.2,2.8c0,0.5-0.3,1-0.7,1.3
			C422.7,273.6,422.3,273.8,421.9,273.8z"/>
		<path fill="#454646" d="M408.3,246c-0.399,0-0.899-0.2-1.2-0.4c-0.399-0.3-0.6-0.8-0.699-1.3l-0.2-2.8c-0.101-1,0.7-2,1.7-2.101
			l13.8-1.2c0.5-0.1,1,0.101,1.399,0.4c0.4,0.3,0.601,0.8,0.7,1.3l0.2,2.8c0.1,1-0.7,2-1.7,2.101l-13.8,1.2
			C408.4,246,408.3,246,408.3,246z"/>
		<path fill="#454646" d="M403.9,219.699c-0.301,0-0.7-0.1-0.9-0.3c-0.4-0.3-0.8-0.7-0.9-1.2L401.4,215.5
			c-0.301-1,0.3-2.101,1.3-2.301l13.399-3.6c1-0.3,2.101,0.3,2.301,1.3l0.699,2.7c0.101,0.5,0.101,1-0.199,1.4
			c-0.301,0.399-0.7,0.8-1.2,0.899l-13.4,3.601C404.2,219.699,404.1,219.699,403.9,219.699z"/>
		<path fill="#454646" d="M386.9,211.699c-0.801,0-1.5-0.5-1.801-1.3l-0.899-2.6c-0.2-0.5-0.2-1,0.1-1.5c0.2-0.5,0.601-0.8,1.101-1
			l26.1-9.5c1-0.4,2.1,0.2,2.4,1.1l1,2.601c0.199,0.5,0.199,1-0.101,1.5c-0.2,0.5-0.6,0.8-1.1,1l-26.101,9.5
			C387.4,211.699,387.2,211.699,386.9,211.699z"/>
		<path fill="#454646" d="M395,194.6c-0.2,0-0.4,0-0.6-0.1c-0.5-0.2-0.9-0.5-1.101-1l-1.2-2.5c-0.399-1,0-2.101,0.9-2.5l12.6-5.9
			c0.9-0.4,2.101,0,2.5,0.9l1.2,2.5c0.2,0.5,0.2,1,0.101,1.5c-0.2,0.5-0.5,0.899-1,1.1l-12.601,5.9
			C395.6,194.5,395.3,194.6,395,194.6z"/>
		<path fill="#454646" d="M376.9,189.699c-0.2,0-0.301,0-0.5-0.1c-0.5-0.1-0.9-0.4-1.2-0.9l-1.4-2.399c-0.5-0.9-0.2-2.101,0.7-2.601
			l24-13.899c0.4-0.3,1-0.3,1.4-0.2c0.5,0.1,0.899,0.4,1.199,0.9l1.4,2.399c0.5,0.9,0.2,2.101-0.7,2.601l-24,13.899
			C377.6,189.6,377.3,189.699,376.9,189.699z"/>
		<path fill="#454646" d="M381.9,171.399c-0.101,0-0.2,0-0.301,0c-0.5-0.1-0.899-0.399-1.199-0.8l-1.601-2.3
			c-0.6-0.9-0.399-2,0.5-2.601l11.4-8c0.399-0.3,0.899-0.399,1.399-0.3c0.5,0.101,0.9,0.4,1.2,0.8l1.601,2.301
			c0.6,0.899,0.399,2-0.5,2.6l-11.4,8C382.7,171.3,382.3,171.399,381.9,171.399z"/>
		<path fill="#454646" d="M365,150.899c-0.5,0-1-0.2-1.3-0.6l-2-2c-0.7-0.7-0.7-1.9,0-2.7l9.8-9.8c0.7-0.7,1.9-0.7,2.7,0l2,2
			c0.7,0.7,0.7,1.899,0,2.7l-9.8,9.8C366,150.699,365.5,150.899,365,150.899z"/>
		<path fill="#454646" d="M344.7,133.6c-0.4,0-0.8-0.1-1.101-0.3l-2.3-1.601c-0.399-0.3-0.7-0.699-0.8-1.199s0-1,0.3-1.4l8-11.4
			c0.601-0.899,1.8-1.1,2.601-0.5l2.3,1.601c0.399,0.3,0.7,0.7,0.8,1.2s0,1-0.3,1.399l-8,11.4C345.9,133.3,345.3,133.6,344.7,133.6z
			"/>
		<path fill="#454646" d="M321.8,120.1c-0.3,0-0.5-0.1-0.8-0.2l-2.5-1.2c-0.5-0.199-0.8-0.6-1-1.1s-0.2-1,0.1-1.5l5.9-12.6
			c0.4-0.9,1.6-1.4,2.5-0.9l2.5,1.2c0.5,0.2,0.8,0.6,1,1.1s0.2,1-0.1,1.5L323.5,119C323.2,119.6,322.5,120.1,321.8,120.1z"/>
		<path fill="#454646" d="M296.9,110.699c-0.2,0-0.301,0-0.5-0.1l-2.7-0.7c-0.5-0.1-0.9-0.399-1.2-0.899s-0.3-1-0.2-1.4l3.601-13.4
			C296,93.699,296.3,93.3,296.8,93c0.4-0.301,1-0.301,1.4-0.2l2.7,0.7c1,0.3,1.6,1.3,1.3,2.3l-3.601,13.399
			C298.5,110.199,297.7,110.699,296.9,110.699z"/>
		<path fill="#454646" d="M270.4,105.899c-0.101,0-0.101,0-0.2,0l-2.8-0.2c-0.5,0-1-0.3-1.301-0.699c-0.3-0.4-0.5-0.9-0.399-1.4
			l1.2-13.8c0.1-1,1-1.8,2.1-1.7l2.8,0.2c0.5,0,1,0.3,1.3,0.7c0.301,0.399,0.5,0.899,0.4,1.399l-1.2,13.8
			C272.2,105.1,271.4,105.899,270.4,105.899z"/>
	</g>
</g>
</svg>
