<?xml version="1.0" encoding="utf-8"?>
<!-- Generator: Adobe Illustrator 19.2.1, SVG Export Plug-In . SVG Version: 6.00 Build 0)  -->
<svg version="1.1" id="Work_area" xmlns="http://www.w3.org/2000/svg" xmlns:xlink="http://www.w3.org/1999/xlink" x="0px" y="0px"
	 width="512px" height="512px" viewBox="0 0 512 512" enable-background="new 0 0 512 512" xml:space="preserve">
<path fill="#454646" d="M192,108v24l31.9,0V232v132c0,19.9,16.1,36,36,36h72v-24h-72c-6.6,0-12-5.4-12-12v-98
	c3.8,1.3,7.8,2.1,12,2.1h72v-24h-72c-6.6,0-12-5.4-12-12V132l84.1,0h0v-24L192,108z"/>
<path fill="#454646" d="M157.6,184H66.4c-10.1,0-18.4-8.3-18.4-18.4V74.4C48,64.3,56.3,56,66.4,56h91.2c10.1,0,18.4,8.3,18.4,18.4
	v91.2C176,175.7,167.7,184,157.6,184z"/>
<path fill="#454646" d="M406,96c14.3,0,26,11.7,26,26s-11.7,26-26,26s-26-11.7-26-26S391.7,96,406,96 M406,64c-32,0-58,26-58,58
	c0,32,26,58,58,58s58-26,58-58C464,90,438,64,406,64L406,64z"/>
<path fill="#454646" d="M406,364c14.3,0,26,11.7,26,26s-11.7,26-26,26s-26-11.7-26-26S391.7,364,406,364 M406,332c-32,0-58,26-58,58
	s26,58,58,58s58-26,58-58S438,332,406,332L406,332z"/>
<path fill="#454646" d="M406,230c14.3,0,26,11.7,26,26s-11.7,26-26,26s-26-11.7-26-26S391.7,230,406,230 M406,198c-32,0-58,26-58,58
	s26,58,58,58s58-26,58-58S438,198,406,198L406,198z"/>
</svg>
