<?xml version="1.0" encoding="utf-8"?>
<!-- Generator: Adobe Illustrator 16.0.4, SVG Export Plug-In . SVG Version: 6.00 Build 0)  -->
<!DOCTYPE svg PUBLIC "-//W3C//DTD SVG 1.1//EN" "http://www.w3.org/Graphics/SVG/1.1/DTD/svg11.dtd">
<svg version="1.1" id="Layer_1" xmlns="http://www.w3.org/2000/svg" xmlns:xlink="http://www.w3.org/1999/xlink" x="0px" y="0px"
	 width="512px" height="512px" viewBox="0 0 512 512" enable-background="new 0 0 512 512" xml:space="preserve">
<g>
	<g>
		<path fill="#454646" d="M413.227,143.812c-21.055,0.916-45.534,6.303-65.96,14.17c-29.36,11.32-56.13,38.842-64.066,46.867
			l-30.242,30.564l-0.058-0.062l-15.128,15.736c-22.412,23.318-65.622,41.936-96.8,44.086C107.824,297.467,46,297.695,46,297.695
			v19.363v52.34c0,0,21.499,0.129,51.263-1.211c20.457-0.916,44.239-6.303,64.08-14.17c28.523-11.32,54.527-38.842,62.241-46.867
			l29.374-30.564l0.048,0.053l21.222-22.08c22.408-23.318,65.622-41.93,96.8-44.086c33.147-2.287,94.972-2.525,94.972-2.525v-13.006
			v-52.34C466,142.602,443.865,142.477,413.227,143.812z"/>
	</g>
	<g>
		<path fill="#454646" d="M194.982,262.211c23.293-9.072,40.735-24.281,50.825-34.242l-22.224-23.119
			c-7.714-8.025-33.718-35.547-62.241-46.867c-19.841-7.867-43.624-13.254-64.08-14.17C67.499,142.477,46,142.602,46,142.602v52.34
			v72.484c28.803,2.318,59.9,4.369,88.307,4.547C138.374,272,167.201,273.021,194.982,262.211z"/>
	</g>
	<g>
		<path fill="#454646" d="M317.018,243.439c-28.998,11.293-48.935,32.08-56.875,40.406L283.2,307.15
			c7.937,8.025,34.706,35.547,64.066,46.867c20.426,7.867,44.905,13.254,65.96,14.17c30.639,1.34,52.773,1.211,52.773,1.211v-52.34
			v-80.326c-30.256-1.75-59.896-2.881-88.307-3.059C373.626,233.643,344.795,232.625,317.018,243.439z"/>
	</g>
</g>
</svg>
