<?xml version="1.0" encoding="utf-8"?>
<!-- Generator: Adobe Illustrator 16.0.4, SVG Export Plug-In . SVG Version: 6.00 Build 0)  -->
<!DOCTYPE svg PUBLIC "-//W3C//DTD SVG 1.1//EN" "http://www.w3.org/Graphics/SVG/1.1/DTD/svg11.dtd">
<svg version="1.1" id="Layer_1" xmlns="http://www.w3.org/2000/svg" xmlns:xlink="http://www.w3.org/1999/xlink" x="0px" y="0px"
	 width="512px" height="512px" viewBox="0 0 512 512" enable-background="new 0 0 512 512" xml:space="preserve">
<path fill="#454646" d="M445.583,251.194c-2.542-97.573-80.791-178.516-177.91-184.326c-7.401-1.138-15.24-1.134-21.959-0.124
	C144.935,72.049,65.992,155.287,65.992,256.241C65.992,360.874,151.155,446,255.835,446c102.589,0,187.631-83.31,189.753-185.796
	c0.28-1.443,0.42-2.905,0.42-4.456C446.008,254.176,445.864,252.646,445.583,251.194z M271.545,281.161V230.33
	c25.918,0.46,49.648,2.157,72.305,5.179c0.435,6.981,0.478,14.04,0.478,20.24v0.835c0,6.699,0,13.078-0.385,19.386
	C321.328,278.995,297.564,280.693,271.545,281.161z M371.844,271.271c0.229-4.822,0.338-9.946,0.338-15.523
	c0-5.134-0.128-10.327-0.379-15.512c0.755,0.159,1.505,0.311,2.251,0.47c29.184,6.208,39.781,12.789,43.09,15.461
	c-3.439,2.585-15.158,8.682-42.929,14.611C373.439,270.948,372.648,271.11,371.844,271.271z M383.596,214.062
	c-4.566-1.037-9.368-2.008-14.603-2.956c-4.69-32.553-14.552-62.464-28.588-86.659c-1.874-3.247-3.829-6.389-5.855-9.418
	c40.548,22.749,70.022,62.528,79.599,108.059C405.757,219.761,395.673,216.784,383.596,214.062z M340.361,304.694
	c-4.571,26.006-12.667,49.512-23.541,68.27c-12.152,20.951-28.765,36.282-45.275,42.049V309.219
	C296.104,308.809,318.214,307.355,340.361,304.694z M333.467,398.036c2.402-3.501,4.718-7.173,6.934-10.997
	c14.045-24.223,23.906-54.135,28.592-86.671c5.039-0.915,9.935-1.907,14.599-2.952c12.181-2.75,22.343-5.754,30.81-9.123
	C404.955,334.778,374.97,375.198,333.467,398.036z M271.545,202.255V96.47c16.358,5.744,32.884,21.067,45.048,42.051
	c11.249,19.368,19.502,42.863,24.001,68.253C318.474,204.121,296.292,202.667,271.545,202.255z M173.943,206.764
	c4.435-24.67,12.855-48.162,24.489-68.245c14.558-25.105,28.839-38.154,46.999-42.638v106.354
	C214.413,202.626,194.794,204.206,173.943,206.764z M245.432,230.301v50.875c-33.017-0.466-54.359-2.414-75.067-5.214
	c-0.227-2.013-0.499-4.035-0.773-6.062c-0.627-4.666-1.276-9.49-1.276-14.152c0-4.676,0.649-9.504,1.276-14.17
	c0.274-2.028,0.55-4.051,0.773-6.063C191.143,232.707,212.504,230.754,245.432,230.301z M140.622,240.236
	c-0.26,5.305-0.39,10.502-0.39,15.512c0,5.006,0.13,10.199,0.39,15.502c-0.761-0.154-1.518-0.313-2.266-0.476
	c-26.384-5.631-38.494-11.917-42.572-14.984c4.202-3.241,16.316-9.492,42.572-15.084
	C139.104,240.543,139.857,240.387,140.622,240.236z M171.985,124.439c-14.038,24.207-23.901,54.118-28.594,86.669
	c-5.229,0.95-10.022,1.925-14.58,2.952c-12.479,2.818-22.832,5.898-31.386,9.356c9.612-46.181,39.571-86.349,80.869-109.051
	C176.106,117.601,173.999,120.964,171.985,124.439z M128.816,297.416c4.658,1.041,9.546,2.033,14.574,2.952
	c4.69,32.53,14.552,62.441,28.594,86.671c2.348,4.055,4.814,7.939,7.385,11.646c-42.266-22.782-72.725-63.583-82.176-110.731
	C105.831,291.449,116.424,294.622,128.816,297.416z M245.432,309.234v106.368c-18.496-4.554-33.375-17.917-47.719-42.638
	c-10.62-18.309-18.37-41.245-23.07-68.258C195.839,307.32,214.766,308.844,245.432,309.234z"/>
</svg>
