<?xml version="1.0" encoding="utf-8"?>
<!-- Generator: Adobe Illustrator 16.0.4, SVG Export Plug-In . SVG Version: 6.00 Build 0)  -->
<!DOCTYPE svg PUBLIC "-//W3C//DTD SVG 1.1//EN" "http://www.w3.org/Graphics/SVG/1.1/DTD/svg11.dtd">
<svg version="1.1" id="Layer_1" xmlns="http://www.w3.org/2000/svg" xmlns:xlink="http://www.w3.org/1999/xlink" x="0px" y="0px"
	 width="512px" height="512px" viewBox="0 0 512 512" enable-background="new 0 0 512 512" xml:space="preserve">
<g>
	<g>
		<path fill="#454646" d="M256,446c-104.768,0-190-85.233-190-190S151.232,66,256,66s190,85.233,190,190S360.768,446,256,446z
			 M256,86.911c-93.234,0-169.085,75.852-169.085,169.089S162.766,425.089,256,425.089c93.237,0,169.093-75.852,169.093-169.089
			S349.237,86.911,256,86.911z"/>
	</g>
	<g>
		<g>
			<path fill="#454646" d="M166.217,216.226c0-14.439,11.705-26.14,26.141-26.14c14.439,0,26.14,11.701,26.14,26.14
				c0,14.439-11.7,26.14-26.14,26.14C177.922,242.366,166.217,230.666,166.217,216.226z"/>
		</g>
		<g>
			<path fill="#454646" d="M293.507,216.226c0-14.439,11.7-26.14,26.136-26.14c14.439,0,26.14,11.701,26.14,26.14
				c0,14.439-11.7,26.14-26.14,26.14C305.207,242.366,293.507,230.666,293.507,216.226z"/>
		</g>
	</g>
	<g>
		<path fill="#454646" d="M331.262,348.473h-150.52c-7.696,0-13.942-6.242-13.942-13.938c0-7.7,6.246-13.942,13.942-13.942h150.52
			c7.7,0,13.941,6.242,13.941,13.942C345.203,342.231,338.962,348.473,331.262,348.473z"/>
	</g>
</g>
</svg>
