<?xml version="1.0" encoding="utf-8"?>
<!-- Generator: Adobe Illustrator 19.1.0, SVG Export Plug-In . SVG Version: 6.00 Build 0)  -->
<svg version="1.1" id="Ebene_1" xmlns="http://www.w3.org/2000/svg" xmlns:xlink="http://www.w3.org/1999/xlink" x="0px" y="0px"
	 width="512px" height="512px" viewBox="0 0 512 512" enable-background="new 0 0 512 512" xml:space="preserve">
<path fill="#454646" d="M392.8,218H188.6v-49.8c0-30.6,24.9-55.6,55.6-55.6h23.6c30.6,0,55.6,24.9,55.6,55.6H370
	C370,112,324,66,267.8,66h-23.6C188,66,142,112,142,168.2V218h-22.8c-8.4,0-15.2,6.8-15.2,15.2v197.6c0,8.4,6.8,15.2,15.2,15.2
	h273.6c8.4,0,15.2-6.8,15.2-15.2V233.2C408,224.8,401.2,218,392.8,218z M275,333.5v48.8c0,10.5-8.5,19-19,19c-10.5,0-19-8.5-19-19
	v-48.8c-11.3-6.6-19-18.8-19-32.9c0-21,17-38,38-38c21,0,38,17,38,38C294,314.7,286.3,327,275,333.5z"/>
</svg>
