<?xml version="1.0" encoding="utf-8"?>
<!-- Generator: Adobe Illustrator 16.0.4, SVG Export Plug-In . SVG Version: 6.00 Build 0)  -->
<!DOCTYPE svg PUBLIC "-//W3C//DTD SVG 1.1//EN" "http://www.w3.org/Graphics/SVG/1.1/DTD/svg11.dtd">
<svg version="1.1" id="Layer_1" xmlns="http://www.w3.org/2000/svg" xmlns:xlink="http://www.w3.org/1999/xlink" x="0px" y="0px"
	 width="512px" height="512px" viewBox="0 0 512 512" enable-background="new 0 0 512 512" xml:space="preserve">
<g>
	<polygon fill="#454646" points="189.838,340.65 245.787,366.775 342.654,86.353 	"/>
	<g>
		<path fill="#454646" d="M274.859,335.505c26.435-8.065,45.678-32.64,45.678-61.717c0-13.723-4.312-26.422-11.619-36.879
			L274.859,335.505z"/>
		<path fill="#454646" d="M248.355,209.737c-32.033,3.793-56.896,30.998-56.896,64.051c0,8.222,1.604,16.063,4.407,23.296
			L248.355,209.737z"/>
	</g>
	<g>
		<path fill="#454646" d="M100.545,273.788c0-85.854,69.601-155.456,155.455-155.456c15.124,0,29.721,2.202,43.543,6.234
			l18.285-30.438C298.44,87.457,277.655,83.788,256,83.788c-104.938,0-190,85.062-190,190c0,63.646,31.328,119.945,79.369,154.424
			l17.358-30.066C124.967,369.785,100.545,324.645,100.545,273.788z"/>
		<path fill="#454646" d="M352.678,110.234l-11.569,33.489c42.35,27.774,70.343,75.637,70.343,130.064
			c0,50.856-24.426,95.997-62.183,124.357l17.358,30.066C414.668,393.733,446,337.442,446,273.788
			C446,204.162,408.527,143.319,352.678,110.234z"/>
	</g>
</g>
</svg>
