<?xml version="1.0" encoding="utf-8"?>
<svg xmlns="http://www.w3.org/2000/svg" viewBox="0 0 512 512"><title>Icons_file_004</title><path d="M404.75,150.72L263.49,80.2v358l141.26-70.89V150.72Zm-17,175.34L300.94,361V156.12l86.8,29.54V326.06Zm-63-129.87V321.3l51.44-62.55ZM249,437.92v-1.28l-1.42.58ZM200.2,130.7l-34.82-11.13L137.7,133.43v16.71l-21.87-5.21v-0.15L97.08,154.2V363.86l18.5,9.43L137.7,368v16.59l28.12,13.85V398l34.37-11v28.83l42.18,20.64V81.66L200.2,102.3v28.4ZM137.7,356.81l-10.94,2.68V158.72l10.94,2.67V356.81Zm62.5,18.63L176.76,383V134.55l23.44,7.59v233.3Z" fill="#454646"/></svg>
