<?xml version="1.0" encoding="utf-8"?>
<!-- Generator: Adobe Illustrator 16.0.4, SVG Export Plug-In . SVG Version: 6.00 Build 0)  -->
<!DOCTYPE svg PUBLIC "-//W3C//DTD SVG 1.1//EN" "http://www.w3.org/Graphics/SVG/1.1/DTD/svg11.dtd">
<svg version="1.1" id="Layer_1" xmlns="http://www.w3.org/2000/svg" xmlns:xlink="http://www.w3.org/1999/xlink" x="0px" y="0px"
	 width="512px" height="512px" viewBox="0 0 512 512" enable-background="new 0 0 512 512" xml:space="preserve">
<g>
	<g>
		<g>
			<path fill="#454646" d="M355.189,145.186c-43.446,0-154.937,0-198.382,0C95.605,145.186,46,194.808,46,256.003
				s49.605,110.812,110.807,110.812c43.446,0,154.937,0,198.382,0c61.199,0,110.811-49.616,110.811-110.812
				S416.388,145.186,355.189,145.186z M355.189,344.375c-45.367,0-82.722-34.19-87.77-78.196H131.234
				c-5.619,0-10.172-4.557-10.172-10.176c0-5.622,4.553-10.178,10.172-10.178h136.186c5.052-44.01,42.41-78.193,87.77-78.193
				c48.805,0,88.372,39.566,88.372,88.371C443.561,304.806,403.995,344.375,355.189,344.375z"/>
		</g>
	</g>
	<path fill="#454646" d="M355.189,192.416c-35.065,0-63.591,28.522-63.591,63.587c0,35.059,28.526,63.589,63.591,63.589
		s63.591-28.53,63.591-63.589C418.781,220.938,390.254,192.416,355.189,192.416z"/>
</g>
</svg>
