<?xml version="1.0" encoding="utf-8"?>
<!-- Generator: Adobe Illustrator 19.2.1, SVG Export Plug-In . SVG Version: 6.00 Build 0)  -->
<svg version="1.1" id="Work_area" xmlns="http://www.w3.org/2000/svg" xmlns:xlink="http://www.w3.org/1999/xlink" x="0px" y="0px"
	 width="512px" height="512px" viewBox="0 0 512 512" enable-background="new 0 0 512 512" xml:space="preserve">
<path fill="#454646" d="M368.6,261.3c14.3,0,28.6,1.8,42.8,5.7c22.5,6.4,38.5,19.4,48.9,35.1l-0.9-1.7l-90.7-183
	c-6.2-9.9-17-14.1-28.6-14.1c-12.9,0-26.8,5.2-36.8,13.6l-242,202.7c-22,18.9-23.3,52.5-2.9,72.8c9.7,9.7,22.4,14.6,35.2,14.6
	c11,0,21.9-3.6,31.1-11l22.4-17.7l1-0.8h0C201.5,322.1,285.1,261.3,368.6,261.3z M455.2,314.7l-4.3-6.4c-10-15-24.3-25.3-42.5-30.4
	c-12.7-3.5-26.1-5.3-39.8-5.3c-83.2,0-162.1,64.4-198.5,99c48.5-13,161.6-34.2,236.4,25.5C456.2,436.7,486.6,368.2,455.2,314.7z"/>
</svg>
