<?xml version="1.0" encoding="utf-8"?>
<!-- Generator: Adobe Illustrator 19.2.1, SVG Export Plug-In . SVG Version: 6.00 Build 0)  -->
<svg version="1.1" id="Work_area" xmlns="http://www.w3.org/2000/svg" xmlns:xlink="http://www.w3.org/1999/xlink" x="0px" y="0px"
	 width="512px" height="512px" viewBox="0 0 512 512" enable-background="new 0 0 512 512" xml:space="preserve">
<path fill="#454646" d="M454.1,146.1c0,0-97.1,45.3-165.3,77.1c31.8-68.1,77.1-165.3,77.1-165.3s-40.1-18.7-77.6,61.6
	c0,0-44.1,94.7-61.9,132.8c-0.8,0.4-1.4,0.6-1.8,0.8c-15,7-33.3,5.2-39.6-8.2c0,0,0,0,0,0c-14.1-30.2-53.3-41.8-87.5-25.8
	c-14.5,6.8-25.9,17.4-33,29.8c-9.6,16.7-11.6,36.4-3.5,53.8c14.1,30.2,53.3,41.8,87.5,25.8c0.4-0.2,1.1-0.5,1.1-0.5
	c11.1-5.2,33.5-12.9,54.7-20.4c-7.5,21.2-15.2,43.6-20.4,54.7c0,0-0.3,0.7-0.5,1.1c-16,34.2-4.4,73.4,25.8,87.5
	c17.4,8.1,37.1,6.1,53.8-3.5c12.3-7.1,23-18.4,29.8-33c16-34.2,4.4-73.4-25.8-87.5c0,0,0,0,0,0c-13.4-6.2-15.2-24.5-8.2-39.6
	c0.2-0.4,0.5-1.1,0.8-1.8c38.2-17.8,132.8-61.9,132.8-61.9C472.8,186.2,454.1,146.1,454.1,146.1z M150.2,280.7
	c-3.7,6.3-9.7,11.7-16.9,15.1c-8.4,3.9-17.8,4.8-25.8,2.5c-4.5-1.3-10.6-4.3-13.6-10.8c-1.3-2.8-3.7-10.4,2-20.4
	c3.7-6.3,9.7-11.7,16.9-15.1c15.8-7.4,33.8-3.6,39.4,8.3C153.5,263.1,155.9,270.7,150.2,280.7z M260,399.2
	c-3.4,7.3-8.7,13.3-15.1,16.9c-10,5.8-17.6,3.3-20.4,2c-6.5-3-9.4-9.1-10.8-13.6c-2.3-7.9-1.4-17.3,2.5-25.8
	c3.4-7.3,8.7-13.3,15.1-16.9c10-5.8,17.6-3.3,20.4-2C263.6,365.3,267.4,383.3,260,399.2z"/>
</svg>
