<?xml version="1.0" encoding="utf-8"?>
<!-- Generator: Adobe Illustrator 16.0.4, SVG Export Plug-In . SVG Version: 6.00 Build 0)  -->
<!DOCTYPE svg PUBLIC "-//W3C//DTD SVG 1.1//EN" "http://www.w3.org/Graphics/SVG/1.1/DTD/svg11.dtd">
<svg version="1.1" id="Layer_1" xmlns="http://www.w3.org/2000/svg" xmlns:xlink="http://www.w3.org/1999/xlink" x="0px" y="0px"
	 width="512px" height="512px" viewBox="0 0 512 512" enable-background="new 0 0 512 512" xml:space="preserve">
<g>
	<path fill="#454646" d="M326.09,180c-2.091,0-3.8,2.433-3.8,5.405v141.19c0,2.972,1.708,5.405,3.8,5.405
		c2.089,0,3.8-2.433,3.8-5.405v-141.19C329.89,182.433,328.18,180,326.09,180z"/>
	<path fill="#454646" d="M185.908,332c2.089,0,3.8-2.433,3.8-5.405v-141.19c0-2.972-1.711-5.405-3.8-5.405
		c-2.091,0-3.8,2.433-3.8,5.405v141.19C182.108,329.567,183.817,332,185.908,332z"/>
	<path fill="#454646" d="M427,66H85c-10.458,0-19,8.55-19,19v342c0,10.45,8.542,19,19,19h342c10.442,0,19-8.55,19-19V85
		C446,74.55,437.442,66,427,66z M223.908,377.6h-70.597c-2.973,0-5.403-2.433-5.403-5.405v-232.39c0-2.973,2.431-5.405,5.403-5.405
		h70.597V377.6z M274.998,366.2h-38V145.8h38V366.2z M364.09,372.195c0,2.973-2.433,5.405-5.405,5.405H288.09V134.4h70.595
		c2.972,0,5.405,2.433,5.405,5.405V372.195z"/>
</g>
</svg>
