<?xml version="1.0" encoding="utf-8"?>
<!-- Generator: Adobe Illustrator 16.0.4, SVG Export Plug-In . SVG Version: 6.00 Build 0)  -->
<!DOCTYPE svg PUBLIC "-//W3C//DTD SVG 1.1//EN" "http://www.w3.org/Graphics/SVG/1.1/DTD/svg11.dtd">
<svg version="1.1" id="Layer_1" xmlns="http://www.w3.org/2000/svg" xmlns:xlink="http://www.w3.org/1999/xlink" x="0px" y="0px"
	 width="512px" height="512px" viewBox="0 0 512 512" enable-background="new 0 0 512 512" xml:space="preserve">
<g>
	<g>
		<path fill="#454646" d="M426.811,228.853c10.547,0,19.189-8.626,19.189-19.185V85.206C446,74.627,437.358,66,426.811,66H302.346
			c-10.552,0-19.198,8.627-19.198,19.206v24.715h-54.287V85.206c0-10.579-8.651-19.206-19.198-19.206H85.198
			C74.643,66,66,74.627,66,85.206v124.462c0,10.559,8.643,19.185,19.198,19.185h24.748v54.291H85.198
			c-10.556,0-19.198,8.622-19.198,19.193v124.457C66,437.374,74.643,446,85.198,446h124.465c10.547,0,19.198-8.626,19.198-19.206
			v-24.731h54.287v24.731c0,10.58,8.646,19.206,19.198,19.206h124.465c10.547,0,19.189-8.626,19.189-19.206V302.337
			c0-10.571-8.642-19.193-19.189-19.193h-24.752v-54.291H426.811z M331.336,283.144h-28.991c-10.552,0-19.198,8.622-19.198,19.193
			v28.995h-54.287v-28.995c0-10.571-8.651-19.193-19.198-19.193h-28.995v-54.291h28.995c10.547,0,19.198-8.626,19.198-19.185V180.66
			h54.287v29.008c0,10.559,8.646,19.185,19.198,19.185h28.991V283.144z"/>
	</g>
</g>
</svg>
