<?xml version="1.0" encoding="utf-8"?>
<!-- Generator: Adobe Illustrator 16.0.4, SVG Export Plug-In . SVG Version: 6.00 Build 0)  -->
<!DOCTYPE svg PUBLIC "-//W3C//DTD SVG 1.1//EN" "http://www.w3.org/Graphics/SVG/1.1/DTD/svg11.dtd">
<svg version="1.1" id="Layer_1" xmlns="http://www.w3.org/2000/svg" xmlns:xlink="http://www.w3.org/1999/xlink" x="0px" y="0px"
	 width="512px" height="512px" viewBox="0 0 512 512" enable-background="new 0 0 512 512" xml:space="preserve">
<g>
	<g>
		<path fill="#454646" d="M269.69,309.354l-80.759,80.759c-4.634,4.63-10.702,6.949-16.769,6.949s-12.139-2.319-16.769-6.949
			l-33.542-33.523c-9.254-9.264-9.254-24.288,0-33.542l80.764-80.736c-9.736-4.639-20.294-6.962-30.843-6.962
			c-18.067,0-36.106,6.832-49.921,20.637L86.839,288.04c-27.786,27.776-27.786,72.808,0,100.599l36.501,36.482
			c13.893,13.893,32.1,20.837,50.307,20.837c18.202,0,36.408-6.944,50.297-20.837l32.053-35.008
			C277.878,368.232,282.252,335.776,269.69,309.354z"/>
		<path fill="#454646" d="M323.072,188.935c-4.63-4.629-10.701-6.944-16.769-6.944s-12.14,2.315-16.769,6.944l-100.603,100.58
			c-9.264,9.264-9.264,24.288,0,33.533c4.625,4.624,10.692,6.944,16.764,6.944c6.067,0,12.135-2.32,16.765-6.944l100.612-100.585
			C332.331,213.199,332.331,198.198,323.072,188.935z"/>
		<path fill="#454646" d="M390.147,255.986l35.017-35.003c27.781-27.786,27.781-72.817,0-100.608l-33.538-33.523
			c-13.893-13.879-32.104-20.818-50.306-20.818c-18.211,0-36.418,6.939-50.306,20.818l-35.018,35.013
			c-21.866,21.876-26.245,54.337-13.684,80.759l80.759-80.759c4.629-4.62,10.697-6.93,16.764-6.93c6.072,0,12.144,2.31,16.773,6.93
			l33.538,33.547c9.258,9.235,9.258,24.261,0,33.523l-80.759,80.741c9.732,4.629,20.285,6.962,30.829,6.962
			C358.289,276.638,376.333,269.796,390.147,255.986z"/>
	</g>
	<path fill="#454646" d="M400.886,266.748c-12.111,12.103-27.22,20.132-43.659,23.411l32.911,32.911
		c9.236,9.26,9.236,24.274,0,33.538l-33.551,33.533c-9.24,9.263-24.265,9.263-33.523,0l-33.014-33.022
		c-3.238,16.128-11.008,31.348-23.059,43.491l-0.246,0.27l24.27,24.283c27.785,27.781,72.812,27.781,100.607,0l33.519-33.533
		c27.762-27.79,27.762-72.836,0-100.621L400.886,266.748z"/>
	<path fill="#454646" d="M110.612,245.67l0.742-0.682c12.074-11.968,27.095-19.904,43.427-23.161l-32.897-32.897
		c-9.263-9.263-9.263-24.283,0-33.537l33.523-33.537c9.264-9.259,24.289-9.259,33.547,0l32.995,33.008
		c3.261-16.244,11.11-31.557,23.3-43.751l0.487-0.482l-21.773-23.787c-27.781-27.79-72.813-27.79-100.599,0L86.876,123.34
		c-27.785,27.78-27.785,72.826,0,100.599L110.612,245.67z"/>
</g>
</svg>
