<?xml version="1.0" encoding="utf-8"?>
<!-- Generator: Adobe Illustrator 16.0.4, SVG Export Plug-In . SVG Version: 6.00 Build 0)  -->
<!DOCTYPE svg PUBLIC "-//W3C//DTD SVG 1.1//EN" "http://www.w3.org/Graphics/SVG/1.1/DTD/svg11.dtd">
<svg version="1.1" id="Layer_1" xmlns="http://www.w3.org/2000/svg" xmlns:xlink="http://www.w3.org/1999/xlink" x="0px" y="0px"
	 width="512px" height="512px" viewBox="0 0 512 512" enable-background="new 0 0 512 512" xml:space="preserve">
<g id="layer1_4_" transform="translate(-702.6538,-712.5837)">
	<g id="g16337_4_">
		<path id="path16197_4_" fill="#454646" d="M881.479,1101.385c-73.327,0-132.825-59.35-132.825-132.694
			c0-73.344,59.498-132.907,132.825-132.907h154.375c73.344,0,132.8,59.563,132.8,132.907c0,73.345-59.456,132.694-132.8,132.694
			H881.479z M1032.417,1054.536c47.505,0,85.978-38.366,85.978-85.846c0-47.483-38.473-86.062-85.978-86.062H884.883
			c-47.479,0-85.977,38.579-85.977,86.062c0,47.479,38.497,85.846,85.977,85.846H1032.417z"/>
	</g>
</g>
</svg>
