<?xml version="1.0" encoding="utf-8"?>
<!-- Generator: Adobe Illustrator 19.2.1, SVG Export Plug-In . SVG Version: 6.00 Build 0)  -->
<svg version="1.1" id="Work_area" xmlns="http://www.w3.org/2000/svg" xmlns:xlink="http://www.w3.org/1999/xlink" x="0px" y="0px"
	 width="512px" height="512px" viewBox="0 0 512 512" enable-background="new 0 0 512 512" xml:space="preserve">
<g>
	<path fill="#454646" d="M288,233.6V166h25.8l-56-97.1l-56,97.1H227v86.6c-14-9.9-27.1-18-42.6-23.7l-17.2-6.7l9.2-24.6L66,216.7
		l71.8,86.1l8.3-22.6l16.3,6.6c22,8.2,39,24.3,48.8,44.4c5.3-17.9,13.4-35,24.6-50.4C250.3,262.2,265,246,288,233.6z"/>
	<path fill="#454646" d="M335.6,197.6l9.1,24.6l-23.1,6.7C261.5,251.2,216,309.2,216,373.3V444h60v-70.7c0-38.4,30.2-73.1,66.2-86.4
		l20.9-6.6l9.7,22.6l73.2-86.1L335.6,197.6z"/>
</g>
</svg>
