<?xml version="1.0" encoding="utf-8"?>
<!-- Generator: Adobe Illustrator 16.0.4, SVG Export Plug-In . SVG Version: 6.00 Build 0)  -->
<!DOCTYPE svg PUBLIC "-//W3C//DTD SVG 1.1//EN" "http://www.w3.org/Graphics/SVG/1.1/DTD/svg11.dtd">
<svg version="1.1" id="Layer_1" xmlns="http://www.w3.org/2000/svg" xmlns:xlink="http://www.w3.org/1999/xlink" x="0px" y="0px"
	 width="512px" height="512px" viewBox="0 0 512 512" enable-background="new 0 0 512 512" xml:space="preserve">
<path fill="#454646" d="M435.755,117.99h-37.058V82.209c0-16.201-13.494-29.393-30.246-29.393H143.543
	c-16.779,0-30.24,13.191-30.24,29.393v100.529H76.241C59.461,182.738,46,195.978,46,212.13v217.661
	c0,16.211,13.461,29.393,30.241,29.393h224.913c16.779,0,30.667-13.182,30.667-29.393V394.01h103.934
	c16.768,0,30.245-13.232,30.245-29.383V146.956C466,130.787,452.522,117.99,435.755,117.99z M130.341,82.209
	c0-7.121,5.808-12.781,13.202-12.781h224.908c7.348,0,13.208,5.66,13.208,12.781v35.781H210.846
	c-16.746,0-30.667,12.797-30.667,28.966v35.782h-49.838V82.209z M130.341,199.35h49.838V312.65h-36.636
	c-7.395,0-13.202-6.078-13.202-13.198V199.35z M314.779,429.791c0,7.104-6.234,12.781-13.625,12.781H76.241
	c-7.444,0-13.203-5.677-13.203-12.781V212.13c0-7.087,5.759-12.78,13.203-12.78h37.062v100.103c0,16.201,13.461,29.81,30.24,29.81
	h36.636v35.365c0,16.15,13.921,29.383,30.667,29.383h103.934V429.791z M314.779,377.398H210.846
	c-7.342,0-13.629-5.669-13.629-12.771v-35.365h117.562V377.398z M314.779,312.65H197.217V199.35h103.938
	c7.391,0,13.625,5.693,13.625,12.78V312.65z M301.154,182.738H197.217v-35.782c0-7.104,6.287-12.78,13.629-12.78h170.813v165.276
	c0,7.12-5.86,13.198-13.208,13.198h-36.63V212.13C331.821,195.978,317.934,182.738,301.154,182.738z M448.959,364.627
	c0,7.103-5.842,12.771-13.204,12.771H331.821v-48.137h36.63c16.752,0,30.246-13.608,30.246-29.81V134.176h37.058
	c7.362,0,13.204,5.676,13.204,12.78V364.627z"/>
</svg>
