<?xml version="1.0" encoding="utf-8"?>
<!-- Generator: Adobe Illustrator 19.1.0, SVG Export Plug-In . SVG Version: 6.00 Build 0)  -->
<svg version="1.1" id="Ebene_1" xmlns="http://www.w3.org/2000/svg" xmlns:xlink="http://www.w3.org/1999/xlink" x="0px" y="0px"
	 width="512px" height="512px" viewBox="0 0 512 512" enable-background="new 0 0 512 512" xml:space="preserve">
<g>
	<g>
		<path fill="#454646" d="M84,167.9c0-32.2,26.1-58.3,58.3-58.3c32.2,0,58.3,26.1,58.3,58.3c0,32.2-26.1,58.3-58.3,58.3
			C110.1,226.2,84,200.1,84,167.9z"/>
	</g>
	<g>
		<path fill="#454646" d="M316.7,153.8c0-32.2,26.1-58.3,58.3-58.3c32.2,0,58.3,26.1,58.3,58.3c0,32.2-26.1,58.3-58.3,58.3
			C342.8,212.1,316.7,186,316.7,153.8z"/>
	</g>
	<g>
		<path fill="#454646" d="M148.1,345v-13.9c0-0.5,0-1,0.1-1.5c1.1-17.3,15.3-30.7,32.7-30.7H217c-20.1-12.3-33.5-34.3-33.5-59.5
			c0-0.1,0-0.3,0-0.4H69.9c-11.5,0-20.9,9.2-21.2,20.6h0v64.2c0,11.7,9.5,21.3,21.3,21.3h18.5v-39.8h7.4V345H148.1z"/>
	</g>
	<g>
		<path fill="#454646" d="M468.6,245.5c-0.4-11.4-9.7-20.6-21.2-20.6H321.6c1,4.7,1.5,9.5,1.5,14.5c0,25.2-13.5,47.3-33.5,59.5h31.6
			v-7.8h7.4v8.1c16.1,1.4,28.8,14.1,29.8,30.4c0.1,0.4,0.1,0.8,0.1,1.3h63v-39.8h7.3v39.8h18.7c11.7,0,21.3-9.5,21.3-21.3
			L468.6,245.5L468.6,245.5z"/>
	</g>
	<g>
		<g>
			<path fill="#454646" d="M195,239.4c0-32.2,26.1-58.3,58.3-58.3c32.2,0,58.3,26.1,58.3,58.3c0,32.2-26.1,58.3-58.3,58.3
				C221.1,297.7,195,271.6,195,239.4z"/>
		</g>
		<g>
			<path fill="#454646" d="M346.9,331.1c-0.4-11.4-9.7-20.6-21.2-20.6H180.9c-11.5,0-20.9,9.2-21.2,20.6h0v64.2
				c0,11.7,9.5,21.3,21.3,21.3h18.5v-39.8h7.4v39.8h92.8v-39.8h7.3v39.8h18.7c11.7,0,21.3-9.5,21.3-21.3L346.9,331.1L346.9,331.1z"
				/>
		</g>
	</g>
</g>
</svg>
