<?xml version="1.0" encoding="utf-8"?>
<!-- Generator: Adobe Illustrator 18.1.1, SVG Export Plug-In . SVG Version: 6.00 Build 0)  -->
<svg version="1.1" id="Ebene_1" xmlns="http://www.w3.org/2000/svg" xmlns:xlink="http://www.w3.org/1999/xlink" x="0px" y="0px"
	 width="512px" height="512px" viewBox="0 0 512 512" enable-background="new 0 0 512 512" xml:space="preserve">
<g>
	<polygon fill="#454646" points="387.9,336.7 387.9,336 375.9,312 136.1,312 124.1,336 124.1,336.7 	"/>
	<path fill="#454646" d="M124.1,354.7v110.9h263.9V354.7H124.1z M172,441.7h-24v-63h24V441.7z M220,441.7h-24v-63h24V441.7z
		 M268,441.7h-24v-63h24V441.7z M316,441.7h-24v-63h24V441.7z M364,441.7h-24v-63h24V441.7z"/>
	<g>
		<path fill="#454646" d="M319.7,172.4H192.3c-33.7,24.2-56.2,66.8-56.2,115.6h239.9C375.9,239.3,353.4,196.6,319.7,172.4z"/>
	</g>
	<path fill="#454646" d="M286.1,142.4V88.6h0.1c0-14.3-10-26.3-23.4-29.4v-6.7c0-3.8-3.1-6.9-6.9-6.9c-3.8,0-6.9,3.1-6.9,6.9v6.7
		c-13.4,3.1-23.4,15-23.4,29.4h0.1v53.8h-15.2v12.1h15.2h60.2h15.2v-12.1H286.1z M235.5,142.4V97.1h13.4v45.3H235.5z M263.1,142.4
		V97.1h13.4v45.3H263.1z"/>
</g>
</svg>
