<?xml version="1.0" encoding="utf-8"?>
<!-- Generator: Adobe Illustrator 18.1.1, SVG Export Plug-In . SVG Version: 6.00 Build 0)  -->
<svg version="1.1" id="Ebene_1" xmlns="http://www.w3.org/2000/svg" xmlns:xlink="http://www.w3.org/1999/xlink" x="0px" y="0px"
	 width="512px" height="512px" viewBox="0 0 512 512" enable-background="new 0 0 512 512" xml:space="preserve">
<path fill="#454646" d="M427.4,335.3c-39.2-147.4-105.7-178-143-182.8c-33-4.1-65.2,8.5-90.4,34.2c-17.3-35.2-39.9-59.5-67.6-72.3
	c-41-19-76.5-5.2-80.4-3.5L63.8,154c0.8-0.3,20.9-7.9,43.7,3.1c24.2,11.6,44.3,40.9,58.1,84.7l17,53.8l26-50.1
	c16.7-32.2,43.4-50.1,69.8-46.7c41.4,5.3,79,58.7,102.6,144.3l-40.5,6.8l74.2,57.6l51.2-78.7L427.4,335.3z"/>
</svg>
