<?xml version="1.0" encoding="utf-8"?>
<!-- Generator: Adobe Illustrator 19.2.1, SVG Export Plug-In . SVG Version: 6.00 Build 0)  -->
<svg version="1.1" id="Work_area" xmlns="http://www.w3.org/2000/svg" xmlns:xlink="http://www.w3.org/1999/xlink" x="0px" y="0px"
	 width="512px" height="512px" viewBox="0 0 512 512" enable-background="new 0 0 512 512" xml:space="preserve">
<g>
	<path fill="#454646" d="M428.8,144.5h-94.3V117c0-15.8-12.8-28.5-28.5-28.5H206c-15.8,0-28.5,12.8-28.5,28.5v27.5H83.2
		c-10.6,0-19.2,8.6-19.2,19.2v245.8c0,7.7,6.3,14,14,14h356c7.7,0,14-6.3,14-14V163.7C448,153.1,439.4,144.5,428.8,144.5z
		 M205.5,117c0-0.3,0.2-0.5,0.5-0.5H306c0.3,0,0.5,0.2,0.5,0.5v27.5h-101V117z M256,384.5c-55.2,0-100-44.8-100-100
		s44.8-100,100-100s100,44.8,100,100S311.2,384.5,256,384.5z"/>
	<g>
		<polygon fill="#454646" points="324,264.5 276,264.5 276,216.5 236,216.5 236,264.5 188,264.5 188,304.5 236,304.5 236,352.5 
			276,352.5 276,304.5 324,304.5 		"/>
	</g>
</g>
</svg>
