<?xml version="1.0" encoding="utf-8"?>
<!-- Generator: Adobe Illustrator 16.0.4, SVG Export Plug-In . SVG Version: 6.00 Build 0)  -->
<!DOCTYPE svg PUBLIC "-//W3C//DTD SVG 1.1//EN" "http://www.w3.org/Graphics/SVG/1.1/DTD/svg11.dtd">
<svg version="1.1" id="Layer_1" xmlns="http://www.w3.org/2000/svg" xmlns:xlink="http://www.w3.org/1999/xlink" x="0px" y="0px"
	 width="512px" height="512px" viewBox="0 0 512 512" enable-background="new 0 0 512 512" xml:space="preserve">
<g>
	<path fill="#454646" d="M169.327,197.367l-88.565-0.002C72.65,197.367,66,204.013,66,212.129v88.569
		c0,8.118,6.65,14.762,14.762,14.762h88.565c8.127,0,14.762-6.645,14.762-14.764v-88.571
		C184.089,204.013,177.454,197.367,169.327,197.367z"/>
	<path fill="#454646" d="M300.694,66h-88.565c-8.112,0-14.762,6.643-14.762,14.762v88.567c0,8.12,6.65,14.762,14.762,14.762h88.565
		c8.127,0,14.762-6.645,14.762-14.762V80.762C315.456,72.645,308.821,66,300.694,66z"/>
	<path fill="#454646" d="M300.694,196.542h-88.565c-8.112,0-14.762,6.643-14.762,14.762v88.567c0,8.12,6.65,14.762,14.762,14.762
		h88.565c8.127,0,14.762-6.645,14.762-14.762v-88.567C315.456,203.186,308.821,196.542,300.694,196.542z"/>
	<path fill="#454646" d="M299.867,327.909h-88.569c-8.104,0-14.754,6.645-14.762,14.762v88.567
		c0.008,8.123,6.658,14.764,14.762,14.762h88.569c8.131,0.002,14.759-6.639,14.759-14.762v-88.567
		C314.625,334.551,307.99,327.911,299.867,327.909z"/>
	<path fill="#454646" d="M431.238,196.542h-88.573c-8.112,0-14.762,6.643-14.762,14.76v88.569c0,8.118,6.658,14.762,14.762,14.762
		h88.573c8.127,0,14.762-6.645,14.762-14.76v-88.569C446,203.184,439.365,196.542,431.238,196.542z"/>
	<g>
		<path fill="#454646" d="M176.979,328.228h-44.287c-4.052,0-7.377,3.321-7.377,7.381v44.284c0,4.058,3.325,7.379,7.377,7.379
			h44.287c4.06,0,7.377-3.321,7.377-7.379v-44.284C184.356,331.549,181.039,328.228,176.979,328.228z"/>
	</g>
	<g>
		<path fill="#454646" d="M176.979,124.729h-44.287c-4.052,0-7.377,3.321-7.377,7.381v44.286c0,4.056,3.325,7.377,7.377,7.377
			h44.287c4.06,0,7.377-3.321,7.377-7.377v-44.284C184.356,128.05,181.039,124.729,176.979,124.729z"/>
	</g>
	<g>
		<path fill="#454646" d="M379.299,328.228l-44.282,0.001c-4.056-0.001-7.381,3.323-7.381,7.379v44.284
			c0,4.06,3.325,7.381,7.381,7.379h44.282c4.068,0.002,7.385-3.319,7.385-7.379v-44.284
			C386.684,331.551,383.367,328.231,379.299,328.228z"/>
	</g>
	<g>
		<path fill="#454646" d="M327.636,132.11v44.281c0,4.058,3.325,7.381,7.381,7.381h44.282c4.061,0,7.385-3.324,7.385-7.381V132.11
			c0-4.063-3.324-7.381-7.385-7.385h-44.282C330.961,124.729,327.636,128.047,327.636,132.11z"/>
	</g>
</g>
</svg>
