<?xml version="1.0" encoding="utf-8"?>
<!-- Generator: Adobe Illustrator 16.0.4, SVG Export Plug-In . SVG Version: 6.00 Build 0)  -->
<!DOCTYPE svg PUBLIC "-//W3C//DTD SVG 1.1//EN" "http://www.w3.org/Graphics/SVG/1.1/DTD/svg11.dtd">
<svg version="1.1" id="Layer_1" xmlns="http://www.w3.org/2000/svg" xmlns:xlink="http://www.w3.org/1999/xlink" x="0px" y="0px"
	 width="512px" height="512px" viewBox="0 0 512 512" enable-background="new 0 0 512 512" xml:space="preserve">
<g>
	<path fill="#454646" d="M256,66C151.065,66,66,151.066,66,256s85.065,190,190,190c104.934,0,190-85.066,190-190S360.934,66,256,66z
		 M255.996,414.156c-87.344,0-158.152-70.808-158.152-158.156S168.652,97.844,255.996,97.844c87.349,0,158.16,70.808,158.16,158.156
		S343.345,414.156,255.996,414.156z"/>
	<path fill="#454646" d="M233.745,130.218c0,0-24.94,20.165-13.798,42.987c11.148,22.822,75.344,40.03,98.33,64.752
		c22.699,24.411,22.677,35.224,22.677,61.03c0,23.884-9.021,64.749-63.687,82.795c0,0,16.454-12.669,16.454-32.905
		c0-22.755-20.169-32.375-31.312-36.62c-11.148-4.245-75.221-26.444-87.571-71.647C163.237,198.15,176.961,147.199,233.745,130.218z
		"/>
</g>
</svg>
