<?xml version="1.0" encoding="utf-8"?>
<!-- Generator: Adobe Illustrator 16.0.4, SVG Export Plug-In . SVG Version: 6.00 Build 0)  -->
<!DOCTYPE svg PUBLIC "-//W3C//DTD SVG 1.1//EN" "http://www.w3.org/Graphics/SVG/1.1/DTD/svg11.dtd">
<svg version="1.1" id="Layer_1" xmlns="http://www.w3.org/2000/svg" xmlns:xlink="http://www.w3.org/1999/xlink" x="0px" y="0px"
	 width="512px" height="512px" viewBox="0 0 512 512" enable-background="new 0 0 512 512" xml:space="preserve">
<g>
	<polygon fill="#454646" points="215.611,104.168 148.775,104.168 148.912,146.892 	"/>
	<polygon fill="#454646" points="98.9,165.156 84.923,146.244 84.923,104.168 51.659,104.168 51.659,181 	"/>
	<polygon fill="#454646" points="461.031,199.281 461.031,104.168 319.674,104.168 336.199,106.784 344.44,125.935 310.307,125.935 
		310.307,140.372 293.193,125.935 249.762,125.935 204.207,172.247 234.455,212.04 332.866,174.71 423.174,248.304 473.057,260.5 
		480.744,280.137 392.1,288.097 387.557,275.722 375.591,280.409 326.33,238.793 235.768,297.6 262.443,407.832 496,407.832 
		496,199.281 	"/>
	<polygon fill="#454646" points="192.71,395.168 180.753,390.216 157.716,294.744 140.756,290.116 94.75,220.844 69.89,220.844 
		69.89,241.034 59.048,232.545 59.048,262.094 33.582,251.253 33.582,200.091 34.35,199.281 16,199.281 16,407.832 195.77,407.832 	
		"/>
</g>
</svg>
