<?xml version="1.0" encoding="utf-8"?>
<!-- Generator: Adobe Illustrator 16.0.4, SVG Export Plug-In . SVG Version: 6.00 Build 0)  -->
<!DOCTYPE svg PUBLIC "-//W3C//DTD SVG 1.1//EN" "http://www.w3.org/Graphics/SVG/1.1/DTD/svg11.dtd">
<svg version="1.1" id="Layer_1" xmlns="http://www.w3.org/2000/svg" xmlns:xlink="http://www.w3.org/1999/xlink" x="0px" y="0px"
	 width="512px" height="512px" viewBox="0 0 512 512" enable-background="new 0 0 512 512" xml:space="preserve">
<path fill="#454646" d="M256,66C151.231,66,66,151.231,66,256c0,104.769,85.231,190,190,190c104.76,0,190-85.231,190-190
	C446,151.231,360.76,66,256,66z M256,422.25c-85.546,0-155.985-64.61-165.202-147.726h228.923l-74.14,74.156l26.088,26.069
	l109.523-109.519v-18.462L271.67,137.25l-26.088,26.116l74.131,74.11H90.799C100.021,154.395,170.454,89.75,256,89.75
	c91.809,0,166.25,74.451,166.25,166.25C422.25,347.846,347.809,422.25,256,422.25z"/>
</svg>
