<?xml version="1.0" encoding="utf-8"?>
<!-- Generator: Adobe Illustrator 16.0.4, SVG Export Plug-In . SVG Version: 6.00 Build 0)  -->
<!DOCTYPE svg PUBLIC "-//W3C//DTD SVG 1.1//EN" "http://www.w3.org/Graphics/SVG/1.1/DTD/svg11.dtd">
<svg version="1.1" id="Layer_1" xmlns="http://www.w3.org/2000/svg" xmlns:xlink="http://www.w3.org/1999/xlink" x="0px" y="0px"
	 width="512px" height="512px" viewBox="0 0 512 512" enable-background="new 0 0 512 512" xml:space="preserve">
<path fill="#454646" d="M256,66C151.236,66,66,151.233,66,256s85.236,190,190,190c104.768,0,190-85.233,190-190S360.768,66,256,66z
	 M319.643,190.086c14.439,0,26.14,11.701,26.14,26.14c0,14.439-11.7,26.14-26.14,26.14c-14.436,0-26.136-11.701-26.136-26.14
	C293.507,201.787,305.207,190.086,319.643,190.086z M192.357,190.086c14.439,0,26.14,11.701,26.14,26.14
	c0,14.439-11.7,26.14-26.14,26.14c-14.436,0-26.14-11.701-26.14-26.14C166.218,201.787,177.922,190.086,192.357,190.086z
	 M365.335,303.671c-16.766,48.008-60.707,80.264-109.335,80.264c-48.632,0-92.569-32.255-109.332-80.264
	c-2.538-7.27,1.299-15.223,8.569-17.761c7.273-2.546,15.218,1.299,17.757,8.568c12.858,36.828,46.216,61.572,83.006,61.572
	s70.147-24.745,83.01-61.572c2.538-7.273,10.487-11.133,17.757-8.561C364.036,288.448,367.874,296.401,365.335,303.671z"/>
</svg>
