<?xml version="1.0" encoding="utf-8"?>
<!-- Generator: Adobe Illustrator 16.0.4, SVG Export Plug-In . SVG Version: 6.00 Build 0)  -->
<!DOCTYPE svg PUBLIC "-//W3C//DTD SVG 1.1//EN" "http://www.w3.org/Graphics/SVG/1.1/DTD/svg11.dtd">
<svg version="1.1" id="Layer_1" xmlns="http://www.w3.org/2000/svg" xmlns:xlink="http://www.w3.org/1999/xlink" x="0px" y="0px"
	 width="512px" height="512px" viewBox="0 0 512 512" enable-background="new 0 0 512 512" xml:space="preserve">
<g>
	<g>
		<path fill="#454646" d="M223.983,291.35c1.283-5.229,3.339-10.737,5.55-16.667l0.873-2.343c1.126-3.034,2.441-5.962,3.839-9.062
			c6.784-15.048,15.212-33.777,5.484-78.715c-1.866-8.675-6.389-13.723-13.789-15.417c-16.24-3.726-39.016,8.478-43.934,12.827
			c0.041,0.986,0.124,2.235,0.206,3.659c0.601,10.164,1.727,29.092-1.315,50.832c-2.17,15.524,2.574,30.662,13.008,41.558
			C202.111,286.58,212.907,291.317,223.983,291.35z M212.496,179.178c0.346-2.59,3.47-4.144,8.346-4.144
			c1.077,0,2.188,0.082,3.322,0.238c5.247,0.731,10.673,3.216,10.164,6.957c-0.403,2.827-4.885,7.03-10.262,7.03
			c-0.469,0-0.946-0.041-1.415-0.108c-3.108-0.427-6.25-2.384-8.412-5.236C213.482,182.902,212.249,180.945,212.496,179.178z"/>
		<path fill="#454646" d="M203.829,83.952c-20.499-6.685-71.503-19.85-102.535,2.146c-19.069,13.526-27.818,38.679-26.009,74.784
			c0.567,11.412,7.795,52.122,20.146,92.603c14.283,46.786,30.481,76.289,44.435,80.943c2.138,0.715,8.659,2.886,18.09-8.453
			c13.337-16.034,25.86-29.684,31.616-35.859c-1.439-1.233-2.837-2.549-4.177-3.947c-12.942-13.5-18.846-32.224-16.166-51.34
			c2.87-20.574,1.801-38.738,1.225-48.497c-0.165-2.673-0.279-4.605-0.271-5.979c-0.083-3.561-0.88-61.588,32.75-95.546
			C203.221,84.512,203.534,84.239,203.829,83.952z"/>
		<path fill="#454646" d="M373.362,293.521c-0.855-1.218-1.974-2.624-3.141-4.07c-3.766-4.72-8.938-11.183-12.926-20.86
			c-0.617-1.48-2.557-4.958-4.811-8.996c-12.268-21.995-37.782-67.763-21.288-91.344c7.573-10.839,22.538-15.18,44.533-12.942
			c-2.927-8.692-10.254-24.8-23.788-40.793c-15.698-18.559-43.53-40.824-86.929-41.541c-22.053-0.353-40.102,6.397-53.669,20.089
			c-21.56,21.74-27.324,56.102-28.845,74.488c1.003-0.56,2.081-1.136,3.248-1.727c5.468-2.771,16.429-7.606,28.401-8.84
			c19.981-2.081,33.162,6.841,37.1,25.086c10.542,48.729,0.839,70.296-6.257,86.042c-1.315,2.92-2.549,5.674-3.536,8.33
			l-0.879,2.359c-2.089,5.607-4.021,10.779-5.139,15.36c1.241-0.321,2.508-0.485,3.782-0.485c3.461,0,6.291,1.166,8.148,1.94
			c5.954,2.466,10.928,8.428,12.951,15.54c0.337,1.159,0.576,2.319,0.732,3.454c0.181,0.592,0.279,1.226,0.254,1.874
			c-1.365,48.916,0.568,93.22,4.49,103.046c6.084,15.22,15.318,28.531,41.417,22.94c25.169-5.394,34.107-14.455,38.301-38.777
			c3.19-18.418,9.439-70.541,10.311-81.642C354.738,299.886,366.702,295.445,373.362,293.521z"/>
		<path fill="#454646" d="M387.069,323.903c10.821-0.518,22.218-2.886,29.035-6.044c7.917-3.684,13.509-7.777,16.773-10.837
			c-0.09,0.024-0.172,0.041-0.263,0.058c-24.208,4.999-41.359,4.317-50.972-2.031c-0.592-0.395-1.143-0.798-1.645-1.209
			c-0.814,0.288-1.645,0.519-2.5,0.757c-5.444,1.529-10.583,2.977-9.917,16.799C369.021,322.563,375.097,324.454,387.069,323.903z"
			/>
		<path fill="#454646" d="M348.843,68.511c-13.461-0.288-25.49,1.405-34.288,3.23c20.449,9.021,35.422,22.391,45.693,34.346
			c18.764,21.848,27.973,45.997,28.738,54.056c0.107,1.242,0.025,2.285-0.197,3.166c0.296,8.411-0.781,15.549-1.842,22.447
			c-0.863,5.592-1.76,11.38-1.974,18.131c-0.206,6.373,0.608,13.14,1.472,20.318c2.105,17.488,4.457,37.207-7.605,57.147
			c0.197,0.246,0.386,0.493,0.592,0.739c0.485,0.608,0.962,1.2,1.414,1.784c46.712-73.51,62.845-158.712,48.193-177.436
			C409.928,82.028,382.95,69.267,348.843,68.511z"/>
		<path fill="#454646" d="M211.567,340.711c15.368,0,27.71-6.373,36.672-18.921c1.793-2.491,1.233-5.698,0.765-7.392
			c-1.028-3.569-3.561-6.817-6.151-7.894c-1.414-0.593-2.59-1.045-3.634-1.045c-1.48,0-3.223,1.11-5.18,3.306
			c-2.59,2.894-4.465,5.263-6.109,7.359c-7.194,9.127-10.483,12.227-31.813,16.618c-4.408,0.912-6.94,1.825-8.371,2.5
			c1.702,1.159,4.621,2.564,7.86,3.378C201.14,340.003,206.51,340.711,211.567,340.711z"/>
		<path fill="#454646" d="M375.303,183.956c0.847-5.519,1.653-10.812,1.744-16.651c-23.27-2.887-32.538,2.482-36.196,7.695
			c-12.26,17.54,11.693,60.511,21.93,78.855c2.631,4.711,4.522,8.124,5.403,10.245c0.97,2.343,2.022,4.466,3.108,6.405
			c7.046-14.973,5.221-30.151,3.454-44.896c-0.872-7.293-1.785-14.842-1.546-22.103C373.428,196.05,374.374,189.899,375.303,183.956
			z M363.578,180.544c-1.135,1.191-3.528,3.263-6.776,3.716c-0.419,0.058-0.855,0.082-1.274,0.082c-4.81,0-8.954-3.75-9.292-6.176
			c-0.402-2.935,4.391-5.163,9.325-5.854c1.077-0.149,2.146-0.223,3.182-0.223c4.267,0,7.096,1.266,7.368,3.306
			C366.299,176.711,365.305,178.726,363.578,180.544z"/>
	</g>
	<path fill="#454646" d="M459.091,297.689c-2.45-7.433-8.881-12.612-17.193-13.854c-3.923-0.584-8.412-0.337-13.724,0.757
		c-9.258,1.915-16.14,2.64-21.14,2.778c18.92-31.952,34.312-68.395,43.168-102.699c14.324-55.462,6.668-80.729-2.277-92.159
		c-23.682-30.25-58.216-46.499-99.88-47c-22.233-0.271-41.754,4.119-51.925,7.277c-9.489-1.678-19.676-2.606-30.375-2.779
		c-20.022-0.329-37.75,4.045-52.879,13.033c-8.387-2.837-21.831-6.825-37.363-9.383c-36.516-5.994-65.953-1.323-87.488,13.888
		C61.94,85.967,49.853,117.961,52.09,162.659c0.708,14.185,8.642,57.352,21.14,98.301c7.187,23.532,14.842,43.078,22.769,58.084
		c11.232,21.297,23.253,33.828,36.755,38.334c7.564,2.516,21.312,4.283,35.76-7.763c1.842,2.22,4.284,4.432,7.532,6.479
		c4.111,2.6,9.152,4.722,14.184,5.979c18.131,4.54,35.119,3.404,49.615-2.951c0.083,2.573,0.157,5.04,0.214,7.162
		c0.091,3.454,0.189,6.832,0.321,9.99c0.855,21.395,2.311,38.021,6.619,49.647c0.239,0.642,0.56,1.62,0.897,2.648
		c2.146,6.586,5.739,17.611,14.891,26.245c9.472,8.938,20.935,11.686,31.427,11.686c5.263,0,10.295-0.691,14.694-1.628
		c15.705-3.371,33.531-8.504,46.433-26.872c12.194-17.358,18.123-43.514,19.2-84.726c0.14-1.168,0.271-2.278,0.395-3.339
		c0.083-0.714,0.165-1.447,0.247-2.179l2.87,0.255l0.748,0.05c15.985,0.731,35.555-2.664,47.56-8.239
		C435.837,335.415,466.253,319.364,459.091,297.689z M421.062,328.549c-9.521,4.416-24.708,7.212-37.865,7.212
		c-6.323,0-12.162-0.642-16.692-2.056c-2.146,19.751-6.718,56.562-9.374,71.997c-4.975,28.853-17.843,41.943-47.444,48.29
		c-5.049,1.086-9.637,1.571-13.797,1.571c-28.376,0-37.356-22.464-41.031-31.657c-4.489-11.224-6.052-48.069-5.73-85.457
		c-10.196,9.217-22.966,14.044-37.561,14.044l0,0c-6.019,0-12.35-0.822-18.822-2.442c-1.867-0.468-18.278-4.875-18.056-15.359
		c0.197-9.604,13.896-12.425,19.06-13.484c18.122-3.734,19.29-5.222,24.922-12.376c1.143-1.447,2.484-3.148,4.12-5.09
		c-0.017-0.205-0.05-0.411-0.058-0.624c-8.14-0.215-16.075-2.385-23.311-6.266c-4.893,5.213-18.172,19.545-32.397,36.664
		c-8.567,10.285-16.798,13.312-23.508,13.312c-2.747,0-5.221-0.501-7.376-1.218c-18.401-6.142-35.883-35.974-51.983-88.688
		c-12.218-40.043-19.956-81.855-20.639-95.455c-2.022-40.398,8.404-68.996,30.983-84.998c18.928-13.41,45.446-17.48,78.821-12.103
		c19.307,3.108,35.078,8.526,41.195,10.805c14.053-9.588,31.032-14.283,50.692-13.979c10.722,0.181,20.556,1.554,29.585,3.799
		c4.284-1.875,26.395-8.543,52.566-8.289c38.071,0.411,69.522,15.098,90.959,42.479c5.312,6.792,7.894,17.908,7.654,33.047
		c-0.213,13.781-2.803,30.694-7.515,48.907c-9.924,38.44-28.335,79.652-50.725,113.744c3.396,2.491,13.707,6.61,42.494,0.664
		c9.695-2.006,15.533-0.237,17.35,5.247C451.074,311.381,431.767,323.574,421.062,328.549z"/>
</g>
</svg>
