<?xml version="1.0" encoding="utf-8"?>
<!-- Generator: Adobe Illustrator 16.0.4, SVG Export Plug-In . SVG Version: 6.00 Build 0)  -->
<!DOCTYPE svg PUBLIC "-//W3C//DTD SVG 1.1//EN" "http://www.w3.org/Graphics/SVG/1.1/DTD/svg11.dtd">
<svg version="1.1" id="Layer_1" xmlns="http://www.w3.org/2000/svg" xmlns:xlink="http://www.w3.org/1999/xlink" x="0px" y="0px"
	 width="512px" height="512px" viewBox="0 0 512 512" enable-background="new 0 0 512 512" xml:space="preserve">
<g>
	<path fill="#454646" d="M307.73,329.446c0.079,0,0.162,0,0.255,0h43.012v-52.818h-64.415
		C297.827,305.036,307.264,328.732,307.73,329.446z"/>
	<path fill="#454646" d="M307.858,182.556c-0.64,1.06-10.059,24.641-21.234,52.815h64.374v-52.815h-43.012
		C307.941,182.556,307.893,182.556,307.858,182.556z"/>
	<path fill="#454646" d="M307.985,370.839c-29.187,0-38.155-22.845-44.104-37.965l-22.193-56.246h-47.616
		c-5.228,0-9.5-4.277-9.5-9.5v-22.254c0-5.228,4.272-9.502,9.5-9.502h47.639l22.352-56.685
		c7.382-17.592,15.757-37.526,43.923-37.526h43.012V89.75c0-13.053-10.692-23.75-23.745-23.75h-142.5
		c-13.072,0-23.75,10.697-23.75,23.75v332.5c0,13.072,10.678,23.75,23.75,23.75h142.5c13.053,0,23.745-10.678,23.745-23.75v-51.411
		H307.985z"/>
</g>
</svg>
