<?xml version="1.0" encoding="utf-8"?>
<!-- Generator: Adobe Illustrator 16.0.4, SVG Export Plug-In . SVG Version: 6.00 Build 0)  -->
<!DOCTYPE svg PUBLIC "-//W3C//DTD SVG 1.1//EN" "http://www.w3.org/Graphics/SVG/1.1/DTD/svg11.dtd">
<svg version="1.1" id="Layer_1" xmlns="http://www.w3.org/2000/svg" xmlns:xlink="http://www.w3.org/1999/xlink" x="0px" y="0px"
	 width="512px" height="512px" viewBox="0 0 512 512" enable-background="new 0 0 512 512" xml:space="preserve">
<g>
	<path fill="#454646" d="M252.482,261.88c-1.884-7.016,2.323-11.223,9.347-9.345l70.951,14.122v-58.908
		c0-3.642-2.975-6.609-6.612-6.609H207.169c-3.637,0-6.61,2.968-6.61,6.609v118.997c0,3.634,2.973,6.61,6.61,6.61h59.568
		L252.482,261.88z"/>
	<path fill="#454646" d="M171.663,201.14H52.664c-3.638,0-6.61,2.968-6.61,6.609v118.997c0,3.634,2.973,6.61,6.61,6.61h118.999
		c3.635,0,6.612-2.977,6.612-6.61V207.749C178.275,204.107,175.297,201.14,171.663,201.14z"/>
	<polygon fill="#454646" points="423.404,318.315 279.771,279.828 318.258,423.457 351.325,390.391 426.931,466 465.947,426.987 
		390.337,351.382 	"/>
	<path fill="#454646" d="M326.168,46H52.664c-3.638,0-6.61,2.968-6.61,6.61v118.997c0,3.633,2.973,6.605,6.61,6.605h273.504
		c3.635,0,6.612-2.973,6.612-6.605V52.61C332.78,48.968,329.803,46,326.168,46z"/>
</g>
</svg>
