<?xml version="1.0" encoding="utf-8"?>
<!-- Generator: Adobe Illustrator 16.0.4, SVG Export Plug-In . SVG Version: 6.00 Build 0)  -->
<!DOCTYPE svg PUBLIC "-//W3C//DTD SVG 1.1//EN" "http://www.w3.org/Graphics/SVG/1.1/DTD/svg11.dtd">
<svg version="1.1" id="Layer_1" xmlns="http://www.w3.org/2000/svg" xmlns:xlink="http://www.w3.org/1999/xlink" x="0px" y="0px"
	 width="512px" height="512px" viewBox="0 0 512 512" enable-background="new 0 0 512 512" xml:space="preserve">
<path fill="#454646" d="M456.825,380.342c0.099-0.9,0.099-1.799,0.199-2.598c-4.997-5.798-9.295-12.295-14.992-17.392
	c-24.088-21.39-49.875-40.08-80.461-51.275c-7.396-2.698-12.093-7.296-15.292-14.093c-8.396-17.792-17.091-35.483-25.387-53.374
	c-6.897-14.793-12.194-30.485-20.291-44.578c-20.99-36.882-49.575-67.067-84.358-91.655c-24.788-17.491-50.776-30.985-82.16-31.184
	c-4.698,0-9.896-3.099-13.993-6.098c-17.192-11.994-34.883-22.388-56.672-22.088c-12.894,0.2-22.688,9.795-21.889,22.688
	c0.399,6.896,2.799,14.293,6.297,20.189c5.897,9.896,13.793,18.491,20.29,28.087c3.998,5.896,7.496,12.294,9.995,18.991
	c4.998,12.694,8.196,26.187,13.893,38.581c5.297,11.395,12.994,21.689,19.191,32.684c1.399,2.499,2.099,6.297,1.199,8.996
	c-8.695,28.586-14.593,57.372-7.696,87.257c3.698,16.192,9.295,31.484,22.189,42.78c11.994,10.394,25.888,5.597,29.386-9.896
	c0.599-2.798,0.899-5.697,1.399-8.496c1.199-6.897,2.499-13.793,3.798-21.19c8.296,13.094,14.893,25.987,23.888,36.982
	c9.096,11.095,20.59,20.19,31.085,30.086c0.5-0.5,0.899-1,1.399-1.4c-23.588-30.485-42.579-63.568-55.673-99.75
	c-20.89,16.691-19.291,41.18-23.188,63.768c-8.196-1.699-11.694-7.096-14.393-13.093c-13.394-29.686-14.094-59.871-4.099-90.655
	c1.999-6.197,4.798-12.295,5.498-18.592c0.5-4.198-0.7-10.195-3.499-12.993c-12.293-12.394-19.29-27.586-23.788-43.878
	c-6.896-24.988-17.891-47.577-34.982-67.167c-3.099-3.599-6.197-7.696-7.497-12.194c-1.299-4.398-1.999-10.396-0.1-14.093
	c2.499-4.799,8.596-4.198,13.693-2.399c15.292,5.297,29.985,11.594,42.679,21.89c3.599,2.898,8.796,4.797,13.494,5.396
	c14.293,1.799,28.886,1.2,42.28,7.996c8.095,4.198,16.491,7.896,24.288,12.595c47.277,28.985,82.459,68.366,103.949,120.041
	c10.695,25.688,23.289,50.576,35.282,75.762c3.798,7.996,9.396,14.693,18.691,16.793c30.485,6.696,54.973,24.788,79.761,42.179
	c2.898,1.999,5.297,4.897,8.995,8.495c-3.698,0.301-5.097,0.601-6.497,0.601c-19.39-0.3-38.181,2.898-56.472,9.695
	c-5.896,2.198-8.096,4.598-4.397,10.295c2.299,3.598,4.098,7.696,6.696,10.995c10.795,13.793,25.388,22.489,40.38,30.785
	c14.093,7.696,27.787,16.192,41.48,24.488c3.098,1.799,5.597,4.498,8.396,6.696c0.6-0.6,1.199-1.199,1.699-1.799
	c-4.498-5.098-9.195-9.896-13.393-15.192c-12.494-15.692-27.486-28.187-45.078-37.781c-4.397-2.399-8.496-5.498-12.294-8.797
	c-2.499-2.198-4.198-5.297-7.196-9.095C415.244,388.638,436.034,384.54,456.825,380.342z M143.978,144.158
	c6.397-6.597,6.997-12.794,2.199-19.391c-4.997-6.897-10.395-8.196-17.491-4.398C133.683,128.166,138.681,135.962,143.978,144.158z"
	/>
</svg>
