<?xml version="1.0" encoding="utf-8"?>
<!-- Generator: Adobe Illustrator 16.0.4, SVG Export Plug-In . SVG Version: 6.00 Build 0)  -->
<!DOCTYPE svg PUBLIC "-//W3C//DTD SVG 1.1//EN" "http://www.w3.org/Graphics/SVG/1.1/DTD/svg11.dtd">
<svg version="1.1" id="Layer_1" xmlns="http://www.w3.org/2000/svg" xmlns:xlink="http://www.w3.org/1999/xlink" x="0px" y="0px"
	 width="512px" height="512px" viewBox="0 0 512 512" enable-background="new 0 0 512 512" xml:space="preserve">
<path fill="#454646" d="M387.534,225.764c0.422,11.328-3.306,16.841-6.678,26.573c-11.529,9.364-22.649,35.664-37.647,39.667
	c-3.684-0.087,2.488-4.344,3.297-6.014c-10.36,7.112-24.625,13.975-24.625,13.975c-39.076,18.388-93.361-18.052-92.646-67.754
	c-0.41,3.154-1.187,2.366-2.053,3.63c-2.012-25.569,11.813-51.249,35.132-61.753c22.816-11.287,49.56-6.661,65.886,8.58
	c-8.969-11.755-26.836-24.224-47.996-23.066c-48.984,3.034-60.882,39.784-63.098,57.105c-3.035,22.28-0.406,44.437,13.773,62.565
	c8.63,11.029,27.062,19.971,30.277,32.419c-10.082-4.721-19.313-11.846-26.914-20.577c4.035,5.901,8.385,11.623,14.01,16.131
	c-9.52-3.212-22.226-23.043-25.929-23.851c16.397,29.354,66.506,51.482,92.765,40.498c-12.148,0.451-27.579,0.251-41.217-4.79
	c-5.746-2.949-13.53-9.056-12.141-10.196c35.822,13.375,72.815,10.123,103.803-14.713c7.892-6.148,13.334-14.203,24.867-30.926
	l4.262,5.865c-1.596-10.528,13.063-23.297,11.571-39.929c3.363-5.086,3.744,5.479,0.185,17.178
	c4.946-12.978,1.308-15.069,2.575-25.778c1.361,3.602,3.179,7.424,4.102,11.229c-3.498-13.621,5.181-22.472,2.423-35.203
	c-1.832-8.445-5.532-13.757-7.402-22.567c1.451-2.227,3.904,5.768,5.89,6.087c-1.275-7.518-5.627-17.407-10.339-24.243
	c-6.189-19.299,18.173,9.179,14.474-0.788c2.858,1.205-4.594-21.874,3.712-6.591c-8.863-32.579-37.89-63.021-64.607-77.303
	c3.261,2.989,7.387,6.738,5.91,7.334c-13.293-7.904-10.959-8.531-12.861-11.87c-18.052-7.354-41.689-9.184-61.8-16.439l0.85,3.995
	c-13.515-4.504-15.747,1.698-30.349,0.009c-0.89-0.69,4.676-2.515,9.267-3.175c-13.063,1.727-12.458-2.58-25.245,0.472
	c3.149-2.207,6.488-3.675,9.848-5.55c-10.651,0.644-25.442,6.197-20.881,1.141C214.604,54.9,183.73,65.79,166.41,82.032
	l-0.545-3.639c-46.118,55.343-80.129,93.885-75.252,171.631c-5.328,96.365,67.635,189.927,147.389,211.521
	c11.69,4.188,29.068,4.04,43.859,4.454c-17.448-4.995-19.695-2.642-36.696-8.568c-12.256-5.783-14.942-12.37-23.63-19.908
	l3.441,6.074c-17.029-6.03-9.905-7.457-23.76-11.837l3.671-4.791c-26.386-2.019-69.489-71.117-67.098-91.507
	c3.259,4.401,5.521,5.226,7.763,5.977c-15.438-38.292-16.303-2.104-27.991-38.977c3.124-31.11-4.836-64.456-2.515-97.458
	c1.1-9.318,9.273-19.236,15.479-34.798l-3.782-0.647c7.23-12.608,41.286-50.658,57.069-48.706c7.64-9.598-1.521-0.037-3.015-2.448
	c15.684-16.229,49.182-30.976,71.211-33.158c2.908,1.649,46.517-1.952,71.26,9.471c28.695,13.42,60.959,53.071,62.23,90.378
	l1.451,0.39C386.217,200.317,387.534,225.764,387.534,225.764"/>
</svg>
