<?xml version="1.0" encoding="utf-8"?>
<!-- Generator: Adobe Illustrator 19.2.1, SVG Export Plug-In . SVG Version: 6.00 Build 0)  -->
<svg version="1.1" id="Work_area" xmlns="http://www.w3.org/2000/svg" xmlns:xlink="http://www.w3.org/1999/xlink" x="0px" y="0px"
	 width="512px" height="512px" viewBox="0 0 512 512" enable-background="new 0 0 512 512" xml:space="preserve">
<g>
	<path fill="#454646" d="M102.5,212.8c0.6,0.9,1.2,1.7,1.8,2.6c3.2,4.3,6.3,8.6,9.5,12.9c0.1,0.1,0.1,0.2,0.2,0.3
		c-3.8,5-7.6,10.1-11.5,15.1c0,0-0.1,0-0.1,0c0-2.5,0-5.1,0-7.7c-0.3,0-0.5,0-0.7,0c-18.9,0-37.7,0-56.6,0c-0.4,0-0.8,0-1.1,0.1
		c-1.7,0.2-2.7,1.3-2.7,3.1c0,2.4,0,4.9,0,7.3c0,2.1,1.2,3.2,3.3,3.2c16,0,32,0,48.1,0c1.4,0,2.9,0.3,4.3,0.7c3.4,1.1,5,3.8,5.4,7.2
		c0.1,0.8,0.1,1.7,0.1,2.5c0,6.7-0.1,13.4,0,20.1c0.1,5.3-5,10.2-9.5,10.2c-0.5,0-1,0.1-1.5,0.1c-21,0-42,0-63,0c-0.3,0-0.6,0-0.9,0
		c0,2.9,0,5.8,0,8.7c-0.1,0-0.1,0-0.2,0.1c-3.8-5.2-7.6-10.4-11.4-15.5c3.8-5,7.6-10,11.5-15.2c0,2.8,0,5.5,0,8.3c0.3,0,0.5,0,0.7,0
		c19.1,0,38.3,0,57.4,0c2.1,0,3.1-1,3.2-3.3c0.1-2.5,0-5-0.1-7.5c0-1.5-0.9-2.4-2.4-2.7c-0.5-0.1-0.9-0.1-1.4-0.1c-18,0-36,0-54,0
		c-2.3,0-3.4-1.1-3.4-3.4c0-9.2,0-18.4,0-27.7c0-2.1,0.3-4.1,1.4-5.9c1.2-2.2,3.2-3.2,5.6-3.6c1.1-0.2,2.2-0.3,3.4-0.3
		c21.2,0,42.3,0,63.5,0c0.3,0,0.6,0,0.9,0c0-3.2,0-6.4,0-9.6C102.4,212.8,102.4,212.8,102.5,212.8z"/>
	<path fill="#454646" d="M496,290.5c-2.9,0-5.8,0-8.7,0c-1.6,0-3.2,0-4.9,0c0-9.1,0-18.1,0-27.2c-15.9,0-31.7,0-47.6,0
		c0,9.1,0,18.1,0,27.2c-4.6,0-9,0-13.6,0c0-0.3,0-0.5,0-0.7c0-19.2,0-38.4,0-57.6c0-2,0.3-4,1.4-5.8c1.2-2.2,3.3-3.2,5.7-3.6
		c1.1-0.2,2.3-0.3,3.4-0.3c18,0,36.1,0,54.1,0c5.5,0,8.9,3.7,10,7.8c0.1,0.2,0.2,0.4,0.2,0.6C496,250.7,496,270.6,496,290.5z
		 M482.4,249.6c0-0.2,0-0.3,0-0.4c0-3.4,0-6.7,0-10.1c0-0.5-0.3-1.1-0.5-1.6c-0.7-1.2-2-1.5-3.3-1.5c-13.2,0-26.5,0-39.7,0
		c-0.4,0-0.8,0-1.1,0.1c-1.9,0.2-2.9,1.3-2.9,3.2c0,3.2,0,6.4,0,9.7c0,0.2,0,0.4,0,0.7C450.7,249.6,466.5,249.6,482.4,249.6z"/>
	<path fill="#454646" d="M329.9,290.5c0-22.7,0-45.4,0-68.1c0.2,0,0.5,0,0.7,0c21.4,0,42.8,0,64.2,0c5.8,0,9.3,4.7,9.9,8.8
		c0.1,0.6,0.1,1.2,0.1,1.8c0,6.4-0.1,12.8,0,19.3c0,2.3-1.3,3.6-3.1,4.1c0.4,0.2,0.7,0.3,1.1,0.5c1.3,0.6,2.1,1.6,2,3.1
		c0,6.7,0,13.4,0,20.1c0,4.4-3.2,8.7-7.5,9.9c-0.9,0.2-1.8,0.4-2.7,0.4c-21.3,0-42.7,0-64,0C330.3,290.5,330.1,290.5,329.9,290.5z
		 M343.5,263.2c0,0.3,0,0.5,0,0.7c0,4.1,0,8.1,0,12.2c0,0.6,0.2,0.7,0.8,0.7c14.6,0,29.2,0,43.8,0c2,0,3.2-1.1,3.2-3.1
		c0-2.4,0-4.8,0-7.2c0-0.6-0.2-1.3-0.5-1.8c-0.7-1.2-1.9-1.4-3.1-1.4c-14.4,0-28.9,0-43.3,0C343.9,263.2,343.7,263.2,343.5,263.2z
		 M343.5,249.6c0.3,0,0.5,0,0.8,0c14.5,0,29,0,43.5,0c2.2,0,3.3-1.1,3.3-3.3c0-2.3,0-4.6,0-6.9c0-0.3,0-0.6-0.1-0.9
		c-0.4-1.6-1.7-2.5-3.6-2.5c-14.5,0-28.9,0-43.4,0c-0.2,0-0.4,0-0.6,0C343.5,240.6,343.5,245.1,343.5,249.6z"/>
	<path fill="#454646" d="M230.9,290.4c-4.6,0-9,0-13.6,0c0-0.2,0-0.5,0-0.7c0-19.3,0-38.6,0-57.8c0-2.4,0.5-4.7,2-6.6
		c1.3-1.6,3-2.4,5-2.7c1.1-0.2,2.3-0.3,3.4-0.3c11.2,0,22.4,0,33.6,0c1.9,0,3.1,0.8,3.8,2.6c0,0.1,0.1,0.2,0.2,0.4
		c0.2-0.4,0.4-0.8,0.5-1.1c0.6-1.3,1.6-1.9,3-1.9c11.2,0,22.5,0,33.7,0c6,0,9.6,5,10,9c0.1,0.5,0.1,1.1,0.1,1.6
		c0,18.8,0,37.7,0,56.5c0,0.3,0,0.5,0,0.8c-4.5,0-9,0-13.6,0c0-0.2,0-0.5,0-0.8c0-16.7,0-33.3,0-50c0-2.3-1.3-3.6-3.5-3.6
		c-6.7,0-13.5,0-20.2,0c-0.2,0-0.4,0-0.6,0c-1.9,0.2-2.9,1.2-2.9,3.1c0,0.2,0,0.4,0,0.6c0,16.5,0,33.1,0,49.6c0,0.3,0,0.6,0,0.9
		c-4.5,0-9,0-13.6,0c0-0.3,0-0.6,0-0.9c0-16.6,0-33.2,0-49.8c0-1.8-0.8-3-2.2-3.5c-0.5-0.2-1-0.2-1.5-0.2c-6.6,0-13.2,0-19.8,0
		c-0.4,0-0.8,0-1.2,0.1c-1.5,0.3-2.4,1.3-2.5,2.9c0,0.7,0,1.3,0,2c0,16.2,0,32.4,0,48.6C230.9,289.8,230.9,290.1,230.9,290.4z"/>
	<path fill="#454646" d="M198.5,290.4c-4.6,0-9,0-13.6,0c0-9.1,0-18.1,0-27.1c-15.9,0-31.7,0-47.6,0c0,9,0,18.1,0,27.1
		c-4.6,0-9,0-13.6,0c0-0.3,0-0.5,0-0.7c0-19.2,0-38.5,0-57.7c0-1.2,0.2-2.4,0.5-3.6c0.8-3.4,3.1-5.2,6.5-5.7
		c1.1-0.2,2.3-0.3,3.4-0.3c18.1,0,36.2,0,54.3,0c6.2,0,10.1,5.3,10.1,10.1c0,19.1,0,38.1,0,57.2
		C198.5,289.9,198.5,290.1,198.5,290.4z M184.8,249.6c0-0.2,0-0.3,0-0.4c0-3.3,0-6.6,0-10c0-0.6-0.3-1.3-0.7-1.9
		c-0.7-1.1-1.9-1.3-3.2-1.3c-13.3,0-26.6,0-39.9,0c-0.2,0-0.4,0-0.6,0c-2.3,0.2-3.2,1.2-3.2,3.5c0,3.1,0,6.2,0,9.3
		c0,0.2,0,0.5,0,0.8C153.1,249.6,169,249.6,184.8,249.6z"/>
</g>
</svg>
