<?xml version="1.0" encoding="utf-8"?>
<!-- Generator: Adobe Illustrator 19.1.0, SVG Export Plug-In . SVG Version: 6.00 Build 0)  -->
<svg version="1.1" id="Layer_1" xmlns="http://www.w3.org/2000/svg" xmlns:xlink="http://www.w3.org/1999/xlink" x="0px" y="0px"
	 viewBox="0 0 512 512" style="enable-background:new 0 0 512 512;" xml:space="preserve">
<path fill="#454646" class="st0" d="M116.5,157.6c0-15.5,12.6-29.2,28.2-30.5l263.6-22.9c0.5,0,0.9,0,1.4-0.1l-27.9-27.5c-0.3-0.3-0.5-0.5-0.8-0.8
	c-0.1-0.1-0.3-0.2-0.4-0.3s-0.3-0.2-0.4-0.3s-0.3-0.2-0.4-0.3c-0.2-0.2-0.5-0.3-0.8-0.5c-0.1-0.1-0.2-0.1-0.3-0.2
	c-0.1,0-0.1-0.1-0.2-0.1c-0.4-0.2-0.8-0.5-1.2-0.7c-0.1,0-0.1-0.1-0.2-0.1c0,0,0,0-0.1,0c-0.3-0.2-0.6-0.3-0.9-0.4
	c-0.2-0.1-0.5-0.2-0.7-0.3c-0.1,0-0.2-0.1-0.3-0.1c-0.1,0-0.2-0.1-0.2-0.1c-0.4-0.1-0.8-0.3-1.2-0.4c-0.1,0-0.2,0-0.2-0.1
	c-0.1,0-0.2,0-0.3-0.1c-0.3-0.1-0.5-0.1-0.8-0.2c-0.3-0.1-0.6-0.1-0.9-0.1c-0.1,0-0.2,0-0.2,0c-0.1,0-0.1,0-0.2,0
	c-0.5-0.1-1-0.1-1.5-0.1c-0.1,0-0.2,0-0.3,0h-0.1c-0.4,0-0.8,0-1.2,0c-0.3,0-0.6,0-0.9,0.1L103.5,94.4c-0.4,0-0.7,0.1-1.1,0.1
	c-0.2,0-0.5,0.1-0.7,0.1c-0.2,0-0.3,0.1-0.5,0.1c-0.6,0.1-1.2,0.3-1.7,0.4c-0.6,0.2-1.1,0.3-1.6,0.5c-0.3,0.1-0.9,0.4-1.2,0.5
	c-0.4,0.2-0.8,0.4-1.2,0.6c-0.1,0-0.2,0.1-0.3,0.1c-0.9,0.5-1.8,1-2.6,1.7c0,0-0.1,0-0.1,0.1c-0.3,0.2-0.6,0.5-1,0.8
	c-0.2,0.1-0.3,0.3-0.5,0.4l-0.1,0.1c-0.1,0.1-0.2,0.2-0.4,0.3c-0.2,0.2-0.5,0.4-0.7,0.6c-0.1,0.2-0.3,0.3-0.4,0.5l-0.1,0.1
	c-0.1,0.1-0.3,0.3-0.4,0.4c-0.2,0.3-0.5,0.5-0.7,0.8c-0.1,0.1-0.2,0.2-0.3,0.4c-0.2,0.3-0.4,0.5-0.6,0.8c-0.1,0.2-0.3,0.4-0.4,0.6
	c0,0,0,0.1-0.1,0.1c-0.1,0.1-0.1,0.2-0.2,0.3c-0.2,0.3-0.4,0.7-0.6,1c0,0.1-0.1,0.1-0.1,0.2c-0.1,0.1-0.1,0.2-0.2,0.3
	c-0.1,0.2-0.2,0.3-0.3,0.5c-0.2,0.3-0.3,0.7-0.5,1c0,0,0,0,0,0.1s-0.1,0.2-0.1,0.3c-0.1,0.2-0.2,0.4-0.3,0.7
	c-0.1,0.2-0.1,0.4-0.2,0.7c-0.1,0.2-0.1,0.4-0.2,0.5c-0.1,0.3-0.2,0.7-0.3,1.1c-0.1,0.2-0.1,0.4-0.1,0.6v0.1c0,0.2-0.1,0.4-0.1,0.6
	c-0.1,0.5-0.1,0.9-0.2,1.4s-0.1,1.1-0.1,1.6v0.4l-0.2,65.7c0,0.3,0.1,0.6,0.4,0.8l11.9,11.7c0.7,0.7,0.3,1.9-0.7,2L84,197
	c-0.6,0.1-1.1,0.6-1.1,1.2l0.4,98.8c0,0.3,0.1,0.6,0.4,0.8l11.4,11.9c0.7,0.7,0.3,1.9-0.7,2l-10.1,0.9c-0.6,0.1-1.1,0.6-1.1,1.2
	L83.1,381c0,0.5,0,1.1,0.1,1.6v0.1c0,0.3,0.1,0.6,0.1,1c0,0.3,0.1,0.6,0.1,0.9c0,0.3,0.1,0.5,0.2,0.8c0.1,0.3,0.2,0.7,0.3,1
	c0,0.1,0,0.1,0.1,0.2c0.2,0.7,0.4,1.3,0.7,2c0,0,0,0.1,0.1,0.1c0.1,0.3,0.3,0.7,0.5,1c0.1,0.2,0.2,0.4,0.3,0.6
	c0.2,0.3,0.4,0.6,0.6,0.9c0.1,0.2,0.2,0.4,0.3,0.5c0.2,0.3,0.4,0.6,0.7,0.9c0.1,0.2,0.2,0.3,0.4,0.5c0.4,0.4,0.7,0.8,1.1,1.2
	l25.8,25.5c0.7,0.7,2,0.2,2-0.8L116.5,157.6L116.5,157.6z M197.2,348.6v14.6c0,0.2,0,0.5,0.2,0.7c0.1,0.1,0.3,0.2,0.6,0.2
	c0.1,0,0.1,0,0.2,0l156.1-13.7c1.3-0.1,2.6-1.5,2.6-2.8V333v-8l0,0v-6.7l-0.4-100.4v-8h0.2l0.2-7v-12.6c0-0.2,0-0.5-0.2-0.7
	c-0.1-0.1-0.3-0.2-0.6-0.2c-0.1,0-0.1,0-0.2,0l-31.4,2.7c-0.6,0.1-1.1,0.6-1.1,1.2l0.3,83c0,0.3,0.1,0.6,0.4,0.8l11.5,11.4
	c0.7,0.7,0.3,1.9-0.7,2l-10.1,0.9c-0.6,0.1-1.1,0.6-1.1,1.2V306c0,0.1,0,0.2,0,0.2c0,0.3,0,0.6-0.1,0.9c0,0.3-0.1,0.5-0.1,0.7
	s-0.1,0.4-0.1,0.6s-0.1,0.4-0.2,0.6c0,0,0,0,0,0.1c-0.1,0.2-0.1,0.4-0.2,0.6s-0.1,0.4-0.2,0.6c0,0,0,0.1-0.1,0.2
	c-0.1,0.2-0.1,0.3-0.2,0.5c-0.1,0.1-0.1,0.3-0.2,0.4c-0.1,0.2-0.2,0.3-0.3,0.5c-0.1,0.2-0.2,0.4-0.3,0.5c-0.1,0.2-0.3,0.4-0.4,0.5
	c-0.1,0.2-0.3,0.4-0.5,0.5c-0.1,0.2-0.3,0.4-0.5,0.5c0,0,0,0-0.1,0.1c-0.2,0.2-0.4,0.4-0.6,0.5c-0.2,0.2-0.5,0.4-0.8,0.7
	c0,0-0.1,0-0.1,0.1c-0.4,0.3-0.8,0.5-1.2,0.7c-0.1,0-0.2,0.1-0.2,0.1c-0.7,0.4-1.4,0.7-2.2,0.9c-0.5,0.2-1.1,0.3-1.7,0.4
	c-0.2,0-0.3,0-0.5,0.1l-114.8,10c-0.6,0.1-1.1,0.6-1.1,1.2v5v5.2l0,0v0.5v2.3l0,0L197.2,348.6z M145.4,135.8
	c-11.1,1-20.2,10.7-20.2,21.8l-0.2,64.9c0,0.7,0.6,1.2,1.3,1.2l61-5.3c0.6-0.1,1.1-0.6,1.1-1.2v-11.5c0-5.8,4.8-10.9,10.5-11.4
	L355,180.7c0.3,0,0.6,0,1,0c5.4,0,9.5,4.1,9.5,9.6v11.3c0,0.7,0.6,1.2,1.3,1.2l61-5.3c0.6-0.1,1.1-0.6,1.1-1.2l0.2-65.1
	c0-10.5-8.1-18.4-18.4-18.4c-0.6,0-1.1,0-1.7,0.1L145.4,135.8z M186.8,232.1l-61,5.3c-0.6,0.1-1.1,0.6-1.1,1.2l-1,100.9
	c0,0.7,0.6,1.2,1.3,1.2l61-5.3c0.6-0.1,1.1-0.6,1.1-1.2l1-100.9C188.1,232.6,187.5,232,186.8,232.1z M365.2,217.5l0.4,100.9
	c0,0.7,0.6,1.2,1.3,1.2l61-5.3c0.6-0.1,1.1-0.6,1.1-1.2l-0.4-100.9c0-0.7-0.6-1.2-1.3-1.2l-61,5.3
	C365.7,216.4,365.2,216.9,365.2,217.5z M365.5,347.6c0,5.8-4.8,10.9-10.5,11.4l-156.1,13.7c-0.3,0-0.6,0-1,0c-5.3,0-9.5-4.1-9.5-9.6
	v-13.3c0-0.7-0.6-1.2-1.3-1.2l-61,5.4c-0.6,0.1-1.1,0.6-1.1,1.2l-0.1,67.1c0,10.5,8,18.4,18.3,18.4c0.6,0,1.2,0,1.8-0.1l263.6-23.1
	c11.1-1,20.1-10.8,20.2-21.8l0.1-66.9c0-0.7-0.6-1.2-1.3-1.2l-61,5.3c-0.6,0.1-1.1,0.6-1.1,1.2L365.5,347.6z"/>
</svg>
