<?xml version="1.0" encoding="utf-8"?>
<!-- Generator: Adobe Illustrator 16.0.4, SVG Export Plug-In . SVG Version: 6.00 Build 0)  -->
<!DOCTYPE svg PUBLIC "-//W3C//DTD SVG 1.1//EN" "http://www.w3.org/Graphics/SVG/1.1/DTD/svg11.dtd">
<svg version="1.1" id="Layer_1" xmlns="http://www.w3.org/2000/svg" xmlns:xlink="http://www.w3.org/1999/xlink" x="0px" y="0px"
	 width="512px" height="512px" viewBox="0 0 512 512" enable-background="new 0 0 512 512" xml:space="preserve">
<path fill-rule="evenodd" clip-rule="evenodd" fill="#454646" d="M348.412,317.523c-4.75-0.386-8.365-0.931-12.031-0.931
	c-31.212-0.072-62.445,0.069-93.677-0.152c-6.644-0.062-13.53-0.527-19.839-2.35c-18.25-5.308-27.708-19.243-26.352-37.29
	c1.195-15.666,14.259-29.085,31.486-31.708c7.454-1.134,15.059-1.802,22.594-1.771c68.885,0.284,137.762,0.748,206.637,1.194
	c2.583,0.009,5.164,0.233,8.77,0.395c-1.084,2.664-1.712,4.771-2.745,6.654c-32.458,59.731-65.027,119.381-97.313,179.192
	c-3.17,5.863-6.674,8.264-13.541,8.243c-65.372-0.253-130.753-0.253-196.125-0.021c-6.805,0.03-10.441-2.349-13.682-8.213
	c-31.273-56.703-62.77-113.284-94.427-169.773c-2.927-5.227-2.856-9.257,0-14.432c30.24-55.285,60.318-110.641,90.214-166.108
	c2.856-5.286,5.985-7.474,12.152-7.453c68.583,0.242,137.175,0.242,205.777,0.132c5.135,0,8.547,1.175,11.383,5.925
	c24.468,41.115,49.178,82.071,73.788,123.096c0.87,1.459,1.438,3.11,2.177,4.82c-0.951,0.589-1.661,1.398-2.369,1.409
	c-25.389,0.101-50.768,0.323-76.167-0.111c-2.907-0.041-6.684-3.211-8.456-5.955c-10.421-16.174-20.579-32.55-30.372-49.107
	c-3.342-5.631-7.17-8.354-13.895-8.325c-37.643,0.174-75.307,0.081-112.96-0.12c-5.752-0.032-8.943,2.399-11.596,7.312
	c-17.854,33.126-35.84,66.171-54.08,99.095c-2.785,5.022-2.481,8.831,0.223,13.682c19.404,34.614,38.625,69.312,57.635,104.13
	c2.927,5.346,6.481,7.291,12.487,7.261c33.855-0.233,67.721-0.233,101.587,0c5.995,0.03,9.54-2.025,12.537-7.251
	c8.588-14.917,17.753-29.501,26.615-44.246C346.001,322.841,346.842,320.754,348.412,317.523z"/>
</svg>
