<?xml version="1.0" encoding="utf-8"?>
<!-- Generator: Adobe Illustrator 16.0.4, SVG Export Plug-In . SVG Version: 6.00 Build 0)  -->
<!DOCTYPE svg PUBLIC "-//W3C//DTD SVG 1.1//EN" "http://www.w3.org/Graphics/SVG/1.1/DTD/svg11.dtd">
<svg version="1.1" id="Layer_1" xmlns="http://www.w3.org/2000/svg" xmlns:xlink="http://www.w3.org/1999/xlink" x="0px" y="0px"
	 width="512px" height="512px" viewBox="0 0 512 512" enable-background="new 0 0 512 512" xml:space="preserve">
<g>
	<g>
		<g>
			<g>
				<g>
					<path fill="#454646" d="M290.875,195.654l14.51-11.526l12.126,14.009l61.832,71.43V140.713c0-7.973-5.379-18.201-11.927-22.711
						l-99.48-68.615c-6.557-4.515-17.305-4.515-23.862,0l-99.489,68.61c-6.557,4.524-11.927,14.744-11.927,22.716v180.663
						L290.875,195.654z M256,83.019c12.002,0,21.729,9.742,21.729,21.749c0,12.002-9.728,21.751-21.739,21.73
						c-12.001,0-21.738-9.723-21.738-21.73C234.27,92.761,243.997,83.019,256,83.019z"/>
				</g>
			</g>
			<g>
				<polygon fill="#454646" points="379.303,365.893 379.303,299.051 302.895,210.784 132.657,346.06 132.657,401.423 
					296.848,270.73 				"/>
			</g>
			<g>
				<path fill="#454646" d="M364.698,378.546l-70.314-81.153L144.697,416.543l-12.04,9.577v25.387
					c0,7.964,6.53,14.493,14.493,14.493h217.698c7.974,0,14.494-6.52,14.494-14.493v-56.063L364.698,378.546z"/>
			</g>
		</g>
	</g>
</g>
</svg>
