<?xml version="1.0" encoding="utf-8"?>
<!-- Generator: Adobe Illustrator 18.1.1, SVG Export Plug-In . SVG Version: 6.00 Build 0)  -->
<svg version="1.1" id="Ebene_1" xmlns="http://www.w3.org/2000/svg" xmlns:xlink="http://www.w3.org/1999/xlink" x="0px" y="0px"
	 width="512px" height="512px" viewBox="0 0 512 512" enable-background="new 0 0 512 512" xml:space="preserve">
<path fill-rule="evenodd" clip-rule="evenodd" fill="#454646" d="M347.6,301.1c0,0-2.2-7.9,6-23s14.7-6.9,14.7-6.9s7.1,7.7-1,19.1
	C359.3,301.9,347.6,301.1,347.6,301.1z M284.2,312c-9.5,24.8-32.4,14.7-32.4,14.7s-2.6-8.9,4.8-33.6c7.5-24.8,25-15.1,25-15.1
	S293.6,287.2,284.2,312z M267,208.2c0,0,14.3-37.3,17.7-19.1s-30,72.1-30,72.1C255.1,249.1,267,208.2,267,208.2z M62.5,301.1
	c0.6-24,16.3-34.5,21.8-29.2c5.4,5.2,3.4,16.5-6.9,23.6S62.5,301.1,62.5,301.1z M495.9,297.1c-0.8-8.1-8.1-5.1-8.1-5.1
	s-11.7,9.1-22,8.1c-10.3-1-7.1-24-7.1-24s2.2-21.1-3.8-22.8c-6-1.8-13.5,5.5-13.5,5.5s-9.3,10.3-13.7,23.4l-1.2,0.4
	c0,0,1.4-23-0.2-28.2c-1.2-2.6-12.3-2.4-14.1,2.2c-1.8,4.6-10.7,36.9-11.3,50.4c0,0-17.3,14.7-32.4,17.1
	c-15.1,2.4-18.7-7.1-18.7-7.1s41.1-11.5,39.7-44.3s-33.1-20.7-36.7-18c-3.5,2.6-22,13.8-27.4,44.8c-0.2,1.1-0.5,5.7-0.5,5.7
	s-15.9,10.7-24.8,13.5c0,0,24.8-41.7-5.4-60.6c-13.7-8.3-24.6,9.1-24.6,9.1s40.9-45.5,31.8-84c-4.3-18.3-13.5-20.3-21.9-17.3
	c-12.8,5-17.6,12.5-17.6,12.5s-16.5,24-20.3,59.6c-3.8,35.7-9.5,78.8-9.5,78.8s-7.9,7.7-15.1,8.1s-4-21.6-4-21.6s5.6-33.4,5.2-39.1
	c-0.4-5.6-0.8-8.7-7.5-10.7c-6.6-2-13.9,6.4-13.9,6.4s-19.1,29-20.8,33.4l-1,1.8l-1-1.2c0,0,13.5-39.5,0.6-40.1
	c-12.9-0.6-21.4,14.1-21.4,14.1s-14.7,24.6-15.3,27.4l-1-1.2c0,0,6-28.6,4.8-35.7c-1.2-7.1-7.9-5.6-7.9-5.6s-8.5-1-10.7,4.4
	c-2.2,5.4-10.3,41.5-11.3,53c0,0-21.2,15.1-35.1,15.3S65,316.7,65,316.7s51-17.4,37.1-51.9c-6.2-8.9-13.5-11.7-23.8-11.5
	c-10.3,0.2-23,6.5-31.3,25c-3.9,8.8-5.4,17.2-6.2,23.6c0,0-8.9,1.8-13.8-2.2s-7.3,0-7.3,0s-8.3,10.6,0,13.8
	c8.3,3.2,21.2,4.7,21.2,4.7h0c1.2,5.6,4.6,15.2,14.7,22.9c15.1,11.5,44.1-1.1,44.1-1.1l11.9-6.7c0,0,0.4,10.9,9.1,12.5
	c8.7,1.6,12.3,0,27.4-36.7c8.9-18.7,9.5-17.7,9.5-17.7l1-0.2c0,0-6.9,35.9-4.2,45.5c2.6,9.7,14.1,8.7,14.1,8.7s6.2,1.2,11.3-16.5
	c5-17.7,14.7-37.3,14.7-37.3h1.2c0,0-4.2,36.7,2.2,48.4c6.4,11.7,23.2,3.9,23.2,3.9s11.7-5.9,13.5-7.7c0,0,13.9,11.8,33.4,9.7
	c43.7-8.6,59.3-20.2,59.3-20.2s7.5,19,30.8,20.8c26.6,2,41.1-14.7,41.1-14.7s-0.2,10.9,9.1,14.7c9.3,3.8,15.5-17.7,15.5-17.7
	l15.5-42.8h1.4c0,0,0.8,27.8,16.1,32.2c15.3,4.4,35.3-10.4,35.3-10.4S496.7,305.2,495.9,297.1z"/>
</svg>
