<?xml version="1.0" encoding="utf-8"?>
<!-- Generator: Adobe Illustrator 16.0.4, SVG Export Plug-In . SVG Version: 6.00 Build 0)  -->
<!DOCTYPE svg PUBLIC "-//W3C//DTD SVG 1.1//EN" "http://www.w3.org/Graphics/SVG/1.1/DTD/svg11.dtd">
<svg version="1.1" id="Layer_1" xmlns="http://www.w3.org/2000/svg" xmlns:xlink="http://www.w3.org/1999/xlink" x="0px" y="0px"
	 width="512px" height="512px" viewBox="0 0 512 512" enable-background="new 0 0 512 512" xml:space="preserve">
<g id="androd">
	<path fill="#454646" d="M309.905,82.378l20.996-30.485c1.247-1.813,0.935-4.192-0.697-5.318c-1.624-1.114-3.962-0.564-5.197,1.251
		l-21.82,31.672c-14.38-5.668-30.348-8.818-47.18-8.818c-16.829,0-32.801,3.15-47.181,8.818l-21.816-31.674
		c-1.251-1.805-3.584-2.363-5.213-1.249c-1.632,1.126-1.936,3.505-0.689,5.316l21,30.487
		c-33.391,15.535-56.811,45.058-59.793,79.513h227.375C366.711,127.436,343.296,97.913,309.905,82.378z M208.506,130.436
		c-6.948,0-12.58-5.629-12.58-12.58s5.627-12.582,12.58-12.582c6.944,0,12.575,5.629,12.575,12.582
		C221.081,124.8,215.45,130.436,208.506,130.436z M303.494,130.436c-6.944,0-12.576-5.629-12.576-12.58
		c0-6.952,5.632-12.582,12.576-12.582c6.952,0,12.583,5.631,12.583,12.582C316.078,124.8,310.446,130.436,303.494,130.436z"/>
	<path fill="#454646" d="M127.713,305.571c0,14.007-11.353,25.364-25.364,25.364l0,0c-14.007,0-25.364-11.357-25.364-25.364V202.975
		c0-14.007,11.357-25.362,25.364-25.362l0,0c14.011,0,25.364,11.355,25.364,25.362V305.571z"/>
	<path fill="#454646" d="M142.311,178.396v185.299c0,11.002,8.921,19.925,19.929,19.925h23.572v57.016
		c0,14.011,11.353,25.364,25.364,25.364c14.007,0,25.364-11.353,25.364-25.364V383.62h38.924v57.016
		c0,14.011,11.353,25.364,25.364,25.364c14.007,0,25.364-11.353,25.364-25.364V383.62h23.572c11.008,0,19.925-8.913,19.925-19.925
		V178.396H142.311z"/>
	<path fill="#454646" d="M384.287,305.571c0,14.007,11.357,25.364,25.364,25.364l0,0c14.011,0,25.364-11.357,25.364-25.364V202.975
		c0-14.007-11.353-25.362-25.364-25.362l0,0c-14.007,0-25.364,11.355-25.364,25.362V305.571z"/>
</g>
</svg>
