<?xml version="1.0" encoding="utf-8"?>
<!-- Generator: Adobe Illustrator 16.0.4, SVG Export Plug-In . SVG Version: 6.00 Build 0)  -->
<!DOCTYPE svg PUBLIC "-//W3C//DTD SVG 1.1//EN" "http://www.w3.org/Graphics/SVG/1.1/DTD/svg11.dtd">
<svg version="1.1" id="Layer_1" xmlns="http://www.w3.org/2000/svg" xmlns:xlink="http://www.w3.org/1999/xlink" x="0px" y="0px"
	 width="512px" height="512px" viewBox="0 0 512 512" enable-background="new 0 0 512 512" xml:space="preserve">
<path fill="#454646" d="M46,354.33c0-65.403,0-130.806,0-196.209c0.438-1.124,1.111-2.211,1.275-3.372
	c3.228-22.489,19.396-40.388,41.368-45.773c2.628-0.644,5.209-1.489,7.81-2.244c106.513,0,213.026,0,319.535,0
	c0.936,0.439,1.833,1.112,2.814,1.276c27.874,4.708,47.184,27.53,47.192,55.875c0.008,60.576,0.012,121.151-0.033,181.723
	c-0.004,3.716-0.296,7.453-0.771,11.136c-3.65,28.166-26.967,48.521-55.51,48.521c-102.309,0.008-204.618,0.008-306.923,0
	c-26.606,0-48.558-17.432-54.751-43.427C47.407,359.317,46.673,356.832,46,354.33z M259.44,139.048
	c1.05,6.292,2.724,11.759,2.756,17.239c0.238,36.114,0.41,72.232,0.045,108.346c-0.365,36.008,1.714,72.068-1.497,108.831
	c4.298,0,9.224-0.188,14.125,0.062c3.806,0.193,6.361-1.472,7.912-4.606c1.226-2.473,2.383-5.156,2.728-7.854
	c0.877-6.911,0.685-13.995,1.989-20.807c3.855-20.139,15.914-34.059,34.941-40.95c19.507-7.067,38.107-4.064,54.296,9.393
	c13.084,10.881,19.203,25.089,19.396,42.201c0.066,5.898,1.727,11.874,3.4,17.6c0.574,1.96,3.265,4.434,5.209,4.651
	c5.635,0.624,11.386,0.221,16.689,0.221c-0.456-9.942-0.668-19.351-1.366-28.727c-1.198-16.012-5.66-30.996-16.603-43.152
	c-5.874-6.521-12.76-12.124-19.277-18.227c0.533-0.341,1.575-0.977,2.584-1.666c12.912-8.851,22.854-20.167,28.333-34.974
	c2.806-7.579,5.332-15.331,3.084-23.621c-1.124-4.138-3.257-6.915-8.195-6.53c-3.708,0.292-7.473,0.177-11.197,0.025
	c-2.822-0.119-3.855,0.911-3.786,3.786c0.086,3.396,0.16,6.915-0.599,10.188c-5.459,23.662-27.525,41.081-51.884,41.232
	c-17.94,0.115-34.371,4.869-48.698,15.988c-2.281,1.771-4.471,3.65-7.306,5.972c0-2.444,0-4.114,0-5.783
	c0-42.5,0.099-84.997-0.126-127.497c-0.024-5.156-1.309-10.471-2.986-15.377c-0.816-2.387-3.696-5.373-5.977-5.697
	C271.676,138.502,265.724,139.048,259.44,139.048z M89.464,209.808c0,5.394,0.254,10.188-0.074,14.946
	c-0.32,4.643,1.759,7.764,5.771,9.023c4.827,1.505,9.921,2.892,14.925,2.986c19.917,0.365,39.847,0.086,59.772,0.271
	c21.889,0.197,41.717,14.515,49.214,35.241c2.26,6.255,1.755,7.005-4.91,7.005c-38.136,0.012-76.276,0.004-114.413,0.012
	c-1.862,0.004-3.749-0.062-5.594,0.181c-2.756,0.361-4.766,1.812-4.626,4.856c0.385,8.363-0.213,16.968,1.583,25.028
	c7.973,35.773,39.92,61.031,76.576,61.24c18.523,0.103,37.049-0.168,55.568,0.119c6.616,0.107,13.203,1.481,19.823,1.998
	c1.239,0.099,3.441-0.829,3.745-1.76c4.487-13.744-2.309-23.608-16.685-24.474c-1.702-0.107-3.42-0.062-5.131-0.062
	c-18.99-0.004-37.984,0-56.975-0.004c-22.296-0.004-43.39-14.659-51.204-35.568c-2.313-6.185-1.448-7.449,5.184-7.449
	c24.592-0.012,49.186-0.004,73.783-0.004c14.942,0,29.888-0.058,44.83,0.033c3.851,0.025,5.869-1.341,5.779-5.406
	c-0.131-6.021,0.484-12.12-0.271-18.055c-4.811-37.771-38.312-67.052-76.514-67.15c-17.28-0.042-34.56,0.073-51.835-0.05
	c-6.202-0.045-12.412-0.426-18.592-0.956C96.174,211.551,93.213,210.604,89.464,209.808z"/>
</svg>
