<?xml version="1.0" encoding="utf-8"?>
<!-- Generator: Adobe Illustrator 18.1.1, SVG Export Plug-In . SVG Version: 6.00 Build 0)  -->
<svg version="1.1" id="Ebene_1" xmlns="http://www.w3.org/2000/svg" xmlns:xlink="http://www.w3.org/1999/xlink" x="0px" y="0px"
	 width="512px" height="512px" viewBox="0 0 512 512" enable-background="new 0 0 512 512" xml:space="preserve">
<g>
	<rect x="150.7" y="242" fill="#454646" width="61.4" height="83.3"/>
	<rect x="299.9" y="242" fill="#454646" width="61.3" height="83.3"/>
	<rect x="126.7" y="343.2" fill="#454646" width="85.4" height="122.8"/>
	<rect x="299.9" y="343.2" fill="#454646" width="85.3" height="122.8"/>
	<polygon fill="#454646" points="230.1,466 281.9,466 281.9,223.9 334.2,223.9 334.2,204.8 177.8,204.8 177.8,223.9 230.1,223.9 	
		"/>
	<path fill="#454646" d="M273.3,165.4v-64c0.1-5.3-4.1-9.5-9.3-9.7c0-0.2,0.1-0.3,0.1-0.5V53.7c0-4.2-3.5-7.7-7.7-7.7
		c-4.2,0-7.7,3.5-7.7,7.7v37.6c0,0.2,0.1,0.3,0.1,0.5c-5.2,0.2-9.3,4.3-9.3,9.6v64.1h-30.2v21.3h93.7v-21.3H273.3z"/>
</g>
</svg>
