<?xml version="1.0" encoding="utf-8"?>
<!-- Generator: Adobe Illustrator 19.2.1, SVG Export Plug-In . SVG Version: 6.00 Build 0)  -->
<svg version="1.1" id="Layer_1" xmlns="http://www.w3.org/2000/svg" xmlns:xlink="http://www.w3.org/1999/xlink" x="0px" y="0px"
	 width="512px" height="512px" viewBox="0 0 512 512" enable-background="new 0 0 512 512" xml:space="preserve">
<g>
	<path fill="#454646" d="M365.904,69.744L205.375,230.273c-37.457-10.623-79.404-1.211-108.886,28.264
		c-25.309,25.309-35.816,59.799-31.574,92.74l62.888-62.874l75.557,20.241l20.246,75.563l-62.887,62.874
		c32.952,4.247,67.44-6.251,92.748-31.56c29.481-29.489,38.893-71.429,28.264-108.886l160.527-160.527
		c7.656-7.656,7.657-20.069,0.002-27.726l-48.626-48.637C385.977,62.088,373.562,62.087,365.904,69.744z"/>
	<polygon fill="#454646" points="112.793,399.204 100.353,352.769 134.347,318.778 180.78,331.22 193.223,377.655 159.229,411.646 	
		"/>
</g>
</svg>
