<?xml version="1.0" encoding="utf-8"?>
<!-- Generator: Adobe Illustrator 16.0.4, SVG Export Plug-In . SVG Version: 6.00 Build 0)  -->
<!DOCTYPE svg PUBLIC "-//W3C//DTD SVG 1.1//EN" "http://www.w3.org/Graphics/SVG/1.1/DTD/svg11.dtd">
<svg version="1.1" id="Layer_1" xmlns="http://www.w3.org/2000/svg" xmlns:xlink="http://www.w3.org/1999/xlink" x="0px" y="0px"
	 width="512px" height="512px" viewBox="0 0 512 512" enable-background="new 0 0 512 512" xml:space="preserve">
<g>
	<g>
		<path fill="#454646" d="M256,66c-55.082,0-104.672,23.472-139.379,60.925l44.96,22.479C186.739,127.093,219.804,113.5,256,113.5
			c78.574,0,142.5,63.93,142.5,142.51c0,78.57-63.926,142.49-142.5,142.49c-36.196,0-69.266-13.583-94.424-35.895l-44.955,22.471
			C151.324,422.538,200.912,446,256,446c104.932,0,190-85.063,190-189.99C446,151.072,360.932,66,256,66z"/>
	</g>
	<polygon fill="#454646" points="66,142 66,370 293.999,256 	"/>
</g>
</svg>
