<?xml version="1.0" encoding="utf-8"?>
<!-- Generator: Adobe Illustrator 16.0.4, SVG Export Plug-In . SVG Version: 6.00 Build 0)  -->
<!DOCTYPE svg PUBLIC "-//W3C//DTD SVG 1.1//EN" "http://www.w3.org/Graphics/SVG/1.1/DTD/svg11.dtd">
<svg version="1.1" id="Layer_1" xmlns="http://www.w3.org/2000/svg" xmlns:xlink="http://www.w3.org/1999/xlink" x="0px" y="0px"
	 width="512px" height="512px" viewBox="0 0 512 512" enable-background="new 0 0 512 512" xml:space="preserve">
<g>
	<g>
		<g>
			<path fill="#454646" d="M78.565,195.557c0.819,0,12.56,0,12.56,0l3.48-6.127c1.218-1.85,2.201-3.871,3.224-5.666l6.214-10.951
				l23.071-40.625c3.685-6.471,9.403-11.763,16.851-11.763h224.07c7.446,0,13.166,5.292,16.85,11.763l23.073,40.625l6.213,10.951
				h0.008l6.696,11.793c0,0,12.216,0,12.559,0c6.908,0,9.554-5.307,5.869-11.793l-54.401-95.8
				c-3.685-6.486-9.413-11.794-16.866-11.794h-224.07c-7.461,0-13.183,5.308-16.867,11.794l-54.401,95.8
				C69.013,190.25,71.658,195.557,78.565,195.557z"/>
		</g>
		<g>
			<path fill="#454646" d="M433.434,316.459c-0.343,0-12.559,0-12.559,0l-6.696,11.785h-0.008l-6.213,10.95l-23.073,40.618
				c-3.684,6.479-9.403,11.77-16.85,11.77h-224.07c-7.447,0-13.166-5.291-16.851-11.77l-23.071-40.618l-6.214-10.95h-0.008
				l-6.696-11.785c0,0-12.216,0-12.56,0c-6.907,0-9.553,5.299-5.869,11.785l54.401,95.8c3.685,6.486,9.406,11.786,16.867,11.786
				h224.07c7.453,0,13.182-5.3,16.866-11.786l54.401-95.8C442.987,321.758,440.342,316.459,433.434,316.459z"/>
		</g>
	</g>
	<path fill="#454646" d="M141.038,214.079H69.949c-2.17,0-3.949,1.779-3.949,3.949v71.089c0,2.17,1.779,3.941,3.949,3.941h71.089
		c2.178,0,3.95-1.771,3.95-3.941v-71.089C144.988,215.858,143.216,214.079,141.038,214.079z"/>
	<path fill="#454646" d="M241.373,214.079h-71.09c-2.169,0-3.947,1.779-3.947,3.949v71.089c0,2.17,1.778,3.941,3.947,3.941h71.09
		c2.178,0,3.949-1.771,3.949-3.941v-71.089C245.322,215.858,243.551,214.079,241.373,214.079z"/>
	<path fill="#454646" d="M341.716,214.079h-71.089c-2.17,0-3.949,1.779-3.949,3.949v71.089c0,2.17,1.779,3.941,3.949,3.941h71.089
		c2.169,0,3.941-1.771,3.941-3.941v-71.089C345.657,215.858,343.885,214.079,341.716,214.079z"/>
	<path fill="#454646" d="M442.051,214.079h-71.089c-2.179,0-3.95,1.779-3.95,3.949v71.089c0,2.17,1.771,3.941,3.95,3.941h71.089
		c2.17,0,3.949-1.771,3.949-3.941v-71.089C446,215.858,444.221,214.079,442.051,214.079z"/>
</g>
</svg>
