<?xml version="1.0" encoding="utf-8"?>
<!-- Generator: Adobe Illustrator 16.0.4, SVG Export Plug-In . SVG Version: 6.00 Build 0)  -->
<!DOCTYPE svg PUBLIC "-//W3C//DTD SVG 1.1//EN" "http://www.w3.org/Graphics/SVG/1.1/DTD/svg11.dtd">
<svg version="1.1" id="Layer_1" xmlns="http://www.w3.org/2000/svg" xmlns:xlink="http://www.w3.org/1999/xlink" x="0px" y="0px"
	 width="512px" height="512px" viewBox="0 0 512 512" enable-background="new 0 0 512 512" xml:space="preserve">
<path fill="#454646" d="M84.451,219.559C64.31,219.559,48,235.873,48,256.011c0,20.122,16.31,36.438,36.451,36.438
	c20.123,0,36.434-16.315,36.434-36.438C120.885,235.873,104.574,219.559,84.451,219.559z M344.65,385.186
	c-17.437,10.07-23.406,32.35-13.345,49.771c10.062,17.432,32.331,23.401,49.768,13.335c17.427-10.056,23.405-32.335,13.335-49.763
	C384.356,381.107,362.066,375.134,344.65,385.186z M163.604,256.011c0-36.019,17.89-67.83,45.262-87.096l-26.641-44.626
	c-31.888,21.307-55.611,53.879-65.471,92.021c11.506,9.387,18.871,23.68,18.871,39.701c0,16.002-7.365,30.294-18.871,39.682
	c9.85,38.156,33.573,70.723,65.471,92.034l26.641-44.635C181.493,323.835,163.604,292.024,163.604,256.011z M270.052,149.558
	c55.611,0,101.229,42.634,106.024,97.008L428,245.8c-2.553-40.144-20.094-76.177-47.033-102.683
	c-13.865,5.232-29.866,4.434-43.701-3.539c-13.855-7.996-22.549-21.489-24.918-36.134c-13.47-3.717-27.642-5.748-42.296-5.748
	c-25.196,0-49.017,5.917-70.159,16.382l25.321,45.377C238.838,153.115,254.031,149.558,270.052,149.558z M270.052,362.448
	c-16.021,0-31.214-3.562-44.838-9.897l-25.321,45.377c21.143,10.48,44.963,16.392,70.159,16.392c14.654,0,28.826-2.031,42.296-5.757
	c2.378-14.649,11.062-28.124,24.918-36.14c13.845-7.986,29.847-8.766,43.701-3.533c26.949-26.506,44.48-62.544,47.033-102.683
	l-51.934-0.766C371.281,319.83,325.663,362.448,270.052,362.448z M344.631,126.802c17.436,10.071,39.716,4.106,49.768-13.325
	c10.07-17.432,4.102-39.711-13.325-49.777c-17.437-10.056-39.706-4.082-49.777,13.35C321.244,94.466,327.214,116.75,344.631,126.802
	z"/>
</svg>
