<?xml version="1.0" encoding="utf-8"?>
<!-- Generator: Adobe Illustrator 16.0.4, SVG Export Plug-In . SVG Version: 6.00 Build 0)  -->
<!DOCTYPE svg PUBLIC "-//W3C//DTD SVG 1.1//EN" "http://www.w3.org/Graphics/SVG/1.1/DTD/svg11.dtd">
<svg version="1.1" id="Layer_1" xmlns="http://www.w3.org/2000/svg" xmlns:xlink="http://www.w3.org/1999/xlink" x="0px" y="0px"
	 width="512px" height="512px" viewBox="0 0 512 512" enable-background="new 0 0 512 512" xml:space="preserve">
<g>
	<g>
		<path fill="#454646" d="M418.639,78.168c-19.269-19.184-69.525-15.927-130.393,11.496c-27.414,12.354-52.673,28.391-75.546,46.678
			l-0.413-1.253H108.492l29.307,79.633c-8.709,11.899-16.592,23.98-23.548,36.026c-38.126,65.916-46.723,134.934-24.938,156.553
			c22.743,22.904,63.385,19.763,110.319-2.169l-4.148-11.271c-47.428,21.137-68.699,21.519-82.643,7.51
			c-21.635-21.645-4.44-74.649,35.9-134.535c40.33-59.881,62.024-74.499,83.66-93.854c78.021-69.817,157.665-104.037,185.371-76.352
			c7.117,7.088,10.147,17.648,9.563,30.721h6.906C435.521,107.191,430.659,90.248,418.639,78.168z"/>
	</g>
	<g>
		<path fill="#454646" d="M430.156,135.089H348.51l-69.224,211.546l-48.979-154.67c-18.775,16.334-38.699,32.079-71.689,79.341
			L222.918,446h95.449l113.551-304.141h-1.57C430.448,139.483,430.287,137.288,430.156,135.089z"/>
	</g>
</g>
</svg>
