<?xml version="1.0" encoding="utf-8"?>
<!-- Generator: Adobe Illustrator 16.0.4, SVG Export Plug-In . SVG Version: 6.00 Build 0)  -->
<!DOCTYPE svg PUBLIC "-//W3C//DTD SVG 1.1//EN" "http://www.w3.org/Graphics/SVG/1.1/DTD/svg11.dtd">
<svg version="1.1" id="Layer_1" xmlns="http://www.w3.org/2000/svg" xmlns:xlink="http://www.w3.org/1999/xlink" x="0px" y="0px"
	 width="512px" height="512px" viewBox="0 0 512 512" enable-background="new 0 0 512 512" xml:space="preserve">
<g>
	<path fill-rule="evenodd" clip-rule="evenodd" fill="#454646" d="M185.188,351.236c-12.377-12.097-24.783-24.549-36.783-36.596
		c-11.987-12.033-24.382-24.47-36.723-36.532l-2.324-2.275l2.215-2.377c3.878-4.156,7.963-8.201,11.916-12.096
		c3.904-3.861,7.938-7.853,11.724-11.905l2.174-2.339l2.42,2.069c5.607,4.802,10.784,10.095,15.79,15.215
		c2.104,2.155,4.249,4.344,6.427,6.503V140.908c0-26.029,5.207-43.609,16.384-55.367c10.992-11.55,27.915-17.543,53.252-18.874
		C240.073,66.229,248.082,66,255.458,66c29.958,0,52.347,3.703,66.544,11.006c11.961,6.146,20.318,14.903,25.551,26.764
		c5.079,11.511,7.097,25.77,6.167,43.59l-0.167,3.145h-58.498l0.322-3.613c1.299-14.592-0.844-25.279-6.368-31.771
		c-3.822-4.498-9.191-6.941-16.417-7.467c-2.772-0.202-5.815-0.296-9.303-0.296c-3.185,0-6.414,0.079-9.534,0.153
		c-2.712,0.076-5.514,0.135-8.235,0.15c-21.156,0.116-31.186,8.959-32.529,28.668c-1.01,14.758-0.69,29.792-0.349,45.712
		c0.175,8.194,0.353,16.661,0.353,25.354v53.186c0,1.046-0.094,2.662-0.211,4.72c-0.09,1.521-0.223,3.809-0.296,5.96
		c0.182-0.195,0.367-0.394,0.561-0.596c0.5-0.548,0.748-0.813,0.924-0.986c2.394-2.388,4.779-4.712,7.086-6.961
		c4.596-4.476,8.932-8.707,13.138-13.254l2.262-2.459l2.446,2.286c4.157,3.876,8.194,7.958,12.102,11.905
		c3.855,3.906,7.849,7.943,11.905,11.725l2.489,2.324l-2.378,2.437c-12.098,12.37-24.552,24.781-36.598,36.779
		c-12.03,11.988-24.47,24.376-36.538,36.72l-2.322,2.381L185.188,351.236z"/>
	<path fill-rule="evenodd" clip-rule="evenodd" fill="#454646" d="M260.646,446c-21.69,0-39.499-0.334-54.811-4.551
		c-16.754-4.613-29.23-13.194-37.091-25.516c-8.153-12.789-11.53-29.961-10.038-51.053l0.219-3.089h58.371l-0.246,3.546
		c-1.764,25.567,4.835,37.697,21.386,39.313c1.951,0.188,4.294,0.285,7.146,0.285c2.586,0,5.37-0.083,8.061-0.15
		c2.798-0.075,5.685-0.157,8.479-0.157c16.043,0,25.832-1.586,31.61-10.005c5.283-7.703,5.696-18.934,5.696-33.945V241.276
		c-4.911,4.94-10.194,10.338-15.33,15.578c-2.029,2.069-4.023,4.112-5.937,6.054l-2.154,2.193l-2.352-1.969
		c-4.937-4.119-9.421-8.729-13.756-13.176c-3.336-3.418-6.779-6.96-10.35-10.18l-2.532-2.287l2.354-2.47
		c17.646-18.507,36.091-36.776,53.934-54.442c6.32-6.271,12.855-12.733,19.259-19.125l2.324-2.316l2.344,2.294
		c12.317,12.029,24.659,24.425,36.602,36.413c11.924,11.968,24.254,24.342,36.534,36.359l2.271,2.211l-2.112,2.365
		c-7.592,8.521-15.76,16.692-24.28,24.286l-2.349,2.092l-2.219-2.233c-2.279-2.298-4.646-4.728-6.936-7.074
		c-4.746-4.865-9.611-9.869-14.347-14.345v110.676c0,1.848,0.007,3.688,0.011,5.529c0.049,18.652,0.098,36.262-4.616,50.202
		c-4.995,14.776-15.464,25.396-31.108,31.581C299.467,445.494,279.647,446,260.646,446z"/>
</g>
</svg>
