<?xml version="1.0" encoding="utf-8"?>
<!-- Generator: Adobe Illustrator 19.2.1, SVG Export Plug-In . SVG Version: 6.00 Build 0)  -->
<svg version="1.1" id="Work_area" xmlns="http://www.w3.org/2000/svg" xmlns:xlink="http://www.w3.org/1999/xlink" x="0px" y="0px"
	 width="512px" height="512px" viewBox="0 0 512 512" enable-background="new 0 0 512 512" xml:space="preserve">
<g>
	<path fill="#454646" d="M428.8,64H83.2C72.6,64,64,72.7,64,83.2v345.6c0,10.6,8.6,19.2,19.2,19.2h345.6c10.5,0,19.2-8.6,19.2-19.2
		V83.2C448,72.7,439.3,64,428.8,64z M172.6,88.4c6.7,0,12.1,5.5,12.1,12.1s-5.5,12.1-12.1,12.1s-12.1-5.5-12.1-12.1
		S166,88.4,172.6,88.4z M138.5,88.4c6.7,0,12.1,5.5,12.1,12.1s-5.5,12.1-12.1,12.1s-12.1-5.5-12.1-12.1S131.8,88.4,138.5,88.4z
		 M104.3,88.4c6.7,0,12.1,5.5,12.1,12.1s-5.5,12.1-12.1,12.1s-12.1-5.5-12.1-12.1C92.3,93.8,97.7,88.4,104.3,88.4z M419.7,424.4
		H92.4v-288h327.3V424.4z M407.6,112.5H229.1c-6.7,0-12.1-5.5-12.1-12.1s5.5-12.1,12.1-12.1h178.5c6.7,0,12.1,5.5,12.1,12.1
		S414.2,112.5,407.6,112.5z"/>
	<g>
		<path fill="#454646" d="M171,248.4c13.3,0,26,0.2,37.1,6.9c9.9,6,15.9,15.7,15.9,30.2c0,30.6-27.4,33.3-27.4,33.3
			s36.3,0.8,36.3,37.7c0,17.3-8.1,28.4-19.6,35.3c-13.5,8.3-28.4,8.3-43.1,8.3H116V248.4H171z M148.6,308.9h17.5
			c5.2,0,10.3,0,15.3-2.8c4.8-2.8,8.1-7.7,8.1-15.5c0-7.7-3.2-12.7-8.1-15.5c-5-2.8-10.1-2.8-15.3-2.8h-17.5V308.9z M148.6,376.2
			h22.2c5.6,0,12.1,0,18.5-3.8c6-3.6,9.1-9.5,9.1-17.1c0-8.7-4-13.9-9.9-17.1c-6.5-3.4-11.7-3.4-19.4-3.4h-20.6V376.2z"/>
	</g>
	<path fill="#454646" d="M182.2,183.7c14.3,0,28.2,2.8,41.3,8.3c12.6,5.3,24,13,33.7,22.8c9.8,9.8,17.4,21.1,22.8,33.7
		c5.5,13.1,8.3,27,8.3,41.3c0,0.3,0,0.6,0,0.9H312c0-0.3,0-0.6,0-0.9c0-71.7-58.1-129.8-129.8-129.8c-0.4,0-0.8,0-1.3,0v23.7
		C181.3,183.7,181.8,183.7,182.2,183.7z"/>
	<path fill="#454646" d="M182.2,226.9c16.8,0,33.6,5.5,45.4,17.4c11.9,11.9,17.4,28.7,17.4,45.4c0,0.3,0,0.6,0,0.9h23.7
		c0-0.3,0-0.6,0-0.9c0-50.5-36.1-86.5-86.5-86.5c-0.4,0-0.8,0-1.3,0v23.7C181.3,226.9,181.8,226.9,182.2,226.9z"/>
</g>
</svg>
