<?xml version="1.0" encoding="utf-8"?>
<!-- Generator: Adobe Illustrator 16.0.4, SVG Export Plug-In . SVG Version: 6.00 Build 0)  -->
<!DOCTYPE svg PUBLIC "-//W3C//DTD SVG 1.1//EN" "http://www.w3.org/Graphics/SVG/1.1/DTD/svg11.dtd">
<svg version="1.1" id="Layer_1" xmlns="http://www.w3.org/2000/svg" xmlns:xlink="http://www.w3.org/1999/xlink" x="0px" y="0px"
	 width="512px" height="512px" viewBox="0 0 512 512" enable-background="new 0 0 512 512" xml:space="preserve">
<path fill="#454646" d="M16,160v13.135h93.431V160H16z M122.669,160v13.135h133.144c0,0-13.599-13.135-31.612-13.135H122.669z
	 M281.931,160v13.135h80.55L357.7,160H281.931z M420.231,160l-4.781,13.135h79.818V160H420.231z M16,185.547v13.135h93.431v-13.135
	H16z M122.669,185.565v13.116h148.594c0,0-1.734-10.111-4.763-13.116H122.669z M281.931,185.565v13.116h89.381l-4.425-13.116
	H281.931z M410.669,185.565l-4.426,13.116h89.025v-13.116H410.669z M42.85,211.094v13.153h40.463v-13.153H42.85z M149.519,211.094
	v13.153h40.46v-13.153H149.519z M229.337,211.094v13.153H269.8c0,0,2.566-6.947,2.566-13.153H229.337z M308.779,211.094v13.153
	h71.74l-4.781-13.153H308.779z M401.856,211.094l-4.8,13.153h72.094v-13.153H401.856z M42.85,236.659v13.135h40.463v-13.135H42.85z
	 M149.519,236.659v13.135h103.35c0,0,8.646-6.741,11.4-13.135H149.519z M308.779,236.659v13.135h40.464v-7.312l2.569,7.312h74.119
	l2.756-7.312v7.312h40.462v-13.135h-75.956l-4.031,11.128l-4.05-11.128H308.779z M42.85,262.206v13.135h40.463v-13.135H42.85z
	 M149.519,262.206v13.135h114.75c-2.756-6.375-11.4-13.135-11.4-13.135H149.519z M308.779,262.206v13.135h40.464v-13.135H308.779z
	 M356.594,262.206l4.894,13.135h55.575l4.65-13.135H356.594z M428.688,262.206v13.135h40.462v-13.135H428.688z M42.85,287.753
	v13.135h40.463v-13.135H42.85z M149.519,287.753v13.135h40.46v-13.135H149.519z M229.337,287.753v13.135h43.029
	c0-6.197-2.566-13.135-2.566-13.135H229.337z M308.779,287.753v13.135h40.464v-13.135H308.779z M365.779,287.753l4.746,13.135
	h37.254l4.784-13.135H365.779z M428.688,287.753v13.135h40.462v-13.135H428.688z M16.731,313.3v13.153h93.431V313.3H16.731z
	 M122.669,313.3v13.153H266.5c3.028-3.014,4.763-13.153,4.763-13.153H122.669z M282.663,313.3v13.153h66.581V313.3H282.663z
	 M374.987,313.3l4.875,13.153h18.957l4.575-13.153H374.987z M428.688,313.3v13.153H496V313.3H428.688z M16.731,338.865V352h93.431
	v-13.135H16.731z M122.669,338.865v13.116H224.2c18.014,0,31.612-13.116,31.612-13.116H122.669z M282.663,338.865V352h66.581
	v-13.135H282.663z M384.231,338.865l4.688,13.098l0.806,0.019l4.762-13.116H384.231z M428.688,338.865V352H496v-13.135H428.688z"/>
</svg>
