<?xml version="1.0" encoding="utf-8"?>
<!-- Generator: Adobe Illustrator 16.0.4, SVG Export Plug-In . SVG Version: 6.00 Build 0)  -->
<!DOCTYPE svg PUBLIC "-//W3C//DTD SVG 1.1//EN" "http://www.w3.org/Graphics/SVG/1.1/DTD/svg11.dtd">
<svg version="1.1" id="Layer_1" xmlns="http://www.w3.org/2000/svg" xmlns:xlink="http://www.w3.org/1999/xlink" x="0px" y="0px"
	 width="512px" height="512px" viewBox="0 0 512 512" enable-background="new 0 0 512 512" xml:space="preserve">
<path fill="#454646" d="M216.696,409.07c0-49.773,74.923-49.773,74.923,0C291.619,458.309,216.696,458.309,216.696,409.07z
	 M316.639,282.225c-21.449,15.391-33.042,35.777-33.042,62.085l-59.412-0.532c0-45.925,19.148-71.398,50.067-97.436
	c27.187-22.895,62.296-37.918,62.296-68.483c0-48.703-44.958-59.409-82.958-59.409s-82.958,18.735-83.489,61.015h-58.343
	C111.758,99.719,181.338,66,254.659,66c73.862,0,145.583,37.26,145.583,105.957C400.242,230.604,350.119,258.197,316.639,282.225z"
	/>
</svg>
