<?xml version="1.0" encoding="utf-8"?>
<!-- Generator: Adobe Illustrator 16.0.4, SVG Export Plug-In . SVG Version: 6.00 Build 0)  -->
<!DOCTYPE svg PUBLIC "-//W3C//DTD SVG 1.1//EN" "http://www.w3.org/Graphics/SVG/1.1/DTD/svg11.dtd">
<svg version="1.1" id="Layer_1" xmlns="http://www.w3.org/2000/svg" xmlns:xlink="http://www.w3.org/1999/xlink" x="0px" y="0px"
	 width="512px" height="512px" viewBox="0 0 512 512" enable-background="new 0 0 512 512" xml:space="preserve">
<g>
	<path fill="#454646" d="M46,225.711c0-25.547,20.707-46.26,46.259-46.26c25.542,0,46.257,20.713,46.257,46.26
		c0,25.543-20.715,46.256-46.257,46.256C66.707,271.967,46,251.254,46,225.711z"/>
	<path fill="#454646" d="M131.971,388.633c0-44.762,36.283-81.051,81.043-81.051c44.766,0,81.053,36.289,81.053,81.051
		s-36.287,81.05-81.053,81.05C168.254,469.683,131.971,433.395,131.971,388.633z"/>
	<path fill="#454646" d="M262.145,144.246c0-56.288,45.637-101.929,101.922-101.929C420.358,42.317,466,87.958,466,144.246
		c0,56.29-45.642,101.929-101.934,101.929C307.781,246.175,262.145,200.536,262.145,144.246z"/>
</g>
</svg>
