<?xml version="1.0" encoding="utf-8"?>
<!-- Generator: Adobe Illustrator 16.0.4, SVG Export Plug-In . SVG Version: 6.00 Build 0)  -->
<!DOCTYPE svg PUBLIC "-//W3C//DTD SVG 1.1//EN" "http://www.w3.org/Graphics/SVG/1.1/DTD/svg11.dtd">
<svg version="1.1" id="Layer_1" xmlns="http://www.w3.org/2000/svg" xmlns:xlink="http://www.w3.org/1999/xlink" x="0px" y="0px"
	 width="512px" height="512px" viewBox="0 0 512 512" enable-background="new 0 0 512 512" xml:space="preserve">
<g>
	<g id="layer1_1_" transform="translate(-702.6538,-712.5837)">
		<g id="g16337_1_">
			<path id="path16197_1_" fill="#454646" d="M888.829,1039.499c-66.344,0-120.175-53.697-120.175-120.053
				c0-66.357,53.831-120.251,120.175-120.251h139.673c66.359,0,120.153,53.894,120.153,120.251
				c0,66.355-53.794,120.053-120.153,120.053H888.829z M1025.392,997.113c42.98,0,77.789-34.713,77.789-77.667
				c0-42.962-34.809-77.868-77.789-77.868H891.909c-42.958,0-77.789,34.906-77.789,77.868c0,42.954,34.831,77.667,77.789,77.667
				H1025.392z"/>
		</g>
	</g>
	<g>
		<path fill="#454646" d="M86.796,370.524c5.487,0,12.706,0,19.274,3.828c6.281,3.681,11.263,10.756,11.263,23.315
			c0,12.272-4.765,19.564-11.407,23.391c-7.073,4.043-15.304,3.753-19.13,3.753H70.264v-54.287H86.796z M82.465,415.717h5.052
			c3.394,0,6.715-0.073,9.962-1.878c4.91-2.742,6.858-8.229,6.858-16.171c0-7.725-1.878-13.498-7.073-16.242
			c-3.394-1.804-7.002-1.804-9.747-1.804h-5.052V415.717z"/>
		<path fill="#454646" d="M158.415,424.812l-3.898-12.271h-19.345l-3.971,12.271h-11.046l18.985-54.287h13.717l18.696,54.287
			H158.415z M138.059,403.731h13.715l-6.713-21.295L138.059,403.731z"/>
		<path fill="#454646" d="M209.389,370.524v9.457h-14.365v44.83h-12.345v-44.83h-14.365v-9.457H209.389z"/>
		<path fill="#454646" d="M244.407,424.812l-3.898-12.271h-19.347l-3.971,12.271h-11.043l18.985-54.287h13.716l18.698,54.287
			H244.407z M224.049,403.731h13.718l-6.715-21.295L224.049,403.731z"/>
		<path fill="#454646" d="M283.253,370.524c4.765,0,9.312,0.072,13.281,2.455c3.539,2.165,5.704,5.631,5.704,10.828
			c0,10.974-9.817,11.912-9.817,11.912s12.994,0.288,12.994,13.499c0,6.208-2.887,10.179-7.002,12.634
			c-4.835,2.959-10.179,2.959-15.449,2.959h-19.419v-54.287H283.253z M275.24,392.182h6.281c1.877,0,3.681,0,5.486-1.01
			c1.731-1.011,2.887-2.744,2.887-5.559c0-2.744-1.156-4.548-2.887-5.56c-1.805-1.011-3.609-1.011-5.486-1.011h-6.281V392.182z
			 M275.24,416.293h7.941c2.021,0,4.333,0,6.641-1.371c2.167-1.299,3.249-3.394,3.249-6.136c0-3.104-1.444-4.981-3.539-6.136
			c-2.308-1.229-4.186-1.229-6.928-1.229h-7.364V416.293z"/>
		<path fill="#454646" d="M345.92,424.812l-3.898-12.271h-19.347l-3.971,12.271H307.66l18.985-54.287h13.715l18.698,54.287H345.92z
			 M325.562,403.731h13.717l-6.715-21.295L325.562,403.731z"/>
		<path fill="#454646" d="M396.894,381.21h-0.577c0,0-7.147-2.6-12.994-2.6c-5.27,0-7.725,2.093-7.725,5.125
			c0,9.603,23.895,7.003,23.895,25.195c0,10.899-8.519,16.458-21.729,16.458c-8.806,0-14.87-2.454-14.87-2.454v-9.384h0.575
			c0,0,8.158,3.175,14.512,3.175c5.414,0,8.589-2.308,8.589-6.063c0-10.178-23.895-8.012-23.895-25.266
			c0-9.817,7.652-15.449,20.358-15.449c7.725,0,13.86,2.095,13.86,2.095V381.21z"/>
		<path fill="#454646" d="M443.173,370.524v9.24h-22.451v12.417h18.987v9.24h-18.987v14.149h23.607v9.24h-35.734v-54.287H443.173z"
			/>
	</g>
</g>
</svg>
