<?xml version="1.0" encoding="utf-8"?>
<!-- Generator: Adobe Illustrator 16.0.4, SVG Export Plug-In . SVG Version: 6.00 Build 0)  -->
<!DOCTYPE svg PUBLIC "-//W3C//DTD SVG 1.1//EN" "http://www.w3.org/Graphics/SVG/1.1/DTD/svg11.dtd">
<svg version="1.1" id="Layer_1" xmlns="http://www.w3.org/2000/svg" xmlns:xlink="http://www.w3.org/1999/xlink" x="0px" y="0px"
	 width="512px" height="512px" viewBox="0 0 512 512" enable-background="new 0 0 512 512" xml:space="preserve">
<g>
	<g>
		<path id="path8" fill="#454646" d="M401.409,391.102c-39.422,29.057-96.565,44.561-145.757,44.561
			c-68.979,0-131.082-25.517-178.062-67.946c-3.69-3.333-0.383-7.886,4.046-5.287c50.703,29.503,113.393,47.246,178.147,47.246
			c43.674,0,91.723-9.031,135.896-27.787C402.356,379.054,407.936,386.258,401.409,391.102"/>
		<path id="path10" fill="#454646" d="M417.797,372.354c-5.02-6.441-33.303-3.045-46.009-1.537c-3.865,0.472-4.456-2.896-0.97-5.315
			c22.531-15.855,59.502-11.278,63.81-5.962c4.312,5.34-1.123,42.405-22.296,60.092c-3.245,2.711-6.349,1.266-4.898-2.33
			C412.187,405.421,422.85,378.822,417.797,372.354"/>
	</g>
	<path fill="#454646" d="M375.354,309.673c-9.074-12.558-18.698-22.745-18.698-45.983v-77.309c0-32.728,2.301-62.804-21.844-85.339
		c-19.044-18.285-50.588-24.704-74.729-24.704c-47.173,0-99.853,17.585-110.946,75.92c-1.116,6.208,3.349,9.488,7.395,10.396
		l48.146,5.164c4.465-0.211,7.747-4.605,8.582-9.07c4.117-20.099,21.006-29.798,39.913-29.798c10.191,0,21.771,3.769,27.844,12.909
		c6.904,10.188,5.996,24.146,5.996,35.937v6.416c-28.749,3.28-66.354,5.371-93.292,17.237
		c-31.046,13.397-52.887,40.819-52.887,81.081c0,51.566,32.518,77.312,74.242,77.312c35.307,0,54.569-8.304,81.78-36.073
		c9.074,13.049,12.002,19.398,28.473,33.074c3.695,1.955,8.439,1.744,11.72-1.188l0.139,0.141
		c9.909-8.789,27.909-24.49,38.027-32.936C379.257,319.51,378.562,314.141,375.354,309.673z M277.735,287.346
		c-7.887,13.949-20.376,22.535-34.33,22.535c-19.051,0-30.146-14.514-30.146-35.938c0-42.281,37.89-49.957,73.752-49.957v10.748
		C287.011,254.059,287.501,270.182,277.735,287.346z"/>
</g>
</svg>
