<?xml version="1.0" encoding="utf-8"?>
<!-- Generator: Adobe Illustrator 16.0.4, SVG Export Plug-In . SVG Version: 6.00 Build 0)  -->
<!DOCTYPE svg PUBLIC "-//W3C//DTD SVG 1.1//EN" "http://www.w3.org/Graphics/SVG/1.1/DTD/svg11.dtd">
<svg version="1.1" id="Layer_1" xmlns="http://www.w3.org/2000/svg" xmlns:xlink="http://www.w3.org/1999/xlink" x="0px" y="0px"
	 width="512px" height="512px" viewBox="0 0 512 512" enable-background="new 0 0 512 512" xml:space="preserve">
<path fill="#454646" d="M370,294c-20.628,0-39.309,8.248-53.002,21.584l-128.973-67.266c0.941-4.286,1.475-8.73,1.475-13.299
	c0-3.22-0.324-6.359-0.799-9.444l142.872-72.007C341.119,163.955,354.775,170.5,370,170.5c28.861,0,52.25-23.389,52.25-52.25
	S398.861,66,370,66s-52.25,23.389-52.25,52.25c0,2.746,0.278,5.428,0.686,8.058l-145.328,66.913
	c-11.281-12.237-27.401-19.951-45.357-19.951c-34.104,0-61.75,27.646-61.75,61.75s27.646,61.75,61.75,61.75
	c16.731,0,31.887-6.684,43.01-17.492l125.072,74.283C294.663,358.857,294,364.35,294,370c0,41.98,34.02,76,76,76s76-34.02,76-76
	S411.98,294,370,294z"/>
</svg>
