<?xml version="1.0" encoding="utf-8"?>
<!-- Generator: Adobe Illustrator 16.0.4, SVG Export Plug-In . SVG Version: 6.00 Build 0)  -->
<!DOCTYPE svg PUBLIC "-//W3C//DTD SVG 1.1//EN" "http://www.w3.org/Graphics/SVG/1.1/DTD/svg11.dtd">
<svg version="1.1" id="Layer_1" xmlns="http://www.w3.org/2000/svg" xmlns:xlink="http://www.w3.org/1999/xlink" x="0px" y="0px"
	 width="512px" height="512px" viewBox="0 0 512 512" enable-background="new 0 0 512 512" xml:space="preserve">
<path fill="#454646" d="M339.934,200.283h-2.537c-9.084,0-16.446,7.367-16.446,16.451v30.788c0,0,0.274,3.782-2.95,3.782
	c-3.232,0-2.954-3.782-2.954-3.782v-48.508c0-9.08-7.366-16.442-16.446-16.442h-2.538c-9.08,0-16.442,7.362-16.442,16.442v48.508
	c0,0,0.182,3.782-2.954,3.782c-3.14,0-2.953-3.782-2.953-3.782v-66.22c0-9.084-7.363-16.446-16.447-16.446h-2.537
	c-9.084,0-16.444,7.362-16.444,16.446v66.22c0,0-0.092,3.782-3.042,3.782c-2.953,0-2.86-3.782-2.86-3.782v-84.254
	c24.997-7.169,43.363-30.187,43.363-57.458c0-32.979-26.832-59.811-59.811-59.811c-32.978,0-59.809,26.832-59.809,59.811
	c0,26.343,17.137,48.709,40.824,56.67v120.473c0,0,0.094,2.675-2.949,2.675c-3.047,0-2.954-2.675-2.954-2.675v-66.219
	c0-9.084-7.362-16.451-16.448-16.451h-2.536c-9.08,0-16.442,7.367-16.442,16.451v114.727c0,0.783,0.121,1.539,0.226,2.295
	c1.16,21.963,6.958,30.053,21.806,49.417c16.81,21.926,42.918,35.589,42.918,35.589V466h135.812v-22.351v-90.012V216.734
	C356.381,207.65,349.014,200.283,339.934,200.283z M168.538,105.811c0-26.133,21.259-47.396,47.396-47.396
	c26.138,0,47.396,21.264,47.396,47.396c0,20.346-12.912,37.689-30.949,44.394v-45.663c0-9.08-7.367-16.446-16.447-16.446h-2.537
	c-9.084,0-16.447,7.366-16.447,16.446v44.665C180.244,141.871,168.538,125.19,168.538,105.811z"/>
</svg>
