<?xml version="1.0" encoding="utf-8"?>
<!-- Generator: Adobe Illustrator 19.2.1, SVG Export Plug-In . SVG Version: 6.00 Build 0)  -->
<svg version="1.1" id="Work_area" xmlns="http://www.w3.org/2000/svg" xmlns:xlink="http://www.w3.org/1999/xlink" x="0px" y="0px"
	 width="512px" height="512px" viewBox="0 0 512 512" enable-background="new 0 0 512 512" xml:space="preserve">
<path fill="#454646" d="M466,92.8L321.5,50.1L190.6,88.7L46,46v373.2l144.7,42.7l130.5-38.5L466,466V92.8L466,92.8z M438,429.5
	l-102.7-30.3v-58.1c-4,0.6-8.1,0.9-12.3,0.9c-5.3,0-10.6-0.5-15.7-1.4v58.7l-102.7,30.3V325.4l-14,4.1l-14-4.1v104.1L74,399.2V268.3
	l116.7,34l77.3-22.5c9.2,21.3,30.4,36.2,55.1,36.2c33.1,0,60-26.9,60-60c0-33.1-26.9-60-60-60c-32.2,0-58.5,25.4-59.9,57.3
	l-72.5,21.2L74,240.3V82.5l102.7,30.3v130.5l13.9,4l14.1-4.1V112.8l102.7-30.3v88.9c5.1-0.9,10.4-1.4,15.7-1.4
	c4.2,0,8.3,0.3,12.3,0.9V82.5L438,112.8V429.5z"/>
</svg>
