<?xml version="1.0" encoding="utf-8"?>
<!-- Generator: Adobe Illustrator 18.1.1, SVG Export Plug-In . SVG Version: 6.00 Build 0)  -->
<svg version="1.1" id="Layer_1" xmlns="http://www.w3.org/2000/svg" xmlns:xlink="http://www.w3.org/1999/xlink" x="0px" y="0px"
	 width="512px" height="512px" viewBox="0 0 512 512" enable-background="new 0 0 512 512" xml:space="preserve">
<path fill="#454646" d="M256,67.359c-104.758,0-190,84.955-190,190c0,104.758,84.955,190,190,190c104.758,0,190-84.955,190-190
	S360.758,67.359,256,67.359z M384.293,290.652c0,11.48-6.601,21.526-19.517,23.822c-22.387,4.018-69.456,6.314-108.776,6.314
	c-39.32,0-86.39-2.296-108.777-6.314c-12.915-2.296-19.517-12.341-19.517-23.822v-74.048c0-11.48,8.897-22.1,19.517-23.822
	c6.601-1.148,22.1-2.296,34.154-2.296c4.592,0,8.323,3.444,8.323,8.897v51.949l66.586-1.435l66.586,1.435v-51.949
	c0-5.453,3.731-8.897,8.323-8.897c12.054,0,27.553,1.148,34.154,2.296c10.906,1.722,19.517,12.341,19.517,23.822
	C384.293,240.999,384.293,265.969,384.293,290.652z"/>
</svg>
