<?xml version="1.0" encoding="utf-8"?>
<!-- Generator: Adobe Illustrator 16.0.4, SVG Export Plug-In . SVG Version: 6.00 Build 0)  -->
<!DOCTYPE svg PUBLIC "-//W3C//DTD SVG 1.1//EN" "http://www.w3.org/Graphics/SVG/1.1/DTD/svg11.dtd">
<svg version="1.1" id="Layer_1" xmlns="http://www.w3.org/2000/svg" xmlns:xlink="http://www.w3.org/1999/xlink" x="0px" y="0px"
	 width="512px" height="512px" viewBox="0 0 512 512" enable-background="new 0 0 512 512" xml:space="preserve">
<g>
	<path fill-rule="evenodd" clip-rule="evenodd" fill="#454646" d="M423.895,275.018c-1.742,2.92-3.373,5.458-5.545,7.667
		c-4.873,4.969-11.032,7.199-17.552,8.659c-6.576,1.466-13.302,1.246-19.935,0.736c-7.335-0.569-14.304-2.766-20.263-7.286
		c-4.025-3.06-6.587-7.239-7.845-12.161c-0.131-0.522-0.17-1.044-0.586-1.433c-0.097-0.094-0.202-0.181-0.477-0.408
		c-1.459,2.109-2.561,4.413-4.121,6.449c-5.92,7.741-13.611,12.462-23.164,14.223c-9.653,1.788-19.041,1.165-27.924-3.322
		c-6.17-3.12-11.227-7.513-14.868-13.493c-0.902-1.48-1.213-2.645-0.667-4.419c1.275-4.179,2.079-8.471,1.958-12.911
		c-0.157-5.947-1.574-11.525-4.683-16.594c-0.793-1.299-0.884-2.163-0.338-3.616c4.549-12.107,12.669-20.397,25.319-23.752
		c12.933-3.435,25.238-2.276,36.448,5.652c4.528,3.208,8.169,7.212,10.782,12.121c0.67,1.252,1.335,2.511,2.135,4.018
		c0.594-10.754,6.539-16.929,15.984-20.377c5.023-1.828,10.129-2.939,15.506-3.054c4.232-0.087,8.468-0.141,12.667,0.214
		c6.682,0.556,12.966,2.572,18.414,6.636c3.278,2.451,5.484,5.772,6.748,9.663c0.211,0.649,0.332,1.279,1.145,1.814
		c0.655-2.183,1.42-4.266,2.592-6.181c3.106-5.083,8.105-7.527,13.339-9.522c4.603-1.761,9.42-2.491,14.391-2.638
		c4.102-0.121,8.207-0.188,12.258,0.221c8.066,0.803,15.631,3.08,21.374,9.294c3.46,3.73,4.862,8.404,5.535,13.333
		c0.127,0.931-0.176,1.514-1.272,1.507c-6.827-0.014-13.656-0.014-20.484-0.007c-0.98,0.007-1.403-0.361-1.496-1.373
		c-0.319-3.549-2.509-5.284-5.811-6.127c-4.095-1.058-8.123-1.071-12.15,0.167c-2.053,0.643-3.518,1.929-3.689,4.185
		c-0.17,2.19,0.881,3.697,2.776,4.875c3.333,2.062,7.051,2.96,10.781,3.771c5.414,1.178,10.892,2.076,16.305,3.254
		c6.457,1.413,11.843,4.5,15.492,10.245c3.204,5.042,3.626,10.561,2.371,16.105c-2.038,9.02-7.969,14.706-16.496,17.926
		c-5.643,2.13-11.434,3.261-17.476,3.221c-5.327-0.04-10.666,0.134-15.899-1.152C436.129,288.853,428.154,284.647,423.895,275.018z
		 M445.762,264.939c0.325,6.154,3.599,9.529,9.094,10.775c3.95,0.897,7.875,0.803,11.647-1.065c1.247-0.603,2.294-1.406,3.094-2.458
		c1.756-2.284,2.127-6.034-0.635-8.237c-1.267-1.004-2.542-1.888-4.126-2.29c-3.056-0.783-6.093-1.654-9.164-2.364
		c-6.412-1.493-12.937-2.511-19.122-4.888c-7.443-2.853-12.558-7.721-13.828-15.938c-0.367-2.391-0.395-2.411-2.862-2.411
		c-6.398-0.014-12.796-0.007-19.135-0.007c-1.523-6.107-3.973-8.069-10.071-8.176c-1.738-0.041-3.481,0.087-5.215,0.027
		c-1.806-0.067-3.375,0.536-4.906,1.393c-3.616,2.036-3.8,5.933-0.342,8.264c1.534,1.038,3.214,1.814,4.98,2.411
		c5.896,2.002,12.061,2.792,18.127,4.024c4.01,0.81,8.044,1.527,11.577,3.797c5.484,3.516,9.459,8.083,10.253,14.839
		c0.264,2.23,0.25,2.283,2.61,2.297C433.615,264.953,439.493,264.939,445.762,264.939z M300.522,251.399
		c-0.203,7.467,1.045,10.534,2.787,14.424c3.753,8.391,15.254,9.127,20.729,4.654c2.216-1.821,3.665-4.132,4.659-6.777
		c1.943-5.163,2.277-10.453,1.732-15.911c-0.432-4.312-1.635-8.256-4.105-11.819c-5.234-7.541-17.72-7.192-22.423,1.138
		C301.29,241.743,300.15,246.692,300.522,251.399z M355.611,246.699c1.031,5.143,0.044,10.091-0.892,15
		c-0.615,3.234-0.76,3.221,2.73,3.234c5.22,0.02,10.439,0.033,15.66-0.014c1.365-0.006,2.152,0.094,2.269,1.869
		c0.13,1.955,1.049,3.75,2.492,5.276c4.279,4.521,9.569,4.634,15.13,3.623c2.282-0.422,4.229-1.527,5.792-3.274
		c2.575-2.886,1.918-7.159-1.346-9.261c-1.704-1.098-3.587-1.748-5.492-2.223c-4.73-1.192-9.504-2.183-14.26-3.268
		C369.5,255.806,361.326,253.904,355.611,246.699z"/>
	<path fill-rule="evenodd" clip-rule="evenodd" fill="#454646" d="M187.785,265.938c-0.75,2.511-1.362,5.096-2.284,7.567
		c-3.2,8.578-9.378,14.317-18.03,16.781c-10.968,3.121-22.137,3.281-33.036-0.569c-7.966-2.806-13.311-8.417-16.464-16.319
		c-3.054-7.654-3.198-15.589-3.143-23.599c0.009-1.212,0.585-1.6,1.743-1.594c7.226,0.021,14.455-0.013,21.681,0.027
		c2.055,0.014,2.253,0.261,2.302,2.351c0.067,2.946,0.017,5.893,0.07,8.833c0.07,3.77,1.568,6.811,5.101,8.364
		c3.856,1.694,7.891,1.916,11.386-0.763c2.688-2.076,3.334-5.371,3.624-8.592c0.203-2.256,0.094-4.547,0.094-6.823
		c0.006-20.873,0-41.759,0.017-62.632c0-1.312-0.241-2.652,0.209-3.884c0.928-0.649,1.889-0.348,2.786-0.355
		c25.025-0.02,50.059-0.127,75.084,0.054c7.703,0.053,15.404,0.783,22.55,4.266c8.751,4.252,13.177,11.116,13.512,20.886
		c0.315,9.121-3.549,15.884-10.86,20.947c-0.326,0.234-0.707,0.368-1.039,0.589c-0.332,0.221-0.639,0.482-0.971,0.736
		c0.188,0.971,1.058,1.011,1.714,1.292c8.802,3.817,13.768,10.486,15.168,19.969c0.881,5.946,0.157,11.726-1.849,17.25
		c-3.486,9.576-11.011,14.692-20.448,17.404c-5.667,1.627-11.527,2.183-17.367,2.25c-16.192,0.181-32.391,0.047-48.583,0.107
		c-3.149,0.013-2.711-0.509-2.711-2.585c0.006-6.02,0.02-12.047-0.01-18.074C188.027,268.516,188.264,267.176,187.785,265.938z
		 M215.588,244.06c0,8.19,0,16.025,0,24.02c8.565,0,16.979,0.396,25.342-0.12c7.212-0.436,11.365-4.386,10.855-11.974
		c-0.046-0.669-0.081-1.333-0.097-2.002c-0.046-2.411-1.132-4.306-2.751-6.027c-2.784-2.953-6.472-3.723-10.185-3.831
		C231.145,243.906,223.527,244.06,215.588,244.06z M215.417,206.246c0,6.328,0.044,12.194-0.032,18.054
		c-0.021,1.533,0.36,2.089,1.998,2.062c6.539-0.087,13.083-0.067,19.624-0.014c1.386,0.014,2.639-0.375,3.875-0.81
		c4.787-1.674,7.499-5.096,6.642-11.223c-0.606-4.312-2.96-7.614-8.965-7.956C231,205.911,223.394,206.246,215.417,206.246z"/>
	<path fill-rule="evenodd" clip-rule="evenodd" fill="#454646" d="M191.211,397.529c-16.187,0.489-32.223-13.56-31.942-32.458
		c0.287-19.413,16.477-32.397,32.939-31.962c17.072,0.442,31.527,14.853,31.373,32.759
		C223.43,383.513,207.941,398.279,191.211,397.529z"/>
	<path fill-rule="evenodd" clip-rule="evenodd" fill="#454646" d="M109.664,326.708c14.679-0.281,28.337,11.544,28.467,28.399
		c0.12,16.038-12.977,28.547-28.305,28.694c-15.845,0.147-28.761-13.212-28.652-28.708
		C81.289,338.748,95.019,326.266,109.664,326.708z"/>
	<path fill-rule="evenodd" clip-rule="evenodd" fill="#454646" d="M48.102,329.232c-13.494,0.624-25.893-11.665-25.779-25.834
		c0.098-12.777,10.65-25.701,25.647-25.667c13.406,0.047,25.584,10.199,25.762,25.553C73.92,319.516,60.365,329.781,48.102,329.232z
		"/>
	<path fill-rule="evenodd" clip-rule="evenodd" fill="#454646" d="M16.038,231.618c-0.747-12.536,10.899-23.263,23-23.069
		c11.316,0.188,22.763,9.134,22.754,23.022c-0.01,14.699-12.373,23.096-23.11,23.076C26.297,254.627,15.269,243.417,16.038,231.618z
		"/>
	<path fill-rule="evenodd" clip-rule="evenodd" fill="#454646" d="M74.666,186.243c-11.477,0.335-19.228-10.018-19.299-19.266
		c-0.074-9.904,8.917-19.533,19.367-19.346c10.817,0.194,19.258,8.726,19.279,19.399C94.039,178.482,83.874,186.933,74.666,186.243z
		"/>
	<path fill-rule="evenodd" clip-rule="evenodd" fill="#454646" d="M148.925,138.451c0.694,9.234-8.148,17.611-17.374,17.444
		c-9.247-0.154-17.478-7.848-17.329-17.692c0.167-11.27,10.03-17.283,17.326-17.317C140.743,120.846,149.62,129.23,148.925,138.451z
		"/>
	<path fill-rule="evenodd" clip-rule="evenodd" fill="#454646" d="M192.409,143.761c-8.528,0.609-14.795-7.386-14.769-14.544
		c0.033-8.592,7.517-14.792,14.689-14.772c6.636,0.013,14.471,5.083,14.803,14.699C207.415,137.286,200.659,143.741,192.409,143.761
		z"/>
</g>
</svg>
