<?xml version="1.0" encoding="utf-8"?>
<!-- Generator: Adobe Illustrator 16.0.4, SVG Export Plug-In . SVG Version: 6.00 Build 0)  -->
<!DOCTYPE svg PUBLIC "-//W3C//DTD SVG 1.1//EN" "http://www.w3.org/Graphics/SVG/1.1/DTD/svg11.dtd">
<svg version="1.1" id="Layer_1" xmlns="http://www.w3.org/2000/svg" xmlns:xlink="http://www.w3.org/1999/xlink" x="0px" y="0px"
	 width="512px" height="512px" viewBox="0 0 512 512" enable-background="new 0 0 512 512" xml:space="preserve">
<g>
	<g>
		<g>
			<path fill="#454646" d="M255.746,206.342c-44.215-47.389-109.631-43.595-109.631-43.595v98.7
				c62.807,0,60.247,54.477,60.247,54.477v118.568h98.766V315.923c0,0-2.56-54.477,60.244-54.477v-98.7
				C365.372,162.747,299.961,158.953,255.746,206.342z"/>
		</g>
		<g>
			<circle fill="#454646" cx="255.746" cy="129.418" r="51.91"/>
			<g>
				<path fill="#454646" d="M200.596,315.923c0.013-0.451,0.657-20.105-12.756-34.075c-9.318-9.713-23.358-14.635-41.725-14.635
					h-5.767V192.5C97.787,159.777,46,162.747,46,162.747v98.7c62.808,0,60.243,54.477,60.243,54.477v43.583
					c0,0-8.567,72.823,94.353,74.887V315.923z"/>
			</g>
			<g>
				<path fill="#454646" d="M371.147,192.894v74.32h-5.775c-18.425,0-32.483,4.955-41.804,14.721
					c-13.436,14.085-12.686,33.522-12.673,33.719l0.003,118.752c103.453-1.833,94.858-74.898,94.858-74.898v-43.583
					c0,0-2.568-54.477,60.243-54.477v-98.7C466,162.747,413.803,159.753,371.147,192.894z"/>
			</g>
		</g>
	</g>
	<g>
		<path fill="#454646" d="M356.373,77.508c-20.963,0-38.978,12.453-47.176,30.335c2.701,6.669,4.229,13.945,4.229,21.574
			c0,7.637-1.527,14.905-4.229,21.582c2.067,4.503,4.754,8.659,7.953,12.358c19.954-5.656,36.967-6.452,44.719-6.452
			c2.47,0,3.84,0.082,3.84,0.082l5.422,0.324l0.017,5.435v16.422c21.459-6.365,37.136-26.217,37.136-49.751
			C408.283,100.748,385.035,77.508,356.373,77.508z"/>
	</g>
	<g>
		<path fill="#454646" d="M140.349,157.317l5.435-0.329c0,0,1.361-0.082,3.843-0.082c7.797,0,24.983,0.812,45.104,6.571
			c3.102-3.568,5.734-7.559,7.785-11.882c-2.858-6.829-4.447-14.318-4.447-22.177c0-7.851,1.589-15.34,4.447-22.173
			c-8.326-17.562-26.16-29.736-46.889-29.736c-28.666,0-51.91,23.24-51.91,51.91c0,23.354,15.423,43.095,36.632,49.621V157.317z"/>
	</g>
</g>
</svg>
