<?xml version="1.0" encoding="utf-8"?>
<!-- Generator: Adobe Illustrator 16.0.4, SVG Export Plug-In . SVG Version: 6.00 Build 0)  -->
<!DOCTYPE svg PUBLIC "-//W3C//DTD SVG 1.1//EN" "http://www.w3.org/Graphics/SVG/1.1/DTD/svg11.dtd">
<svg version="1.1" id="Layer_1" xmlns="http://www.w3.org/2000/svg" xmlns:xlink="http://www.w3.org/1999/xlink" x="0px" y="0px"
	 width="512px" height="512px" viewBox="0 0 512 512" enable-background="new 0 0 512 512" xml:space="preserve">
<g>
	<path fill="#454646" d="M487.125,307.151h-0.056c-0.566-18.382-15.614-33.121-34.132-33.121H220.18
		c-18.519,0-33.559,14.739-34.132,33.121l-0.06,103.176c0,18.883,15.312,34.188,34.191,34.188h34.187v-63.917h13.266v63.917h137.852
		v-63.917h13.263v63.917h34.191c18.883,0,34.188-15.306,34.188-34.188V307.151z"/>
	<path fill="#454646" d="M169.948,341.142H47.949V140.896H228.4c1.513-8.726,4.049-17.107,7.5-25.004H54.185
		c-16.127,0-29.31,13.19-29.31,29.3v194.136c0,16.121,13.183,29.292,29.31,29.292h115.748L169.948,341.142z"/>
	<path fill="#454646" d="M169.907,410.319l0.014-21.063c-0.948-0.283-10.371,0-10.371,0c-5.671,0-10.321,4.655-10.321,10.325v18.859
		h-10.01c-5.669,0-10.317,4.646-10.317,10.321V446h55.899C175.611,436.884,169.907,424.252,169.907,410.319z"/>
	<path fill="#454646" d="M336.559,66c-51.762,0-93.725,41.955-93.725,93.719c0,51.767,41.963,93.714,93.725,93.714
		s93.728-41.947,93.728-93.714C430.286,107.955,388.32,66,336.559,66z"/>
	<path fill="#454646" d="M204.51,258.36h0.579l-16.105-16.105l39.493-39.491l-25.287-25.283l-39.491,39.491l-39.491-39.491
		l-25.286,25.283l39.491,39.491L98.921,281.75l25.286,25.287l39.491-39.491l10.107,10.106
		C179.338,266.245,190.98,258.36,204.51,258.36z"/>
</g>
</svg>
