<?xml version="1.0" encoding="utf-8"?>
<!-- Generator: Adobe Illustrator 16.0.4, SVG Export Plug-In . SVG Version: 6.00 Build 0)  -->
<!DOCTYPE svg PUBLIC "-//W3C//DTD SVG 1.1//EN" "http://www.w3.org/Graphics/SVG/1.1/DTD/svg11.dtd">
<svg version="1.1" id="Layer_1" xmlns="http://www.w3.org/2000/svg" xmlns:xlink="http://www.w3.org/1999/xlink" x="0px" y="0px"
	 width="512px" height="512px" viewBox="0 0 512 512" enable-background="new 0 0 512 512" xml:space="preserve">
<g>
	<path fill="#454646" d="M390.004,221.999c7.133,0,13.724,2.935,13.724,2.935c10.049,4.472,18.272,11.133,18.272,0.134v-79.07
		c0-10.999-8.995-20.002-20.002-20.002h-79.066c-10.999,0-1.662-8.691,1.202-19.312c0,0,1.863-6.928,1.863-12.688
		c0-28.719-23.282-51.998-51.998-51.998s-51.998,23.279-51.998,51.998c0,6.706,1.685,12.74,1.685,12.74
		c2.961,10.595,12.38,19.26,1.381,19.26H146c-10.999,0-20.002,9.003-20.002,20.002v83.066c0,11-8.269,0.453-18.377-3.889
		c0,0-7.407-3.176-13.627-3.176c-28.715,0-51.998,23.275-51.998,51.998c0,28.719,23.283,52.002,51.998,52.002
		c5.069,0,13.501-3.466,13.501-3.466c10.175-4.186,18.503-14.606,18.503-3.603v83.07c0,10.996,9.003,19.999,20.002,19.999h79.066
		c10.999,0,4.326-8.22-0.156-18.262c0,0-2.909-6.52-2.909-13.738c0-28.719,23.282-52.002,51.998-52.002s51.998,23.283,51.998,52.002
		c0,7.719-2.769,13.801-2.769,13.801c-4.564,10.012-11.296,18.199-0.297,18.199h79.066c11.007,0,20.002-9.003,20.002-19.999v-79.073
		c0-11-8.231-4.36-18.295,0.078c0,0-6.776,2.995-13.701,2.995c-28.723,0-52.006-23.283-52.006-52.002
		C337.998,245.273,361.281,221.999,390.004,221.999z"/>
</g>
</svg>
