<?xml version="1.0" encoding="utf-8"?>
<!-- Generator: Adobe Illustrator 19.2.1, SVG Export Plug-In . SVG Version: 6.00 Build 0)  -->
<svg version="1.1" id="Work_area" xmlns="http://www.w3.org/2000/svg" xmlns:xlink="http://www.w3.org/1999/xlink" x="0px" y="0px"
	 width="512px" height="512px" viewBox="0 0 512 512" enable-background="new 0 0 512 512" xml:space="preserve">
<g>
	<path fill="#454646" d="M396,286.8c-10.9,0-17.7-5.6-18.1-5.9c-1.1-0.9-1.3-2.6-0.3-3.7c0.9-1.1,2.6-1.3,3.7-0.3
		c0.5,0.4,12.1,9.7,29.3,0.9c1.3-0.7,2.9-0.1,3.5,1.1c0.7,1.3,0.1,2.9-1.1,3.5C406.7,285.6,400.9,286.8,396,286.8z"/>
	<path fill="#454646" d="M451.4,273.2c0,0-5.3,0-16.8,0s-17.2,19.1-21.7,24.9c-4.3,5.5-10.2,8.8-16.6,8.8c-7.1,0-13.4-4-17.8-10.4
		l-5.9-9.9c-4.2-9.4-13.6-15.9-24.6-15.9H306l-34,58.8c-3.2-13.9-6.4-28.8-9.3-43.7c0,0,20.7-20.6,20.7-25.3c-10.8,7-27.5,7-27.5,7
		s-14.9-0.4-27.5-7c0,5.2,20.7,25.3,20.7,25.3c-2.9,14.9-6.1,29.8-9.3,43.7l-34-58.8l-65.7,0c-1.8,2.6-11.9,15.7-24,15.7
		c-12.1,0-22.1-13.2-24-15.7l-31.9,0c-8.9,0-16.2,7.1-16.4,15.9V339c0,9.1,7.4,16.4,16.4,16.4h16.4v-30.8h3.6v30.8h56.4v23
		c0,14.9,12.1,27,27,27h27V355h6v50.5h117.9V355h6v50.5h27c14.9,0,27-12.1,27-27V355l0.1,0.2h71.3c0,0,7.9-17.8,0-30.3h3.8
		c8.6,13.5,0,30.3,0,30.3h1.4c9,0,16.6-6.7,16.6-15.9v-49.7C468,280.8,460.4,273.2,451.4,273.2z"/>
	<path fill="#454646" d="M255.9,254.6c40.9,0,74.1-33.1,74.1-74.1c0-40.9-33.2-74.1-74.1-74.1s-74.1,33.1-74.1,74.1
		C181.9,221.5,215.1,254.6,255.9,254.6z"/>
	<path fill="#454646" d="M395.6,173.3c-24.9,0-44.9,20.3-44.9,45.2c0,12.1,0,44.5,0,44.5s9.6,0,20.4,0c-5.1-6.9-8.2-16-8.2-25.9
		c0-21.6,14.7-39.1,32.8-39.1c-3.3,31.3,32.8,17.5,32.8,39.1c0,10-3.1,19.1-8.3,26c10.9,0,20.3,0.1,20.3,0.1s0.1-35,0.1-44.8
		C440.6,193.5,420.6,173.3,395.6,173.3z"/>
	<path fill="#454646" d="M116.4,263.4c24.9,0,45.2-20.2,45.2-45.2s-20.2-45.2-45.2-45.2s-45.2,20.2-45.2,45.2
		C71.4,243.2,91.6,263.4,116.4,263.4z"/>
</g>
</svg>
