<?xml version="1.0" encoding="utf-8"?>
<!-- Generator: Adobe Illustrator 16.0.4, SVG Export Plug-In . SVG Version: 6.00 Build 0)  -->
<!DOCTYPE svg PUBLIC "-//W3C//DTD SVG 1.1//EN" "http://www.w3.org/Graphics/SVG/1.1/DTD/svg11.dtd">
<svg version="1.1" id="Layer_1" xmlns="http://www.w3.org/2000/svg" xmlns:xlink="http://www.w3.org/1999/xlink" x="0px" y="0px"
	 width="512px" height="512px" viewBox="0 0 512 512" enable-background="new 0 0 512 512" xml:space="preserve">
<g>
	<g>
		<path fill="#454646" d="M127.21,185.948c-33.752,0-61.21-27.457-61.21-61.208c0-33.751,27.458-61.209,61.21-61.209
			c33.751,0,61.209,27.458,61.209,61.209C188.419,158.491,160.961,185.948,127.21,185.948z"/>
		<g>
			<path fill="#454646" d="M420.139,111.623H199.106c1.541,4.182,2.429,8.565,2.429,13.117c0,4.551-0.888,8.932-2.429,13.115
				h221.032c12.021,0,17.488-4.098,17.488-13.115C437.627,115.722,432.159,111.623,420.139,111.623z"/>
		</g>
	</g>
	<g>
		<path fill="#454646" d="M232.141,448.469c-33.752,0-61.21-27.458-61.21-61.209c0-33.751,27.458-61.208,61.21-61.208
			c33.751,0,61.209,27.457,61.209,61.208C293.35,421.012,265.892,448.469,232.141,448.469z"/>
		<g>
			<path fill="#454646" d="M420.139,374.145H304.035c1.543,4.18,2.43,8.565,2.43,13.116c0,4.552-0.887,8.938-2.43,13.117h116.104
				c12.021,0,17.488-4.099,17.488-13.117C437.627,378.243,432.159,374.145,420.139,374.145z"/>
			<path fill="#454646" d="M157.813,387.26c0-4.551,0.894-8.936,2.435-13.116H87.861c-12.019,0-17.488,4.099-17.488,13.116
				c0,9.018,5.47,13.117,17.488,13.117h72.387C158.707,396.198,157.813,391.812,157.813,387.26z"/>
		</g>
	</g>
	<g>
		<path fill="#454646" d="M384.791,317.11c-33.751,0-61.209-27.458-61.209-61.209c0-33.75,27.458-61.208,61.209-61.208
			c33.747,0,61.209,27.458,61.209,61.208C446,289.653,418.538,317.11,384.791,317.11z"/>
		<g>
			<path fill="#454646" d="M310.466,255.901c0-4.551,0.888-8.934,2.429-13.116H87.861c-12.019,0-17.488,4.099-17.488,13.116
				c0,9.018,5.47,13.117,17.488,13.117h225.033C311.354,264.834,310.466,260.453,310.466,255.901z"/>
		</g>
	</g>
</g>
</svg>
