<?xml version="1.0" encoding="utf-8"?>
<!-- Generator: Adobe Illustrator 16.0.4, SVG Export Plug-In . SVG Version: 6.00 Build 0)  -->
<!DOCTYPE svg PUBLIC "-//W3C//DTD SVG 1.1//EN" "http://www.w3.org/Graphics/SVG/1.1/DTD/svg11.dtd">
<svg version="1.1" id="Layer_1" xmlns="http://www.w3.org/2000/svg" xmlns:xlink="http://www.w3.org/1999/xlink" x="0px" y="0px"
	 width="512px" height="512px" viewBox="0 0 512 512" enable-background="new 0 0 512 512" xml:space="preserve">
<g>
	<path fill="#454646" d="M134.723,375.564l-54.786,42.128c8.106,9.552,17.519,17.209,27.873,22.864
		c0.449,0.242,0.916,0.499,1.369,0.733c0.835,0.44,1.675,0.847,2.519,1.257c12.906,6.144,27.339,9.426,42.753,9.426
		c1.733,0,3.436-0.089,5.154-0.166c0.839-0.061,1.698-0.1,2.557-0.176l-9.08-68.494
		C146.012,382.812,139.628,380.012,134.723,375.564z"/>
	<path fill="#454646" d="M125.057,353.818c0-2.139,0.252-4.209,0.682-6.223L61.893,321.23c-5.371,15-7.033,30.312-5.138,45.146
		c1.699,12.473,5.936,24.797,12.695,36.515c0,0,0,0,0,0.008c0.703,1.2,1.447,2.343,2.167,3.509c0.644,1.004,1.288,2.02,1.971,3.006
		l54.767-42.109C126.265,363.264,125.057,358.681,125.057,353.818z"/>
	<path fill="#454646" d="M145.482,325.84l-9.1-68.476c-13.83,2.53-26.427,7.654-37.381,15.058c-0.253,0.177-0.511,0.36-0.768,0.549
		c-1.188,0.82-2.357,1.648-3.493,2.52c-9.957,7.714-18.535,17.538-25.292,29.256c0,0,0,0,0,0.008
		c-0.705,1.192-1.311,2.416-1.955,3.624c-0.545,1.065-1.112,2.119-1.618,3.212l63.846,26.382
		C133.374,332.285,138.922,327.94,145.482,325.84z"/>
	<path fill="#454646" d="M174.175,332.081l54.787-42.14c-8.106-9.548-17.52-17.205-27.892-22.861
		c-0.448-0.244-0.897-0.498-1.346-0.731c-0.839-0.43-1.683-0.84-2.519-1.25c-12.91-6.154-27.347-9.426-42.753-9.426
		c-1.741,0-3.439,0.081-5.161,0.157c-0.854,0.062-1.699,0.108-2.558,0.177l9.084,68.494
		C162.864,324.834,169.271,327.634,174.175,332.081z"/>
	<path fill="#454646" d="M252.125,341.27c-1.679-12.481-5.92-24.805-12.676-36.523c-0.702-1.208-1.446-2.365-2.19-3.535
		c-0.644-0.997-1.269-2.002-1.951-2.987l-54.768,42.117c2.094,4.034,3.283,8.615,3.283,13.478c0,2.137-0.234,4.218-0.664,6.22
		l63.851,26.377C252.358,371.407,254.039,356.104,252.125,341.27z"/>
	<path fill="#454646" d="M179.156,369.678c-3.654,5.676-9.18,10.02-15.744,12.121l9.083,68.475
		c15.683-2.86,29.766-9.064,41.657-18.137c9.965-7.703,18.539-17.526,25.295-29.245c0.682-1.204,1.308-2.423,1.952-3.643
		c0.548-1.055,1.115-2.113,1.622-3.193L179.156,369.678z"/>
	<path fill="#454646" d="M382.905,165.139l62.225-22.474c-6.641-15.916-15.779-29.9-27.01-41.648
		c-0.491-0.51-0.978-1.023-1.488-1.522c-0.897-0.92-1.833-1.806-2.753-2.707c-14.356-13.467-31.91-23.789-52.129-30.242
		c-2.262-0.725-4.547-1.339-6.814-1.944c-1.154-0.283-2.285-0.575-3.439-0.851l-11.637,65.101
		C358.825,134.318,374.428,147.665,382.905,165.139z"/>
	<path fill="#454646" d="M452.669,166.459c-0.407-1.88-0.917-3.705-1.384-5.55c-0.434-1.583-0.821-3.155-1.308-4.734l-62.209,22.469
		c1.308,5.315,2.013,10.867,2.013,16.588c0,14.398-4.395,27.758-11.933,38.819l50.564,42.646
		c13.302-17.428,21.895-36.795,25.606-57.048C457.028,202.578,456.634,184.648,452.669,166.459z"/>
	<path fill="#454646" d="M320.677,126.136c1.703,0,3.382,0.076,5.038,0.203l11.661-65.127c-19.195-2.481-37.869-1.036-55.33,4.091
		c-0.411,0.127-0.798,0.265-1.212,0.402c-1.914,0.575-3.789,1.181-5.66,1.844c-16.293,5.937-31.623,15.234-45.393,27.773
		c0,0,0,0-0.022,0c-1.403,1.288-2.711,2.63-4.061,3.945c-1.15,1.162-2.343,2.316-3.478,3.524l50.568,42.661
		C285.208,133.498,302.087,126.136,320.677,126.136z"/>
	<path fill="#454646" d="M251.596,195.231c0-14.391,4.394-27.749,11.933-38.823l-50.564-42.635
		c-13.302,17.427-21.895,36.795-25.606,57.049c-3.006,17.07-2.619,35,1.35,53.183c0,0.008,0,0.008,0,0.02
		c0.406,1.863,0.897,3.673,1.384,5.506c0.429,1.591,0.82,3.175,1.308,4.767l62.208-22.471
		C252.301,206.505,251.596,200.948,251.596,195.231z"/>
	<path fill="#454646" d="M304.116,338.155c7.089,0,13.75,1.837,19.551,5.047l12.362-18.574c-7.715-4.609-15.936-7.451-24.337-8.493
		c-0.195-0.031-0.387-0.039-0.586-0.062c-0.917-0.107-1.833-0.195-2.753-0.265c-8.025-0.476-16.289,0.637-24.471,3.432
		c0,0,0,0-0.019,0c-0.821,0.279-1.641,0.613-2.462,0.924c-0.705,0.284-1.426,0.548-2.128,0.862l9.924,20.001
		C293.805,339.198,298.844,338.155,304.116,338.155z"/>
	<path fill="#454646" d="M344.546,377.86l22.305,1.415c0.115-8.018-1.193-15.652-3.792-22.742c-0.115-0.311-0.234-0.616-0.349-0.928
		c-0.215-0.556-0.448-1.104-0.683-1.66c-3.615-8.397-9.179-16.044-16.602-22.531c-0.84-0.729-1.68-1.414-2.539-2.097
		c-0.43-0.334-0.859-0.663-1.308-0.986l-12.366,18.582C338.373,354.18,344.312,365.311,344.546,377.86z"/>
	<path fill="#454646" d="M344.117,384.514c-1.776,12.205-8.984,22.626-19.122,28.746l9.923,20.02
		c8.904-4.958,16.151-11.618,21.465-19.56c4.451-6.722,7.597-14.425,9.275-22.918c0.176-0.871,0.291-1.74,0.43-2.618
		c0.118-0.74,0.234-1.493,0.333-2.256L344.117,384.514z"/>
	<path fill="#454646" d="M304.116,419.123c-7.109,0-13.77-1.849-19.571-5.062l-12.362,18.574c8.75,5.226,18.145,8.174,27.677,8.818
		c8.044,0.479,16.289-0.636,24.471-3.428c0.859-0.284,1.66-0.614,2.481-0.928c0.702-0.28,1.422-0.549,2.128-0.859l-9.923-20
		C314.411,418.076,309.392,419.123,304.116,419.123z"/>
	<path fill="#454646" d="M273.299,323.983c-5.219,2.922-9.866,6.434-13.908,10.44c1.17,6.289,1.795,12.766,1.795,19.395
		c0,6.365-0.583,12.589-1.66,18.644l4.57,0.292c1.779-12.205,9.003-22.628,19.122-28.747L273.299,323.983z"/>
	<path fill="#454646" d="M263.667,379.405l-5.506-0.344c-2.324,9.59-5.939,18.673-10.667,27.062
		c3.597,7.294,8.715,13.973,15.295,19.724c0.84,0.733,1.68,1.42,2.539,2.09c0.429,0.346,0.878,0.676,1.311,1.009L279,410.35
		C269.84,403.087,263.9,391.952,263.667,379.405z"/>
	<path fill="#454646" d="M368.569,245.018c-12.424,11.956-29.276,19.31-47.892,19.31c-1.679,0-3.355-0.08-5.02-0.206l-7.715,43.106
		c17.562,0.936,33.44,8.174,45.454,19.463c4.333-1.059,8.63-2.285,12.829-3.78c16.27-5.939,31.603-15.234,45.369-27.762
		c1.43-1.289,2.757-2.639,4.103-3.969c1.154-1.161,2.324-2.293,3.455-3.513L368.569,245.018z"/>
	<path fill="#454646" d="M265.208,318.438c8.344-5.322,17.834-8.995,28.03-10.528l8.282-46.298
		c-18.965-5.46-34.571-18.808-43.049-36.28l-62.225,22.469c1.423,3.382,2.968,6.661,4.59,9.866
		c23.26,11.239,41.814,30.656,51.934,54.521C256.772,314.466,260.914,316.545,265.208,318.438z"/>
</g>
</svg>
