<?xml version="1.0" encoding="utf-8"?>
<!-- Generator: Adobe Illustrator 16.0.4, SVG Export Plug-In . SVG Version: 6.00 Build 0)  -->
<!DOCTYPE svg PUBLIC "-//W3C//DTD SVG 1.1//EN" "http://www.w3.org/Graphics/SVG/1.1/DTD/svg11.dtd">
<svg version="1.1" id="Layer_1" xmlns="http://www.w3.org/2000/svg" xmlns:xlink="http://www.w3.org/1999/xlink" x="0px" y="0px"
	 width="512px" height="512px" viewBox="0 0 512 512" enable-background="new 0 0 512 512" xml:space="preserve">
<g>
	<g>
		<g>
			<path fill="#454646" d="M222.935,341.997c1.625-4.87,6.762-10.659,11.954-9.875c5.197,0.78,14.033,10.394,23.646,27.803
				c9.613,17.405,17.927,25.729,19.48,31.435c1.561,5.719-1.036,14.813-5.973,17.928c-4.938,3.114-11.954,5.455-26.76,0
				c-14.81-5.456-42.871-10.139-46.248-12.986c-3.377-2.862-4.938-5.714-4.675-8.051c0.263-2.346,3.64-3.907,3.64-8.312
				c0-4.428-4.42-16.899-2.079-21.057c2.333-4.153,7.526-5.456,15.586-5.715C219.558,352.908,220.346,349.79,222.935,341.997z"/>
			<path fill="#454646" d="M350.513,413.962c0,0-9.358-1.561-10.138-10.394c-0.781-8.824,3.114-19.48,3.114-25.982
				c0-6.487-2.079-36.11,0.526-38.698c2.596-2.608,9.867-3.126,9.867-3.126s-0.104,21.049,11.253,20.269s21.75-2.863,27.724-17.414
				c0,0,4.934,1.816,4.675,10.656c-0.259,8.833,4.675,13.767,8.578,15.586c3.895,1.82,16.366,10.397,6.232,17.151
				c-10.134,6.75-31.439,21.045-36.635,25.716C370.511,412.401,360.644,417.605,350.513,413.962z"/>
			<path fill="#454646" d="M337.778,373.695c0,0,2.333,7.534,0,16.104c-2.341,8.569-1.82,14.295-1.82,14.295
				s-11.154-2.046-24.812-2.086c-12.05-0.024-22.734-0.514-27.675,2.086c0,0,1.565-7.278,0-15.199
				C283.471,388.895,321.667,394.744,337.778,373.695z"/>
			<path fill="#454646" d="M328.946,235.723c0,0,7.789,4.688,9.867,16.896c2.079,12.213,14.288,34.298,15.849,45.73
				c1.561,11.429,2.079,50.139,7.797,52.477c5.718,2.341,27.229,7.271,31.698-31.432c2.341-20.261-10.465-45.802-23.383-58.72
				c-10.19-10.194-15.068-12.73-19.743-38.455c-4.683-25.716-4.452-41.445-10.759-52.484c-4.158-7.271-11.588-15.849-34.35-15.849
				c-17.267,0-28.425,6.24-32.064,14.029c-3.631,7.797-7.008,23.908-5.447,43.134c1.553,19.226,1.553,31.702,1.553,31.702
				s-14.551,17.923-22.077,32.207c-7.542,14.3-10.397,25.465-13.261,30.917c-2.851,5.463-8.569,13.261-7.271,22.606
				c0,0,8.315-10.394,15.331-0.518c7.017,9.875,27.541,44.336,27.541,44.336s5.575,1.136,8.243-2.764
				c2.668-3.894-23.315-30.136-23.315-30.136s-10.134-7.017-6.75-22.861c3.377-15.853,18.7-53.388,18.7-53.388l7.797-13.13v-13.252
				c0,0-10.393-11.166,1.298-19.488c0,0-2.079-5.974-2.079-12.985c0-7.009,2.596-13.508,7.797-13.508
				c5.193,0,11.349,7.355,11.349,16.964l9.087-0.084c0-10.214,5.025-18.186,13.077-18.448c8.06-0.26,14.033,9.095,14.033,16.115
				c0,7.013-1.043,10.135-1.043,10.135s5.981,3.894,5.981,9.087C334.401,229.754,328.946,235.723,328.946,235.723z"/>
			<path fill="#454646" d="M297.762,210.273c6.758,0,28.213,7.896,31.184,10.907c2.875,2.931,2.596,5.981-1.824,9.612
				c-4.412,3.644-18.313,15.85-29.36,15.85c-11.305,0-21.045-12.982-21.045-12.982s11.954,6.487,17.147,6.487
				c8.49,0,25.724-5.456,30.141-14.029c0,0-20.528,10.652-29.615,10.394c-9.095-0.263-14.813-4.42-17.673-6.495
				c-2.859-2.082-4.149-5.722-1.035-8.314C278.795,219.102,288.153,210.273,297.762,210.273z"/>
			<path fill="#454646" d="M281.006,213.77c0,0,5.977-3.759,7.665-4.408c0,0-0.398-6.391-3.831-8.179
				c-2.66-1.394-6.993-0.076-7.167,5.276C277.521,211.157,281.006,213.77,281.006,213.77z"/>
			<path fill="#454646" d="M310.238,209.493c0,0,6.363,2.325,10.13,4.276c0,0,4.34-6.845,2.214-10.517
				c-2.819-4.85-7.717-3.385-9.661-1.386C310.971,203.866,310.238,209.493,310.238,209.493z"/>
		</g>
	</g>
</g>
</svg>
