<?xml version="1.0" encoding="utf-8"?>
<!-- Generator: Adobe Illustrator 16.0.4, SVG Export Plug-In . SVG Version: 6.00 Build 0)  -->
<!DOCTYPE svg PUBLIC "-//W3C//DTD SVG 1.1//EN" "http://www.w3.org/Graphics/SVG/1.1/DTD/svg11.dtd">
<svg version="1.1" id="Layer_1" xmlns="http://www.w3.org/2000/svg" xmlns:xlink="http://www.w3.org/1999/xlink" x="0px" y="0px"
	 width="512px" height="512px" viewBox="0 0 512 512" enable-background="new 0 0 512 512" xml:space="preserve">
<g>
	<g>
		<path fill="#454646" d="M79.775,71.407c0-8.3,6.789-15.089,15.079-15.089h2.749c8.297,0,15.085,6.789,15.085,15.089v64.454
			c0,8.294-6.788,15.082-15.085,15.082h-2.749c-8.29,0-15.079-6.788-15.079-15.082V71.407z"/>
		<path fill="#454646" d="M265.596,71.407c0-8.3,6.782-15.089,15.084-15.089h2.736c8.297,0,15.092,6.789,15.092,15.089v64.454
			c0,8.294-6.795,15.082-15.092,15.082h-2.736c-8.303,0-15.084-6.788-15.084-15.082V71.407z"/>
	</g>
	<g>
		<path fill="#454646" d="M225.758,321.157c-7.385-5.366-10.47-14.873-7.652-23.553c2.825-8.678,10.909-14.554,20.036-14.554h48.025
			v-42.284H96.911v91.886h144.672L225.758,321.157z"/>
	</g>
	<g>
		<path fill="#454646" d="M288.504,384.079H38.628V188.313h305.815h22.628V97.459h-52.105v41.827
			c0,15.085-12.342,27.427-27.427,27.427h-10.971c-15.091,0-27.427-12.342-27.427-27.427V97.459H129.145v41.827
			c0,15.085-12.349,27.427-27.427,27.427H90.747c-15.085,0-27.428-12.342-27.428-27.427V97.459H16v309.93h264.927L288.504,384.079z"
			/>
	</g>
	<polygon fill="#454646" points="446.754,455.682 416.324,362.01 496,304.115 397.508,304.115 367.071,210.439 336.64,304.115 
		238.141,304.115 317.825,362.01 287.395,455.682 367.071,397.79 	"/>
</g>
</svg>
