<?xml version="1.0" encoding="utf-8"?>
<!-- Generator: Adobe Illustrator 19.2.1, SVG Export Plug-In . SVG Version: 6.00 Build 0)  -->
<svg version="1.1" id="Work_area" xmlns="http://www.w3.org/2000/svg" xmlns:xlink="http://www.w3.org/1999/xlink" x="0px" y="0px"
	 width="512px" height="512px" viewBox="0 0 512 512" enable-background="new 0 0 512 512" xml:space="preserve">
<g>
	<path fill="#454646" d="M305.9,315.9v-220c0-27.5-22.4-49.9-49.9-49.9c-27.5,0-49.9,22.4-49.9,49.9v220
		c-20.9,15.6-33.5,40.3-33.5,66.8c0,46,37.4,83.3,83.3,83.3s83.3-37.4,83.3-83.3C339.3,356.2,326.7,331.5,305.9,315.9z M256,448
		c-36.1,0-65.3-29.3-65.3-65.3c0-24.5,13.5-45.9,33.5-57V230H252v-12h-27.8v-28H252v-12h-27.8v-28H252v-12h-27.8v-28H252V98h-27.8
		v-2.1c0-17.6,14.3-31.9,31.9-31.9s31.9,14.3,31.9,31.9v229.8c20,11.2,33.5,32.5,33.5,57C321.3,418.7,292.1,448,256,448z"/>
	<path fill="#454646" d="M281,337.8l-7.2-4v-8.2V246h-35.7v12H252v12h-13.8v28H252v12h-13.8v15.6v8.2l-7.2,4
		c-16.2,9.1-26.3,26.3-26.3,44.8c0,28.3,23,51.3,51.3,51.3c28.3,0,51.3-23,51.3-51.3C307.3,364.1,297.3,346.9,281,337.8z"/>
</g>
</svg>
