<?xml version="1.0" encoding="utf-8"?>
<!-- Generator: Adobe Illustrator 19.2.1, SVG Export Plug-In . SVG Version: 6.00 Build 0)  -->
<svg version="1.1" id="Work_area" xmlns="http://www.w3.org/2000/svg" xmlns:xlink="http://www.w3.org/1999/xlink" x="0px" y="0px"
	 width="512px" height="512px" viewBox="0 0 512 512" enable-background="new 0 0 512 512" xml:space="preserve">
<g>
	<g>
		<g>
			<path fill="#454646" d="M200.8,104.3c25.8,0,50,10,68.2,28.2c37.6,37.6,37.6,98.8,0,136.4c-18.2,18.2-42.4,28.2-68.2,28.2
				c-25.8,0-50-10-68.2-28.2c-18.2-18.2-28.2-42.4-28.2-68.2c0-25.8,10-50,28.2-68.2C150.8,114.4,175,104.3,200.8,104.3 M200.8,66
				c-34.5,0-69,13.2-95.3,39.5c-52.6,52.6-52.6,137.9,0,190.6c26.3,26.3,60.8,39.5,95.3,39.5c34.5,0,69-13.2,95.3-39.5
				c52.6-52.6,52.6-137.9,0-190.6C269.7,79.2,235.2,66,200.8,66L200.8,66z"/>
		</g>
		<path fill="#454646" d="M443.8,411.8c3,3,3,7.9,0,10.8l-21.1,21.1c-3,3-7.9,3-10.8,0L305.1,337.1c-3-3-3-7.9,0-10.8l21.1-21.1
			c3-3,7.9-3,10.8,0L443.8,411.8z"/>
	</g>
	<g>
		<polygon fill="#454646" points="268,180 220,180 220,132 180,132 180,180 132,180 132,220 180,220 180,268 220,268 220,220 
			268,220 		"/>
	</g>
</g>
</svg>
