<?xml version="1.0" encoding="utf-8"?>
<!-- Generator: Adobe Illustrator 19.2.1, SVG Export Plug-In . SVG Version: 6.00 Build 0)  -->
<svg version="1.1" id="Ebene_1" xmlns="http://www.w3.org/2000/svg" xmlns:xlink="http://www.w3.org/1999/xlink" x="0px" y="0px"
	 width="512px" height="512px" viewBox="0 0 512 512" enable-background="new 0 0 512 512" xml:space="preserve">
<polygon id="XMLID_413_" fill="#454646" points="364.2,79.8 160.7,79.8 76.6,225.5 111.2,225.5 178.1,109.7 346.9,109.7 431.4,256 
	346.9,402.3 178.1,402.3 115.6,294.1 127.8,294.1 127.8,294 162.6,294 194.4,238.6 241,354.7 289,271.7 302.3,293.6 365.7,293.6 
	365.7,259.3 321.6,259.3 293.5,199 248.5,277.3 200.1,161.8 143.6,259.8 46,259.8 46,294.1 81,294.1 160.7,432.2 364.2,432.2 
	466,256 "/>
</svg>
