<?xml version="1.0" encoding="utf-8"?>
<!-- Generator: Adobe Illustrator 19.2.1, SVG Export Plug-In . SVG Version: 6.00 Build 0)  -->
<svg version="1.1" id="Work_area" xmlns="http://www.w3.org/2000/svg" xmlns:xlink="http://www.w3.org/1999/xlink" x="0px" y="0px"
	 width="512px" height="512px" viewBox="0 0 512 512" enable-background="new 0 0 512 512" xml:space="preserve">
<path fill="#454646" d="M437.4,164.6l-30.8-52.8c-1.8-3.1-6.2-3.3-8.3-0.4c-75.9,102.7-97.8,186.9-111.9,261.4l-15.2,2.5
	c15.8-124.9,27.5-190.8,55.1-318.5c1-4.8-2.1-8.8-7-8.8H256h-63.2c-4.9,0-8,4-7,8.8c27.6,127.7,39.3,193.6,55.1,318.5l-15.2-2.5
	c-14.2-74.5-36.1-158.7-111.9-261.4c-2.1-2.9-6.5-2.7-8.3,0.4l-30.8,52.8c-1.2,2.1-0.7,4.8,1.2,6.3
	c74.6,59.9,116.6,148.6,127.5,199.2l-66.1-14.5L256,464l118.8-108.4L308.7,370c10.9-50.6,52.9-139.3,127.5-199.2
	C438.1,169.3,438.6,166.7,437.4,164.6z"/>
</svg>
