<?xml version="1.0" encoding="utf-8"?>
<!-- Generator: Adobe Illustrator 16.0.4, SVG Export Plug-In . SVG Version: 6.00 Build 0)  -->
<!DOCTYPE svg PUBLIC "-//W3C//DTD SVG 1.1//EN" "http://www.w3.org/Graphics/SVG/1.1/DTD/svg11.dtd">
<svg version="1.1" id="Layer_1" xmlns="http://www.w3.org/2000/svg" xmlns:xlink="http://www.w3.org/1999/xlink" x="0px" y="0px"
	 width="512px" height="512px" viewBox="0 0 512 512" enable-background="new 0 0 512 512" xml:space="preserve">
<g>
	<path fill="#454646" d="M495.95,199.224c-1.897-11.278-2.895-22.655-5.59-33.833c-2.194-9.082-4.69-20.359-11.077-27.544
		c-5.589-6.288-17.165-11.776-25.35-7.285c-4.491,2.495-6.986,6.985-9.781,10.978c-3.592,5.09-8.881,8.483-13.771,12.276
		c-4.291-6.986-7.685-13.973-13.172-20.16c-6.388-7.085-14.074-11.477-21.758-16.966c-16.267-11.776-30.239-27.146-48.103-36.626
		c-33.135-17.565-80.938-5.39-108.882,17.465c-6.786,5.589-12.774,12.075-17.965,19.161c-2.394,3.293-5.787,3.992-9.38,5.19
		c-5.189,1.796-9.881,4.491-14.073,7.984c-7.085,5.788-12.374,13.972-21.655,15.968c-10.38,2.195-20.759,3.892-30.938,6.986
		c-18.662,5.588-36.327,14.57-50.997,27.444c-7.386,6.587-14.072,13.972-19.761,22.056c-5.488,7.785-10.979,18.164-19.561,23.154
		c3.593-7.685,6.088-15.768,7.186-24.251c0.398-2.794,0.498-5.489,0.698-8.283c0.199-3.193,2.495-8.284,1.796-11.078
		c-0.599-2.694,0-1.098-1.996-1.996c-5.389,0.1-10.777,0.599-16.067,1.796c-8.084,1.796-16.068,5.289-21.557,11.677
		c-17.564,20.458-6.088,74.45,26.647,72.155c-0.799,6.587-0.699,13.074,0.398,19.661c1.098,6.487,3.593,13.174,1.397,19.66
		c-2.196,6.388-4.891,12.774-10.479,16.967c-5.09,3.892-12.675,10.278-14.072,16.766c-5.39,25.849,26.847,51.397,49.602,53.393
		c-4.891,13.174-7.086,25.149,8.482,31.138c14.471,5.588,31.137,9.581,46.606,11.177c14.072,1.397,23.553-5.189,24.95-19.461
		c0.599-6.786,0.1-12.974,4.489-18.763c4.892-6.387,8.084-13.971,7.087-22.155c5.389,0,10.778,0,16.168,0
		c-8.783,9.182-2.595,22.355,2.095,32.036c5.19,10.678,12.476,20.259,21.559,27.844c9.68,8.083,23.353,8.782,33.832,1.496
		c10.379-7.185,15.169-20.857,27.344-26.346c4.991-2.296,9.979-0.799,15.069-0.1c6.089,0.798,12.275,0.897,18.364,0.798
		c11.876-0.2,26.746,1.098,32.832-11.677c2.896-6.088,2.297-13.174-0.299-19.36c-2.595-6.089-1.296-12.875-1.796-19.262
		c-0.998-14.271-5.888-25.849-10.777-38.922c8.981,7.285,16.467,16.566,28.842,17.864c12.176,1.298,24.451-4.091,32.734-12.874
		c3.692-3.893,6.586-8.583,8.283-13.673c0.798-2.595,1.597-5.19,2.395-7.784c4.093,0.399,8.084,0.798,12.177,1.097
		c14.071,0.999,28.441-0.698,41.416-6.586C488.265,280.86,496.75,237.347,495.95,199.224z M284.774,394.432
		c14.371-16.966,23.652-37.324,30.039-58.482c3.394,7.584,5.188,15.868,5.589,24.151c0.499,9.381,1.598,17.565,3.095,26.746
		C325.892,400.52,291.96,395.729,284.774,394.432C298.047,378.664,286.371,394.731,284.774,394.432z M416.21,290.939
		c-23.853,0-46.907-8.283-67.963-18.562c-0.6,13.873-10.181,34.63,7.284,42.415c9.481,4.491,16.566-4.491,20.659-11.776
		c2.296-4.092,1.995-5.09,6.786-3.593c2.096,1.996-2.895,11.077-4.191,13.174c-4.392,6.985-12.774,12.375-21.157,12.375
		c-11.577,0-19.46-10.479-27.646-17.166c-8.783-7.185-18.264-10.18-28.144-15.17c-6.886-3.493-13.473-7.784-20.259-11.576
		c3.194,4.99,5.787,9.68,10.28,13.673c3.292,2.994,17.265,10.778,16.566,15.967c-2.795,20.858-12.077,43.114-23.254,60.779
		c-5.987,9.48-12.774,16.467-21.558,23.453c-4.89,3.892-9.879,7.684-14.769,11.576c-5.189,4.092-8.384,8.683-12.675,13.473
		c-8.483,9.182-17.065,3.992-23.354-4.291c-3.193-4.192-6.088-8.483-8.684-12.975c-2.494-4.091-7.484-10.279-7.383-15.368
		c0.098-4.99,9.779-8.683,13.571-10.979c4.69-2.894,9.282-5.789,13.973-8.582c1.796-1.099,0.498-10.28,0.498-12.276
		c0-1.497,0.699-3.993-0.997-3.993c-2.996,0-7.286-0.199-8.085,3.493c-1.696,6.986-24.65,5.189-30.337,5.09
		c-6.389-0.1-12.777-0.698-19.062-1.696c-3.395-0.998-3.096-9.78-8.583-6.387c-5.788,3.593-1.298,22.255-3.194,28.243
		c-3.293,10.679-11.976,17.564-12.374,29.54c-0.2,6.288-0.101,9.182-7.485,9.182c-9.281,0-18.464-1.796-27.346-4.391
		c-4.391-1.298-15.768-2.795-17.165-8.284c-1.497-5.588,2.694-13.872,3.992-19.261c1.495-6.087,5.289-15.169,3.095-21.257
		c-2.796-7.784-8.784-14.97-12.676-22.255c-7.485-14.172-13.574-29.141-17.065-44.81c-7.086-32.036,0.498-65.967,20.657-91.816
		c20.36-26.147,48.403-38.423,80.14-44.61c-19.261,22.455-59.181,60.778-34.131,91.417c4.19,5.089,14.171,16.566,13.372,23.553
		c-0.697,6.287-5.888,14.57-2.693,20.958c2.993,6.187,10.979,12.175,16.366,16.067c7.086,5.29,15.67,8.184,24.552,7.485
		c17.963-1.397,33.433-15.37,50.198-21.058c7.086-2.395,18.661-2.994,24.352-7.884c5.389-4.591,6.586-16.368,7.584-22.854
		c3.193-20.16-0.798-39.919-3.593-59.88c-2.096-14.471-3.892-28.842-7.284-43.014c-4.192,16.966-6.787,33.333-4.791,50.898
		c1.298,10.978,2.894,21.956,3.595,32.934c0.298,5.09,0.298,9.98-0.701,15.069c-0.797,3.893-1.695,13.474-4.89,16.069
		c-2.993,2.495-9.58,2.495-13.374,3.692c-5.288,1.697-10.378,3.992-15.367,6.487c-9.581,4.791-18.862,11.776-29.143,14.97
		c-9.979,3.093-20.259,0.1-27.744-6.986c-7.085-6.687-8.483-11.777-4.092-20.56c6.985-18.063-18.862-28.941-21.855-45.209
		c-1.697-8.982,5.987-19.86,10.379-27.245c4.689-7.984,10.279-15.07,16.566-21.757c8.084-8.682,16.067-17.664,23.952-26.546
		c6.585-7.485,13.074-16.966,21.557-22.255c8.084-4.99,16.864-4.192,25.747-6.088c3.194-0.699,5.29-2.396,4.692-5.988
		c-0.5-3.293-4.692-2.794-7.086-2.694c15.968-21.357,46.108-33.932,72.354-35.928c11.777-0.898,24.352,0.299,34.631,6.487
		c14.172,8.483,26.846,19.76,39.92,29.84c-3.394,1.596-6.887,3.093-10.279,4.69c7.085,0.399,14.271,0.399,20.858,3.293
		c10.079,4.491,16.466,13.873,21.456,23.354c-9.081-0.998-18.763,6.387-27.444,8.882c3.194,0.998,6.287,1.996,9.48,3.093
		c0.301,3.493,0.598,6.986,0.898,10.479c3.094-3.692,4.69-6.786,9.88-7.585c7.784-1.297,9.781,5.689,9.881,12.176
		c-11.276-0.199-22.954,0.2-28.442,11.776c-3.394,7.285-4.791,15.669-6.388,23.453c4.291-5.589,8.084-12.076,12.974-17.166
		c3.893-3.992,8.98-5.987,14.571-6.387c1.896-0.1,8.683-0.998,8.683,1.297c0,2.894-0.2,5.788-0.399,8.682
		c-0.199,2.994-2.295,23.254,1.197,23.154c7.784,0,9.38-26.646,9.78-31.437c0.399-5.788,0.699-11.776-0.201-17.564
		c-0.597-3.893-0.597-6.886,3.096-8.982c5.488-3.093,10.878-5.389,15.967-9.48c4.892-3.893,8.084-9.98,13.075-13.374
		c6.586-4.391,10.278,5.39,12.075,10.08c2.096,5.489-8.483,13.373-12.575,17.066c-8.582,7.784-17.863,6.886-28.442,5.688
		c5.588,3.493,11.276,7.983,18.263,7.983c11.278,0,21.556-9.58,26.248-19.261c6.887,27.545,9.581,58.981-1.797,85.728
		C463.416,276.069,442.856,290.939,416.21,290.939z M44.556,204.313c0,4.391-0.1,8.782-1.097,13.174
		c-0.999,3.992-5.49,7.685-4.99,11.876c0.398,2.994,3.194,7.984,5.589,9.681c4.791,3.393,11.376-0.898,15.868-2.894
		c-2.096,8.482-2.195,17.065-12.874,15.968c-9.581-0.899-15.27-8.284-17.565-17.066c-3.493-12.874-3.792-38.323,15.369-39.121
		C44.556,198.725,44.556,201.519,44.556,204.313C44.556,208.206,44.556,201.519,44.556,204.313z M76.793,376.368
		c-10.28,0-22.357-10.978-27.944-18.663c-2.994-4.191-7.686-12.474-4.293-17.665c4.492-6.786,12.476-11.177,17.066-18.163
		c3.394,9.979,7.685,19.66,12.675,29.041C76.991,356.309,92.161,376.368,76.793,376.368z"/>
	<path fill="#454646" d="M370.602,181.56c-2.794,0-5.888,0.898-8.584-0.2c-3.093-1.198-5.487-6.288-7.284-8.982
		c-2.395-3.493,3.992-6.288,6.786-8.583c-12.874-0.699-24.451,0.799-34.729,9.381c-9.382,7.884-15.669,18.663-22.157,28.843
		c5.19-2.794,10.38-5.489,15.57-8.283c1.397,3.393,3.394,6.686,5.688,9.58c2.794-0.998,3.392-2.096,1.896-4.292
		c-2.096-3.692-2.396-8.583-0.699-12.475c3.893-8.782,10.278,3.094,12.076,7.187c-4.191,4.49-9.98,9.281-12.476,14.969
		c-1.396,3.194-0.798,7.385-0.698,10.778c15.469-17.065,33.533-27.844,54.49-37.025C377.188,182.258,373.896,181.56,370.602,181.56z
		"/>
	<path fill="#454646" d="M257.629,141.54c0.299-3.194-2.396-2.096-4.69-1.796c-5.89,0.699-11.776,1.597-17.665,1.896
		c-9.082,0.499-17.064,1.796-22.754,9.78c-6.587,9.381-9.382,22.355-13.174,33.133c-2.196,6.487-2.994,12.375-3.693,19.162
		c3.095-5.289,6.188-10.679,8.982-16.067c4.99-9.88,8.184-21.258,16.666-28.843c4.492-3.992,9.781-6.087,15.469-7.584
		c5.091-1.297,9.881-3.393,14.872-4.89C255.633,145.033,258.327,145.632,257.629,141.54z"/>
	<path fill="#454646" d="M322.498,143.336c2.495-1.597,4.99-3.193,7.586-4.89c-8.686,1.197-17.367,2.096-24.452,7.884
		c-9.58,7.784-9.481,17.665-2.694,27.046C305.531,160.501,311.121,150.621,322.498,143.336z"/>
	<path fill="#454646" d="M332.578,261c-6.587,7.086-3.893,26.747-4.193,36.028c1.897-7.785,2.995-16.966,6.788-24.052
		c5.189-9.68,16.367-12.675,25.946-16.367C353.135,256.808,338.465,254.613,332.578,261
		C329.684,264.193,335.673,257.607,332.578,261z"/>
</g>
</svg>
