<?xml version="1.0" encoding="utf-8"?>
<!-- Generator: Adobe Illustrator 16.0.4, SVG Export Plug-In . SVG Version: 6.00 Build 0)  -->
<!DOCTYPE svg PUBLIC "-//W3C//DTD SVG 1.1//EN" "http://www.w3.org/Graphics/SVG/1.1/DTD/svg11.dtd">
<svg version="1.1" id="Layer_1" xmlns="http://www.w3.org/2000/svg" xmlns:xlink="http://www.w3.org/1999/xlink" x="0px" y="0px"
	 width="512px" height="512px" viewBox="0 0 512 512" enable-background="new 0 0 512 512" xml:space="preserve">
<g>
	<g>
		<g>
			<g>
				<path fill="#454646" d="M445.958,82.688H165.356c-11.023,0-20.042,9.021-20.042,20.044v102.101h201.329
					c17.091,0,31.912,9.794,39.224,24.051h45.942v14.147h-41.519c0.259,1.935,0.446,3.892,0.446,5.896v34.191h55.22
					c11.024,0,20.042-9.02,20.042-20.043V102.731C466,91.708,456.981,82.688,445.958,82.688z M431.81,189.973H179.504v-14.148
					H431.81V189.973z M431.81,136.921H179.504v-14.147H431.81V136.921z"/>
			</g>
		</g>
	</g>
	<path fill="#454646" d="M346.643,228.883H66.042c-11.023,0-20.042,9.02-20.042,20.043v160.343c0,11.023,9.019,20.044,20.042,20.044
		h280.601c11.024,0,20.043-9.021,20.043-20.044V248.926C366.686,237.902,357.667,228.883,346.643,228.883z M332.492,389.227H80.19
		v-14.147h252.302V389.227z M332.492,336.167H80.19v-14.146h252.302V336.167z M332.492,283.117H80.19V268.97h252.302V283.117z"/>
</g>
</svg>
