<?xml version="1.0" encoding="utf-8"?>
<!-- Generator: Adobe Illustrator 16.0.4, SVG Export Plug-In . SVG Version: 6.00 Build 0)  -->
<!DOCTYPE svg PUBLIC "-//W3C//DTD SVG 1.1//EN" "http://www.w3.org/Graphics/SVG/1.1/DTD/svg11.dtd">
<svg version="1.1" id="Layer_1" xmlns="http://www.w3.org/2000/svg" xmlns:xlink="http://www.w3.org/1999/xlink" x="0px" y="0px"
	 width="512px" height="512px" viewBox="0 0 512 512" enable-background="new 0 0 512 512" xml:space="preserve">
<g>
	<path fill="#454646" d="M334.709,256.305H224.64l-55.033,94.844L224.64,446h110.069l55.049-94.852L334.709,256.305z
		 M314.514,411.184h-69.672l-34.835-60.035l34.835-60.028h69.672l34.838,60.028L314.514,411.184z"/>
	<path fill="#454646" d="M271.652,117.33H84.243c-3.296,0-5.589,2.664-5.099,5.915l2.223,34.86
		c0.482,3.258,2.297,8.201,4.034,10.999l58.837,61.758l-58.841,61.75c-1.733,2.798-3.548,7.748-4.03,10.999l-2.227,34.86
		c-0.482,3.259,1.811,5.915,5.103,5.915h62.173l65.242-113.524l58.842-61.758c1.732-2.798,3.551-7.741,4.033-10.999l2.223-34.86
		C277.238,119.994,274.947,117.33,271.652,117.33z M237.779,152.621l-15.162,15.912c0,0-66.531,7.771-81.485,8.335l-22.967-24.106
		c0,0-4.122-4.49,0.769-4.49c4.883,0.008,112.159,0.008,117.629,0.008C242.028,148.279,237.779,152.621,237.779,152.621z"/>
	<path fill="#454646" d="M421.203,66H257.068c-6.449,0-11.726,5.262-11.726,11.719v16.165h26.31c5.938,0,11.608,1.826,16.348,5.099
		h113.94v18.756H299.856c0.408,2.486,0.521,5.039,0.259,7.607l-0.311,4.891H401.94v18.763H298.609l-0.676,10.599l-0.066,0.979
		l-0.141,0.972c-0.95,6.405-3.886,14.406-7.304,19.913l-1.272,2.063l-1.674,1.759l-42.134,44.212v2.731l0.601,0.631h88.766h13.501
		l6.783,11.675l32.464,55.938h33.746c6.446,0,11.72-5.276,11.72-11.719V77.719C432.923,71.262,427.649,66,421.203,66z"/>
</g>
</svg>
