<?xml version="1.0" encoding="utf-8"?>
<!-- Generator: Adobe Illustrator 16.0.4, SVG Export Plug-In . SVG Version: 6.00 Build 0)  -->
<!DOCTYPE svg PUBLIC "-//W3C//DTD SVG 1.1//EN" "http://www.w3.org/Graphics/SVG/1.1/DTD/svg11.dtd">
<svg version="1.1" id="Layer_1" xmlns="http://www.w3.org/2000/svg" xmlns:xlink="http://www.w3.org/1999/xlink" x="0px" y="0px"
	 width="512px" height="512px" viewBox="0 0 512 512" enable-background="new 0 0 512 512" xml:space="preserve">
<path id="Opera" fill="#454646" d="M255.299,408.369c62.058,0,74.666-94.005,74.666-157.253c0-72.805-17.909-152.223-74.666-152.223
	c-56.751,0-73.273,84.439-73.273,152.223C182.018,313.792,194.126,408.373,255.299,408.369L255.299,408.369z M255.281,66
	c101.613,0,177.644,75.817,177.644,188.255c0,99.288-72.034,191.745-177.624,191.745c-104.569,0-176.226-92.485-176.226-191.745
	C79.071,142.71,152.753,66,255.281,66L255.281,66z"/>
</svg>
