<?xml version="1.0" encoding="utf-8"?>
<!-- Generator: Adobe Illustrator 19.2.1, SVG Export Plug-In . SVG Version: 6.00 Build 0)  -->
<svg version="1.1" id="Work_area" xmlns="http://www.w3.org/2000/svg" xmlns:xlink="http://www.w3.org/1999/xlink" x="0px" y="0px"
	 width="512px" height="512px" viewBox="0 0 512 512" enable-background="new 0 0 512 512" xml:space="preserve">
<circle fill="#454646" cx="120" cy="395.2" r="61.8"/>
<path fill="#454646" d="M403.6,242H275v-42.9c0-3.4-3.2-6.1-6.6-6.1h-24.7c-3.4,0-6.7,2.7-6.7,6.1V242H108.5c-3.8,0-6.5,2.7-6.5,6.4
	v13.7v3.4v47.3c0,3.4,2.4,6.1,5.8,6.1h24.7c3.4,0,6.5-2.7,6.5-6.1V272h234v40.9c0,3.4,3.2,6.1,6.5,6.1h24.7c3.4,0,5.7-2.7,5.7-6.1
	v-47.3v-3.4v-13.7C410,244.7,407.3,242,403.6,242z"/>
<circle fill="#454646" cx="256" cy="116.8" r="61.8"/>
<circle fill="#454646" cx="392" cy="395.2" r="61.8"/>
</svg>
