<?xml version="1.0" encoding="utf-8"?>
<!-- Generator: Adobe Illustrator 16.0.4, SVG Export Plug-In . SVG Version: 6.00 Build 0)  -->
<!DOCTYPE svg PUBLIC "-//W3C//DTD SVG 1.1//EN" "http://www.w3.org/Graphics/SVG/1.1/DTD/svg11.dtd">
<svg version="1.1" id="Layer_1" xmlns="http://www.w3.org/2000/svg" xmlns:xlink="http://www.w3.org/1999/xlink" x="0px" y="0px"
	 width="512px" height="512px" viewBox="0 0 512 512" enable-background="new 0 0 512 512" xml:space="preserve">
<g>
	<path fill-rule="evenodd" clip-rule="evenodd" fill="#454646" d="M372.498,66v87.907c0,0,0,16.164-53.61,27.198
		c-53.611,11.042-171.479,27.593-179.354,32.714v-90.663c0,0-2.375-3.546,36.656-8.667C215.212,109.36,358.701,95.96,372.498,66z"/>
	<path fill-rule="evenodd" clip-rule="evenodd" fill="#454646" d="M372.498,182.095v87.9c0,0,0,16.162-53.61,27.196
		c-53.611,11.042-171.479,27.593-179.354,32.723v-90.663c0,0-2.375-3.555,36.656-8.676
		C215.212,225.454,358.701,212.046,372.498,182.095z"/>
	<path fill-rule="evenodd" clip-rule="evenodd" fill="#454646" d="M372.498,298.181v87.9c0,0,0,16.162-53.61,27.205
		C265.276,424.32,147.409,440.879,139.533,446v-90.663c0,0-2.375-3.545,36.656-8.674
		C215.212,341.542,358.701,328.141,372.498,298.181z"/>
</g>
</svg>
