<?xml version="1.0" encoding="utf-8"?>
<!-- Generator: Adobe Illustrator 16.0.4, SVG Export Plug-In . SVG Version: 6.00 Build 0)  -->
<!DOCTYPE svg PUBLIC "-//W3C//DTD SVG 1.1//EN" "http://www.w3.org/Graphics/SVG/1.1/DTD/svg11.dtd">
<svg version="1.1" id="Layer_1" xmlns="http://www.w3.org/2000/svg" xmlns:xlink="http://www.w3.org/1999/xlink" x="0px" y="0px"
	 width="512px" height="512px" viewBox="0 0 512 512" enable-background="new 0 0 512 512" xml:space="preserve">
<path fill="#454646" d="M256.102,256.354c-0.102-0.202-0.102-0.506-0.203-0.709C255.898,255.95,256,256.152,256.102,256.354z"/>
<g>
	<path fill="#454646" d="M157.387,320.293c-4.953-7.582-9.098-15.87-12.232-24.768c-6.873-19.105-8.391-38.92-5.459-57.723
		l-27.192-33.259L69.54,219.605C67.214,231.436,66,243.564,66,256c0,43.368,14.559,83.299,38.92,115.244l8.29-43.773
		L157.387,320.293z"/>
	<path fill="#454646" d="M246.549,415.318l15.771-41.853c-29.217,1.618-57.824-7.885-80.268-25.879l-42.457,6.976l-8.492,44.684
		c33.359,29.113,76.931,46.703,124.746,46.703c8.289,0,16.377-0.505,24.361-1.517L246.549,415.318z"/>
	<path fill="#454646" d="M431.241,329.189l-41.952,14.658l-28.306-34.675c-12.737,25.172-34.371,45.693-62.475,56.611
		l-15.266,40.232l34.472,29.62C369.07,418.049,410.417,379.027,431.241,329.189z"/>
	<path fill="#454646" d="M406.979,140.857l-8.289,43.569l-44.074,7.179c4.952,7.58,9.098,15.871,12.333,24.767
		c6.873,19.106,8.39,38.92,5.459,57.724l27.294,33.258l42.761-14.961c2.326-11.828,3.538-23.959,3.538-36.494
		C445.898,212.732,431.342,172.802,406.979,140.857z"/>
	<path fill="#454646" d="M380.797,112.854C347.438,83.74,303.766,66.051,255.95,66.051c-8.188,0-16.276,0.504-24.161,1.516
		l33.663,29.014l-15.771,41.854c29.215-1.619,57.824,7.885,80.267,25.879l42.459-6.977L380.797,112.854z"/>
	<path fill="#454646" d="M151.119,202.826c12.736-25.172,34.369-45.693,62.475-56.611l15.264-40.234l-34.471-29.619
		c-51.455,17.591-92.902,56.714-113.729,106.551l42.054-14.76L151.119,202.826z"/>
</g>
</svg>
