<?xml version="1.0" encoding="utf-8"?>
<!-- Generator: Adobe Illustrator 19.2.1, SVG Export Plug-In . SVG Version: 6.00 Build 0)  -->
<svg version="1.1" id="Ebene_1" xmlns="http://www.w3.org/2000/svg" xmlns:xlink="http://www.w3.org/1999/xlink" x="0px" y="0px"
	 width="512px" height="512px" viewBox="0 0 512 512" enable-background="new 0 0 512 512" xml:space="preserve">
<g>
	<g>
		<path fill="#454646" d="M213.6,66.3L102.5,86.7c-7.3,1.4-14.4,8.5-15.8,15.8L66.3,213.6c-1.3,7.3,1.9,17.6,7.1,22.9L278.9,442
			c5.3,5.3,13.9,5.3,19.2,0L442,298.1c5.3-5.3,5.3-13.9,0-19.2L236.5,73.4C231.3,68.2,221,65,213.6,66.3z M134.8,134.8
			c10.6-10.6,27.7-10.6,38.3,0c10.6,10.6,10.6,27.8,0,38.3c-10.6,10.6-27.7,10.6-38.3,0C124.2,162.5,124.2,145.4,134.8,134.8z"/>
	</g>
</g>
</svg>
