<?xml version="1.0" encoding="utf-8"?>
<!-- Generator: Adobe Illustrator 16.0.4, SVG Export Plug-In . SVG Version: 6.00 Build 0)  -->
<!DOCTYPE svg PUBLIC "-//W3C//DTD SVG 1.1//EN" "http://www.w3.org/Graphics/SVG/1.1/DTD/svg11.dtd">
<svg version="1.1" id="Layer_1" xmlns="http://www.w3.org/2000/svg" xmlns:xlink="http://www.w3.org/1999/xlink" x="0px" y="0px"
	 width="512px" height="512px" viewBox="0 0 512 512" enable-background="new 0 0 512 512" xml:space="preserve">
<g>
	<g>
		<path fill-rule="evenodd" clip-rule="evenodd" fill="#454646" d="M177.381,205.548l3.421-12.727l-50.917-13.639l-3.408,12.731
			L177.381,205.548z M321.059,183.53h-52.705v13.179h52.705V183.53z M321.059,157.182h-52.705v13.175h52.705V157.182z
			 M187.623,167.37l-50.918-13.642l-3.412,12.727l50.917,13.646L187.623,167.37z M217.396,107.135l-76.367-20.459
			c-7.025-1.891-14.245,2.293-16.135,9.315L46.45,388.72c-1.879,7.038,2.289,14.257,9.327,16.148l76.358,20.459
			c7.026,1.878,14.257-2.289,16.136-9.315l78.443-292.741C228.593,116.245,224.422,109.014,217.396,107.135z M162.824,310.781
			l-76.355-20.462l40.918-152.733l76.371,20.465L162.824,310.781z M439.647,183.53h-52.705v13.179h52.705V183.53z M439.647,209.887
			h-52.705v13.175h52.705V209.887z M321.059,209.887h-52.705v13.175h52.705V209.887z M452.826,91.295h-79.062
			c-7.28,0-13.175,5.894-13.175,13.178v303.057c0,7.272,5.895,13.179,13.175,13.179h79.062c7.268,0,13.174-5.906,13.174-13.179
			V104.473C466,97.188,460.094,91.295,452.826,91.295z M452.826,302.119h-79.062V144.004h79.062V302.119z M334.237,91.295h-79.062
			c-7.28,0-13.175,5.894-13.175,13.178v303.057c0,7.272,5.895,13.179,13.175,13.179h79.062c7.268,0,13.174-5.906,13.174-13.179
			V104.473C347.411,97.188,341.505,91.295,334.237,91.295z M334.237,302.119h-79.062V144.004h79.062V302.119z M439.647,157.182
			h-52.705v13.175h52.705V157.182z M119.655,217.36l50.904,13.638l3.421-12.719l-50.917-13.643L119.655,217.36z"/>
	</g>
</g>
</svg>
