<?xml version="1.0" encoding="utf-8"?>
<!-- Generator: Adobe Illustrator 16.0.4, SVG Export Plug-In . SVG Version: 6.00 Build 0)  -->
<!DOCTYPE svg PUBLIC "-//W3C//DTD SVG 1.1//EN" "http://www.w3.org/Graphics/SVG/1.1/DTD/svg11.dtd">
<svg version="1.1" id="Layer_1" xmlns="http://www.w3.org/2000/svg" xmlns:xlink="http://www.w3.org/1999/xlink" x="0px" y="0px"
	 width="512px" height="512px" viewBox="0 0 512 512" enable-background="new 0 0 512 512" xml:space="preserve">
<g>
	<path fill="#454646" d="M46,203.815v104.369h28.654V203.815H46z M60.325,299.72c-2.568,0-4.643-2.079-4.643-4.644
		c0-2.563,2.075-4.643,4.643-4.643c2.563,0,4.644,2.079,4.644,4.643C64.968,297.641,62.888,299.72,60.325,299.72z M60.325,221.558
		c-2.568,0-4.643-2.079-4.643-4.644c0-2.562,2.075-4.643,4.643-4.643c2.563,0,4.644,2.08,4.644,4.643
		C64.968,219.479,62.888,221.558,60.325,221.558z"/>
	<path fill="#454646" d="M437.346,203.815v104.369H466V203.815H437.346z M451.671,299.72c-2.563,0-4.644-2.079-4.644-4.644
		c0-2.563,2.08-4.643,4.644-4.643c2.567,0,4.643,2.079,4.643,4.643C456.314,297.641,454.239,299.72,451.671,299.72z
		 M451.671,221.558c-2.563,0-4.644-2.079-4.644-4.644c0-2.562,2.08-4.643,4.644-4.643c2.567,0,4.643,2.08,4.643,4.643
		C456.314,219.479,454.239,221.558,451.671,221.558z"/>
	<rect x="101.562" y="251.175" fill="#454646" width="12.382" height="12.382"/>
	<rect x="322.054" y="268.144" fill="#454646" width="26.937" height="11.875"/>
	<rect x="322.054" y="231.981" fill="#454646" width="26.937" height="11.874"/>
	<path fill="#454646" d="M81.889,203.815v104.369h348.223V203.815H81.889z M116.008,265.621h-16.51v-16.51h16.51V265.621z
		 M116.008,242.558h-16.51v-16.51h16.51V242.558z M205.927,285.951h-73.168v-2.579h73.168V285.951z M205.927,274.48h-73.168v-2.572
		h73.168V274.48z M205.927,263.017h-73.168v-2.571h73.168V263.017z M205.927,251.546h-73.168v-2.563h73.168V251.546z
		 M205.927,240.084h-73.168v-2.573h73.168V240.084z M205.927,228.619h-73.168v-2.571h73.168V228.619z M297.806,285.951h-73.168
		v-2.579h73.168V285.951z M297.806,274.48h-73.168v-2.572h73.168V274.48z M297.806,263.017h-73.164v-2.571h73.164V263.017z
		 M297.806,251.546h-73.164v-2.563h73.164V251.546z M297.806,240.084h-73.168v-2.573h73.168V240.084z M297.806,228.619h-73.168
		v-2.571h73.168V228.619z M409.071,285.951h-93.825v-23.74h93.825V285.951z M409.071,249.78h-93.825v-23.732h93.825V249.78z"/>
</g>
</svg>
