<?xml version="1.0" encoding="utf-8"?>
<!-- Generator: Adobe Illustrator 19.2.1, SVG Export Plug-In . SVG Version: 6.00 Build 0)  -->
<svg version="1.1" id="Work_area" xmlns="http://www.w3.org/2000/svg" xmlns:xlink="http://www.w3.org/1999/xlink" x="0px" y="0px"
	 width="512px" height="512px" viewBox="0 0 512 512" enable-background="new 0 0 512 512" xml:space="preserve">
<g>
	<g>
		<ellipse fill="#454646" cx="187.3" cy="138.2" rx="72.2" ry="72.2"/>
	</g>
	<g>
		<path fill="#454646" d="M194.5,357.5v-17.3c0-0.6,0-1.2,0.1-1.8c1.4-21.4,18.9-38,40.5-38h44.7c-24.8-15.2-41.5-42.5-41.5-73.7
			c0-0.2,0-0.3,0-0.5H97.7c-14.3,0-25.8,11.3-26.3,25.5h0v79.5c0,14.5,11.8,26.3,26.3,26.3h23v-49.2h9.2v49.2H194.5z"/>
	</g>
	<g>
		<g>
			<ellipse fill="#454646" cx="324.7" cy="226.7" rx="72.2" ry="72.2"/>
		</g>
		<g>
			<path fill="#454646" d="M440.6,340.2c-0.4-14.2-12-25.5-26.3-25.5H235.1c-14.3,0-25.8,11.3-26.3,25.5h0v79.5
				c0,14.5,11.8,26.3,26.3,26.3h23v-49.2h9.2V446h114.9v-49.2h9.1V446h23.1c14.5,0,26.3-11.8,26.3-26.3L440.6,340.2L440.6,340.2z"/>
		</g>
	</g>
</g>
</svg>
