<?xml version="1.0" encoding="utf-8"?>
<!-- Generator: Adobe Illustrator 16.0.4, SVG Export Plug-In . SVG Version: 6.00 Build 0)  -->
<!DOCTYPE svg PUBLIC "-//W3C//DTD SVG 1.1//EN" "http://www.w3.org/Graphics/SVG/1.1/DTD/svg11.dtd">
<svg version="1.1" id="Layer_1" xmlns="http://www.w3.org/2000/svg" xmlns:xlink="http://www.w3.org/1999/xlink" x="0px" y="0px"
	 width="512px" height="512px" viewBox="0 0 512 512" enable-background="new 0 0 512 512" xml:space="preserve">
<path fill="#454646" d="M370,66H142c-16.729,0-30.403,13.679-30.403,30.402V415.6c0,16.721,13.675,30.4,30.403,30.4h228
	c16.714,0,30.403-13.679,30.403-30.4V96.402C400.403,79.679,386.714,66,370,66z M256,434.776c-5.696,0-10.316-4.615-10.316-10.314
	c0-5.7,4.62-10.313,10.316-10.313s10.312,4.613,10.312,10.313C266.312,430.162,261.696,434.776,256,434.776z M370,401.35H142V97.352
	h228V401.35z"/>
</svg>
