<?xml version="1.0" encoding="utf-8"?>
<!-- Generator: Adobe Illustrator 16.0.4, SVG Export Plug-In . SVG Version: 6.00 Build 0)  -->
<!DOCTYPE svg PUBLIC "-//W3C//DTD SVG 1.1//EN" "http://www.w3.org/Graphics/SVG/1.1/DTD/svg11.dtd">
<svg version="1.1" id="Layer_1" xmlns="http://www.w3.org/2000/svg" xmlns:xlink="http://www.w3.org/1999/xlink" x="0px" y="0px"
	 width="512px" height="512px" viewBox="0 0 512 512" enable-background="new 0 0 512 512" xml:space="preserve">
<g>
	<path fill="#454646" d="M423.133,198.058C437.146,184.832,446,166.225,446,145.433c0-40.052-32.467-72.522-72.522-72.522
		c-24.648,0-46.35,12.357-59.453,31.16C365.149,115.475,406.274,151.337,423.133,198.058z"/>
	<path fill="#454646" d="M247.51,305.178h44.812c8.261,0,14.952-6.688,14.952-14.934c0-8.26-6.691-14.939-14.952-14.939h-29.884
		v-44.828c0-8.261-6.69-14.94-14.929-14.94c-8.257,0-14.952,6.68-14.952,14.94v59.768
		C232.558,298.49,239.253,305.178,247.51,305.178z"/>
	<path fill="#454646" d="M88.882,198.05c16.848-46.713,57.969-82.575,109.09-93.979c-13.106-18.803-34.809-31.153-59.445-31.153
		C98.475,72.917,66,105.381,66,145.429C66,166.218,74.869,184.824,88.882,198.05z"/>
	<path fill="#454646" d="M246.548,118.027c-84.783,4.364-152.233,74.293-152.233,160.164c0,36.33,12.209,69.736,32.553,96.641
		L89.765,439.09h41.206l21.502-37.228c27.791,23.045,63.482,36.916,102.422,36.916c39.153,0,75.009-14.05,102.87-37.339
		l21.743,37.65h40.408l0.598-0.341l-37.195-64.437c20.095-26.815,32.159-60.021,32.159-96.121
		c0-86.45-68.382-156.758-153.981-160.246 M254.895,153.296c68.96,0,124.898,55.917,124.898,124.896
		s-55.938,124.902-124.898,124.902c-68.979,0-124.903-55.924-124.903-124.902S185.915,153.296,254.895,153.296z"/>
</g>
</svg>
