<?xml version="1.0" encoding="utf-8"?>
<!-- Generator: Adobe Illustrator 18.1.1, SVG Export Plug-In . SVG Version: 6.00 Build 0)  -->
<svg version="1.1" id="Ebene_1" xmlns="http://www.w3.org/2000/svg" xmlns:xlink="http://www.w3.org/1999/xlink" x="0px" y="0px"
	 width="512px" height="512px" viewBox="0 0 512 512" enable-background="new 0 0 512 512" xml:space="preserve">
<g>
	<path fill="#454646" d="M255.3,66c48.7,0,96.1,24.6,96.1,69.9c0,38.7-33.1,56.9-55.2,72.8c-14.2,10.2-21.8,23.6-21.8,41l-39.2-0.3
		c0-30.3,12.6-47.1,33-64.3c18-15.1,41.1-25,41.1-45.2c0-32.1-29.7-39.2-54.8-39.2c-25.1,0-54.7,12.4-55.1,40.3H161
		C161,88.3,206.9,66,255.3,66z"/>
	<path fill="#454646" d="M279.7,292.4c0,16.2-12.4,24.4-24.7,24.4c-12.4,0-24.7-8.1-24.7-24.4c0-16.4,12.4-24.6,24.7-24.6
		C267.3,267.8,279.7,276,279.7,292.4z"/>
	<path fill="#454646" d="M407.2,411.7c0,19-15.4,34.3-34.3,34.3h-34.3v-64.2h-7.6V446H181.1v-64.2h-7.6V446h-34.3
		c-19,0-34.3-15.4-34.3-34.3V308.1h0.1c0.6-18.4,15.7-33.2,34.3-33.2h53.3l38.2,134.4c3.4-15,11.7-54.2,14.9-77.5
		c3,0.6,6.2,0.9,9.4,0.9c3.9,0,7.7-0.6,11.2-1.5c3.2,23.2,11.6,63,15,78.1l38.3-134.5h53.3c18.6,0,33.7,14.8,34.3,33.2h0.1V411.7z"
		/>
</g>
</svg>
