<?xml version="1.0" encoding="utf-8"?>
<!-- Generator: Adobe Illustrator 16.0.4, SVG Export Plug-In . SVG Version: 6.00 Build 0)  -->
<!DOCTYPE svg PUBLIC "-//W3C//DTD SVG 1.1//EN" "http://www.w3.org/Graphics/SVG/1.1/DTD/svg11.dtd">
<svg version="1.1" id="Layer_1" xmlns="http://www.w3.org/2000/svg" xmlns:xlink="http://www.w3.org/1999/xlink" x="0px" y="0px"
	 width="512px" height="512px" viewBox="0 0 512 512" enable-background="new 0 0 512 512" xml:space="preserve">
<g>
	<g>
		<g>
			<path fill="#454646" d="M431.387,131.201H80.62c-8.043,0-14.62,6.587-14.62,14.624v87.691c0,8.037,6.577,14.611,14.62,14.611
				h350.767c8.029,0,14.613-6.575,14.613-14.611v-87.691C446,137.789,439.416,131.201,431.387,131.201z M249.332,197.686H95.598
				v-16.04h153.734V197.686z M412.705,184.746c-0.208,0.164-0.427,0.293-0.646,0.443l16,37.34c2.256,0.287,4.398,1.44,5.883,3.391
				c2.949,3.87,2.204,9.388-1.665,12.335c-3.861,2.943-9.386,2.201-12.332-1.664c-2.551-3.345-2.329-7.936,0.281-11.018
				l-13.412-38.332c-4.511,0.685-9.24-1.053-12.2-4.936c-2.233-2.927-3.007-6.5-2.475-9.863l-36.518-13.845
				c-0.263,0.241-0.529,0.471-0.817,0.689c-4.891,3.734-11.887,2.792-15.62-2.102s-2.792-11.89,2.102-15.624
				c4.898-3.737,11.89-2.796,15.627,2.107c1.482,1.947,2.219,4.225,2.267,6.498l35.368,16.591c0.697-0.938,1.526-1.799,2.503-2.534
				c4.603-3.522,10.814-3.457,15.292-0.276l12.865-13.222c-0.745-2.307-0.018-4.923,2.015-6.469c2.58-1.973,6.262-1.477,8.226,1.1
				c1.967,2.579,1.471,6.259-1.106,8.223c-1.613,1.231-3.661,1.498-5.449,0.894l-13.405,12.689
				C419.384,172.799,418.208,180.547,412.705,184.746z"/>
		</g>
	</g>
	<g>
		<g>
			<path fill="#454646" d="M431.387,263.877H80.62c-8.043,0-14.62,6.581-14.62,14.617v87.691c0,8.037,6.577,14.613,14.62,14.613
				h350.767c8.029,0,14.613-6.577,14.613-14.613v-87.691C446,270.458,439.416,263.877,431.387,263.877z M249.332,330.354H95.598
				v-16.04h153.734V330.354z M412.705,317.415c-0.208,0.164-0.427,0.293-0.646,0.443l16,37.34c2.256,0.287,4.398,1.44,5.883,3.391
				c2.949,3.87,2.204,9.388-1.665,12.335c-3.861,2.943-9.386,2.206-12.332-1.664c-2.551-3.345-2.329-7.936,0.281-11.018
				l-13.412-38.332c-4.511,0.685-9.24-1.053-12.2-4.936c-2.233-2.927-3.007-6.5-2.475-9.863l-36.518-13.845
				c-0.263,0.241-0.529,0.471-0.817,0.69c-4.891,3.733-11.887,2.792-15.62-2.103s-2.792-11.89,2.102-15.624
				c4.898-3.737,11.89-2.795,15.627,2.107c1.482,1.947,2.219,4.225,2.267,6.505l35.368,16.583c0.697-0.938,1.526-1.799,2.503-2.534
				c4.603-3.517,10.814-3.456,15.292-0.276l12.865-13.222c-0.745-2.307-0.018-4.923,2.015-6.475c2.58-1.967,6.262-1.471,8.226,1.106
				c1.967,2.579,1.471,6.265-1.106,8.223c-1.613,1.231-3.661,1.498-5.449,0.894l-13.405,12.689
				C419.384,305.468,418.208,313.216,412.705,317.415z"/>
		</g>
	</g>
</g>
</svg>
