<?xml version="1.0" encoding="utf-8"?>
<!-- Generator: Adobe Illustrator 16.0.4, SVG Export Plug-In . SVG Version: 6.00 Build 0)  -->
<!DOCTYPE svg PUBLIC "-//W3C//DTD SVG 1.1//EN" "http://www.w3.org/Graphics/SVG/1.1/DTD/svg11.dtd">
<svg version="1.1" id="Layer_1" xmlns="http://www.w3.org/2000/svg" xmlns:xlink="http://www.w3.org/1999/xlink" x="0px" y="0px"
	 width="512px" height="512px" viewBox="0 0 512 512" enable-background="new 0 0 512 512" xml:space="preserve">
<path fill="#454646" d="M397.472,64H114.528C86.741,64,64,86.736,64,114.526v282.945C64,425.264,86.741,448,114.528,448h282.943
	C425.266,448,448,425.264,448,397.472V114.526C448,86.736,425.266,64,397.472,64z M376.008,379.926l-101.796-97.864
	c-10.014-9.625-26.411-9.625-36.424,0l-101.796,97.864c-10.014,9.625-13.243,7.279-7.178-5.22l116.154-239.19
	c6.066-12.498,15.995-12.498,22.062,0l116.153,239.19C389.252,387.206,386.028,389.552,376.008,379.926z"/>
</svg>
