<?xml version="1.0" encoding="utf-8"?>
<!-- Generator: Adobe Illustrator 16.0.4, SVG Export Plug-In . SVG Version: 6.00 Build 0)  -->
<!DOCTYPE svg PUBLIC "-//W3C//DTD SVG 1.1//EN" "http://www.w3.org/Graphics/SVG/1.1/DTD/svg11.dtd">
<svg version="1.1" id="Layer_1" xmlns="http://www.w3.org/2000/svg" xmlns:xlink="http://www.w3.org/1999/xlink" x="0px" y="0px"
	 width="512px" height="512px" viewBox="0 0 512 512" enable-background="new 0 0 512 512" xml:space="preserve">
<path fill="#454646" d="M66,256c0,104.769,85.234,190,190,190c104.765,0,190-85.231,190-190S360.765,66,256,66
	C151.234,66,66,151.231,66,256z M89.75,256c0-91.799,74.436-166.25,166.25-166.25c85.543,0,155.976,64.645,165.197,147.723H192.288
	l74.126-74.107l-26.088-26.116l-109.52,109.519v18.462l109.52,109.519l26.088-26.069l-74.136-74.154h228.919
	C411.98,357.643,341.547,422.25,256,422.25C164.186,422.25,89.75,347.846,89.75,256z"/>
</svg>
