<?xml version="1.0" encoding="utf-8"?>
<!-- Generator: Adobe Illustrator 16.0.4, SVG Export Plug-In . SVG Version: 6.00 Build 0)  -->
<!DOCTYPE svg PUBLIC "-//W3C//DTD SVG 1.1//EN" "http://www.w3.org/Graphics/SVG/1.1/DTD/svg11.dtd">
<svg version="1.1" id="Layer_1" xmlns="http://www.w3.org/2000/svg" xmlns:xlink="http://www.w3.org/1999/xlink" x="0px" y="0px"
	 width="512px" height="512px" viewBox="0 0 512 512" enable-background="new 0 0 512 512" xml:space="preserve">
<g>
	<path fill="#454646" d="M82.403,309.686c0-63.923,0-120.943,0-184.866c0-29.293,18.1-56.716,44.863-69.718
		C136.737,50.503,150.542,46,165.415,46c57.258,0,146.828,0,146.828,0c26.074,0,46.282,6.718,55.4,11.923
		c29.867,17.042,43.505,43.862,43.493,77.962c-0.021,57.639-0.004,115.278-0.009,172.914c-0.004,11.944,6.604,19.359,18.47,20.943
		c-5.677,2.953-11.357,6.127-17.448,7.834c-4.569,1.284-6.727,3.667-8.425,7.748c-6.907,16.611-18.317,29.388-33.534,38.969
		c-14.921,9.396-31.369,12.924-48.677,12.998c-29.408,0.131-58.816,0.012-88.225,0.021c-2.272,0-4.548,0.197-7.542,0.336
		c0,6.189,0.373,11.862-0.07,17.469c-1.554,19.474-7.686,36.516-26.652,45.822c-4.503,2.207-9.499,3.4-14.265,5.062
		c-3.142,0-6.275,0-9.413,0c-0.508-0.283-0.988-0.734-1.526-0.829c-17.181-2.974-26.722-14.113-32.086-29.827
		c-4.061-11.886-4.52-24.183-3.938-36.508c0.263-5.5-1.616-8.277-6.595-10.611c-19.786-9.27-33.99-24.236-41.787-44.621
		C86.107,334.972,82.403,322.417,82.403,309.686z M193.47,330.792c0.078-0.603,0.156-1.202,0.234-1.805
		c9.409,0.816,13.014-5.779,16.788-12.383c19.101-33.419,46.191-56.355,84.755-63.943c3.814-0.75,5.59-2.284,4.872-6.168
		c-0.681-3.696,1.087-5.627,4.323-7.174c6.981-3.347,13.798-7.059,21.065-10.82c-7.944-13.757-15.577-26.726-22.898-39.863
		c-1.44-2.584-2.342-5.82-2.383-8.777c-0.238-16.07,0.131-32.152-0.189-48.218c-0.681-34.129-27.669-60.83-61.708-61.093
		c-23.912-0.181-47.828-0.176-71.74,0.037c-31.943,0.287-59.538,27.997-59.604,59.948c-0.131,60.375-0.049,120.75-0.053,181.125
		c0,16.685,6.087,30.963,17.575,42.865c3.519,3.643,7.875,6.48,11.845,9.688c0.472-0.336,0.943-0.672,1.419-1.009
		c0-65.158,0-130.311,0-196.256c12.53,0,24.433-0.217,36.319,0.107c4.655,0.131,6.821-1.329,8.527-5.775
		c7.399-19.298,26.812-31.935,47.841-31.713c20.754,0.221,40.019,13.317,47.164,32.074c10.25,26.898-2.35,56.609-28.284,66.716
		c-27.632,10.771-57.082-2.334-67.717-30.155c-1.489-3.888-1.8-9.585-4.582-11.275c-3.33-2.018-8.757-0.361-13.223-0.779
		c-5.057-0.472-6.698,1.152-6.682,6.472c0.185,57.824,0.103,115.652,0.107,173.479c0,1.887,0.176,3.778,0.283,5.988
		c4.86,0.402,9.138,1.034,13.42,1.054c22.148,0.103,44.305,0.341,66.445-0.029c27.148-0.455,46.38-13.679,57.758-38.075
		c4.221-9.044,5.652-18.847,4.663-29.499c-3.203,1.181-5.697,2.096-8.695,3.195c-1.128-4.537-2.186-8.794-3.24-13.047
		c-2.756,8.642-6.878,16.209-14.704,21.152c-7.473,4.721-15.631,7.518-25.052,8.9c1.706-4.987,3.174-9.261,4.639-13.539
		c-7.1,6.271-13.65,12.751-19.404,19.872c-5.619,6.948-12.658,8.49-20.476,6.308C206.222,336.518,199.925,333.372,193.47,330.792z
		 M386.682,281.684c0.123-0.808,0.324-1.518,0.324-2.223c-0.008-49.957,0.263-99.914-0.209-149.867
		c-0.16-17.198-7.908-31.537-20.565-43.32c-19.249-17.928-42.746-16.304-67.081-15.336c1.132,1.489,1.735,2.412,2.465,3.22
		c11.3,12.522,19.376,26.947,21.004,43.739c1.587,16.316,1.472,32.833,1.448,49.26c-0.012,7.325,1.51,13.613,5.32,19.913
		c10.11,16.726,19.679,33.776,29.736,51.171c-9.114,4.807-17.833,9.405-26.775,14.126c9.852,4.097,19.548,7.264,28.379,12.038
		C369.71,269.265,377.839,275.708,386.682,281.684z M298.256,372.98c10.734,0,19.7,0.386,28.621-0.074
		c26.656-1.378,48.477-17.518,56.454-41.425c0.517-1.547,1.152-3.942,0.402-4.861c-3.79-4.664-8.023-8.974-12.104-13.408
		c-0.328,0.262-0.656,0.529-0.984,0.792c1.21,3.749,2.424,7.501,3.962,12.255c-18.535-4.163-34.474-9.577-39.51-31.332
		c-1.493,5.853-2.49,9.766-3.544,13.9c-2.432-0.632-4.438-1.152-7.28-1.891C324.563,332.031,316.734,353.769,298.256,372.98z
		 M229.776,149.142c-17.53,0.098-31.807,14.364-31.762,31.738c0.041,17.264,14.495,31.763,31.828,31.931
		c17.481,0.168,32.079-14.618,31.877-32.288C261.519,162.829,247.487,149.043,229.776,149.142z M206.09,397.106
		c-16.595,0-32.345,0-48.628,0c-0.463,11.755-0.665,23.387,3.786,34.547c3.076,7.728,7.994,13.687,16.862,14.302
		c9.044,0.627,16.361-3.068,21.529-10.627C207.473,423.869,206.226,410.912,206.09,397.106z"/>
	<path fill-rule="evenodd" clip-rule="evenodd" fill="#454646" d="M359.645,161.119c2.957,0.197,4.344,0.188,5.688,0.398
		c6.788,1.05,12.297,6.525,12.325,12.173c0.029,6.042-5.463,11.739-12.751,12.075c-4.315,0.197-9.327-0.069-12.871-2.12
		c-3.199-1.858-6.62-6.407-6.653-9.799c-0.025-3.384,3.511-7.399,6.48-10.008C354.111,161.861,357.926,161.66,359.645,161.119z"/>
</g>
</svg>
