<?xml version="1.0" encoding="utf-8"?>
<!-- Generator: Adobe Illustrator 16.0.4, SVG Export Plug-In . SVG Version: 6.00 Build 0)  -->
<!DOCTYPE svg PUBLIC "-//W3C//DTD SVG 1.1//EN" "http://www.w3.org/Graphics/SVG/1.1/DTD/svg11.dtd">
<svg version="1.1" id="Layer_1" xmlns="http://www.w3.org/2000/svg" xmlns:xlink="http://www.w3.org/1999/xlink" x="0px" y="0px"
	 width="512px" height="512px" viewBox="0 0 512 512" enable-background="new 0 0 512 512" xml:space="preserve">
<g>
	<path fill="#454646" d="M112.739,340.769c-5.61-15.727-6.891-31.96-4.453-47.391l-22.362-27.332l-37.046,12.961
		c-5.086,26.651-3.404,54.936,6.356,82.276c5.81,16.268,14.054,30.96,24.135,43.887l7.228-38.168l36.225-5.931
		C118.766,354.844,115.344,348.069,112.739,340.769z"/>
	<path fill="#454646" d="M198.54,211.765c24.023-1.292,47.484,6.506,65.867,21.271l34.872-5.709l7.301-38.563
		c-0.82-0.706-1.682-1.365-2.527-2.055c-1.287-1.161-2.502-2.58-3.494-4.901c-3.486-8.17-5.069-17.276-4.232-26.718
		c0.517-5.849,1.932-11.402,4.085-16.554l-35.291-6.046l-6.812-37.488c-10.98,15.754-18.158,34.47-19.971,54.94
		c-0.131,1.505-0.213,3.011-0.279,4.499c-18.112-4.077-37.053-5.032-56.02-2.387l29.475,25.38L198.54,211.765z"/>
	<path fill="#454646" d="M289.943,351.94c-10.445,20.631-28.234,37.555-51.311,46.471l-12.498,33.05l29.791,25.644
		c0.287-0.099,0.574-0.181,0.861-0.278c43.977-15.701,76.674-49.031,93.022-89.218l-36.585,12.788L289.943,351.94z"/>
	<path fill="#454646" d="M209.016,404.794c-24.015,1.287-47.48-6.515-65.866-21.271l-34.872,5.709l-7.301,38.556
		c33.812,28.989,79.119,43.05,124.548,36.717l-29.481-25.381L209.016,404.794z"/>
	<path fill="#454646" d="M117.62,264.61c10.446-20.624,28.236-37.555,51.311-46.463l12.493-33.05l-29.793-25.648
		c-0.279,0.103-0.574,0.182-0.853,0.283c-43.986,15.692-76.677,49.038-93.024,89.217l36.582-12.797L117.62,264.61z"/>
	<path fill="#454646" d="M439.396,87l-38.916,7.066l-5.291,30.815c8.836,10.874,13.625,25.048,12.288,40.068
		c-0.517,5.845-1.931,11.402-4.085,16.545l35.299,6.047l6.809,37.496c10.982-15.758,18.157-34.47,19.971-54.937
		C468.247,138.848,458.075,109.378,439.396,87z"/>
	<path fill="#454646" d="M316.768,116.731c10.874-8.825,25.049-13.624,40.069-12.288c5.845,0.517,11.402,1.937,16.541,4.085
		l6.054-35.293l37.488-6.809c-15.75-10.984-34.469-18.158-54.936-19.975c-31.254-2.777-60.721,7.403-83.095,26.073l7.066,38.924
		L316.768,116.731z"/>
	<path fill="#454646" d="M417.852,208.591l-30.807-5.283c-10.878,8.831-24.823,14.659-39.844,13.322
		c-5.84-0.517-13.863-3.093-19.011-5.242l-7.227,38.17l-36.233,5.922c4.064,6.234,7.489,13.011,10.094,20.312
		c5.611,15.726,6.887,31.959,4.45,47.39l22.366,27.332l37.045-12.961c3.938-20.646,3.791-42.271-1.008-63.688
		c25.272-1.264,48.701-10.878,67.249-26.35L417.852,208.591z"/>
</g>
</svg>
