<?xml version="1.0" encoding="utf-8"?>
<!-- Generator: Adobe Illustrator 16.0.4, SVG Export Plug-In . SVG Version: 6.00 Build 0)  -->
<!DOCTYPE svg PUBLIC "-//W3C//DTD SVG 1.1//EN" "http://www.w3.org/Graphics/SVG/1.1/DTD/svg11.dtd">
<svg version="1.1" id="Layer_1" xmlns="http://www.w3.org/2000/svg" xmlns:xlink="http://www.w3.org/1999/xlink" x="0px" y="0px"
	 width="512px" height="512px" viewBox="0 0 512 512" enable-background="new 0 0 512 512" xml:space="preserve">
<g>
	<path fill="#454646" d="M369.997,66h-228c-16.725,0-30.401,13.668-30.401,30.393v319.2c0,16.718,13.677,30.407,30.401,30.407h228
		c16.718,0,30.407-13.689,30.407-30.407v-319.2C400.404,79.668,386.715,66,369.997,66z M255.997,434.778
		c-5.692,0-10.312-4.624-10.312-10.331c0-5.693,4.62-10.302,10.312-10.302c5.7,0,10.32,4.608,10.32,10.302
		C266.317,430.154,261.697,434.778,255.997,434.778z M369.997,401.336h-228v-304h228V401.336z"/>
	<rect x="172.182" y="130.778" fill="#454646" width="167.635" height="164.902"/>
	<rect x="230.852" y="309.223" fill="#454646" width="108.965" height="58.699"/>
	<rect x="172.182" y="309.219" fill="#454646" width="43.355" height="58.703"/>
</g>
</svg>
