<?xml version="1.0" encoding="utf-8"?>
<!-- Generator: Adobe Illustrator 18.1.0, SVG Export Plug-In . SVG Version: 6.00 Build 0)  -->
<svg version="1.1" id="Layer_1" xmlns="http://www.w3.org/2000/svg" xmlns:xlink="http://www.w3.org/1999/xlink" x="0px" y="0px"
	 viewBox="0 0 512 512" enable-background="new 0 0 512 512" xml:space="preserve">
<g>
	<path fill="#454646" d="M255.996,465.188c27.418,0,50.681-17.548,59.338-42H196.657
		C205.315,447.64,228.577,465.188,255.996,465.188z"/>
	<path fill="#454646" d="M390.397,213.187c0-22.491-4.107-43.787-11.74-62.843l-33.427,33.427
		c2.074,9.242,3.167,19.093,3.167,29.416v42c0,38.678,6.709,74.017,15.654,105H168.812l-42,42h296.482
		c-12.164-30.071-32.897-84.65-32.897-147V213.187z"/>
	<path fill="#454646" d="M419.864,50.109c-6.562-6.562-17.198-6.562-23.76,0l-50.674,50.674
		c-18.246-17.245-41.432-29.021-68.443-33.044c-0.049-11.556-9.423-20.912-20.991-20.912c-11.568,0-20.942,9.356-20.992,20.912
		c-69.238,10.314-113.408,71.492-113.408,145.448v55.078c-0.434,23.543-4.233,45.726-9.314,65.666l-61.518,61.517
		c-6.561,6.558-6.561,17.198,0,23.756c3.281,3.281,7.579,4.922,11.88,4.922c4.3,0,8.599-1.641,11.88-4.922l345.339-345.34
		C426.424,67.307,426.424,56.668,419.864,50.109z M163.589,269.039l0.007-0.388v-0.386v-55.078
		c0-55.236,31.184-96.993,77.596-103.906c0,0,5.966-1.445,14.804-1.445c8.838,0,14.804,1.445,14.804,1.445
		c17.362,2.586,32.566,10.08,44.827,21.304L162.939,283.274C163.257,278.579,163.501,273.843,163.589,269.039z"/>
</g>
</svg>
