<?xml version="1.0" encoding="utf-8"?>
<!-- Generator: Adobe Illustrator 19.2.1, SVG Export Plug-In . SVG Version: 6.00 Build 0)  -->
<svg version="1.1" id="Work_area" xmlns="http://www.w3.org/2000/svg" xmlns:xlink="http://www.w3.org/1999/xlink" x="0px" y="0px"
	 width="512px" height="512px" viewBox="0 0 512 512" enable-background="new 0 0 512 512" xml:space="preserve">
<g>
	<path fill="#454646" d="M189.1,158.4c13.7,14.9,18.2,18.6,19.5,19.5c5.7,4,13,5.3,20.1,3.6l35.4-10.1c-5-1.2-13.5-3.8-21.1-8.7
		c-14.2-9.1-23.8-15.4-32.7-28.1c-11.2-16.1-13.5-43-25-32l-10.6,11C167.7,125.8,179,147.4,189.1,158.4z"/>
	<path fill="#454646" d="M431.8,394.7l-155.2,0c-10.4-0.1-20.1-4.1-27.5-11.2L97.3,237.1c-7-6.8-11.8-15.3-13.9-24.6
		c-6.3,14.9-3.3,32.8,9.1,44.7l132.5,127.9l-0.2-0.1L64,414.2h357.7c13.5,0,24.4-10.3,26-23.3C442.9,393.2,437.5,394.7,431.8,394.7z
		"/>
	<path fill="#454646" d="M429.2,330l-62.9-24.4c-5.2-2-9.4-6.2-11.4-11.5l-7.1-18.7L314,286.4c-3.8,1.2-7.9-0.9-9.2-4.7
		c-1.2-3.8,0.9-7.9,4.7-9.2l33.1-10.7l-5.7-15.1l-34.5,11.1c-3.8,1.2-7.9-0.9-9.2-4.7c-1.2-3.8,0.9-7.9,4.7-9.2l33.8-10.9l-4.6-12.2
		l-34.4,11.1c-3.8,1.2-7.9-0.9-9.2-4.7c-1.2-3.8,0.9-7.9,4.7-9.2l33.7-10.8l-2.6-6.8c-3.5-9.3-10.5-16.3-20.6-16.9
		c-2.3-0.1-4.5-0.1-6.6,0.1l-58.6,16.6c-3.7,0.9-7.4,1.3-11.1,1.3c-9.1,0-17.8-2.7-25.1-7.8c-2.6-1.8-7.7-6.1-22.6-22.2
		c-7.2-7.8-16.8-22-20.5-37.2l-48.5,50c-3,4.9-4.6,10.5-4.5,16.3c0.1,8.2,3.5,15.8,9.4,21.5l151.9,146.3c3.8,3.7,8.8,5.7,14.1,5.8
		l155.1,0c7.9,0,14.5-5.6,16.2-13v-3.9C448,345.2,440.6,334.4,429.2,330z M282.5,310.9l-2.3,0.9c-3.1,1.2-6.6-0.3-7.8-3.3L242,233.5
		c-1.2-3.1,0.3-6.6,3.3-7.8l2.3-0.9c3.1-1.2,6.6,0.3,7.8,3.3l30.3,75.1C287.1,306.1,285.6,309.7,282.5,310.9z"/>
</g>
</svg>
