<?xml version="1.0" encoding="utf-8"?>
<!-- Generator: Adobe Illustrator 16.0.4, SVG Export Plug-In . SVG Version: 6.00 Build 0)  -->
<!DOCTYPE svg PUBLIC "-//W3C//DTD SVG 1.1//EN" "http://www.w3.org/Graphics/SVG/1.1/DTD/svg11.dtd">
<svg version="1.1" id="Layer_1" xmlns="http://www.w3.org/2000/svg" xmlns:xlink="http://www.w3.org/1999/xlink" x="0px" y="0px"
	 width="512px" height="512px" viewBox="0 0 512 512" enable-background="new 0 0 512 512" xml:space="preserve">
<path fill="#454646" d="M444.743,175.202l-23.5-45.903c-0.818-1.593-2.891-3.327-4.611-3.845L329.307,99.02
	c-1.72-0.522-4.546-0.596-6.292-0.168l-11.031,2.688l-0.097-2.546c0.099-21.032-19.562-34.111-39.155-28.29l-92.301,19.862
	c-17.068,4.63-25.036,25.316-21.316,41.386l1.223,6.58l-75.155,18.335c-1.741,0.419-3.582,2.175-4.086,3.896l-14.468,49.191
	c-0.505,1.722-0.757,4.583-0.561,6.365l14.906,133.904c0.2,1.782,1.357,4.324,2.574,5.645l78.765,85.343
	c1.217,1.321,3.575,1.848,5.236,1.183l263.698-106.327c1.666-0.669,3.137-2.684,3.273-4.471l11.46-150.241
	C446.117,179.568,445.561,176.803,444.743,175.202z M178.31,128.12l-0.129-0.582c-1.456-6.408,0.701-15.284,7.303-18.055
	c30.933-6.649,61.945-13.022,92.797-20.018c7.312-2.425,13.679,1.338,14.042,9.299c0.061,2.494,0.149,5.015,0.254,7.509
	L179.38,133.881L178.31,128.12z M88.35,209.403c2.93-10.248,4.287-24.035,9.667-33.218c40.001,21.122,50.165,61.965,56.212,103.695
	l-66.454-64.178C87.609,213.908,87.862,211.099,88.35,209.403z M100.574,341.25L89.303,230.702l67.121,64.886l4.503,112.7
	l-57.79-61.416C101.91,345.564,100.755,343.04,100.574,341.25z M423.69,191.871l-9.282,120.705c-0.138,1.786-1.603,3.811-3.26,4.514
	l-238.06,99.674c-1.655,0.689-4.015,0.186-5.243-1.118l-0.102-0.107l-4.82-120.667l120.822-39.09l9.513,15.405
	c0.942,1.527,3.126,2.386,4.858,1.911l17.357-4.79c1.73-0.479,3.368-2.316,3.646-4.082l3.288-20.953l90.903-29.412l-1.5-4.457
	l-88.279,26.706l1.104-7.025c0.276-1.777-0.906-2.805-2.622-2.3l-44.306,13.226c-1.715,0.505-2.352,2.179-1.411,3.711l3.476,5.627
	l-117.898,35.668c-3.014-23.5-7.055-48.394-16.719-70.185l241.263-66.102l-0.962-3.569L142.204,208.89
	c-10.661-19.258-28.249-31.388-36.98-36.544l58.605-14.986l0.96,5.187c-5.539,1.006-9.347,3.896-11.426,8.682
	c2.287,8.522,46.534-3.033,44.167-11.823c-3.982-3.171-8.576-3.823-13.778-1.95l-0.919-4.954l110.431-28.237l0.19,4.983
	c-5.174,0.639-8.336,3.211-9.489,7.729c2.451,9.645,41.395-0.889,39.14-9.786c-2.671-2.935-6.084-3.754-10.239-2.481l-0.208-5.406
	l2.125-0.544c1.734-0.44,4.565-0.41,6.298,0.077l78.793,22.154c1.726,0.482,3.741,2.218,4.472,3.861l18.266,40.795
	C423.345,187.275,423.832,190.085,423.69,191.871z"/>
</svg>
