<?xml version="1.0" encoding="utf-8"?>
<!-- Generator: Adobe Illustrator 16.0.4, SVG Export Plug-In . SVG Version: 6.00 Build 0)  -->
<!DOCTYPE svg PUBLIC "-//W3C//DTD SVG 1.1//EN" "http://www.w3.org/Graphics/SVG/1.1/DTD/svg11.dtd">
<svg version="1.1" id="Layer_1" xmlns="http://www.w3.org/2000/svg" xmlns:xlink="http://www.w3.org/1999/xlink" x="0px" y="0px"
	 width="512px" height="512px" viewBox="0 0 512 512" enable-background="new 0 0 512 512" xml:space="preserve">
<g>
	<path fill="#454646" d="M255.994,66C163.95,66,89.336,91.374,89.336,122.664v266.672C89.336,420.64,163.95,446,255.994,446
		c92.068,0,166.67-25.36,166.67-56.664V122.664C422.664,91.374,348.062,66,255.994,66z M255.994,95.725
		c68.888,0,124.721,12.374,124.721,27.624c0,15.26-55.833,27.628-124.721,27.628c-68.867,0-124.71-12.368-124.71-27.628
		C131.284,108.099,187.127,95.725,255.994,95.725z M383.491,362.483c0,23.943-57.069,39.555-127.497,39.555
		c-70.417,0-127.485-15.612-127.485-39.555v-197.24c28.187,13.619,74.777,22.529,127.485,22.529
		c52.743,0,99.311-8.91,127.497-22.529V362.483z"/>
</g>
</svg>
