<?xml version="1.0" encoding="utf-8"?>
<!-- Generator: Adobe Illustrator 18.1.1, SVG Export Plug-In . SVG Version: 6.00 Build 0)  -->
<svg version="1.1" id="Ebene_1" xmlns="http://www.w3.org/2000/svg" xmlns:xlink="http://www.w3.org/1999/xlink" x="0px" y="0px"
	 width="512px" height="512px" viewBox="0 0 512 512" enable-background="new 0 0 512 512" xml:space="preserve">
<g>
	<path fill="#454646" d="M419.2,229.2c0-90.5-64.3-165.7-149.7-183.2c46.9,29.1,73.6,80,73.6,128.1c0,32.4-11,59.7-25.5,82.2
		c60.3-5,101.6-15.1,101.6-26.7c0-0.1-0.1-0.3-0.1-0.4H419.2z"/>
	<g>
		<path fill="#454646" d="M250,68.8c-20.2,20.4-65.5,78.1-66.4,185.3c20.1,1.6,42.6,2.6,66.4,2.7V68.8z"/>
		<path fill="#454646" d="M125.4,249.3v206.1c12.5,2.7,28.2,5,46.1,6.7V257c0-101.6,37.7-160.7,61.7-188c-0.4,0.1-0.8,0.1-1.3,0.2
			C193.3,92.6,125.4,148.1,125.4,249.3z"/>
		<path fill="#454646" d="M262,256.7c7.9-0.1,15.8-0.1,23.5-0.4c17.8-21.2,30.8-48.6,30.8-82.3c0-42.3-21.6-79.3-54.3-101.3V256.7z"
			/>
		<path fill="#454646" d="M113.4,249.3c0-85.8,45.9-140.4,85.3-171.6C136.9,101,92.8,160.4,92.8,230.3h0.1c0,0.1-0.1,0.2-0.1,0.4
			c0,0.3,0.2,0.6,0.3,0.8h-0.3v24.2v37.4v146.7c0,4.6,7.5,9,20.6,12.7V249.3z"/>
	</g>
	<path fill="#454646" d="M419.2,336.1v-80.4c0,14.5-73.1,26.2-163.2,26.2c-21.4,0-41.7-0.7-60.4-1.9v184.1c18.7,1.2,39,1.9,60.4,1.9
		c90.1,0,163.2-11.7,163.2-26.2v-42.4c0,14.5-73.1,26.2-163.2,26.2v-61.4C346.1,362.3,419.2,350.5,419.2,336.1z"/>
</g>
</svg>
