<?xml version="1.0" encoding="utf-8"?>
<!-- Generator: Adobe Illustrator 18.1.1, SVG Export Plug-In . SVG Version: 6.00 Build 0)  -->
<svg version="1.1" id="Ebene_1" xmlns="http://www.w3.org/2000/svg" xmlns:xlink="http://www.w3.org/1999/xlink" x="0px" y="0px"
	 width="512px" height="512px" viewBox="0 0 512 512" enable-background="new 0 0 512 512" xml:space="preserve">
<path fill="#454646" d="M400.3,131.9c-25.2,0-45.7,20.5-45.7,45.7c0,4.3,0.6,8.4,1.7,12.4c0.3,1.1,0.7,2.1,1,3.2l-33.3,43.3
	c-1.2-0.1-2.4-0.2-3.6-0.2c0,0,0,0-0.1,0c-6.1,0-11.9,1.2-17.3,3.4c-0.8,0.3-1.6,0.7-2.4,1.1l-23.9-19.3c0-1.6-0.1-3.2-0.3-4.8
	c-2.9-22.4-22.1-39.8-45.3-39.8c-25.2,0-45.7,20.5-45.7,45.7c0,0.3,0,0.6,0,0.9c0,1.4,0.1,2.9,0.3,4.3l-65.3,62
	c-1.3-0.3-2.6-0.5-3.9-0.6c-1.7-0.2-3.3-0.3-5.1-0.3c-25.2,0-45.7,20.5-45.7,45.7c0,25.2,20.5,45.7,45.7,45.7
	c25.2,0,45.7-20.5,45.7-45.7c0-2-0.2-4-0.4-6c-0.2-1.1-0.4-2.3-0.6-3.4l61.9-58.9c1,0.3,2,0.6,3.1,0.8c3.2,0.7,6.5,1.1,9.9,1.1
	c5.6,0,10.9-1.1,15.9-2.9c0.9-0.3,1.8-0.7,2.6-1.1l25.2,20.4c0.1,1.8,0.3,3.5,0.6,5.2c3.7,21.5,22.4,37.9,45,37.9
	c25.2,0,45.7-20.5,45.7-45.7c0-3.7-0.5-7.3-1.3-10.7c-0.3-1.2-0.7-2.5-1.1-3.7l34-44.4c0.8,0,1.6,0.1,2.5,0.1c0.5,0,1.1-0.1,1.6-0.1
	c24.4-0.8,44.1-20.9,44.1-45.6C446,152.4,425.5,131.9,400.3,131.9z M111.7,356.9c-12.4,0-22.5-10.1-22.5-22.5
	c0-12.4,10.1-22.5,22.5-22.5c12.4,0,22.5,10.1,22.5,22.5C134.2,346.8,124.1,356.9,111.7,356.9z M208.8,222.5
	c0-12.4,10.1-22.5,22.5-22.5c12.4,0,22.5,10.1,22.5,22.5c0,12.4-10.1,22.5-22.5,22.5C218.9,245,208.8,234.9,208.8,222.5z
	 M320.5,304.4c-12.4,0-22.5-10.1-22.5-22.5c0-12.4,10.1-22.5,22.5-22.5s22.5,10.1,22.5,22.5C343,294.3,332.9,304.4,320.5,304.4z
	 M421.9,183.7c-2.7,9.4-11.3,16.4-21.6,16.4c-12.4,0-22.5-10.1-22.5-22.5c0-8.1,4.3-15.1,10.7-19.1c3.5-2.2,7.5-3.5,11.9-3.5
	c12.4,0,22.5,10.1,22.5,22.5C422.9,179.7,422.5,181.8,421.9,183.7z"/>
</svg>
