<?xml version="1.0" encoding="utf-8"?>
<!-- Generator: Adobe Illustrator 16.0.4, SVG Export Plug-In . SVG Version: 6.00 Build 0)  -->
<!DOCTYPE svg PUBLIC "-//W3C//DTD SVG 1.1//EN" "http://www.w3.org/Graphics/SVG/1.1/DTD/svg11.dtd">
<svg version="1.1" id="Layer_1" xmlns="http://www.w3.org/2000/svg" xmlns:xlink="http://www.w3.org/1999/xlink" x="0px" y="0px"
	 width="512px" height="512px" viewBox="0 0 512 512" enable-background="new 0 0 512 512" xml:space="preserve">
<g>
	<g>
		<polygon fill="#454646" points="132.114,190.587 379.894,190.587 379.894,245.98 427.468,208.871 256,75.129 84.531,208.871 
			132.114,245.98 		"/>
	</g>
	<rect x="159.649" y="219.414" fill="#454646" width="192.7" height="14.098"/>
	<rect x="159.649" y="249.636" fill="#454646" width="192.7" height="14.094"/>
	<g>
		<polygon fill="#454646" points="193.604,293.948 318.396,293.948 336.468,279.85 175.531,279.85 		"/>
	</g>
	<g>
		<g>
			<polygon fill="#454646" points="66,223.329 66,421.404 182.73,314.376 			"/>
		</g>
		<g>
			<polygon fill="#454646" points="256,371.529 200.96,328.597 82.869,436.871 429.137,436.871 311.04,328.597 			"/>
		</g>
		<g>
			<polygon fill="#454646" points="446,421.404 446,223.329 329.269,314.376 			"/>
		</g>
	</g>
	<g>
		<polygon fill="#454646" points="232.354,324.167 279.652,324.167 297.717,310.072 214.282,310.072 		"/>
	</g>
</g>
</svg>
