<?xml version="1.0" encoding="utf-8"?>
<!-- Generator: Adobe Illustrator 18.1.1, SVG Export Plug-In . SVG Version: 6.00 Build 0)  -->
<svg version="1.1" id="Ebene_1" xmlns="http://www.w3.org/2000/svg" xmlns:xlink="http://www.w3.org/1999/xlink" x="0px" y="0px"
	 width="512px" height="512px" viewBox="0 0 512 512" enable-background="new 0 0 512 512" xml:space="preserve">
<path fill="#454646" d="M432.3,180.5c-8,0.8-33.1,4.4-64.2-8.3c-33.8-13.9-82.3-77.2-120.7-87.5c-19.4-5.2-33.7-5.6-43.1-4.7
	c-1.7-6.3-6.5-11.6-13.3-13.4C181,64,170.6,69.9,167.9,80L76.2,422.3c-2.7,10.1,3.3,20.4,13.3,23.1c10.1,2.7,20.4-3.3,23.1-13.3
	L149,296.3c21.3-5.8,34.9,3.3,40.1,6.3c31.5,18,62.4,72.1,122.7,88.2c32.5,8.7,59.7,7.6,65.9,6c1.3-0.3,2.3-1.3,2.7-2.6l56-208.9
	C436.9,183.1,435.7,180.2,432.3,180.5z M243.8,169.3c15.6,9,32.2,23.7,48.6,38.4l-17.7,66.1c-16.4-14.7-33-29.3-48.7-38.3
	L243.8,169.3z M323.9,315.2l-14.7,55c-19.8-6.7-36.1-18.1-50.6-30.7l16.9-63C276.4,277.4,307.5,307.6,323.9,315.2z M294.1,207.2
	l15-56.2c17.5,15.6,34.1,30.1,48.8,37.2l-15.5,57.8C326.8,238.3,295.2,208.2,294.1,207.2z M343.4,248.2
	c23.9,11.3,43.5,10.1,53.9,9.7l-17.7,66.2c-12.4,0.7-33,0.5-53.9-9.7L343.4,248.2z M258.1,110l-15.3,57c-5.5-3.1-19.5-12.4-56-11.7
	l15.1-56.2C234.6,95.7,252.6,106.7,258.1,110z M154.3,276.4l13.9-51.8c31.5-0.7,50.5,8.5,56.1,11.6l-15.4,57.3
	C205.2,290.6,185.6,270.5,154.3,276.4z"/>
</svg>
