<?xml version="1.0" encoding="utf-8"?>
<!-- Generator: Adobe Illustrator 16.0.4, SVG Export Plug-In . SVG Version: 6.00 Build 0)  -->
<!DOCTYPE svg PUBLIC "-//W3C//DTD SVG 1.1//EN" "http://www.w3.org/Graphics/SVG/1.1/DTD/svg11.dtd">
<svg version="1.1" id="Layer_1" xmlns="http://www.w3.org/2000/svg" xmlns:xlink="http://www.w3.org/1999/xlink" x="0px" y="0px"
	 width="512px" height="512px" viewBox="0 0 512 512" enable-background="new 0 0 512 512" xml:space="preserve">
<g>
	<path fill="#454646" d="M66,427.001c0,10.45,8.55,19,19,19h342c10.45,0,19-8.55,19-19v-85.737H66V427.001z"/>
	<path fill="#454646" d="M427,65.999H85c-10.45,0-19,8.55-19,19v237.265h95v-24.86c0-2.093,1.711-3.8,3.8-3.8H180
		c2.089,0,3.8,1.707,3.8,3.8v24.86h144.4v-24.86c0-2.093,1.71-3.8,3.8-3.8h15.2c2.089,0,3.8,1.707,3.8,3.8v24.86h95V84.999
		C446,74.549,437.45,65.999,427,65.999z M229.4,277.135c0,4.179-3.421,7.6-7.6,7.6H123c-4.179,0-7.6-3.421-7.6-7.6v-98.8
		c0-4.185,3.421-7.601,7.6-7.601h98.8c4.179,0,7.6,3.416,7.6,7.601V277.135z M396.6,277.135c0,4.179-3.421,7.6-7.6,7.6h-98.8
		c-4.179,0-7.6-3.421-7.6-7.6v-98.8c0-4.185,3.421-7.601,7.6-7.601H389c4.179,0,7.6,3.416,7.6,7.601V277.135z"/>
</g>
</svg>
