<?xml version="1.0" encoding="utf-8"?>
<!-- Generator: Adobe Illustrator 19.2.1, SVG Export Plug-In . SVG Version: 6.00 Build 0)  -->
<svg version="1.1" id="Work_area" xmlns="http://www.w3.org/2000/svg" xmlns:xlink="http://www.w3.org/1999/xlink" x="0px" y="0px"
	 width="512px" height="512px" viewBox="0 0 512 512" enable-background="new 0 0 512 512" xml:space="preserve">
<g>
	<path fill="#454646" d="M36,226H21.5c-3,0-5.5,2.1-5.5,5.2v89.5c0,3,2.5,5.4,5.5,5.4h14.2c1.5,0,2.8-0.6,3.8-1.5
		c1-1,1.5-2.3,1.5-3.8v-89.5c0-3-2.2-5.2-5.3-5.2"/>
	<path fill="#454646" d="M394,226h-14.3c-3,0-5.7,2.1-5.7,5.2v89.5c0,3,2.7,5.4,5.7,5.4h14.2c3,0,5.1-2.3,5.1-5.4v-89.5
		C399,228.1,397,226,394,226"/>
	<path fill="#454646" d="M241,226h-28h-14.2h-28.1c-3,0-5.7,2.1-5.7,5.2v14.2c0,3,2.7,5.6,5.7,5.6H193v69.6c0,3,2.7,5.4,5.8,5.4H213
		c3,0,5-2.3,5-5.4V251h22.9c3,0,5.1-2.6,5.1-5.6v-14.2c0-1.5-0.4-2.7-1.4-3.7c-1-1-2.2-1.4-3.7-1.4"/>
	<path fill="#454646" d="M496,245v-13.8c0-3-2.5-5.2-5.5-5.2h-27.9h-14.2h-28.1c-3,0-5.4,2.1-5.4,5.2v14.2c0,3,2.3,5.6,5.4,5.6H443
		v69.6c0,3,2.4,5.4,5.4,5.4h14.2c3,0,5.3-2.3,5.3-5.4V251h22.5c3,0,5.5-2.7,5.5-5.7"/>
	<path fill="#454646" d="M133.5,225.9l0,0.1h0c-3.9-2-7.7-2.1-11.4-2.1c-13.4,0-25.1,7.3-31.1,12.4v-5.2c0-3-2.6-5.2-5.7-5.2H71.1
		c-3,0-5.1,2.1-5.1,5.2v89.5c0,3,2.1,5.4,5.1,5.4h14.2c1.5,0,3-0.6,4-1.5c1-1,1.7-2.3,1.7-3.8v-63.5c11-7.6,18.7-10.4,24.2-10.4
		c3.2,0,5.5,0.9,7.4,2.3c2.8,2.1,4.3,5.4,5.3,8.6c0.9,3.2,1.1,6.4,1.1,8.1v54.9c0,3,2.7,5.4,5.7,5.4H149c3,0,5-2.3,5-5.4v-62.7
		c0-0.1,0.3-0.4,0.3-1.1c0-2.4-0.2-8.3-3-14.5C148.5,236,143.3,229.5,133.5,225.9"/>
	<path fill="#454646" d="M346,226h-14.5c-1.5,0-3,0.5-4.3,1.5c-1.3,1-2.2,2.2-2.2,3.8v63.6c-11,7.7-18.1,10.5-23.4,10.5
		c-3,0-5.4-0.8-7.2-2.2c-2.7-2-4.2-5.2-5.2-8.5c-1-3.3-1.2-6.5-1.2-8.6v-54.9c0-3-2.9-5.2-5.9-5.2h-14.2c-3,0-5.8,2.1-5.8,5.2v62.7
		c0,0.1,0.1,0.4,0.1,1.1c0,2.4,0.4,8.3,3.2,14.6c2.8,6.3,8.2,12.5,18,16.5h0h0c3.9,1,7.8,2,11.5,2c13.4,0,25.2-7.4,31.2-12.5v5.2
		c0,3,2.4,5.4,5.5,5.4h14.2c1.5,0,2.8-0.6,3.4-1.7c0.6-1,0.9-2.3,0.9-3.7v-89.5c0-1.4-0.3-2.6-0.9-3.6c-0.6-1-1.9-1.6-3.4-1.6"/>
	<path fill="#454646" d="M205.7,215.7c8.8,0,15.9-7.1,15.9-15.9c0-8.8-7.1-15.9-15.9-15.9c-8.8,0-15.9,7.1-15.9,15.9
		C189.8,208.6,196.9,215.7,205.7,215.7"/>
	<path fill="#454646" d="M455.4,215.7c8.8,0,15.9-7.1,15.9-15.9c0-8.8-7.1-15.9-15.9-15.9c-8.8,0-15.9,7.1-15.9,15.9
		C439.6,208.6,446.7,215.7,455.4,215.7"/>
</g>
</svg>
