<?xml version="1.0" encoding="utf-8"?>
<!-- Generator: Adobe Illustrator 19.2.1, SVG Export Plug-In . SVG Version: 6.00 Build 0)  -->
<svg version="1.1" id="Work_area" xmlns="http://www.w3.org/2000/svg" xmlns:xlink="http://www.w3.org/1999/xlink" x="0px" y="0px"
	 width="512px" height="512px" viewBox="0 0 512 512" enable-background="new 0 0 512 512" xml:space="preserve">
<path fill="#454646" d="M402.9,86.7c2.4,3.4,4.6,6.9,7.1,10.2c12.4,16.9,24.8,33.7,37.2,50.6c0.2,0.3,0.5,0.6,0.9,1.1
	c-15,19.7-30,39.5-45,59.2c-0.2,0-0.3-0.1-0.5-0.1c0-9.9,0-19.9,0-30c-1.2,0-2,0-2.9,0c-73.9,0-147.9,0-221.8,0
	c-1.5,0-3,0.1-4.4,0.2c-6.7,0.8-10.5,5-10.6,12.2c-0.1,9.5-0.2,19,0,28.5c0.1,8.2,4.6,12.4,12.9,12.4c62.8,0,125.6-0.1,188.4,0.1
	c5.6,0,11.5,1,16.9,2.7c13.5,4.3,19.6,14.8,21.4,28.2c0.4,3.2,0.5,6.5,0.5,9.8c0,26.3-0.4,52.6,0.2,78.9
	c0.5,20.9-19.5,40.2-37.2,40.2c-2,0-3.9,0.2-5.9,0.2c-82.3,0-164.6,0-246.9,0c-1.1,0-2.3,0-3.7,0c0,11.4,0,22.7,0,34
	c-0.2,0.1-0.4,0.2-0.6,0.2C93.8,405,78.9,384.7,64,364.4c14.9-19.7,29.8-39.3,45.1-59.4c0,11.2,0,21.6,0,32.4c1.2,0.1,2,0.1,2.9,0.1
	c75,0,150,0,225,0c8.1,0,12.3-4,12.6-13c0.3-9.7,0.1-19.5-0.2-29.2c-0.2-5.9-3.7-9.5-9.5-10.5c-1.8-0.3-3.6-0.4-5.4-0.4
	c-70.6,0-141.2,0-211.8,0c-8.9,0-13.4-4.4-13.4-13.2c0-36.2-0.1-72.3,0-108.5c0-8,1.2-16,5.3-23.2c4.9-8.6,12.7-12.7,22-14.2
	c4.3-0.7,8.8-1,13.2-1c83-0.1,165.9,0,248.9,0c1.1,0,2.3,0,3.6,0c0-12.7,0-25.1,0-37.5C402.6,86.7,402.7,86.7,402.9,86.7z"/>
</svg>
