<?xml version="1.0" encoding="utf-8"?>
<!-- Generator: Adobe Illustrator 16.0.4, SVG Export Plug-In . SVG Version: 6.00 Build 0)  -->
<!DOCTYPE svg PUBLIC "-//W3C//DTD SVG 1.1//EN" "http://www.w3.org/Graphics/SVG/1.1/DTD/svg11.dtd">
<svg version="1.1" id="Layer_1" xmlns="http://www.w3.org/2000/svg" xmlns:xlink="http://www.w3.org/1999/xlink" x="0px" y="0px"
	 width="512px" height="512px" viewBox="0 0 512 512" enable-background="new 0 0 512 512" xml:space="preserve">
<g>
	<path fill-rule="evenodd" clip-rule="evenodd" fill="#454646" d="M46,222.516v180.764h359.916V222.516H46z M159.773,313.299
		c0-35.184,27.46-63.943,62.114-66.043v12.566c-2.326,0.32-4.577,0.764-6.763,1.402c-4.253,1.23-7.949,3.094-11.079,5.578
		c-3.138,2.486-5.623,5.629-7.469,9.393c-1.85,3.783-2.769,8.146-2.769,13.125c0,4.34,0.64,8.064,1.928,11.166
		c1.284,3.1,2.953,5.799,5.012,8.07c2.067,2.273,4.396,4.217,7.026,5.85c2.625,1.648,5.328,3.102,8.109,4.381
		c2.785,1.279,5.488,2.502,8.108,3.65c2.625,1.156,4.967,2.387,7.022,3.691c2.063,1.32,3.737,2.812,5.024,4.494
		c1.288,1.691,1.924,3.717,1.924,6.062c0,2.043-0.374,3.896-1.12,5.562c-0.759,1.656-1.833,3.051-3.253,4.184
		c-1.419,1.131-3.146,1.992-5.18,2.607c-2.039,0.615-4.335,0.928-6.911,0.928c-3.909,0-7.346-0.436-10.319-1.312
		c-2.974-0.895-5.525-1.861-7.67-2.938c-2.137-1.066-3.896-2.033-5.258-2.928c-1.366-0.877-2.42-1.32-3.167-1.32
		c-0.542,0-1.013,0.156-1.403,0.443c-0.414,0.303-0.73,0.787-0.972,1.492c-0.238,0.697-0.41,1.607-0.521,2.732
		c-0.107,1.131-0.164,2.525-0.164,4.184c0,2.477,0.152,4.355,0.447,5.676c0.287,1.312,0.788,2.322,1.485,3.01
		c0.689,0.689,1.833,1.477,3.413,2.389c1.579,0.902,3.54,1.754,5.902,2.584c2.354,0.811,5.078,1.518,8.158,2.107
		c3.072,0.574,6.407,0.869,9.992,0.869c0.16,0,0.308-0.023,0.467-0.023v12.377h8.683c-1.526,0.107-3.06,0.182-4.61,0.182
		C189.407,379.49,159.773,349.852,159.773,313.299z M234.528,378.916v-13.643c0.607-0.156,1.247-0.229,1.837-0.402
		c4.655-1.395,8.72-3.461,12.207-6.225c3.474-2.748,6.23-6.193,8.269-10.312c2.034-4.125,3.056-8.908,3.056-14.371
		c0-4.184-0.648-7.793-1.932-10.887c-1.288-3.076-2.966-5.75-5.058-8.021c-2.092-2.264-4.471-4.225-7.149-5.857
		c-2.682-1.633-5.402-3.084-8.187-4.381c-2.785-1.279-5.521-2.502-8.195-3.65c-2.674-1.148-5.07-2.371-7.186-3.699
		c-2.112-1.305-3.802-2.805-5.057-4.486c-1.264-1.682-1.895-3.684-1.895-5.988c0-1.543,0.287-3.012,0.845-4.398
		c0.566-1.377,1.415-2.574,2.572-3.559c1.148-0.977,2.58-1.764,4.294-2.314c1.71-0.566,3.724-0.844,6.025-0.844
		c2.945,0,5.64,0.359,8.109,1.066c2.461,0.729,4.635,1.525,6.505,2.402c1.878,0.879,3.458,1.682,4.737,2.438
		c1.288,0.738,2.223,1.098,2.81,1.098c0.59,0,1.054-0.146,1.411-0.475c0.345-0.328,0.611-0.828,0.8-1.525
		c0.193-0.697,0.32-1.584,0.398-2.65c0.078-1.082,0.123-2.395,0.123-3.953c0-1.404-0.029-2.561-0.078-3.496
		c-0.053-0.943-0.147-1.713-0.287-2.328c-0.131-0.625-0.287-1.125-0.479-1.494c-0.185-0.377-0.546-0.836-1.083-1.361
		c-0.529-0.541-1.632-1.205-3.285-1.994c-1.666-0.803-3.568-1.518-5.706-2.148c-2.145-0.641-4.446-1.141-6.907-1.518
		c-0.5-0.074-1.013-0.049-1.514-0.115v-12.133c32.501,4.201,57.615,31.969,57.615,65.609
		C292.143,346.947,267.029,374.707,234.528,378.916z"/>
	<path fill-rule="evenodd" clip-rule="evenodd" fill="#454646" d="M106.08,108.721v101.867h114.717
		c-0.607-3.609-0.939-7.309-0.939-11.082c0-35.184,27.46-63.943,62.114-66.045v12.568c-2.326,0.311-4.582,0.762-6.768,1.402
		c-4.253,1.23-7.949,3.092-11.079,5.578c-3.133,2.486-5.623,5.627-7.469,9.385c-1.85,3.781-2.769,8.154-2.769,13.133
		c0,4.332,0.64,8.055,1.928,11.156c1.284,3.109,2.957,5.809,5.012,8.08c2.071,2.271,4.401,4.209,7.026,5.85s5.328,3.1,8.109,4.379
		c2.785,1.281,5.488,2.494,8.113,3.65c1.415,0.625,2.736,1.271,3.987,1.945H318.5c-0.147-0.436-0.279-0.887-0.451-1.305
		c-1.288-3.076-2.965-5.75-5.061-8.023c-2.092-2.264-4.467-4.225-7.149-5.865c-2.678-1.623-5.401-3.084-8.187-4.371
		c-2.785-1.279-5.517-2.502-8.195-3.658c-2.674-1.141-5.07-2.371-7.182-3.691c-2.116-1.305-3.806-2.807-5.061-4.496
		c-1.263-1.674-1.895-3.676-1.895-5.98c0-1.551,0.287-3.018,0.849-4.396c0.566-1.379,1.415-2.576,2.567-3.568
		c1.148-0.977,2.584-1.756,4.294-2.305c1.714-0.566,3.724-0.846,6.025-0.846c2.945,0,5.644,0.361,8.113,1.066
		c2.461,0.73,4.63,1.518,6.505,2.404c1.875,0.877,3.454,1.674,4.737,2.436c1.288,0.738,2.219,1.1,2.806,1.1
		c0.59,0,1.058-0.156,1.411-0.477c0.345-0.328,0.615-0.828,0.8-1.525c0.193-0.697,0.32-1.592,0.402-2.658
		c0.078-1.074,0.123-2.395,0.123-3.945c0-1.395-0.029-2.566-0.082-3.494c-0.054-0.943-0.148-1.715-0.287-2.338
		c-0.127-0.615-0.283-1.115-0.476-1.492c-0.188-0.379-0.549-0.83-1.083-1.354c-0.533-0.543-1.633-1.207-3.29-2.002
		c-1.666-0.797-3.564-1.51-5.706-2.141c-2.141-0.641-4.446-1.141-6.903-1.527c-0.5-0.064-1.013-0.041-1.518-0.105v-12.133
		c32.505,4.199,57.619,31.959,57.619,65.609c0,3.781-0.361,7.473-0.972,11.082h66.597v78.896H466V108.721H106.08z"/>
</g>
</svg>
