<?xml version="1.0" encoding="utf-8"?>
<!-- Generator: Adobe Illustrator 16.0.4, SVG Export Plug-In . SVG Version: 6.00 Build 0)  -->
<!DOCTYPE svg PUBLIC "-//W3C//DTD SVG 1.1//EN" "http://www.w3.org/Graphics/SVG/1.1/DTD/svg11.dtd">
<svg version="1.1" id="Layer_1" xmlns="http://www.w3.org/2000/svg" xmlns:xlink="http://www.w3.org/1999/xlink" x="0px" y="0px"
	 width="512px" height="512px" viewBox="0 0 512 512" enable-background="new 0 0 512 512" xml:space="preserve">
<path fill="#454646" d="M427,66H85c-10.458,0-19,8.55-19,19v342c0,10.45,8.542,19,19,19h342c10.442,0,19-8.55,19-19V85
	C446,74.55,437.442,66,427,66z M230.839,354.188c0-31.862,47.957-31.862,47.957,0C278.796,385.701,230.839,385.701,230.839,354.188z
	 M294.809,273c-13.723,9.856-21.145,22.9-21.145,39.736l-38.022-0.334c0-29.397,12.25-45.7,32.033-62.366
	c17.404-14.646,39.878-24.266,39.878-43.826c0-31.172-28.771-38.019-53.096-38.019c-24.318,0-53.088,11.99-53.438,39.051h-37.332
	c0-51.037,44.531-72.619,91.46-72.619c47.27,0,93.167,23.843,93.167,67.81C348.313,239.965,316.243,257.622,294.809,273z"/>
</svg>
