<?xml version="1.0" encoding="utf-8"?>
<!-- Generator: Adobe Illustrator 16.0.4, SVG Export Plug-In . SVG Version: 6.00 Build 0)  -->
<!DOCTYPE svg PUBLIC "-//W3C//DTD SVG 1.1//EN" "http://www.w3.org/Graphics/SVG/1.1/DTD/svg11.dtd">
<svg version="1.1" id="Layer_1" xmlns="http://www.w3.org/2000/svg" xmlns:xlink="http://www.w3.org/1999/xlink" x="0px" y="0px"
	 width="512px" height="512px" viewBox="0 0 512 512" enable-background="new 0 0 512 512" xml:space="preserve">
<g>
	<path fill-rule="evenodd" clip-rule="evenodd" fill="#454646" d="M347.344,117.248c0.099-13.111-5.072-23.366-15.066-31.319
		c-13.359-10.626-29.268-14.621-45.694-16.848c-9.574-1.299-19.197-2.078-28.796-3.08c-2.104,0-4.206,0-6.321,0
		c-10.02,1.026-20.225,1.15-29.997,3.303c-12.654,2.771-25.481,5.938-37.27,11.157c-13.248,5.888-20.534,16.946-19.644,32.52
		c0.557,9.711,0.087,19.482,0.087,29.23c0,8.436,0,8.436,8.213,8.461c25.754,0.024,51.508,0.012,77.262,0.148
		c2.141,0.012,5.913,0.668,6.136,1.645c0.792,3.625,1.015,7.645,0.124,11.195c-0.297,1.162-4.577,1.88-7.051,1.893
		c-41.377,0.136-82.754,0.012-124.131,0.223c-16.341,0.086-30.517,6.395-39.818,19.841c-6.234,9.03-11.033,19.532-14.274,30.071
		c-6.433,20.904-5.69,42.675-3.674,64.186c1.583,16.885,5.468,33.436,15.276,47.81c9.674,14.2,22.562,22.501,40.375,21.771
		c7.372-0.297,14.77-0.197,22.154,0.05c4.416,0.136,5.863-1.559,5.776-5.962c-0.247-12.704-0.111-25.42-0.099-38.124
		c0.074-34.883,20.806-55.59,55.664-55.59c30.194,0.013,60.389,0.174,90.57,0c30.986-0.173,50.123-19.618,50.147-50.616
		C347.318,171.898,347.096,144.561,347.344,117.248z M203.422,129.742c-9.488-0.285-17.107-8.14-17.12-17.652
		c-0.013-10.131,7.459-17.516,17.603-17.429c9.5,0.074,17.466,7.966,17.429,17.317C221.309,121.454,212.687,130.014,203.422,129.742
		z"/>
	<path fill-rule="evenodd" clip-rule="evenodd" fill="#454646" d="M164.667,394.752c-0.124,13.124,5.06,23.366,15.066,31.319
		c13.359,10.626,29.255,14.621,45.694,16.848c9.549,1.286,19.173,2.078,28.771,3.08c2.104,0,4.23,0,6.334,0
		c10.019-1.026,20.224-1.15,29.996-3.303c12.654-2.771,25.481-5.949,37.27-11.157c13.248-5.888,20.534-16.946,19.644-32.508
		c-0.544-9.723-0.087-19.494-0.087-29.229c0-8.448,0-8.461-8.213-8.474c-25.754-0.024-51.521-0.012-77.273-0.148
		c-2.128-0.012-5.9-0.668-6.111-1.645c-0.791-3.612-1.026-7.645-0.148-11.195c0.297-1.175,4.59-1.88,7.051-1.893
		c41.389-0.136,82.766,0,124.143-0.223c16.354-0.086,30.529-6.395,39.818-19.841c6.234-9.03,11.034-19.532,14.275-30.071
		c6.432-20.904,5.689-42.688,3.673-64.174c-1.583-16.896-5.467-33.447-15.276-47.834c-9.673-14.188-22.562-22.488-40.362-21.758
		c-7.385,0.297-14.782,0.197-22.167-0.037c-4.416-0.137-5.863,1.533-5.776,5.949c0.247,12.704,0.111,25.408,0.099,38.124
		c-0.074,34.883-20.806,55.59-55.676,55.577c-30.183,0-60.364-0.161-90.559,0.013c-30.986,0.173-50.11,19.618-50.147,50.616
		C164.68,340.114,164.89,367.439,164.667,394.752z M308.576,382.258c9.488,0.285,17.12,8.14,17.12,17.64
		c0.024,10.144-7.446,17.528-17.614,17.441c-9.5-0.074-17.454-7.966-17.417-17.306C290.689,390.546,299.324,381.986,308.576,382.258
		z"/>
</g>
</svg>
