<?xml version="1.0" encoding="utf-8"?>
<!-- Generator: Adobe Illustrator 18.1.0, SVG Export Plug-In . SVG Version: 6.00 Build 0)  -->
<svg version="1.1" id="Ebene_1" xmlns="http://www.w3.org/2000/svg" xmlns:xlink="http://www.w3.org/1999/xlink" x="0px" y="0px"
	 width="512px" height="512px" viewBox="0 0 512 512" enable-background="new 0 0 512 512" xml:space="preserve">
<g>
	<path fill="#454646" d="M461,380.1c-3.7,1.9-7,3.6-10.5,5.4c-1.1-1.2-2-2.3-2.9-3.3c-8.2-9.6-19.7-9.1-26.9,1.1
		c-6.4,9.1-6.2,22.9,0.4,31.7c4.1,5.5,11,8.2,17.1,6.6c6.1-1.6,9.9-6.2,11.3-14.5c-2.3,0-4.5,0-6.6,0c-2,0-4.1,0-6.6,0
		c0-3.6,0-6.6,0-10c9.2,0,18.2,0,27.2,0c3,12.8-4.4,28.4-16.2,34.1c-12.5,6.1-28.3,2.4-37.2-8.8c-11.5-14.6-10-37.3,3.3-50.2
		C427.5,358.3,451.8,362,461,380.1z"/>
	<path fill="#454646" d="M79.4,403.1c-6.7,0-13.2,0-20.1,0c0,5.9,0,11,0,16.9c6.8,0,13.6,0,20.8,0c0,4.1,0,7.5,0,11.3
		c-11,0-22,0-33.4,0c0-21.6,0-43.2,0-65.3c11,0,22.1,0,33.5,0c0,3.5,0,11,0,11H58.8l0.1,14.4c0,0,13.4,0,20.5,0
		C79.4,395.5,79.4,398.9,79.4,403.1z"/>
	<path fill="#454646" d="M183.8,365.9c4.3,0,7.9,0,12.1,0c0,18,0,35.7,0,54.1c6.2,0,11.9,0,18,0c0,4,0,7.2,0,11.1
		c-9.8,0-19.8,0-30.2,0C183.8,409.5,183.8,388,183.8,365.9z"/>
	<path fill="#454646" d="M125.3,408.8c5,6.1,13.8,22.5,13.8,22.5h17.3c-6.3-9.6-11.8-18.1-17.4-26.8c1.9-1.1,3.4-1.8,4.8-2.7
		c6.6-4.8,8.7-11.5,8-19.2c-0.8-7.4-4.6-15.6-11.9-17.1c-9-1.8-27.6-0.5-27.6-0.5s0,44.7,0,66.3c4.4,0,8.4,0,13.1,0
		C125.3,423.4,125.3,416.1,125.3,408.8z M125.6,375c5.7,0,8.8,1,10.5,3.6c1.8,2.8,2.1,8.1,0.5,10.9c-1.6,2.8-5.9,4.7-11,4.7
		C125.6,385.8,125.6,383,125.6,375z"/>
	<path fill="#454646" d="M250.2,431.1l5.1-13.1l23.1,0l5.2,13.1h14.5c-0.7-2.2-25-66.7-25-66.7h-11.4l-24.4,66.7H250.2z
		 M266.6,383.1l8.4,24.1h-16.4L266.6,383.1z"/>
	<path fill="#454646" d="M336.1,431.1c0-13.6,0-29.7,0-42.8c1.6,1.8,34.1,42.8,34.1,42.8h9.9c0.1-14.1,0.1-35.2,0.1-48.2
		c0-5.6,0-11.1,0-17c-4.9,0-8.9,0-13.7,0c0,14.1,0,27.7,0,43c-2.5-2.9-3.8-4.3-5.1-5.9c-8.2-10.5-28.2-37-28.2-37l-10.8,0.3
		c0,0,0,44.8,0.1,64.9H336.1z"/>
	<path fill="#454646" d="M452.4,292c-22.2-11.1-42.8-21.5-64.1-32.1c-2.7,3.9-5.3,7.9-8,11.7c-15.6,22.1-33.7,41.4-59.6,51.6
		c-38.7,15.2-90.2,5.5-111.2-47.1c-9.5-23.8-12.5-48.6-12.4-75c3.2,0,5.8,0,8.4,0c75.9,0,151.8,0,227.7,0c4.5,0,9.3,0,9.3,0
		s-0.1-4.3,0-8.6c0.7-40.1-5-78.6-29.1-112.3c-0.3-0.5-0.4-1.1-0.9-2.1c17.9,0,35.5,0,53.6,0c0,88.6,0,177.3,0,266.5
		c-17.1,0-39.4,0-56.2,0C425.8,329.6,439.6,310.1,452.4,292z"/>
	<path fill="#454646" d="M101.8,78c-61.5,73.3-53.4,201,9.1,266.3c-21.7,0-43,0-64.9,0c0-88.5,0-177.2,0-266.3
		C64.2,78,82.6,78,101.8,78z"/>
	<path fill="#454646" d="M311.4,137.8c-37.2,0-73.6,0-110.5,0c-0.6-8.3,2.1-15.6,5.6-22.6c16.4-32.7,59.2-42.3,87.9-19.4
		C307.5,106.3,310.7,121.2,311.4,137.8z"/>
</g>
</svg>
