<?xml version="1.0" encoding="utf-8"?>
<!-- Generator: Adobe Illustrator 19.2.0, SVG Export Plug-In . SVG Version: 6.00 Build 0)  -->
<svg version="1.1" id="Ebene_1" xmlns="http://www.w3.org/2000/svg" xmlns:xlink="http://www.w3.org/1999/xlink" x="0px" y="0px"
	 width="512px" height="512px" viewBox="0 0 512 512" enable-background="new 0 0 512 512" xml:space="preserve">
<path fill="#454646" d="M427,300.4l7.6,34c1.6,7.4,8.2,12.5,15.5,12.5c1.1,0,2.3-0.1,3.5-0.4c8.6-1.9,14-10.4,12.1-19l-9.1-41
	c-1-4.5-3.8-8.3-7.8-10.5l-36.2-20.1c-6.6-3.7-14.8-2.2-19.7,3.5l-22.4,25.7c-4.2-34.9-24.4-65.2-52.9-83.4h64.1
	c5,0,8.8-4.4,8.2-9.3L376.4,77.6c-1.1-8.2-8.1-14.3-16.4-14.3H152.1c-8.3,0-15.3,6.1-16.4,14.3l-13.4,114.8
	c-0.7,4.9,3.2,9.3,8.2,9.3h63.6c-28.5,18.1-48.4,48.4-52.5,83.4l-22.5-25.7c-4.9-5.7-13.2-7.1-19.7-3.5L63.3,276
	c-4,2.2-6.8,6-7.8,10.5l-9.1,41c-1.9,8.6,3.5,17.1,12.1,19c1.2,0.3,2.3,0.4,3.5,0.4c7.3,0,13.9-5.1,15.5-12.5l7.6-34l18.6-10.4
	l38.2,43.8l-23.7-12.1c-6.4-3.3-14.3-1.8-19.1,3.5l-40.3,44.8c-2.6,2.9-4.1,6.7-4.1,10.6v52.1c0,8.8,7.1,15.9,15.9,15.9
	s15.9-7.1,15.9-15.9v-46l28-31.2l85.4,43.7c16.6,9.3,35.7,14.6,56,14.6c17.9,0,34.9-4.2,50.1-11.7c0.2-0.1,0.4-0.1,0.6-0.3
	l90.6-46.4l28,31.2v46c0,8.8,7.1,15.9,15.9,15.9s15.9-7.1,15.9-15.9v-52.1c0-3.9-1.5-7.7-4.1-10.6l-40.3-44.8
	c-4.8-5.4-12.7-6.8-19.1-3.5l-23.7,12.1l38.2-43.8L427,300.4z M193.3,161.9c-16.8,0-30.4-13.6-30.4-30.4c0-16.8,13.6-30.4,30.4-30.4
	c16.8,0,30.4,13.6,30.4,30.4C223.7,148.3,210.1,161.9,193.3,161.9z M209,212.8c-1.3,2-2.6,4-3.8,6.1c-8.5,14.7-14.5,32.8-17.3,52.6
	c-3.2,0.6-6.1,1.2-8.8,1.8c-7.6,1.7-13.9,3.6-19,5.7C165.7,250.9,183.9,226.6,209,212.8z M184.7,289.4c0.5-0.1,0.9-0.2,1.4-0.3
	c-0.2,3.2-0.2,6.4-0.2,9.4c0,3,0.1,6.2,0.2,9.4c-0.5-0.1-0.9-0.2-1.4-0.3c-16-3.4-23.4-7.2-25.8-9.1
	C161.5,296.6,168.8,292.8,184.7,289.4z M159.8,318.1c5.2,2.1,11.7,4,19.2,5.7c2.8,0.6,5.8,1.2,8.8,1.8c2.8,19.7,8.8,37.9,17.3,52.6
	c1.4,2.5,2.9,4.8,4.5,7.1C184,371.4,165.5,346.7,159.8,318.1z M249.7,395.5c-11.2-2.8-20.2-10.9-28.9-25.9
	c-6.4-11.1-11.1-25-14-41.4c12.9,1.6,24.3,2.5,42.9,2.7V395.5z M249.7,314c-20-0.3-33-1.5-45.5-3.2c-0.1-1.2-0.3-2.4-0.5-3.7
	c-0.4-2.8-0.8-5.8-0.8-8.6c0-2.8,0.4-5.8,0.8-8.6c0.2-1.2,0.3-2.5,0.5-3.7c12.6-1.7,25.6-2.9,45.5-3.2V314z M249.7,266.1
	c-18.8,0.2-30.7,1.2-43.4,2.7c2.7-15,7.8-29.2,14.9-41.4c8.7-15,17.3-22.9,28.1-25.7h0.4V266.1z M352.1,278.7
	c-5.1-2-11.2-3.8-18.5-5.5c-2.8-0.6-5.7-1.2-8.9-1.8c-2.8-19.7-8.8-37.9-17.3-52.6c-1.1-2-2.3-3.9-3.6-5.7
	C328.4,227,346.2,251.1,352.1,278.7z M318.9,101.2c16.8,0,30.4,13.6,30.4,30.4c0,16.8-13.6,30.4-30.4,30.4s-30.4-13.6-30.4-30.4
	C288.6,114.8,302.2,101.2,318.9,101.2z M265.5,201.9c9.9,3.5,20,12.8,27.3,25.5c6.8,11.7,11.8,26,14.6,41.4
	c-13.4-1.6-26.9-2.5-41.9-2.7V201.9z M265.5,283.1c15.7,0.3,30.1,1.3,43.9,3.1c0.3,4.2,0.3,8.5,0.3,12.3v0.5c0,4.1,0,7.9-0.2,11.8
	c-13.7,1.8-28.1,2.9-43.9,3.2V283.1z M265.5,395.2V331c14.9-0.2,28.3-1.1,41.7-2.7c-2.8,15.8-7.7,30-14.3,41.4
	C285.6,382.4,275.6,391.7,265.5,395.2z M303.1,384.9c1.5-2.1,2.9-4.4,4.2-6.7c8.5-14.7,14.5-32.8,17.3-52.6c3.1-0.6,6-1.2,8.9-1.8
	c7.4-1.7,13.6-3.5,18.7-5.5C346.5,346.5,328.3,371,303.1,384.9z M327.8,307.7c-0.5,0.1-1,0.2-1.4,0.3c0.1-2.9,0.2-6,0.2-9.4
	c0-3.1-0.1-6.3-0.2-9.4c0.5,0.1,0.9,0.2,1.4,0.3c17.7,3.8,24.1,7.8,26.1,9.4C351.8,300.4,344.7,304.1,327.8,307.7z"/>
</svg>
