<?xml version="1.0" encoding="utf-8"?>
<!-- Generator: Adobe Illustrator 16.0.4, SVG Export Plug-In . SVG Version: 6.00 Build 0)  -->
<!DOCTYPE svg PUBLIC "-//W3C//DTD SVG 1.1//EN" "http://www.w3.org/Graphics/SVG/1.1/DTD/svg11.dtd">
<svg version="1.1" id="Layer_1" xmlns="http://www.w3.org/2000/svg" xmlns:xlink="http://www.w3.org/1999/xlink" x="0px" y="0px"
	 width="512px" height="512px" viewBox="0 0 512 512" enable-background="new 0 0 512 512" xml:space="preserve">
<path fill="#454646" d="M376.536,301.026c6.907,0.46,51.523,2.526,78.821-22.433c13.758-12.588,21.029-30.159,21.029-50.854
	c0-20.503-7.256-37.928-20.979-50.389c-16.614-15.095-39.729-20.234-57.078-21.824c5.656-26.747-0.901-57.863-28.716-81.247
	C347.926,56.057,316.546,46,281.268,46c-59.179,0-85.51,32.924-137.959,78.715c-8.938,7.803-66.871,65.63-66.871,65.63
	c95.359-48.54,170.792-50.465,191.25-30.007c14.122,14.112,20.695,29.126,18.999,43.395c-1.707,14.396-11.606,28.119-27.171,37.639
	c-24.701,15.115-68.684,14.325-83.541,12.771l-54.181-0.091l75.687-58.374h-52.551L27.614,286.139h145.854
	c8.304,0.785,65.772,5.271,102.797-17.394c24.012-14.685,39.425-37.01,42.302-61.225c2.015-17.014-1.236-42.939-28.184-69.884
	c-21.419-21.419-63.483-23.692-105.497-15.904c33.228-27.076,61.038-43.634,96.382-43.634c27.733,0,51.771,7.372,67.691,20.761
	c24.164,20.306,21.819,50.966,12.568,64.765c-9.256,13.788-15.859,23.622-15.859,23.622s23.769,0,31.506,0
	s39.137-1.302,56.652,13.864c7.19,6.218,10.461,15.104,10.461,26.63c0,11.727-3.443,20.583-10.532,27.101
	c-15.358,14.117-45.092,15.023-55.209,14.143l-0.75-0.076l-67.924,0.278l-114.449,89.769h124.404L181.808,466h52.368
	l179.426-139.134H288.347l32.671-25.638L376.536,301.026z"/>
</svg>
