<?xml version="1.0" encoding="utf-8"?>
<!-- Generator: Adobe Illustrator 16.0.4, SVG Export Plug-In . SVG Version: 6.00 Build 0)  -->
<!DOCTYPE svg PUBLIC "-//W3C//DTD SVG 1.1//EN" "http://www.w3.org/Graphics/SVG/1.1/DTD/svg11.dtd">
<svg version="1.1" id="Layer_1" xmlns="http://www.w3.org/2000/svg" xmlns:xlink="http://www.w3.org/1999/xlink" x="0px" y="0px"
	 width="512px" height="512px" viewBox="0 0 512 512" enable-background="new 0 0 512 512" xml:space="preserve">
<g>
	<g>
		<path fill="#454646" d="M238.131,88.807c98.876,0,179.32,80.437,179.32,179.32c0,98.876-80.444,179.32-179.32,179.32
			c-98.88,0-179.321-80.444-179.321-179.32C58.81,169.243,139.25,88.807,238.131,88.807 M238.131,78.127
			c-104.938,0-190,85.062-190,190c0,104.929,85.062,190,190,190c104.933,0,190-85.071,190-190
			C428.131,163.189,343.063,78.127,238.131,78.127L238.131,78.127z"/>
	</g>
	<g>
		<polygon fill="#454646" points="152.61,278.74 183.105,278.74 167.705,240.987 		"/>
		<path fill="#454646" d="M238.131,100.376c-92.65,0-167.751,75.102-167.751,167.751c0,92.642,75.101,167.751,167.751,167.751
			c92.642,0,167.747-75.109,167.747-167.751C405.877,175.478,330.772,100.376,238.131,100.376z M200.11,319l-9.76-23.115h-44.68
			L136.447,319h-23.939l43.533-101.754h23.866L224.656,319H200.11z M249.296,319H226.73V217.246h22.566V319z M334.013,319
			l-27.065-35.188L279.792,319h-29.568l41.732-53.1l-37.819-48.654h28.822l24.484,32.689l23.989-32.689h28.57l-37.979,49.421
			L363.75,319H334.013z"/>
	</g>
</g>
</svg>
