<?xml version="1.0" encoding="utf-8"?>
<!-- Generator: Adobe Illustrator 16.0.4, SVG Export Plug-In . SVG Version: 6.00 Build 0)  -->
<!DOCTYPE svg PUBLIC "-//W3C//DTD SVG 1.1//EN" "http://www.w3.org/Graphics/SVG/1.1/DTD/svg11.dtd">
<svg version="1.1" id="Layer_1" xmlns="http://www.w3.org/2000/svg" xmlns:xlink="http://www.w3.org/1999/xlink" x="0px" y="0px"
	 width="512px" height="512px" viewBox="0 0 512 512" enable-background="new 0 0 512 512" xml:space="preserve">
<g>
	<path fill="#454646" d="M78.122,174.666l-22.34,17.179c3.305,3.895,7.144,7.017,11.365,9.322c0.183,0.1,0.374,0.203,0.558,0.299
		c0.342,0.18,0.685,0.347,1.027,0.514c5.264,2.505,11.149,3.843,17.434,3.843c0.708,0,1.401-0.036,2.102-0.067
		c0.343-0.024,0.693-0.04,1.044-0.072l-3.703-27.93C82.725,177.621,80.121,176.479,78.122,174.666z"/>
	<path fill="#454646" d="M74.18,165.799c0-0.873,0.104-1.717,0.278-2.537L48.424,152.51c-2.19,6.117-2.867,12.36-2.095,18.409
		c0.692,5.086,2.421,10.111,5.177,14.89c0,0,0,0,0,0.004c0.286,0.489,0.589,0.955,0.884,1.43c0.263,0.41,0.525,0.824,0.804,1.227
		l22.332-17.171C74.673,169.649,74.18,167.781,74.18,165.799z"/>
	<path fill="#454646" d="M82.51,154.39l-3.711-27.923c-5.639,1.032-10.775,3.122-15.243,6.141c-0.104,0.072-0.207,0.147-0.312,0.224
		c-0.485,0.334-0.963,0.673-1.425,1.027c-4.062,3.146-7.559,7.151-10.313,11.93c0,0,0,0,0,0.004
		c-0.287,0.486-0.534,0.984-0.797,1.478c-0.223,0.435-0.454,0.864-0.661,1.311l26.035,10.756
		C77.572,157.018,79.834,155.246,82.51,154.39z"/>
	<path fill="#454646" d="M94.209,156.935l22.34-17.183c-3.305-3.895-7.144-7.017-11.373-9.322c-0.183-0.1-0.366-0.203-0.549-0.299
		c-0.343-0.175-0.686-0.343-1.027-0.51c-5.265-2.509-11.15-3.843-17.434-3.843c-0.709,0-1.402,0.032-2.104,0.063
		c-0.35,0.024-0.692,0.044-1.043,0.072l3.703,27.93C89.598,153.979,92.21,155.122,94.209,156.935z"/>
	<path fill="#454646" d="M125.994,160.682c-0.685-5.09-2.413-10.115-5.169-14.894c-0.286-0.493-0.589-0.964-0.892-1.441
		c-0.263-0.406-0.518-0.816-0.797-1.219l-22.331,17.175c0.853,1.645,1.338,3.513,1.338,5.496c0,0.871-0.096,1.72-0.271,2.536
		l26.035,10.756C126.09,172.97,126.774,166.73,125.994,160.682z"/>
	<path fill="#454646" d="M96.24,172.266c-1.489,2.313-3.743,4.085-6.419,4.941l3.703,27.922c6.396-1.166,12.138-3.695,16.987-7.395
		c4.062-3.142,7.559-7.147,10.313-11.926c0.279-0.49,0.534-0.988,0.797-1.485c0.223-0.431,0.454-0.86,0.661-1.303L96.24,172.266z"/>
	<path fill="#454646" d="M179.322,88.86l25.374-9.163c-2.708-6.49-6.435-12.192-11.015-16.983c-0.199-0.207-0.398-0.418-0.605-0.621
		c-0.366-0.374-0.748-0.736-1.123-1.103c-5.854-5.491-13.013-9.701-21.256-12.333c-0.924-0.295-1.855-0.546-2.779-0.792
		c-0.47-0.116-0.932-0.235-1.402-0.347l-4.746,26.545C169.503,76.293,175.866,81.736,179.322,88.86z"/>
	<path fill="#454646" d="M207.771,89.398c-0.167-0.765-0.374-1.51-0.565-2.262c-0.176-0.646-0.335-1.287-0.533-1.932l-25.366,9.163
		c0.533,2.166,0.82,4.432,0.82,6.765c0,5.87-1.792,11.317-4.866,15.829l20.619,17.39c5.424-7.107,8.928-15.004,10.441-23.263
		C209.547,104.128,209.387,96.816,207.771,89.398z"/>
	<path fill="#454646" d="M153.948,72.956c0.693,0,1.378,0.032,2.055,0.084l4.755-26.557c-7.828-1.012-15.442-0.423-22.562,1.668
		c-0.167,0.052-0.326,0.107-0.494,0.163c-0.78,0.235-1.545,0.482-2.309,0.753c-6.643,2.421-12.895,6.212-18.509,11.325
		c0,0,0,0-0.009,0c-0.573,0.525-1.106,1.071-1.656,1.608c-0.47,0.475-0.956,0.944-1.418,1.438l20.619,17.395
		C139.485,75.959,146.367,72.956,153.948,72.956z"/>
	<path fill="#454646" d="M125.779,101.133c0-5.869,1.792-11.316,4.866-15.832l-20.619-17.386
		c-5.424,7.107-8.928,15.004-10.441,23.263c-1.227,6.961-1.067,14.272,0.55,21.687c0,0.004,0,0.004,0,0.008
		c0.167,0.761,0.366,1.498,0.565,2.246c0.175,0.649,0.334,1.294,0.533,1.943l25.366-9.163
		C126.066,105.729,125.779,103.463,125.779,101.133z"/>
	<path fill="#454646" d="M147.195,159.411c2.891,0,5.606,0.749,7.972,2.059l5.041-7.574c-3.146-1.879-6.498-3.038-9.923-3.464
		c-0.08-0.012-0.159-0.016-0.239-0.024c-0.374-0.044-0.748-0.079-1.123-0.107c-3.272-0.194-6.642,0.259-9.979,1.398c0,0,0,0-0.008,0
		c-0.335,0.115-0.669,0.25-1.004,0.378c-0.287,0.115-0.581,0.223-0.868,0.351l4.046,8.155
		C142.99,159.837,145.045,159.411,147.195,159.411z"/>
	<path fill="#454646" d="M163.681,175.603l9.095,0.577c0.048-3.27-0.485-6.383-1.545-9.274c-0.048-0.127-0.096-0.251-0.143-0.378
		c-0.088-0.228-0.184-0.45-0.279-0.678c-1.474-3.424-3.743-6.542-6.77-9.187c-0.343-0.298-0.685-0.577-1.035-0.855
		c-0.176-0.136-0.351-0.271-0.533-0.402l-5.042,7.578C161.164,165.945,163.585,170.485,163.681,175.603z"/>
	<path fill="#454646" d="M163.506,178.314c-0.725,4.978-3.664,9.227-7.797,11.723l4.046,8.163c3.631-2.022,6.586-4.738,8.752-7.976
		c1.816-2.74,3.099-5.882,3.783-9.346c0.071-0.354,0.119-0.709,0.175-1.067c0.048-0.303,0.096-0.609,0.136-0.92L163.506,178.314z"/>
	<path fill="#454646" d="M147.195,192.427c-2.899,0-5.615-0.753-7.98-2.062l-5.041,7.573c3.567,2.131,7.398,3.333,11.285,3.596
		c3.281,0.195,6.642-0.259,9.979-1.397c0.351-0.115,0.678-0.251,1.012-0.378c0.287-0.115,0.581-0.224,0.868-0.351l-4.046-8.155
		C151.393,192,149.346,192.427,147.195,192.427z"/>
	<path fill="#454646" d="M134.628,153.633c-2.127,1.191-4.022,2.624-5.671,4.257c0.478,2.564,0.732,5.205,0.732,7.909
		c0,2.596-0.238,5.133-0.677,7.602l1.863,0.119c0.726-4.978,3.672-9.227,7.797-11.723L134.628,153.633z"/>
	<path fill="#454646" d="M130.701,176.231l-2.246-0.14c-0.947,3.91-2.421,7.614-4.349,11.034c1.466,2.975,3.553,5.699,6.236,8.044
		c0.343,0.299,0.685,0.578,1.035,0.853c0.176,0.14,0.358,0.274,0.534,0.41l5.041-7.582
		C133.218,185.888,130.797,181.349,130.701,176.231z"/>
	<path fill="#454646" d="M173.477,121.434c-5.065,4.874-11.938,7.873-19.528,7.873c-0.685,0-1.369-0.032-2.047-0.084l-3.146,17.577
		c7.16,0.382,13.635,3.333,18.533,7.937c1.768-0.431,3.52-0.932,5.232-1.541c6.634-2.422,12.886-6.212,18.5-11.321
		c0.582-0.525,1.123-1.075,1.673-1.617c0.47-0.474,0.947-0.936,1.409-1.433L173.477,121.434z"/>
	<path fill="#454646" d="M131.33,151.371c3.401-2.17,7.271-3.667,11.429-4.293l3.377-18.879
		c-7.733-2.226-14.097-7.669-17.553-14.793l-25.374,9.162c0.581,1.378,1.211,2.716,1.871,4.022
		c9.485,4.583,17.052,12.5,21.177,22.231C127.89,149.751,129.578,150.599,131.33,151.371z"/>
</g>
</svg>
