<?xml version="1.0" encoding="utf-8"?>
<!-- Generator: Adobe Illustrator 16.0.4, SVG Export Plug-In . SVG Version: 6.00 Build 0)  -->
<!DOCTYPE svg PUBLIC "-//W3C//DTD SVG 1.1//EN" "http://www.w3.org/Graphics/SVG/1.1/DTD/svg11.dtd">
<svg version="1.1" id="Layer_1" xmlns="http://www.w3.org/2000/svg" xmlns:xlink="http://www.w3.org/1999/xlink" x="0px" y="0px"
	 width="512px" height="512px" viewBox="0 0 512 512" enable-background="new 0 0 512 512" xml:space="preserve">
<g>
	<g>
		<path fill="#454646" d="M115.595,205.108l-39.081-30.53c-0.039,0.562-0.055,1.127-0.055,1.692
			c0,18.135,17.521,32.836,39.136,32.836c21.615,0,39.136-14.701,39.136-32.836c0-0.565-0.016-1.131-0.055-1.692L115.595,205.108z"
			/>
	</g>
	<path fill="#454646" d="M115.595,46L46.02,76.315l5.567,72.566l64.008,50.007l64.009-50.007l5.566-72.566L115.595,46z
		 M106.42,179.563l-48.51-35.142l-2.803-52.245l51.312,32.031V179.563z M64.99,76.315l50.604-22.049l50.604,22.049l-50.604,30.308
		L64.99,76.315z M173.28,144.422l-48.511,35.142v-55.355l51.313-32.031L173.28,144.422z"/>
</g>
</svg>
