<?xml version="1.0" encoding="utf-8"?>
<!-- Generator: Adobe Illustrator 16.0.4, SVG Export Plug-In . SVG Version: 6.00 Build 0)  -->
<!DOCTYPE svg PUBLIC "-//W3C//DTD SVG 1.1//EN" "http://www.w3.org/Graphics/SVG/1.1/DTD/svg11.dtd">
<svg version="1.1" id="Layer_1" xmlns="http://www.w3.org/2000/svg" xmlns:xlink="http://www.w3.org/1999/xlink" x="0px" y="0px"
	 width="512px" height="512px" viewBox="0 0 512 512" enable-background="new 0 0 512 512" xml:space="preserve">
<g>
	<path fill-rule="evenodd" clip-rule="evenodd" fill="#454646" d="M148.361,244.816c0.051,10.9-9.026,20.113-19.867,20.174
		c-11.08,0.076-20.395-9.266-20.284-20.318c0.111-10.943,9.187-19.9,20.156-19.885C139.301,224.805,148.318,233.83,148.361,244.816z
		"/>
	<path fill="#454646" d="M495.976,312.793c-0.332-4.645-3.597-6.596-7.602-7.977c-9.23-3.17-18.298-6.826-27.63-9.666
		c-4.083-1.234-5.276-3.604-5.812-7.234c-0.904-6.094-2.14-12.137-2.958-18.248c-0.529-3.928-2.148-6.818-5.94-8.25
		c-4.057-1.525-6.843,0.725-9.571,3.256c-9.682,8.992-19.372,17.967-29.088,26.914c-3.972,3.648-8.012,7.211-12.46,11.217
		c-7.355-15.717-14.157-30.674-21.392-45.408c-2.011-4.084-1.67-6.938,0.682-10.748c17.062-27.699,30.622-57.051,40.84-87.938
		c1.321-3.988,1.654-7.721-1.892-10.832c-3.384-2.975-6.742-2.225-10.449-0.461c-15.025,7.135-30.119,14.098-45.204,21.111
		c-6.775,3.154-13.585,6.256-20.685,9.52c-2.122-4.447-3.972-8.275-5.787-12.119c-6.878-14.531-6.801-14.496-0.196-29.395
		c5.702-12.844,11.19-25.771,16.781-38.658c1.525-3.512,1.202-6.734-1.577-9.436c-2.711-2.65-5.881-3.357-9.418-1.602
		c-1.227,0.605-2.514,1.09-3.758,1.67c-27.486,12.826-54.971,25.662-82.465,38.48c-75.81,35.361-151.619,70.703-227.437,106.047
		c-3.52,1.646-6.733,3.494-6.946,8.037c-0.222,4.723,2.702,6.973,6.427,8.957c17.232,9.215,34.457,18.461,51.562,27.922
		c2.208,1.219,4.389,3.383,5.455,5.65c13.986,29.6,27.852,59.258,41.531,89.002c2.045,4.432,5.02,6.904,9.511,8.523
		c38.497,13.891,77.071,27.613,115.32,42.17c10.176,3.869,18.418,3.938,28.534-0.869c71.522-33.998,143.369-67.287,215.13-100.781
		C493.333,319.85,496.3,317.473,495.976,312.793z M360.729,363.98c-31.867,14.863-63.75,29.658-95.574,44.617
		c-3.486,1.635-6.478,2.002-10.219,0.621c-38.13-14.08-76.321-28.006-114.537-41.855c-3.324-1.201-5.335-3.016-6.818-6.238
		c-13.687-29.564-27.451-59.104-41.454-88.533c-1.347-2.848-3.989-5.617-6.733-7.186c-12.367-7.031-24.98-13.609-37.491-20.377
		c-1.432-0.775-2.795-1.695-4.901-2.992c2.242-1.176,3.673-2.002,5.156-2.701c32.608-15.264,65.139-30.682,97.875-45.639
		c6.452-2.949,13.585-4.883,20.607-5.982c13.262-2.072,23.855,3.109,31.491,14.104c7.321,10.535,10.671,22.535,12.588,35.037
		c0.239,1.525,0.367,3.061,0.605,4.586c1.202,7.576,5.949,10.277,12.895,7.082c16.202-7.465,32.343-15.051,48.511-22.586
		c38.548-17.965,77.104-35.932,115.661-53.879c1.219-0.58,2.497-1.041,4.355-1.799c-0.247,1.576-0.213,2.727-0.614,3.699
		c-15.75,38.658-35.079,75.264-63.067,106.635c-18.417,20.65-40.065,36.895-66.588,45.963c-5.147,1.756-7.457,5.848-6.077,10.236
		c1.466,4.654,5.83,6.699,11.242,4.943c23.65-7.662,43.798-21.076,61.431-38.318c3.699-3.613,6-3.52,9.81-0.494
		c16.944,13.439,31.228,29.301,43.748,46.84c0.495,0.691,0.81,1.492,1.662,3.104C376.146,356.711,368.451,360.375,360.729,363.98z
		 M461.561,316.73c-15.035,7.1-30.136,14.062-45.111,21.264c-3.469,1.672-5.31,1.16-6.579-2.496
		c-0.887-2.574-2.233-5.004-3.401-7.475c-4.432-9.436-4.44-9.443,3.401-16.705c8.045-7.457,16.108-14.896,24.188-22.32
		c0.971-0.887,2.088-1.619,3.954-3.051c0.853,4.652,1.79,8.309,2.122,12.025c0.503,5.549,3.452,8.6,8.617,10.184
		c5.199,1.604,10.287,3.562,16.534,5.744C463.487,315.291,462.626,316.229,461.561,316.73z"/>
</g>
</svg>
