<?xml version="1.0" encoding="utf-8"?>
<!-- Generator: Adobe Illustrator 18.1.1, SVG Export Plug-In . SVG Version: 6.00 Build 0)  -->
<svg version="1.1" id="Layer_1" xmlns="http://www.w3.org/2000/svg" xmlns:xlink="http://www.w3.org/1999/xlink" x="0px" y="0px"
	 width="512px" height="512px" viewBox="0 0 512 512" enable-background="new 0 0 512 512" xml:space="preserve">
<path fill="#454646" d="M424.571,220.216H293.143V88.787c0-6.312-5.117-11.429-11.429-11.429h-51.429
	c-6.312,0-11.429,5.117-11.429,11.429v131.429h-68.571V88.787c0-6.312-5.117-11.429-11.429-11.429H87.429
	C81.117,77.359,76,82.475,76,88.787V425.93c0,6.311,5.117,11.429,11.429,11.429h337.143c6.312,0,11.429-5.117,11.429-11.429V231.645
	C436,225.333,430.883,220.216,424.571,220.216z M363.035,352.157c0,6.312-5.117,11.429-11.429,11.429h-47.035
	c-6.312,0-11.428-5.117-11.428-11.429v-47.035c0-6.312,5.117-11.429,11.428-11.429h47.035c6.312,0,11.429,5.117,11.429,11.429
	V352.157z"/>
</svg>
