<?xml version="1.0" encoding="utf-8"?>
<!-- Generator: Adobe Illustrator 18.1.0, SVG Export Plug-In . SVG Version: 6.00 Build 0)  -->
<svg version="1.1" id="Layer_1" xmlns="http://www.w3.org/2000/svg" xmlns:xlink="http://www.w3.org/1999/xlink" x="0px" y="0px"
	 viewBox="0 0 512 512" enable-background="new 0 0 512 512" xml:space="preserve">
<g>
	<path fill="#454646" d="M85,425.357V47.361H64c-11.55,0-21,9.45-21,21v377.996c0,11.55,9.45,21,21,21h378c11.55,0,21-9.45,21-21
		v-21H85z"/>
	<path fill="#454646" d="M421,160.836c-23.16,0-42,18.837-42,41.998c0,3.945,0.584,7.747,1.605,11.367
		c0.279,0.99,0.604,1.958,0.953,2.917l-30.655,39.803c-1.088-0.085-2.184-0.144-3.294-0.144c-0.021,0-0.04,0.003-0.061,0.003
		c-5.624,0.009-10.986,1.141-15.892,3.163c-0.745,0.308-1.47,0.654-2.193,1.001l-21.993-17.77c-0.044-1.491-0.129-2.97-0.315-4.422
		c-2.652-20.624-20.283-36.628-41.618-36.628c-23.158,0-41.999,18.842-41.999,42.001c0,0.269,0.035,0.528,0.04,0.795
		c0.025,1.324,0.123,2.63,0.267,3.921l-60.043,57.058c-1.185-0.237-2.386-0.426-3.605-0.562c-1.529-0.171-3.077-0.273-4.65-0.273
		c-23.159,0-42,18.837-42,41.998c0,23.16,18.841,42.002,42,42.002c23.16,0,42-18.842,42-42.002c0-1.86-0.163-3.679-0.399-5.478
		c-0.139-1.054-0.331-2.092-0.546-3.121l56.965-54.132c0.934,0.279,1.872,0.546,2.832,0.759c2.946,0.657,5.996,1.031,9.136,1.031
		c5.148,0,10.059-0.975,14.62-2.676c0.815-0.305,1.609-0.649,2.399-1.001l23.171,18.72c0.105,1.612,0.27,3.209,0.54,4.771
		c3.413,19.753,20.627,34.844,41.342,34.844c23.159,0,42.001-18.843,42.001-42.001c0-3.39-0.447-6.668-1.208-9.827
		c-0.276-1.145-0.599-2.27-0.966-3.376l31.303-40.836c0.752,0.04,1.5,0.095,2.262,0.095c0.491,0,0.969-0.058,1.456-0.074
		C444.938,243.985,463,225.501,463,202.833C463,179.673,444.16,160.836,421,160.836z M155.547,367.776
		c-11.421,0-20.711-9.29-20.711-20.713c0-11.419,9.29-20.709,20.711-20.709c11.421,0,20.711,9.29,20.711,20.709
		C176.258,358.486,166.968,367.776,155.547,367.776z M244.826,244.126c0-11.423,9.29-20.713,20.711-20.713
		c11.421,0,20.713,9.29,20.713,20.713c0,11.419-9.292,20.709-20.713,20.709C254.116,264.835,244.826,255.545,244.826,244.126z
		 M347.609,319.492c-11.421,0-20.711-9.29-20.711-20.713c0-11.423,9.29-20.713,20.711-20.713c11.421,0,20.713,9.29,20.713,20.713
		C368.322,310.202,359.029,319.492,347.609,319.492z M440.826,208.493c-2.481,8.661-10.38,15.053-19.826,15.053
		c-11.421,0-20.711-9.29-20.711-20.713c0-7.408,3.94-13.868,9.804-17.528c3.176-1.983,6.894-3.181,10.906-3.181
		c11.421,0,20.711,9.29,20.711,20.709C441.711,204.808,441.345,206.683,440.826,208.493z"/>
</g>
</svg>
