<?xml version="1.0" encoding="utf-8"?>
<!-- Generator: Adobe Illustrator 18.1.1, SVG Export Plug-In . SVG Version: 6.00 Build 0)  -->
<svg version="1.1" id="Layer_1" xmlns="http://www.w3.org/2000/svg" xmlns:xlink="http://www.w3.org/1999/xlink" x="0px" y="0px"
	 width="512px" height="512px" viewBox="0 0 512 512" enable-background="new 0 0 512 512" xml:space="preserve">
<g id="_x33_e91140ac1bfb9903b91c1b0ca09248f">
	<path fill="#454646" d="M117.634,257.704c0,14.251-11.564,25.811-25.816,25.811c-14.252,0-25.818-11.56-25.818-25.811
		c0-14.25,11.566-25.81,25.818-25.81C106.07,231.894,117.634,243.454,117.634,257.704z M256.346,118.991
		c14.25,0,25.816-11.564,25.816-25.815c0-14.252-11.566-25.818-25.816-25.818s-25.815,11.566-25.815,25.818
		C230.531,107.427,242.096,118.991,256.346,118.991z M371.998,167.868c14.253,0,25.819-11.566,25.819-25.817
		c0-14.25-11.566-25.816-25.819-25.816c-14.25,0-25.816,11.566-25.816,25.816C346.182,156.302,357.748,167.868,371.998,167.868z
		 M140.004,348.232c-14.252,0-25.811,11.559-25.811,25.813c0,14.25,11.559,25.822,25.811,25.822
		c14.25,0,25.816-11.572,25.816-25.822C165.82,359.791,154.255,348.232,140.004,348.232z M420.185,231.894
		c-4.843,0-9.358,1.361-13.236,3.686c-19.743-11.928-52.498-30.105-99.29-51.007c-55.534-24.825-111.049-38.797-141.949-45.364
		c-1.096-13.243-12.182-23.665-25.706-23.665c-14.252,0-25.811,11.566-25.811,25.818c0,14.25,11.559,25.816,25.811,25.816
		c5.393,0,10.404-1.664,14.547-4.498c16.427,13.062,41.589,39.466,64.563,89.867c26.245,57.588,32.267,112.566,33.314,143.509
		c-12.388,1.896-21.898,12.58-21.898,25.494c0,14.25,11.566,25.81,25.815,25.81c14.25,0,25.816-11.56,25.816-25.81
		c0-9.228-4.861-17.305-12.147-21.876c-0.6-31.608-6.185-90.894-35.095-154.329c-13.049-28.641-26.842-50.122-39.676-66.139
		c20.583,11.671,44.977,27.334,70.411,47.624c47.982,38.269,77.429,93.782,91.401,125.508c-6.569,4.679-10.874,12.342-10.874,21.02
		c0,14.25,11.566,25.81,25.816,25.81c14.253,0,25.819-11.56,25.819-25.81c0-13.545-10.456-24.638-23.728-25.705
		c-14.127-32.922-45.045-92.492-97.599-134.412c-23.106-18.424-45.249-33.123-64.651-44.573
		c26.705,7.584,57.916,17.997,88.728,31.768c44.13,19.716,75.753,37.128,95.263,48.79c-0.924,2.659-1.457,5.504-1.457,8.48
		c0,14.251,11.567,25.811,25.81,25.811c14.253,0,25.815-11.56,25.815-25.811C446.001,243.454,434.438,231.894,420.185,231.894z"/>
</g>
</svg>
