<?xml version="1.0" encoding="utf-8"?>
<!-- Generator: Adobe Illustrator 16.0.4, SVG Export Plug-In . SVG Version: 6.00 Build 0)  -->
<!DOCTYPE svg PUBLIC "-//W3C//DTD SVG 1.1//EN" "http://www.w3.org/Graphics/SVG/1.1/DTD/svg11.dtd">
<svg version="1.1" id="Layer_1" xmlns="http://www.w3.org/2000/svg" xmlns:xlink="http://www.w3.org/1999/xlink" x="0px" y="0px"
	 width="512px" height="512px" viewBox="0 0 512 512" enable-background="new 0 0 512 512" xml:space="preserve">
<g>
	<path fill-rule="evenodd" clip-rule="evenodd" fill="#454646" d="M345.035,158.418l-40.066,69.528c0,0,2.308,1.375,3.416,1.805
		c17.722,6.912,28.885,19.899,35.078,37.577c3.748,10.698,4.629,21.725,4.368,32.963c-0.444,19.257-6.354,36.443-19.183,50.941
		c-7.539,8.525-17.121,13.761-28.307,15.908c-10.549,2.024-20.816,0.964-30.731-3.179c-9.403-3.931-16.759-10.445-22.787-18.519
		c-5.124-6.856-8.859-14.451-11.614-23.017c7.52-3.158,14.909-6.262,22.51-9.46c1.32,2.652,2.469,5.188,3.804,7.615
		c3.62,6.576,8.104,12.449,14.853,16.085c5.635,3.035,11.587,4.581,18.095,2.987c5.626-1.374,9.688-4.812,12.963-9.311
		c5.371-7.362,8.257-15.641,9.411-24.712c1.195-9.42,0.779-18.621-1.777-27.732c-3.893-13.864-12.973-21.978-27.091-24.72
		c-5.284-1.025-15.853-0.78-15.853-0.78h-5.441c0,0-1.078-11.689,2.283-17.22c6.879-11.327,35.827-62.302,35.827-62.302h-45.684
		c0,0-54.367,178.691-58.011,190.976c-0.391,1.319-0.865,2.612-1.203,3.63c-0.937,0.636-1.635,0.499-2.324,0.417
		c-1.579-2.434-42.137-136.685-42.137-136.685s-27.246,91.219-40.646,136.077c-1.269,0.834-1.959,0.71-2.637,0.594
		c-1-0.643-66.15-223.09-66.15-223.09h28.674l39.734,134.039l26.877-89.633l-13.065-44.406h28.956L196.873,279.4
		c0,0,34.672-116.478,39.26-132.104c0.149-0.52,0.695-2.502,3.539-2.502c33.982-0.007,105.363,0,105.363,0V158.418z"/>
	<path fill-rule="evenodd" clip-rule="evenodd" fill="#454646" d="M443.52,175.692c5.486-10.848,10.641-21.033,16.106-31.828
		c0.472,1.559,0.868,2.495,1.032,3.466c1.199,7.15,2.365,14.294,3.503,21.452c0.307,1.927,0.362,3.766-0.649,5.667
		c-4.983,9.352-9.83,18.772-14.731,28.165c-0.191,0.369-0.431,0.71-0.763,1.251c-3.661-6.495-7.498-12.277-12.625-17.145
		c-2.967-2.81-6.18-5.264-9.779-7.123c-9.402-4.86-18.631-4.102-27.333,1.674c-9.752,6.467-16.174,15.688-20.364,26.441
		c-6.57,16.858-9.321,34.378-8.279,52.459c0.186,3.172,1.012,6.31,0.634,9.584c-1.293-0.369-1.378-1.422-1.713-2.296
		c-6.039-15.894-8.224-32.314-6.966-49.267c0.689-9.352,1.934-18.587,4.71-27.549c3.534-11.402,8.339-22.176,16.491-31.172
		c2.837-3.131,6.006-5.831,9.602-8.012c8.381-5.079,17.126-5.455,26.021-1.586c6.642,2.885,12.147,7.314,16.625,13.029
		C438.048,166.738,440.629,170.867,443.52,175.692z"/>
	<path fill-rule="evenodd" clip-rule="evenodd" fill="#454646" d="M461.96,304.537c1.45,7.43,2.707,13.822,3.932,20.227
		c0.231,1.237,0.108,2.42-0.524,3.63c-6.617,12.742-15.582,23.488-27.604,31.397c-16.146,10.616-38.462,9.488-54.393-4.266
		c-10.097-8.715-17.507-19.414-23.379-31.288c-2.844-5.742-5.072-11.71-7-17.821c0.916-0.841,1.54-0.239,2.002,0.499
		c1.398,2.249,2.748,4.532,4.088,6.815c5.9,10.049,13.81,18.211,23.523,24.568c9.461,6.187,19.934,8.703,31.106,7.035
		c9.424-1.401,17.75-5.579,25.099-11.676c8.37-6.938,15.166-15.169,20.449-24.658C459.934,307.797,460.688,306.642,461.96,304.537z"
		/>
</g>
</svg>
