<?xml version="1.0" encoding="utf-8"?>
<!-- Generator: Adobe Illustrator 19.2.1, SVG Export Plug-In . SVG Version: 6.00 Build 0)  -->
<svg version="1.1" id="Work_area" xmlns="http://www.w3.org/2000/svg" xmlns:xlink="http://www.w3.org/1999/xlink" x="0px" y="0px"
	 width="512px" height="512px" viewBox="0 0 512 512" enable-background="new 0 0 512 512" xml:space="preserve">
<g>
	<path fill="#454646" d="M68.6,130.5c2.8-4.8,15.4-17.1,24.5-23.9c15-11.2,22.1-15.5,27.6-16.7c3.9-0.8,10.3,0,14.6,1.2
		c2,0.8,5.1,2.4,7.1,3.6c11,7.6,42.2,47.4,52.1,67.3c5.9,11.5,7.9,19.9,5.9,25.9c-2,6.8-5.1,10.4-18.9,21.5
		c-5.5,4.4-10.7,9.2-11.4,10.4c-2,3.2-3.9,9.2-3.9,13.1c0,10,6.3,27.9,14.6,41.4c6.3,10.8,17.8,24.3,29.2,35
		c13.4,12.3,25.3,20.7,38.7,27.5c17,8.8,27.6,10.8,35.1,7.2c2-0.8,3.9-2,4.7-2.8c0.4-0.4,5.1-6,9.9-12.3
		c9.5-11.9,11.4-13.9,18.2-16.3c8.3-2.8,16.6-2,25.3,2.4c6.3,3.2,20.5,12.3,29.6,18.7c11.8,8.4,37.5,29.5,41,33.5
		c5.9,7.6,7.1,17.1,3.2,27.9c-4.3,11.2-21.3,32.3-32.7,41.4c-10.7,8-18.2,11.2-28,11.5c-8.3,0.4-11.4-0.4-22.1-4.8
		c-82.1-34.2-147.6-85.2-199.7-155.3c-27.2-36.6-47.7-74.5-61.9-113.9C62.3,152,61.9,142.1,68.6,130.5z"/>
	<g>
		<path fill="#454646" d="M269.4,133.1c14.8,0,29.1,2.9,42.6,8.6c13,5.5,24.8,13.4,34.8,23.5c10.1,10.1,17.9,21.8,23.5,34.8
			c5.7,13.5,8.6,27.8,8.6,42.7c0,0.3,0,0.6,0,0.9h24.4c0-0.3,0-0.6,0-0.9c0-74-60-134-133.9-134c-0.4,0-0.8,0-1.3,0v24.5
			C268.5,133.1,269,133.1,269.4,133.1z"/>
		<path fill="#454646" d="M269.4,177.8c17.3,0,33.6,6.8,45.9,19c12.3,12.3,19,28.5,19,45.9c0,0.3,0,0.6,0,0.9h24.4
			c0-0.3,0-0.6,0-0.9c0-49.3-40-89.3-89.3-89.3c-0.4,0-0.8,0-1.3,0v24.5C268.5,177.8,269,177.8,269.4,177.8z"/>
		<path fill="#454646" d="M269.4,88.4c20.8,0,41,4.1,60,12.1c18.4,7.8,34.8,18.9,49,33.1c14.2,14.2,25.3,30.7,33,49
			c8,19,12.1,39.2,12.1,60.1c0,0.3,0,0.6,0,0.9H448c0-0.3,0-0.6,0-0.9C448,144,368.1,64,269.5,64c-0.4,0-0.8,0-1.3,0v24.5
			C268.5,88.4,269,88.4,269.4,88.4z"/>
	</g>
</g>
</svg>
