<?xml version="1.0" encoding="utf-8"?>
<!-- Generator: Adobe Illustrator 16.0.4, SVG Export Plug-In . SVG Version: 6.00 Build 0)  -->
<!DOCTYPE svg PUBLIC "-//W3C//DTD SVG 1.1//EN" "http://www.w3.org/Graphics/SVG/1.1/DTD/svg11.dtd">
<svg version="1.1" id="Layer_1" xmlns="http://www.w3.org/2000/svg" xmlns:xlink="http://www.w3.org/1999/xlink" x="0px" y="0px"
	 width="512px" height="512px" viewBox="0 0 512 512" enable-background="new 0 0 512 512" xml:space="preserve">
<g>
	<path fill="#454646" d="M312.898,180.367c0,5.069-4.144,9.219-9.218,9.219H25.211c-5.064,0-9.211-4.15-9.211-9.219v-45.65
		c0-5.069,4.146-9.22,9.211-9.22h278.47c5.074,0,9.218,4.151,9.218,9.22V180.367z"/>
	<path fill="#454646" d="M312.898,278.657c0,5.069-4.144,9.22-9.218,9.22H25.211c-5.064,0-9.211-4.15-9.211-9.22v-45.649
		c0-5.074,4.146-9.221,9.211-9.221h278.47c5.074,0,9.218,4.147,9.218,9.221V278.657z"/>
	<rect x="292.444" y="321.737" fill="#454646" width="203.556" height="64.766"/>
	<g>
		<g>
			<path fill="#454646" d="M263.364,322.082H25.211c-5.064,0-9.211,4.146-9.211,9.215v45.649c0,5.069,4.146,9.22,9.211,9.22h238.153
				V322.082z"/>
		</g>
	</g>
</g>
</svg>
