<?xml version="1.0" encoding="utf-8"?>
<!-- Generator: Adobe Illustrator 19.1.0, SVG Export Plug-In . SVG Version: 6.00 Build 0)  -->
<svg version="1.1" id="Ebene_1" xmlns="http://www.w3.org/2000/svg" xmlns:xlink="http://www.w3.org/1999/xlink" x="0px" y="0px"
	 width="512px" height="512px" viewBox="0 0 512 512" enable-background="new 0 0 512 512" xml:space="preserve">
<path fill="#454646" d="M339.9,96H173.3c-6.6,0-12,5.4-12,12v296c0,6.6,5.4,12,12,12h166.5c6.6,0,12-5.4,12-12V108
	C351.9,101.4,346.5,96,339.9,96z M231.5,116.7c0-2,0-2,0-2c2-0.9,9-1.6,15.6-1.6H266c6.6,0,13.6,0.7,15.6,1.6c0,0,0,0,0,2
	c0,2,0,2,0,2c-2,0.9-9,1.6-15.6,1.6h-18.9c-6.6,0-13.6-0.7-15.6-1.6C231.5,118.7,231.5,118.7,231.5,116.7z M269.1,393.6
	c0,6.6-5.4,12-12,12H256c-6.6,0-12-5.4-12-12v-1.1c0-6.6,5.4-12,12-12h1.1c6.6,0,12,5.4,12,12V393.6z M332.4,352.3
	c0,6.6-5.4,12-12,12H192.8c-6.6,0-12-5.4-12-12V207.7c0-6.6,5.4-12,12-12h127.6c6.6,0,12,5.4,12,12V352.3z M332.4,161.8
	c0,6.6-5.4,12-12,12H192.8c-6.6,0-12-5.4-12-12v-9c0-6.6,5.4-12,12-12h127.6c6.6,0,12,5.4,12,12V161.8z"/>
</svg>
