<?xml version="1.0" encoding="utf-8"?>
<!-- Generator: Adobe Illustrator 16.0.4, SVG Export Plug-In . SVG Version: 6.00 Build 0)  -->
<!DOCTYPE svg PUBLIC "-//W3C//DTD SVG 1.1//EN" "http://www.w3.org/Graphics/SVG/1.1/DTD/svg11.dtd">
<svg version="1.1" id="Layer_1" xmlns="http://www.w3.org/2000/svg" xmlns:xlink="http://www.w3.org/1999/xlink" x="0px" y="0px"
	 width="512px" height="512px" viewBox="0 0 512 512" enable-background="new 0 0 512 512" xml:space="preserve">
<g>
	<path fill="#454646" d="M46,137.776v236.445h28.653V137.776H46z M60.325,365.766c-2.563,0-4.644-2.08-4.644-4.644
		s2.08-4.644,4.644-4.644s4.643,2.08,4.643,4.644S62.889,365.766,60.325,365.766z M60.325,155.527c-2.563,0-4.644-2.08-4.644-4.644
		s2.08-4.643,4.644-4.643s4.643,2.079,4.643,4.643S62.889,155.527,60.325,155.527z"/>
	<path fill="#454646" d="M437.346,137.776v236.445H466V137.776H437.346z M451.671,365.766c-2.563,0-4.644-2.08-4.644-4.644
		s2.08-4.644,4.644-4.644c2.567,0,4.644,2.08,4.644,4.644S454.238,365.766,451.671,365.766z M451.671,155.527
		c-2.563,0-4.644-2.08-4.644-4.644s2.08-4.643,4.644-4.643c2.567,0,4.644,2.079,4.644,4.643S454.238,155.527,451.671,155.527z"/>
	<path fill="#454646" d="M81.889,137.776v236.445h348.223V137.776H81.889z M116.008,194.182H99.499v-16.51h16.509V194.182z
		 M116.008,171.118H99.499v-16.51h16.509V171.118z M220.801,356.777h-64.918v-2.563h64.918V356.777z M220.801,346.636h-64.918
		v-2.571h64.918V346.636z M220.801,336.503h-64.918v-2.571h64.918V336.503z M220.801,326.361h-64.918v-2.571h64.918V326.361z
		 M220.801,316.221h-64.918v-2.563h64.918V316.221z M220.801,306.08h-64.918v-2.564h64.918V306.08z M220.801,295.946h-64.918v-2.571
		h64.918V295.946z M220.801,285.806h-64.918v-2.571h64.918V285.806z M220.801,275.664h-64.918v-2.563h64.918V275.664z
		 M220.801,238.293h-64.918v-2.572h64.918V238.293z M220.801,228.159h-64.918v-2.571h64.918V228.159z M220.801,218.019h-64.918
		v-2.571h64.918V218.019z M220.801,207.877h-64.918v-2.563h64.918V207.877z M220.801,197.736h-64.918v-2.563h64.918V197.736z
		 M220.801,187.604h-64.918v-2.572h64.918V187.604z M220.801,177.462h-64.918v-2.571h64.918V177.462z M220.801,167.321h-64.918
		v-2.563h64.918V167.321z M220.801,157.18h-64.918v-2.571h64.918V157.18z M303.348,356.777h-64.917v-2.563h64.917V356.777z
		 M303.348,346.636h-64.917v-2.571h64.917V346.636z M303.348,336.503h-64.917v-2.571h64.917V336.503z M303.348,326.361h-64.917
		v-2.571h64.917V326.361z M303.348,316.221h-64.917v-2.563h64.917V316.221z M303.348,306.08h-64.917v-2.564h64.917V306.08z
		 M303.348,295.946h-64.917v-2.571h64.917V295.946z M303.348,285.806h-64.917v-2.571h64.917V285.806z M303.348,275.664h-64.917
		v-2.563h64.917V275.664z M303.348,238.293h-64.917v-2.572h64.917V238.293z M303.348,228.159h-64.917v-2.571h64.917V228.159z
		 M303.348,218.019h-64.917v-2.571h64.917V218.019z M303.348,207.877h-64.917v-2.563h64.917V207.877z M303.348,197.736h-64.917
		v-2.563h64.917V197.736z M303.348,187.604h-64.917v-2.572h64.917V187.604z M303.348,177.462h-64.917v-2.571h64.917V177.462z
		 M303.348,167.321h-64.917v-2.563h64.917V167.321z M303.348,157.18h-64.917v-2.571h64.917V157.18z M373.033,356.785H345.17v-83.685
		h27.863V356.785z M373.033,238.301H345.17v-83.692h27.863V238.301z M408.374,356.785H380.51v-83.685h27.864V356.785z
		 M408.374,238.301H380.51v-83.692h27.864V238.301z"/>
	<rect x="101.562" y="179.735" fill="#454646" width="12.382" height="12.382"/>
	<rect x="351.103" y="279.913" fill="#454646" width="15.998" height="26.933"/>
	<rect x="351.103" y="161.42" fill="#454646" width="15.998" height="26.933"/>
	<rect x="386.443" y="161.42" fill="#454646" width="15.998" height="26.933"/>
	<rect x="386.443" y="279.913" fill="#454646" width="15.998" height="26.933"/>
</g>
</svg>
