<?xml version="1.0" encoding="utf-8"?>
<!-- Generator: Adobe Illustrator 19.2.0, SVG Export Plug-In . SVG Version: 6.00 Build 0)  -->
<svg version="1.1" id="Layer_1" xmlns="http://www.w3.org/2000/svg" xmlns:xlink="http://www.w3.org/1999/xlink" x="0px" y="0px"
	 width="512px" height="512px" viewBox="0 0 512 512" enable-background="new 0 0 512 512" xml:space="preserve">
<g>
	<g>
		<path fill="#454646" d="M465.631,62.734H153.857c-0.205,0-0.369,0.15-0.369,0.15v100.174h24.616V87.357H441.38v173.216h-69.033
			v22.647h0.082l66.165,48.371l-14.663-48.371h41.699c0.205,0,0.369-0.15,0.369-0.335V63.069
			C465.999,63.069,465.836,62.734,465.631,62.734z"/>
		<g>
			<g>
				<path fill="#454646" d="M358.143,176.115H46.369c-0.205,0-0.369,0.15-0.369,0.15V396.26c0,0.178,0.164,0.335,0.369,0.335h41.699
					l-28.215,52.671l79.717-52.671h218.572c0.205,0,0.369-0.157,0.369-0.335V176.443
					C358.511,176.443,358.348,176.115,358.143,176.115z"/>
			</g>
		</g>
	</g>
</g>
</svg>
