<?xml version="1.0" encoding="utf-8"?>
<!-- Generator: Adobe Illustrator 18.0.0, SVG Export Plug-In . SVG Version: 6.00 Build 0)  -->
<!DOCTYPE svg PUBLIC "-//W3C//DTD SVG 1.1//EN" "http://www.w3.org/Graphics/SVG/1.1/DTD/svg11.dtd">
<svg version="1.1" id="Layer_1" xmlns="http://www.w3.org/2000/svg" xmlns:xlink="http://www.w3.org/1999/xlink" x="0px" y="0px"
	 width="512px" height="512px" viewBox="0 0 512 512" enable-background="new 0 0 512 512" xml:space="preserve">
<g id="Work_area">
	<path fill="#454646" d="M256,66C151.1,66,66,151.1,66,256c0,83.9,54.4,155.1,129.9,180.3c9.5,1.7,13-4.1,13-9.2
		c0-4.5-0.2-16.5-0.3-32.3c-52.9,11.5-64-25.5-64-25.5c-8.6-21.9-21.1-27.8-21.1-27.8c-17.3-11.8,1.3-11.5,1.3-11.5
		c19.1,1.3,29.1,19.6,29.1,19.6c16.9,29,44.5,20.7,55.3,15.8c1.7-12.3,6.6-20.7,12.1-25.4c-42.2-4.8-86.5-21.1-86.5-93.9
		c0-20.7,7.4-37.7,19.6-51c-2-4.8-8.5-24.1,1.9-50.3c0,0,16-5.1,52.2,19.5c15.2-4.2,31.4-6.3,47.6-6.4c16.1,0.1,32.4,2.2,47.6,6.4
		c36.3-24.6,52.2-19.5,52.2-19.5c10.4,26.2,3.8,45.5,1.9,50.3c12.2,13.3,19.5,30.2,19.5,51c0,73-44.4,89-86.7,93.8
		c6.8,5.9,12.9,17.5,12.9,35.2c0,25.4-0.2,45.9-0.2,52.1c0,5.1,3.4,11,13.1,9.1C391.6,411.1,446,339.9,446,256
		C446,151.1,360.9,66,256,66z"/>
</g>
</svg>
