<?xml version="1.0" encoding="utf-8"?>
<!-- Generator: Adobe Illustrator 18.1.1, SVG Export Plug-In . SVG Version: 6.00 Build 0)  -->
<svg version="1.1" id="Ebene_1" xmlns="http://www.w3.org/2000/svg" xmlns:xlink="http://www.w3.org/1999/xlink" x="0px" y="0px"
	 width="512px" height="512px" viewBox="0 0 512 512" enable-background="new 0 0 512 512" xml:space="preserve">
<g>
	<g>
		<path fill="#454646" d="M75.8,328.3h30.5V183.7H75.8c-5.4,0-9.8,3.9-9.8,8.8v126.9C66,324.3,70.4,328.3,75.8,328.3z"/>
		<path fill="#454646" d="M436.2,183.7H224.6v144.6h211.5c5.4,0,9.8-3.9,9.8-8.8V192.5C446,187.7,441.6,183.7,436.2,183.7z"/>
	</g>
	<polygon fill="#454646" points="178.7,141.4 178.7,141 185.8,135.5 234.6,135.5 234.6,108.6 178.7,108.6 169.9,119.2 160.6,119.2 
		151.8,108.6 95.9,108.6 95.9,135.5 144.7,135.5 151.8,140.5 151.8,141.4 151.8,370.6 151.8,371 144.7,376.5 95.9,376.5 95.9,403.4 
		151.8,403.4 160.6,392.8 169.9,392.8 178.7,403.4 234.6,403.4 234.6,376.5 185.8,376.5 178.7,371.5 178.7,370.6 	"/>
</g>
</svg>
