<?xml version="1.0" encoding="utf-8"?>
<!-- Generator: Adobe Illustrator 19.2.1, SVG Export Plug-In . SVG Version: 6.00 Build 0)  -->
<svg version="1.1" id="Work_area" xmlns="http://www.w3.org/2000/svg" xmlns:xlink="http://www.w3.org/1999/xlink" x="0px" y="0px"
	 width="512px" height="512px" viewBox="0 0 512 512" enable-background="new 0 0 512 512" xml:space="preserve">
<path fill="#454646" d="M256,64C150,64,64,150,64,256c0,106,86,192,192,192c106,0,192-86,192-192C448,150,362,64,256,64z M189.7,256
	c0-36.6,29.8-66.3,66.3-66.3s66.3,29.8,66.3,66.3s-29.8,66.3-66.3,66.3S189.7,292.6,189.7,256z M223.1,100.9v37.3l-28.4-28.4
	C203.8,106,213.3,103,223.1,100.9z M169.6,123l45.7,45.7c-8.6,4-16.5,9.3-23.5,15.5L147.7,140C154.5,133.7,161.8,128,169.6,123z
	 M129.4,160.1l44.9,44.9c-5.2,8.3-9.2,17.5-11.7,27.4L114.3,184C118.6,175.5,123.7,167.5,129.4,160.1z M103.4,211.3l57.1,57.1
	c2,15.9,7.9,30.5,16.7,43l-6.4,6.4l-73.4-73.4C98.2,232.9,100.2,221.9,103.4,211.3z M132.6,355.9c-16.5-20.2-28.1-44.5-33-71.1
	l52.1,52.1L132.6,355.9z M256,414.5c-37.8,0-72.5-13.2-99.8-35.2l44.5-44.5c15.7,11,34.8,17.5,55.4,17.5c41.4,0,76.8-26.2,90.4-62.9
	l65.2,0C396.1,360.9,332.2,414.5,256,414.5z"/>
</svg>
