<?xml version="1.0" encoding="utf-8"?>
<!-- Generator: Adobe Illustrator 18.1.0, SVG Export Plug-In . SVG Version: 6.00 Build 0)  -->
<svg version="1.1" id="Layer_1" xmlns="http://www.w3.org/2000/svg" xmlns:xlink="http://www.w3.org/1999/xlink" x="0px" y="0px"
	 viewBox="0 0 512 512" enable-background="new 0 0 512 512" xml:space="preserve">
<g>
	<g>
		<polygon fill="#454646" points="261.079,174.33 336.937,250.188 442.907,144.217 367.049,68.359 339.493,95.916 377.422,133.845 
			363.975,147.292 326.046,109.363 302.082,133.325 323.697,154.94 310.25,168.387 288.636,146.772 		"/>
		<polygon fill="#454646" points="170.058,265.35 142.501,292.908 164.116,314.523 150.669,327.969 129.054,306.355 
			103.912,331.496 141.841,369.425 128.395,382.872 90.466,344.943 62.908,372.5 138.767,448.359 245.916,341.209 		"/>
	</g>
</g>
<g>
	<g>
		<polygon fill="#454646" points="381.549,345.065 399.391,327.25 150.477,77.985 132.461,95.974 		"/>
	</g>
	<g>
		<polygon fill="#454646" points="348.316,378.267 373.881,352.73 125.142,103.293 99.568,128.826 		"/>
	</g>
	<g>
		<path fill="#454646" d="M389.084,428.116l54.35,20.21l-20.613-55.779c0,0-16.14,1.421-22.04,13.337
			C392.755,422.111,389.084,428.116,389.084,428.116z"/>
	</g>
	<g>
		<path fill="#454646" d="M392.899,398.261c-6.639,13.417-11.099,21.73-13.597,26.224L331.79,406.82l70.323-70.322l16.356,44.264
			C411.535,382.299,398.659,386.635,392.899,398.261z"/>
	</g>
	<g>
		<polygon fill="#454646" points="323.009,403.603 340.849,385.783 91.936,136.527 73.919,154.518 		"/>
	</g>
	<g>
		<path fill="#454646" d="M71.193,146.758l-5.133-5.136c0,0-3.156-15.304,25.999-44.407c29.152-29.109,44.441-25.922,44.441-25.922
			l5.072,5.089L71.193,146.758z"/>
	</g>
</g>
</svg>
