<?xml version="1.0" encoding="utf-8"?>
<!-- Generator: Adobe Illustrator 16.0.4, SVG Export Plug-In . SVG Version: 6.00 Build 0)  -->
<!DOCTYPE svg PUBLIC "-//W3C//DTD SVG 1.1//EN" "http://www.w3.org/Graphics/SVG/1.1/DTD/svg11.dtd">
<svg version="1.1" id="Layer_1" xmlns="http://www.w3.org/2000/svg" xmlns:xlink="http://www.w3.org/1999/xlink" x="0px" y="0px"
	 width="512px" height="512px" viewBox="0 0 512 512" enable-background="new 0 0 512 512" xml:space="preserve">
<path fill="#454646" d="M429.035,253.26c0,0-6.056-7.206-6.902-16.32c-0.847-9.121,3.392-5.938,3.392-5.938s-1.7-12.09-10.183-22.48
	c-8.477-10.391-17.598-22.689-21.628-39.018c-4.03-16.328-11.445-25.865-16.536-32.441c-5.092-6.576-7.214-19.512-10.183-24.172
	c-2.969-4.67-3.392-30.431-24.805-42.254c-21.419-11.823-60.437,1.751-71.888,9.804c-11.453,8.061-21.843,31.388-35.625,40.933
	c-13.783,9.537-25.02,9.752-36.048,28.627c-11.021,18.865-13.36,29.68-12.826,40.709c0,0-7.957,0.957-8.906-3.496
	c-0.957-4.453,2.227-19.408,4.453-23.861c0,0,2.227,1.914,1.908,3.822c0,0,6.68-13.679,2.545-21.947c0,0,2.227,0.475,3.34,1.588
	c0,0,2.702-12.883,2.702-21.307c0-8.432-3.184-14.955-8.75-18.771c0,0,4.142-5.403-0.475-11.287c0,0-2.064-4.729-7.474-10.317
	c-5.403-5.589-9.545-8.773-15.111-8.609c0,0,0.958-2.071,1.916-3.34c0,0-4.617,0.541-6.205,2.656c0,0-2.545-1.543-3.021-5.202
	c0,0-4.453,1.269-4.936,4.453c0,0-9.804-3.34-13.99,7.317c0,0,1.589,0.631,2.064,1.744c0,0-1.433,3.185-7.63,3.659
	c-6.205,0.477-24.018,0-29.42,1.907c-5.411,1.909-7.637,3.822-7.637,6.049c0,0-2.702,1.271-3.979,7.155c0,0-4.23,2.064-4.23,5.723
	s2.323,2.598,2.323,2.598s-2.546,7.266,6.36,7.74c0,0,1.433,3.66,9.07,3.66c7.63,0,13.197,1.27,16.38,6.041
	c0,0-2.545,9.545-12.565,18.287c0,0,2.227,0.32,4.453,0.164c0,0-8.751,7.311-10.978,17.969c0,0,3.029-3.021,4.773-2.865
	c0,0-10.97,30.377,4.297,60.437c0,0,1.432-3.021,2.063-3.34c0,0-0.631,10.183,5.566,18.133c0,0,0.482-4.453,2.865-6.043
	c0,0,9.531,17.33,19.32,25.123c9.782,7.793,24.737,11.452,28.077,19.402c0,0,5.248-5.863,5.248-9.686c0,0,1.432,3.643,0.95,7.459
	c0,0,5.886-2.857,7.793-4.447c1.908-1.596,10.183-7.316,11.296,1.908c1.113,9.219-8.164,27.669,0.32,50.572
	c0,0-2.969,4.172-2.969,9.716c0,5.552,4.237,8.306,4.237,10.851c0,2.546-1.907,7.215-1.907,12.091s4.453,12.669,0.423,30.082
	c-4.03,17.41-5.723,22.08-8.061,25.049c-2.33,2.969-11.452,8.059-9.752,16.543c0,0-21.412,2.754-21.204,10.176
	c0.215,7.422,11.028,9.736,23.958,9.736c12.937,0,16.314-2.738,16.744-7.406c0.438-4.662-2.977-5.516,0-8.268
	c2.984-2.754,6.16-5.938,5.737-17.598c-0.423-11.668,5.3-22.48,5.3-22.48s-1.062-9.969,2.338-16.114
	c3.391-6.152,12.506-18.235,6.361-36.687c0,0,1.692,0.639,3.814,0.847c0,0-3.606-10.176,2.969-22.475
	c6.576-12.297,9.968-37.324,9.968-37.324s15.052,1.277,21.627,0c0,0-14.42,30.223-12.936,52.978c0,0-3.607,3.645-3.607,7.675
	c0,4.022,2.123,9.113,5.729,12.721c3.608,3.6,15.483,10.813,22.051,18.658c6.576,7.847,11.029,16.536,12.936,18.874
	c0,0-6.145,4.031-4.453,10.391c0,0-6.152,1.908-5.514,7.207c0,0-8.907,0.215-13.568,4.246c-4.668,4.021-6.998,9.328-2.76,11.021
	c4.245,1.699,19.936,1.699,25.234,1.699c5.299,0,11.452-4.029,11.875-6.783c0.423-2.762-1.908-9.545-1.908-9.545
	s3.185,0.424,4.453-3.393c0,0,5.938,22.051,15.052,21.412c0,0,1.276-0.207,1.484-2.115c0,0,4.245,1.055,6.368-1.061
	c2.115-2.123,7.207-32.018-10.813-32.449c0,0,1.269-2.969-2.123-5.084c-3.392-2.121,29.688-43.893,33.502-47.5
	c0,0-4.668-37.317,4.668-55.346c9.329-18.021,16.959-30.326,16.959-30.326s1.908,40.079,20.144,70.828c0,0,3.392,4.669,2.545,10.391
	c-0.846,5.723-3.176,8.691-3.176,15.905c0,7.207,5.299,26.296,0.207,47.077c-1.017,4.164-11.236,16.537-7.629,26.711
	c0,0-8.482,4.885-8.482,11.244c0,6.361,3.813,7.631,6.575,7.631c2.753,0,4.238-2.754,5.722-2.754s3.607,4.03,10.391,4.03
	c6.784,0,12.721-5.515,12.721-8.698c0-3.178-5.514-8.484-5.514-8.484s3.606-3.391,3.606-7.629c0-4.246-5.722-11.236-5.722-20.143
	s1.855-26.2,5.299-33.719c6.888-15.059,6.146-27.038,2.123-30.214c0,0,2.115-9.648,2.115-19.832c0-10.176-7.845-37.428-1.27-64.883
	c0,0,7.845-11.452,9.545-29.479c0,0,14.206,28.843,3.6,48.984c-10.598,20.144-8.482,19.937-8.691,26.081
	c-0.215,6.152,2.969,14.637,2.969,14.637l9.656-9.76c0,0-0.119-6.784,4.55-11.661c4.668-4.876,8.06-18.116,5.938-21.774
	c0,0,2.33,1.633,3.391,2.478c0,0,1.7-6.36-1.484-15.688C421.917,253.054,425.331,251.353,429.035,253.26z M301.689,348.685
	c-4.03,6.36-16.328,26.295-16.328,26.295s-12.729-7.206-16.752-15.267c-4.029-8.06-7.422-13.144-9.121-14.421
	c0,0,5.195-6.991,6.465-14.413c0,0,2.279,0.179,3.555,4.735c7.705-9.693,12.744-20.173,14.154-31.247c0,0,1.908,1.908,3.607,2.546
	c0,0,0.208-7.637,2.969-13.144c2.753-5.515,8.691-12.513,9.544-23.12h3.815c0,0-3.184,23.751,0,44.108
	C306.773,335.117,305.712,342.323,301.689,348.685z"/>
</svg>
