<?xml version="1.0" encoding="utf-8"?>
<!-- Generator: Adobe Illustrator 18.0.0, SVG Export Plug-In . SVG Version: 6.00 Build 0)  -->
<!DOCTYPE svg PUBLIC "-//W3C//DTD SVG 1.1//EN" "http://www.w3.org/Graphics/SVG/1.1/DTD/svg11.dtd">
<svg version="1.1" id="Ebene_1" xmlns="http://www.w3.org/2000/svg" xmlns:xlink="http://www.w3.org/1999/xlink" x="0px" y="0px"
	 width="512px" height="512px" viewBox="0 0 512 512" enable-background="new 0 0 512 512" xml:space="preserve">
<g id="XMLID_729_">
	<path id="XMLID_733_" fill="#454646" d="M179.9,152.8h-75.1c-32.5,0-58.9,26.4-58.9,58.9v41.8v46.8v134.4h43.6v-75.6l90.3,0
		c32.5,0,58.9-26.4,58.9-58.9v-88.6C238.8,179.2,212.4,152.8,179.9,152.8z M195.2,300.3c0,8.4-6.9,15.3-15.3,15.3H89.6v-62.1v-41.8
		c0-8.4,6.9-15.3,15.3-15.3h75.1c8.4,0,15.3,6.9,15.3,15.3V300.3z"/>
	<path id="XMLID_730_" fill="#454646" d="M332.1,359.2h75.1c32.5,0,58.9-26.4,58.9-58.9v-41.8v-46.8V77.3h-43.6v75.6l-90.3,0
		c-32.5,0-58.9,26.4-58.9,58.9v88.6C273.2,332.8,299.6,359.2,332.1,359.2z M316.8,211.7c0-8.4,6.9-15.3,15.3-15.3h90.3v62.1v41.8
		c0,8.4-6.9,15.3-15.3,15.3h-75.1c-8.4,0-15.3-6.9-15.3-15.3V211.7z"/>
</g>
</svg>
