<?xml version="1.0" encoding="utf-8"?>
<!-- Generator: Adobe Illustrator 16.0.4, SVG Export Plug-In . SVG Version: 6.00 Build 0)  -->
<!DOCTYPE svg PUBLIC "-//W3C//DTD SVG 1.1//EN" "http://www.w3.org/Graphics/SVG/1.1/DTD/svg11.dtd">
<svg version="1.1" id="Layer_1" xmlns="http://www.w3.org/2000/svg" xmlns:xlink="http://www.w3.org/1999/xlink" x="0px" y="0px"
	 width="512px" height="512px" viewBox="0 0 512 512" enable-background="new 0 0 512 512" xml:space="preserve">
<g>
	<path id="polygon287" fill="#454646" d="M156.044,307.944l-43.976,18.886l40.73,17.414l47.222-17.414L156.044,307.944z
		 M89.934,331.556l-1.477,84.998l64.341,28.336v-88.251L89.934,331.556z M222.156,331.556l-58.144,22.134v83.231l58.144-23.615
		V331.556z"/>
	<path id="polygon311" fill="#454646" d="M291.515,67.11l-44.271,18.886l41.023,17.414l47.224-17.414L291.515,67.11z
		 M230.125,92.193v85.003l54.896,15.938l1.771-77.33L230.125,92.193z M352.902,96.918l-51.944,22.134v83.527l51.944-23.611V96.918z"
		/>
	<path id="use3387" fill="#454646" d="M83.587,186.74L39.611,205.63l40.73,17.414l47.222-17.414L83.587,186.74z M17.477,210.351
		L16,295.354l64.341,28.331v-88.247L17.477,210.351z M149.699,210.351L91.556,232.49v83.227l58.144-23.611V210.351z"/>
	<path id="use3389" fill="#454646" d="M225.255,183.595l-43.976,18.891l40.73,17.414l47.222-17.414L225.255,183.595z
		 M159.145,207.206l-1.477,85.003l64.341,28.332v-88.247L159.145,207.206z M291.367,207.206l-58.144,22.139v83.227l58.144-23.611
		V207.206z"/>
	<path id="use3391" fill="#454646" d="M429.89,67.11l-43.978,18.886l40.73,17.414l47.222-17.414L429.89,67.11z M363.777,90.721
		l-1.477,84.999l64.341,28.331v-88.247L363.777,90.721z M496,90.721l-58.142,22.134v83.227L496,172.471V90.721z"/>
</g>
</svg>
