<?xml version="1.0" encoding="utf-8"?>
<!-- Generator: Adobe Illustrator 16.0.4, SVG Export Plug-In . SVG Version: 6.00 Build 0)  -->
<!DOCTYPE svg PUBLIC "-//W3C//DTD SVG 1.1//EN" "http://www.w3.org/Graphics/SVG/1.1/DTD/svg11.dtd">
<svg version="1.1" id="Layer_1" xmlns="http://www.w3.org/2000/svg" xmlns:xlink="http://www.w3.org/1999/xlink" x="0px" y="0px"
	 width="512px" height="512px" viewBox="0 0 512 512" enable-background="new 0 0 512 512" xml:space="preserve">
<g>
	<path fill="#454646" d="M427,66H85c-10.458,0-19,8.55-19,19v342c0,10.45,8.542,19,19,19h342c10.442,0,19-8.55,19-19V85
		C446,74.55,437.442,66,427,66z M377.6,365.441c0,6.688-5.474,12.159-12.157,12.159H146.564c-6.694,0-12.165-5.472-12.165-12.159
		V146.564c0-6.693,5.47-12.165,12.165-12.165h218.878c6.684,0,12.157,5.472,12.157,12.165V365.441z"/>
	<g>
		<rect x="219.48" y="180.219" fill="#454646" width="91.189" height="67.652"/>
		<rect x="318.926" y="180.219" fill="#454646" width="40.743" height="26.272"/>
		<rect x="219.48" y="256.134" fill="#454646" width="91.189" height="77.143"/>
		<rect x="318.926" y="214.755" fill="#454646" width="40.743" height="147.864"/>
		<rect x="219.48" y="341.532" fill="#454646" width="91.189" height="21.087"/>
		<rect x="152.398" y="309.183" fill="#454646" width="58.826" height="53.436"/>
		<rect x="152.398" y="180.219" fill="#454646" width="58.826" height="120.702"/>
	</g>
</g>
</svg>
