<?xml version="1.0" encoding="utf-8"?>
<!-- Generator: Adobe Illustrator 19.1.0, SVG Export Plug-In . SVG Version: 6.00 Build 0)  -->
<svg version="1.1" id="Layer_1" xmlns="http://www.w3.org/2000/svg" xmlns:xlink="http://www.w3.org/1999/xlink" x="0px" y="0px"
	 width="512px" height="512px" viewBox="0 0 512 512" enable-background="new 0 0 512 512" xml:space="preserve">
<g>
	<path fill="#454646" d="M172.7,96c-6.6,0-12,5.4-12,12v296c0,6.6,5.4,12,12,12h166.5c6.6,0,12-5.4,12-12V108c0-6.6-5.4-12-12-12
		H172.7z M230.9,114.7c2-0.9,9-1.6,15.6-1.6h18.9c6.6,0,13.6,0.7,15.6,1.6c0,0,0,0,0,2c0,2,0,2,0,2c-2,0.9-9,1.6-15.6,1.6h-18.9
		c-6.6,0-13.6-0.7-15.6-1.6c0,0,0,0,0-2C230.9,114.7,230.9,114.7,230.9,114.7z M268.6,393.6c0,6.6-5.4,12-12,12h-1.1
		c-6.6,0-12-5.4-12-12v-1.1c0-6.6,5.4-12,12-12h1.1c6.6,0,12,5.4,12,12V393.6z M331.8,352.3c0,6.6-5.4,12-12,12H192.2
		c-6.6,0-12-5.4-12-12V152.9c0-6.6,5.4-12,12-12h127.6c6.6,0,12,5.4,12,12V352.3z"/>
</g>
</svg>
