<?xml version="1.0" encoding="utf-8"?>
<!-- Generator: Adobe Illustrator 16.0.4, SVG Export Plug-In . SVG Version: 6.00 Build 0)  -->
<!DOCTYPE svg PUBLIC "-//W3C//DTD SVG 1.1//EN" "http://www.w3.org/Graphics/SVG/1.1/DTD/svg11.dtd">
<svg version="1.1" id="Layer_1" xmlns="http://www.w3.org/2000/svg" xmlns:xlink="http://www.w3.org/1999/xlink" x="0px" y="0px"
	 width="512px" height="512px" viewBox="0 0 512 512" enable-background="new 0 0 512 512" xml:space="preserve">
<g>
	<path fill="#454646" d="M446,127.203V84.999c0-10.45-8.55-19-19-19H85c-10.45,0-19,8.55-19,19v342.002c0,10.45,8.55,19,19,19
		h40.769c-8.743-25.517-13.56-52.842-13.56-81.282c0-60.401,21.412-115.88,57.037-159.277l38.349,7.177l4.238,36.959
		c-24.336,32.015-38.824,71.907-38.824,115.142c0,29.059,6.561,56.608,18.243,81.282H427c10.45,0,19-8.55,19-19V192.812
		c-24.945-11.998-52.881-18.729-82.36-18.729c-50.937,0-97.234,20.119-131.464,52.778l-3.852-33.562l-40.954-7.665
		c45.415-44.703,107.662-72.352,176.27-72.352C392.481,113.282,420.177,118.225,446,127.203z"/>
</g>
</svg>
