<?xml version="1.0" encoding="utf-8"?>
<!-- Generator: Adobe Illustrator 19.2.1, SVG Export Plug-In . SVG Version: 6.00 Build 0)  -->
<svg version="1.1" id="Work_area" xmlns="http://www.w3.org/2000/svg" xmlns:xlink="http://www.w3.org/1999/xlink" x="0px" y="0px"
	 width="512px" height="512px" viewBox="0 0 512 512" enable-background="new 0 0 512 512" xml:space="preserve">
<g>
	<path fill="#454646" d="M161,322H67c-10.4,0-19-8.6-19-19v-94c0-10.4,8.6-19,19-19h94c10.4,0,19,8.6,19,19v94
		C180,313.4,171.4,322,161,322z"/>
	<path fill="#454646" d="M334,378c-21,0-30.9-23.4-43.7-59c-6.3-17.7-13.1-36.6-23.3-50.9l67,0h0v-24l-67,0
		c10.2-14.4,17-33.3,23.3-51c12.8-35.7,22.7-59,43.7-59v-24c-39.4,0-53.7,39.8-66.3,75c-12.8,35.7-22.7,59-43.7,59c0,0-0.1,0-0.1,0
		l-29.9,0v24l30.1,0c20.9,0.1,30.8,23.4,43.6,59c12.6,35.1,26.9,75,66.3,75V378z"/>
	<path fill="#454646" d="M406,96c14.3,0,26,11.7,26,26s-11.7,26-26,26s-26-11.7-26-26S391.7,96,406,96 M406,64c-32,0-58,26-58,58
		c0,32,26,58,58,58s58-26,58-58C464,90,438,64,406,64L406,64z"/>
	<path fill="#454646" d="M406,364c14.3,0,26,11.7,26,26s-11.7,26-26,26s-26-11.7-26-26S391.7,364,406,364 M406,332
		c-32,0-58,26-58,58s26,58,58,58s58-26,58-58S438,332,406,332L406,332z"/>
	<path fill="#454646" d="M406,230c14.3,0,26,11.7,26,26s-11.7,26-26,26s-26-11.7-26-26S391.7,230,406,230 M406,198
		c-32,0-58,26-58,58s26,58,58,58s58-26,58-58S438,198,406,198L406,198z"/>
</g>
</svg>
