<?xml version="1.0" encoding="utf-8"?>
<!-- Generator: Adobe Illustrator 19.2.1, SVG Export Plug-In . SVG Version: 6.00 Build 0)  -->
<svg version="1.1" id="Work_area" xmlns="http://www.w3.org/2000/svg" xmlns:xlink="http://www.w3.org/1999/xlink" x="0px" y="0px"
	 width="512px" height="512px" viewBox="0 0 512 512" enable-background="new 0 0 512 512" xml:space="preserve">
<g>
	<g>
		<g>
			<path fill="#454646" d="M200.2,102.7c26,0,50.5,10.1,68.9,28.5c38,38,38,99.8,0,137.8c-18.4,18.4-42.9,28.5-68.9,28.5
				c-26,0-50.5-10.1-68.9-28.5c-18.4-18.4-28.5-42.9-28.5-68.9c0-26,10.1-50.5,28.5-68.9C149.7,112.9,174.1,102.7,200.2,102.7
				 M200.2,64c-34.8,0-69.7,13.3-96.3,39.9c-53.2,53.2-53.2,139.4,0,192.6c26.6,26.6,61.4,39.9,96.3,39.9
				c34.8,0,69.7-13.3,96.3-39.9c53.2-53.2,53.2-139.4,0-192.6C269.9,77.3,235,64,200.2,64L200.2,64z"/>
		</g>
		<path fill="#454646" d="M445.7,413.5c3,3,3,7.9,0,11l-21.3,21.3c-3,3-7.9,3-11,0L305.7,337.9c-3-3-3-7.9,0-10.9l21.3-21.3
			c3-3,7.9-3,11,0L445.7,413.5z"/>
	</g>
	<g>
		<rect x="132" y="180" fill="#454646" width="136" height="40"/>
	</g>
</g>
</svg>
