<?xml version="1.0" encoding="utf-8"?>
<!-- Generator: Adobe Illustrator 18.1.0, SVG Export Plug-In . SVG Version: 6.00 Build 0)  -->
<svg version="1.1" id="Layer_1" xmlns="http://www.w3.org/2000/svg" xmlns:xlink="http://www.w3.org/1999/xlink" x="0px" y="0px"
	 viewBox="0 0 512 512" enable-background="new 0 0 512 512" xml:space="preserve">
<g>
	<g>
		<path fill="#454646" d="M196.661,423.18c8.658,24.452,31.92,42,59.339,42c27.418,0,50.681-17.548,59.338-42H196.661z"/>
	</g>
	<path fill="#454646" d="M270.805,109.274c46.413,6.913,77.597,48.669,77.597,103.906v42c0,38.678,6.709,74.017,15.653,105H148.586
		c7.801-26.212,14.386-57.431,15.007-91.148l0.007-0.388v-0.386V213.18c0-55.236,31.184-96.992,77.597-103.906
		c0,0,5.966-1.444,14.804-1.444C264.839,107.83,270.805,109.274,270.805,109.274z M256.001,46.82
		c-11.568,0-20.942,9.356-20.992,20.911c-69.237,10.314-113.408,71.492-113.408,145.448v55.078
		c-1.048,56.847-21.593,105.976-32.899,133.922h334.596c-12.164-30.071-32.897-84.65-32.897-147v-42
		c0-73.957-44.173-135.136-113.41-145.448C276.942,56.176,267.568,46.82,256.001,46.82L256.001,46.82z"/>
</g>
</svg>
