<?xml version="1.0" encoding="utf-8"?>
<!-- Generator: Adobe Illustrator 16.0.4, SVG Export Plug-In . SVG Version: 6.00 Build 0)  -->
<!DOCTYPE svg PUBLIC "-//W3C//DTD SVG 1.1//EN" "http://www.w3.org/Graphics/SVG/1.1/DTD/svg11.dtd">
<svg version="1.1" id="Layer_1" xmlns="http://www.w3.org/2000/svg" xmlns:xlink="http://www.w3.org/1999/xlink" x="0px" y="0px"
	 width="512px" height="512px" viewBox="0 0 512 512" enable-background="new 0 0 512 512" xml:space="preserve">
<g>
	<path fill="#454646" d="M282.591,264.215c-2.45-12.496-13.476-21.953-26.679-21.953c-2.056,0-4.052,0.246-5.974,0.68l-11.771-7.668
		l-20.315,41.047l13.348,4.439c4.303,9.361,13.744,15.9,24.713,15.9c4.726,0,9.163-1.217,13.041-3.346l119.061,39.6L282.591,264.215
		z M255.912,285.746c-8.987,0-16.298-7.309-16.298-16.289s7.311-16.291,16.298-16.291c8.98,0,16.282,7.311,16.282,16.291
		S264.893,285.746,255.912,285.746z"/>
	<g>
		<g>
			<g>
				<path fill="#454646" d="M255.912,234.117c15.626,0,29.304,10.324,33.789,25.012l82.023,53.451
					c4.852-13.244,7.532-27.521,7.532-42.443c0-68.191-55.281-123.469-123.472-123.469v87.457
					C255.825,234.125,255.869,234.117,255.912,234.117z"/>
			</g>
		</g>
	</g>
	<g>
		<g>
			<path fill="#454646" d="M268.774,80.105v-8.09h8.777c3.917,0,5.31-1.385,5.31-5.307v-9.027c0-3.922-1.393-5.305-5.31-5.305
				H234.54c-3.922,0-5.306,1.383-5.306,5.305v9.027c0,3.922,1.384,5.307,5.306,5.307h8.777v8.082
				C144.305,86.627,66,168.961,66,269.627c0,104.936,85.065,189.996,190,189.996c104.931,0,190-85.061,190-189.996
				C446,168.992,367.747,86.684,268.774,80.105z M263.258,423.225v-23.027h-14.512v23.027
				c-79.159-3.674-142.665-67.184-146.348-146.34h22.765v-14.516h-22.765c3.679-79.15,67.188-142.66,146.344-146.344v22.689h14.512
				v-22.689c79.155,3.684,142.664,67.188,146.348,146.344H386.65v14.516h22.951C405.918,356.037,342.413,419.547,263.258,423.225z"
				/>
		</g>
	</g>
</g>
</svg>
