<?xml version="1.0" encoding="utf-8"?>
<!-- Generator: Adobe Illustrator 16.0.4, SVG Export Plug-In . SVG Version: 6.00 Build 0)  -->
<!DOCTYPE svg PUBLIC "-//W3C//DTD SVG 1.1//EN" "http://www.w3.org/Graphics/SVG/1.1/DTD/svg11.dtd">
<svg version="1.1" id="Layer_1" xmlns="http://www.w3.org/2000/svg" xmlns:xlink="http://www.w3.org/1999/xlink" x="0px" y="0px"
	 width="512px" height="512px" viewBox="0 0 512 512" enable-background="new 0 0 512 512" xml:space="preserve">
<g>
	<circle fill-rule="evenodd" clip-rule="evenodd" fill="#454646" cx="256.002" cy="56.369" r="40.364"/>
	<ellipse fill-rule="evenodd" clip-rule="evenodd" fill="#454646" cx="256.002" cy="455.636" rx="40.364" ry="40.369"/>
	<path fill-rule="evenodd" clip-rule="evenodd" fill="#454646" d="M255.998,142.806c-56.7,0-102.666,50.677-102.666,113.198
		c0,62.513,45.966,113.199,102.666,113.199c56.705,0,102.67-50.686,102.67-113.199C358.668,193.483,312.702,142.806,255.998,142.806
		z M255.998,332.35c-34.364,0-62.222-34.182-62.222-76.346c0-42.159,27.858-76.345,62.222-76.345
		c34.364,0,62.222,34.186,62.222,76.345C318.22,298.168,290.362,332.35,255.998,332.35z"/>
</g>
</svg>
