<?xml version="1.0" encoding="utf-8"?>
<!-- Generator: Adobe Illustrator 16.0.4, SVG Export Plug-In . SVG Version: 6.00 Build 0)  -->
<!DOCTYPE svg PUBLIC "-//W3C//DTD SVG 1.1//EN" "http://www.w3.org/Graphics/SVG/1.1/DTD/svg11.dtd">
<svg version="1.1" id="Layer_1" xmlns="http://www.w3.org/2000/svg" xmlns:xlink="http://www.w3.org/1999/xlink" x="0px" y="0px"
	 width="512px" height="512px" viewBox="0 0 512 512" enable-background="new 0 0 512 512" xml:space="preserve">
<path fill="#454646" d="M256,66C151.233,66,66,151.233,66,256s85.233,190,190,190s190-85.233,190-190S360.767,66,256,66z
	 M319.643,190.086c14.436,0,26.14,11.701,26.14,26.14c0,14.439-11.704,26.14-26.14,26.14c-14.443,0-26.14-11.701-26.14-26.14
	C293.502,201.787,305.2,190.086,319.643,190.086z M192.357,190.086c14.436,0,26.14,11.701,26.14,26.14
	c0,14.439-11.704,26.14-26.14,26.14s-26.14-11.701-26.14-26.14C166.217,201.787,177.922,190.086,192.357,190.086z M344.157,372.661
	c-1.767,0.75-3.6,1.102-5.403,1.102c-5.44,0-10.613-3.206-12.854-8.535c-10.599-25.138-38.683-42.034-69.899-42.034
	s-59.308,16.896-69.899,42.034c-2.983,7.099-11.163,10.443-18.258,7.433c-7.095-2.987-10.42-11.163-7.429-18.258
	C175.302,319.06,213.717,295.31,256,295.31c42.282,0,80.698,23.75,95.594,59.093C354.585,361.498,351.252,369.673,344.157,372.661z"
	/>
</svg>
