<?xml version="1.0" encoding="utf-8"?>
<!-- Generator: Adobe Illustrator 19.2.1, SVG Export Plug-In . SVG Version: 6.00 Build 0)  -->
<svg version="1.1" id="Work_area" xmlns="http://www.w3.org/2000/svg" xmlns:xlink="http://www.w3.org/1999/xlink" x="0px" y="0px"
	 width="512px" height="512px" viewBox="0 0 512 512" enable-background="new 0 0 512 512" xml:space="preserve">
<g>
	<path fill="#454646" d="M215.7,148.7c23.5,10.1,50.7-0.8,60.8-24.4c10.1-23.5-0.8-50.8-24.4-60.8c-23.5-10.1-50.8,0.8-60.8,24.4
		C181.3,111.5,192.2,138.7,215.7,148.7z M267.8,113.9c3.3,0,6.1,2.7,6.1,6.1c0,3.3-2.7,6.1-6.1,6.1c-3.3,0-6.1-2.7-6.1-6.1
		C261.7,116.6,264.4,113.9,267.8,113.9z M237.4,113.9c3.3,0,6.1,2.7,6.1,6.1c0,3.3-2.7,6.1-6.1,6.1c-3.3,0-6.1-2.7-6.1-6.1
		C231.3,116.6,234,113.9,237.4,113.9z"/>
	<path fill="#454646" d="M124,155.3c0.4-0.4,0.7-0.7,1.1-1.1c7.6-7.6,8.3-19.5,0-27.8c-8.3-8.3-20.2-7.7-27.8,0c0,0-0.4,0.4-1.1,1.1
		l-13.6-13.6c-1.4-1.4-3.7-1.4-5.1,0l-4.3,4.3c-1.4,1.4-1.4,3.7,0,5.1l13.6,13.6c-7,7.6-7.4,19.1,0.6,27.1c8,8,19.5,7.7,27.1,0.6
		l24.5,24.5l5.6-13.1L124,155.3z"/>
	<path fill="#454646" d="M98.7,283.9l-9.7,68.7c-12.5,12.1-30.7,29.7-36,34.7c-9.8,9.3-11.1,24.4-0.9,35.1
		c10.2,10.7,25.2,10.3,35.1,0.9l48.5-46.9l10.3-72.2l19.8,8.5c11.9,50.4,26.8,113.8,28.4,120.4c3.1,13.1,15.5,21.9,29.9,18.5
		c14.4-3.4,21.6-16.5,18.5-29.9l-30-127l9.6-22.4l-83-83L98.7,283.9z"/>
	<path fill="#454646" d="M255.3,194.6L255.3,194.6c3.3-8.5-0.7-18.1-9.1-21.7l-5.8-2.5l-57.6-24.6l-5.8-2.5
		c-8.4-3.6-18.1,0.2-21.9,8.4l0,0l-10.4,24.3l83,83L255.3,194.6z"/>
	<path fill="#454646" d="M467,451.9l-55.4-95.9c-19.5-33.7-67.8-34.1-87.9-1.1l-57.5-57.5c1-1,2.1-2.1,3-3c7.6-7.6,8.3-19.5,0-27.8
		c-8.3-8.3-20.2-7.7-27.8,0c0,0-1.3,1.3-3,3l-10.6-10.6l-5.6,13.1l7.1,7.1c-5.2,7.5-5,17.7,2.4,25c7.3,7.3,17.4,7.7,25,2.4
		l60.2,60.2l-49.2,85.1H467z"/>
</g>
</svg>
