<?xml version="1.0" encoding="utf-8"?>
<!-- Generator: Adobe Illustrator 16.0.4, SVG Export Plug-In . SVG Version: 6.00 Build 0)  -->
<!DOCTYPE svg PUBLIC "-//W3C//DTD SVG 1.1//EN" "http://www.w3.org/Graphics/SVG/1.1/DTD/svg11.dtd">
<svg version="1.1" id="Layer_1" xmlns="http://www.w3.org/2000/svg" xmlns:xlink="http://www.w3.org/1999/xlink" x="0px" y="0px"
	 width="512px" height="512px" viewBox="0 0 512 512" enable-background="new 0 0 512 512" xml:space="preserve">
<g>
	<path fill="#454646" d="M182.888,272.538c0,22.292,11.686,34.516,33.152,34.516c4.618,0,8.424-0.271,14.404-1.082v-67.125
		c-4.893-1.631-8.965-2.175-14.131-2.175C195.117,236.671,182.888,249.715,182.888,272.538z"/>
	<path fill="#454646" d="M395.745,66H116.258C88.5,66,66,88.058,66,115.265v281.478C66,423.946,88.5,446,116.258,446h279.487
		c27.758,0,50.254-22.054,50.254-49.257V115.265C445.999,88.058,423.503,66,395.745,66z M140.225,273.358
		c0-42.663,28.264-70.38,72.014-70.38c6.791,0,11.951,0.545,18.204,2.171v-63.815h41.848v193.711
		c-21.468,4.078-37.23,5.709-54.348,5.709C166.853,340.754,140.225,317.655,140.225,273.358z M338.867,302.98
		c0,33.424-2.447,49.454-9.781,63.318c-6.797,13.317-15.763,21.735-34.239,30.979l-38.863-18.482
		c18.479-8.695,27.444-16.296,33.154-27.992c5.979-11.953,7.884-25.817,7.884-62.23v-82.611h41.846V302.98z M338.867,184.498
		h-41.846v-42.939h41.846V184.498z"/>
</g>
</svg>
