<?xml version="1.0" encoding="utf-8"?>
<!-- Generator: Adobe Illustrator 16.0.4, SVG Export Plug-In . SVG Version: 6.00 Build 0)  -->
<!DOCTYPE svg PUBLIC "-//W3C//DTD SVG 1.1//EN" "http://www.w3.org/Graphics/SVG/1.1/DTD/svg11.dtd">
<svg version="1.1" id="Layer_1" xmlns="http://www.w3.org/2000/svg" xmlns:xlink="http://www.w3.org/1999/xlink" x="0px" y="0px"
	 width="512px" height="512px" viewBox="0 0 512 512" enable-background="new 0 0 512 512" xml:space="preserve">
<g>
	<path fill="#454646" d="M122.791,46l-14.813,7.407v11.245l-12.982-4.755l0,0l-11.468,5.734v7.996l-10.198-2.898l0,0l-9.135,4.571
		v6.566L53.47,79.414l-7.45,3.724V188.28l7.45,3.728v-0.123l10.724-2.449v6.674l9.135,4.579v0.028l10.198-2.903v7.973l11.468,5.734
		v0.027l12.982-4.75v11.205l14.813,7.415l74.318-37.157V83.157L122.791,46z M57.209,187.189V84.109l6.985,1.593v99.895
		L57.209,187.189z M77.068,195.759V75.687l6.459,1.832v116.409L77.068,195.759z M98.735,206.2V65.25l9.243,3.381v134.188
		L98.735,206.2z M192.127,185.175l-64.351,32.167V54.06l64.351,32.18V185.175z"/>
</g>
</svg>
