<?xml version="1.0" encoding="utf-8"?>
<!-- Generator: Adobe Illustrator 19.2.1, SVG Export Plug-In . SVG Version: 6.00 Build 0)  -->
<svg version="1.1" id="Work_area" xmlns="http://www.w3.org/2000/svg" xmlns:xlink="http://www.w3.org/1999/xlink" x="0px" y="0px"
	 width="512px" height="512px" viewBox="0 0 512 512" enable-background="new 0 0 512 512" xml:space="preserve">
<path fill="#454646" d="M399.4,314.9c3.9,0,6.9-1.3,9-3.4c1.8-1.6,3.3-3.7,4.1-6.6c11.6-41.4,23.3-82.8,34.9-124.2
	c1.4-5,0.1-9.1-2.5-12c-2.2-3.1-5.7-5.2-10.6-5.2c-88.7,0-177.5,0-266.2,0c-6.8-24.5-13.6-48.9-20.4-73.4c-0.9-3.2-2.6-5.6-4.7-7.2
	c-2.1-1.8-4.9-2.9-8.4-2.9c-19.1,0-38.2,0-57.4,0c-17.6,0-17.6,27.3,0,27.3c15.7,0,31.3,0,47,0c22.6,81.3,45.2,162.6,67.9,243.9
	c-15,6.5-25.5,21.4-25.5,38.7c0,23.2,18.9,42.1,42.1,42.1c23.2,0,42.1-18.9,42.1-42.1c0-5.2-1-10.2-2.8-14.9c28.2,0,56.5,0,84.7,0
	c-1.8,4.6-2.8,9.6-2.8,14.9c0,23.2,18.9,42.1,42.1,42.1s42.1-18.9,42.1-42.1c0-22.7-18.1-41.3-40.6-42c-0.6-0.1-1.2-0.1-1.9-0.1
	c-50.7,0-101.4,0-152.2,0c-3-10.9-6.1-21.9-9.1-32.8C273.3,314.9,336.3,314.9,399.4,314.9z M193,252.8c9.5,0,18.9,0,28.4,0
	c1.6,11.6,3.2,23.2,4.8,34.8c-7.8,0-15.7,0-23.5,0C199.4,276,196.2,264.4,193,252.8z M416.3,190.7c-3.3,11.6-6.5,23.2-9.8,34.8
	c-10.6,0-21.3,0-31.9,0c1.6-11.6,3.2-23.2,4.8-34.8C391.7,190.7,404,190.7,416.3,190.7z M389,287.6c-7.7,0-15.4,0-23,0
	c1.6-11.6,3.2-23.2,4.8-34.8c9.3,0,18.7,0,28,0C395.6,264.4,392.3,276,389,287.6z M309.7,287.6c0-11.6,0-23.2,0-34.8
	c11.3,0,22.5,0,33.8,0c-1.6,11.6-3.2,23.2-4.8,34.8C329.1,287.6,319.4,287.6,309.7,287.6z M347.3,225.5c-12.5,0-25.1,0-37.6,0
	c0-11.6,0-23.2,0-34.8c14.1,0,28.3,0,42.4,0C350.5,202.3,348.9,213.9,347.3,225.5z M282.5,225.5c-12.5,0-25.1,0-37.6,0
	c-1.6-11.6-3.2-23.2-4.8-34.8c14.1,0,28.3,0,42.4,0C282.5,202.3,282.5,213.9,282.5,225.5z M282.5,252.8c0,11.6,0,23.2,0,34.8
	c-9.7,0-19.3,0-29,0c-1.6-11.6-3.2-23.2-4.8-34.8C259.9,252.8,271.2,252.8,282.5,252.8z M212.8,190.7c1.6,11.6,3.2,23.2,4.8,34.8
	c-10.7,0-21.5,0-32.2,0c-3.2-11.6-6.5-23.2-9.7-34.8C188.1,190.7,200.4,190.7,212.8,190.7z M208.6,404.7c-8.2,0-14.8-6.7-14.8-14.8
	c0-8.2,6.6-14.8,14.8-14.8c8.2,0,14.8,6.7,14.8,14.8C223.5,398.1,216.8,404.7,208.6,404.7z M372,404.7c-8.2,0-14.8-6.7-14.8-14.8
	c0-8.2,6.6-14.8,14.8-14.8s14.8,6.7,14.8,14.8C386.8,398.1,380.1,404.7,372,404.7z"/>
</svg>
