<?xml version="1.0" encoding="utf-8"?>
<!-- Generator: Adobe Illustrator 18.1.1, SVG Export Plug-In . SVG Version: 6.00 Build 0)  -->
<svg version="1.1" id="Ebene_1" xmlns="http://www.w3.org/2000/svg" xmlns:xlink="http://www.w3.org/1999/xlink" x="0px" y="0px"
	 width="512px" height="512px" viewBox="0 0 512 512" enable-background="new 0 0 512 512" xml:space="preserve">
<g>
	<polygon fill="#454646" points="224.9,256 147,175.5 147,217.9 81.4,217.9 81.4,294.1 147,294.1 147,336.5 	"/>
	<polygon fill="#454646" points="287.1,256 365,175.5 365,217.9 430.6,217.9 430.6,294.1 365,294.1 365,336.5 	"/>
	<polygon fill="#454646" points="295.5,286.7 264.5,254.6 295.5,222.4 295.5,153.8 337.9,153.8 257.4,76 177,153.8 219.4,153.8 
		219.4,222.4 250.4,254.6 219.4,286.7 219.4,358.2 177,358.2 257.4,436 337.9,358.2 295.5,358.2 	"/>
</g>
</svg>
