<?xml version="1.0" encoding="utf-8"?>
<!-- Generator: Adobe Illustrator 16.0.4, SVG Export Plug-In . SVG Version: 6.00 Build 0)  -->
<!DOCTYPE svg PUBLIC "-//W3C//DTD SVG 1.1//EN" "http://www.w3.org/Graphics/SVG/1.1/DTD/svg11.dtd">
<svg version="1.1" id="Layer_1" xmlns="http://www.w3.org/2000/svg" xmlns:xlink="http://www.w3.org/1999/xlink" x="0px" y="0px"
	 width="512px" height="512px" viewBox="0 0 512 512" enable-background="new 0 0 512 512" xml:space="preserve">
<g>
	<g>
		<g>
			<g>
				<path fill="#454646" d="M445.408,67.937H180.673l39.294,13.447c11.503,3.941,21.41,14.443,24.665,26.141l0.523,1.88h200.181
					c0.023,0.018,0.046,0.036,0.055,0.036s0.014-0.009,0.018-0.019l0.032,294.989c-0.022,0.045-0.091,0.113-0.05,0.122
					l-24.445,0.004c-3.22,18.29-5.866,33.428-7.228,41.463h31.69c22.809,0,41.468-18.659,41.468-41.467V109.405
					C486.876,86.597,468.217,67.937,445.408,67.937z"/>
			</g>
		</g>
	</g>
	<g>
		<path fill="#454646" d="M307.019,383.628c-5.24,5.357-12.478,8.378-20.347,8.378h-0.004c-1.056,0-2.146-0.059-3.27-0.175
			l-111.027-11.734c-9.929-1.046-21.225-6.624-28.106-13.875l-35.456-37.413v75.725c0,22.808,18.659,41.467,41.467,41.467h156.184
			c-0.302-1.875-0.451-3.806-0.396-5.776L307.019,383.628z"/>
	</g>
	<g>
		<path fill="#454646" d="M413.771,288.112l-51.465-118.865c-1.812-4.184-6.881-8.653-11.265-9.924l-96.034-27.859
			c-4.383-1.271-6.994,1.294-5.808,5.695l42.681,158.163c1.186,4.401,5.28,10.051,9.1,12.549l24.134,15.792
			c3.819,2.502,6.836,8.274,6.705,12.838L328.901,446h61.684l25.03-142.114C416.413,299.394,415.584,292.297,413.771,288.112z
			 M342.421,204.487c-9.159,0-16.585-7.427-16.585-16.585c0-9.163,7.426-16.589,16.585-16.589c9.163,0,16.589,7.427,16.589,16.589
			C359.01,197.061,351.584,204.487,342.421,204.487z"/>
	</g>
	<path fill="#454646" d="M222.659,113.639c-1.223-4.392-5.759-9.199-10.074-10.673L105.94,66.476
		c-4.315-1.479-9.614,0.604-11.773,4.618L26.338,197.182c-2.16,4.018-1.357,10.016,1.781,13.325l132.694,140.018
		c3.139,3.305,9.416,6.407,13.952,6.886l111.027,11.738c4.536,0.478,7.242-2.724,6.02-7.121L222.659,113.639z"/>
</g>
</svg>
