<?xml version="1.0" encoding="utf-8"?>
<!-- Generator: Adobe Illustrator 16.0.4, SVG Export Plug-In . SVG Version: 6.00 Build 0)  -->
<!DOCTYPE svg PUBLIC "-//W3C//DTD SVG 1.1//EN" "http://www.w3.org/Graphics/SVG/1.1/DTD/svg11.dtd">
<svg version="1.1" id="Layer_1" xmlns="http://www.w3.org/2000/svg" xmlns:xlink="http://www.w3.org/1999/xlink" x="0px" y="0px"
	 width="512px" height="512px" viewBox="0 0 512 512" enable-background="new 0 0 512 512" xml:space="preserve">
<path fill-rule="evenodd" clip-rule="evenodd" fill="#454646" d="M441.344,307.57c-9.319,27.247-25.795,39.396-51.699,43.029
	c-6.043,0.846-19.698-1.691-19.698-19.2c0-18.23,0-145.208,0-145.208s-28.476,0-28.476-33.71c0-15.711-12.773-28.476-28.511-28.476
	H199.031c-15.729,0-28.476,14.198-28.476,28.476c0,33.71-28.493,33.71-28.493,33.71v165.637v28.483
	c0,15.711,12.756,28.477,28.493,28.477c0-15.711,8.189-19.36,23.918-19.36h37.608c15.729,0,23.918,3.649,23.918,19.36v16.798
	c0,15.71-8.189,19.368-23.918,19.368h-37.608c-15.729,0-23.918-3.658-23.918-19.368c-23.081,0-43.234-20.127-43.234-45.274v-29.828
	l-13.734-3.686c-24.407-8.731-34.511-14.606-42.931-39.228c0,0-4.656-14.527-4.656-41.881c0-27.346,4.469-40.475,4.469-40.475
	c8.456-24.523,18.63-30.318,43.118-39.023v-33.71c0-47.195,38.249-85.436,85.444-85.436H312.96c47.195,0,85.463,38.24,85.463,85.436
	v33.71c24.478,8.705,34.661,14.5,43.117,39.023c0,0,4.46,18.257,4.46,40.475S441.344,307.57,441.344,307.57z"/>
</svg>
