<?xml version="1.0" encoding="utf-8"?>
<!-- Generator: Adobe Illustrator 16.0.4, SVG Export Plug-In . SVG Version: 6.00 Build 0)  -->
<!DOCTYPE svg PUBLIC "-//W3C//DTD SVG 1.1//EN" "http://www.w3.org/Graphics/SVG/1.1/DTD/svg11.dtd">
<svg version="1.1" id="Layer_1" xmlns="http://www.w3.org/2000/svg" xmlns:xlink="http://www.w3.org/1999/xlink" x="0px" y="0px"
	 width="512px" height="512px" viewBox="0 0 512 512" enable-background="new 0 0 512 512" xml:space="preserve">
<g>
	<path fill="#454646" d="M158.87,213.48c-5.896-4.108-12.862-4.108-17.868-4.108h-8.395v93.256h8.395c5.719,0,12.327,0,18.046-4.108
		c8.933-6.253,11.79-19.479,11.79-42.702C170.838,233.308,168.158,219.915,158.87,213.48z"/>
	<path fill="#454646" d="M256,66C151.065,66,66,151.066,66,256s85.065,190,190,190s190-85.066,190-190S360.935,66,256,66z
		 M175.128,315.494c-12.15,7.678-26.263,7.678-36.983,7.678h-30.727V188.825h30.727c11.972,0,25.368,0,37.518,7.682
		c12.684,8.042,21.441,23.227,21.441,59.312C197.104,290.479,189.065,306.736,175.128,315.494z M300.795,210.084h-36.13v113.087
		h-25.189V210.084H203.52v-21.26h97.275V210.084z M375.637,323.172l-35.372-69.855v69.855h-24.834V188.825h24.834v62.347
		l37.518-62.347h24.655l-37.874,59.672l40.019,74.675H375.637z"/>
</g>
</svg>
