<?xml version="1.0" encoding="utf-8"?>
<!-- Generator: Adobe Illustrator 18.1.0, SVG Export Plug-In . SVG Version: 6.00 Build 0)  -->
<svg version="1.1" id="Ebene_1" xmlns="http://www.w3.org/2000/svg" xmlns:xlink="http://www.w3.org/1999/xlink" x="0px" y="0px"
	 width="512px" height="512px" viewBox="0 0 512 512" enable-background="new 0 0 512 512" xml:space="preserve">
<g>
	<path fill="#454646" d="M437.2,175.5c22.6,82.5-26.9,169.3-26.9,169.3c71.3-105.9,51.9-203.4,51.9-203.4l2.2,0.1
		c24.5,157.9-94.8,263.4-94.8,263.4s1.1,3.5-14.6,18.1c-15.6,14.6-42.8,10.5-42.8,10.5c14.5-6.5,28.2-14.7,40.6-24.4
		c0,0,29.6-21.8,57.6-76.3C451.3,253.3,437.2,175.5,437.2,175.5z"/>
	<path fill="#454646" d="M283.9,66c-4.3,3.1-8.2,7.1-8.6,11.5c-1,9.9-1.1,21.1,9.9,37.6c10.9,16.5,2,46.8-10.3,67.1
		c-12.3,20.2-35.7,48.4-34.1,85.7c1.6,37.3,11.2,57.5,31.4,74.5c20.2,17,52.3,37.8,45.3,65c0,0-12.8-33-30.4-39.9
		c-17.6-6.9-30.3-6.4-43.1-1.1c-12.8,5.3-29.8,21.3-35.7,24s-45.4,16.8-48.7,29.9c-1,3.9-1.8,8.7-2.5,13.5
		c21.2,8,44.3,12.3,68.3,12.3c107.4,0,194.5-87.1,194.5-194.5C419.8,164.5,362.7,90.9,283.9,66z"/>
	<g>
		<path fill="#454646" d="M283.9,66c-4.3,3.1-8.2,7.1-8.6,11.5c-1,9.9-1.1,21.1,9.9,37.6c10.9,16.5,2,46.8-10.3,67.1
			c-12.3,20.2-35.7,48.4-34.1,85.7c1.6,37.3,11.2,57.5,31.4,74.5c20.2,17,52.3,37.8,45.3,65c0,0-12.8-33-30.4-39.9
			c-17.6-6.9-30.3-6.4-43.1-1.1c-12.8,5.3-29.8,21.3-35.7,24s-45.4,16.8-48.7,29.9c-1,3.9-1.8,8.7-2.5,13.5
			c21.2,8,44.3,12.3,68.3,12.3c107.4,0,194.5-87.1,194.5-194.5C419.8,164.5,362.7,90.9,283.9,66z"/>
	</g>
	<path fill="#454646" d="M158.6,411.5c-25.8-15-47.2-39.3-47.2-39.3s13.8-11.7,41.4-9.1s25.1,1.6,39.5-5.9s33-11.7,56.4-8.5
		c9,1.2,15.9,4.7,21,8.6c5.6,0.7,11.6,2.2,17.9,4.6c-3.4-2.9-6.9-5.7-10.3-8.4c-3-2.4-5.9-4.8-8.6-7.1c-1.5-1.2-2.9-2.5-4.3-3.8
		c-15.8-7.1-34-16.7-49.3-28c-35.1-26.1-38.3-67.1-24-111.3s-33-63.9-36.7-69.7c-3.7-5.9-0.5-23.4,2.5-24.5
		c3.1-1.1,41.7,11.7,73.6,27.7c19.9,9.9,36.9,20.7,47.2,27.8c8.6-20.4,8.4-38.4,2.9-46.7c-11.9-18-11.8-30.6-10.7-41
		c0-0.3,0.1-0.6,0.1-0.9c-14.3-3.6-29.3-5.6-44.8-5.6c-100,0-181,81-181,181c0,74.9,45.5,139.2,110.3,166.7
		C155.3,415.9,156.7,413.6,158.6,411.5z"/>
</g>
</svg>
