<?xml version="1.0" encoding="utf-8"?>
<!-- Generator: Adobe Illustrator 18.1.1, SVG Export Plug-In . SVG Version: 6.00 Build 0)  -->
<svg version="1.1" id="Ebene_1" xmlns="http://www.w3.org/2000/svg" xmlns:xlink="http://www.w3.org/1999/xlink" x="0px" y="0px"
	 width="512px" height="512px" viewBox="0 0 512 512" enable-background="new 0 0 512 512" xml:space="preserve">
<g>
	<path fill="#454646" d="M446,245.6c0-97.2-80.3-176.1-179.4-176.1v176.1H446z"/>
	<path fill="#454646" d="M245.4,266.4V90.3C146.3,90.3,66,169.2,66,266.4c0,97.2,80.3,176.1,179.4,176.1
		c99.1,0,179.4-78.8,179.4-176.1v0H245.4z M130.1,358.1c-15.4-18.5-26.3-40.8-30.9-65.2l48.7,47.8L130.1,358.1z M165.7,323
		l-68.6-67.3c0.8-10.4,2.7-20.6,5.6-30.3l81.2,79.7L165.7,323z M201.9,287.6L113,200.3c4.1-7.7,8.8-15.1,14.1-21.9l87.5,85.9V275
		L201.9,287.6z M214.7,158.4l-26.6-26.1c8.5-3.5,17.4-6.2,26.6-8.1V158.4z M214.7,193.5v35.8l-70.5-69.2c6.3-5.8,13.2-11,20.5-15.7
		L214.7,193.5z M245.4,411.8c-35.3,0-67.7-12.1-93.3-32.3l83.9-82.4h9.4l145.3,0C376.2,362.6,316.6,411.8,245.4,411.8z"/>
</g>
</svg>
