<?xml version="1.0" encoding="utf-8"?>
<!-- Generator: Adobe Illustrator 16.0.4, SVG Export Plug-In . SVG Version: 6.00 Build 0)  -->
<!DOCTYPE svg PUBLIC "-//W3C//DTD SVG 1.1//EN" "http://www.w3.org/Graphics/SVG/1.1/DTD/svg11.dtd">
<svg version="1.1" id="Layer_1" xmlns="http://www.w3.org/2000/svg" xmlns:xlink="http://www.w3.org/1999/xlink" x="0px" y="0px"
	 width="512px" height="512px" viewBox="0 0 512 512" enable-background="new 0 0 512 512" xml:space="preserve">
<g>
	<path fill-rule="evenodd" clip-rule="evenodd" fill="#454646" d="M305.438,79.426h-98.882c-15.594,0-28.248,12.654-28.248,28.248
		v28.255h28.248c0,0,0-6.323,0-14.124c0-7.8,6.315-14.131,14.13-14.131h70.628c7.793,0,14.124,6.331,14.124,14.131
		c0,7.801,0,14.124,0,14.124h28.247v-28.255C333.685,92.08,321.038,79.426,305.438,79.426z"/>
	<g>
		<g>
			<path fill="#454646" d="M426.985,135.929H85c-10.457,0-19,8.543-19,19v162.19c0,7.652,6.219,13.871,13.871,13.871h39.952v-18.369
				c0-6.285,5.121-11.399,11.4-11.399h38.638c6.294,0,11.4,5.114,11.4,11.399v18.369h149.462v-18.369
				c0-6.285,5.112-11.399,11.399-11.399h38.639c6.279,0,11.4,5.114,11.4,11.399v18.369h39.967c7.637,0,13.856-6.212,13.871-13.849
				V154.929C446,144.472,437.442,135.929,426.985,135.929z"/>
		</g>
		<g>
			<path fill="#454646" d="M432.129,359.498h-39.967v13.3c0,6.286-5.121,11.4-11.4,11.4h-38.639c-6.287,0-11.399-5.114-11.399-11.4
				v-13.3H181.262v13.3c0,6.286-5.106,11.4-11.4,11.4h-38.638c-6.279,0-11.4-5.114-11.4-11.4v-13.3H79.871
				c-5.121,0-9.878-1.544-13.871-4.171v58.247c0,10.442,8.543,19,19,19h341.985c10.457,0,19.015-8.558,19.015-19v-58.247
				C442.014,357.954,437.242,359.498,432.129,359.498z"/>
		</g>
		<path fill="#454646" d="M140.857,319.91c-1.893,0-3.407,1.536-3.407,3.421v38.757c0,1.886,1.515,3.422,3.407,3.422h19.393
			c1.874,0,3.407-1.536,3.407-3.422v-38.757c0-1.885-1.533-3.421-3.407-3.421H140.857z"/>
		<path fill="#454646" d="M351.757,319.91c-1.893,0-3.414,1.536-3.414,3.421v38.757c0,1.886,1.521,3.422,3.414,3.422h19.386
			c1.878,0,3.414-1.536,3.414-3.422v-38.757c0-1.885-1.536-3.421-3.414-3.421H351.757z"/>
	</g>
</g>
</svg>
