<?xml version="1.0" encoding="utf-8"?>
<!-- Generator: Adobe Illustrator 18.1.1, SVG Export Plug-In . SVG Version: 6.00 Build 0)  -->
<svg version="1.1" id="Ebene_1" xmlns="http://www.w3.org/2000/svg" xmlns:xlink="http://www.w3.org/1999/xlink" x="0px" y="0px"
	 width="512px" height="512px" viewBox="0 0 512 512" enable-background="new 0 0 512 512" xml:space="preserve">
<g>
	<polygon fill="#454646" points="193.1,370.5 193.1,466 211,466 211,394.5 229,394.5 229,466 247,466 247,394.5 265,394.5 265,466 
		283,466 283,394.5 301,394.5 301,466 318.9,466 318.9,370.5 	"/>
	<path fill="#454646" d="M178.6,197.7v154.9h154.9V197.7H178.6z M256,320.9c-25.3,0-45.9-20.5-45.9-45.9c0-25.3,20.5-45.9,45.9-45.9
		s45.9,20.5,45.9,45.9C301.9,300.4,281.3,320.9,256,320.9z"/>
	<polygon fill="#454646" points="283.8,86 228.2,86 256,46 	"/>
	<polygon fill="#454646" points="291.7,126.8 291.7,104 220.4,104 220.4,126.8 220.3,126.8 178.6,179.7 333.4,179.7 	"/>
</g>
</svg>
