<?xml version="1.0" encoding="utf-8"?>
<!-- Generator: Adobe Illustrator 16.0.4, SVG Export Plug-In . SVG Version: 6.00 Build 0)  -->
<!DOCTYPE svg PUBLIC "-//W3C//DTD SVG 1.1//EN" "http://www.w3.org/Graphics/SVG/1.1/DTD/svg11.dtd">
<svg version="1.1" id="Layer_1" xmlns="http://www.w3.org/2000/svg" xmlns:xlink="http://www.w3.org/1999/xlink" x="0px" y="0px"
	 width="512px" height="512px" viewBox="0 0 512 512" enable-background="new 0 0 512 512" xml:space="preserve">
<g>
	<path fill="#454646" d="M186.008,122.34l97.475,41.889c9.178-6.397,19.865-9.76,31.086-9.76c7.078,0,13.977,1.344,20.4,3.934
		l27.275-28.04c0,0,12.421-12.335,9.281-25.16C339.507,80.636,299.474,66,255.996,66c-34.378,0-66.598,9.181-94.421,25.152
		C156.736,110.605,186.008,122.34,186.008,122.34z"/>
	<path fill="#454646" d="M418.316,157.207c-10.873-7.985-24.533,5.166-24.533,5.166l-28.406,26.89
		c6.728,17.137,4.315,36.538-6.559,51.53l39.812,105.405c0,0,5.296,12.899,19.301,9.203C435.721,326.485,446,292.449,446,256.008
		C446,219.818,435.877,185.997,418.316,157.207z"/>
	<path fill="#454646" d="M347.04,363.646l-30.133-100.299c-0.772,0.029-1.551,0.045-2.326,0.045
		c-17.141,0-32.929-7.809-43.307-21.42c-7.597-9.945-11.43-22.221-11.089-34.557l-94.51-32.218c0,0-60.348-22.511-80.22-2.969
		C73.018,197.508,66,225.934,66,256.008C66,360.945,151.068,446,255.996,446c30.066,0,58.488-7.014,83.756-19.445
		C361.25,411.132,347.04,363.646,347.04,363.646z"/>
</g>
</svg>
