<?xml version="1.0" encoding="utf-8"?>
<!-- Generator: Adobe Illustrator 16.0.4, SVG Export Plug-In . SVG Version: 6.00 Build 0)  -->
<!DOCTYPE svg PUBLIC "-//W3C//DTD SVG 1.1//EN" "http://www.w3.org/Graphics/SVG/1.1/DTD/svg11.dtd">
<svg version="1.1" id="Layer_1" xmlns="http://www.w3.org/2000/svg" xmlns:xlink="http://www.w3.org/1999/xlink" x="0px" y="0px"
	 width="512px" height="512px" viewBox="0 0 512 512" enable-background="new 0 0 512 512" xml:space="preserve">
<path fill="#454646" d="M256,66C151.233,66,66,151.24,66,256s85.233,190,190,190c104.771,0,190-85.24,190-190S360.771,66,256,66z
	 M165.026,187.927c-4.253-1.648-6.394-6.42-4.765-10.662c1.225-3.221,4.238-5.299,7.678-5.299c1.006,0,2.004,0.182,2.954,0.545
	l48.832,18.707c2.056,0.783,3.678,2.323,4.576,4.327c0.898,2.012,0.958,4.249,0.17,6.301c-1.202,3.14-4.268,5.244-7.629,5.277
	c1.054,2.835,1.659,5.89,1.659,9.096c0,14.436-11.697,26.162-26.144,26.162c-14.436,0-26.132-11.727-26.132-26.162
	c0-9.764,5.358-18.258,13.292-22.741L165.026,187.927z M328.029,382.914H184.026c-7.355,0-13.33-6.012-13.33-13.359
	c0-1.299,0.471-3.748,0.471-3.748c12.74-36.479,45.867-62.566,84.862-62.566c38.983,0,72.122,26.088,84.858,62.566
	c0,0,0.475,2.449,0.475,3.748C341.363,376.902,335.396,382.914,328.029,382.914z M347.003,187.919l-14.514,5.559
	c7.93,4.487,13.296,12.977,13.296,22.741c0,14.436-11.708,26.162-26.144,26.162s-26.144-11.727-26.144-26.162
	c0-3.221,0.612-6.29,1.674-9.136c-3.355-0.067-6.435-2.093-7.641-5.229c-0.787-2.06-0.727-4.297,0.171-6.309
	c0.894-2.004,2.52-3.544,4.579-4.331l48.821-18.699c0.958-0.364,1.956-0.549,2.965-0.549c3.437,0,6.45,2.078,7.682,5.325
	C353.371,181.507,351.234,186.279,347.003,187.919z"/>
</svg>
