<?xml version="1.0" encoding="utf-8"?>
<!-- Generator: Adobe Illustrator 19.2.1, SVG Export Plug-In . SVG Version: 6.00 Build 0)  -->
<svg version="1.1" id="Ebene_1" xmlns="http://www.w3.org/2000/svg" xmlns:xlink="http://www.w3.org/1999/xlink" x="0px" y="0px"
	 width="512px" height="512px" viewBox="0 0 512 512" enable-background="new 0 0 512 512" xml:space="preserve">
<g>
	<path fill="#454646" d="M111.1,192.8c-15,0-28.1,5.9-37.3,16.9c-2.4-12.4-10.2-15.2-16.7-15.2c-3.7,0-11.1,1.5-11.1,5v107
		c0,9,4.5,13.8,13,13.8h2.7c8.5,0,13-4.8,13-13.8v-69.3c5.9-11.9,17-18.6,30.5-18.6c15.5,0,24.7,11,24.7,29.5v58.4
		c0,9,4.5,13.8,13,13.8h2.7c8.5,0,13-4.8,13-13.8v-61.3C158.7,212.4,140.9,192.8,111.1,192.8"/>
	<path fill="#454646" d="M465,199.9c-2-2.4-8.5-6.9-15.2-6.9c-2.9,0-12.4,1.1-14.7,14.7l-16.8,75.9l-19-61.9
		c-2.1-7-7.3-10.2-16.8-10.2c-9.7,0-15,3.1-17.1,10.1l-19.8,62.6l-17.1-76.4c-2.6-13.3-11.3-14.8-15-14.8c-6.6,0-13.8,4.2-15.9,7.1
		c-0.9,1.3-0.8,2.3-0.7,2.9l30,107.7c2.4,8.3,9.6,9.5,17.1,9.5c10.1,0,14.2-2.4,16.8-10.1l21.1-64l20.5,64
		c2.6,7.8,6.4,10.1,17.1,10.1c7.5,0,14.7-1.1,16.8-9.5l29.7-108C466.2,201.4,465.3,200.2,465,199.9"/>
	<path fill="#454646" d="M290.6,227.2c-1.2-2.5-5.8-11.3-11.2-14c-8.7-5.1-17.8,2-20.7,7c-1.1,1.9-1.2,3.5-0.3,5
		c2.6,3.5,6,9.3,7,11.5c2.7,5.8,4.5,12.5,4.5,19.9c0,22.8-15.4,39.3-36.6,39.3c-21,0-36.9-17.1-36.9-39.8c0-7.2,1.6-13.8,4.4-19.5
		c1.7-3.4,3.9-7,7.3-11.4c0.9-1.5,0.8-3.1-0.3-5c-2.9-5-12-12.1-20.7-7c-5.2,3-9.5,9.9-11.5,13.9c-3.9,8.5-6.1,18.2-6.1,28.9
		c0,37.8,26.2,64.2,63.7,64.2c36.9,0,63.7-26.8,63.7-63.7C297,245.7,294.7,235.9,290.6,227.2"/>
	<path fill="#454646" d="M234.4,191.7h-1.9c-7.6,0-11.9,5.4-11.9,14.9v50.2c0,9.3,4.3,14.7,11.9,14.7h1.9c7.6,0,11.7-5.2,11.7-14.7
		v-50.2C246.1,197,241.9,191.7,234.4,191.7"/>
</g>
</svg>
