<?xml version="1.0" encoding="utf-8"?>
<!-- Generator: Adobe Illustrator 16.0.4, SVG Export Plug-In . SVG Version: 6.00 Build 0)  -->
<!DOCTYPE svg PUBLIC "-//W3C//DTD SVG 1.1//EN" "http://www.w3.org/Graphics/SVG/1.1/DTD/svg11.dtd">
<svg version="1.1" id="Layer_1" xmlns="http://www.w3.org/2000/svg" xmlns:xlink="http://www.w3.org/1999/xlink" x="0px" y="0px"
	 width="512px" height="512px" viewBox="0 0 512 512" enable-background="new 0 0 512 512" xml:space="preserve">
<g>
	<path fill="#454646" d="M122.823,115.342c-0.234-0.133-0.468-0.268-0.702-0.397c-9.986,13.777-20.086,27.473-29.93,41.35
		C75.39,180,66.563,206.396,66.028,235.509c-0.396,21.532,3.353,42.427,10.396,62.685c22.055,63.486,67.229,105.114,127.174,131.771
		c37.021,16.461,76.088,20.126,115.983,12.707c33.72-6.271,62.646-21.517,84.5-48.309c12.429-15.241,23.55-31.557,35.233-47.401
		c0.257-0.345,0.24-0.891,0.196-0.707c-8.349,6.799-16.444,14.506-25.591,20.649c-34.028,22.834-72.244,28.197-112.086,24.896
		c-24.064-1.992-47.009-8.673-68.768-19.252c-33.674-16.365-62.758-38.617-85.896-68.148c-21.973-28.047-35.37-59.902-40.501-95.215
		c-3.816-26.29-1.811-51.939,8.258-76.698C117.299,126.667,120.182,121.052,122.823,115.342z M443.98,246.021
		c-1.133,1.053-2.198,2.174-3.392,3.148c-5.024,4.115-9.763,8.719-15.204,12.189c-26.833,17.111-56.393,20.06-87.062,15.483
		c-18.921-2.825-36.456-9.889-52.724-19.937c-37.234-22.997-63.246-54.347-72.535-98.033c-4.405-20.717-4.013-41.142,3.892-61.06
		c1.681-4.237,3.621-8.368,5.442-12.546c-10.322,13.119-20.189,26.45-29.268,40.301c-9.193,14.026-13.535,29.911-14.025,46.565
		c-0.754,25.293,5.033,49.509,18.562,70.676c34.038,53.257,81.816,82.227,146.645,77.958c20.898-1.375,40.1-8.227,56.844-21.33
		C419.594,285.007,430.256,264.342,443.98,246.021z M446,170.523c-0.19-0.138-0.386-0.282-0.577-0.424
		c-3.36,2.524-6.564,5.319-10.12,7.539c-17.33,10.806-36.48,13.331-55.975,9.487c-32.981-6.502-58.001-24.843-73.001-55.163
		c-10.144-20.51-12.729-42.011-2.903-63.754c0.172-0.379,0.023-0.903,0.023-2.543c-6.299,8.911-12.053,16.77-17.467,24.854
		c-2.195,3.29-4.051,6.934-5.373,10.658c-8.439,23.777-4.172,46.386,8.639,67.088c17.866,28.874,44.133,45.862,78.216,49
		c19.227,1.773,37.783-1.974,52.72-15.093c7.457-6.546,13.152-15.115,19.523-22.874C441.986,176.527,443.913,173.461,446,170.523z"
		/>
</g>
</svg>
