<?xml version="1.0" encoding="utf-8"?>
<!-- Generator: Adobe Illustrator 19.2.1, SVG Export Plug-In . SVG Version: 6.00 Build 0)  -->
<svg version="1.1" id="Work_area" xmlns="http://www.w3.org/2000/svg" xmlns:xlink="http://www.w3.org/1999/xlink" x="0px" y="0px"
	 width="512px" height="512px" viewBox="0 0 512 512" enable-background="new 0 0 512 512" xml:space="preserve">
<path fill="#454646" d="M86.8,163.2v84.1l73.3-42.1L86.8,163.2z M347.7,112.9v84.2l72.7-42L347.7,112.9z M86.8,263.6v84.1l73.3-42.1
	L86.8,263.6z M347.7,213.4v84.1l72.7-42L347.7,213.4z M174.2,213.4v84.1l72.6-42L174.2,213.4z M182.2,227.3l48.6,28.2l-48.6,28.1
	V227.3z M261,163.2v84.1l72.6-42.1L261,163.2z M261,263.6v84.1l72.6-42.1L261,263.6z M269,277.4l48.7,28.1L269,333.8V277.4z
	 M174.2,112.9v84.2l72.6-42L174.2,112.9z M251.5,64l-72.7,42l72.7,42.1V64z M243.5,134.2L194.8,106l48.7-28.1V134.2z M261,64v84.1
	l72.6-42.1L261,64z M269,77.9l48.7,28.1L269,134.2V77.9z M164.8,297.4v-84.2l-73.2,42.2L164.8,297.4z M347.7,397.8l72.7-42.1
	l-72.7-42.1V397.8z M164.8,397.8v-84.2l-73.2,42.1L164.8,397.8z M338.3,297.4v-84.1l-72.5,42.1L338.3,297.4z M330.3,283.6
	l-48.5-28.1l48.5-28.2V283.6z M338.3,197.1v-84.2l-72.5,42.2L338.3,197.1z M425.2,347.6v-84.1l-72.5,42L425.2,347.6z M352.6,205.2
	l72.5,42.1v-84.1L352.6,205.2z M338.3,397.8v-84.2l-72.5,42.1L338.3,397.8z M330.3,383.9l-48.6-28.2l48.6-28.2V383.9z M174.2,313.6
	v84.2l72.6-42.1L174.2,313.6z M182.2,327.5l48.7,28.2l-48.7,28.2V327.5z M261,448l72.6-42.1L261,363.9V448z M269,377.8l48.7,28.1
	L269,434.1V377.8z M164.8,197.1v-84.2l-73.2,42.2L164.8,197.1z M251.5,448v-84.1l-72.7,42L251.5,448z M243.5,434.1l-48.7-28.2
	l48.7-28.1V434.1z M251.5,347.6v-84.1l-72.7,42L251.5,347.6z M243.5,333.8l-48.7-28.2l48.7-28.1V333.8z M251.5,247.3v-84.1l-72.7,42
	L251.5,247.3z"/>
</svg>
