<?xml version="1.0" encoding="utf-8"?>
<!-- Generator: Adobe Illustrator 16.0.4, SVG Export Plug-In . SVG Version: 6.00 Build 0)  -->
<!DOCTYPE svg PUBLIC "-//W3C//DTD SVG 1.1//EN" "http://www.w3.org/Graphics/SVG/1.1/DTD/svg11.dtd">
<svg version="1.1" id="Layer_1" xmlns="http://www.w3.org/2000/svg" xmlns:xlink="http://www.w3.org/1999/xlink" x="0px" y="0px"
	 width="512px" height="512px" viewBox="0 0 512 512" enable-background="new 0 0 512 512" xml:space="preserve">
<g>
	<g>
		<rect x="181.409" y="258.676" fill="#454646" width="34.061" height="19.946"/>
	</g>
	<g>
		<rect x="181.409" y="301.076" fill="#454646" width="34.061" height="19.943"/>
	</g>
	<g>
		<rect x="181.409" y="216.277" fill="#454646" width="34.061" height="19.946"/>
	</g>
	<g>
		<rect x="310.644" y="216.277" fill="#454646" width="34.059" height="19.946"/>
	</g>
	<g>
		<rect x="246.027" y="216.277" fill="#454646" width="34.061" height="19.946"/>
	</g>
	<g>
		<rect x="310.644" y="258.676" fill="#454646" width="34.059" height="19.946"/>
	</g>
	<g>
		<g>
			<path fill="#454646" d="M388.334,219.603c0.431-3.501,0.656-7.066,0.656-10.68c0-47.547-38.542-86.082-86.085-86.082
				c-38.243,0-70.667,24.94-81.882,59.45c-9.38-4.654-19.95-7.277-31.133-7.277c-38.31,0-69.433,30.738-70.078,68.898
				C88.056,255.91,66,282.376,66,313.1c0,42.004,41.226,76.058,92.08,76.058c37.589,0,138.371,0,178.855,0
				c60.233,0,109.064-40.337,109.064-90.092C446,264.672,422.646,234.783,388.334,219.603z M221.961,363.417
				c0,3.574-2.919,6.491-6.491,6.491h-34.061c-3.57,0-6.491-2.917-6.491-6.491v-19.946c0-3.57,2.921-6.491,6.491-6.491h34.061
				c3.572,0,6.491,2.921,6.491,6.491V363.417z M221.961,321.019c0,3.574-2.919,6.491-6.491,6.491h-34.061
				c-3.57,0-6.491-2.917-6.491-6.491v-19.943c0-3.574,2.921-6.491,6.491-6.491h34.061c3.572,0,6.491,2.917,6.491,6.491V321.019z
				 M221.961,278.622c0,3.568-2.919,6.491-6.491,6.491h-34.061c-3.57,0-6.491-2.923-6.491-6.491v-19.946
				c0-3.572,2.921-6.491,6.491-6.491h34.061c3.572,0,6.491,2.919,6.491,6.491V278.622z M221.961,236.224
				c0,3.568-2.919,6.491-6.491,6.491h-34.061c-3.57,0-6.491-2.923-6.491-6.491v-19.946c0-3.571,2.921-6.491,6.491-6.491h34.061
				c3.572,0,6.491,2.92,6.491,6.491V236.224z M286.579,363.417c0,3.574-2.919,6.491-6.491,6.491h-34.061
				c-3.569,0-6.491-2.917-6.491-6.491v-19.946c0-3.57,2.922-6.491,6.491-6.491h34.061c3.572,0,6.491,2.921,6.491,6.491V363.417z
				 M286.579,321.019c0,3.574-2.919,6.491-6.491,6.491h-34.061c-3.569,0-6.491-2.917-6.491-6.491v-19.943
				c0-3.574,2.922-6.491,6.491-6.491h34.061c3.572,0,6.491,2.917,6.491,6.491V321.019z M286.579,278.622
				c0,3.568-2.919,6.491-6.491,6.491h-34.061c-3.569,0-6.491-2.923-6.491-6.491v-19.946c0-3.572,2.922-6.491,6.491-6.491h34.061
				c3.572,0,6.491,2.919,6.491,6.491V278.622z M286.579,236.224c0,3.568-2.919,6.491-6.491,6.491h-34.061
				c-3.569,0-6.491-2.923-6.491-6.491v-19.946c0-3.571,2.922-6.491,6.491-6.491h34.061c3.572,0,6.491,2.92,6.491,6.491V236.224z
				 M351.194,363.417c0,3.574-2.919,6.491-6.491,6.491h-34.059c-3.569,0-6.491-2.917-6.491-6.491v-19.946
				c0-3.57,2.922-6.491,6.491-6.491h34.059c3.572,0,6.491,2.921,6.491,6.491V363.417z M351.194,321.019
				c0,3.574-2.919,6.491-6.491,6.491h-34.059c-3.569,0-6.491-2.917-6.491-6.491v-19.943c0-3.574,2.922-6.491,6.491-6.491h34.059
				c3.572,0,6.491,2.917,6.491,6.491V321.019z M351.194,278.622c0,3.568-2.919,6.491-6.491,6.491h-34.059
				c-3.569,0-6.491-2.923-6.491-6.491v-19.946c0-3.572,2.922-6.491,6.491-6.491h34.059c3.572,0,6.491,2.919,6.491,6.491V278.622z
				 M351.194,236.224c0,3.568-2.919,6.491-6.491,6.491h-34.059c-3.569,0-6.491-2.923-6.491-6.491v-19.946
				c0-3.571,2.922-6.491,6.491-6.491h34.059c3.572,0,6.491,2.92,6.491,6.491V236.224z"/>
		</g>
	</g>
</g>
</svg>
