<?xml version="1.0" encoding="utf-8"?>
<!-- Generator: Adobe Illustrator 19.2.1, SVG Export Plug-In . SVG Version: 6.00 Build 0)  -->
<svg version="1.1" id="Work_area" xmlns="http://www.w3.org/2000/svg" xmlns:xlink="http://www.w3.org/1999/xlink" x="0px" y="0px"
	 width="512px" height="512px" viewBox="0 0 512 512" enable-background="new 0 0 512 512" xml:space="preserve">
<g>
	<g>
		<path fill="#454646" d="M466,367V231h-84.9c15.5,18,24.9,42.1,24.9,68c0,25.9-9.4,50-24.9,68H466z"/>
		<path fill="#454646" d="M46,231v136h174.8c-15.5-18-24.9-42.1-24.9-68c0-25.9,9.4-50,24.9-68H46z"/>
		<path fill="#454646" d="M369.1,379c-18.3,16-42.1,25.1-68.2,25.1s-49.8-9.1-68.2-25.1H46v34c0,10.5,8.5,19,19,19h382
			c10.5,0,19-8.5,19-19v-34H369.1z"/>
	</g>
	<circle fill="#454646" cx="301" cy="299" r="80"/>
	<path fill="#454646" d="M447,166h-71v-60c0-16.6-13.5-30-30-30h-90c-16.6,0-30,13.4-30,30v60h-40v-10c0-5.5-4.5-10-10-10h-56
		c-5.5,0-10,4.5-10,10v10H65c-10.5,0-19,8.5-19,19v34h186.8c18.3-15,42.1-25.1,68.2-25.1s49.8,10.1,68.2,25.1H466v-34
		C466,174.5,457.5,166,447,166z M336,134c0,1.7-1.3,3-3,3h-64c-1.7,0-3-1.3-3-3v-26c0-1.7,1.3-3,3-3h64c1.7,0,3,1.3,3,3V134z
		 M439.4,200.6c-4.4,0-8-3.6-8-8s3.6-8,8-8s8,3.6,8,8S443.8,200.6,439.4,200.6z"/>
</g>
</svg>
