<?xml version="1.0" encoding="utf-8"?>
<!-- Generator: Adobe Illustrator 16.0.4, SVG Export Plug-In . SVG Version: 6.00 Build 0)  -->
<!DOCTYPE svg PUBLIC "-//W3C//DTD SVG 1.1//EN" "http://www.w3.org/Graphics/SVG/1.1/DTD/svg11.dtd">
<svg version="1.1" id="Layer_1" xmlns="http://www.w3.org/2000/svg" xmlns:xlink="http://www.w3.org/1999/xlink" x="0px" y="0px"
	 width="512px" height="512px" viewBox="0 0 512 512" enable-background="new 0 0 512 512" xml:space="preserve">
<g>
	<path fill="#454646" d="M426.805,66H302.339c-10.556,0-19.193,8.637-19.193,19.193v32.617h91.299
		c10.863,0,19.748,8.884,19.748,19.744v91.303h32.613c10.557,0,19.193-8.637,19.193-19.193V85.193
		C445.998,74.637,437.361,66,426.805,66z"/>
	<path fill="#454646" d="M426.805,283.144h-32.613v91.303c0,10.859-8.885,19.744-19.748,19.744h-91.299v32.617
		c0,10.556,8.637,19.193,19.193,19.193h124.466c10.557,0,19.193-8.637,19.193-19.193v-124.47
		C445.998,291.781,437.361,283.144,426.805,283.144z"/>
	<path fill="#454646" d="M117.812,137.554c0-10.859,8.881-19.744,19.74-19.744h91.303V85.193c0-10.556-8.637-19.193-19.193-19.193
		H85.195c-10.557,0-19.193,8.637-19.193,19.193v124.47c0,10.556,8.637,19.193,19.193,19.193h32.617V137.554z"/>
	<path fill="#454646" d="M137.552,394.19c-10.859,0-19.74-8.884-19.74-19.744v-91.303H85.195c-10.557,0-19.193,8.637-19.193,19.193
		v124.47c0,10.556,8.637,19.193,19.193,19.193h124.466c10.556,0,19.193-8.637,19.193-19.193V394.19H137.552z"/>
	<g>
		<path fill="#454646" d="M371.16,160.031c0-10.557-8.637-19.193-19.193-19.193h-191.93c-10.556,0-19.193,8.637-19.193,19.193
			v191.938c0,10.557,8.637,19.193,19.193,19.193h191.93c10.557,0,19.193-8.637,19.193-19.193V160.031z"/>
	</g>
</g>
</svg>
