<?xml version="1.0" encoding="utf-8"?>
<!-- Generator: Adobe Illustrator 16.0.4, SVG Export Plug-In . SVG Version: 6.00 Build 0)  -->
<!DOCTYPE svg PUBLIC "-//W3C//DTD SVG 1.1//EN" "http://www.w3.org/Graphics/SVG/1.1/DTD/svg11.dtd">
<svg version="1.1" id="Layer_1" xmlns="http://www.w3.org/2000/svg" xmlns:xlink="http://www.w3.org/1999/xlink" x="0px" y="0px"
	 width="512px" height="512px" viewBox="0 0 512 512" enable-background="new 0 0 512 512" xml:space="preserve">
<path fill-rule="evenodd" clip-rule="evenodd" fill="#454646" d="M416.438,140.847c-2.449,6.746-4.601,13.8-20.54,45.399
	c-15.938,31.599-33.513,50.754-65.368,61.976c-32.901,11.589-59.876,32.79-79.184,62.574c-23.817,36.75-47.708,73.45-71.257,110.352
	c-10.955,17.174-25.435,27.049-46.398,24.436c-18.288-2.297-31.305-12.097-37.224-29.691c-6.568-19.571-1.443-35.781,13.522-50.55
	c30.344-29.91,58.744-61.812,89.56-91.218c27.995-26.678,41.71-59.07,48.153-96.22c4.404-25.36,10.639-50.499,17.641-75.276
	c5.908-20.871,20.981-34.809,42.616-36.126c24.322-1.477,48.896,0.631,73.306,2.097c4.071,0.249,10.584,3.61,14.736,10.02
	c-21.125,10.394-38.841,18.848-56.305,27.817c-14.695,7.533-18.981,20.622-11.883,34.271c7.764,14.925,23.042,19.734,37.659,11.519
	c16.158-9.096,32.118-18.499,48.172-27.78C420.135,128.923,418.695,135.596,416.438,140.847z M120.841,417.459
	c8.394,10.146,24.38,10.49,33.799,1.388c9.359-9.04,9.633-25.334-0.137-33.896c-10.554-9.262-21.731-8.535-32.771-0.159
	C112.967,395.497,111.831,406.585,120.841,417.459z"/>
</svg>
