<?xml version="1.0" encoding="utf-8"?>
<!-- Generator: Adobe Illustrator 16.0.4, SVG Export Plug-In . SVG Version: 6.00 Build 0)  -->
<!DOCTYPE svg PUBLIC "-//W3C//DTD SVG 1.1//EN" "http://www.w3.org/Graphics/SVG/1.1/DTD/svg11.dtd">
<svg version="1.1" id="Layer_1" xmlns="http://www.w3.org/2000/svg" xmlns:xlink="http://www.w3.org/1999/xlink" x="0px" y="0px"
	 width="512px" height="512px" viewBox="0 0 512 512" enable-background="new 0 0 512 512" xml:space="preserve">
<g>
	<path fill="#454646" d="M150.63,167.33c-7.383,3.739-15.704,5.89-24.542,5.89c-10.2,0-19.709-2.854-27.871-7.729l-1.855,1.417
		l-0.55,0.422h-0.693H71.995c13.312,14.806,32.611,24.128,54.093,24.128c21.479,0,40.777-9.322,54.091-24.128H150.63z"/>
	<path fill="#454646" d="M178.504,103.991c1.318,4.695,2.073,9.625,2.073,14.738c0,10.803-3.184,20.838-8.604,29.308l11.6,15.216
		c9.545-12.309,15.241-27.743,15.241-44.523c0-9.343-1.781-18.267-4.991-26.474L178.504,103.991z"/>
	<g>
		<path fill="#454646" d="M75.852,139.866c-2.737-6.503-4.255-13.643-4.255-21.137c0-11.584,3.64-22.3,9.804-31.133L75,79.203
			l-2.504-3.285h4.129h15.825c9.266-7.292,20.932-11.68,33.639-11.68s24.37,4.388,33.637,11.68h0.303h24.838
			C171.639,57.787,150.243,46,126.088,46c-40.169,0-72.729,32.565-72.729,72.729c0,11.683,2.772,22.71,7.666,32.489L75.852,139.866z
			"/>
		<polygon fill="#454646" points="76.624,77.96 115.97,77.96 132.212,99.265 160.027,77.96 209.127,77.96 150.319,123.006 
			182.558,165.288 143.211,165.288 125.479,142.032 95.119,165.288 46.02,165.288 107.376,118.291 		"/>
	</g>
</g>
</svg>
