<?xml version="1.0" encoding="utf-8"?>
<!-- Generator: Adobe Illustrator 16.0.4, SVG Export Plug-In . SVG Version: 6.00 Build 0)  -->
<!DOCTYPE svg PUBLIC "-//W3C//DTD SVG 1.1//EN" "http://www.w3.org/Graphics/SVG/1.1/DTD/svg11.dtd">
<svg version="1.1" id="Layer_1" xmlns="http://www.w3.org/2000/svg" xmlns:xlink="http://www.w3.org/1999/xlink" x="0px" y="0px"
	 width="512px" height="512px" viewBox="0 0 512 512" enable-background="new 0 0 512 512" xml:space="preserve">
<g>
	<path fill="#454646" d="M273.971,437.617c-78.241-23.9-135.099-96.163-135.099-181.622c0-86.376,58.091-159.287,137.634-182.373
		c8.13-2.355,5.994-7.622-3.799-7.622C166.942,66,81.22,151.063,81.22,255.995C81.22,360.937,166.942,446,272.708,446
		C282.505,446,282.9,440.348,273.971,437.617z"/>
	<path fill="#454646" d="M175.135,300.485c-5.643-54.204,20.877-162.662,150.07-166.31c78.744-2.224,102.435,35.2,105.355,32.898
		c3.214-2.531-28.582-72.253-121.088-72.253c-83.323,0-150.859,67.547-150.859,150.869c0,19.243,3.613,37.629,10.192,54.551
		C171.575,307.352,175.847,307.376,175.135,300.485z"/>
	<path fill="#454646" d="M238.342,191.77c39.194-17.083,88.473-17.561,136.878-0.668c32.503,11.348,51.371,27.538,52.902,26.895
		c2.565-1.111-18.921-35.132-57.686-49.83c-46.943-17.814-97.543-8.495-134.376,20.385
		C231.987,191.73,233.533,193.871,238.342,191.77z"/>
</g>
</svg>
