<?xml version="1.0" encoding="utf-8"?>
<!-- Generator: Adobe Illustrator 16.0.4, SVG Export Plug-In . SVG Version: 6.00 Build 0)  -->
<!DOCTYPE svg PUBLIC "-//W3C//DTD SVG 1.1//EN" "http://www.w3.org/Graphics/SVG/1.1/DTD/svg11.dtd">
<svg version="1.1" id="Layer_1" xmlns="http://www.w3.org/2000/svg" xmlns:xlink="http://www.w3.org/1999/xlink" x="0px" y="0px"
	 width="512px" height="512px" viewBox="0 0 512 512" enable-background="new 0 0 512 512" xml:space="preserve">
<g>
	<g>
		<g>
			<g>
				<path fill="#454646" d="M52.115,245.805c-1.633,0-3.176-0.653-4.321-1.796c-1.142-1.139-1.794-2.732-1.794-4.32
					c0-1.59,0.652-3.183,1.794-4.321c2.245-2.286,6.362-2.286,8.648,0c1.139,1.139,1.792,2.731,1.792,4.321
					c0,1.588-0.653,3.182-1.792,4.32C55.296,245.152,53.71,245.805,52.115,245.805z"/>
			</g>
			<g>
				<path fill="#454646" d="M398.135,459.901c0-3.385,2.732-6.117,6.117-6.117l0,0c3.385,0,6.117,2.731,6.117,6.117l0,0
					c0,3.345-2.732,6.117-6.117,6.117l0,0C400.867,466.018,398.135,463.246,398.135,459.901z M373.877,459.901
					c0-3.385,2.729-6.117,6.114-6.117l0,0c3.345,0,6.117,2.731,6.117,6.117l0,0c0,3.345-2.772,6.117-6.117,6.117l0,0
					C376.606,466.018,373.877,463.246,373.877,459.901z M349.565,459.901c0-3.385,2.771-6.117,6.116-6.117l0,0
					c3.385,0,6.118,2.731,6.118,6.117l0,0c0,3.345-2.733,6.117-6.118,6.117l0,0C352.336,466.018,349.565,463.246,349.565,459.901z
					 M325.303,459.901c0-3.385,2.732-6.117,6.117-6.117l0,0c3.387,0,6.119,2.731,6.119,6.117l0,0c0,3.345-2.732,6.117-6.119,6.117
					l0,0C328.035,466.018,325.303,463.246,325.303,459.901z M301.035,459.901c0-3.385,2.74-6.117,6.117-6.117l0,0
					c3.386,0,6.117,2.731,6.117,6.117l0,0c0,3.345-2.731,6.117-6.117,6.117l0,0C303.775,466.018,301.035,463.246,301.035,459.901z
					 M276.774,459.901c0-3.385,2.732-6.117,6.117-6.117l0,0c3.345,0,6.117,2.731,6.117,6.117l0,0c0,3.345-2.772,6.117-6.117,6.117
					l0,0C279.507,466.018,276.774,463.246,276.774,459.901z M252.474,459.901c0-3.385,2.772-6.117,6.117-6.117l0,0
					c3.385,0,6.118,2.731,6.118,6.117l0,0c0,3.345-2.733,6.117-6.118,6.117l0,0C255.246,466.018,252.474,463.246,252.474,459.901z
					 M228.203,459.901c0-3.385,2.732-6.117,6.119-6.117l0,0c3.385,0,6.117,2.731,6.117,6.117l0,0c0,3.345-2.732,6.117-6.117,6.117
					l0,0C230.936,466.018,228.203,463.246,228.203,459.901z M203.944,459.901c0-3.385,2.731-6.117,6.117-6.117l0,0
					c3.385,0,6.116,2.731,6.116,6.117l0,0c0,3.345-2.731,6.117-6.116,6.117l0,0C206.676,466.018,203.944,463.246,203.944,459.901z
					 M179.675,459.901c0-3.385,2.732-6.117,6.118-6.117l0,0c3.345,0,6.116,2.731,6.116,6.117l0,0c0,3.345-2.771,6.117-6.116,6.117
					l0,0C182.407,466.018,179.675,463.246,179.675,459.901z M155.375,459.901c0-3.385,2.731-6.117,6.116-6.117l0,0
					c3.386,0,6.117,2.731,6.117,6.117l0,0c0,3.345-2.731,6.117-6.117,6.117l0,0C158.106,466.018,155.375,463.246,155.375,459.901z
					 M131.105,459.901c0-3.385,2.73-6.117,6.116-6.117l0,0c3.386,0,6.117,2.731,6.117,6.117l0,0c0,3.345-2.731,6.117-6.117,6.117
					l0,0C133.836,466.018,131.105,463.246,131.105,459.901z M106.844,459.901c0-3.385,2.732-6.117,6.117-6.117l0,0
					c3.386,0,6.117,2.731,6.117,6.117l0,0c0,3.345-2.731,6.117-6.117,6.117l0,0C109.576,466.018,106.844,463.246,106.844,459.901z
					 M82.584,459.901c0-3.385,2.73-6.117,6.115-6.117l0,0c3.336,0,6.118,2.731,6.118,6.117l0,0c0,3.345-2.782,6.117-6.118,6.117l0,0
					C85.314,466.018,82.584,463.246,82.584,459.901z M422.402,460.104c-0.125-3.386,2.527-6.241,5.872-6.36l0,0
					c3.386-0.124,6.237,2.529,6.362,5.87l0,0c0.121,3.385-2.491,6.24-5.876,6.364l0,0c-0.08,0-0.159,0-0.241,0l0,0
					C425.256,465.978,422.524,463.366,422.402,460.104z M62.152,458.678c-2.779-1.959-3.384-5.791-1.393-8.522l0,0
					c1.957-2.776,5.789-3.385,8.53-1.39l0,0c2.771,1.959,3.378,5.794,1.386,8.526l0,0c-1.187,1.668-3.061,2.569-4.979,2.529l0,0
					C64.469,459.821,63.213,459.451,62.152,458.678z M445.933,454.68c-2.405-2.405-2.405-6.28,0-8.646l0,0
					c2.406-2.405,6.277-2.366,8.643,0l0,0c2.405,2.409,2.405,6.28,0,8.689l0,0c-1.219,1.179-2.774,1.752-4.317,1.752l0,0
					C448.665,456.476,447.111,455.863,445.933,454.68z M46.812,435.066c-0.693-3.306,1.434-6.527,4.731-7.22l0,0
					c3.306-0.693,6.571,1.43,7.225,4.731l0,0l0,0l0,0c0.692,3.346-1.433,6.567-4.733,7.26l0,0c-0.412,0.08-0.858,0.124-1.266,0.124
					l0,0C49.96,439.961,47.385,437.962,46.812,435.066z M459.593,434.819c-3.346-0.163-5.998-3.015-5.83-6.399l0,0
					c0.157-3.385,3.019-5.998,6.364-5.834l0,0c3.385,0.124,5.988,2.979,5.869,6.364l0,0c-0.167,3.302-2.861,5.87-6.116,5.87l0,0
					C459.8,434.819,459.712,434.819,459.593,434.819z M46,409.619c0-3.385,2.73-6.117,6.115-6.117l0,0
					c3.387,0,6.119,2.732,6.119,6.117l0,0c0,3.345-2.732,6.117-6.119,6.117l0,0C48.73,415.735,46,412.964,46,409.619z
					 M453.801,404.441c0-3.385,2.733-6.117,6.079-6.117l0,0c3.385,0,6.116,2.732,6.116,6.117l0,0c0,3.341-2.731,6.073-6.116,6.073
					l0,0C456.534,410.515,453.801,407.783,453.801,404.441z M46,385.314c0-3.346,2.73-6.078,6.115-6.078l0,0
					c3.387,0,6.119,2.732,6.119,6.078l0,0c0,3.424-2.732,6.156-6.119,6.156l0,0C48.73,391.471,46,388.739,46,385.314z
					 M453.801,380.137c0-3.385,2.733-6.117,6.079-6.117l0,0c3.385,0,6.116,2.732,6.116,6.117l0,0c0,3.381-2.731,6.117-6.116,6.117
					l0,0C456.534,386.254,453.801,383.518,453.801,380.137z M46,361.049c0-3.385,2.73-6.117,6.115-6.117l0,0
					c3.387,0,6.119,2.732,6.119,6.117l0,0c0,3.385-2.732,6.117-6.119,6.117l0,0C48.73,367.166,46,364.434,46,361.049z
					 M453.801,355.872c0-3.385,2.733-6.117,6.079-6.117l0,0c3.385,0,6.116,2.731,6.116,6.117l0,0c0,3.385-2.731,6.117-6.116,6.117
					l0,0C456.534,361.989,453.801,359.257,453.801,355.872z M46,336.784c0-3.381,2.73-6.117,6.115-6.117l0,0
					c3.387,0,6.119,2.736,6.119,6.117l0,0c0,3.385-2.732,6.117-6.119,6.117l0,0C48.73,342.901,46,340.169,46,336.784z
					 M453.801,331.606c0-3.385,2.733-6.117,6.079-6.117l0,0c3.385,0,6.116,2.732,6.116,6.117l0,0c0,3.385-2.731,6.117-6.116,6.117
					l0,0C456.534,337.724,453.801,334.992,453.801,331.606z M46,312.522c0-3.385,2.73-6.117,6.115-6.117l0,0
					c3.387,0,6.119,2.732,6.119,6.117l0,0c0,3.385-2.732,6.117-6.119,6.117l0,0C48.73,318.64,46,315.908,46,312.522z
					 M453.801,307.302c0-3.345,2.733-6.077,6.079-6.077l0,0c3.385,0,6.116,2.732,6.116,6.077l0,0c0,3.385-2.731,6.117-6.116,6.117
					l0,0C456.534,313.419,453.801,310.687,453.801,307.302z M46,288.218c0-3.345,2.73-6.117,6.115-6.117l0,0
					c3.387,0,6.119,2.771,6.119,6.117l0,0c0,3.385-2.732,6.117-6.119,6.117l0,0C48.73,294.335,46,291.603,46,288.218z
					 M453.801,283.037c0-3.385,2.733-6.117,6.079-6.117l0,0c3.385,0,6.116,2.732,6.116,6.117l0,0c0,3.385-2.731,6.117-6.116,6.117
					l0,0C456.534,289.154,453.801,286.422,453.801,283.037z M46,263.953c0-3.385,2.73-6.117,6.115-6.117l0,0
					c3.387,0,6.119,2.732,6.119,6.117l0,0c0,3.385-2.732,6.117-6.119,6.117l0,0C48.73,270.07,46,267.338,46,263.953z
					 M453.801,258.771c0-3.385,2.733-6.117,6.079-6.117l0,0c3.385,0,6.116,2.732,6.116,6.117l0,0c0,3.385-2.731,6.117-6.116,6.117
					l0,0C456.534,264.889,453.801,262.157,453.801,258.771z M453.801,234.511c0-3.385,2.733-6.117,6.079-6.117l0,0
					c3.385,0,6.116,2.732,6.116,6.117l0,0c0,3.381-2.731,6.117-6.116,6.117l0,0C456.534,240.628,453.801,237.892,453.801,234.511z
					 M453.801,210.246c0-3.425,2.733-6.117,6.079-6.117l0,0c3.385,0,6.116,2.692,6.116,6.117l0,0c0,3.341-2.731,6.073-6.116,6.073
					l0,0C456.534,216.319,453.801,213.587,453.801,210.246z M453.801,185.941c0-3.385,2.733-6.117,6.079-6.117l0,0
					c3.385,0,6.116,2.732,6.116,6.117l0,0c0,3.385-2.731,6.117-6.116,6.117l0,0C456.534,192.058,453.801,189.326,453.801,185.941z
					 M453.801,161.676c0-3.385,2.733-6.117,6.079-6.117l0,0c3.385,0,6.116,2.732,6.116,6.117l0,0c0,3.385-2.731,6.117-6.116,6.117
					l0,0C456.534,167.793,453.801,165.061,453.801,161.676z M453.801,137.411c0-3.385,2.733-6.117,6.079-6.117l0,0
					c3.385,0,6.116,2.732,6.116,6.117l0,0c0,3.345-2.731,6.117-6.116,6.117l0,0C456.534,143.528,453.801,140.756,453.801,137.411z
					 M453.801,113.106c0-3.346,2.733-6.117,6.079-6.117l0,0c3.385,0,6.116,2.771,6.116,6.117l0,0c0,3.385-2.731,6.117-6.116,6.117
					l0,0C456.534,119.223,453.801,116.491,453.801,113.106z M453.801,88.841c0-3.385,2.733-6.117,6.079-6.117l0,0
					c3.385,0,6.116,2.732,6.116,6.117l0,0c0,3.385-2.731,6.117-6.116,6.117l0,0C456.534,94.958,453.801,92.226,453.801,88.841z
					 M448.864,69.391c-1.951-2.732-1.338-6.567,1.434-8.522l0,0c2.731-1.959,6.562-1.346,8.521,1.426l0,0
					c1.961,2.732,1.309,6.567-1.424,8.522l0,0c-1.067,0.777-2.328,1.143-3.553,1.143l0,0
					C451.923,71.959,450.049,71.063,448.864,69.391z M432.759,58.786c-3.306-0.693-5.423-3.955-4.73-7.256l0,0
					c0.732-3.306,3.958-5.424,7.304-4.691v-0.04c3.257,0.733,5.377,3.955,4.682,7.3l0,0c-0.604,2.855-3.136,4.811-5.988,4.811l0,0
					C433.619,58.909,433.165,58.869,432.759,58.786z M403.686,52.099c0-3.385,2.732-6.117,6.117-6.117l0,0
					c3.379,0,6.117,2.732,6.117,6.117l0,0c0,3.385-2.738,6.117-6.117,6.117l0,0C406.418,58.216,403.686,55.484,403.686,52.099z
					 M379.418,52.099c0-3.385,2.732-6.117,6.117-6.117l0,0c3.383,0,6.115,2.732,6.115,6.117l0,0c0,3.385-2.732,6.117-6.115,6.117
					l0,0C382.15,58.216,379.418,55.484,379.418,52.099z M355.157,52.099c0-3.385,2.732-6.117,6.117-6.117l0,0
					c3.385,0,6.117,2.732,6.117,6.117l0,0c0,3.385-2.732,6.117-6.117,6.117l0,0C357.89,58.216,355.157,55.484,355.157,52.099z
					 M330.888,52.099c0-3.385,2.731-6.117,6.117-6.117l0,0c3.345,0,6.079,2.732,6.079,6.117l0,0c0,3.385-2.734,6.117-6.079,6.117
					l0,0C333.619,58.216,330.888,55.484,330.888,52.099z M306.586,52.099c0-3.385,2.732-6.117,6.117-6.117l0,0
					c3.387,0,6.118,2.732,6.118,6.117l0,0c0,3.385-2.731,6.117-6.118,6.117l0,0C309.318,58.216,306.586,55.484,306.586,52.099z
					 M282.318,52.099c0-3.385,2.73-6.117,6.115-6.117l0,0c3.385,0,6.119,2.732,6.119,6.117l0,0c0,3.385-2.734,6.117-6.119,6.117l0,0
					C285.049,58.216,282.318,55.484,282.318,52.099z M258.058,52.099c0-3.385,2.731-6.117,6.117-6.117l0,0
					c3.385,0,6.116,2.732,6.116,6.117l0,0c0,3.385-2.731,6.117-6.116,6.117l0,0C260.789,58.216,258.058,55.484,258.058,52.099z"/>
			</g>
			<g>
				<path fill="#454646" d="M239.706,58.216c-1.633,0-3.178-0.653-4.325-1.796c-1.139-1.139-1.792-2.731-1.792-4.321
					c0-1.589,0.653-3.182,1.792-4.321c2.287-2.286,6.364-2.286,8.65,0c1.137,1.139,1.792,2.732,1.792,4.321
					c0,1.589-0.655,3.182-1.792,4.321C242.884,57.563,241.339,58.216,239.706,58.216z"/>
			</g>
		</g>
	</g>
</g>
</svg>
