<?xml version="1.0" encoding="utf-8"?>
<!-- Generator: Adobe Illustrator 19.2.1, SVG Export Plug-In . SVG Version: 6.00 Build 0)  -->
<svg version="1.1" id="Work_area" xmlns="http://www.w3.org/2000/svg" xmlns:xlink="http://www.w3.org/1999/xlink" x="0px" y="0px"
	 width="512px" height="512px" viewBox="0 0 512 512" enable-background="new 0 0 512 512" xml:space="preserve">
<g>
	<g>
		<path fill="#454646" d="M385.2,138.5c0.4-3.4,0.6-6.9,0.6-10.4c0-46.4-37.6-84-84-84c-37.3,0-69,24.4-79.9,58
			c-9.2-4.5-19.5-7.1-30.4-7.1c-37.4,0-67.8,30-68.4,67.3c-31,11.7-52.5,37.6-52.5,67.6c0,41,40.2,74.2,89.9,74.2
			c36.7,0,135.1,0,174.6,0c58.8,0,106.5-39.4,106.5-87.9C441.5,182.5,418.7,153.3,385.2,138.5z"/>
	</g>
	<polygon fill="#454646" points="256,468 344,379.4 283,379.4 283,336.4 229,336.4 229,379.4 168,379.4 	"/>
</g>
</svg>
