<?xml version="1.0" encoding="utf-8"?>
<!-- Generator: Adobe Illustrator 16.0.4, SVG Export Plug-In . SVG Version: 6.00 Build 0)  -->
<!DOCTYPE svg PUBLIC "-//W3C//DTD SVG 1.1//EN" "http://www.w3.org/Graphics/SVG/1.1/DTD/svg11.dtd">
<svg version="1.1" id="Layer_1" xmlns="http://www.w3.org/2000/svg" xmlns:xlink="http://www.w3.org/1999/xlink" x="0px" y="0px"
	 width="512px" height="512px" viewBox="0 0 512 512" enable-background="new 0 0 512 512" xml:space="preserve">
<path fill="#454646" d="M426.812,228.848c10.547,0,19.19-8.63,19.19-19.186V85.191c0-10.568-8.643-19.193-19.19-19.193H302.338
	c-10.552,0-19.19,8.625-19.19,19.193v24.736h-54.296V85.191c0-10.568-8.634-19.193-19.19-19.193H85.188
	c-10.547,0-19.19,8.625-19.19,19.193v124.471c0,10.556,8.643,19.186,19.19,19.186h24.748v54.291H85.188
	c-10.547,0-19.19,8.635-19.19,19.199V426.8c0,10.567,8.643,19.202,19.19,19.202h124.474c10.556,0,19.19-8.635,19.19-19.202v-24.744
	h54.296V426.8c0,10.567,8.638,19.202,19.19,19.202h124.474c10.547,0,19.19-8.635,19.19-19.202V302.338
	c0-10.564-8.643-19.199-19.19-19.199h-24.748v-54.291H426.812z M195.433,345.689l-7.397,12.815
	c-29.387-21.152-48.548-55.628-48.548-94.604c0-64.349,52.164-116.509,116.516-116.509c13.158,0,25.792,2.21,37.592,6.235
	l-7.776,12.938c-9.434-2.883-19.441-4.449-29.816-4.449c-56.217,0-101.784,45.575-101.784,101.784
	C154.22,297.422,170.429,327.147,195.433,345.689z M251.25,224.086l-32.628,54.295c-1.744-4.498-2.738-9.376-2.738-14.48
	C215.884,243.357,231.338,226.443,251.25,224.086z M267.727,302.264l21.173-61.289c4.54,6.498,7.22,14.395,7.22,22.926
	C296.12,281.977,284.158,297.245,267.727,302.264z M249.654,321.696l-34.78-16.233l94.993-158.071L249.654,321.696z
	 M323.969,358.505l-7.397-12.815c25.004-18.542,41.217-48.268,41.217-81.789c0-36.104-18.814-67.783-47.15-85.86l4.928-14.271
	c34.096,20.328,56.943,57.549,56.943,100.131C372.508,302.877,353.352,337.353,323.969,358.505z"/>
</svg>
