<?xml version="1.0" encoding="utf-8"?>
<!-- Generator: Adobe Illustrator 18.1.1, SVG Export Plug-In . SVG Version: 6.00 Build 0)  -->
<svg version="1.1" id="Ebene_1" xmlns="http://www.w3.org/2000/svg" xmlns:xlink="http://www.w3.org/1999/xlink" x="0px" y="0px"
	 width="512px" height="512px" viewBox="0 0 512 512" enable-background="new 0 0 512 512" xml:space="preserve">
<path fill="#454646" d="M396.1,132.2l37.5-42.7c4.5-5.1,4.7-12.8,0.5-18.1c-2.8-3.5-6.9-5.4-11.2-5.4c-2.2,0-4.5,0.5-6.6,1.6
	l-59.3,31.1C327.9,80,293.3,69,256,69C152.7,69,69,152.7,69,256c0,51.5,20.8,98.1,54.5,132l-28.7,34.9c-4.3,5.3-4.3,12.8,0,18.1
	c2.8,3.3,6.8,5.1,10.9,5.1c2.3,0,4.7-0.6,6.8-1.8l48.9-26.9c27.7,16.3,60,25.6,94.4,25.6c103.3,0,187-83.7,187-187
	C443,208.5,425.2,165.2,396.1,132.2z M387.4,276.9L105.8,431.8L222,290.5L132,233L422.9,80.2L300.5,219.4L387.4,276.9z"/>
</svg>
