<?xml version="1.0" encoding="utf-8"?>
<!-- Generator: Adobe Illustrator 19.1.0, SVG Export Plug-In . SVG Version: 6.00 Build 0)  -->
<svg version="1.1" id="Ebene_1" xmlns="http://www.w3.org/2000/svg" xmlns:xlink="http://www.w3.org/1999/xlink" x="0px" y="0px"
	 width="512px" height="512px" viewBox="0 0 512 512" enable-background="new 0 0 512 512" xml:space="preserve">
<path fill="#454646" d="M448.8,45.4H138.7c-9.5,0-17.2,7.8-17.2,17.2V122H63.2c-9.5,0-17.2,7.8-17.2,17.2v310.1
	c0,9.5,7.7,17.2,17.2,17.2h310.1c9.5,0,17.2-7.8,17.2-17.2V390h58.2c9.5,0,17.2-7.7,17.2-17.2V62.6C466,53.1,458.2,45.4,448.8,45.4z
	 M143.5,143.9c6,0,10.8,4.9,10.8,10.8c0,6-4.9,10.8-10.8,10.8c-6,0-10.8-4.9-10.8-10.8C132.6,148.8,137.5,143.9,143.5,143.9z
	 M112.8,143.9c6,0,10.8,4.9,10.8,10.8c0,6-4.9,10.8-10.8,10.8s-10.8-4.9-10.8-10.8C102,148.8,106.8,143.9,112.8,143.9z M82.2,143.9
	c6,0,10.8,4.9,10.8,10.8c0,6-4.9,10.8-10.8,10.8c-6,0-10.8-4.9-10.8-10.8C71.3,148.8,76.2,143.9,82.2,143.9z M365.2,445.4H71.5V187
	h293.7V445.4z M354.3,165.6H194.2c-6,0-10.8-4.9-10.8-10.8c0-6,4.9-10.8,10.8-10.8h160.2c6,0,10.8,4.9,10.8,10.8
	C365.2,160.7,360.3,165.6,354.3,165.6z M440.6,368.7h-50V139.3c0-9.5-7.8-17.2-17.2-17.2H146.9V67.2h293.7V368.7z"/>
</svg>
