<?xml version="1.0" encoding="utf-8"?>
<!-- Generator: Adobe Illustrator 16.0.4, SVG Export Plug-In . SVG Version: 6.00 Build 0)  -->
<!DOCTYPE svg PUBLIC "-//W3C//DTD SVG 1.1//EN" "http://www.w3.org/Graphics/SVG/1.1/DTD/svg11.dtd">
<svg version="1.1" id="Layer_1" xmlns="http://www.w3.org/2000/svg" xmlns:xlink="http://www.w3.org/1999/xlink" x="0px" y="0px"
	 width="512px" height="512px" viewBox="0 0 512 512" enable-background="new 0 0 512 512" xml:space="preserve">
<path fill-rule="evenodd" clip-rule="evenodd" fill="#454646" d="M324.467,101.805c30.2-0.535,46.269,10.468,61.624,24.458
	c13.025-1.121,29.962-8.397,39.938-13.463c3.235-1.771,6.471-3.541,9.699-5.311c-5.699,15.4-13.418,27.446-25.293,36.597
	c-2.635,2.034-5.255,4.776-8.558,6.067c0,0.063,0,0.13,0,0.189c16.915-0.171,30.868-7.804,44.123-11.946c0,0.063,0,0.126,0,0.193
	c-6.962,11.066-16.388,22.284-26.437,30.34c-4.061,3.221-8.112,6.442-12.172,9.667c0.223,17.913-0.268,35.005-3.615,50.057
	c-19.467,87.511-71.057,146.916-152.719,172.365c-29.324,9.14-76.713,12.896-110.312,4.55c-16.662-4.138-31.713-8.802-45.837-14.981
	c-7.845-3.429-15.11-7.14-22.058-11.374c-2.286-1.392-4.564-2.783-6.851-4.171c7.577,0.227,16.446,2.316,24.915,0.946
	c7.667-1.239,15.186-0.913,22.251-2.464c17.634-3.867,33.294-8.984,46.788-16.877c6.538-3.822,16.461-8.324,21.107-13.842
	c-8.758,0.16-16.691-1.874-23.201-4.171c-25.219-8.906-39.893-25.275-49.444-49.868c7.638,0.831,29.65,2.824,34.802-1.518
	c-9.619-0.531-18.875-6.104-25.487-10.239c-20.284-12.699-36.827-33.988-36.701-66.749c2.657,1.266,5.321,2.527,7.985,3.792
	c5.092,2.149,10.272,3.299,16.358,4.55c2.567,0.531,7.696,2.041,10.65,0.95c-0.134,0-0.26,0-0.386,0
	c-3.926-4.568-10.316-7.615-14.266-12.513c-13.01-16.176-25.211-41.08-17.492-70.727c1.959-7.526,5.061-14.168,8.371-20.292
	c0.127,0.063,0.252,0.126,0.371,0.186c1.521,3.177,4.898,5.503,7.043,8.157c6.643,8.238,14.844,15.649,23.201,22.184
	c28.471,22.266,54.105,35.948,95.289,46.079c10.443,2.572,22.519,4.531,34.994,4.549c-3.51-10.205-2.382-26.719,0.379-36.597
	c6.939-24.837,22.014-42.739,44.123-52.335c5.292-2.29,11.155-3.963,17.309-5.307C318.128,102.562,321.298,102.184,324.467,101.805z
	"/>
</svg>
