<?xml version="1.0" encoding="utf-8"?>
<!-- Generator: Adobe Illustrator 19.1.0, SVG Export Plug-In . SVG Version: 6.00 Build 0)  -->
<svg version="1.1" id="Layer_1" xmlns="http://www.w3.org/2000/svg" xmlns:xlink="http://www.w3.org/1999/xlink" x="0px" y="0px"
	 width="512px" height="512px" viewBox="0 0 512 512" enable-background="new 0 0 512 512" xml:space="preserve">
<path fill="#454646" d="M392.8,218H370v-49.823C370,111.979,324.018,66,267.823,66h-23.646C187.979,66,142,111.979,142,168.177V218
	h-22.8c-8.365,0-15.2,6.843-15.2,15.2v197.6c0,8.364,6.835,15.2,15.2,15.2h273.6c8.357,0,15.2-6.836,15.2-15.2V233.2
	C408,224.843,401.157,218,392.8,218z M275,333.521v48.828c0,10.495-8.509,19-19,19c-10.495,0-19-8.505-19-19v-48.828
	c-11.348-6.568-19-18.814-19-32.871c0-20.989,17.011-38,38-38c20.985,0,38,17.011,38,38C294,314.707,286.348,326.953,275,333.521z
	 M188.617,218v-49.823c0-30.634,24.923-55.557,55.56-55.557h23.646c30.63,0,55.553,24.923,55.553,55.557V218H188.617z"/>
</svg>
