<?xml version="1.0" encoding="utf-8"?>
<!-- Generator: Adobe Illustrator 18.1.1, SVG Export Plug-In . SVG Version: 6.00 Build 0)  -->
<svg version="1.1" id="Ebene_1" xmlns="http://www.w3.org/2000/svg" xmlns:xlink="http://www.w3.org/1999/xlink" x="0px" y="0px"
	 width="512px" height="512px" viewBox="0 0 512 512" enable-background="new 0 0 512 512" xml:space="preserve">
<g>
	<path fill="#454646" d="M283.3,80.2V53.7c0-4.2,3.5-7.7,7.7-7.7l0,0c4.2,0,7.7,3.5,7.7,7.7v26.5H283.3z"/>
	<g>
		<path fill="#454646" d="M375,115c0-12.6-37.6-22.8-84-22.8c-46.4,0-84,10.2-84,22.8v0V180l30.6,4.4l15.4,2.2v15.6v263.5v0.3h122
			V115L375,115z"/>
		<polygon fill="#454646" points="137,465.7 235,465.7 235,202.2 195,196.4 137,232.4 		"/>
	</g>
</g>
</svg>
