<?xml version="1.0" encoding="utf-8"?>
<!-- Generator: Adobe Illustrator 18.1.1, SVG Export Plug-In . SVG Version: 6.00 Build 0)  -->
<svg version="1.1" id="Layer_1" xmlns="http://www.w3.org/2000/svg" xmlns:xlink="http://www.w3.org/1999/xlink" x="0px" y="0px"
	 width="512px" height="512px" viewBox="0 0 512 512" enable-background="new 0 0 512 512" xml:space="preserve">
<g>
	<g>
		<g>
			<g>
				<g>
					<path fill="#454646" d="M429.7,68.6H81.6c-19.8,0-35.9,16.2-35.9,35.9v235.2c0,19.7,16.2,35.9,35.9,35.9h348.2
						c19.7,0,35.9-16.2,35.9-35.9V104.6C465.7,84.8,449.5,68.6,429.7,68.6z M437.4,344.8H73.9V99.3h363.5V344.8z"/>
				</g>
			</g>
		</g>
	</g>
	<path fill="#454646" d="M346.2,414.6h-51.4v-7.1c0-5.9-4.9-10.8-10.8-10.8h-56.8c-5.9,0-10.8,4.8-10.8,10.8v7.1h-51.4
		c-5.9,0-10.8,4.8-10.8,10.8v18H357v-18C357,419.4,352.2,414.6,346.2,414.6z"/>
</g>
</svg>
