<?xml version="1.0" encoding="utf-8"?>
<!-- Generator: Adobe Illustrator 16.0.4, SVG Export Plug-In . SVG Version: 6.00 Build 0)  -->
<!DOCTYPE svg PUBLIC "-//W3C//DTD SVG 1.1//EN" "http://www.w3.org/Graphics/SVG/1.1/DTD/svg11.dtd">
<svg version="1.1" id="Layer_1" xmlns="http://www.w3.org/2000/svg" xmlns:xlink="http://www.w3.org/1999/xlink" x="0px" y="0px"
	 width="512px" height="512px" viewBox="0 0 512 512" enable-background="new 0 0 512 512" xml:space="preserve">
<g>
	<path fill="#454646" d="M255.999,46c-5.66,0-11.166,1.171-16.032,3.929l-154.192,89.04c-9.98,5.747-16.041,16.603-16.041,28.154
		v177.754c0,11.543,6.061,22.385,16.041,28.149l40.269,23.247c19.56,9.635,26.778,9.493,35.684,9.493
		c28.966,0,45.5-17.577,45.5-48.126v-175.46c0-2.479-2.151-4.256-4.584-4.256h-19.314c-2.47,0-4.585,1.777-4.585,4.256v175.46
		c0,13.54-14.1,27.157-36.987,15.719l-41.908-24.555c-1.477-0.803-2.616-2.233-2.616-3.928V167.123c0-1.686,1.121-3.408,2.616-4.256
		l153.863-88.712c1.439-0.83,3.153-0.83,4.584,0l153.856,88.712c1.468,0.88,2.625,2.516,2.625,4.256v177.754
		c0,1.694-0.857,3.436-2.297,4.251l-154.185,88.717c-1.322,0.789-3.145,0.789-4.584,0l-39.612-23.569
		c-1.176-0.693-2.789-0.639-3.928,0c-10.928,6.201-12.988,6.917-23.242,10.477c-2.525,0.879-6.362,2.246,1.312,6.549l51.726,30.441
		c4.922,2.85,10.409,4.258,16.032,4.258c5.714,0,11.12-1.408,16.042-4.258l154.193-88.716c9.972-5.801,16.033-16.606,16.033-28.149
		V167.123c0-11.552-6.061-22.385-16.033-28.154l-154.193-89.04C267.209,47.171,261.668,46,255.999,46L255.999,46z"/>
	<path fill="#454646" d="M297.251,170.725c-43.905,0-70.055,18.68-70.055,49.752c0,33.71,25.949,42.975,68.086,47.14
		c50.413,4.936,54.341,12.337,54.341,22.263c0,17.207-13.717,24.55-46.157,24.55c-40.751,0-49.701-10.176-52.7-30.447
		c-0.355-2.169-2.032-3.924-4.256-3.924H226.54c-2.461,0-4.584,2.119-4.584,4.58c0,25.95,14.119,56.638,81.511,56.638
		c48.791,0,76.93-19.158,76.93-52.709c0-33.26-22.725-42.191-70.057-48.453c-47.815-6.321-52.373-9.416-52.373-20.617
		c0-9.247,3.865-21.606,39.284-21.606c31.637,0,43.321,6.822,48.116,28.15c0.419,2.01,2.188,3.601,4.256,3.601h19.97
		c1.23,0,2.427-0.752,3.274-1.632c0.838-0.943,1.431-2.005,1.312-3.271C371.088,187.996,346.588,170.725,297.251,170.725
		L297.251,170.725z"/>
</g>
</svg>
