<?xml version="1.0" encoding="utf-8"?>
<!-- Generator: Adobe Illustrator 16.0.4, SVG Export Plug-In . SVG Version: 6.00 Build 0)  -->
<!DOCTYPE svg PUBLIC "-//W3C//DTD SVG 1.1//EN" "http://www.w3.org/Graphics/SVG/1.1/DTD/svg11.dtd">
<svg version="1.1" id="Layer_1" xmlns="http://www.w3.org/2000/svg" xmlns:xlink="http://www.w3.org/1999/xlink" x="0px" y="0px"
	 width="512px" height="512px" viewBox="0 0 512 512" enable-background="new 0 0 512 512" xml:space="preserve">
<g>
	<path fill="#454646" d="M207.841,63.641c0-26.311,21.34-47.641,47.65-47.641c26.31,0,47.64,21.33,47.64,47.641
		c0,26.31-21.331,47.64-47.64,47.64C229.181,111.281,207.841,89.95,207.841,63.641z"/>
	<path fill="#454646" d="M332.001,138.59c-0.294-9.352-7.942-16.845-17.36-16.845H196.33c-9.417,0-17.064,7.493-17.35,16.845h-0.032
		v28.534c0,9.595,7.783,17.368,17.382,17.368h118.312c9.605,0,17.383-7.773,17.383-17.368V138.59H332.001z"/>
	<path fill="#454646" d="M410.436,240.916H275.392v-30.084c0-3.56-2.906-6.465-6.461-6.465h-25.857
		c-3.559,0-6.465,2.905-6.465,6.465v30.084H101.563c-3.942,0-7.176,3.224-7.176,7.175v14.379v3.588v35.111
		c0,3.559,2.916,6.465,6.466,6.465h25.861c3.55,0,6.461-2.906,6.461-6.465v-27.936h245.653v27.936c0,3.559,2.906,6.465,6.46,6.465
		h25.856c3.555,0,6.466-2.906,6.466-6.465v-35.111v-3.588v-14.379C417.612,244.139,414.383,240.916,410.436,240.916z"/>
	<g>
		<path fill="#454646" d="M66.144,375.147c0-26.319,21.33-47.64,47.641-47.64c26.31,0,47.645,21.321,47.645,47.64
			c0,26.31-21.335,47.64-47.645,47.64C87.474,422.788,66.144,401.458,66.144,375.147z"/>
		<path fill="#454646" d="M190.294,450.088c-0.29-9.343-7.932-16.836-17.35-16.836H54.624c-9.418,0-17.061,7.493-17.35,16.836
			h-0.028v28.533c0,9.596,7.782,17.378,17.378,17.378h118.32c9.604,0,17.378-7.782,17.378-17.378v-28.533H190.294z"/>
	</g>
	<g>
		<path fill="#454646" d="M350.575,375.147c0-26.319,21.335-47.64,47.645-47.64c26.31,0,47.645,21.321,47.645,47.64
			c0,26.31-21.335,47.64-47.645,47.64C371.91,422.788,350.575,401.458,350.575,375.147z"/>
		<path fill="#454646" d="M474.73,450.088c-0.29-9.343-7.938-16.836-17.355-16.836H339.059c-9.417,0-17.064,7.493-17.35,16.836
			h-0.033v28.533c0,9.596,7.783,17.378,17.382,17.378h118.316c9.604,0,17.378-7.782,17.378-17.378v-28.533H474.73z"/>
	</g>
</g>
</svg>
