<?xml version="1.0" encoding="utf-8"?>
<!-- Generator: Adobe Illustrator 16.0.4, SVG Export Plug-In . SVG Version: 6.00 Build 0)  -->
<!DOCTYPE svg PUBLIC "-//W3C//DTD SVG 1.1//EN" "http://www.w3.org/Graphics/SVG/1.1/DTD/svg11.dtd">
<svg version="1.1" id="Layer_1" xmlns="http://www.w3.org/2000/svg" xmlns:xlink="http://www.w3.org/1999/xlink" x="0px" y="0px"
	 width="512px" height="512px" viewBox="0 0 512 512" enable-background="new 0 0 512 512" xml:space="preserve">
<g>
	<polygon fill="#454646" points="66,310.109 66,324.374 331.429,112.969 446,245.064 446,227.871 333.232,97.55 	"/>
	<polygon fill="#454646" points="66,340.995 66,359.617 328.148,151.322 446,287.483 446,263.389 330.857,130.325 	"/>
	<path fill="#454646" d="M71.505,440.326C74.955,443.822,79.732,446,85,446h342c10.45,0,19-8.55,19-19v-36.427l-127.188-146.79
		L71.505,440.326z"/>
	<path fill="#454646" d="M427,66H85c-10.45,0-19,8.55-19,19v215.517L334.278,86.844L446,215.655V85C446,74.55,437.45,66,427,66z"/>
</g>
</svg>
