<?xml version="1.0" encoding="utf-8"?>
<!-- Generator: Adobe Illustrator 18.1.1, SVG Export Plug-In . SVG Version: 6.00 Build 0)  -->
<svg version="1.1" id="Ebene_1" xmlns="http://www.w3.org/2000/svg" xmlns:xlink="http://www.w3.org/1999/xlink" x="0px" y="0px"
	 width="512px" height="512px" viewBox="0 0 512 512" enable-background="new 0 0 512 512" xml:space="preserve">
<g>
	<g>
		<path fill="#454646" d="M343.8,88v255.7H88V88H343.8 M373.2,46H58.6c-7,0-12.6,5.6-12.6,12.6v314.5c0,7,5.6,12.6,12.6,12.6h314.5
			c7,0,12.6-5.6,12.6-12.6V58.6C385.8,51.6,380.1,46,373.2,46L373.2,46z"/>
	</g>
	<g>
		<g>
			<path fill="#454646" d="M435.9,102.4c4.5,0,8.8,0.7,12.9,1.8V58.6c0-7-5.6-12.6-12.6-12.6h-0.6c-7,0-12.6,5.6-12.6,12.6v45.7
				C427.1,103.1,431.4,102.4,435.9,102.4z"/>
			<path fill="#454646" d="M435.9,260.7c-4.5,0-8.8-0.7-12.9-1.8v135.3c0,7,5.6,12.6,12.6,12.6h0.6c7,0,12.6-5.6,12.6-12.6V258.9
				C444.7,260,440.4,260.7,435.9,260.7z"/>
		</g>
		<path fill="#454646" d="M466,149.3c0-16.6-13.5-30.1-30.1-30.1c-16.6,0-30.1,13.5-30.1,30.1v64.5c0,16.6,13.5,30.1,30.1,30.1h0
			c16.6,0,30.1-13.5,30.1-30.1V149.3z"/>
	</g>
	<g>
		<g>
			<path fill="#454646" d="M394.2,423H185.6c1.2,4.1,1.8,8.4,1.8,12.9c0,4.5-0.7,8.8-1.8,12.9h208.5c7,0,12.6-5.6,12.6-12.6v-0.6
				C406.8,428.6,401.1,423,394.2,423z"/>
		</g>
		<path fill="#454646" d="M140.6,405.8H76.1c-16.6,0-30.1,13.5-30.1,30.1c0,16.6,13.5,30.1,30.1,30.1h64.5
			c16.6,0,30.1-13.5,30.1-30.1C170.7,419.4,157.1,405.8,140.6,405.8z"/>
	</g>
</g>
</svg>
