<?xml version="1.0" encoding="utf-8"?>
<!-- Generator: Adobe Illustrator 19.2.1, SVG Export Plug-In . SVG Version: 6.00 Build 0)  -->
<svg version="1.1" id="Work_area" xmlns="http://www.w3.org/2000/svg" xmlns:xlink="http://www.w3.org/1999/xlink" x="0px" y="0px"
	 width="512px" height="512px" viewBox="0 0 512 512" enable-background="new 0 0 512 512" xml:space="preserve">
<g>
	<path fill-rule="evenodd" clip-rule="evenodd" fill="#454646" d="M183.4,189.6c0,11.7-9.6,21.3-21.3,21.3
		c-11.7,0-21.3-9.6-21.3-21.3c0-11.7,9.6-21.3,21.3-21.3C173.8,168.3,183.4,177.9,183.4,189.6"/>
	<rect x="144" y="221" fill-rule="evenodd" clip-rule="evenodd" fill="#454646" width="36" height="103"/>
	<path fill-rule="evenodd" clip-rule="evenodd" fill="#454646" d="M371.2,291.2c-3.9,3-8.9,4.8-14.2,4.8
		c-12.8,0-23.2-10.4-23.2-23.1c0-12.8,10.3-23.1,23.1-23.1c12.8,0,23.1,10.4,23.1,23.1c38.3-47.1,58-85.1,64-112.8
		c2.1-10.1,3-20.9,0-32.2c-2.8-10.9-10.7-17.7-20.9-20.6c-8.7-2.5-17.2-2.2-26.5,0c-35,7.5-83.4,41.2-128.2,104.3
		c9.5,2.6,18.1,7.1,25.2,13.4C393.8,77.5,489.1,99,407.3,221h-27.1l0,10c-6.3-7.2-17.2-12.6-28.8-12.6c-29.9,0-54.2,24.3-54.2,54.2
		c0,29.9,24.3,54.2,54.2,54.2c12.8,0,24.5-6.3,28.9-13l0,10.2H417v-88.4C394,267.1,378.4,286.6,371.2,291.2"/>
	<path fill-rule="evenodd" clip-rule="evenodd" fill="#454646" d="M202.3,312.1c-106.5,134.6-192.1,62-61.6-101.3
		c-2-2-3.7-4.2-5-6.7c-43.1,54.1-63.8,98-68.7,130.1c-1.4,9.6-1.2,18.7,0,28c10.4,53.9,87.2,48.2,157.2-32.6
		C215.7,325.5,208.2,319.5,202.3,312.1"/>
	<path fill-rule="evenodd" clip-rule="evenodd" fill="#454646" d="M289.3,312c-9.8,9.3-23,15-37.5,15c-30.1,0-54.5-24.4-54.5-54.4
		c0-30.1,24.4-54.4,54.5-54.4c14.1,0,27,5.4,36.9,14.4c-4.6,7-10,15.4-15.4,24.7c-4.2-4.8-9.6-7.6-15.9-7.6
		c-12.7,0-22.9,10.3-22.9,22.9c0,12.7,10.3,22.9,22.9,22.9c6.2,0,11.8-2.4,15.9-6.4L289.3,312z"/>
	<polygon fill-rule="evenodd" clip-rule="evenodd" fill="#454646" points="310,358 310,367 318,367 318,392 328,392 328,367 
		335,367 335,358 	"/>
	<path fill-rule="evenodd" clip-rule="evenodd" fill="#454646" d="M357.3,378.3c3.9-1.3,6.4-5,6.4-9.7c0-3.2-0.9-5.6-2.8-7.5
		c-2.1-2.1-5.3-3.1-9.3-3.1H338v34h10v-10.5l6.9,10.5h12.9L357.3,378.3z M348,366c2,0,3.3,0.1,4.2,1.1c0.5,0.5,0.6,1.1,0.6,2
		c0,2.2-0.8,3-4.8,3V366z"/>
	<rect x="369" y="358" fill-rule="evenodd" clip-rule="evenodd" fill="#454646" width="10" height="34"/>
	<polygon fill-rule="evenodd" clip-rule="evenodd" fill="#454646" points="406.7,373.7 418,358 405.5,358 400.8,365.2 396.8,358 
		384.3,358 394.7,373.6 381.1,392 393.4,392 400.6,382 406.3,392 418.6,392 	"/>
	<rect x="297" y="358" fill-rule="evenodd" clip-rule="evenodd" fill="#454646" width="10" height="34"/>
	<path fill-rule="evenodd" clip-rule="evenodd" fill="#454646" d="M301.9,355.6c3.5,0,6.4-2.9,6.4-6.4c0-3.5-2.9-6.4-6.4-6.4
		c-3.5,0-6.4,2.9-6.4,6.4C295.5,352.7,298.3,355.6,301.9,355.6"/>
	<path fill-rule="evenodd" clip-rule="evenodd" fill="#454646" d="M374.5,406.6c3.5,0,6.4-2.9,6.4-6.4c0-3.5-2.9-6.4-6.4-6.4
		c-3.5,0-6.4,2.9-6.4,6.4C368,403.7,370.9,406.6,374.5,406.6"/>
	<path fill-rule="evenodd" clip-rule="evenodd" fill="#454646" d="M288.3,378.3c-1.5,2.5-4.5,4.1-7.5,4.1c-4.3,0-7.4-3.5-7.4-7.8
		c0-4.3,3.1-7.7,7.4-7.7c3,0,6,1.6,7.5,4.1l5.4-8.7c-3.2-3.4-7.8-5.5-12.9-5.5c-9.8,0-17.8,8-17.8,17.8c0,9.9,8,17.8,17.8,17.8
		c5.1,0,9.6-2.1,12.9-5.5L288.3,378.3z"/>
</g>
</svg>
