<?xml version="1.0" encoding="utf-8"?>
<!-- Generator: Adobe Illustrator 18.1.1, SVG Export Plug-In . SVG Version: 6.00 Build 0)  -->
<svg version="1.1" id="Ebene_1" xmlns="http://www.w3.org/2000/svg" xmlns:xlink="http://www.w3.org/1999/xlink" x="0px" y="0px"
	 width="512px" height="512px" viewBox="0 0 512 512" enable-background="new 0 0 512 512" xml:space="preserve">
<g>
	<path fill="#454646" d="M198.8,328.5c12.8,0,19.7-9.5,19.7-28.6c0-19.1-6.8-28.6-19.7-28.6c-12.9,0-19.7,9.5-19.7,28.6
		C179.2,318.9,186,328.5,198.8,328.5z"/>
	<path fill="#454646" d="M431.1,146.8l-65.9-65.9c-8.2-8.2-24.4-14.9-36-14.9H163.1c-11.6,0-21.1,9.5-21.1,21.1v136.7H66v152h76
		v49.1c0,11.6,9.5,21.1,21.1,21.1h261.8c11.6,0,21.1-9.5,21.1-21.1V182.8C446,171.2,439.3,155,431.1,146.8z M154.4,340.4h-48.9
		v-81.2H124v67h30.5V340.4z M159.6,300.1c0-25.8,14.1-42.4,39.4-42.4c25.5,0,39,16.8,39,42c0,25.8-14.1,42.4-39.4,42.4
		C173.1,342.1,159.6,325.2,159.6,300.1z M416.4,416.4H171.6v-40.6h187.6v-152H171.6V95.6h157.2v87.7h87.7V416.4z M293.6,328.2
		c4.5,0,8.3-1,8.3-1v-17h-13.1v-13.6h30.8v40.6c0,0-11.2,4.3-26.2,4.3c-25.9,0-43.3-13-43.3-41c0-28.8,18.3-42.2,45.9-42.2
		c11.9,0,20.8,2.5,20.8,2.5V275H316c0,0-9-3-19.2-3c-17.9,0-27.1,9.1-27.1,27.8C269.6,318.6,279,328.2,293.6,328.2z"/>
</g>
</svg>
