<?xml version="1.0" encoding="utf-8"?>
<!-- Generator: Adobe Illustrator 19.2.0, SVG Export Plug-In . SVG Version: 6.00 Build 0)  -->
<svg version="1.1" id="Ebene_1" xmlns="http://www.w3.org/2000/svg" xmlns:xlink="http://www.w3.org/1999/xlink" x="0px" y="0px"
	 width="512px" height="512px" viewBox="0 0 512 512" enable-background="new 0 0 512 512" xml:space="preserve">
<g>
	<g>
		<path fill="#454646" d="M419.2,108.8c2.5,0,4.5,2,4.5,4.5v224.2c0,2.5-2,4.5-4.5,4.5H92.8c-2.5,0-4.5-2-4.5-4.5V113.3
			c0-2.5,2-4.5,4.5-4.5H419.2 M419.2,86.5H92.8C78,86.5,66,98.5,66,113.3v224.2c0,14.8,12,26.8,26.8,26.8h326.3
			c14.8,0,26.8-12,26.8-26.8V113.3C446,98.5,434,86.5,419.2,86.5L419.2,86.5z"/>
		<path fill="#454646" d="M329.2,399.4c5.3,0,9.7,4.4,9.7,9.8v16.3c0,0-4.3,0-9.7,0h-56.3h-51.4h-56.2c-5.4,0-9.8,0-9.8,0v-16.3
			c0-5.4,4.4-9.8,9.8-9.8H329.2z"/>
		<rect x="121.9" y="243" fill="#454646" width="67.1" height="67.1"/>
		<rect x="222.5" y="243" fill="#454646" width="67.1" height="67.1"/>
		<rect x="323.1" y="142.4" fill="#454646" width="67.1" height="67.1"/>
		<rect x="323.1" y="243" fill="#454646" width="67.1" height="67.1"/>
		<rect x="121.9" y="142.4" fill="#454646" width="167.6" height="67.1"/>
	</g>
</g>
</svg>
