<?xml version="1.0" encoding="utf-8"?>
<!-- Generator: Adobe Illustrator 19.2.1, SVG Export Plug-In . SVG Version: 6.00 Build 0)  -->
<svg version="1.1" id="Work_area" xmlns="http://www.w3.org/2000/svg" xmlns:xlink="http://www.w3.org/1999/xlink" x="0px" y="0px"
	 width="512px" height="512px" viewBox="0 0 512 512" enable-background="new 0 0 512 512" xml:space="preserve">
<g>
	<path fill="#454646" d="M297.7,218H289v34h8.7c12.1,0,21.8-4.4,21.8-17.2C319.5,222.4,309.8,218,297.7,218z"/>
	<path fill="#454646" d="M199.6,232l-13.1,41.1c3.9,1.5,8.4,2.2,13.3,2.2c4.7,0,9.1-0.7,13-2.1L199.8,232H199.6z"/>
	<path fill="#454646" d="M46,152v208h212.2L466,152H46z M301.9,280H289v40h-61.7l-6.1-19.2c-6.5,2.1-13.8,3.2-21.6,3.2
		c-8,0-15.5-1.1-22.1-3.4l-6.3,19.3h-37.5l4.1-11.3c-0.5,0.4-1,0.8-1.5,1.2c-9.4,7.5-21.1,11.6-35.6,11.9l-2.2,0
		c-16.6,0-33-4.6-46.8-12.5L64.6,284c13.8,8.2,22.5,10,34.2,9.8c6.1-0.1,10.5-1.2,13.3-4.2c1.7-1.8,2.6-4,2.7-6.4
		c0.1-6.6-9.3-9.7-20.7-13.2c-9.3-2.9-19.9-6.8-28.1-12.9c-9.8-7.2-14.4-16.2-14.2-28.9c0.2-9.2,3.6-17.5,9.9-24.1
		c9.1-9.4,23.8-15.1,41.3-15.1h0.1c15.1,0,33.5,4.3,46.8,11.1l-14.4,25c-14.6-7-21.9-7.7-30.2-8.2c-12.4-0.7-18.6,3.8-18.7,8.5
		c-0.1,5.8,11.7,11.1,22.8,14.7c16.9,5.4,38.3,12.5,41.6,33.2L182,191h35.8l36.2,98.5v-98.3l41.3,0c39.5,0,58.1,14.1,58.1,44.8
		C353.3,263.5,334.2,280,301.9,280z"/>
</g>
</svg>
