<?xml version="1.0" encoding="utf-8"?>
<!-- Generator: Adobe Illustrator 19.2.0, SVG Export Plug-In . SVG Version: 6.00 Build 0)  -->
<svg version="1.1" id="Ebene_1" xmlns="http://www.w3.org/2000/svg" xmlns:xlink="http://www.w3.org/1999/xlink" x="0px" y="0px"
	 viewBox="0 0 512 512" enable-background="new 0 0 512 512" xml:space="preserve">
<path fill="#454646" d="M64.1,85c0-7.1,5.8-13.4,12.9-14l120.8-10.5c0.2,0,0.4,0,0.6,0l-12.8-12.6c-0.1-0.1-0.2-0.2-0.4-0.4
	c0,0-0.1-0.1-0.2-0.1c0,0-0.1-0.1-0.2-0.1c0,0-0.1-0.1-0.2-0.1c-0.1-0.1-0.2-0.1-0.4-0.2c0,0-0.1,0-0.1-0.1c0,0,0,0-0.1,0
	c-0.2-0.1-0.4-0.2-0.5-0.3c0,0,0,0-0.1,0c0,0,0,0,0,0c-0.1-0.1-0.3-0.1-0.4-0.2c-0.1,0-0.2-0.1-0.3-0.1c0,0-0.1,0-0.1,0
	s-0.1,0-0.1,0c-0.2,0-0.4-0.1-0.5-0.2c0,0-0.1,0-0.1,0c0,0-0.1,0-0.1,0c-0.1,0-0.2,0-0.4-0.1c-0.1,0-0.3,0-0.4,0c0,0-0.1,0-0.1,0
	c0,0,0,0-0.1,0c-0.2,0-0.5,0-0.7,0c0,0-0.1,0-0.1,0h0c-0.2,0-0.4,0-0.5,0c-0.1,0-0.3,0-0.4,0L58.1,56c-0.2,0-0.3,0-0.5,0
	c-0.1,0-0.2,0-0.3,0c-0.1,0-0.1,0-0.2,0c-0.3,0-0.5,0.1-0.8,0.2c-0.3,0.1-0.5,0.1-0.7,0.2c-0.1,0-0.4,0.2-0.5,0.2
	c-0.2,0.1-0.4,0.2-0.5,0.3c0,0-0.1,0-0.1,0c-0.4,0.2-0.8,0.5-1.2,0.8c0,0,0,0,0,0c-0.1,0.1-0.3,0.2-0.5,0.4c-0.1,0-0.1,0.1-0.2,0.2
	l0,0c0,0-0.1,0.1-0.2,0.1c-0.1,0.1-0.2,0.2-0.3,0.3c0,0.1-0.1,0.1-0.2,0.2l0,0c0,0-0.1,0.1-0.2,0.2c-0.1,0.1-0.2,0.2-0.3,0.4
	c0,0-0.1,0.1-0.1,0.2c-0.1,0.1-0.2,0.2-0.3,0.4c0,0.1-0.1,0.2-0.2,0.3c0,0,0,0,0,0c0,0,0,0.1-0.1,0.1c-0.1,0.1-0.2,0.3-0.3,0.5
	c0,0,0,0,0,0.1c0,0,0,0.1-0.1,0.1c0,0.1-0.1,0.1-0.1,0.2c-0.1,0.1-0.1,0.3-0.2,0.5c0,0,0,0,0,0s0,0.1,0,0.1c0,0.1-0.1,0.2-0.1,0.3
	c0,0.1,0,0.2-0.1,0.3c0,0.1,0,0.2-0.1,0.2c0,0.1-0.1,0.3-0.1,0.5c0,0.1,0,0.2,0,0.3v0c0,0.1,0,0.2,0,0.3c0,0.2,0,0.4-0.1,0.6
	c0,0.2,0,0.5,0,0.7v0.2L48.7,96c0,0.1,0,0.3,0.2,0.4l5.5,5.4c0.3,0.3,0.1,0.9-0.3,0.9l-4.9,0.4c-0.3,0-0.5,0.3-0.5,0.5l0.2,45.3
	c0,0.1,0,0.3,0.2,0.4l5.2,5.5c0.3,0.3,0.1,0.9-0.3,0.9l-4.6,0.4c-0.3,0-0.5,0.3-0.5,0.5l0,30.8c0,0.2,0,0.5,0,0.7v0
	c0,0.1,0,0.3,0,0.5c0,0.1,0,0.3,0,0.4c0,0.1,0,0.2,0.1,0.4c0,0.1,0.1,0.3,0.1,0.5c0,0,0,0,0,0.1c0.1,0.3,0.2,0.6,0.3,0.9
	c0,0,0,0,0,0c0,0.1,0.1,0.3,0.2,0.5c0,0.1,0.1,0.2,0.1,0.3c0.1,0.1,0.2,0.3,0.3,0.4c0,0.1,0.1,0.2,0.1,0.2c0.1,0.1,0.2,0.3,0.3,0.4
	c0,0.1,0.1,0.1,0.2,0.2c0.2,0.2,0.3,0.4,0.5,0.5l11.8,11.7c0.3,0.3,0.9,0.1,0.9-0.4L64.1,85L64.1,85z M101,172.5v6.7
	c0,0.1,0,0.2,0.1,0.3c0,0,0.1,0.1,0.3,0.1c0,0,0,0,0.1,0l71.5-6.3c0.6,0,1.2-0.7,1.2-1.3v-6.7v-3.7l0,0v-3.1l-0.2-46V109h0.1
	l0.1-3.2V100c0-0.1,0-0.2-0.1-0.3c0,0-0.1-0.1-0.3-0.1c0,0,0,0-0.1,0l-14.4,1.2c-0.3,0-0.5,0.3-0.5,0.5l0.1,38c0,0.1,0,0.3,0.2,0.4
	l5.3,5.2c0.3,0.3,0.1,0.9-0.3,0.9l-4.6,0.4c-0.3,0-0.5,0.3-0.5,0.5v6.1c0,0,0,0.1,0,0.1c0,0.1,0,0.3,0,0.4c0,0.1,0,0.2,0,0.3
	c0,0.1,0,0.2,0,0.3s0,0.2-0.1,0.3c0,0,0,0,0,0c0,0.1,0,0.2-0.1,0.3c0,0.1,0,0.2-0.1,0.3c0,0,0,0,0,0.1c0,0.1,0,0.1-0.1,0.2
	c0,0,0,0.1-0.1,0.2c0,0.1-0.1,0.1-0.1,0.2c0,0.1-0.1,0.2-0.1,0.2c0,0.1-0.1,0.2-0.2,0.2c0,0.1-0.1,0.2-0.2,0.2
	c0,0.1-0.1,0.2-0.2,0.2c0,0,0,0,0,0c-0.1,0.1-0.2,0.2-0.3,0.2c-0.1,0.1-0.2,0.2-0.4,0.3c0,0,0,0,0,0c-0.2,0.1-0.4,0.2-0.5,0.3
	c0,0-0.1,0-0.1,0c-0.3,0.2-0.6,0.3-1,0.4c-0.2,0.1-0.5,0.1-0.8,0.2c-0.1,0-0.1,0-0.2,0l-52.6,4.6c-0.3,0-0.5,0.3-0.5,0.5v2.3v2.4
	l0,0v0.2v1.1l0,0L101,172.5z M77.3,75c-5.1,0.5-9.3,4.9-9.3,10l-0.1,29.7c0,0.3,0.3,0.5,0.6,0.5l28-2.4c0.3,0,0.5-0.3,0.5-0.5V107
	c0-2.7,2.2-5,4.8-5.2l71.5-6.2c0.1,0,0.3,0,0.5,0c2.5,0,4.4,1.9,4.4,4.4v5.2c0,0.3,0.3,0.5,0.6,0.5l28-2.4c0.3,0,0.5-0.3,0.5-0.5
	l0.1-29.8c0-4.8-3.7-8.4-8.4-8.4c-0.3,0-0.5,0-0.8,0L77.3,75z M96.3,119.1l-28,2.4c-0.3,0-0.5,0.3-0.5,0.5l-0.5,46.2
	c0,0.3,0.3,0.5,0.6,0.5l28-2.4c0.3,0,0.5-0.3,0.5-0.5l0.5-46.2C96.9,119.4,96.6,119.1,96.3,119.1z M178,112.4l0.2,46.2
	c0,0.3,0.3,0.5,0.6,0.5l28-2.4c0.3,0,0.5-0.3,0.5-0.5l-0.2-46.2c0-0.3-0.3-0.5-0.6-0.5l-28,2.4C178.3,111.9,178,112.2,178,112.4z
	 M178.2,172.1c0,2.7-2.2,5-4.8,5.2l-71.5,6.3c-0.1,0-0.3,0-0.5,0c-2.4,0-4.4-1.9-4.4-4.4v-6.1c0-0.3-0.3-0.5-0.6-0.5l-28,2.5
	c-0.3,0-0.5,0.3-0.5,0.5l0,30.7c0,4.8,3.7,8.4,8.4,8.4c0.3,0,0.5,0,0.8,0l120.8-10.6c5.1-0.5,9.2-4.9,9.3-10l0-30.7
	c0-0.3-0.3-0.5-0.6-0.5l-28,2.4c-0.3,0-0.5,0.3-0.5,0.5L178.2,172.1z"/>
</svg>
