<?xml version="1.0" encoding="utf-8"?>
<!-- Generator: Adobe Illustrator 18.1.1, SVG Export Plug-In . SVG Version: 6.00 Build 0)  -->
<svg version="1.1" id="Ebene_1" xmlns="http://www.w3.org/2000/svg" xmlns:xlink="http://www.w3.org/1999/xlink" x="0px" y="0px"
	 width="512px" height="512px" viewBox="0 0 512 512" enable-background="new 0 0 512 512" xml:space="preserve">
<g>
	<path fill="#454646" d="M331.1,152.9c0-11.1-9-20.1-20.1-20.1H200.9c-11.1,0-20.1,9-20.1,20.1v1.5c0,1,0.2,1.9,0.3,2.9
		c-0.1,0.5-0.3,0.9-0.3,1.4v120.7c0,7.4,6,13.4,13.4,13.4s13.4-6,13.4-13.4V174.5h6.1v272.7c0,10.4,8.4,18.8,18.8,18.8
		c10.4,0,18.8-8.4,18.8-18.8V302.8h9.2v144.5c0,10.4,8.4,18.8,18.8,18.8s18.8-8.4,18.8-18.8V174.5h6.1v104.9c0,7.4,6,13.4,13.4,13.4
		c7.4,0,13.4-6,13.4-13.4V158.7c0-0.5-0.2-0.9-0.3-1.4c0.1-0.9,0.3-1.9,0.3-2.9V152.9z"/>
	<circle fill="#454646" cx="256" cy="85" r="39"/>
</g>
</svg>
