<?xml version="1.0" encoding="utf-8"?>
<!-- Generator: Adobe Illustrator 16.0.4, SVG Export Plug-In . SVG Version: 6.00 Build 0)  -->
<!DOCTYPE svg PUBLIC "-//W3C//DTD SVG 1.1//EN" "http://www.w3.org/Graphics/SVG/1.1/DTD/svg11.dtd">
<svg version="1.1" id="Layer_1" xmlns="http://www.w3.org/2000/svg" xmlns:xlink="http://www.w3.org/1999/xlink" x="0px" y="0px"
	 width="512px" height="512px" viewBox="0 0 512 512" enable-background="new 0 0 512 512" xml:space="preserve">
<g>
	<path fill="#454646" d="M320.57,213.217c0,4.688-3.834,8.522-8.527,8.522H54.518c-4.683,0-8.518-3.834-8.518-8.522v-42.221
		c0-4.688,3.834-8.522,8.518-8.522h257.525c4.692,0,8.527,3.834,8.527,8.522V213.217z"/>
	<path fill="#454646" d="M320.57,122.32c0,4.688-3.834,8.521-8.527,8.521H54.518c-4.683,0-8.518-3.834-8.518-8.521V80.099
		c0-4.688,3.834-8.522,8.518-8.522h257.525c4.692,0,8.527,3.834,8.527,8.522V122.32z"/>
	<path fill="#454646" d="M274.532,253.372H54.518c-4.683,0-8.518,3.834-8.518,8.522v42.221c0,4.688,3.834,8.526,8.518,8.526h189.043
		C248.183,289.928,259.16,269.544,274.532,253.372z"/>
	<path fill="#454646" d="M241.354,344.269H54.518c-4.683,0-8.518,3.834-8.518,8.521v42.221c0,4.688,3.834,8.522,8.518,8.522h206.472
		C249.688,386.319,242.646,366.075,241.354,344.269z"/>
	<path fill="#454646" d="M436.875,316.436l21.124-21.592l-13.297-21.999l-1.777,0.481l-0.14-0.228l-27.575,7.559
		c-4.482-4.193-9.402-7.782-14.628-10.741l-0.333-30.218l-24.957-6.154l-15.153,26.38c-6.066,0.184-12.15,1.086-18.129,2.74
		l-21.587-21.123l-21.999,13.297l7.931,29.356c-4.246,4.517-7.88,9.485-10.864,14.764l-30.219,0.333l-6.159,24.958l26.389,15.153
		c0.175,6.005,1.068,12.023,2.688,17.941l-19.938,20.244l0.145,0.228l-1.278,1.309l13.285,21.999l29.365-7.935
		c4.517,4.246,9.48,7.878,14.768,10.868l0.333,30.214l24.949,6.154l15.163-26.38c6.057-0.184,12.145-1.086,18.121-2.74
		l21.596,21.123l21.999-13.292l-7.94-29.361c4.246-4.522,7.878-9.481,10.873-14.768l30.21-0.329L466,349.718l-26.385-15.153
		C439.432,328.499,438.53,322.41,436.875,316.436z M343.129,304.832c17.753-10.732,40.854-5.034,51.578,12.728
		c10.733,17.753,5.034,40.847-12.724,51.579c-17.758,10.728-40.851,5.033-51.583-12.724
		C319.677,338.653,325.375,315.564,343.129,304.832z"/>
</g>
</svg>
