<?xml version="1.0" encoding="utf-8"?>
<!-- Generator: Adobe Illustrator 19.2.1, SVG Export Plug-In . SVG Version: 6.00 Build 0)  -->
<svg version="1.1" id="Work_area" xmlns="http://www.w3.org/2000/svg" xmlns:xlink="http://www.w3.org/1999/xlink" x="0px" y="0px"
	 width="512px" height="512px" viewBox="0 0 512 512" enable-background="new 0 0 512 512" xml:space="preserve">
<g>
	<path fill="#454646" d="M44,373c0,10.5,8.5,19,19,19h386c10.5,0,19-8.5,19-19V198.1H44V373z M384,297h40v24h-40V297z M324,297h40
		v24h-40V297z M264,297h40v24h-40V297z M204,297h40v24h-40V297z M98,288c0-6.6,5.4-12,12-12h42c6.6,0,12,5.4,12,12v42
		c0,6.6-5.4,12-12,12h-42c-6.6,0-12-5.4-12-12V288z"/>
	<path fill="#454646" d="M449,120H63c-10.5,0-19,8.5-19,19v25h424v-25C468,128.5,459.5,120,449,120z"/>
</g>
</svg>
