<?xml version="1.0" encoding="utf-8"?>
<!-- Generator: Adobe Illustrator 16.0.4, SVG Export Plug-In . SVG Version: 6.00 Build 0)  -->
<!DOCTYPE svg PUBLIC "-//W3C//DTD SVG 1.1//EN" "http://www.w3.org/Graphics/SVG/1.1/DTD/svg11.dtd">
<svg version="1.1" id="Layer_1" xmlns="http://www.w3.org/2000/svg" xmlns:xlink="http://www.w3.org/1999/xlink" x="0px" y="0px"
	 width="512px" height="512px" viewBox="0 0 512 512" enable-background="new 0 0 512 512" xml:space="preserve">
<g>
	<path fill="#454646" d="M218.06,327.957c9.229,15.905,19.4,25.629,33.992,27.977v-70.838c-21.895-0.201-34.237-1.305-48.999-3.21
		C205.75,299.186,210.556,315.019,218.06,327.957z"/>
	<path fill="#454646" d="M199.69,254.799c0,4.941,1.08,9.829,1.462,14.634c14.988,2.093,29.005,3.305,50.899,3.523v-36.328
		c-21.895,0.211-35.911,1.433-50.899,3.523C200.771,244.96,199.69,249.844,199.69,254.799z"/>
	<path fill="#454646" d="M323.046,229.591c3.726,0.649,7.28,1.347,10.65,2.111c9.399,2.119,16.933,4.539,22.658,7.292
		c-5.581-34.925-29.005-63.98-60.614-77.473c3.511,4.101,6.806,8.774,9.834,14.016C314.362,190.686,320.337,209.331,323.046,229.591
		z"/>
	<path fill="#454646" d="M189.195,229.591c2.709-20.26,8.684-38.906,17.472-54.054c3.109-5.366,6.498-10.142,10.098-14.319
		c-32.041,13.396-55.817,42.721-61.372,78.015c5.782-2.848,13.485-5.347,23.16-7.531
		C181.934,230.938,185.488,230.241,189.195,229.591z"/>
	<path fill="#454646" d="M189.195,279.991c-3.707-0.647-7.262-1.353-10.643-2.11c-9.727-2.195-17.467-4.714-23.268-7.581
		c5.41,35.89,29.654,65.691,62.299,79.009c-3.899-4.386-7.57-9.483-10.917-15.261C197.879,318.891,191.904,300.255,189.195,279.991z
		"/>
	<path fill="#454646" d="M183.321,266.491c1.503,0.329,3.058,0.629,4.63,0.934c-0.266-4.167-0.418-8.383-0.418-12.625
		c0-4.256,0.152-8.47,0.418-12.637c-1.572,0.302-3.127,0.612-4.63,0.933c-21.95,4.674-28.314,10.043-28.912,11.704
		C155.007,256.445,161.371,261.808,183.321,266.491z"/>
	<path fill="#454646" d="M218.505,181.631c-7.492,12.931-13.207,28.76-15.891,46.064c14.751-1.904,27.543-3.013,49.438-3.214
		v-70.829C237.46,156,227.727,165.724,218.505,181.631z"/>
	<path fill="#454646" d="M323.046,279.991c-2.709,20.264-8.684,38.9-17.472,54.057c-3.27,5.643-6.844,10.647-10.657,14.966
		c32.226-13.426,56.109-42.95,61.557-78.472c-5.752,2.767-13.314,5.203-22.777,7.338
		C330.326,278.639,326.771,279.344,323.046,279.991z"/>
	<path fill="#454646" d="M328.931,243.095c-1.506-0.321-3.046-0.631-4.627-0.933c0.278,4.167,0.423,8.381,0.423,12.637
		c0,4.242-0.111,8.458-0.394,12.625c1.581-0.305,3.202-0.605,4.709-0.934c20.444-4.364,28.801-9.314,28.801-11.305
		c0-0.034,0-0.062,0-0.085c0-0.243-0.108-0.471-0.108-0.709C356.377,252.391,349.349,247.439,328.931,243.095z"/>
	<path fill="#454646" d="M427,66H85c-10.436,0-19,8.55-19,19v342c0,10.45,8.564,19,19,19h342c10.465,0,19-8.55,19-19V85
		C446,74.55,437.465,66,427,66z M369.748,257.249c-1.154,61.786-51.783,111.699-113.852,111.699
		C193.096,368.948,142,317.865,142,255.1c0-60.743,47.845-110.53,107.825-113.69c2.082-0.303,4.179-0.462,6.297-0.462
		c2.238,0,4.469,0.176,6.654,0.514c58.688,3.52,105.538,51.643,106.972,110.829c0.174,0.814,0.252,1.647,0.252,2.508
		C370,255.634,369.922,256.445,369.748,257.249z"/>
	<path fill="#454646" d="M312.707,254.799c0-4.956-0.052-9.839-0.445-14.647c-14.858-2.076-31.027-3.29-49.26-3.514v36.317
		c18.232-0.232,34.463-1.445,49.315-3.521C312.722,264.628,312.707,259.741,312.707,254.799z"/>
	<path fill="#454646" d="M295.354,181.631c-9.103-15.703-21.412-25.388-32.353-27.888v70.746
		c18.232,0.219,33.325,1.321,47.938,3.206C308.265,210.391,302.865,194.562,295.354,181.631z"/>
	<path fill="#454646" d="M310.796,281.886c-14.617,1.885-29.562,2.991-47.794,3.21v70.747c10.94-2.507,23.383-12.181,32.493-27.886
		C302.995,315.019,308.112,299.186,310.796,281.886z"/>
</g>
</svg>
