<?xml version="1.0" encoding="utf-8"?>
<!-- Generator: Adobe Illustrator 16.0.4, SVG Export Plug-In . SVG Version: 6.00 Build 0)  -->
<!DOCTYPE svg PUBLIC "-//W3C//DTD SVG 1.1//EN" "http://www.w3.org/Graphics/SVG/1.1/DTD/svg11.dtd">
<svg version="1.1" id="Layer_1" xmlns="http://www.w3.org/2000/svg" xmlns:xlink="http://www.w3.org/1999/xlink" x="0px" y="0px"
	 width="512px" height="512px" viewBox="0 0 512 512" enable-background="new 0 0 512 512" xml:space="preserve">
<g>
	<g>
		<rect x="226.31" y="83.812" fill="#454646" width="59.375" height="344.375"/>
		<path fill="#454646" d="M306.144,66v380h110.306c4.643,0,8.444-3.8,8.444-8.444V74.444c0-4.645-3.802-8.444-8.444-8.444H306.144z
			 M371.456,366.306c0,4.645-2.672,8.444-5.938,8.444s-5.938-3.8-5.938-8.444V145.694c0-4.645,2.672-8.444,5.938-8.444
			s5.938,3.8,5.938,8.444V366.306z"/>
	</g>
	<path fill="#454646" d="M95.553,66c-4.651,0-8.445,3.8-8.445,8.444v363.111c0,4.645,3.794,8.444,8.445,8.444h110.305V66H95.553z
		 M152.42,366.306c0,4.645-2.672,8.444-5.938,8.444s-5.938-3.8-5.938-8.444V145.694c0-4.645,2.672-8.444,5.938-8.444
		s5.938,3.8,5.938,8.444V366.306z"/>
</g>
</svg>
