<?xml version="1.0" encoding="utf-8"?>
<!-- Generator: Adobe Illustrator 16.0.4, SVG Export Plug-In . SVG Version: 6.00 Build 0)  -->
<!DOCTYPE svg PUBLIC "-//W3C//DTD SVG 1.1//EN" "http://www.w3.org/Graphics/SVG/1.1/DTD/svg11.dtd">
<svg version="1.1" id="Layer_1" xmlns="http://www.w3.org/2000/svg" xmlns:xlink="http://www.w3.org/1999/xlink" x="0px" y="0px"
	 width="512px" height="512px" viewBox="0 0 512 512" enable-background="new 0 0 512 512" xml:space="preserve">
<g>
	<g>
		<polygon fill="#454646" points="128.184,341.956 110.207,324.004 361.012,72.845 379.165,90.971 		"/>
	</g>
	<g>
		<polygon fill="#454646" points="161.67,375.41 135.91,349.678 386.54,98.347 412.308,124.072 		"/>
	</g>
	<g>
		<path fill="#454646" d="M120.592,425.638L65.829,446l20.77-56.201c0,0,16.263,1.43,22.208,13.438
			C116.893,419.588,120.592,425.638,120.592,425.638z"/>
	</g>
	<g>
		<path fill="#454646" d="M116.748,395.556c6.689,13.52,11.184,21.896,13.7,26.424l47.874-17.799l-70.857-70.857l-16.48,44.601
			C97.97,379.474,110.944,383.841,116.748,395.556z"/>
	</g>
	<g>
		<polygon fill="#454646" points="187.168,400.938 169.193,382.983 419.998,131.832 438.151,149.961 		"/>
	</g>
	<g>
		<path fill="#454646" d="M440.898,142.143l5.172-5.178c0,0,3.18-15.418-26.197-44.742c-29.375-29.332-44.779-26.119-44.779-26.119
			l-5.111,5.126L440.898,142.143z"/>
	</g>
</g>
</svg>
