<?xml version="1.0" encoding="utf-8"?>
<!-- Generator: Adobe Illustrator 16.0.4, SVG Export Plug-In . SVG Version: 6.00 Build 0)  -->
<!DOCTYPE svg PUBLIC "-//W3C//DTD SVG 1.1//EN" "http://www.w3.org/Graphics/SVG/1.1/DTD/svg11.dtd">
<svg version="1.1" id="Layer_1" xmlns="http://www.w3.org/2000/svg" xmlns:xlink="http://www.w3.org/1999/xlink" x="0px" y="0px"
	 width="512px" height="512px" viewBox="0 0 512 512" enable-background="new 0 0 512 512" xml:space="preserve">
<g>
	<g>
		<path fill="#454646" d="M210.01,241.537l43.03-43.026l-1.27-1.272l-38.155-38.152l-18.469-18.473l-9.99-9.986L133.61,79.083
			c-10.044-10.048-26.484-10.048-36.532,0l-6.495,6.492c-10.05,10.048-10.05,26.49,0,36.538l51.544,51.544l66.614,66.611
			L210.01,241.537z"/>
		<polygon fill="#454646" points="419.624,375.247 394.052,361.847 302.327,270.124 281.626,290.828 373.353,382.555 
			386.744,408.123 422.365,425.479 436.978,410.863 		"/>
	</g>
	<path fill="#454646" d="M350.818,82.329c-13.724,13.728-18.788,32.831-15.209,50.533L146.601,321.868
		c-21.355-6.057-45.27-0.692-62.079,16.114c-14.43,14.429-20.42,34.091-18.001,52.874l35.853-35.846l43.079,11.538l11.542,43.083
		l-35.853,35.847c18.786,2.421,38.45-3.565,52.878-17.994c16.808-16.815,22.174-40.725,16.114-62.08l189.006-189.01
		c17.701,3.579,36.804-1.485,50.533-15.209c21.772-21.776,21.772-57.078,0-78.854C407.896,60.557,372.595,60.557,350.818,82.329z
		 M423.948,133.651l-21.812,21.808l-30.646-3.454l-16.411-26.113l10.184-29.115L394.38,86.59l26.113,16.411L423.948,133.651z"/>
</g>
</svg>
