<?xml version="1.0" encoding="utf-8"?>
<!-- Generator: Adobe Illustrator 18.1.1, SVG Export Plug-In . SVG Version: 6.00 Build 0)  -->
<svg version="1.1" id="Ebene_1" xmlns="http://www.w3.org/2000/svg" xmlns:xlink="http://www.w3.org/1999/xlink" x="0px" y="0px"
	 width="512px" height="512px" viewBox="0 0 512 512" enable-background="new 0 0 512 512" xml:space="preserve">
<g>
	<path fill="#454646" d="M263.7,86V53.7c0-4.2-3.5-7.7-7.7-7.7c-4.2,0-7.7,3.5-7.7,7.7V86h-20.4V131h56.3V86H263.7z"/>
	<path fill="#454646" d="M336.7,353.7v-41.6h-21.9C294,265.7,282.1,212.6,277,149h-41.6c-5.1,63.3-17.3,116.4-38.2,163.1h-21.9v41.3
		c-20.2,32.6-45.8,62.2-77.9,90.1V466H143c15.2-48.3,60.4-83.4,113.7-83.4c53.4,0,98.5,35.1,113.7,83.4h44.1v-22.4
		C382.5,415.7,356.8,386.3,336.7,353.7z M245.8,251.7h20.7c5.2,27,17.9,60.4,17.9,60.4h-56.5C227.9,312.1,240.6,278.7,245.8,251.7z"
		/>
</g>
</svg>
