<?xml version="1.0" encoding="utf-8"?>
<!-- Generator: Adobe Illustrator 16.0.4, SVG Export Plug-In . SVG Version: 6.00 Build 0)  -->
<!DOCTYPE svg PUBLIC "-//W3C//DTD SVG 1.1//EN" "http://www.w3.org/Graphics/SVG/1.1/DTD/svg11.dtd">
<svg version="1.1" id="Layer_1" xmlns="http://www.w3.org/2000/svg" xmlns:xlink="http://www.w3.org/1999/xlink" x="0px" y="0px"
	 width="512px" height="512px" viewBox="0 0 512 512" enable-background="new 0 0 512 512" xml:space="preserve">
<g>
	<path fill="none" stroke="#FFFFFF" stroke-width="26.4981" stroke-miterlimit="10" d="M315.016,326.33"/>
	<path fill="none" stroke="#FFFFFF" stroke-width="26.4981" stroke-miterlimit="10" d="M256.072,266.476"/>
	<path fill="#454646" d="M293.611,151.439h-75.078c-7.289,0-13.249-5.965-13.249-13.249V63.112c0-7.289,5.96-13.249,13.249-13.249
		h75.078c7.284,0,13.249,5.96,13.249,13.249v75.078C306.86,145.475,300.896,151.439,293.611,151.439z"/>
	<path fill="#454646" d="M410.809,407.7l-61.195-35.327c-6.31-3.644-8.492-11.786-4.848-18.096l35.326-61.195
		c3.645-6.314,11.787-8.496,18.097-4.853l61.195,35.327c6.31,3.648,8.496,11.791,4.853,18.101l-35.331,61.195
		C425.261,409.162,417.118,411.345,410.809,407.7z"/>
	<path fill="#454646" d="M101.188,407.7l61.195-35.327c6.31-3.644,8.496-11.786,4.853-18.096l-35.331-61.195
		c-3.645-6.314-11.787-8.496-18.097-4.853l-61.195,35.327c-6.31,3.648-8.492,11.791-4.848,18.101l35.326,61.195
		C86.736,409.162,94.879,411.345,101.188,407.7z"/>
	<g>
		<path fill="#454646" d="M369.599,106.361l-1.268-0.271c-11.86-2.554-25.188-4.602-39.39-6.176v51.525
			c0,12.145-9.937,22.082-22.081,22.082H205.284c-12.146,0-22.082-9.938-22.082-22.082V99.914
			c-14.202,1.574-27.524,3.622-39.381,6.176l-1.268,0.271c-61.743,13.283-102.556,69.066-90.699,123.964
			c3.549,16.419,10.251,35.206,19.045,54.631l44.151-25.488c10.519-6.073,24.091-2.437,30.164,8.082l50.783,87.965
			c6.072,10.523,2.437,24.096-8.082,30.164l-36.336,20.978c1.264,1.299,2.532,2.666,3.791,3.907l18.752,18.399
			c45.074,44.232,118.832,44.232,163.906,0l18.748-18.399c1.246-1.22,2.492-2.57,3.739-3.847l-36.436-21.038
			c-10.519-6.068-14.154-19.641-8.082-30.164l50.784-87.965c6.072-10.519,19.645-14.155,30.164-8.082l44.271,25.558
			c8.812-19.451,15.522-38.259,19.076-54.7C472.15,175.428,431.342,119.645,369.599,106.361z M319.264,300.15
			c-3.868,6.646-12.391,8.894-19.032,5.024l-37.155-21.624c-4.33-2.523-9.683-2.523-14.009,0l-37.154,21.624
			c-6.643,3.869-15.164,1.622-19.033-5.024c-3.868-6.646-1.617-15.168,5.029-19.032l37.323-21.729
			c4.282-2.497,6.918-7.077,6.918-12.032v-41.214c0-7.69,6.231-13.922,13.917-13.922h0.005c7.689,0,13.922,6.231,13.922,13.922
			v41.214c0,4.955,2.635,9.535,6.917,12.032l37.324,21.729C320.881,284.982,323.133,293.505,319.264,300.15z"/>
	</g>
</g>
</svg>
