<?xml version="1.0" encoding="utf-8"?>
<!-- Generator: Adobe Illustrator 19.1.0, SVG Export Plug-In . SVG Version: 6.00 Build 0)  -->
<svg version="1.1" id="Ebene_1" xmlns="http://www.w3.org/2000/svg" xmlns:xlink="http://www.w3.org/1999/xlink" x="0px" y="0px"
	 width="512px" height="512px" viewBox="0 0 512 512" enable-background="new 0 0 512 512" xml:space="preserve">
<g>
	<g>
		<path fill="#454646" d="M173.3,96c-6.6,0-12,5.4-12,12v296c0,6.6,5.4,12,12,12h166.5c6.6,0,12-5.4,12-12V108c0-6.6-5.4-12-12-12
			H173.3z M231.5,114.7c2-0.9,9-1.6,15.6-1.6H266c6.6,0,13.6,0.7,15.6,1.6c0,0,0,0,0,2c0,2,0,2,0,2c-2,0.9-9,1.6-15.6,1.6h-18.9
			c-6.6,0-13.6-0.7-15.6-1.6c0,0,0,0,0-2C231.5,114.7,231.5,114.7,231.5,114.7z M269.1,393.6c0,6.6-5.4,12-12,12H256
			c-6.6,0-12-5.4-12-12v-1.1c0-6.6,5.4-12,12-12h1.1c6.6,0,12,5.4,12,12V393.6z M332.4,352.3c0,6.6-5.4,12-12,12H192.8
			c-6.6,0-12-5.4-12-12V152.9c0-6.6,5.4-12,12-12h127.6c6.6,0,12,5.4,12,12V352.3z"/>
	</g>
	<g>
		<path fill="#454646" d="M239.1,163.8h-29.8c-5,0-9.1,4.1-9.1,9.1v29.8c0,5,4.1,9.1,9.1,9.1h29.8c5,0,9.1-4.1,9.1-9.1v-29.8
			C248.2,167.8,244.1,163.8,239.1,163.8z"/>
		<path fill="#454646" d="M239.1,228.6h-29.8c-5,0-9.1,4.1-9.1,9.1v29.8c0,5,4.1,9.1,9.1,9.1h29.8c5,0,9.1-4.1,9.1-9.1v-29.8
			C248.2,232.7,244.1,228.6,239.1,228.6z"/>
		<path fill="#454646" d="M303.9,228.6h-29.8c-5,0-9.1,4.1-9.1,9.1v29.8c0,5,4.1,9.1,9.1,9.1h29.8c5,0,9.1-4.1,9.1-9.1v-29.8
			C313,232.7,308.9,228.6,303.9,228.6z"/>
	</g>
	<path fill="#454646" d="M303.9,172.8v29.8h-29.8v-29.8H303.9 M303.9,163.8h-29.8c-5,0-9.1,4.1-9.1,9.1v29.8c0,5,4.1,9.1,9.1,9.1
		h29.8c5,0,9.1-4.1,9.1-9.1v-29.8C313,167.8,308.9,163.8,303.9,163.8L303.9,163.8z"/>
</g>
</svg>
