<?xml version="1.0" encoding="utf-8"?>
<!-- Generator: Adobe Illustrator 16.0.4, SVG Export Plug-In . SVG Version: 6.00 Build 0)  -->
<!DOCTYPE svg PUBLIC "-//W3C//DTD SVG 1.1//EN" "http://www.w3.org/Graphics/SVG/1.1/DTD/svg11.dtd">
<svg version="1.1" id="Layer_1" xmlns="http://www.w3.org/2000/svg" xmlns:xlink="http://www.w3.org/1999/xlink" x="0px" y="0px"
	 width="512px" height="512px" viewBox="0 0 512 512" enable-background="new 0 0 512 512" xml:space="preserve">
<g>
	<path fill="#454646" d="M256,66C151.068,66,66,151.064,66,256s85.068,190,190,190c104.937,0,190-85.064,190-190S360.937,66,256,66z
		 M256,416.702c-88.756,0-160.702-71.946-160.702-160.702S167.244,95.289,256,95.289c88.757,0,160.712,71.955,160.712,160.711
		S344.757,416.702,256,416.702z"/>
	<g>
		<path fill="#454646" d="M212.489,143.178c28.556,0,37.615,22.015,43.521,37.017c7.301-17.404,15.664-37.017,43.501-37.017h26.896
			C305.986,130.408,281.865,123,256,123s-49.986,7.408-70.405,20.178H212.489z"/>
		<path fill="#454646" d="M325.617,277.653c-0.02,0-0.027,0-0.046,0h-47.288l-0.008,0.019c11.16,28.194,20.521,51.703,20.985,52.408
			c0.075,0,0.157,0,0.25,0h66.954c10.4-15.479,17.618-33.266,20.754-52.426H325.617z"/>
		<path fill="#454646" d="M299.511,184.268c-0.046,0-0.088,0-0.13,0c-0.631,1.048-9.982,24.464-21.073,52.436H387.59
			c-2.773-19.102-9.621-36.868-19.612-52.436H299.511z"/>
		<path fill="#454646" d="M212.624,330.08c0.631-1.048,9.978-24.455,21.073-52.426H124.781c3.146,19.16,10.354,36.947,20.754,52.426
			h66.954C212.535,330.08,212.582,330.08,212.624,330.08z"/>
		<path fill="#454646" d="M233.729,236.685c-11.155-28.203-20.521-51.703-20.985-52.417c-0.078,0-0.162,0-0.255,0h-68.458
			c-9.991,15.567-16.838,33.333-19.621,52.436h61.973c0.019,0,0.032,0,0.047,0h47.291L233.729,236.685z"/>
		<path fill="#454646" d="M299.511,371.178c-28.551,0-37.61-22.024-43.511-37.026c-7.311,17.414-15.669,37.026-43.511,37.026
			h-22.961C209.094,382.492,231.777,389,256,389c24.224,0,46.916-6.508,66.473-17.822H299.511z"/>
	</g>
</g>
</svg>
