<?xml version="1.0" encoding="utf-8"?>
<!-- Generator: Adobe Illustrator 16.0.4, SVG Export Plug-In . SVG Version: 6.00 Build 0)  -->
<!DOCTYPE svg PUBLIC "-//W3C//DTD SVG 1.1//EN" "http://www.w3.org/Graphics/SVG/1.1/DTD/svg11.dtd">
<svg version="1.1" id="Layer_1" xmlns="http://www.w3.org/2000/svg" xmlns:xlink="http://www.w3.org/1999/xlink" x="0px" y="0px"
	 width="512px" height="512px" viewBox="0 0 512 512" enable-background="new 0 0 512 512" xml:space="preserve">
<g>
	<polygon fill="#454646" points="496,159.211 365.232,159.211 365.232,178.594 419.176,178.594 419.176,345.789 442.061,345.789 
		442.061,178.594 496,178.594 	"/>
	<polygon fill="#454646" points="343.163,178.594 343.163,159.211 243.223,159.211 243.223,345.789 343.163,345.789 
		343.163,326.398 266.105,326.398 266.105,261.25 334.759,261.25 334.759,241.867 266.105,241.867 266.105,178.594 	"/>
	<path fill="#454646" d="M48.227,336.68c0,8.898-7.212,16.109-16.109,16.109c-8.902,0-16.117-7.211-16.117-16.109
		c0-8.906,7.215-16.109,16.117-16.109C41.014,320.57,48.227,327.773,48.227,336.68z"/>
	<polygon fill="#454646" points="217.232,159.211 194.344,159.211 194.344,306.508 89.102,159.211 66.217,159.211 66.217,345.789 
		89.102,345.789 89.102,198.633 194.42,345.789 217.232,345.789 	"/>
</g>
</svg>
