<?xml version="1.0" encoding="utf-8"?>
<!-- Generator: Adobe Illustrator 18.0.0, SVG Export Plug-In . SVG Version: 6.00 Build 0)  -->
<!DOCTYPE svg PUBLIC "-//W3C//DTD SVG 1.1//EN" "http://www.w3.org/Graphics/SVG/1.1/DTD/svg11.dtd">
<svg version="1.1" id="Ebene_1" xmlns="http://www.w3.org/2000/svg" xmlns:xlink="http://www.w3.org/1999/xlink" x="0px" y="0px"
	 width="512px" height="512px" viewBox="0 0 512 512" enable-background="new 0 0 512 512" xml:space="preserve">
<g id="XMLID_805_">
	<path id="XMLID_815_" fill="#454646" d="M130.1,432.4H48c-1.1,0-2-0.9-2-2v-71.6c0-1.1,0.9-2,2-2h82.1c1.1,0,2,0.9,2,2v71.6
		C132.1,431.5,131.2,432.4,130.1,432.4z"/>
	<path id="XMLID_814_" fill="#454646" d="M130.1,340H48c-1.1,0-2-0.9-2-2v-71.6c0-1.1,0.9-2,2-2h82.1c1.1,0,2,0.9,2,2V338
		C132.1,339.1,131.2,340,130.1,340z"/>
	<path id="XMLID_813_" fill="#454646" d="M241.4,432.4h-82.1c-1.1,0-2-0.9-2-2v-71.6c0-1.1,0.9-2,2-2h82.1c1.1,0,2,0.9,2,2v71.6
		C243.4,431.5,242.5,432.4,241.4,432.4z"/>
	<path id="XMLID_812_" fill="#454646" d="M241.4,340h-82.1c-1.1,0-2-0.9-2-2v-71.6c0-1.1,0.9-2,2-2h82.1c1.1,0,2,0.9,2,2V338
		C243.4,339.1,242.5,340,241.4,340z"/>
	<path id="XMLID_811_" fill="#454646" d="M352.7,432.4h-82.1c-1.1,0-2-0.9-2-2v-71.6c0-1.1,0.9-2,2-2h82.1c1.1,0,2,0.9,2,2v71.6
		C354.7,431.5,353.8,432.4,352.7,432.4z"/>
	<path id="XMLID_810_" fill="#454646" d="M464,432.4h-82.1c-1.1,0-2-0.9-2-2v-71.6c0-1.1,0.9-2,2-2H464c1.1,0,2,0.9,2,2v71.6
		C466,431.5,465.1,432.4,464,432.4z"/>
	<path id="XMLID_809_" fill="#454646" d="M464,340h-82.1c-1.1,0-2-0.9-2-2v-71.6c0-1.1,0.9-2,2-2H464c1.1,0,2,0.9,2,2V338
		C466,339.1,465.1,340,464,340z"/>
	<path id="XMLID_808_" fill="#454646" d="M241.4,247.6h-82.1c-1.1,0-2-0.9-2-2V174c0-1.1,0.9-2,2-2h82.1c1.1,0,2,0.9,2,2v71.6
		C243.4,246.7,242.5,247.6,241.4,247.6z"/>
	<path id="XMLID_807_" fill="#454646" d="M241.4,155.2h-82.1c-1.1,0-2-0.9-2-2V81.6c0-1.1,0.9-2,2-2h82.1c1.1,0,2,0.9,2,2v71.6
		C243.4,154.3,242.5,155.2,241.4,155.2z"/>
	<path id="XMLID_806_" fill="#454646" d="M464,247.6h-82.1c-1.1,0-2-0.9-2-2V174c0-1.1,0.9-2,2-2H464c1.1,0,2,0.9,2,2v71.6
		C466,246.7,465.1,247.6,464,247.6z"/>
</g>
</svg>
