<?xml version="1.0" encoding="utf-8"?>
<!-- Generator: Adobe Illustrator 19.2.1, SVG Export Plug-In . SVG Version: 6.00 Build 0)  -->
<svg version="1.1" id="Work_area" xmlns="http://www.w3.org/2000/svg" xmlns:xlink="http://www.w3.org/1999/xlink" x="0px" y="0px"
	 width="512px" height="512px" viewBox="0 0 512 512" enable-background="new 0 0 512 512" xml:space="preserve">
<g>
	<path fill="#454646" d="M67.2,271c0,3.2-0.7,6.1-2,8.8c-1.3,2.7-3.2,5-5.6,6.9c-2.4,1.9-5.3,3.4-8.6,4.4c-3.3,1.1-7,1.6-10.9,1.6
		c-4.7,0-9-0.6-12.7-1.9c-3.8-1.3-7.5-3.4-11.3-6.4l6.2-10.1c3,2.5,5.7,4.3,8.1,5.5c2.4,1.2,4.9,1.7,7.4,1.7c3.1,0,5.6-0.8,7.5-2.4
		c1.9-1.6,2.8-3.7,2.8-6.4c0-1.2-0.2-2.3-0.5-3.3c-0.3-1-1-2-1.9-3.1c-0.9-1.1-2.2-2.2-3.8-3.5c-1.6-1.3-3.6-2.8-6.1-4.6
		c-1.9-1.4-3.8-2.7-5.6-4.2c-1.8-1.5-3.5-3-5-4.6c-1.5-1.6-2.7-3.5-3.6-5.5c-0.9-2-1.4-4.3-1.4-7c0-3,0.6-5.7,1.9-8.2
		c1.2-2.5,3-4.6,5.1-6.3c2.2-1.7,4.8-3.1,7.8-4.1c3-1,6.3-1.4,9.9-1.4c3.8,0,7.4,0.5,10.9,1.5c3.5,1,6.8,2.5,9.8,4.4l-5.6,9.1
		c-3.9-2.7-7.9-4-12.2-4c-2.6,0-4.8,0.7-6.4,2c-1.7,1.4-2.5,3-2.5,5.1c0,1.9,0.7,3.7,2.2,5.2c1.5,1.5,4.1,3.7,7.7,6.5
		c3.7,2.7,6.7,5.1,9.1,7.1c2.4,2,4.3,3.9,5.7,5.7c1.4,1.8,2.4,3.6,2.9,5.4C66.9,266.8,67.2,268.8,67.2,271"/>
	<path fill="#454646" d="M131.2,254c0-7.9-1.6-14.2-4.8-18.8c-3.2-4.6-7.6-6.9-13.1-6.9c-5.8,0-10.4,2.4-13.8,7.3
		c-3.4,4.9-5.1,11.5-5.1,19.8c0,8.1,1.7,14.5,5,19.1c3.4,4.6,7.9,7,13.8,7c3.5,0,6.4-0.9,8.7-2.7c2.3-1.8,4.1-4.1,5.5-6.8
		c1.4-2.8,2.4-5.7,3-9C130.9,259.8,131.2,256.8,131.2,254 M151.4,253.3c0,5.7-0.9,10.9-2.6,15.7c-1.7,4.8-4.2,8.9-7.3,12.5
		c-3.1,3.6-6.8,6.3-11,8.3c-4.3,2-8.9,3-13.8,3c-2.2,0-4.3-0.2-6.2-0.6c-1.9-0.4-3.8-1-5.5-2c-1.7-0.9-3.2-2.1-4.9-3.6
		c-1.7-1.5-4.1-3.2-5.1-5.4V327H76V219h18.5l0.1,10.4c3.4-4.2,7.1-7.4,11-9.4c4-2,8.6-3,13.8-3c4.7,0,9.1,0.9,13,2.7
		c3.9,1.8,7.3,4.3,10.1,7.4c2.8,3.2,5,7,6.6,11.4C150.7,243,151.4,247.9,151.4,253.3"/>
	<rect x="160" y="185" fill="#454646" width="19" height="106"/>
	<path fill="#454646" d="M241.2,291l0-9.7c-3.7,4.1-7.4,7-11.3,8.8c-3.9,1.8-8.4,2.7-13.5,2.7c-5.7,0-10.5-1.1-14.4-3.4
		c-3.9-2.3-6.7-5.6-8.5-10.1c-0.5-1.1-0.8-2.2-1.1-3.3c-0.2-1.2-0.5-2.5-0.7-4c-0.2-1.5-0.5-3.2-0.5-5.1c-0.1-1.9-0.2-4.3-0.2-7.1
		V219h19v41c0,3.7,0.4,6.5,0.7,8.4c0.3,1.9,1,3.7,1.9,5.2c2.2,4.1,6.2,6.1,11.8,6.1c7.2,0,12.1-3,14.9-9c0.7-1.5,1.1-3.3,1.4-5.1
		c0.3-1.9,0.3-4.6,0.3-8V219h19v72H241.2z"/>
	<path fill="#454646" d="M324,291v-41.4c0-3.7-0.4-6.5-0.8-8.4c-0.3-1.9-1.1-3.7-1.9-5.2c-2.2-4-6.2-6.1-11.8-6.1
		c-3.6,0-6.7,0.7-9.3,2.2c-2.6,1.5-4.5,3.7-5.8,6.6c-0.7,1.6-1,3.4-1.2,5.3c-0.2,1.9-0.2,4.5-0.2,7.9v39h-20v-72h19.7l0,9.5
		c3.7-4.1,7.4-7.1,11.3-8.8c3.9-1.8,8.4-2.7,13.5-2.7c5.7,0,10.5,1.2,14.4,3.5c3.9,2.4,6.7,5.7,8.5,10c0.4,1.1,0.7,2.1,1,3.3
		c0.3,1.1,0.5,2.4,0.7,3.8c0.2,1.4,0.5,3.2,0.6,5.1c0.1,2,0.3,4.4,0.3,7.2V291H324z"/>
	<polygon fill="#454646" points="403.8,292.5 375,252.5 375,291 356,291 356,185 375,185 375,247 377.1,247 402.7,217.4 
		417.1,223.7 392.5,250 421.6,286.2 	"/>
	<polygon fill="#454646" points="438,289 438,276.3 482.8,254.2 438,232.4 438,219.4 496,248.4 496,260.3 	"/>
</g>
</svg>
