<?xml version="1.0" encoding="utf-8"?>
<!-- Generator: Adobe Illustrator 16.0.4, SVG Export Plug-In . SVG Version: 6.00 Build 0)  -->
<!DOCTYPE svg PUBLIC "-//W3C//DTD SVG 1.1//EN" "http://www.w3.org/Graphics/SVG/1.1/DTD/svg11.dtd">
<svg version="1.1" id="Layer_1" xmlns="http://www.w3.org/2000/svg" xmlns:xlink="http://www.w3.org/1999/xlink" x="0px" y="0px"
	 width="512px" height="512px" viewBox="0 0 512 512" enable-background="new 0 0 512 512" xml:space="preserve">
<g>
	<rect x="16" y="115.72" fill="#454646" width="272.254" height="47.775"/>
	<g>
		<path fill="#454646" d="M171.244,375.242l-19.115,50.241l49.308-17.799c0,0,0.586-7.378-9.365-20.628
			C184.854,377.444,171.244,375.242,171.244,375.242z"/>
		<g>
			<polygon fill="#454646" points="281.983,214.735 16,214.735 16,262.51 233.289,262.51 			"/>
		</g>
		<path fill="#454646" d="M432.866,86.518c-0.5,0-0.753,0.037-0.753,0.037l-4.64,4.545l63.738,64.955l4.686-4.596
			c0,0,2.993-13.8-23.114-40.36C450.128,88.041,436.158,86.518,432.866,86.518z"/>
	</g>
	<g>
		<polygon fill="#454646" points="162.447,359.982 177.063,319.559 179.162,313.754 16,313.754 16,361.528 161.887,361.528 		"/>
	</g>
	<polygon fill="#454646" points="418.809,99.924 199.647,314.644 263.381,379.597 482.56,164.864 	"/>
	<path fill="#454646" d="M250.511,390.268l-61.751-62.904l-13.477,37.261c6.252,1.449,16.983,6.525,24.321,15.679
		c9.904,12.357,10.903,19.405,10.704,24.181L250.511,390.268z"/>
</g>
</svg>
