<?xml version="1.0" encoding="utf-8"?>
<!-- Generator: Adobe Illustrator 16.0.4, SVG Export Plug-In . SVG Version: 6.00 Build 0)  -->
<!DOCTYPE svg PUBLIC "-//W3C//DTD SVG 1.1//EN" "http://www.w3.org/Graphics/SVG/1.1/DTD/svg11.dtd">
<svg version="1.1" id="Layer_1" xmlns="http://www.w3.org/2000/svg" xmlns:xlink="http://www.w3.org/1999/xlink" x="0px" y="0px"
	 width="512px" height="512px" viewBox="0 0 512 512" enable-background="new 0 0 512 512" xml:space="preserve">
<g>
	<g>
		<path fill="#454646" d="M162.264,451.858c-3.853,1.86-12.993,4.142-24.555,4.142c-33.269,0-50.401-20.848-50.401-48.398
			c0-32.842,23.416-50.973,52.544-50.973c11.275,0,19.846,2.285,23.699,4.286l-4.571,17.131c-4.284-1.858-10.418-3.57-18.273-3.57
			c-17.132,0-30.555,10.426-30.555,31.982c0,19.272,11.424,31.411,30.699,31.411c6.707,0,13.845-1.284,18.275-3.143L162.264,451.858
			z"/>
		<path fill="#454646" d="M185.973,375.476c-7.283,0-11.997-5.143-11.997-11.569c0-6.562,4.858-11.564,12.28-11.564
			s11.996,5.001,12.135,11.564c0,6.426-4.713,11.569-12.28,11.569H185.973z M175.265,454.429v-69.817h21.7v69.817H175.265z"/>
		<path fill="#454646" d="M238.657,365.622v18.989h15.561v15.991h-15.561v25.414c0,8.427,2.142,12.281,8.565,12.281
			c2.999,0,4.426-0.144,6.428-0.573l0.139,16.416c-2.709,1.005-7.994,1.86-13.989,1.86c-6.995,0-12.852-2.427-16.422-5.996
			c-3.996-4.144-5.996-10.853-5.996-20.704v-28.698h-9.281v-15.991h9.281v-13.133L238.657,365.622z"/>
		<path fill="#454646" d="M266.929,407.602c0-10.28-0.144-16.995-0.572-22.99h18.56l0.854,12.993h0.572
			c3.569-10.277,11.996-14.562,18.847-14.562c1.999,0,2.999,0.14,4.568,0.426v20.417c-1.853-0.286-3.568-0.57-5.995-0.57
			c-7.994,0-13.423,4.14-14.85,10.992c-0.283,1.429-0.428,2.996-0.428,4.854v35.266h-21.701L266.929,407.602z"/>
		<path fill="#454646" d="M331.461,375.476c-7.289,0-11.997-5.143-11.997-11.569c0-6.562,4.857-11.564,12.281-11.564
			c7.427,0,11.995,5.001,12.134,11.564c0,6.426-4.708,11.569-12.279,11.569H331.461z M320.751,454.429v-69.817h21.701v69.817
			H320.751z"/>
		<path fill="#454646" d="M376.434,384.611l6.855,11.71c1.999,3.57,3.853,6.995,5.707,10.421h0.289
			c1.855-3.853,3.57-7.279,5.424-10.849l6.141-11.282h23.56l-22.988,33.267l23.272,36.55h-24.554l-7-12.563
			c-1.998-3.428-3.853-6.998-5.423-10.567h-0.428c-1.715,3.717-3.57,7.14-5.285,10.567l-6.567,12.563H351.59l23.699-35.551
			l-23.127-34.266H376.434z"/>
	</g>
	<g>
		<path fill="#454646" d="M330.963,152.473c0,17.688-14.469,32.157-32.158,32.157h-90.039c-17.691,0-32.159-14.469-32.159-32.157
			V88.159c0-17.69,14.468-32.159,32.159-32.159h90.039c17.689,0,32.158,14.469,32.158,32.159V152.473z"/>
		<path fill="#454646" d="M407.439,250.29H273.083v-44.21c0-3.542-2.896-6.432-6.433-6.432h-25.731c-3.532,0-6.423,2.89-6.423,6.432
			v44.21H100.138c-3.925,0-7.139,3.203-7.139,7.14v14.301v3.57v49.215c0,3.537,2.895,6.43,6.431,6.43h25.73
			c3.528,0,6.429-2.893,6.429-6.43V282.44h244.402v42.076c0,3.537,2.896,6.43,6.429,6.43h25.73c3.533,0,6.429-2.893,6.429-6.43
			v-49.215v-3.57V257.43C414.579,253.493,411.366,250.29,407.439,250.29z"/>
	</g>
</g>
</svg>
