<?xml version="1.0" encoding="utf-8"?>
<!-- Generator: Adobe Illustrator 16.0.4, SVG Export Plug-In . SVG Version: 6.00 Build 0)  -->
<!DOCTYPE svg PUBLIC "-//W3C//DTD SVG 1.1//EN" "http://www.w3.org/Graphics/SVG/1.1/DTD/svg11.dtd">
<svg version="1.1" id="Layer_1" xmlns="http://www.w3.org/2000/svg" xmlns:xlink="http://www.w3.org/1999/xlink" x="0px" y="0px"
	 width="512px" height="512px" viewBox="0 0 512 512" enable-background="new 0 0 512 512" xml:space="preserve">
<g>
	<rect x="329.992" y="202.753" fill="#454646" width="60.8" height="38"/>
	<rect x="121.208" y="202.753" fill="#454646" width="60.8" height="38"/>
	<rect x="121.208" y="134.253" fill="#454646" width="60.8" height="38"/>
	<rect x="225.6" y="134.253" fill="#454646" width="60.801" height="38"/>
	<path fill="#454646" d="M427,66H85c-10.438,0-19,8.55-19,19v342c0,10.45,8.562,19,19,19h342c10.461,0,19-8.55,19-19V85
		C446,74.55,437.461,66,427,66z M189.607,377.747c0,4.18-3.421,7.6-7.6,7.6h-60.8c-4.179,0-7.601-3.42-7.601-7.6v-38
		c0-4.18,3.422-7.6,7.601-7.6h60.8c4.179,0,7.6,3.42,7.6,7.6V377.747z M189.607,309.252c0,4.18-3.421,7.6-7.6,7.6h-60.8
		c-4.179,0-7.601-3.42-7.601-7.6v-38c0-4.18,3.422-7.6,7.601-7.6h60.8c4.179,0,7.6,3.42,7.6,7.6V309.252z M189.607,240.753
		c0,4.181-3.421,7.6-7.6,7.6h-60.8c-4.179,0-7.601-3.419-7.601-7.6v-38c0-4.18,3.422-7.6,7.601-7.6h60.8c4.179,0,7.6,3.419,7.6,7.6
		V240.753z M189.607,172.253c0,4.18-3.421,7.6-7.6,7.6h-60.8c-4.179,0-7.601-3.42-7.601-7.6v-38c0-4.18,3.422-7.6,7.601-7.6h60.8
		c4.179,0,7.6,3.42,7.6,7.6V172.253z M294,377.747c0,4.18-3.418,7.6-7.6,7.6H225.6c-4.182,0-7.6-3.42-7.6-7.6v-38
		c0-4.18,3.418-7.6,7.6-7.6H286.4c4.182,0,7.6,3.42,7.6,7.6V377.747z M294,309.252c0,4.18-3.418,7.6-7.6,7.6H225.6
		c-4.182,0-7.6-3.42-7.6-7.6v-38c0-4.18,3.418-7.6,7.6-7.6H286.4c4.182,0,7.6,3.42,7.6,7.6V309.252z M294,240.753
		c0,4.181-3.418,7.6-7.6,7.6H225.6c-4.182,0-7.6-3.419-7.6-7.6v-38c0-4.18,3.418-7.6,7.6-7.6H286.4c4.182,0,7.6,3.419,7.6,7.6
		V240.753z M294,172.253c0,4.18-3.418,7.6-7.6,7.6H225.6c-4.182,0-7.6-3.42-7.6-7.6v-38c0-4.18,3.418-7.6,7.6-7.6H286.4
		c4.182,0,7.6,3.42,7.6,7.6V172.253z M398.393,377.747c0,4.18-3.422,7.6-7.601,7.6h-60.8c-4.179,0-7.6-3.42-7.6-7.6v-38
		c0-4.18,3.421-7.6,7.6-7.6h60.8c4.179,0,7.601,3.42,7.601,7.6V377.747z M398.393,309.252c0,4.18-3.422,7.6-7.601,7.6h-60.8
		c-4.179,0-7.6-3.42-7.6-7.6v-38c0-4.18,3.421-7.6,7.6-7.6h60.8c4.179,0,7.601,3.42,7.601,7.6V309.252z M398.393,240.753
		c0,4.181-3.422,7.6-7.601,7.6h-60.8c-4.179,0-7.6-3.419-7.6-7.6v-38c0-4.18,3.421-7.6,7.6-7.6h60.8c4.179,0,7.601,3.419,7.601,7.6
		V240.753z M398.393,172.253c0,4.18-3.422,7.6-7.601,7.6h-60.8c-4.179,0-7.6-3.42-7.6-7.6v-38c0-4.18,3.421-7.6,7.6-7.6h60.8
		c4.179,0,7.601,3.42,7.601,7.6V172.253z"/>
	<rect x="121.208" y="271.252" fill="#454646" width="60.8" height="38"/>
	<rect x="329.992" y="134.253" fill="#454646" width="60.8" height="38"/>
</g>
</svg>
