<?xml version="1.0" encoding="utf-8"?>
<!-- Generator: Adobe Illustrator 16.0.4, SVG Export Plug-In . SVG Version: 6.00 Build 0)  -->
<!DOCTYPE svg PUBLIC "-//W3C//DTD SVG 1.1//EN" "http://www.w3.org/Graphics/SVG/1.1/DTD/svg11.dtd">
<svg version="1.1" id="Layer_1" xmlns="http://www.w3.org/2000/svg" xmlns:xlink="http://www.w3.org/1999/xlink" x="0px" y="0px"
	 width="512px" height="512px" viewBox="0 0 512 512" enable-background="new 0 0 512 512" xml:space="preserve">
<g>
	<polygon fill="#454646" points="179.217,209.394 209.389,179.218 156.814,126.648 217.459,66.004 66,66.004 66,217.459 
		126.644,156.818 	"/>
	<polygon fill="#454646" points="300.92,180.91 331.09,211.08 385.356,156.814 446,217.459 446,66 294.543,66 355.186,126.644 	"/>
	<polygon fill="#454646" points="209.38,332.782 179.214,302.611 126.644,355.186 66,294.543 66,446 217.453,446 156.814,385.356 	
		"/>
	<polygon fill="#454646" points="385.356,355.186 331.09,300.928 300.92,331.095 355.186,385.356 294.537,446 446,446 446,294.551 	
		"/>
</g>
</svg>
