<?xml version="1.0" encoding="utf-8"?>
<!-- Generator: Adobe Illustrator 16.0.4, SVG Export Plug-In . SVG Version: 6.00 Build 0)  -->
<!DOCTYPE svg PUBLIC "-//W3C//DTD SVG 1.1//EN" "http://www.w3.org/Graphics/SVG/1.1/DTD/svg11.dtd">
<svg version="1.1" id="Layer_1" xmlns="http://www.w3.org/2000/svg" xmlns:xlink="http://www.w3.org/1999/xlink" x="0px" y="0px"
	 width="512px" height="512px" viewBox="0 0 512 512" enable-background="new 0 0 512 512" xml:space="preserve">
<g>
	<path fill="#454646" d="M305.568,177.697l5.026,1.891c0.855,0.338,1.82-0.109,2.146-0.965c0.227-0.588,5.64-14.356,18.463-14.356
		c2.467,0,4.059,0.918,5.313,3.067c2.989,5.154,3.029,15.926,0.133,28.996h-23.149c-0.926,0-1.67,0.753-1.67,1.671v5.365
		c0,0.926,0.744,1.671,1.67,1.671h20.884c-2.434,8.089-5.633,15.809-9.108,21.936l-1.271,2.235
		c-0.442,0.769-0.195,1.758,0.562,2.236l28.442,17.903l-15.082,9.932c-0.369,0.251-0.627,0.628-0.717,1.066
		c-0.092,0.432,0,0.887,0.237,1.256l2.958,4.479c0.51,0.769,1.542,0.996,2.314,0.471l18.366-12.098l19.891,12.977
		c0.275,0.18,0.592,0.274,0.913,0.274c0.123,0,0.24-0.016,0.357-0.039c0.439-0.095,0.819-0.361,1.059-0.746l2.86-4.534
		c0.235-0.376,0.313-0.831,0.215-1.271c-0.101-0.424-0.372-0.809-0.753-1.044l-17.055-10.552c6.778-4.4,26.877-17.456,28.062-18.209
		c0.31-0.196,0.53-0.479,0.655-0.8c0.221-0.518,0.161-1.114-0.157-1.585c-5.974-8.817-7.755-16.035-5.825-23.889l24.148-0.023
		c0.918,0,1.662-0.737,1.671-1.655l0.054-5.342c0.008-0.439-0.168-0.871-0.482-1.192c-0.317-0.314-0.744-0.494-1.188-0.494h-20.876
		c4.047-8.661,10.175-15.973,29.379-15.973c0.927,0,1.672-0.746,1.672-1.671v-5.358c0-0.926-0.745-1.679-1.672-1.679
		c-20.248,0-32.587,7.86-38.722,24.681h-39.721c1.914-9.328,3.738-24.32-1.529-33.373c-2.816-4.841-7.257-7.398-12.838-7.398
		c-18.938,0-26.309,19.174-26.611,19.989C304.272,176.419,304.706,177.376,305.568,177.697z M377.068,233.483l-16.073,10.6
		l-16.848-10.607L377.068,233.483z M385.314,224.768h-49.134c2.801-6.001,5.332-12.873,7.262-19.73h38.971
		C381.173,211.141,382.252,218.437,385.314,224.768z"/>
	<path fill="#454646" d="M489.482,404.225c-10.238-11.454-29.286-15.424-42.264-15.204c-10.534-12.316-58.063-62.509-68.17-73.171
		c20.716-14.843,38.069-33.404,51.61-55.197h26.834c0.922,0,1.671-0.745,1.671-1.671v-5.963c0-0.926-0.749-1.671-1.671-1.671
		h-21.404c0.857-1.584,1.732-3.24,2.63-5.005h18.774c0.922,0,1.671-0.745,1.671-1.671v-5.962c0-0.926-0.749-1.672-1.671-1.672
		h-14.32c12.438-27.788,18.467-58.062,17.934-90.046c0.078-0.196,0.124-0.408,0.124-0.628c0-0.164-0.026-0.329-0.073-0.486
		c-0.122-9.516-2.914-48.623-8.445-59.865c-0.385-0.777-1.287-1.122-2.097-0.824c-13.175,5.006-40.08,22.076-47.312,41.266
		c-12.557-1.805-25.83-2.715-39.485-2.715c-16.022,0-32.302,1.311-47.187,3.789c-6.01-20.688-31.711-35.569-46.737-42.692
		c-0.78-0.361-1.714-0.079-2.153,0.667c-7.748,13.069-11.055,42.324-10.27,63.474c-0.062,0.181-0.087,0.377-0.078,0.573
		c0.67,17.832,3.039,34.949,7.04,50.898c-57.5,14.646-124.525,52.759-164.35,93.443c-14.278-19.644-22.747-38.37-25.176-55.669
		c-2.553-18.186,1.777-34.856,12.525-48.208c10.846-13.471,25.648-20.021,45.25-20.021c5.715,0,11.861,0.533,18.754,1.624
		c-0.24,3.914,0.486,7.397,2.051,9.704c4.75,7.014,20.889,10.151,34.777,10.151c11.811,0,22.929-2.056,31.3-5.79
		c0.455-0.204,0.799-0.604,0.934-1.09c0.129-0.486,0.039-1.005-0.252-1.404c-13.922-19.511-40.089-30.29-52.853-30.29
		c-2.451,0-4.461,0.369-5.967,1.106c-2.734,1.333-5.084,3.671-6.855,6.794c-9.475-1.655-17.029-2.495-22.465-2.495h-0.377
		c-22.812,0.173-40.261,8.159-53.35,24.422c-12.812,15.917-17.993,35.663-14.98,57.112c2.766,19.707,12.383,40.755,28.596,62.572
		c-2.409,2.597-4.747,5.17-7.006,7.696C46.354,353.333,15,402.93,15,412.399v4.142c0,0.918,0.75,1.671,1.672,1.671h53.016
		c0.012,0,0.023,0,0.031,0c0.953,0.023,1.707-0.737,1.707-1.671c0-0.274-0.062-0.533-0.181-0.761l-0.843-4.456
		c-2.906-15.36,2.934-34.597,14.877-49.016c6.791-8.19,18.979-18.938,38.633-23.967c17.539,17.016,40.053,35.35,65.182,53.063
		c0.281,0.204,0.615,0.314,0.961,0.314h39.396c0.926,0,1.674-0.753,1.674-1.671v-4.143c0-5.256-2.584-9.846-7.275-12.913
		c-3.805-2.487-8.736-3.805-14.268-3.805c-3.557,0-7.261,0.572-10.775,1.655c-7.335-8.559-11.657-19.872-12.866-33.663
		c90.737,8.488,177.109,48.224,256.981,89.943c0.239,0.126,0.506,0.196,0.777,0.196h50.773c0.8,0,1.483-0.564,1.64-1.35l0.667-3.326
		C497.83,417.396,495.104,410.509,489.482,404.225z M190.832,284.367l-7.99-2.165c-0.424-0.125-0.887-0.062-1.271,0.165
		c-0.385,0.22-0.664,0.58-0.777,1.012c-4.062,14.992-6.33,28.854-6.75,41.218c-8.621-0.533-17.268-0.808-25.729-0.808
		c-7.197,0-14.191,0.62-20.812,1.852c-7.418-7.453-14.168-14.914-20.084-22.209c10.066-10.348,21.998-20.68,35.5-30.729
		l18.373,12.686c0.297,0.22,0.689,0.384,0.984,0.298c0.969-0.047,1.703-0.729,1.707-1.671c0-0.321-0.092-0.62-0.248-0.879
		l-5.871-20.978c5.299-3.546,10.762-7.014,16.277-10.324l27.873,14.152c0.252,0.134,0.525,0.204,0.793,0.188
		c0.926-0.055,1.703-0.737,1.703-1.671c0-0.471-0.189-0.887-0.494-1.192l-12.412-21.386c3.225-1.733,6.395-3.373,9.445-4.903
		l39.321,26.367c0.289,0.196,0.643,0.275,0.961,0.283c0.898,0.086,1.704-0.738,1.704-1.671c0-0.354-0.108-0.683-0.292-0.95
		l-12.533-37.123c12.867-5.115,25.418-9.241,37.358-12.27c2.69,8.692,5.978,17.212,9.778,25.379h-15.584
		c-0.926,0-1.674,0.746-1.674,1.672v5.962c0,0.926,0.748,1.671,1.674,1.671h20.225c0.914,1.718,1.836,3.396,2.75,5.005h-22.975
		c-0.926,0-1.674,0.745-1.674,1.671v5.963c0,0.926,0.748,1.671,1.674,1.671h28.662c17.058,26.194,40.76,48.333,70.453,65.796
		c0.514,0.307,1.156,0.314,1.674,0.008c2.57-1.467,5.197-3.06,8.002-4.855l5.434,5.845l-11.51,17.698
		c-0.402,0.619-0.345,1.436,0.138,2c0.491,0.573,1.286,0.737,1.962,0.432l19.734-9.014l9.994,10.755l-18.929,14.428
		c-0.629,0.479-0.837,1.341-0.487,2.055c0.345,0.714,1.152,1.083,1.922,0.887l27.112-7.014l37.201,40.05
		c0.344,0.376,0.854,0.557,1.364,0.533l3.205-0.282c19.39-1.694,30.37,8.912,33.128,11.995c1.234,1.389,2.141,2.651,2.792,3.727
		h-37.477c-80.439-41.956-167.641-81.855-260.512-90.219c0.345-11.548,2.487-24.673,6.378-39.053
		C192.248,285.528,191.721,284.611,190.832,284.367z M300.11,143.729c0.352,0.149,0.748,0.165,1.113,0.062
		c13.822-3.945,30.141-6.574,47.258-7.594l13.879,30.431c0.29,0.636,0.934,1.036,1.642,0.973c0.696-0.047,1.288-0.525,1.485-1.2
		l8.831-30.493c17.434,0.651,33.955,3.013,47.86,6.849c0.486,0.125,1.012,0.039,1.423-0.267
		c13.404-9.744,19.65-23.975,23.038-35.946c2.228,16.451,2.205,40.527,2.173,45.862c-0.004,0.102,0.005,0.212,0.021,0.321h-0.024
		c0.267,13.094-0.733,26.069-2.981,38.582l-15.557,6.613c-0.689,0.291-1.098,1.005-1.005,1.742c0.095,0.745,0.672,1.333,1.409,1.443
		l12.639,1.922c-0.98,3.985-2.071,7.853-3.236,11.524l-13.121,3.812c-0.697,0.196-1.184,0.824-1.204,1.554
		c-0.019,0.722,0.424,1.381,1.103,1.624l9.53,3.428c-1.61,4.15-3.35,8.206-5.186,12.066h-21.993c-0.921,0-1.671,0.746-1.671,1.672
		v5.962c0,0.926,0.75,1.671,1.671,1.671h17.201c-0.898,1.624-1.852,3.287-2.883,5.005h-14.318c-0.921,0-1.671,0.745-1.671,1.671
		v5.963c0,0.926,0.75,1.671,1.671,1.671h8.375c-14.367,20.907-33.342,38.519-55.08,51.095
		c-23.229-11.736-42.749-28.925-58.054-51.095h5.602c0.927,0,1.671-0.745,1.671-1.671v-5.963c0-0.926-0.744-1.671-1.671-1.671
		H298.45c-0.996-1.655-1.965-3.326-2.898-5.005h14.497c0.927,0,1.671-0.745,1.671-1.671v-5.962c0-0.926-0.744-1.672-1.671-1.672
		h-19.353c-2.986-6.128-5.695-12.514-8.072-19.032l8.656-2.433c0.689-0.188,1.18-0.8,1.22-1.514c0.04-0.722-0.385-1.381-1.053-1.647
		l-12.347-4.942c-1.09-3.53-2.032-6.864-2.863-10.104l18.209-1.247c0.744-0.048,1.365-0.589,1.521-1.318
		c0.156-0.722-0.192-1.475-0.853-1.82l-22.376-11.877c-4.613-25.976-4.699-52.923-0.338-75.359
		C277.336,126.093,285.854,137.633,300.11,143.729z M58.156,406.586h-28.93c7.697-15.173,32.408-53.856,70.182-94.69
		c4.617,5.617,9.709,11.337,15.174,17.048c-15.166,5.06-28.346,13.995-38.254,25.959C64.062,369.698,57.199,389.327,58.156,406.586z
		"/>
</g>
</svg>
