<?xml version="1.0" encoding="utf-8"?>
<!-- Generator: Adobe Illustrator 16.0.4, SVG Export Plug-In . SVG Version: 6.00 Build 0)  -->
<!DOCTYPE svg PUBLIC "-//W3C//DTD SVG 1.1//EN" "http://www.w3.org/Graphics/SVG/1.1/DTD/svg11.dtd">
<svg version="1.1" id="Layer_1" xmlns="http://www.w3.org/2000/svg" xmlns:xlink="http://www.w3.org/1999/xlink" x="0px" y="0px"
	 width="512px" height="512px" viewBox="0 0 512 512" enable-background="new 0 0 512 512" xml:space="preserve">
<g>
	<path fill-rule="evenodd" clip-rule="evenodd" fill="#454646" d="M140.641,327.231c0-5.223,4.276-9.5,9.5-9.5h4.75
		c5.232,0,9.5,4.277,9.5,9.5V341.5c0,5.232-4.268,9.5-9.5,9.5h-4.75c-5.224,0-9.5-4.268-9.5-9.5V327.231z"/>
	<path fill-rule="evenodd" clip-rule="evenodd" fill="#454646" d="M99.25,327.231c0-5.223,4.272-9.5,9.5-9.5h4.75
		c5.228,0,9.5,4.277,9.5,9.5V341.5c0,5.232-4.272,9.5-9.5,9.5h-4.75c-5.228,0-9.5-4.268-9.5-9.5V327.231z"/>
	<path fill-rule="evenodd" clip-rule="evenodd" fill="#454646" d="M182.032,327.231c0-5.223,4.277-9.5,9.5-9.5h4.75
		c5.228,0,9.5,4.277,9.5,9.5V341.5c0,5.232-4.272,9.5-9.5,9.5h-4.75c-5.223,0-9.5-4.268-9.5-9.5V327.231z"/>
	<path fill-rule="evenodd" clip-rule="evenodd" fill="#454646" d="M223.422,327.231c0-5.223,4.277-9.5,9.5-9.5h4.75
		c5.232,0,9.5,4.277,9.5,9.5V341.5c0,5.232-4.268,9.5-9.5,9.5h-4.75c-5.223,0-9.5-4.268-9.5-9.5V327.231z"/>
	<path fill-rule="evenodd" clip-rule="evenodd" fill="#454646" d="M264.823,327.231c0-5.223,4.272-9.5,9.5-9.5h4.75
		c5.228,0,9.5,4.277,9.5,9.5V341.5c0,5.232-4.272,9.5-9.5,9.5h-4.75c-5.228,0-9.5-4.268-9.5-9.5V327.231z"/>
	<path fill-rule="evenodd" clip-rule="evenodd" fill="#454646" d="M306.213,327.231c0-5.223,4.272-9.5,9.5-9.5h4.75
		c5.224,0,9.5,4.277,9.5,9.5V341.5c0,5.232-4.276,9.5-9.5,9.5h-4.75c-5.228,0-9.5-4.268-9.5-9.5V327.231z"/>
	<path fill-rule="evenodd" clip-rule="evenodd" fill="#454646" d="M347.604,327.231c0-5.223,4.272-9.5,9.5-9.5h4.75
		c5.223,0,9.5,4.277,9.5,9.5V341.5c0,5.232-4.277,9.5-9.5,9.5h-4.75c-5.228,0-9.5-4.268-9.5-9.5V327.231z"/>
	<path fill-rule="evenodd" clip-rule="evenodd" fill="#454646" d="M389,327.231c0-5.223,4.272-9.5,9.5-9.5h4.75
		c5.228,0,9.5,4.277,9.5,9.5V341.5c0,5.232-4.272,9.5-9.5,9.5h-4.75c-5.228,0-9.5-4.268-9.5-9.5V327.231z"/>
	<g>
		<rect x="336.75" y="200.901" fill-rule="evenodd" clip-rule="evenodd" fill="#454646" width="57" height="76"/>
		<rect x="227.5" y="200.901" fill-rule="evenodd" clip-rule="evenodd" fill="#454646" width="57" height="76"/>
		<rect x="118.25" y="200.901" fill-rule="evenodd" clip-rule="evenodd" fill="#454646" width="57" height="76"/>
		<path fill-rule="evenodd" clip-rule="evenodd" fill="#454646" d="M446,206.607V161H66v45.607c7.867,0,14.25,6.383,14.25,14.25
			s-6.383,14.25-14.25,14.25V351h23.75v-38h332.5v38H446V235.107c-7.872,0-14.25-6.383-14.25-14.25S438.128,206.607,446,206.607z
			 M184.75,200.901v76v9.5h-9.5h-57h-9.5v-9.5v-76v-9.5h9.5h57h9.5V200.901z M294,200.901v76v9.5h-9.5h-57H218v-9.5v-76v-9.5h9.5h57
			h9.5V200.901z M403.25,200.901v76v9.5h-9.5h-57h-9.5v-9.5v-76v-9.5h9.5h57h9.5V200.901z"/>
	</g>
</g>
</svg>
