<?xml version="1.0" encoding="utf-8"?>
<!-- Generator: Adobe Illustrator 19.2.1, SVG Export Plug-In . SVG Version: 6.00 Build 0)  -->
<svg version="1.1" id="Work_area" xmlns="http://www.w3.org/2000/svg" xmlns:xlink="http://www.w3.org/1999/xlink" x="0px" y="0px"
	 width="512px" height="512px" viewBox="0 0 512 512" enable-background="new 0 0 512 512" xml:space="preserve">
<g>
	<rect x="152" y="298" fill="#454646" width="21" height="83"/>
	<g>
		<path fill="#454646" d="M342,321.5c0-0.4-7.4-4.5-17.5-4.5c-13.6,0-22.9,9.5-22.9,22.3c0,12.4,8.9,22.3,22.9,22.3
			c9.9,0,17.5-3.9,17.5-4.4v22.4c-2,0.7-9.6,3-18.9,3c-23.7,0-44.3-16.3-44.3-43.2c0-24.9,18.6-43.2,44.2-43.2c9.9,0,18,2.4,19,3
			V321.5z"/>
		<path fill="#454646" d="M123,321.5c-1-0.4-7.7-4.5-17.8-4.5c-13.6,0-23.1,9.5-23.1,22.3c0,12.4,9.1,22.3,23.1,22.3
			c9.9,0,16.8-3.9,17.8-4.4v22.4c-3,0.7-9.9,3-19.3,3c-23.6,0-44.4-16.3-44.4-43.2c0-24.9,18.9-43.2,44.5-43.2
			c9.9,0,17.3,2.4,19.3,3V321.5z"/>
		<path fill="#454646" d="M452.8,339.3c0,23.9-18.4,43.2-44.1,43.2c-25.7,0-44.1-19.3-44.1-43.2c0-23.8,18.4-43.2,44.1-43.2
			C434.4,296.1,452.8,315.5,452.8,339.3 M408.7,317.4c-12.5,0-21.8,9.8-21.8,21.9c0,12.1,9.3,22,21.8,22c12.5,0,21.7-9.8,21.7-22
			C430.5,327.2,421.2,317.4,408.7,317.4"/>
		<path fill="#454646" d="M253,316.6c-1-0.1-9.4-2.5-16.6-2.5c-8.5,0-13.1,2.8-13.1,6.8c0,5.1,6.1,6.8,9.6,8l5.8,1.8
			c13.7,4.3,19.9,13.7,19.9,23.8c0,21-18.5,28-34.7,28c-11.2,0-21.8-2.1-22.8-2.3V361c2,0.5,10.8,3.1,20,3.1
			c10.4,0,15.3-3.1,15.3-7.8c0-4.2-4.1-6.7-9.4-8.3c-1.3-0.4-3.2-1-4.5-1.5c-11.7-3.7-21.5-10.6-21.5-24.4
			c0-15.6,11.9-26.1,31.3-26.1c10.3,0,19.7,2.5,20.7,2.7V316.6z"/>
		<path fill="#454646" d="M37,208c0-5.7-4.7-10.4-10.5-10.4c-5.7,0-10.5,4.7-10.5,10.4v21.9c0,5.8,4.8,10.5,10.5,10.5
			c5.8,0,10.5-4.7,10.5-10.5V208z"/>
		<path fill="#454646" d="M94,179.2c0-5.7-4.8-10.4-10.5-10.4c-5.8,0-10.5,4.7-10.5,10.4v50.6c0,5.8,4.7,10.5,10.5,10.5
			c5.7,0,10.5-4.7,10.5-10.5V179.2z"/>
		<path fill="#454646" d="M152,139.9c0-5.7-4.7-10.4-10.5-10.4c-5.8,0-10.5,4.7-10.5,10.4v110.8c0,5.8,4.7,10.4,10.5,10.4
			c5.7,0,10.5-4.7,10.5-10.4V139.9z"/>
		<path fill="#454646" d="M209,179.2c0-5.7-4.7-10.4-10.5-10.4c-5.7,0-10.5,4.7-10.5,10.4v50.6c0,5.8,4.8,10.5,10.5,10.5
			c5.8,0,10.5-4.7,10.5-10.5V179.2z"/>
		<path fill="#454646" d="M266,208c0-5.7-4.3-10.4-10-10.4c-5.8,0-10,4.7-10,10.4v21.9c0,5.8,4.2,10.5,10,10.5c5.7,0,10-4.7,10-10.5
			V208z"/>
		<path fill="#454646" d="M324,179.2c0-5.7-4.7-10.4-10.5-10.4c-5.7,0-10.5,4.7-10.5,10.4v50.6c0,5.8,4.7,10.5,10.5,10.5
			c5.8,0,10.5-4.7,10.5-10.5V179.2z"/>
		<path fill="#454646" d="M381,139.9c0-5.7-4.7-10.4-10.5-10.4c-5.8,0-10.5,4.7-10.5,10.4v110.8c0,5.8,4.7,10.4,10.5,10.4
			c5.7,0,10.5-4.7,10.5-10.4V139.9z"/>
		<path fill="#454646" d="M439,179.2c0-5.7-4.7-10.4-10.6-10.4c-5.7,0-10.4,4.7-10.4,10.4v50.6c0,5.8,4.7,10.5,10.4,10.5
			c5.9,0,10.6-4.7,10.6-10.5V179.2z"/>
		<path fill="#454646" d="M496,208c0-5.7-4.7-10.4-10.5-10.4c-5.8,0-10.5,4.7-10.5,10.4v21.9c0,5.8,4.7,10.5,10.5,10.5
			c5.7,0,10.5-4.7,10.5-10.5V208z"/>
	</g>
</g>
</svg>
