<?xml version="1.0" encoding="utf-8"?>
<!-- Generator: Adobe Illustrator 16.0.4, SVG Export Plug-In . SVG Version: 6.00 Build 0)  -->
<!DOCTYPE svg PUBLIC "-//W3C//DTD SVG 1.1//EN" "http://www.w3.org/Graphics/SVG/1.1/DTD/svg11.dtd">
<svg version="1.1" id="Layer_1" xmlns="http://www.w3.org/2000/svg" xmlns:xlink="http://www.w3.org/1999/xlink" x="0px" y="0px"
	 width="512px" height="512px" viewBox="0 0 512 512" enable-background="new 0 0 512 512" xml:space="preserve">
<path id="InternetExplorer" fill="#454646" d="M201.701,285.941h154.109h93.965c0.762-6.307,1.219-12.986,1.219-19.666
	c0-25.602-5.484-50.1-15.295-71.99c-1.676-2.598-3.352-5.568-5.027-8.166c0.092-0.373,0.184-0.746,0.365-1.111
	c-16.025-30.805-40.918-56.039-71.234-72.736c-29.402,10.764-64.197,31.17-99.846,59.748c5.027-1.119,10.207-1.857,15.6-1.857
	c39.336,0,71.541,30.803,73.764,69.766H201.885c0.273-6.682,1.492-12.615,3.441-18.557c-39.426,39.709-70.139,81.641-89.15,118.012
	c27.818,60.488,88.693,102.055,159.381,102.055c76.994,0,142.318-49.732,165.963-118.385h-94.91
	c-13.07,24.123-38.572,40.455-67.885,40.455c-29.34,0-54.752-16.332-67.822-40.455c-5.85-11.129-9.201-23.377-9.201-36.738V285.941
	L201.701,285.941z M98.717,422.883c-32.266-32.289,14.107-131,103.746-220.805C292.07,112.637,390.971,66.256,423.268,98.537
	c13.803,13.734,13.254,39.709,1.098,71.998c1.768,2.598,3.533,5.561,5.119,8.158c16.209-42.307,16.117-78.297-5.303-99.822
	c-20.504-20.414-76.354-16.697-138.783,12.248c-3.352-0.373-6.49-0.373-9.842-0.373c-95.732,0-173.488,76.445-175.346,171.818
	c-41.193,73.475-49.725,143.613-26.539,166.625c25.045,25.236,70.504,20.779,122.666-4.828c-3.898-1.852-7.617-4.076-11.334-6.309
	C146.309,435.869,114.592,438.84,98.717,422.883z"/>
</svg>
