<?xml version="1.0" encoding="utf-8"?>
<!-- Generator: Adobe Illustrator 16.0.4, SVG Export Plug-In . SVG Version: 6.00 Build 0)  -->
<!DOCTYPE svg PUBLIC "-//W3C//DTD SVG 1.1//EN" "http://www.w3.org/Graphics/SVG/1.1/DTD/svg11.dtd">
<svg version="1.1" id="Layer_1" xmlns="http://www.w3.org/2000/svg" xmlns:xlink="http://www.w3.org/1999/xlink" x="0px" y="0px"
	 width="512px" height="512px" viewBox="0 0 512 512" enable-background="new 0 0 512 512" xml:space="preserve">
<g>
	<g>
		<path fill="#454646" d="M256,446c-104.768,0-190-85.233-190-190S151.232,66,256,66c104.763,0,190,85.233,190,190
			S360.763,446,256,446z M256,86.911c-93.237,0-169.089,75.852-169.089,169.089S162.763,425.089,256,425.089
			c93.233,0,169.089-75.852,169.089-169.089S349.233,86.911,256,86.911z"/>
	</g>
	<g>
		<g>
			<path fill="#454646" d="M166.218,216.226c0-14.439,11.7-26.14,26.136-26.14c14.439,0,26.14,11.701,26.14,26.14
				c0,14.439-11.7,26.14-26.14,26.14C177.918,242.366,166.218,230.666,166.218,216.226z"/>
		</g>
		<g>
			<path fill="#454646" d="M293.503,216.226c0-14.439,11.7-26.14,26.14-26.14c14.436,0,26.14,11.701,26.14,26.14
				c0,14.439-11.704,26.14-26.14,26.14C305.203,242.366,293.503,230.666,293.503,216.226z"/>
		</g>
	</g>
	<g>
		<path fill="#454646" d="M256,383.935c-48.636,0-92.573-32.255-109.336-80.264c-2.538-7.27,1.299-15.223,8.569-17.761
			c7.273-2.546,15.218,1.299,17.756,8.568c12.859,36.828,46.217,61.572,83.011,61.572c36.786,0,70.144-24.745,83.006-61.572
			c2.542-7.273,10.487-11.133,17.761-8.561c7.266,2.531,11.104,10.483,8.564,17.753C348.565,351.679,304.628,383.935,256,383.935z"
			/>
	</g>
</g>
</svg>
