<?xml version="1.0" encoding="utf-8"?>
<!-- Generator: Adobe Illustrator 16.0.4, SVG Export Plug-In . SVG Version: 6.00 Build 0)  -->
<!DOCTYPE svg PUBLIC "-//W3C//DTD SVG 1.1//EN" "http://www.w3.org/Graphics/SVG/1.1/DTD/svg11.dtd">
<svg version="1.1" id="Layer_1" xmlns="http://www.w3.org/2000/svg" xmlns:xlink="http://www.w3.org/1999/xlink" x="0px" y="0px"
	 width="512px" height="512px" viewBox="0 0 512 512" enable-background="new 0 0 512 512" xml:space="preserve">
<g>
	<path fill="#454646" d="M163.123,108.743c5.028,0,9.144,4.112,9.144,9.141v276.232c0,5.023-4.115,9.141-9.144,9.141h-45.285
		c-5.03,0-9.146-4.117-9.146-9.141V117.884c0-5.028,4.115-9.141,9.146-9.141H163.123z"/>
	<path fill="#454646" d="M255.815,108.743c5.028,0,9.144,4.112,9.144,9.141v276.232c0,5.023-4.115,9.141-9.144,9.141H210.53
		c-5.028,0-9.144-4.117-9.144-9.141V117.884c0-5.028,4.115-9.141,9.144-9.141H255.815z"/>
	<path fill="#454646" d="M70.431,108.743c5.031,0,9.144,4.112,9.144,9.141v276.232c0,5.023-4.113,9.141-9.144,9.141H25.146
		c-5.028,0-9.146-4.117-9.146-9.141V117.884c0-5.028,4.117-9.141,9.146-9.141H70.431z"/>
	<g>
		<polygon fill="#454646" points="362.917,201.337 362.917,270.174 294.079,270.174 294.079,334.42 362.917,334.42 362.917,403.257 
			427.162,403.257 427.162,334.42 496,334.42 496,270.174 427.162,270.174 427.162,201.337 		"/>
	</g>
</g>
</svg>
