<?xml version="1.0" encoding="utf-8"?>
<!-- Generator: Adobe Illustrator 16.0.4, SVG Export Plug-In . SVG Version: 6.00 Build 0)  -->
<!DOCTYPE svg PUBLIC "-//W3C//DTD SVG 1.1//EN" "http://www.w3.org/Graphics/SVG/1.1/DTD/svg11.dtd">
<svg version="1.1" id="Layer_1" xmlns="http://www.w3.org/2000/svg" xmlns:xlink="http://www.w3.org/1999/xlink" x="0px" y="0px"
	 width="512px" height="512px" viewBox="0 0 512 512" enable-background="new 0 0 512 512" xml:space="preserve">
<path fill-rule="evenodd" clip-rule="evenodd" fill="#454646" d="M446,256c0,8.061-0.646,15.92-1.619,23.684
	c-0.236,1.9-0.593,3.777-0.89,5.663c-1.024,6.517-2.315,12.943-3.985,19.223c-0.305,1.113-0.564,2.256-0.861,3.347
	c-4.52,15.72-10.947,30.652-19.111,44.45c-16.352,27.698-39.477,50.825-67.16,67.168c-13.805,8.171-28.745,14.591-44.469,19.118
	c-1.095,0.297-2.223,0.557-3.332,0.854c-6.29,1.67-12.714,2.969-19.227,4.016c-1.882,0.282-3.763,0.623-5.664,0.854
	C271.908,445.354,264.022,446,256,446l0,0l0,0c-8.05,0-15.913-0.646-23.676-1.625c-1.904-0.23-3.782-0.571-5.663-0.854
	c-6.517-1.047-12.944-2.346-19.228-4.016c-1.108-0.297-2.252-0.557-3.343-0.854c-15.724-4.527-30.657-10.947-44.458-19.118
	c-27.693-16.343-50.816-39.47-67.159-67.168c-8.173-13.798-14.593-28.73-19.124-44.45c-0.296-1.091-0.552-2.233-0.855-3.347
	c-1.663-6.279-2.966-12.706-3.979-19.223c-0.312-1.886-0.653-3.763-0.891-5.663C66.652,271.92,66,264.061,66,256l0,0l0,0
	c0-8.037,0.652-15.904,1.625-23.676c0.237-1.907,0.579-3.785,0.891-5.662c1.013-6.517,2.315-12.937,3.979-19.23
	c0.304-1.105,0.56-2.241,0.855-3.332c4.531-15.72,10.951-30.668,19.124-44.465c16.343-27.684,39.466-50.811,67.159-67.16
	c13.801-8.164,28.734-14.592,44.458-19.111c1.091-0.297,2.234-0.557,3.343-0.869c6.283-1.662,12.711-2.953,19.228-3.978
	c1.881-0.305,3.759-0.653,5.663-0.891C240.087,66.653,247.95,66,256,66l0,0l0,0c8.022,0,15.908,0.653,23.682,1.626
	c1.901,0.237,3.782,0.586,5.664,0.891c6.513,1.024,12.937,2.315,19.227,3.978c1.109,0.312,2.237,0.572,3.332,0.869
	c15.724,4.52,30.664,10.947,44.469,19.111c27.684,16.35,50.809,39.477,67.16,67.16c8.164,13.797,14.592,28.745,19.111,44.465
	c0.297,1.091,0.557,2.227,0.861,3.332c1.67,6.294,2.961,12.714,3.985,19.23c0.297,1.877,0.653,3.755,0.89,5.662
	C445.354,240.096,446,247.963,446,256L446,256L446,256z M145.644,212.82l-35.343-35.328C97.62,200.975,89.75,227.426,89.75,256
	s7.87,55.041,20.551,78.517l35.343-35.328c-5.255-13.404-8.394-27.899-8.394-43.188C137.25,240.719,140.389,226.246,145.644,212.82z
	 M256,422.25c28.574,0,55.033-7.867,78.508-20.543l-35.32-35.344c-13.404,5.255-27.898,8.395-43.188,8.395
	c-15.283,0-29.777-3.14-43.182-8.395l-35.323,35.344C200.963,414.383,227.429,422.25,256,422.25z M256,89.758
	c-28.571,0-55.037,7.859-78.505,20.559l35.323,35.336c13.404-5.255,27.898-8.395,43.182-8.395c15.289,0,29.783,3.14,43.188,8.395
	l35.32-35.336C311.033,97.617,284.574,89.758,256,89.758z M347.478,231.701L347.478,231.701
	c-8.724-32.819-34.352-58.447-67.175-67.176l0,0l0,0c-3.15-0.831-6.323-1.528-9.602-2.041C265.927,161.631,261.054,161,256,161
	c-5.062,0-9.932,0.631-14.703,1.484c-3.27,0.513-6.442,1.21-9.604,2.041l0,0l0,0c-32.812,8.729-58.447,34.356-67.165,67.176l0,0l0,0
	c-0.835,3.154-1.528,6.323-2.041,9.604C161.631,246.077,161,250.953,161,256c0,5.062,0.631,9.938,1.487,14.711
	c0.513,3.266,1.206,6.441,2.041,9.604l0,0l0,0c8.718,32.812,34.353,58.447,67.165,67.16l0,0l0,0
	c3.161,0.839,6.334,1.529,9.604,2.041C246.068,350.369,250.938,351,256,351c5.054,0,9.927-0.631,14.701-1.484
	c3.278-0.512,6.451-1.202,9.602-2.041l0,0l0,0c32.823-8.713,58.451-34.348,67.175-67.16l0,0l0,0c0.835-3.162,1.529-6.338,2.04-9.604
	C350.372,265.938,351,261.062,351,256c0-5.047-0.628-9.923-1.482-14.695C349.007,238.024,348.312,234.855,347.478,231.701
	L347.478,231.701z M401.698,177.492l-35.351,35.328c5.27,13.426,8.402,27.898,8.402,43.18c0,15.289-3.133,29.784-8.402,43.188
	l35.351,35.328c12.687-23.476,20.552-49.942,20.552-78.517S414.385,200.975,401.698,177.492z"/>
</svg>
