<?xml version="1.0" encoding="utf-8"?>
<!-- Generator: Adobe Illustrator 16.0.4, SVG Export Plug-In . SVG Version: 6.00 Build 0)  -->
<!DOCTYPE svg PUBLIC "-//W3C//DTD SVG 1.1//EN" "http://www.w3.org/Graphics/SVG/1.1/DTD/svg11.dtd">
<svg version="1.1" id="Layer_1" xmlns="http://www.w3.org/2000/svg" xmlns:xlink="http://www.w3.org/1999/xlink" x="0px" y="0px"
	 width="512px" height="512px" viewBox="0 0 512 512" enable-background="new 0 0 512 512" xml:space="preserve">
<g>
	<path fill="#454646" d="M312.898,285.957c0,5.074-4.146,9.215-9.214,9.215H25.22c-5.063,0-9.22-4.142-9.22-9.215v-45.653
		c0-5.069,4.156-9.215,9.22-9.215h278.465c5.067,0,9.214,4.146,9.214,9.215V285.957z"/>
	<path fill="#454646" d="M312.898,384.25c0,5.064-4.146,9.215-9.214,9.215H25.22c-5.063,0-9.22-4.151-9.22-9.215v-45.658
		c0-5.068,4.156-9.215,9.22-9.215h278.465c5.067,0,9.214,4.146,9.214,9.215V384.25z"/>
	<polygon fill="#454646" points="426.606,266.619 426.606,197.229 496,197.229 496,132.46 426.606,132.46 426.606,63.066 
		361.842,63.066 361.842,132.46 292.447,132.46 292.447,197.229 361.842,197.229 361.842,266.619 	"/>
	<g>
		<path fill="#454646" d="M263.369,132.801H25.22c-5.063,0-9.22,4.146-9.22,9.215v45.654c0,5.069,4.156,9.22,9.22,9.22h238.149
			V132.801z"/>
	</g>
</g>
</svg>
