<?xml version="1.0" encoding="utf-8"?>
<!-- Generator: Adobe Illustrator 19.2.1, SVG Export Plug-In . SVG Version: 6.00 Build 0)  -->
<svg version="1.1" id="Layer_1" xmlns="http://www.w3.org/2000/svg" xmlns:xlink="http://www.w3.org/1999/xlink" x="0px" y="0px"
	 width="512px" height="512px" viewBox="0 0 512 512" style="enable-background:new 0 0 512 512;" xml:space="preserve">
<style type="text/css">
	.st0{fill:#454646;}
</style>
<g>
	<g>
		<path class="st0" d="M256,76.7c98.9,0,179.3,80.4,179.3,179.3c0,98.9-80.4,179.3-179.3,179.3c-98.9,0-179.3-80.4-179.3-179.3
			C76.7,157.1,157.1,76.7,256,76.7 M256,66C151.1,66,66,151.1,66,256c0,104.9,85.1,190,190,190c104.9,0,190-85.1,190-190
			C446,151.1,360.9,66,256,66L256,66z"/>
	</g>
	<g>
		<path class="st0" d="M284.6,223.2c-4.5-3.1-9.4-4.7-15-4.7c-7.9,0-14.6,3-20.3,9c-5.7,6-8.5,15.9-8.5,29.9c0,11.2,2.7,20,8.2,26.4
			c5.4,6.4,12.3,9.7,20.5,9.7c8.4,0,15.2-3.2,20.6-9.8c5.4-6.5,8.1-15.7,8.1-27.7c0-7.6-1.2-14.2-3.5-19.8
			C292.5,230.7,289.1,226.3,284.6,223.2z"/>
		<path class="st0" d="M256,88.2c-92.6,0-167.8,75.1-167.8,167.8c0,92.6,75.1,167.8,167.8,167.8c92.6,0,167.8-75.1,167.8-167.8
			C423.8,163.4,348.6,88.2,256,88.2z M187.8,302.5h-54.3v-13.9l22.8-28.9c3.7-4.7,6.5-8.1,8.3-10.1c-1.9,0.1-4.3,0.2-7.4,0.3
			l-21.5,0.1v-14.8H186v12.6l-23.3,29.6l-8.2,9.8c4.5-0.3,7.2-0.4,8.3-0.4h24.9L187.8,302.5L187.8,302.5z M203.2,304h-8.3l24.3-96
			h8.2L203.2,304z M304.5,281.4c-3.4,7.4-8.3,13.1-14.6,16.9c-6.3,3.8-13.1,5.7-20.4,5.7c-7.9,0-15-2.1-21.2-6.3
			c-6.2-4.2-10.9-10-14.2-17.3c-3.2-7.3-4.8-15-4.8-23.2c0-15.4,3.7-27.5,11.2-36.2c7.5-8.7,17.1-13.1,29-13.1c7.8,0,14.7,2,21,6.1
			c6.2,4.1,11,9.8,14.2,17.1c3.3,7.3,4.9,15.6,4.9,24.9C309.7,265.6,308,274,304.5,281.4z M363.7,300.4c-4.8,2.4-10.2,3.6-16.2,3.6
			c-7.6,0-14-1.2-19.1-3.7c-5.1-2.4-9.2-6.1-12.1-11.1c-2.9-4.9-4.5-10.5-4.6-16.7l10.5-1c0.5,4.6,1.7,8.5,3.5,11.4
			c1.8,3,4.6,5.4,8.4,7.2c3.8,1.8,8.1,2.8,12.9,2.8c4.2,0,8-0.7,11.2-2.1c3.2-1.4,5.7-3.3,7.2-5.7c1.6-2.4,2.4-5.1,2.4-7.9
			c0-2.9-0.8-5.5-2.3-7.6c-1.5-2.2-4-4-7.6-5.5c-2.3-1-7.2-2.5-14.9-4.5c-7.7-2-13.1-4-16.2-5.8c-4-2.3-7-5.2-9-8.6
			c-2-3.4-3-7.3-3-11.6c0-4.7,1.2-9.1,3.6-13.1s5.9-7.2,10.5-9.3c4.6-2.1,9.8-3.2,15.4-3.2c6.2,0,11.7,1.1,16.5,3.3
			c4.8,2.2,8.4,5.5,11,9.8c2.6,4.3,3.9,9.2,4.1,14.6l-10.7,0.9c-0.6-5.9-2.5-10.3-5.8-13.3c-3.3-3-8.2-4.5-14.6-4.5
			c-6.7,0-11.6,1.4-14.7,4.1c-3.1,2.7-4.6,6-4.6,9.8c0,3.3,1.1,6.1,3.3,8.2c2.1,2.2,7.7,4.4,16.8,6.6c9,2.3,15.2,4.2,18.6,5.9
			c4.9,2.5,8.5,5.6,10.8,9.5c2.3,3.8,3.5,8.2,3.5,13.2c0,4.9-1.3,9.6-3.8,14C372.1,294.6,368.4,298,363.7,300.4z"/>
	</g>
</g>
</svg>
