<?xml version="1.0" encoding="utf-8"?>
<!-- Generator: Adobe Illustrator 16.0.4, SVG Export Plug-In . SVG Version: 6.00 Build 0)  -->
<!DOCTYPE svg PUBLIC "-//W3C//DTD SVG 1.1//EN" "http://www.w3.org/Graphics/SVG/1.1/DTD/svg11.dtd">
<svg version="1.1" id="Layer_1" xmlns="http://www.w3.org/2000/svg" xmlns:xlink="http://www.w3.org/1999/xlink" x="0px" y="0px"
	 width="512px" height="512px" viewBox="0 0 512 512" enable-background="new 0 0 512 512" xml:space="preserve">
<g>
	<path fill="#454646" d="M462.854,211.014c-16.137-74.214-92.982-126.05-186.881-126.05c-18.539,0-37.336,2.042-55.863,6.07
		C106.045,115.841,29.332,210.021,49.105,300.978C65.242,375.2,142.08,427.036,235.979,427.036c18.543,0,37.336-2.047,55.867-6.07
		c55.047-11.973,103.146-40.261,135.434-79.661C459.852,301.568,472.48,255.294,462.854,211.014z M274.008,385.454
		c-69.764,0-126.521-56.762-126.521-126.525c0-69.764,56.758-126.522,126.521-126.522s126.525,56.758,126.525,126.522
		C400.533,328.692,343.771,385.454,274.008,385.454z"/>
	<path fill="#454646" d="M274.008,146.963c-61.732,0-111.961,50.228-111.961,111.965c0,61.737,50.229,111.965,111.961,111.965
		c61.736,0,111.965-50.228,111.965-111.965C385.973,197.191,335.744,146.963,274.008,146.963z M255.986,332.199
		c-42.021,0-76.203-34.183-76.203-76.208c0-42.008,34.182-76.191,76.203-76.191c42.012,0,76.189,34.183,76.189,76.191
		C332.176,298.017,297.998,332.199,255.986,332.199z"/>
</g>
</svg>
