<?xml version="1.0" encoding="utf-8"?>
<!-- Generator: Adobe Illustrator 18.1.1, SVG Export Plug-In . SVG Version: 6.00 Build 0)  -->
<svg version="1.1" id="Layer_1" xmlns="http://www.w3.org/2000/svg" xmlns:xlink="http://www.w3.org/1999/xlink" x="0px" y="0px"
	 width="512px" height="512px" viewBox="0 0 512 512" enable-background="new 0 0 512 512" xml:space="preserve">
<g>
	<g>
		<polygon fill="#454646" points="256.031,165.74 207.611,177.721 256.031,186.545 304.461,177.721 		"/>
		<polygon fill="#454646" points="205.784,170.339 254.204,158.358 256.031,157.906 257.857,158.358 306.287,170.339 
			313.571,172.141 313.571,94.772 256.026,66 198.492,94.772 198.492,172.144 		"/>
	</g>
	<g>
		<polygon fill="#454646" points="256.032,346.26 304.452,334.279 256.031,325.455 207.602,334.279 		"/>
		<polygon fill="#454646" points="306.279,341.661 257.859,353.642 256.032,354.094 254.206,353.642 205.776,341.661 
			198.492,339.859 198.492,417.228 256.037,446 313.571,417.228 313.571,339.856 		"/>
	</g>
	<polygon fill="#454646" points="256.022,208.186 198.488,215.401 198.488,296.767 256.022,304.089 313.566,296.767 
		313.566,215.401 	"/>
	<g>
		<polygon fill="#454646" points="313.539,176.121 313.539,176.121 255.995,186.606 198.461,176.121 198.461,149.863 
			198.461,149.863 198.461,176.121 255.995,186.606 		"/>
		<polygon fill="#454646" points="198.461,361.569 198.461,335.79 198.461,361.569 		"/>
		<path fill="#454646" d="M321.144,148.021v28.101v6.344l-6.242,1.137l-57.544,10.484l-1.363,0.249l-1.363-0.249l-57.534-10.484
			l-6.241-1.137v-6.344v-28.101L98.71,125.703v259.917l25.162-6.076l0.196,0.028l66.788-16.163V335.79v-6.344l6.241-1.137
			l57.544-10.484l1.363-0.249l1.363,0.249l57.534,10.484l6.241,1.137v6.344v27.582l92.146,22.248V125.703L321.144,148.021z
			 M321.171,215.401v81.366v6.699l-6.645,0.845l-57.544,7.322l-0.96,0.123l-0.96-0.123l-57.534-7.322l-6.645-0.846v-6.698v-81.366
			v-6.711l6.658-0.835l57.534-7.215l0.946-0.119l0.946,0.119l57.544,7.215l6.659,0.835V215.401z"/>
	</g>
</g>
</svg>
