<?xml version="1.0" encoding="utf-8"?>
<!-- Generator: Adobe Illustrator 16.0.4, SVG Export Plug-In . SVG Version: 6.00 Build 0)  -->
<!DOCTYPE svg PUBLIC "-//W3C//DTD SVG 1.1//EN" "http://www.w3.org/Graphics/SVG/1.1/DTD/svg11.dtd">
<svg version="1.1" id="Layer_1" xmlns="http://www.w3.org/2000/svg" xmlns:xlink="http://www.w3.org/1999/xlink" x="0px" y="0px"
	 width="512px" height="512px" viewBox="0 0 512 512" enable-background="new 0 0 512 512" xml:space="preserve">
<path fill="#454646" d="M436.078,83.567H75.926c-6.323,0-10.731,5.119-9.803,11.375l4.272,28.676
	c0.936,6.256,5.283,15.101,9.661,19.658l126.069,131.188c4.378,4.558,8.636,13.417,9.459,19.681l16.164,122.89
	c0.823,6.271,6.667,11.397,12.991,11.397h22.517c6.323,0,12.175-5.126,12.998-11.397l16.156-122.89
	c0.831-6.264,5.089-15.123,9.467-19.681L431.94,143.276c4.385-4.558,8.732-13.402,9.661-19.658l4.272-28.676
	C446.81,88.687,442.402,83.567,436.078,83.567z M375.936,130.218l-58.04,57.359c-2.888,2.858-8.583,5.193-12.653,5.193H202.991
	c-4.063,0-9.691-2.402-12.505-5.343l-54.516-57.06c-2.806-2.941-1.773-5.351,2.29-5.351h235.542
	C377.866,125.018,378.832,127.359,375.936,130.218z"/>
</svg>
