<?xml version="1.0" encoding="utf-8"?>
<!-- Generator: Adobe Illustrator 16.0.4, SVG Export Plug-In . SVG Version: 6.00 Build 0)  -->
<!DOCTYPE svg PUBLIC "-//W3C//DTD SVG 1.1//EN" "http://www.w3.org/Graphics/SVG/1.1/DTD/svg11.dtd">
<svg version="1.1" id="Layer_1" xmlns="http://www.w3.org/2000/svg" xmlns:xlink="http://www.w3.org/1999/xlink" x="0px" y="0px"
	 width="512px" height="512px" viewBox="0 0 512 512" enable-background="new 0 0 512 512" xml:space="preserve">
<g>
	<path fill="#454646" d="M301.474,108.743c5.028,0,9.142,4.112,9.142,9.141v276.232c0,5.023-4.113,9.141-9.142,9.141h-45.29
		c-5.028,0-9.139-4.117-9.139-9.141V117.884c0-5.028,4.11-9.141,9.139-9.141H301.474z"/>
	<path fill="#454646" d="M394.166,108.743c5.026,0,9.142,4.112,9.142,9.141v276.232c0,5.023-4.115,9.141-9.142,9.141h-45.287
		c-5.028,0-9.141-4.117-9.141-9.141V117.884c0-5.028,4.113-9.141,9.141-9.141H394.166z"/>
	<path fill="#454646" d="M486.858,108.743c5.028,0,9.142,4.112,9.142,9.141v276.232c0,5.023-4.113,9.141-9.142,9.141h-45.287
		c-5.028,0-9.141-4.117-9.141-9.141V117.884c0-5.028,4.113-9.141,9.141-9.141H486.858z"/>
	<g>
		<polygon fill="#454646" points="84.839,201.337 84.839,270.174 16,270.174 16,334.42 84.839,334.42 84.839,403.257 
			149.085,403.257 149.085,334.42 217.92,334.42 217.92,270.174 149.085,270.174 149.085,201.337 		"/>
	</g>
</g>
</svg>
