<?xml version="1.0" encoding="utf-8"?>
<!-- Generator: Adobe Illustrator 18.1.1, SVG Export Plug-In . SVG Version: 6.00 Build 0)  -->
<svg version="1.1" id="Ebene_1" xmlns="http://www.w3.org/2000/svg" xmlns:xlink="http://www.w3.org/1999/xlink" x="0px" y="0px"
	 width="512px" height="512px" viewBox="0 0 512 512" enable-background="new 0 0 512 512" xml:space="preserve">
<g>
	<g>
		<path fill="#454646" d="M394,96c-42.2,0-66,71.6-66,160c0,88.4,23.8,160,66,160s62-71.6,62-160C456,167.6,436.2,96,394,96z"/>
	</g>
	<g>
		<path fill="#454646" d="M330.2,374.9C318.3,344.1,312,303,312,256s6.3-88.1,18.2-118.9c7.5-19.4,20.4-32.4,29.6-41.1h-49.2
			c-42.2,0-74,71.6-74,160c0,88.4,31.8,160,74,160h49.2C350.6,407.3,337.7,394.3,330.2,374.9z"/>
	</g>
	<g>
		<path fill="#454646" d="M243.3,375.8c-14.6-31.9-22.6-74.5-22.6-119.8c0-45.3,8-87.9,22.6-119.8c7.9-17.2,21.4-30.7,32.2-40.2
			h-56.1c-42.2,0-74,71.6-74,160c0,88.4,31.8,160,74,160h56.1C264.7,406.5,251.1,393,243.3,375.8z"/>
	</g>
	<g>
		<path fill="#454646" d="M151.9,375.8c-14.6-31.9-22.6-74.5-22.6-119.8c0-45.3,8-87.9,22.6-119.8c7.9-17.2,21.4-30.7,32.2-40.2H138
			c-42.2,0-82,71.6-82,160c0,88.4,39.8,160,82,160h46.1C173.4,406.5,159.8,393,151.9,375.8z"/>
	</g>
</g>
</svg>
