<?xml version="1.0" encoding="utf-8"?>
<!-- Generator: Adobe Illustrator 18.1.1, SVG Export Plug-In . SVG Version: 6.00 Build 0)  -->
<svg version="1.1" id="Ebene_1" xmlns="http://www.w3.org/2000/svg" xmlns:xlink="http://www.w3.org/1999/xlink" x="0px" y="0px"
	 width="512px" height="512px" viewBox="0 0 512 512" enable-background="new 0 0 512 512" xml:space="preserve">
<g>
	<polygon fill="#454646" points="369.2,337.5 406.2,300.4 245.2,257.2 288.3,418.3 325.4,381.2 410.2,466 454,422.3 	"/>
	<path fill="#454646" d="M174.3,271.3c0.9-4.2,1.5-8.5,1.5-13c0-9.3-2.3-17.9-6.1-25.7l182.6-101.4c6,3,12.7,4.8,19.9,4.8
		c24.9,0,45-20.2,45-45s-20.2-45-45-45c-20.3,0-37.2,13.5-42.9,31.9h-91.3c-5.3-14.3-19-24.5-35.1-24.5c-20.8,0-37.6,16.8-37.6,37.6
		c0,20.8,16.8,37.6,37.6,37.6c16.1,0,29.8-10.2,35.1-24.5h91.3c0.9,2.8,2,5.5,3.3,8.1L152.9,212c-10-7.8-22.4-12.6-36-12.6
		c-32.5,0-58.9,26.4-58.9,58.9s26.4,58.9,58.9,58.9c18.6,0,35-8.8,45.8-22.2l72.2,24.9l-8.2-30.5L174.3,271.3z"/>
</g>
</svg>
