<?xml version="1.0" encoding="utf-8"?>
<!-- Generator: Adobe Illustrator 16.0.4, SVG Export Plug-In . SVG Version: 6.00 Build 0)  -->
<!DOCTYPE svg PUBLIC "-//W3C//DTD SVG 1.1//EN" "http://www.w3.org/Graphics/SVG/1.1/DTD/svg11.dtd">
<svg version="1.1" id="Layer_1" xmlns="http://www.w3.org/2000/svg" xmlns:xlink="http://www.w3.org/1999/xlink" x="0px" y="0px"
	 width="512px" height="512px" viewBox="0 0 512 512" enable-background="new 0 0 512 512" xml:space="preserve">
<g>
	<path fill="#454646" d="M255.998,137.36c-25.403,0-45.985,20.592-45.985,45.995v37.626h91.976v-37.626
		C301.988,157.952,281.398,137.36,255.998,137.36z"/>
	<path fill="#454646" d="M437.746,121.469c0,0-44.219,6.4-87.255-30.498C302.672,49.965,272.261,46,255.998,46
		c-16.258,0-46.669,3.965-94.489,44.971c-43.036,36.898-87.255,30.498-87.255,30.498s-3.084,138.798,36.226,213.495
		C166.96,442.278,255.998,466,255.998,466s89.04-23.722,145.521-131.037C440.83,260.267,437.746,121.469,437.746,121.469z
		 M352.159,354.768H159.841V220.982h25.085v-41.805c0-36.938,29.944-66.893,66.89-66.893h8.367
		c36.942,0,66.895,29.955,66.895,66.893v41.805h25.081V354.768z"/>
	<path fill="#454646" d="M272.724,270.63c0-9.242-7.491-16.726-16.726-16.726c-9.242,0-16.721,7.483-16.721,16.726
		c0,6.996,4.304,12.971,10.405,15.46l-6.222,43.587h25.081l-6.23-43.587C268.413,283.601,272.724,277.626,272.724,270.63z"/>
</g>
</svg>
