<?xml version="1.0" encoding="utf-8"?>
<!-- Generator: Adobe Illustrator 16.0.4, SVG Export Plug-In . SVG Version: 6.00 Build 0)  -->
<!DOCTYPE svg PUBLIC "-//W3C//DTD SVG 1.1//EN" "http://www.w3.org/Graphics/SVG/1.1/DTD/svg11.dtd">
<svg version="1.1" id="Layer_1" xmlns="http://www.w3.org/2000/svg" xmlns:xlink="http://www.w3.org/1999/xlink" x="0px" y="0px"
	 width="512px" height="512px" viewBox="0 0 512 512" enable-background="new 0 0 512 512" xml:space="preserve">
<path fill="#454646" d="M430.652,140.918c7.304-5.566,12.002-13.646,13.232-22.749c1.226-9.105-1.166-18.141-6.734-25.444
	c-6.559-8.601-16.532-13.536-27.358-13.536c-7.588,0-14.79,2.438-20.834,7.043c-3.679,2.808-6.623,6.223-8.821,10H168.364
	c-1.565-3.296-3.462-6.457-5.725-9.421C152.564,73.592,137.239,66,120.596,66h-0.003c-11.66,0.004-22.73,3.747-32.016,10.834
	c-23.161,17.663-27.639,50.878-9.976,74.039c5.417,7.107,12.375,12.511,20.21,16.061v237.694c0,8.93,7.304,16.229,16.227,16.229
	h241.197c1.271,2.622,2.815,5.159,4.648,7.562c8.52,11.176,21.467,17.581,35.526,17.581c9.848,0,19.197-3.164,27.043-9.146
	c9.479-7.219,15.583-17.707,17.175-29.526c1.595-11.818-1.511-23.547-8.747-33.032c-2.459-3.225-5.322-6.002-8.442-8.391V145.155
	C425.978,144.054,428.396,142.638,430.652,140.918z M365.692,209.181c-1.67,12.401-8.073,23.411-18.025,30.993
	c-0.844,0.646-1.718,1.236-2.592,1.818l55.225,128.883c7.873,1.008,15.353,5.026,20.549,11.835
	c10.305,13.513,7.703,32.819-5.813,43.11c-5.569,4.248-12.128,6.305-18.628,6.305c-9.272,0-18.432-4.17-24.489-12.117
	c-8.909-11.685-8.137-27.721,0.989-38.506l-46.302-132.301c-2.398,0.376-4.844,0.576-7.317,0.576
	c-14.756,0-28.351-6.718-37.291-18.449c-7.588-9.949-10.847-22.263-9.177-34.665c0.068-0.508,0.193-0.995,0.278-1.501
	l-126.001-47.751c-0.905,0.837-1.85,1.646-2.846,2.408c-7.06,5.383-15.366,7.985-23.602,7.985c-11.738,0-23.344-5.285-31.013-15.343
	c-13.042-17.107-9.75-41.556,7.358-54.598c7.053-5.383,15.359-7.985,23.598-7.987c11.742,0,23.348,5.287,31.017,15.349
	c5.19,6.806,7.75,14.776,7.923,22.724l121.978,57.217c2.615-3.544,5.738-6.748,9.336-9.492c8.239-6.281,18.056-9.598,28.385-9.598
	c10.024,0,19.468,3.161,27.321,8.825l43.764-45.001c-2.608-8.049-0.051-17.212,7.057-22.636c3.713-2.836,8.083-4.201,12.419-4.201
	c6.179,0,12.29,2.781,16.325,8.08c6.867,9.001,5.132,21.873-3.879,28.74c-3.712,2.832-8.083,4.204-12.416,4.204
	c-2.246,0-4.481-0.383-6.612-1.104l-45.58,43.158C364.384,185.796,367.277,197.433,365.692,209.181z"/>
</svg>
