<?xml version="1.0" encoding="utf-8"?>
<!-- Generator: Adobe Illustrator 18.1.1, SVG Export Plug-In . SVG Version: 6.00 Build 0)  -->
<svg version="1.1" id="Ebene_1" xmlns="http://www.w3.org/2000/svg" xmlns:xlink="http://www.w3.org/1999/xlink" x="0px" y="0px"
	 width="512px" height="512px" viewBox="0 0 512 512" enable-background="new 0 0 512 512" xml:space="preserve">
<g>
	<g>
		<path fill="#454646" d="M393.2,146.8l-65.9-65.9c-8.2-8.2-24.4-14.9-36-14.9H125.3c-11.6,0-21.1,9.5-21.1,21.1v337.8
			c0,11.6,9.5,21.1,21.1,21.1H387c11.6,0,21.1-9.5,21.1-21.1V182.8C408.2,171.2,401.4,155,393.2,146.8z M133.7,416.4V95.6h157.2
			v87.7h87.7v233.2H133.7z"/>
	</g>
	<polygon fill="#454646" points="281.2,214.1 229.5,303.8 204.4,260.3 150.6,353.5 361.7,353.5 	"/>
	<circle fill="#454646" cx="210.2" cy="191.8" r="25.3"/>
</g>
</svg>
