<?xml version="1.0" encoding="utf-8"?>
<!-- Generator: Adobe Illustrator 18.1.1, SVG Export Plug-In . SVG Version: 6.00 Build 0)  -->
<svg version="1.1" id="Ebene_1" xmlns="http://www.w3.org/2000/svg" xmlns:xlink="http://www.w3.org/1999/xlink" x="0px" y="0px"
	 width="512px" height="512px" viewBox="0 0 512 512" enable-background="new 0 0 512 512" xml:space="preserve">
<g>
	<g>
		<path fill="#454646" d="M95.8,445.3h70.6V66H95.8V445.3z M115.3,85.5h31.6v253.4c0,8.1-6.5,14.6-14.6,14.6h-2.4
			c-8.1,0-14.6-6.5-14.6-14.6V85.5z"/>
		<path fill="#454646" d="M219.8,446h70.6V66h-70.6V446z M239.3,85.5h31.6v80.8c0,8.1-6.5,14.6-14.6,14.6h-2.4
			c-8.1,0-14.6-6.5-14.6-14.6V85.5z"/>
		<path fill="#454646" d="M345.6,66v379.5h70.6V66H345.6z M365.1,85.5h31.6v171.9c0,8.1-6.5,14.6-14.6,14.6h-2.4
			c-8.1,0-14.6-6.5-14.6-14.6V85.5z"/>
	</g>
</g>
</svg>
