<?xml version="1.0" encoding="utf-8"?>
<!-- Generator: Adobe Illustrator 19.2.1, SVG Export Plug-In . SVG Version: 6.00 Build 0)  -->
<svg version="1.1" id="Work_area" xmlns="http://www.w3.org/2000/svg" xmlns:xlink="http://www.w3.org/1999/xlink" x="0px" y="0px"
	 width="512px" height="512px" viewBox="0 0 512 512" enable-background="new 0 0 512 512" xml:space="preserve">
<path fill="#454646" d="M80.7,234.7C91.9,146.8,151.8,67.1,259.3,66c64.9,1.2,118.1,30.6,149.9,86.7c16,29.3,20.9,60,21.9,93.9V286
	H192.8c1.1,99,145.2,95.4,206.2,52v80.1c-36,21.8-118.2,41.2-181.8,16.2c-54.2-20.4-92.7-77-92.4-131.6
	c-1.8-70.8,35.2-117.6,92.6-144.2C205.2,173.6,196,190,191.1,219h134.7c0,0,7.9-80.5-76.2-80.5C170.3,141.3,113.1,187.4,80.7,234.7
	L80.7,234.7z"/>
</svg>
