<?xml version="1.0" encoding="utf-8"?>
<!-- Generator: Adobe Illustrator 16.0.4, SVG Export Plug-In . SVG Version: 6.00 Build 0)  -->
<!DOCTYPE svg PUBLIC "-//W3C//DTD SVG 1.1//EN" "http://www.w3.org/Graphics/SVG/1.1/DTD/svg11.dtd">
<svg version="1.1" id="Layer_1" xmlns="http://www.w3.org/2000/svg" xmlns:xlink="http://www.w3.org/1999/xlink" x="0px" y="0px"
	 width="512px" height="512px" viewBox="0 0 512 512" enable-background="new 0 0 512 512" xml:space="preserve">
<g>
	<path fill="#454646" d="M36.529,246.586l-14.925,64.641c-0.882,2.578-2.231,2.438-5.25,2.578l-0.356,14.719l24.834-0.094
		c4.819-0.281,7.819-3,9.807-9.75l16.641-72.094H36.529z"/>
	<polygon fill="#454646" points="41.573,224.742 37.762,241.242 68.508,241.242 72.323,224.742 	"/>
	<path fill="#454646" d="M170.029,233.602l-2.99,12.984h-10.903l-2.7,11.672h10.912l-6.459,27.938
		c-1.664,7.219-0.338,19.969,14.732,19.969h36.408l2.943-12.75c-25.266,0-25.266,0-23.428-8.016l6.271-27.141h23.007h2.259h8.648
		l-6.445,27.938c-1.668,7.219-0.352,19.969,14.729,19.969h36.403l2.953-12.75c-25.275,0-25.28,0-23.429-8.016l6.263-27.141h25.266
		l2.71-11.672h-25.275l2.99-12.984h-30.469l-3,12.984h-8.634h-2.269h-23.016l3-12.984H170.029z"/>
	<path fill="#454646" d="M291.886,246.586l-10.819,46.828c0,0-2.943,12.75,15.01,12.75h30.497c-1.528,6.609-2.25,9.75-19.979,9.75
		h-30.722l-2.747,11.906h48.45c22.341,0,30.375,0,33.122-11.906l16.003-69.328h-30.375l-10.8,46.828h-17.729l10.81-46.828H291.886z"
		/>
	<polygon fill="#454646" points="374.151,283.289 368.873,306.164 399.73,306.164 405.014,283.289 	"/>
	<polygon fill="#454646" points="382.636,246.586 377.348,269.461 408.215,269.461 413.498,246.586 	"/>
	<polygon fill="#454646" points="446.043,224.742 403.532,315.914 419.076,315.914 461.592,224.742 	"/>
	<polygon fill="#454646" points="480.464,224.742 437.948,315.914 453.482,315.914 495.998,224.742 	"/>
	<path fill="#454646" d="M135.37,246.586H85.542c-5.325,0-11.438,4.5-12.778,11.672l-5.893,24.141
		c-3.454,14.953-1.636,23.766,9.521,23.766h62.963l2.953-12.75H95.113l2.541-11.016h47.185c0.75-3.281,3.899-8.062,5.568-24.141
		C150.886,256.242,147.623,246.586,135.37,246.586z M117.191,269.461h-16.547c2.035-8.812,4.852-11.203,10.21-11.203
		C117.398,258.258,119.301,260.32,117.191,269.461z"/>
</g>
</svg>
