<?xml version="1.0" encoding="utf-8"?>
<!-- Generator: Adobe Illustrator 18.1.1, SVG Export Plug-In . SVG Version: 6.00 Build 0)  -->
<svg version="1.1" id="Ebene_1" xmlns="http://www.w3.org/2000/svg" xmlns:xlink="http://www.w3.org/1999/xlink" x="0px" y="0px"
	 width="512px" height="512px" viewBox="0 0 512 512" enable-background="new 0 0 512 512" xml:space="preserve">
<path fill="#454646" d="M374,161.2c0,0-0.1-0.2-0.2-0.2C372.2,97.2,320.1,46,256,46c-64.1,0-116.2,51.2-117.8,115
	c0,0.1-0.1,0.2-0.1,0.2l0.1,0.1c0,0.9-0.1,1.8-0.1,2.7c0,40.7,20.6,76.6,52,97.8h0v97.8v33.6V466h24v-72.8h18V466h48v-72.8h18V466
	h24v-72.8v-33.6v-97.8h0c31.4-21.2,52-57.1,52-97.8c0-0.9-0.1-1.8-0.1-2.7L374,161.2z M360.1,144.6c-10.2-10.1-26.2-22.5-49.1-30.9
	c-4.6-22.2-11.6-38.3-17.2-48.6C327.7,78.1,353.3,108,360.1,144.6z M262,58.3c4.9,0.3,9.7,0.8,14.4,1.7c3.3,4.4,14.2,20.6,21.3,49.5
	c-10.6-2.8-22.6-4.5-35.7-4.9V58.3z M262,116.6c14.5,0.5,27.3,2.8,38.4,6.3c2.1,12.1,3.6,25.8,3.6,41.5c0,4-0.2,7.9-0.5,11.7
	c-12.1-3-25.9-5.1-41.5-5.5V116.6z M302.2,188c-1.9,12.5-5.2,23.3-9.2,32.8c-8.9-1.3-19.2-2.2-31-2.4v-36
	C277.2,182.8,290.6,184.9,302.2,188z M208,164.3c0-15.6,1.4-29.4,3.5-41.5c11.2-3.4,23.9-5.8,38.5-6.3v53.9
	c-15.6,0.5-29.4,2.5-41.5,5.5C208.2,172.2,208,168.4,208,164.3z M209.8,188c11.6-3,25.1-5.1,40.2-5.6v36c-11.7,0.2-22.1,1.1-31,2.4
	C215,211.3,211.7,200.5,209.8,188z M250,58.3v46.3c-13.1,0.4-25.1,2.1-35.7,4.9c7.1-28.9,18-45.1,21.2-49.5
	C240.3,59.1,245.1,58.6,250,58.3z M218.2,65.1c-5.7,10.3-12.6,26.4-17.2,48.6c-22.9,8.4-38.9,20.8-49.1,30.9
	C158.7,108,184.3,78.1,218.2,65.1z M150,164.8c5-6.8,20.2-25.2,48.5-37.3c-1.6,11-2.6,23.3-2.6,36.8c0,5.2,0.2,10.2,0.6,15
	c-18.4,6-31.9,13.7-40.5,19.8C152.3,188.3,150.1,176.8,150,164.8z M160.9,210.5c7.3-5.4,19.8-13,37.3-19c1.9,11.8,5,22.1,8.7,31.4
	c-14.2,3.1-24,7.1-30.4,10.6C170.3,226.6,165,218.9,160.9,210.5z M232,359.6h-18v-85.3l-0.7-0.3c6,2.3,12.2,4.3,18.7,5.6V359.6z
	 M185.2,242.5c5.9-2.8,14.5-6,26.6-8.4c7.5,14.9,16.3,26.1,24,33.9C216.5,264.3,199.2,255.2,185.2,242.5z M224.3,232.1
	c7.5-1,16.1-1.5,25.7-1.7V265C242.8,258.7,232.8,247.9,224.3,232.1z M262,265v-34.7c9.6,0.2,18.1,0.8,25.6,1.8
	C279.2,247.9,269.1,258.8,262,265z M298,274.3v85.3h-18v-80.1c6.5-1.3,12.7-3.3,18.8-5.7L298,274.3z M276.2,268
	c7.6-7.8,16.5-19,23.9-33.8c12,2.4,20.8,5.5,26.6,8.3C312.8,255.2,295.5,264.3,276.2,268z M335.6,233.5c-6.5-3.5-16.4-7.5-30.5-10.6
	c3.7-9.3,6.8-19.7,8.7-31.5c17.5,6,30,13.6,37.3,19C347,218.9,341.7,226.6,335.6,233.5z M355.9,199.1c-8.6-6.1-22.1-13.8-40.5-19.8
	c0.4-4.8,0.6-9.8,0.6-14.9c0-13.6-1-25.8-2.6-36.8c28.3,12.1,43.6,30.5,48.5,37.3C361.9,176.8,359.7,188.3,355.9,199.1z"/>
</svg>
