<?xml version="1.0" encoding="utf-8"?>
<!-- Generator: Adobe Illustrator 16.0.4, SVG Export Plug-In . SVG Version: 6.00 Build 0)  -->
<!DOCTYPE svg PUBLIC "-//W3C//DTD SVG 1.1//EN" "http://www.w3.org/Graphics/SVG/1.1/DTD/svg11.dtd">
<svg version="1.1" id="Layer_1" xmlns="http://www.w3.org/2000/svg" xmlns:xlink="http://www.w3.org/1999/xlink" x="0px" y="0px"
	 width="512px" height="512px" viewBox="0 0 512 512" enable-background="new 0 0 512 512" xml:space="preserve">
<g>
	<g>
		<path fill="#454646" d="M161.904,160.084c0-51.965,42.129-94.084,94.094-94.084c51.963,0,94.094,42.119,94.094,94.084
			s-42.13,94.088-94.094,94.088C204.033,254.172,161.904,212.049,161.904,160.084z"/>
	</g>
	<g>
		<path fill="#454646" d="M407.104,308.092c-0.572-18.451-15.675-33.25-34.264-33.25h-53.271l-43.16,74.766
			c-4.043-17.721-8.116-36.613-11.799-55.494c0,0,26.337-26.092,26.337-32.178c-13.708,8.873-34.944,8.873-34.944,8.873
			s-18.902-0.598-34.937-8.873c0,6.553,26.285,32.152,26.285,32.152c-3.672,18.885-7.737,37.773-11.773,55.5l-43.146-74.746h-53.264
			c-18.596,0-33.696,14.799-34.267,33.25h-0.056v103.59c0,18.955,15.367,34.318,34.323,34.318h34.323v-64.166h7.601V446h149.816
			v-64.166h7.6V446h34.334c18.954,0,34.315-15.363,34.315-34.318v-103.59H407.104z"/>
	</g>
</g>
</svg>
