<?xml version="1.0" encoding="utf-8"?>
<!-- Generator: Adobe Illustrator 19.2.1, SVG Export Plug-In . SVG Version: 6.00 Build 0)  -->
<svg version="1.1" id="Work_area" xmlns="http://www.w3.org/2000/svg" xmlns:xlink="http://www.w3.org/1999/xlink" x="0px" y="0px"
	 width="512px" height="512px" viewBox="0 0 512 512" enable-background="new 0 0 512 512" xml:space="preserve">
<g>
	<g id="layer1_3_" transform="translate(-702.6538,-712.5837)">
		<g id="g16337_3_">
			<path id="path16197_3_" fill="#454646" d="M889,1039.1c-66.2,0-119.9-53.6-119.9-119.8s53.7-120,119.9-120h139.4
				c66.2,0,119.9,53.8,119.9,120s-53.7,119.8-119.9,119.8H889z M1025.2,996.8c42.9,0,77.6-34.6,77.6-77.5
				c0-42.9-34.7-77.7-77.6-77.7H892.1c-42.9,0-77.6,34.8-77.6,77.7c0,42.9,34.8,77.5,77.6,77.5H1025.2z"/>
		</g>
	</g>
	<g>
		<path fill="#454646" d="M139.1,370v9.4H124v44.7h-12.9v-44.7H96V370H139.1z"/>
		<path fill="#454646" d="M157.9,370v34.3c0,6.7,2,11.9,11,11.9s11-5.2,11-11.9V370h11.3v32.3c0,4.7,0,10.9-4.5,16.1
			c-4.1,4.7-10.4,6.8-18.6,6.8c-8.5,0-14.5-2.2-18.5-6.8c-4.5-5.3-4.5-11.4-4.5-16.1V370H157.9z"/>
		<path fill="#454646" d="M212.8,370l11.6,18.6l11.7-18.6h12.5l-17.4,26l18.6,28.2h-15.6l-12.5-20.2L209,424.2h-12.4l18.3-27.7
			L197.3,370H212.8z"/>
		<path fill="#454646" d="M291.7,370v9.2h-23.5v12.4H288v9.2h-19.9V415h24.8v9.2h-37.5V370H291.7z"/>
		<path fill="#454646" d="M318.2,370c5.8,0,13.3,0,20.2,3.8c6.6,3.7,11.8,10.7,11.8,23.3c0,12.2-5,19.5-12,23.3
			c-7.4,4-16.1,3.7-20.1,3.7h-17.3V370H318.2z M313.7,415.1h5.3c3.6,0,7-0.1,10.4-1.9c5.1-2.7,7.2-8.2,7.2-16.1
			c0-7.7-2-13.5-7.4-16.2c-3.6-1.8-7.3-1.8-10.2-1.8h-5.3V415.1z"/>
		<path fill="#454646" d="M383,425.3c-17.9,0-27.3-11.2-27.3-28c0-17.2,9.9-28.3,27.6-28.3c17.9,0,27.3,11.2,27.3,28
			C410.7,414.2,400.8,425.3,383,425.3z M397,397.1c0-12.8-4.8-19.1-13.8-19.1s-13.8,6.3-13.8,19.1c0,12.8,4.8,19.1,13.8,19.1
			S397,409.8,397,397.1z"/>
	</g>
</g>
</svg>
