<?xml version="1.0" encoding="utf-8"?>
<!-- Generator: Adobe Illustrator 16.0.4, SVG Export Plug-In . SVG Version: 6.00 Build 0)  -->
<!DOCTYPE svg PUBLIC "-//W3C//DTD SVG 1.1//EN" "http://www.w3.org/Graphics/SVG/1.1/DTD/svg11.dtd">
<svg version="1.1" id="Layer_1" xmlns="http://www.w3.org/2000/svg" xmlns:xlink="http://www.w3.org/1999/xlink" x="0px" y="0px"
	 width="512px" height="512px" viewBox="0 0 512 512" enable-background="new 0 0 512 512" xml:space="preserve">
<path fill="#454646" d="M370,66H142c-10.456,0-19,8.545-19,19v342c0,10.446,8.544,19,19,19h228c10.441,0,19-8.554,19-19V85
	C389,74.545,380.441,66,370,66z M140.349,231.221h33.041v33.045h-33.041V231.221z M140.349,280.779h33.041v33.057h-33.041V280.779z
	 M140.349,330.357h33.041v33.037h-33.041V330.357z M222.959,412.963h-82.61v-33.045h82.61V412.963z M222.959,363.395h-33.046
	v-33.037h33.046V363.395z M222.959,313.836h-33.046v-33.057h33.046V313.836z M222.959,264.266h-33.046v-33.045h33.046V264.266z
	 M272.523,412.963h-33.042v-33.045h33.042V412.963z M272.523,363.395h-33.042v-33.037h33.042V363.395z M272.523,313.836h-33.042
	v-33.057h33.042V313.836z M272.523,264.266h-33.042v-33.045h33.042V264.266z M322.087,412.963h-33.041v-33.045h33.041V412.963z
	 M322.087,363.395h-33.041v-33.037h33.041V363.395z M322.087,313.836h-33.041v-33.057h33.041V313.836z M322.087,264.266h-33.041
	v-33.045h33.041V264.266z M371.651,412.963H338.61v-82.605h33.041V412.963z M371.651,313.836H338.61v-33.057h33.041V313.836z
	 M371.651,264.266H338.61v-33.045h33.041V264.266z M371.651,198.174H140.349V99.046h231.303V198.174z"/>
</svg>
