<?xml version="1.0" encoding="utf-8"?>
<!-- Generator: Adobe Illustrator 16.0.4, SVG Export Plug-In . SVG Version: 6.00 Build 0)  -->
<!DOCTYPE svg PUBLIC "-//W3C//DTD SVG 1.1//EN" "http://www.w3.org/Graphics/SVG/1.1/DTD/svg11.dtd">
<svg version="1.1" id="Layer_1" xmlns="http://www.w3.org/2000/svg" xmlns:xlink="http://www.w3.org/1999/xlink" x="0px" y="0px"
	 width="512px" height="512px" viewBox="0 0 512 512" enable-background="new 0 0 512 512" xml:space="preserve">
<g>
	<g>
		<polygon fill="#454646" points="254.95,255.126 294.801,255.126 255.269,172.561 254.95,173.311 		"/>
		<path fill="#454646" d="M255.396,55L66.252,121.562l29.89,247.797L255.591,457l160.275-88.826l29.882-247.789L255.396,55z
			 M335.545,349.297l-25.67-59.451H254.95v146.215l-141.861-78.68L87.477,135.764L254.95,76.071v13.083l0.005-0.008l121.009,260.151
			H335.545z"/>
	</g>
	<polygon fill="#454646" points="254.955,89.146 254.633,172.557 215.144,255.19 254.863,255.19 254.955,289.794 200.03,289.846 
		174.356,349.31 132.623,350.083 	"/>
</g>
</svg>
