<?xml version="1.0" encoding="utf-8"?>
<!-- Generator: Adobe Illustrator 19.2.1, SVG Export Plug-In . SVG Version: 6.00 Build 0)  -->
<svg version="1.1" id="Work_area" xmlns="http://www.w3.org/2000/svg" xmlns:xlink="http://www.w3.org/1999/xlink" x="0px" y="0px"
	 width="512px" height="512px" viewBox="0 0 512 512" enable-background="new 0 0 512 512" xml:space="preserve">
<g>
	<g id="layer1_1_" transform="translate(-702.6538,-712.5837)">
		<g id="g16337_1_">
			<path id="path16197_1_" fill="#454646" d="M889,1039.1c-66.2,0-119.9-53.6-119.9-119.8s53.7-120,119.9-120h139.4
				c66.2,0,119.9,53.8,119.9,120s-53.7,119.8-119.9,119.8H889z M1025.2,996.8c42.9,0,77.6-34.6,77.6-77.5
				c0-42.9-34.7-77.7-77.6-77.7H892.1c-42.9,0-77.6,34.8-77.6,77.7c0,42.9,34.8,77.5,77.6,77.5H1025.2z"/>
		</g>
	</g>
	<g>
		<path fill="#454646" d="M169.4,414.5h0.6c0,0,3.5,0.9,6.4,0.9c2.7,0,5.1-0.8,6.4-2.7c1.4-1.9,1.4-4.2,1.4-7.3V370h12.9v34.4
			c0,4.3,0,9.4-3.2,13.7c-3.6,4.9-10,6.5-16.5,6.5c-4.8,0-8.1-0.9-8.1-0.9V414.5z"/>
		<path fill="#454646" d="M232.6,425.3c-17.9,0-27.3-11.2-27.3-28c0-17.2,9.9-28.3,27.6-28.3c17.9,0,27.3,11.2,27.3,28
			C260.2,414.2,250.3,425.3,232.6,425.3z M246.5,397.1c0-12.8-4.8-19.1-13.8-19.1s-13.8,6.3-13.8,19.1c0,12.8,4.8,19.1,13.8,19.1
			S246.5,409.8,246.5,397.1z"/>
		<path fill="#454646" d="M281.3,370v44.7h21.4v9.5h-34.3V370H281.3z"/>
		<path fill="#454646" d="M339.4,370v9.4h-15.1v44.7h-12.9v-44.7h-15.1V370H339.4z"/>
	</g>
</g>
</svg>
