<?xml version="1.0" encoding="utf-8"?>
<!-- Generator: Adobe Illustrator 16.0.4, SVG Export Plug-In . SVG Version: 6.00 Build 0)  -->
<!DOCTYPE svg PUBLIC "-//W3C//DTD SVG 1.1//EN" "http://www.w3.org/Graphics/SVG/1.1/DTD/svg11.dtd">
<svg version="1.1" id="Layer_1" xmlns="http://www.w3.org/2000/svg" xmlns:xlink="http://www.w3.org/1999/xlink" x="0px" y="0px"
	 width="512px" height="512px" viewBox="0 0 512 512" enable-background="new 0 0 512 512" xml:space="preserve">
<g>
	<path fill="#454646" d="M414.589,100.66l-3.247-3.251C390.401,76.468,362.801,66,335.195,66c-27.602,0-55.204,10.468-76.145,31.409
		l-52.159,52.161c-4.925,4.928-9.22,10.246-12.987,15.82c10.246-2.735,20.918-4.175,31.829-4.175
		c12.187,0,24.089,1.763,35.417,5.162l33.435-33.432c10.763-10.762,25.188-16.688,40.61-16.688c15.427,0,29.849,5.927,40.612,16.688
		l3.248,3.247c10.763,10.762,16.692,25.19,16.692,40.612c0,15.423-5.929,29.851-16.69,40.613l-33.434,33.428l-18.727,18.725
		c-10.764,10.769-25.188,16.696-40.613,16.696c-4.917,0-9.71-0.668-14.337-1.837c-9.889-2.494-18.938-7.519-26.263-14.844
		l-3.258-3.258c-7.331-7.336-12.356-16.38-14.855-26.27c-0.613-0.029-1.221-0.089-1.837-0.089c-11.619,0-22.462,4.442-30.538,12.517
		l-12.363,12.361c5.227,13.508,13.205,26.162,24.058,37.017l3.247,3.247c10.851,10.854,23.512,18.826,37.017,24.055
		c12.552,4.861,25.832,7.352,39.128,7.352c21.112,0,42.195-6.172,60.329-18.425c5.574-3.767,10.892-8.056,15.818-12.981
		l52.159-52.157C456.469,211.072,456.469,142.538,414.589,100.66z"/>
	<path fill="#454646" d="M250.866,345.604l-33.452,33.45c-10.766,10.762-25.187,16.688-40.609,16.688
		c-15.427,0-29.851-5.927-40.604-16.673l-3.258-3.262c-10.762-10.765-16.69-25.189-16.69-40.612s5.928-29.844,16.69-40.613
		l33.452-33.447l18.711-18.707c10.764-10.769,25.183-16.696,40.61-16.696c4.925,0,9.723,0.668,14.354,1.841
		c9.88,2.501,18.927,7.526,26.257,14.855l3.245,3.243c7.329,7.326,12.35,16.373,14.852,26.259c0.622,0.022,1.234,0.085,1.859,0.085
		c11.617,0,22.464-4.45,30.536-12.517l12.346-12.35c-5.227-13.504-13.205-26.158-24.054-37.013l-3.247-3.247
		c-10.855-10.854-23.515-18.833-37.017-24.055c-12.552-4.861-25.834-7.351-39.13-7.351c-21.113,0-42.201,6.171-60.332,18.428
		c-5.574,3.763-10.892,8.057-15.814,12.978l-52.161,52.165c-41.88,41.874-41.88,110.408,0,152.286l3.249,3.251
		C121.597,435.532,149.199,446,176.805,446c27.6,0,55.204-10.468,76.143-31.409l52.163-52.161c4.928-4.932,9.229-10.257,13-15.838
		c-10.246,2.735-20.919,4.175-31.827,4.175C274.097,350.767,262.194,349.004,250.866,345.604z"/>
</g>
</svg>
