<?xml version="1.0" encoding="utf-8"?>
<!-- Generator: Adobe Illustrator 19.2.1, SVG Export Plug-In . SVG Version: 6.00 Build 0)  -->
<svg version="1.1" id="Work_area" xmlns="http://www.w3.org/2000/svg" xmlns:xlink="http://www.w3.org/1999/xlink" x="0px" y="0px"
	 width="512px" height="512px" viewBox="0 0 512 512" enable-background="new 0 0 512 512" xml:space="preserve">
<g>
	<path fill="#454646" d="M406.1,56.5c-0.1-0.1-0.3-0.3-0.4-0.4l-21.4,21.4c0.1,0.1,0.3,0.2,0.4,0.4c70.8,70.7,70.7,185.4-0.3,256.3
		l21.4,21.3C488.6,272.8,488.8,138.9,406.1,56.5z"/>
	<path fill="#454646" d="M354,108.2c-0.1-0.1-0.2-0.2-0.3-0.3l-19.6,19.5c0.1,0.1,0.2,0.2,0.3,0.3c43.1,43,43,112.8-0.2,155.9
		c-0.1,0.1-0.2,0.2-0.3,0.3l19.5,19.5c0.1-0.1,0.2-0.2,0.3-0.3C407.8,249.2,407.9,162,354,108.2z"/>
	<path fill="#454646" d="M127.6,78l-21.4-21.3c-82.9,82.7-83,216.6-0.4,299c0.1,0.1,0.3,0.3,0.4,0.4l21.4-21.4
		c-0.1-0.1-0.3-0.2-0.4-0.4C56.5,263.6,56.6,148.9,127.6,78z"/>
	<path fill="#454646" d="M178,128.2l-19.5-19.5c-0.1,0.1-0.2,0.2-0.3,0.3c-54,53.9-54.1,141.1-0.3,194.8c0.1,0.1,0.2,0.2,0.3,0.3
		l19.6-19.5c-0.1-0.1-0.2-0.2-0.3-0.3c-43.1-43-43-112.8,0.2-155.9C177.8,128.4,177.9,128.3,178,128.2z"/>
	<path fill="#454646" d="M256,139.3c-37,0-67,29.9-67,66.8c0,29.8,19.6,55.1,46.6,63.7v186.2h40.4V269.8
		c27.2-8.5,46.9-33.8,46.9-63.8C323,169.2,293,139.3,256,139.3z"/>
</g>
</svg>
