<?xml version="1.0" encoding="utf-8"?>
<!-- Generator: Adobe Illustrator 16.0.4, SVG Export Plug-In . SVG Version: 6.00 Build 0)  -->
<!DOCTYPE svg PUBLIC "-//W3C//DTD SVG 1.1//EN" "http://www.w3.org/Graphics/SVG/1.1/DTD/svg11.dtd">
<svg version="1.1" id="Layer_1" xmlns="http://www.w3.org/2000/svg" xmlns:xlink="http://www.w3.org/1999/xlink" x="0px" y="0px"
	 width="512px" height="512px" viewBox="0 0 512 512" enable-background="new 0 0 512 512" xml:space="preserve">
<g>
	<path fill="#454646" d="M315.367,381.145c-19.007,9.632-40.435,15.164-63.193,15.164c-26.268,0-50.754-7.348-71.766-19.899
		l-4.782,3.657l-1.412,1.078h-1.788h-59.542c34.277,38.133,83.977,62.133,139.289,62.133s105-24,139.284-62.133H315.367z"/>
	<path fill="#454646" d="M387.144,218.056c3.393,12.093,5.338,24.784,5.338,37.944c0,27.82-8.198,53.66-22.155,75.469l29.871,39.175
		c24.58-31.687,39.247-71.425,39.247-114.644c0-24.059-4.589-47.04-12.856-68.168L387.144,218.056z"/>
	<g>
		<path fill="#454646" d="M122.816,310.434c-7.048-16.745-10.957-35.132-10.957-54.434c0-29.824,9.369-57.422,25.242-80.168
			l-16.477-21.609l-6.451-8.461h10.629h40.751c23.86-18.785,53.9-30.07,86.619-30.07s62.753,11.285,86.613,30.07h0.779h63.961
			c-34.061-46.688-89.156-77.039-151.353-77.039C148.738,68.723,64.896,152.57,64.896,256c0,30.082,7.137,58.476,19.741,83.659
			L122.816,310.434z"/>
		<polygon fill="#454646" points="124.803,151.012 226.117,151.012 267.947,205.879 339.566,151.012 466,151.012 314.57,267.004 
			397.586,375.894 296.266,375.894 250.604,316.001 172.427,375.894 46,375.894 203.993,254.863 		"/>
	</g>
</g>
</svg>
