<?xml version="1.0" encoding="utf-8"?>
<!-- Generator: Adobe Illustrator 16.0.4, SVG Export Plug-In . SVG Version: 6.00 Build 0)  -->
<!DOCTYPE svg PUBLIC "-//W3C//DTD SVG 1.1//EN" "http://www.w3.org/Graphics/SVG/1.1/DTD/svg11.dtd">
<svg version="1.1" id="Layer_1" xmlns="http://www.w3.org/2000/svg" xmlns:xlink="http://www.w3.org/1999/xlink" x="0px" y="0px"
	 width="512px" height="512px" viewBox="0 0 512 512" enable-background="new 0 0 512 512" xml:space="preserve">
<g>
	<path fill="#454646" d="M317.765,364.338c0-16.984,13.896-30.88,30.881-30.88h86.471c16.987,0,30.883,13.896,30.883,30.88v61.77
		c0,16.985-13.896,30.881-30.883,30.881h-86.471c-16.984,0-30.881-13.896-30.881-30.881V364.338z"/>
	<path fill="#454646" d="M46,364.338c0-16.984,13.896-30.88,30.88-30.88h86.474c16.984,0,30.881,13.896,30.881,30.88v61.77
		c0,16.985-13.896,30.881-30.881,30.881H76.88c-16.984,0-30.88-13.896-30.88-30.881V364.338z"/>
	<path fill="#454646" d="M330.117,147.662c0,16.984-13.894,30.88-30.878,30.88h-86.478c-16.984,0-30.881-13.896-30.881-30.88v-61.77
		c0-16.985,13.896-30.881,30.881-30.881h86.478c16.984,0,30.878,13.896,30.878,30.881V147.662z"/>
	<path fill="#454646" d="M403.554,241.583H274.527v-42.451c0-3.404-2.777-6.177-6.173-6.177h-24.708
		c-3.396,0-6.173,2.773-6.173,6.177v42.451H108.446c-3.771,0-6.855,3.084-6.855,6.858v13.74v3.429v47.258
		c0,3.404,2.78,6.177,6.174,6.177h24.708c3.394,0,6.175-2.773,6.175-6.177v-40.4h234.706v40.4c0,3.404,2.779,6.177,6.175,6.177
		h24.708c3.394,0,6.175-2.773,6.175-6.177V265.61v-3.429v-13.74C410.412,244.667,407.327,241.583,403.554,241.583z"/>
</g>
</svg>
