<?xml version="1.0" encoding="utf-8"?>
<!-- Generator: Adobe Illustrator 18.1.1, SVG Export Plug-In . SVG Version: 6.00 Build 0)  -->
<svg version="1.1" id="Ebene_1" xmlns="http://www.w3.org/2000/svg" xmlns:xlink="http://www.w3.org/1999/xlink" x="0px" y="0px"
	 width="512px" height="512px" viewBox="0 0 512 512" enable-background="new 0 0 512 512" xml:space="preserve">
<g>
	<path fill="#454646" d="M284,358.7H44.4c0.6,10.1,5,55.2,38.7,77.3c0.3,0,166,0,233.2-0.1C301.3,419.4,290,392.9,284,358.7z"/>
	<path fill="#454646" d="M391.9,152.6h75.7c-0.5-9.6-4.8-52.5-36.4-74C431.2,78.6,388,93.5,391.9,152.6z"/>
	<path fill="#454646" d="M374.4,185.1c-5.7-42.3,4.5-92,33.4-109.1H171.6c-4.1,1.4-25.3,9.5-39.9,35.8
		c-18.8,33.9-18.9,78.7,0.8,133.8c16.3,45.4,18.7,76.8,18.3,94h149.8c6.6,56.5,28.3,99.5,58.2,96.2c30-3.4,47.9-52.1,42.7-109.2
		C397.1,279.1,381.8,240.3,374.4,185.1z"/>
</g>
</svg>
