<?xml version="1.0" encoding="utf-8"?>
<!-- Generator: Adobe Illustrator 16.0.4, SVG Export Plug-In . SVG Version: 6.00 Build 0)  -->
<!DOCTYPE svg PUBLIC "-//W3C//DTD SVG 1.1//EN" "http://www.w3.org/Graphics/SVG/1.1/DTD/svg11.dtd">
<svg version="1.1" id="Layer_1" xmlns="http://www.w3.org/2000/svg" xmlns:xlink="http://www.w3.org/1999/xlink" x="0px" y="0px"
	 width="512px" height="512px" viewBox="0 0 512 512" enable-background="new 0 0 512 512" xml:space="preserve">
<path fill="#454646" d="M427,66H85c-10.45,0-19,8.543-19,19v342c0,10.444,8.55,19,19,19h342c10.45,0,19-8.556,19-19V85
	C446,74.543,437.45,66,427,66z M395.781,399.176H116.215v-22.797h279.565V399.176z M395.781,356.108H116.215v-22.797h279.565
	V356.108z M395.781,313.045H116.215v-22.797h279.565V313.045z M395.781,228.387H116.215v-22.806h279.565V228.387z M395.781,185.319
	H116.215v-22.802h279.565V185.319z M395.781,142.247H116.215V119.45h279.565V142.247z"/>
</svg>
