<?xml version="1.0" encoding="utf-8"?>
<!-- Generator: Adobe Illustrator 16.0.4, SVG Export Plug-In . SVG Version: 6.00 Build 0)  -->
<!DOCTYPE svg PUBLIC "-//W3C//DTD SVG 1.1//EN" "http://www.w3.org/Graphics/SVG/1.1/DTD/svg11.dtd">
<svg version="1.1" id="Layer_1" xmlns="http://www.w3.org/2000/svg" xmlns:xlink="http://www.w3.org/1999/xlink" x="0px" y="0px"
	 width="512px" height="512px" viewBox="0 0 512 512" enable-background="new 0 0 512 512" xml:space="preserve">
<g>
	<g>
		<path fill="#454646" d="M192.454,51.224c-8.274-8.235-29.854-6.838-55.987,4.938c-11.771,5.304-22.619,12.189-32.438,20.042
			l-0.175-0.538H59.286l12.583,34.194c-3.739,5.109-7.124,10.294-10.114,15.467c-16.366,28.304-20.062,57.938-10.704,67.221
			c9.764,9.836,27.214,8.486,47.367-0.932l-1.78-4.838c-20.364,9.074-29.499,9.238-35.488,3.225
			c-9.286-9.294-1.903-32.055,15.419-57.768c17.313-25.712,26.632-31.988,35.922-40.299c33.501-29.977,67.695-44.67,79.594-32.784
			c3.054,3.043,4.356,7.578,4.105,13.192h2.963C199.705,63.688,197.615,56.412,192.454,51.224z"/>
	</g>
	<g>
		<path fill="#454646" d="M197.4,75.665h-35.059L132.619,166.5l-21.029-66.413c-8.063,7.013-16.617,13.774-30.781,34.067
			l27.608,75.01H149.4l48.756-130.592h-0.677C197.523,77.553,197.456,76.609,197.4,75.665z"/>
	</g>
</g>
</svg>
