<?xml version="1.0" encoding="utf-8"?>
<!-- Generator: Adobe Illustrator 19.2.1, SVG Export Plug-In . SVG Version: 6.00 Build 0)  -->
<svg version="1.1" id="Layer_1" xmlns="http://www.w3.org/2000/svg" xmlns:xlink="http://www.w3.org/1999/xlink" x="0px" y="0px"
	 width="512px" height="512px" viewBox="0 0 512 512" enable-background="new 0 0 512 512" xml:space="preserve">
<g>
	<path fill="#454646" d="M428.8,136h-94.3v-27.5c0-15.8-12.8-28.5-28.5-28.5H206c-15.8,0-28.5,12.8-28.5,28.5V136H83.2
		c-10.6,0-19.2,8.6-19.2,19.2v162.6c0,7.7,6.3,14,14,14H225v-18.6c0-6.4,5.2-11.5,11.5-11.5h39c6.4,0,11.5,5.2,11.5,11.5v18.6H434
		c7.7,0,14-6.3,14-14V155.2C448,144.6,439.4,136,428.8,136z M205.5,108.5c0-0.3,0.2-0.5,0.5-0.5H306c0.3,0,0.5,0.2,0.5,0.5V136h-101
		V108.5z"/>
	<g>
		<path fill="#454646" d="M287,360.6V374c0,6.4-5.2,11.5-11.5,11.5h-39c-6.3,0-11.5-5.2-11.5-11.5v-13.4H78c-5.2,0-10-1.6-14-4.2
			v60.4c0,10.6,8.6,19.2,19.2,19.2h345.6c10.6,0,19.2-8.6,19.2-19.2v-60.4c-4,2.7-8.9,4.2-14,4.2H287z"/>
	</g>
	<path fill="#454646" d="M246.2,320.6c-1.9,0-3.4,1.6-3.4,3.5v39.2c0,1.9,1.5,3.5,3.4,3.5h19.6c1.9,0,3.4-1.6,3.4-3.5V324
		c0-1.9-1.5-3.5-3.4-3.5H246.2z"/>
</g>
</svg>
