<?xml version="1.0" encoding="utf-8"?>
<!-- Generator: Adobe Illustrator 16.0.4, SVG Export Plug-In . SVG Version: 6.00 Build 0)  -->
<!DOCTYPE svg PUBLIC "-//W3C//DTD SVG 1.1//EN" "http://www.w3.org/Graphics/SVG/1.1/DTD/svg11.dtd">
<svg version="1.1" id="Layer_1" xmlns="http://www.w3.org/2000/svg" xmlns:xlink="http://www.w3.org/1999/xlink" x="0px" y="0px"
	 width="512px" height="512px" viewBox="0 0 512 512" enable-background="new 0 0 512 512" xml:space="preserve">
<g>
	<polygon fill="#454646" points="224.174,374.75 333.698,265.23 333.698,246.77 224.174,137.25 198.086,163.365 290.744,256 
		198.086,348.681 	"/>
	<path fill="#454646" d="M256,89.75c91.813,0,166.25,74.451,166.25,166.25c0,91.846-74.437,166.25-166.25,166.25
		c-91.809,0-166.25-74.404-166.25-166.25C89.75,164.201,164.191,89.75,256,89.75 M256,66C151.235,66,66,151.23,66,256
		s85.235,190,190,190s190-85.23,190-190S360.765,66,256,66L256,66z"/>
</g>
</svg>
