<?xml version="1.0" encoding="utf-8"?>
<!-- Generator: Adobe Illustrator 16.0.4, SVG Export Plug-In . SVG Version: 6.00 Build 0)  -->
<!DOCTYPE svg PUBLIC "-//W3C//DTD SVG 1.1//EN" "http://www.w3.org/Graphics/SVG/1.1/DTD/svg11.dtd">
<svg version="1.1" id="Layer_1" xmlns="http://www.w3.org/2000/svg" xmlns:xlink="http://www.w3.org/1999/xlink" x="0px" y="0px"
	 width="512px" height="512px" viewBox="0 0 512 512" enable-background="new 0 0 512 512" xml:space="preserve">
<g>
	<g id="layer1_3_" transform="translate(-702.6538,-712.5837)">
		<g id="g16337_3_">
			<path id="path16197_3_" fill="#454646" d="M888.829,1039.245c-66.344,0-120.175-53.697-120.175-120.052
				c0-66.357,53.831-120.251,120.175-120.251h139.672c66.359,0,120.153,53.894,120.153,120.251
				c0,66.355-53.794,120.052-120.153,120.052H888.829z M1025.391,996.859c42.98,0,77.789-34.712,77.789-77.666
				c0-42.961-34.809-77.869-77.789-77.869H891.909c-42.958,0-77.789,34.907-77.789,77.869c0,42.954,34.831,77.666,77.789,77.666
				H1025.391z"/>
		</g>
	</g>
	<g>
		<path fill="#454646" d="M123.292,380.957h-0.577c0,0-7.147-2.6-12.994-2.6c-5.271,0-7.724,2.093-7.724,5.125
			c0,9.602,23.895,7.002,23.895,25.195c0,10.899-8.518,16.458-21.729,16.458c-8.808,0-14.872-2.455-14.872-2.455v-9.383h0.579
			c0,0,8.157,3.175,14.51,3.175c5.415,0,8.591-2.308,8.591-6.064c0-10.177-23.895-8.012-23.895-25.266
			c0-9.817,7.652-15.449,20.356-15.449c7.724,0,13.86,2.095,13.86,2.095V380.957z"/>
		<path fill="#454646" d="M163.074,425.642c-17.037,0-26.062-11.263-26.062-28.083c0-17.254,9.459-28.37,26.351-28.37
			c17.037,0,26.058,11.261,26.058,28.081C189.422,414.524,179.967,425.642,163.074,425.642z M176.356,397.415
			c0-12.777-4.546-19.13-13.137-19.13s-13.139,6.353-13.139,19.13c0,12.779,4.548,19.13,13.139,19.13
			S176.356,410.193,176.356,397.415z"/>
		<path fill="#454646" d="M215.491,370.271v44.757h20.358v9.53h-32.701v-54.287H215.491z"/>
		<path fill="#454646" d="M280.828,424.558l-3.898-12.272h-19.345l-3.971,12.272h-11.045l18.985-54.287h13.718l18.696,54.287
			H280.828z M260.472,403.478h13.716l-6.713-21.295L260.472,403.478z"/>
		<path fill="#454646" d="M316.5,404.417v20.141h-11.984v-54.287h19.492c4.475,0,10.611,0,15.664,3.466
			c4.405,3.032,6.208,7.652,6.208,13.211c0,8.157-3.896,13.139-10.105,15.593l12.632,22.017h-13.646l-10.539-20.141H316.5z
			 M316.5,395.322h7.507c1.443,0,4.546,0,6.568-1.372c1.661-1.083,2.959-3.394,2.959-6.57c0-2.815-1.011-5.342-2.959-6.641
			c-2.093-1.371-5.27-1.371-6.568-1.371H316.5V395.322z"/>
		<path fill="#454646" d="M372.453,370.271v54.287h-12.345v-54.287H372.453z"/>
		<path fill="#454646" d="M420.821,380.957h-0.575c0,0-7.147-2.6-12.996-2.6c-5.27,0-7.723,2.093-7.723,5.125
			c0,9.602,23.893,7.002,23.893,25.195c0,10.899-8.519,16.458-21.729,16.458c-8.806,0-14.87-2.455-14.87-2.455v-9.383h0.577
			c0,0,8.158,3.175,14.511,3.175c5.413,0,8.589-2.308,8.589-6.064c0-10.177-23.895-8.012-23.895-25.266
			c0-9.817,7.652-15.449,20.356-15.449c7.726,0,13.86,2.095,13.86,2.095V380.957z"/>
	</g>
</g>
</svg>
