<?xml version="1.0" encoding="utf-8"?>
<!-- Generator: Adobe Illustrator 16.0.4, SVG Export Plug-In . SVG Version: 6.00 Build 0)  -->
<!DOCTYPE svg PUBLIC "-//W3C//DTD SVG 1.1//EN" "http://www.w3.org/Graphics/SVG/1.1/DTD/svg11.dtd">
<svg version="1.1" id="Layer_1" xmlns="http://www.w3.org/2000/svg" xmlns:xlink="http://www.w3.org/1999/xlink" x="0px" y="0px"
	 width="512px" height="512px" viewBox="0 0 512 512" enable-background="new 0 0 512 512" xml:space="preserve">
<g>
	<path fill-rule="evenodd" clip-rule="evenodd" fill="#000000" d="M254.063,114.651C126.013,114.651,46,256.009,46,256.009
		s79.251,141.34,208.063,141.34c120.483,0,211.937-141.34,211.937-141.34S375.311,114.651,254.063,114.651z M255.2,358.867
		c-56.729,0-102.699-45.979-102.699-102.72c0-56.729,45.971-102.711,102.699-102.711c56.733,0,102.724,45.982,102.724,102.711
		C357.924,312.889,311.934,358.867,255.2,358.867z"/>
	<path fill-rule="evenodd" clip-rule="evenodd" fill="#000000" d="M255.832,204.812c28.239,0,51.126,22.887,51.126,51.122
		c0,28.234-22.887,51.121-51.126,51.121c-28.247,0-51.118-22.887-51.118-51.121C204.714,227.699,227.585,204.812,255.832,204.812z"
		/>
</g>
</svg>
