<svg id="Layer_1" xmlns="http://www.w3.org/2000/svg" width="3150" height="340" viewBox="0 0 3150 340"><style>.st0{fill:#1496FF;} .st1{fill:#1284EA;} .st2{fill:#B4DC00;} .st3{fill:#6F2DA8;} .st4{fill:#591F91;} .st5{fill:#73BE28;} .st6{fill:#FFFFFF;}</style><g id="Layer_1_1_"><path class="st0" d="M117 36.7c-4 21.8-9.2 53.9-12 86.6-4.8 57.6-1.8 96.2-1.8 96.2l-81.1 77.1s-6.2-43.3-9.4-92c-1.9-30-2.5-56.7-2.7-72.7 0-1 .5-1.9.5-2.7 0-1 1.4-11.8 11.9-21.8 11.6-11 95.7-77.1 94.6-70.7z"/><path class="st1" d="M117 36.7c-4 21.8-9.2 53.9-12 86.6 0 0-89.8-10.7-94.9 10.9 0-1 1.5-14.3 12-24.3 11.6-11.1 96-79.6 94.9-73.2z"/><path class="st2" d="M10 129.2v5c1-4 2.4-6.7 5.7-10.9 6.7-8.5 17.4-10.7 21.8-11.2 21.9-2.9 54.3-6.4 87.1-7.4 57.8-1.8 96 3 96 3l81.1-77.2s-42.5-8.1-91-13.8C179 13 151.1 11 135.5 10.1c-1-.1-12.3-1.4-22.8 8.6-11.6 11-69.6 66-92.9 88.2-10.6 10-9.8 21.2-9.8 22.3z"/><path class="st3" d="M298.7 227.7c-21.9 2.9-54.3 6.6-87.1 7.7-57.8 1.9-96.2-2.9-96.2-2.9l-81.1 77.1s42.9 8.4 91.4 13.9c29.6 3.4 56 5.3 72.1 6.2 1.1.1 3-.9 4-.9 1 .1 12.4-2 22.9-12.1 11.6-10.9 80.4-89.9 74-89z"/><path class="st4" d="M298.7 227.7c-21.9 2.9-54.3 6.6-87.1 7.7 0 0 6.3 90.2-15.6 94.3 1 .1 15.9-.7 26.4-10.7 11.6-11.1 82.7-92.2 76.3-91.3z"/><path class="st5" d="M201 329.9c-1.5-.1-3.2-.2-5-.3 4-.8 6.8-2.1 11.1-5.2 8.8-6.3 11.5-16.9 12.3-21.2 4-21.8 9.1-54 11.7-86.6 4.6-57.6 1.7-96.1 1.7-96.1L314 43.4s6 42.9 9.3 91.6c2.1 31.8 2.7 59.9 2.9 75.5 0 1 .8 12.3-9.7 22.4-11.5 11-69.4 66.2-92.7 88.4-10.5 10-21.7 8.7-22.8 8.6z"/><g><path class="st6" d="M1330.2 92.7h-42.1c-11.9 0-20.2 2.4-25.2 7.2-5 4.9-7.5 13.2-7.5 24.7V270h-25.2V122.9c.1-11.2 2.1-23.2 7.9-32.5 10.7-17.1 31.4-20.4 46.6-20.4h45.5v22.7zM1168.1 247.3c-11.9 0-20.1-2.4-25.1-7.2-5-4.9-7.5-12.8-7.5-24.2V92.7h52.8V70h-52.8V10h-25.2v207.1c.1 11.2 2.1 23.2 7.9 32.5 10.7 17.1 31.4 20.4 46.6 20.4h45.5v-22.7h-42.2zM509 10v60h-52.8c-32.1 0-51.5 9.6-63.5 21.2-18.5 18-18.5 43.8-18.5 46.5v64.5c0 2.7 0 28.6 18.5 46.5 12 11.6 31.4 21.2 63.5 21.2h23.5c15.2 0 35.9-3.4 46.6-20.4 5.8-9.2 7.8-21.3 7.9-32.5V10H509zm-7.5 230.1c-5 4.9-13.3 7.2-25.2 7.2h-22.7c-20.8 0-33.7-5.9-41.7-13.7-9.3-9.1-12.5-21.2-12.5-30.6v-66c0-9.4 3.2-21.5 12.5-30.6 8-7.8 20.9-13.7 41.7-13.7h55.3v123.1c.1 11.4-2.3 19.4-7.4 24.3zM1558 106.4c8-7.8 20.9-13.7 41.7-13.7h60.6V70h-58c-32.1 0-51.5 9.6-63.5 21.2-18.5 18-18.5 43.8-18.5 46.5v64.5c0 2.7 0 28.6 18.5 46.5 12 11.6 31.4 21.2 63.5 21.2h58v-22.7h-60.6c-20.8 0-33.7-5.9-41.7-13.7-9.3-9.1-12.5-21.2-12.5-30.6v-66c0-9.3 3.1-21.4 12.5-30.5zM1084.2 137.8c0-2.7 0-28.6-18.5-46.5-12-11.6-31.4-21.2-63.5-21.2h-56v22.7h58.6c20.8 0 33.7 5.9 41.7 13.7 9.3 9.1 12.5 21.2 12.5 30.6v19.2h-80.3c-15.2 0-35.9 3.4-46.6 20.4-5.8 9.2-7.8 21.3-7.9 32.5v8c.1 11.2 2.1 23.2 7.9 32.5 10.7 17.1 31.4 20.4 46.6 20.4h51c15.2 0 35.9-3.4 46.6-20.4 5.8-9.2 7.8-21.3 7.9-32.5v-79.4zm-32.6 102.3c-5 4.9-13.3 7.2-25.2 7.2h-44.3c-11.9 0-20.2-2.4-25.2-7.2-5-4.9-7.5-12.8-7.5-24.2v-5.5c0-11.4 2.5-19.3 7.5-24.2s13.3-7.2 25.2-7.2h76.9v36.9c0 11.3-2.4 19.3-7.4 24.2zM1500.2 137.8c0-2.7 0-28.6-18.5-46.5-12-11.6-31.4-21.2-63.5-21.2h-56v22.7h58.6c20.8 0 33.7 5.9 41.7 13.7 9.3 9.1 12.5 21.2 12.5 30.6v19.2h-80.3c-15.2 0-35.9 3.4-46.6 20.4-5.8 9.2-7.8 21.3-7.9 32.5v8c.1 11.2 2.1 23.2 7.9 32.5 10.7 17.1 31.4 20.4 46.6 20.4h51c15.2 0 35.9-3.4 46.6-20.4 5.8-9.2 7.8-21.3 7.9-32.5v-79.4zm-32.6 102.3c-5 4.9-13.3 7.2-25.2 7.2h-44.3c-11.9 0-20.2-2.4-25.2-7.2-5-4.9-7.5-12.8-7.5-24.2v-5.5c0-11.4 2.5-19.3 7.5-24.2s13.3-7.2 25.2-7.2h76.9v36.9c0 11.3-2.4 19.3-7.4 24.2zM734.2 70H708l-63.7 165.8L580.5 70h-26.3l76.9 200-23.1 60h26.3zM904.2 137.8c0-2.7 0-28.6-18.3-46.5-11.6-11.3-30.1-20.7-60.4-21.2h-2.6c-30.2.5-48.8 9.9-60.3 21.2-18.3 18-18.3 43.8-18.3 46.5V270h25.2V137c0-9.4 3-21.5 12.3-30.6 7.7-7.6 22.7-13.4 42.6-13.7 19.9.2 34.8 6.1 42.6 13.7 9.3 9.1 12.3 21.2 12.3 30.6v133h25.2c-.3-10.3-.3-128.9-.3-132.2zM1815.9 91.2c-11.6-11.3-30.1-20.7-60.4-21.2h-2.6c-30.2.5-48.8 9.9-60.3 21.2-18.3 18-18.3 43.8-18.3 46.5v64.5c0 2.7 0 28.6 18.3 46.5 11.6 11.3 30.1 20.7 60.4 21.2h59.3v-22.7h-58c-19.9-.2-34.8-6.1-42.6-13.7-9.3-9.1-12.3-21.2-12.3-30.6v-23.6h134.8v-41.6c0-2.7 0-28.5-18.3-46.5zm-116.5 65.5V137c0-9.4 3-21.5 12.3-30.6 7.7-7.6 22.7-13.4 42.6-13.7 19.9.2 34.8 6.1 42.6 13.7 9.3 9.1 12.3 21.2 12.3 30.6v19.7h-109.8z"/></g><g><path class="st6" d="M2711.6 70.1h-5.6c-26.2.7-48.8 15.8-59.7 37.3-10.9-21.5-33.5-36.6-59.7-37.3h-5.6c-36.9 1-66.7 30.5-66.7 66.6V270h14V136.6c0-13.7 5.5-26.6 15.4-36.5 10-10 23.4-15.7 37.7-16.1h4.8c14.3.4 27.7 6.1 37.7 16.1 9.9 9.9 15.4 22.8 15.4 36.5V270h14V136.6c0-13.7 5.5-26.6 15.4-36.5 10-10 23.4-15.7 37.7-16.1h4.8c14.3.4 27.7 6.1 37.7 16.1 9.9 9.9 15.4 22.8 15.4 36.5V270h14V136.6c-.1-36.1-29.8-65.5-66.7-66.5zM2295.9 91.2c-11.6-11.3-30.1-20.7-60.4-21.2h-26.8c-15.2 0-35.9 3.4-46.6 20.4-5.8 9.2-7.8 21.3-7.9 32.5V330h14v-86c1.3 1.6 2.7 3.2 4.3 4.8 11.6 11.3 30.1 20.7 60.4 21.2h2.6c30.2-.5 48.8-9.9 60.4-21.2 18.3-18 18.3-43.8 18.3-46.5v-64.5c0-2.8 0-28.6-18.3-46.6zm4.3 112.1c0 3.8-.7 23.4-14.1 36.5-11.3 11-28.3 17.8-50.7 18.2h-2.4c-22.4-.4-39.4-7.2-50.7-18.2-13.4-13.2-14.1-32.7-14.1-36.5V122c.1-10.4 2.2-19.4 5.8-25.1 7.2-11.5 22.9-14.9 34.7-14.9h26.7c22.4.4 39.4 7.2 50.7 18.2 13.4 13.2 14.1 32.7 14.1 36.5v66.6zM2475.9 91.2c-11.6-11.3-30.1-20.7-60.4-21.2h-26.8c-15.2 0-35.9 3.4-46.6 20.4-5.8 9.2-7.8 21.3-7.9 32.5V330h14v-86c1.3 1.6 2.7 3.2 4.3 4.8 11.6 11.3 30.1 20.7 60.4 21.2h2.6c30.2-.5 48.8-9.9 60.4-21.2 18.3-18 18.3-43.8 18.3-46.5v-64.5c0-2.8 0-28.6-18.3-46.6zm4.3 112.1c0 3.8-.7 23.4-14.1 36.5-11.3 11-28.3 17.8-50.7 18.2h-2.4c-22.4-.4-39.4-7.2-50.7-18.2-13.4-13.2-14.1-32.7-14.1-36.5V122c.1-10.4 2.2-19.4 5.8-25.1 7.2-11.5 22.9-14.9 34.7-14.9h26.7c22.4.4 39.4 7.2 50.7 18.2 13.4 13.2 14.1 32.7 14.1 36.5v66.6zM2886.2 84c35.3 0 64 28.7 64 64v44c0 35.3-28.7 64-64 64h-10c-35.3 0-64-28.7-64-64v-44c0-35.3 28.7-64 64-64h10zm0-14h-10c-43.1 0-78 34.9-78 78v44c0 43.1 34.9 78 78 78h10c43.1 0 78-34.9 78-78v-44c0-43.1-34.9-78-78-78zM2115.8 91.2c-12-11.6-31.4-21.2-63.5-21.2h-56v12h56c23.9 0 42 6.8 53.7 18.3 13.5 13.2 14.2 32.7 14.2 36.5v24.8h-91.5c-15.2 0-35.9 3.4-46.6 20.4-5.8 9.2-7.8 21.3-7.9 32.5v2.7c.1 11.2 2.1 23.2 7.9 32.5 10.7 17.1 31.4 20.4 46.6 20.4h51c15.2 0 35.9-3.4 46.6-20.4 5.8-9.2 7.8-21.3 7.9-32.5v-79.4c0-2.8 0-28.6-18.4-46.6zm-1.3 151.9c-7.2 11.5-22.9 14.9-34.7 14.9h-51c-11.9 0-27.5-3.4-34.7-14.9-3.6-5.7-5.7-14.6-5.8-25.1v-4.5c.1-10.4 2.2-19.4 5.8-25.1 7.2-11.5 22.9-14.9 34.7-14.9h91.5V218c-.2 10.5-2.2 19.4-5.8 25.1zM2998.2 270V137.8c0-3.8.7-24.4 14.1-37.5 11.3-11 28.3-17.8 50.7-18.2h2.4c22.4.4 39.4 7.2 50.7 18.2 13.4 13.2 14.1 33.7 14.1 37.5V270h14V137.8c0-2.7 0-28.6-18.3-46.5-11.6-11.3-30.1-20.7-60.4-21.2h-2.6c-30.2.5-48.8 9.9-60.3 21.2-18.3 18-18.3 43.8-18.3 46.5V270h13.9z"/></g></g></svg>