<?xml version="1.0" encoding="UTF-8" standalone="no"?>
<svg
   xmlns:dc="http://purl.org/dc/elements/1.1/"
   xmlns:cc="http://creativecommons.org/ns#"
   xmlns:rdf="http://www.w3.org/1999/02/22-rdf-syntax-ns#"
   xmlns:svg="http://www.w3.org/2000/svg"
   xmlns="http://www.w3.org/2000/svg"
   id="svg8"
   version="1.1"
   viewBox="0 0 123.84418 15.877196"
   height="15.877196mm"
   width="123.84418mm">
  <defs
     id="defs2" />
  <metadata
     id="metadata5">
    <rdf:RDF>
      <cc:Work
         rdf:about="">
        <dc:format>image/svg+xml</dc:format>
        <dc:type
           rdf:resource="http://purl.org/dc/dcmitype/StillImage" />
        <dc:title></dc:title>
      </cc:Work>
    </rdf:RDF>
  </metadata>
  <g
     transform="translate(-42.065225,-119.7842)"
     id="layer1">
    <g
       id="text20"
       style="font-style:normal;font-variant:normal;font-weight:300;font-stretch:semi-condensed;font-size:16.93333244px;line-height:6.61458302px;font-family:'Bernina Sans';-inkscape-font-specification:'Bernina Sans, Light Semi-Condensed';font-variant-ligatures:normal;font-variant-position:normal;font-variant-caps:normal;font-variant-numeric:normal;font-variant-alternates:normal;font-feature-settings:normal;text-indent:0;text-align:start;text-decoration:none;text-decoration-line:none;text-decoration-style:solid;text-decoration-color:#000000;letter-spacing:0px;word-spacing:0px;text-transform:none;writing-mode:lr-tb;direction:ltr;text-orientation:mixed;dominant-baseline:auto;baseline-shift:baseline;text-anchor:start;white-space:normal;shape-padding:0;opacity:1;vector-effect:none;fill:#ffffff;fill-opacity:1;stroke:none;stroke-width:0.26458332;stroke-linecap:butt;stroke-linejoin:miter;stroke-miterlimit:4;stroke-dasharray:none;stroke-dashoffset:0;stroke-opacity:1"
       aria-label="davis">
      <path
         id="path35"
         style="font-style:normal;font-variant:normal;font-weight:300;font-stretch:semi-condensed;font-size:16.93333244px;line-height:6.61458302px;font-family:'Bernina Sans';-inkscape-font-specification:'Bernina Sans, Light Semi-Condensed';font-variant-ligatures:normal;font-variant-position:normal;font-variant-caps:normal;font-variant-numeric:normal;font-variant-alternates:normal;font-feature-settings:normal;text-indent:0;text-align:start;text-decoration-line:none;text-decoration-style:solid;text-decoration-color:#000000;letter-spacing:0px;word-spacing:0px;text-transform:none;writing-mode:lr-tb;direction:ltr;text-orientation:mixed;dominant-baseline:auto;text-anchor:start;white-space:normal;shape-padding:0;vector-effect:none;fill:#ffffff;fill-opacity:1;stroke:none;stroke-width:0.26458332;stroke-linecap:butt;stroke-linejoin:miter;stroke-miterlimit:4;stroke-dasharray:none;stroke-dashoffset:0;stroke-opacity:1"
         d="m 137.20899,119.7842 v 5.52026 c -0.3556,-1.016 -1.1684,-1.60866 -2.4384,-1.60866 -1.0668,0 -1.94733,0.42333 -2.54,1.20226 -0.5588,0.74507 -0.88053,1.79494 -0.88053,3.53907 0,1.69333 0.3048,2.82787 0.89747,3.58986 0.508,0.64347 1.3208,1.1176 2.4384,1.1176 1.38853,0 2.26906,-0.72813 2.52306,-1.74413 l 0.254,1.55787 h 0.67734 V 119.7842 Z m -2.40453,4.6736 c 0.8128,0 1.38853,0.32173 1.79493,0.89746 0.49107,0.7112 0.6604,1.778 0.6604,3.06494 0,1.27 -0.16933,2.35373 -0.6604,3.06493 -0.4064,0.57573 -0.98213,0.89746 -1.79493,0.89746 -0.8128,0 -1.40547,-0.32173 -1.81187,-0.89746 -0.4572,-0.67733 -0.64346,-1.65947 -0.64346,-3.06493 0,-1.38854 0.18626,-2.40454 0.64346,-3.06494 0.4064,-0.57573 0.99907,-0.89746 1.81187,-0.89746 z" />
      <path
         id="path37"
         style="font-style:normal;font-variant:normal;font-weight:300;font-stretch:semi-condensed;font-size:16.93333244px;line-height:6.61458302px;font-family:'Bernina Sans';-inkscape-font-specification:'Bernina Sans, Light Semi-Condensed';font-variant-ligatures:normal;font-variant-position:normal;font-variant-caps:normal;font-variant-numeric:normal;font-variant-alternates:normal;font-feature-settings:normal;text-indent:0;text-align:start;text-decoration-line:none;text-decoration-style:solid;text-decoration-color:#000000;letter-spacing:0px;word-spacing:0px;text-transform:none;writing-mode:lr-tb;direction:ltr;text-orientation:mixed;dominant-baseline:auto;text-anchor:start;white-space:normal;shape-padding:0;vector-effect:none;fill:#ffffff;fill-opacity:1;stroke:none;stroke-width:0.26458332;stroke-linecap:butt;stroke-linejoin:miter;stroke-miterlimit:4;stroke-dasharray:none;stroke-dashoffset:0;stroke-opacity:1"
         d="m 141.06926,124.94886 h 0.11854 c 0,0 0.88053,-0.44026 1.99813,-0.44026 0.9652,0 1.49013,0.32173 1.778,0.77893 0.32173,0.508 0.32173,1.18533 0.32173,2.55693 0,0 -0.38946,-0.0339 -0.9144,-0.0339 -2.86173,0 -3.99626,1.04986 -3.99626,2.72626 0,1.5748 1.016,2.54 2.54,2.54 1.25306,0 2.09973,-0.6604 2.37066,-1.5748 0.0508,1.13453 0.59267,1.524 1.4732,1.524 0.47414,0 0.77894,-0.11853 0.77894,-0.11853 v -0.72814 c 0,0 -0.27094,0.0508 -0.508,0.0508 -0.8128,0 -0.8128,-0.64346 -0.8128,-1.20226 v -4.04707 c 0,-0.7112 -0.0169,-1.59173 -0.42334,-2.21826 -0.508,-0.77894 -1.50706,-0.99907 -2.50613,-0.99907 -1.30387,0 -2.21827,0.37253 -2.21827,0.37253 z m 0.3048,5.57107 c 0,-1.8288 1.89654,-1.9812 3.33587,-1.9812 h 0.57573 v 0.4572 c 0,0.44027 0,1.45627 -0.38946,2.21827 -0.42334,0.82973 -1.1684,1.10066 -1.8288,1.10066 -1.08374,0 -1.69334,-0.74507 -1.69334,-1.79493 z" />
      <path
         id="path39"
         style="font-style:normal;font-variant:normal;font-weight:300;font-stretch:semi-condensed;font-size:16.93333244px;line-height:6.61458302px;font-family:'Bernina Sans';-inkscape-font-specification:'Bernina Sans, Light Semi-Condensed';font-variant-ligatures:normal;font-variant-position:normal;font-variant-caps:normal;font-variant-numeric:normal;font-variant-alternates:normal;font-feature-settings:normal;text-indent:0;text-align:start;text-decoration-line:none;text-decoration-style:solid;text-decoration-color:#000000;letter-spacing:0px;word-spacing:0px;text-transform:none;writing-mode:lr-tb;direction:ltr;text-orientation:mixed;dominant-baseline:auto;text-anchor:start;white-space:normal;shape-padding:0;vector-effect:none;fill:#ffffff;fill-opacity:1;stroke:none;stroke-width:0.26458332;stroke-linecap:butt;stroke-linejoin:miter;stroke-miterlimit:4;stroke-dasharray:none;stroke-dashoffset:0;stroke-opacity:1"
         d="m 148.41092,123.88206 3.11574,9.07627 h 0.89746 l 3.11573,-9.07627 h -0.91439 l -2.5908,7.85707 -2.52307,-7.85707 z" />
      <path
         id="path41"
         style="font-style:normal;font-variant:normal;font-weight:300;font-stretch:semi-condensed;font-size:16.93333244px;line-height:6.61458302px;font-family:'Bernina Sans';-inkscape-font-specification:'Bernina Sans, Light Semi-Condensed';font-variant-ligatures:normal;font-variant-position:normal;font-variant-caps:normal;font-variant-numeric:normal;font-variant-alternates:normal;font-feature-settings:normal;text-indent:0;text-align:start;text-decoration-line:none;text-decoration-style:solid;text-decoration-color:#000000;letter-spacing:0px;word-spacing:0px;text-transform:none;writing-mode:lr-tb;direction:ltr;text-orientation:mixed;dominant-baseline:auto;text-anchor:start;white-space:normal;shape-padding:0;vector-effect:none;fill:#ffffff;fill-opacity:1;stroke:none;stroke-width:0.26458332;stroke-linecap:butt;stroke-linejoin:miter;stroke-miterlimit:4;stroke-dasharray:none;stroke-dashoffset:0;stroke-opacity:1"
         d="m 158.21135,120.4954 c -0.44026,0 -0.6604,0.3048 -0.6604,0.6604 0,0.33866 0.22014,0.64346 0.6604,0.64346 0.42334,0 0.64347,-0.3048 0.64347,-0.64346 0,-0.3556 -0.22013,-0.6604 -0.64347,-0.6604 z m -0.47413,3.38666 v 9.07627 h 0.93133 v -9.07627 z" />
      <path
         id="path43"
         style="font-style:normal;font-variant:normal;font-weight:300;font-stretch:semi-condensed;font-size:16.93333244px;line-height:6.61458302px;font-family:'Bernina Sans';-inkscape-font-specification:'Bernina Sans, Light Semi-Condensed';font-variant-ligatures:normal;font-variant-position:normal;font-variant-caps:normal;font-variant-numeric:normal;font-variant-alternates:normal;font-feature-settings:normal;text-indent:0;text-align:start;text-decoration-line:none;text-decoration-style:solid;text-decoration-color:#000000;letter-spacing:0px;word-spacing:0px;text-transform:none;writing-mode:lr-tb;direction:ltr;text-orientation:mixed;dominant-baseline:auto;text-anchor:start;white-space:normal;shape-padding:0;vector-effect:none;fill:#ffffff;fill-opacity:1;stroke:none;stroke-width:0.26458332;stroke-linecap:butt;stroke-linejoin:miter;stroke-miterlimit:4;stroke-dasharray:none;stroke-dashoffset:0;stroke-opacity:1"
         d="m 165.6046,124.0514 c 0,0 -0.77893,-0.28787 -1.7272,-0.28787 -1.7272,0 -2.70933,0.9144 -2.70933,2.30293 0,1.33774 0.89747,1.91347 1.84573,2.4384 0.9144,0.508 1.96427,0.93134 1.96427,2.21827 0,1.016 -0.6604,1.59173 -1.79493,1.59173 -1.016,0 -1.94734,-0.47413 -1.94734,-0.47413 h -0.11853 v 0.8128 c 0,0 0.762,0.42333 1.9304,0.42333 1.55787,0 2.86173,-0.74507 2.86173,-2.47226 0,-1.27 -0.7112,-1.96427 -1.71026,-2.55694 -0.98214,-0.59266 -2.09974,-0.93133 -2.09974,-2.1336 0,-0.89746 0.62654,-1.40546 1.6764,-1.40546 0.8636,0 1.71027,0.3556 1.71027,0.3556 h 0.11853 z" />
    </g>
    <g
       transform="matrix(0.10336861,0,0,0.10336861,41.962764,121.08357)"
       id="g100">
      <g
         id="Background" />
      <g
         id="Vertical" />
      <g
         id="Horizontal" />
      <g
         id="Dynatrace_Color" />
      <g
         id="Variants">
        <g
           id="g64">
          <g
             id="g48">
            <g
               id="g28">
              <path
                 style="fill:#ffffff"
                 d="m 578.6,37.2 h -18.4 c -5.2,0 -8.8,1 -11,3.2 -2.2,2.1 -3.3,5.8 -3.3,10.8 v 63.6 h -11 V 50.4 c 0.1,-4.9 0.9,-10.2 3.5,-14.2 4.7,-7.5 13.7,-8.9 20.4,-8.9 h 19.9 v 9.9 z"
                 id="path26" />
            </g>
            <g
               id="g32">
              <path
                 style="fill:#ffffff"
                 d="m 507.6,104.8 c -5.2,0 -8.8,-1 -11,-3.2 C 494.4,99.5 493.3,96 493.3,91 V 37.2 h 23.1 V 27.3 H 493.3 V 1 h -11 v 90.6 c 0.1,4.9 0.9,10.2 3.5,14.2 4.7,7.5 13.7,8.9 20.4,8.9 h 19.9 v -9.9 z"
                 id="path30" />
            </g>
            <path
               style="fill:#ffffff"
               d="m 219.3,1 v 26.2 h -23.1 c -14,0 -22.5,4.2 -27.8,9.3 -8.1,7.9 -8.1,19.2 -8.1,20.4 0,1.4 0,26.8 0,28.2 0,1.2 0,12.5 8.1,20.4 5.2,5.1 13.7,9.3 27.8,9.3 h 10.3 c 6.7,0 15.7,-1.5 20.4,-8.9 2.5,-4 3.4,-9.3 3.5,-14.2 V 1 Z M 216,101.7 c -2.2,2.1 -5.8,3.2 -11,3.2 h -10 c -9.1,0 -14.8,-2.6 -18.2,-6 -4.1,-4 -5.5,-9.3 -5.5,-13.4 V 56.6 c 0,-4.1 1.4,-9.4 5.5,-13.4 3.5,-3.4 9.1,-6 18.2,-6 h 24.2 v 53.9 c 0.1,4.9 -1,8.4 -3.2,10.6 z"
               id="path34" />
            <path
               style="fill:#ffffff"
               d="m 678.2,43.2 c 3.5,-3.4 9.1,-6 18.2,-6 h 26.5 v -9.9 h -25.4 c -14,0 -22.5,4.2 -27.8,9.3 -8.1,7.9 -8.1,19.2 -8.1,20.4 0,0.8 0,27.4 0,28.2 0,1.2 0,12.5 8.1,20.4 5.2,5.1 13.7,9.3 27.8,9.3 h 25.4 V 105 h -26.5 c -9.1,0 -14.8,-2.6 -18.2,-6 -4.1,-4 -5.5,-9.3 -5.5,-13.4 v -29 c 0,-4.1 1.4,-9.5 5.5,-13.4 z"
               id="path36" />
            <path
               style="fill:#ffffff"
               d="m 470.9,56.9 c 0,-1.2 0,-12.5 -8.1,-20.4 -5.2,-5.1 -13.7,-9.3 -27.8,-9.3 h -24.5 v 9.9 h 25.6 c 9.1,0 14.8,2.6 18.2,6 4.1,4 5.5,9.3 5.5,13.4 V 65 h -35.1 c -6.7,0 -15.7,1.5 -20.4,8.9 -2.5,4 -3.4,9.3 -3.5,14.2 v 3.5 c 0.1,4.9 0.9,10.2 3.5,14.2 4.7,7.5 13.7,8.9 20.4,8.9 H 447 c 6.7,0 15.7,-1.5 20.4,-8.9 2.5,-4 3.4,-9.3 3.5,-14.2 0,0 0,-29 0,-34.7 z m -14.3,44.8 c -2.2,2.1 -5.8,3.2 -11,3.2 h -19.4 c -5.2,0 -8.8,-1 -11,-3.2 C 413,99.5 412,96 412,91.1 v -2.4 c 0,-5 1.1,-8.5 3.3,-10.6 2.2,-2.1 5.8,-3.2 11,-3.2 h 33.6 v 16.2 c 0,4.9 -1.1,8.4 -3.3,10.6 z"
               id="path38" />
            <path
               style="fill:#ffffff"
               d="m 652.9,56.9 c 0,-1.2 0,-12.5 -8.1,-20.4 -5.2,-5.1 -13.7,-9.3 -27.8,-9.3 h -24.5 v 9.9 h 25.6 c 9.1,0 14.8,2.6 18.2,6 4.1,4 5.5,9.3 5.5,13.4 V 65 h -35.1 c -6.7,0 -15.7,1.5 -20.4,8.9 -2.5,4 -3.4,9.3 -3.5,14.2 v 3.5 c 0.1,4.9 0.9,10.2 3.5,14.2 4.7,7.5 13.7,8.9 20.4,8.9 H 629 c 6.7,0 15.7,-1.5 20.4,-8.9 2.5,-4 3.4,-9.3 3.5,-14.2 0,0 0,-29 0,-34.7 z m -14.3,44.8 c -2.2,2.1 -5.8,3.2 -11,3.2 h -19.4 c -5.2,0 -8.8,-1 -11,-3.2 C 595,99.5 594,96 594,91.1 v -2.4 c 0,-5 1.1,-8.5 3.3,-10.6 2.2,-2.1 5.8,-3.2 11,-3.2 h 33.6 v 16.2 c 0,4.9 -1.1,8.4 -3.3,10.6 z"
               id="path40" />
            <path
               id="polygon42"
               d="M 317.8,27.2 H 306.3 L 278.4,99.8 250.5,27.2 h -11.4 l 33.6,87.5 -10.1,26.3 h 11.5 z"
               style="fill:#ffffff" />
            <path
               style="fill:#ffffff"
               d="m 392.2,56.9 c 0,-1.2 0,-12.5 -8,-20.4 -5.1,-5 -13.2,-9.1 -26.4,-9.3 h -1.2 c -13.2,0.2 -21.3,4.3 -26.4,9.3 -8,7.9 -8,19.2 -8,20.4 0,1.4 0,53.4 0,57.9 h 11 V 56.6 c 0,-4.1 1.3,-9.4 5.4,-13.4 3.4,-3.3 9.9,-5.9 18.6,-6 8.7,0.1 15.2,2.7 18.6,6 4,4 5.4,9.3 5.4,13.4 v 58.2 h 11 c 0,-4.5 0,-56.5 0,-57.9 z"
               id="path44" />
            <path
               style="fill:#ffffff"
               d="m 791,36.5 c -5.1,-5 -13.2,-9.1 -26.4,-9.3 h -1.2 c -13.2,0.2 -21.3,4.3 -26.4,9.3 -8,7.9 -8,19.2 -8,20.4 v 28.2 c 0,1.2 0,12.5 8,20.4 5.1,5 13.2,9.1 26.4,9.3 h 26 v -10 H 764 c -8.7,-0.1 -15.2,-2.7 -18.6,-6 -4,-4 -5.4,-9.3 -5.4,-13.4 V 75.1 h 59 V 56.9 c 0.1,-1.2 0.1,-12.5 -8,-20.4 z m -50.9,28.7 v -8.6 c 0,-4.1 1.3,-9.4 5.4,-13.4 3.4,-3.3 9.9,-5.9 18.6,-6 8.7,0.1 15.2,2.7 18.6,6 4,4 5.4,9.3 5.4,13.4 v 8.6 z"
               id="path46" />
          </g>
          <g
             id="g62">
            <path
               style="fill:#1496ff"
               d="m 47.7,12.7 c -1.8,9.5 -4,23.6 -5.2,37.9 -2.1,25.2 -0.8,42.1 -0.8,42.1 L 6.2,126.4 c 0,0 -2.7,-18.9 -4.1,-40.2 C 1.3,73 1,61.4 1,54.4 1,54 1.2,53.6 1.2,53.2 1.2,52.7 1.8,48 6.4,43.6 11.4,38.8 48.3,9.9 47.7,12.7 Z"
               id="path50" />
            <path
               style="fill:#1284ea"
               d="m 47.7,12.7 c -1.8,9.5 -4,23.6 -5.2,37.9 0,0 -39.3,-4.7 -41.5,4.8 0,-0.5 0.7,-6.3 5.3,-10.7 5,-4.8 42,-34.8 41.4,-32 z"
               id="path52" />
            <path
               style="fill:#b4dc00"
               d="m 1,53.1 c 0,0.7 0,1.4 0,2.2 0.4,-1.7 1.1,-2.9 2.5,-4.8 2.9,-3.7 7.6,-4.7 9.5,-4.9 9.6,-1.3 23.8,-2.8 38.1,-3.2 25.3,-0.8 42,1.3 42,1.3 L 128.6,10 C 128.6,10 110,6.5 88.8,4 74.9,2.3 62.7,1.4 55.8,1 55.3,1 50.4,0.4 45.8,4.8 40.8,9.6 15.4,33.7 5.2,43.4 0.6,47.8 1,52.7 1,53.1 Z"
               id="path54" />
            <path
               style="fill:#6f2da8"
               d="m 127.3,96.2 c -9.6,1.3 -23.8,2.9 -38.1,3.4 -25.3,0.8 -42.1,-1.3 -42.1,-1.3 l -35.5,33.8 c 0,0 18.8,3.7 40,6.1 13,1.5 24.5,2.3 31.5,2.7 0.5,0 1.3,-0.4 1.8,-0.4 0.5,0 5.4,-0.9 10,-5.3 5,-4.8 35.2,-39.3 32.4,-39 z"
               id="path56" />
            <path
               style="fill:#591f91"
               d="m 127.3,96.2 c -9.6,1.3 -23.8,2.9 -38.1,3.4 0,0 2.7,39.5 -6.8,41.2 0.5,0 7,-0.3 11.6,-4.7 5,-4.8 36.1,-40.2 33.3,-39.9 z"
               id="path58" />
            <path
               style="fill:#73be28"
               d="m 84.5,141 c -0.7,0 -1.4,-0.1 -2.2,-0.1 1.8,-0.3 3,-0.9 4.9,-2.3 3.8,-2.7 5,-7.4 5.4,-9.3 1.7,-9.5 4,-23.6 5.1,-37.9 2,-25.2 0.8,-42 0.8,-42 L 134,15.6 c 0,0 2.6,18.8 4.1,40.1 0.9,13.9 1.2,26.2 1.3,33 0,0.5 0.4,5.4 -4.2,9.8 -5,4.8 -30.4,29 -40.5,38.7 -4.8,4.4 -9.7,3.8 -10.2,3.8 z"
               id="path60" />
          </g>
        </g>
      </g>
    </g>
  </g>
</svg>
