<?xml version="1.0" encoding="utf-8"?>
<!-- Generator: Adobe Illustrator 16.0.4, SVG Export Plug-In . SVG Version: 6.00 Build 0)  -->
<!DOCTYPE svg PUBLIC "-//W3C//DTD SVG 1.1//EN" "http://www.w3.org/Graphics/SVG/1.1/DTD/svg11.dtd">
<svg version="1.1" id="Layer_1" xmlns="http://www.w3.org/2000/svg" xmlns:xlink="http://www.w3.org/1999/xlink" x="0px" y="0px"
	 width="512px" height="512px" viewBox="0 0 512 512" enable-background="new 0 0 512 512" xml:space="preserve">
<g>
	<path fill="#dc172a" d="M161.905,160.087C161.905,108.119,204.039,66,256,66s94.095,42.119,94.095,94.087
		c0,51.961-42.134,94.087-94.095,94.087S161.905,212.048,161.905,160.087z"/>
	<path fill="#dc172a" d="M407.102,308.094c-0.571-18.458-15.675-33.25-34.266-33.25H139.165c-18.592,0-33.696,14.792-34.267,33.25
		h-0.053v103.588c0,18.955,15.363,34.318,34.319,34.318h34.326v-64.17h7.6V446h149.811v-64.17h7.601V446h34.334
		c18.955,0,34.318-15.363,34.318-34.318V308.094H407.102z"/>
</g>
</svg>
