<?xml version="1.0" encoding="utf-8"?>
<!-- Generator: Adobe Illustrator 20.0.0, SVG Export Plug-In . SVG Version: 6.00 Build 0)  -->
<svg version="1.1" id="Layer_1" xmlns="http://www.w3.org/2000/svg" xmlns:xlink="http://www.w3.org/1999/xlink" x="0px" y="0px"
	 width="512px" height="512px" viewBox="0 0 512 512" style="enable-background:new 0 0 512 512;" xml:space="preserve">
<style type="text/css">
	.st0{fill:#dc172a;}
</style>
<path class="st0" d="M388,100c0-30.9-59.1-56-132-56s-132,25.1-132,56c0,0.2,0,0.5,0,0.7l0,0v34.7l0,0l0,0v122l0,0l0,0v154
	c0,31.3,59.1,56.7,132,56.7s132-25.4,132-56.7V100.7l0,0C388,100.5,388,100.2,388,100z M360,257.8c-0.8,19.1-47.1,34.5-104,34.5
	s-103.1-15.4-104-34.5v-87.6c24.2,13.2,61.8,21.8,104,21.8s79.8-8.5,104-21.8V257.8z M360,135.9c-0.8,19.1-47.1,34.5-104,34.5
	S152.9,155,152,135.9v-1.4c24.2,13.1,61.8,21.5,104,21.5s79.8-8.4,104-21.5V135.9z M256,65.4c57.5,0,104,15.5,104,34.6
	s-46.6,34.6-104,34.6S152,119.1,152,100S198.5,65.4,256,65.4z M332.7,427.9c-20.9,7.8-48.2,12.1-76.7,12.1s-55.7-4.3-76.7-12.1
	c-19.6-7.3-26.3-15-27.3-17.1V292.2c24.2,13.2,61.8,21.8,104,21.8s79.8-8.5,104-21.8v118.6C359,412.9,352.2,420.6,332.7,427.9z"/>
<ellipse class="st0" cx="256" cy="100" rx="9.7" ry="6"/>
<ellipse class="st0" cx="183.4" cy="100" rx="19.4" ry="12"/>
<ellipse class="st0" cx="328.6" cy="100" rx="19.4" ry="12"/>
<circle class="st0" cx="176" cy="334" r="8"/>
<circle class="st0" cx="176" cy="366" r="8"/>
<circle class="st0" cx="176" cy="398" r="8"/>
<circle class="st0" cx="336" cy="334" r="8"/>
<circle class="st0" cx="336" cy="366" r="8"/>
<circle class="st0" cx="336" cy="398" r="8"/>
<circle class="st0" cx="296" cy="342" r="8"/>
<circle class="st0" cx="296" cy="374" r="8"/>
<circle class="st0" cx="296" cy="406" r="8"/>
<circle class="st0" cx="256" cy="346" r="8"/>
<circle class="st0" cx="256" cy="378" r="8"/>
<circle class="st0" cx="256" cy="410" r="8"/>
<circle class="st0" cx="216" cy="342" r="8"/>
<circle class="st0" cx="216" cy="374" r="8"/>
<circle class="st0" cx="216" cy="406" r="8"/>
</svg>
